<?xml version="1.0" encoding="utf-8"?>
<!-- Generator: Adobe Illustrator 21.0.2, SVG Export Plug-In . SVG Version: 6.00 Build 0)  -->
<svg version="1.1" id="图层_1" xmlns="http://www.w3.org/2000/svg" xmlns:xlink="http://www.w3.org/1999/xlink" x="0px" y="0px"
	 viewBox="0 0 50 50" style="enable-background:new 0 0 50 50;" xml:space="preserve">
<style type="text/css">
	.st0{opacity:0.2;}
	.st1{fill:#FFFFFF;}
	.st2{fill:#F93E54;}
</style>
<g>
	<g class="st0">
		<path d="M15.5,26c0.3,5.3,4.6,9.5,10,9.5c5.4,0,9.7-4.2,10-9.5H15.5z"/>
		<path d="M35.5,25c-0.3-5.3-4.6-9.5-10-9.5c-5.4,0-9.7,4.2-10,9.5H35.5z"/>
		<polygon points="35.5,25.5 35.5,25.5 35.5,25.5 		"/>
		<path d="M38.5,9.5h-26c-1.7,0-3,1.3-3,3v26c0,1.6,1.3,3,3,3h26c1.6,0,3-1.4,3-3v-26C41.5,10.8,40.2,9.5,38.5,9.5z M25.5,36.5
			c-6.1,0-11-4.9-11-11s4.9-11,11-11s11,4.9,11,11S31.6,36.5,25.5,36.5z"/>
		<path d="M38.5,7.5h-26c-2.8,0-5,2.2-5,5v26c0,2.8,2.2,5,5,5h26c2.8,0,5-2.2,5-5v-26C43.5,9.7,41.3,7.5,38.5,7.5z M41.5,38.5
			c0,1.6-1.4,3-3,3h-26c-1.7,0-3-1.4-3-3v-26c0-1.7,1.3-3,3-3h26c1.6,0,3,1.3,3,3V38.5z"/>
		<path d="M25.5,14.5c-6.1,0-11,4.9-11,11s4.9,11,11,11s11-4.9,11-11S31.6,14.5,25.5,14.5z M25.5,15.5c5.4,0,9.7,4.2,10,9.5H15.5
			C15.8,19.7,20.2,15.5,25.5,15.5z M25.5,35.5c-5.4,0-9.7-4.2-10-9.5h19.9C35.2,31.3,30.9,35.5,25.5,35.5z M35.5,25.5L35.5,25.5
			C35.5,25.5,35.5,25.5,35.5,25.5C35.5,25.5,35.5,25.5,35.5,25.5z"/>
	</g>
	<g>
		<g>
			<path class="st1" d="M14.5,25c0.3,5.3,4.6,9.5,10,9.5c5.4,0,9.7-4.2,10-9.5H14.5z"/>
			<path class="st1" d="M34.5,24c-0.3-5.3-4.6-9.5-10-9.5c-5.4,0-9.7,4.2-10,9.5H34.5z"/>
			<polygon class="st1" points="34.5,24.5 34.5,24.5 34.5,24.5 			"/>
			<path class="st1" d="M37.5,8.5h-26c-1.7,0-3,1.3-3,3v26c0,1.6,1.3,3,3,3h26c1.6,0,3-1.4,3-3v-26C40.5,9.8,39.2,8.5,37.5,8.5z
				 M24.5,35.5c-6.1,0-11-4.9-11-11s4.9-11,11-11s11,4.9,11,11S30.6,35.5,24.5,35.5z"/>
			<path class="st2" d="M37.5,6.5h-26c-2.8,0-5,2.2-5,5v26c0,2.8,2.2,5,5,5h26c2.8,0,5-2.2,5-5v-26C42.5,8.7,40.3,6.5,37.5,6.5z
				 M40.5,37.5c0,1.6-1.4,3-3,3h-26c-1.7,0-3-1.4-3-3v-26c0-1.7,1.3-3,3-3h26c1.6,0,3,1.3,3,3V37.5z"/>
			<path class="st2" d="M24.5,13.5c-6.1,0-11,4.9-11,11s4.9,11,11,11s11-4.9,11-11S30.6,13.5,24.5,13.5z M24.5,14.5
				c5.4,0,9.7,4.2,10,9.5H14.5C14.8,18.7,19.2,14.5,24.5,14.5z M24.5,34.5c-5.4,0-9.7-4.2-10-9.5h19.9
				C34.2,30.3,29.9,34.5,24.5,34.5z M34.5,24.5L34.5,24.5C34.5,24.5,34.5,24.5,34.5,24.5C34.5,24.5,34.5,24.5,34.5,24.5z"/>
		</g>
	</g>
</g>
</svg>
