<?xml version="1.0" encoding="utf-8"?>
<!-- Generator: Adobe Illustrator 21.0.2, SVG Export Plug-In . SVG Version: 6.00 Build 0)  -->
<svg version="1.1" id="图层_1" xmlns="http://www.w3.org/2000/svg" xmlns:xlink="http://www.w3.org/1999/xlink" x="0px" y="0px"
	 viewBox="0 0 50 50" style="enable-background:new 0 0 50 50;" xml:space="preserve">
<style type="text/css">
	.st0{opacity:0.2;}
	.st1{fill:#FFFFFF;}
	.st2{fill:#F93E54;}
</style>
<g>
	<g class="st0">
		<circle cx="30.3" cy="25.5" r="4"/>
		<circle cx="20.7" cy="25.5" r="4"/>
		<path d="M40.2,10c-0.2-0.1-0.3-0.2-0.5-0.3c-0.4-0.2-0.8-0.2-1.2-0.2h-26c-1.7,0-3,1.4-3,3v26c0,1.7,1.3,3,3,3h26
			c0.4,0,0.8-0.1,1.2-0.2c0.2-0.1,0.3-0.2,0.5-0.3c0.3-0.2,0.6-0.5,0.8-0.8c0.3-0.5,0.5-1.1,0.5-1.7v-26c0-0.6-0.2-1.2-0.5-1.7
			C40.8,10.5,40.5,10.2,40.2,10z M30.3,30.5c-2.3,0-4.1-1.5-4.8-3.6c-0.6,2.1-2.5,3.6-4.8,3.6c-2.8,0-5-2.2-5-5s2.2-5,5-5
			c2.3,0,4.1,1.5,4.8,3.6c0.6-2.1,2.5-3.6,4.8-3.6c2.8,0,5,2.2,5,5S33,30.5,30.3,30.5z"/>
		<path d="M38.5,7.5h-26c-2.8,0-5,2.2-5,5v26c0,2.8,2.2,5,5,5h26c2.8,0,5-2.2,5-5v-26C43.5,9.7,41.3,7.5,38.5,7.5z M41.5,38.5
			c0,0.6-0.2,1.2-0.5,1.7c-0.2,0.3-0.5,0.6-0.8,0.8c-0.2,0.1-0.3,0.2-0.5,0.3c-0.4,0.2-0.8,0.2-1.2,0.2h-26c-1.7,0-3-1.3-3-3v-26
			c0-1.6,1.3-3,3-3h26c0.4,0,0.8,0.1,1.2,0.2c0.2,0.1,0.3,0.2,0.5,0.3c0.3,0.2,0.6,0.5,0.8,0.8c0.3,0.5,0.5,1.1,0.5,1.7V38.5z"/>
		<path d="M30.3,20.5c-2.3,0-4.1,1.5-4.8,3.6c-0.6-2.1-2.5-3.6-4.8-3.6c-2.8,0-5,2.2-5,5s2.2,5,5,5c2.3,0,4.1-1.5,4.8-3.6
			c0.6,2.1,2.5,3.6,4.8,3.6c2.8,0,5-2.2,5-5S33,20.5,30.3,20.5z M20.7,29.5c-2.2,0-4-1.8-4-4c0-2.2,1.8-4,4-4c2.2,0,4,1.8,4,4
			C24.7,27.7,22.9,29.5,20.7,29.5z M30.3,29.5c-2.2,0-4-1.8-4-4c0-2.2,1.8-4,4-4s4,1.8,4,4C34.3,27.7,32.5,29.5,30.3,29.5z"/>
	</g>
	<g>
		<g>
			<circle class="st1" cx="29.3" cy="24.5" r="4"/>
			<circle class="st1" cx="19.7" cy="24.5" r="4"/>
			<path class="st1" d="M39.2,9c-0.2-0.1-0.3-0.2-0.5-0.3c-0.4-0.2-0.8-0.2-1.2-0.2h-26c-1.7,0-3,1.4-3,3v26c0,1.7,1.3,3,3,3h26
				c0.4,0,0.8-0.1,1.2-0.2c0.2-0.1,0.3-0.2,0.5-0.3c0.3-0.2,0.6-0.5,0.8-0.8c0.3-0.5,0.5-1.1,0.5-1.7v-26c0-0.6-0.2-1.2-0.5-1.7
				C39.8,9.5,39.5,9.2,39.2,9z M29.3,29.5c-2.3,0-4.1-1.5-4.8-3.6c-0.6,2.1-2.5,3.6-4.8,3.6c-2.8,0-5-2.2-5-5s2.2-5,5-5
				c2.3,0,4.1,1.5,4.8,3.6c0.6-2.1,2.5-3.6,4.8-3.6c2.8,0,5,2.2,5,5S32,29.5,29.3,29.5z"/>
			<path class="st2" d="M37.5,6.5h-26c-2.8,0-5,2.2-5,5v26c0,2.8,2.2,5,5,5h26c2.8,0,5-2.2,5-5v-26C42.5,8.7,40.3,6.5,37.5,6.5z
				 M40.5,37.5c0,0.6-0.2,1.2-0.5,1.7c-0.2,0.3-0.5,0.6-0.8,0.8c-0.2,0.1-0.3,0.2-0.5,0.3c-0.4,0.2-0.8,0.2-1.2,0.2h-26
				c-1.7,0-3-1.3-3-3v-26c0-1.6,1.3-3,3-3h26c0.4,0,0.8,0.1,1.2,0.2C38.8,8.8,39,8.9,39.2,9c0.3,0.2,0.6,0.5,0.8,0.8
				c0.3,0.5,0.5,1.1,0.5,1.7V37.5z"/>
			<path class="st2" d="M29.3,19.5c-2.3,0-4.1,1.5-4.8,3.6c-0.6-2.1-2.5-3.6-4.8-3.6c-2.8,0-5,2.2-5,5s2.2,5,5,5
				c2.3,0,4.1-1.5,4.8-3.6c0.6,2.1,2.5,3.6,4.8,3.6c2.8,0,5-2.2,5-5S32,19.5,29.3,19.5z M19.7,28.5c-2.2,0-4-1.8-4-4
				c0-2.2,1.8-4,4-4c2.2,0,4,1.8,4,4C23.7,26.7,21.9,28.5,19.7,28.5z M29.3,28.5c-2.2,0-4-1.8-4-4c0-2.2,1.8-4,4-4s4,1.8,4,4
				C33.3,26.7,31.5,28.5,29.3,28.5z"/>
		</g>
	</g>
</g>
</svg>
