<?xml version="1.0" encoding="utf-8"?>
<!-- Generator: Adobe Illustrator 21.0.2, SVG Export Plug-In . SVG Version: 6.00 Build 0)  -->
<svg version="1.1" id="图层_1" xmlns="http://www.w3.org/2000/svg" xmlns:xlink="http://www.w3.org/1999/xlink" x="0px" y="0px"
	 viewBox="0 0 50 50" style="enable-background:new 0 0 50 50;" xml:space="preserve">
<style type="text/css">
	.st0{opacity:0.2;}
	.st1{fill:#FFFFFF;}
	.st2{fill:#F93E54;}
</style>
<g>
	<g class="st0">
		<path d="M41.5,12.5c0-0.8-0.3-1.6-0.9-2.1c-0.4-0.4-0.9-0.7-1.5-0.8c-0.2,0-0.4-0.1-0.6-0.1h-26c-1.7,0-3,1.3-3,3v26
			c0,1.6,1.3,3,3,3h26c0.2,0,0.4,0,0.6-0.1c0.6-0.1,1.1-0.4,1.5-0.8c0.5-0.5,0.9-1.3,0.9-2.1V12.5z M25.5,36.5c-6.1,0-11-4.9-11-11
			s4.9-11,11-11s11,4.9,11,11S31.6,36.5,25.5,36.5z"/>
		<path d="M25.5,15.5c-5.5,0-10,4.5-10,10c0,5.5,4.5,10,10,10c5.5,0,10-4.5,10-10C35.5,20,31,15.5,25.5,15.5z M25.5,32
			c-0.5,0-1-0.4-1-1c0-0.5,0.4-1,1-1c0.5,0,1,0.4,1,1C26.5,31.5,26,32,25.5,32z M29.2,24.1c-0.3,0.5-0.8,1-1.5,1.7
			c-0.5,0.5-0.8,0.8-1,1c-0.2,0.2-0.3,0.5-0.4,0.7c-0.1,0.3-0.1,0.7-0.1,1.4h-1.5c0-0.2,0-0.4,0-0.5c0-0.6,0.1-1.1,0.3-1.6
			c0.1-0.3,0.3-0.7,0.6-1c0.2-0.2,0.6-0.6,1.1-1.1c0.5-0.5,0.9-0.9,1.1-1.1S28,23,28,22.6c0-0.6-0.2-1.1-0.7-1.6
			c-0.5-0.5-1.1-0.7-1.8-0.7c-0.7,0-1.2,0.2-1.7,0.6c-0.4,0.4-0.7,1.1-0.9,2l-1.6-0.2c0.1-1.2,0.6-2.1,1.3-2.7c0.7-0.6,1.7-1,2.8-1
			h0h0h0c1.3,0,2.2,0.3,3,1c0.7,0.7,1.1,1.5,1.1,2.5C29.6,23.1,29.5,23.6,29.2,24.1z"/>
		<path d="M38.5,7.5h-26c-2.8,0-5,2.2-5,5v26c0,2.8,2.2,5,5,5h26c2.8,0,5-2.2,5-5v-26C43.5,9.7,41.3,7.5,38.5,7.5z M41.5,38.5
			c0,0.8-0.3,1.6-0.9,2.1c-0.4,0.4-0.9,0.7-1.5,0.8c-0.2,0-0.4,0.1-0.6,0.1h0h-26c-1.7,0-3-1.4-3-3v-26c0-1.7,1.3-3,3-3h26h0
			c0.2,0,0.4,0,0.6,0.1c0.6,0.1,1.1,0.4,1.5,0.8c0.5,0.5,0.9,1.3,0.9,2.1V38.5z"/>
		<path d="M25.5,14.5c-6.1,0-11,4.9-11,11s4.9,11,11,11s11-4.9,11-11S31.6,14.5,25.5,14.5z M25.5,35.5c-5.5,0-10-4.5-10-10
			c0-5.5,4.5-10,10-10c5.5,0,10,4.5,10,10C35.5,31,31,35.5,25.5,35.5z"/>
		<path d="M25.5,19c-1.2,0-2.1,0.3-2.8,1c-0.7,0.6-1.1,1.5-1.3,2.7l1.6,0.2c0.1-0.9,0.4-1.5,0.9-2c0.4-0.4,1-0.6,1.7-0.6
			c0.7,0,1.3,0.2,1.8,0.7c0.5,0.5,0.7,1,0.7,1.6c0,0.3-0.1,0.6-0.2,0.9s-0.5,0.7-1.1,1.1c-0.5,0.5-0.9,0.8-1.1,1.1
			c-0.3,0.3-0.5,0.7-0.6,1c-0.2,0.4-0.3,1-0.3,1.6c0,0.1,0,0.3,0,0.5h1.5c0-0.6,0.1-1.1,0.1-1.4c0.1-0.3,0.2-0.5,0.4-0.7
			c0.2-0.2,0.5-0.5,1-1c0.8-0.7,1.3-1.2,1.5-1.7s0.4-1,0.4-1.5c0-1-0.4-1.8-1.1-2.5C27.8,19.4,26.8,19,25.5,19z"/>
		<circle cx="25.5" cy="31" r="1"/>
		<polygon points="25.5,19 25.5,19 25.5,19 		"/>
	</g>
	<g>
		<g>
			<path class="st1" d="M40.5,11.5c0-0.8-0.3-1.6-0.9-2.1c-0.4-0.4-0.9-0.7-1.5-0.8c-0.2,0-0.4-0.1-0.6-0.1h-26c-1.7,0-3,1.3-3,3v26
				c0,1.6,1.3,3,3,3h26c0.2,0,0.4,0,0.6-0.1c0.6-0.1,1.1-0.4,1.5-0.8c0.5-0.5,0.9-1.3,0.9-2.1V11.5z M24.5,35.5c-6.1,0-11-4.9-11-11
				s4.9-11,11-11s11,4.9,11,11S30.6,35.5,24.5,35.5z"/>
			<path class="st1" d="M24.5,14.5c-5.5,0-10,4.5-10,10c0,5.5,4.5,10,10,10c5.5,0,10-4.5,10-10C34.5,19,30,14.5,24.5,14.5z M24.5,31
				c-0.5,0-1-0.4-1-1c0-0.5,0.4-1,1-1c0.5,0,1,0.4,1,1C25.5,30.5,25,31,24.5,31z M28.2,23.1c-0.3,0.5-0.8,1-1.5,1.7
				c-0.5,0.5-0.8,0.8-1,1c-0.2,0.2-0.3,0.5-0.4,0.7c-0.1,0.3-0.1,0.7-0.1,1.4h-1.5c0-0.2,0-0.4,0-0.5c0-0.6,0.1-1.1,0.3-1.6
				c0.1-0.3,0.3-0.7,0.6-1c0.2-0.2,0.6-0.6,1.1-1.1c0.5-0.5,0.9-0.9,1.1-1.1S27,22,27,21.6c0-0.6-0.2-1.1-0.7-1.6
				c-0.5-0.5-1.1-0.7-1.8-0.7c-0.7,0-1.2,0.2-1.7,0.6c-0.4,0.4-0.7,1.1-0.9,2l-1.6-0.2c0.1-1.2,0.6-2.1,1.3-2.7c0.7-0.6,1.7-1,2.8-1
				h0h0h0c1.3,0,2.2,0.3,3,1c0.7,0.7,1.1,1.5,1.1,2.5C28.6,22.1,28.5,22.6,28.2,23.1z"/>
			<path class="st2" d="M37.5,6.5h-26c-2.8,0-5,2.2-5,5v26c0,2.8,2.2,5,5,5h26c2.8,0,5-2.2,5-5v-26C42.5,8.7,40.3,6.5,37.5,6.5z
				 M40.5,37.5c0,0.8-0.3,1.6-0.9,2.1c-0.4,0.4-0.9,0.7-1.5,0.8c-0.2,0-0.4,0.1-0.6,0.1h0h-26c-1.7,0-3-1.4-3-3v-26c0-1.7,1.3-3,3-3
				h26h0c0.2,0,0.4,0,0.6,0.1c0.6,0.1,1.1,0.4,1.5,0.8c0.5,0.5,0.9,1.3,0.9,2.1V37.5z"/>
			<path class="st2" d="M24.5,13.5c-6.1,0-11,4.9-11,11s4.9,11,11,11s11-4.9,11-11S30.6,13.5,24.5,13.5z M24.5,34.5
				c-5.5,0-10-4.5-10-10c0-5.5,4.5-10,10-10c5.5,0,10,4.5,10,10C34.5,30,30,34.5,24.5,34.5z"/>
			<path class="st2" d="M24.5,18c-1.2,0-2.1,0.3-2.8,1c-0.7,0.6-1.1,1.5-1.3,2.7l1.6,0.2c0.1-0.9,0.4-1.5,0.9-2
				c0.4-0.4,1-0.6,1.7-0.6c0.7,0,1.3,0.2,1.8,0.7c0.5,0.5,0.7,1,0.7,1.6c0,0.3-0.1,0.6-0.2,0.9s-0.5,0.7-1.1,1.1
				c-0.5,0.5-0.9,0.8-1.1,1.1c-0.3,0.3-0.5,0.7-0.6,1c-0.2,0.4-0.3,1-0.3,1.6c0,0.1,0,0.3,0,0.5h1.5c0-0.6,0.1-1.1,0.1-1.4
				c0.1-0.3,0.2-0.5,0.4-0.7c0.2-0.2,0.5-0.5,1-1c0.8-0.7,1.3-1.2,1.5-1.7s0.4-1,0.4-1.5c0-1-0.4-1.8-1.1-2.5
				C26.8,18.4,25.8,18,24.5,18z"/>
			<circle class="st2" cx="24.5" cy="30" r="1"/>
			<polygon class="st2" points="24.5,18 24.5,18 24.5,18 			"/>
		</g>
	</g>
</g>
</svg>
