<?xml version="1.0" encoding="utf-8"?>
<!-- Generator: Adobe Illustrator 21.0.2, SVG Export Plug-In . SVG Version: 6.00 Build 0)  -->
<svg version="1.1" id="图层_1" xmlns="http://www.w3.org/2000/svg" xmlns:xlink="http://www.w3.org/1999/xlink" x="0px" y="0px"
	 viewBox="0 0 50 50" style="enable-background:new 0 0 50 50;" xml:space="preserve">
<style type="text/css">
	.st0{opacity:0.2;}
	.st1{fill:#FFFFFF;}
	.st2{fill:#F93E54;}
</style>
<g>
	<g class="st0">
		<rect x="21.7" y="22.1" width="3.6" height="3.6"/>
		<path d="M40.2,10c-0.2-0.1-0.3-0.2-0.5-0.3c-0.4-0.2-0.8-0.2-1.2-0.2h-26c-1.7,0-3,1.4-3,3v26c0,1.7,1.3,3,3,3h26
			c0.4,0,0.8-0.1,1.2-0.2c0.2-0.1,0.3-0.2,0.5-0.3c0.3-0.2,0.6-0.5,0.8-0.8c0.3-0.5,0.5-1.1,0.5-1.7v-26c0-0.6-0.2-1.2-0.5-1.7
			C40.8,10.5,40.5,10.2,40.2,10z M25.5,36.5c-6.1,0-11-4.9-11-11s4.9-11,11-11s11,4.9,11,11S31.6,36.5,25.5,36.5z"/>
		<rect x="25.7" y="22.1" width="3.6" height="3.6"/>
		<path d="M25.5,15.5c-5.5,0-10,4.5-10,10c0,5.5,4.5,10,10,10s10-4.5,10-10C35.5,20,31,15.5,25.5,15.5z M29.8,27h-0.6
			c0-0.2,0.1-0.5,0.1-0.8h-3.6v3.6c0,0.3,0,0.5,0.1,0.8h-0.6c0-0.3,0.1-0.6,0.1-0.8v-3.6h-3.6c0,0.3,0,0.5,0.1,0.8h-0.6
			c0-0.3,0.1-0.6,0.1-0.8v-3.6c0-0.2,0-0.5-0.1-0.9c0.3,0,0.6,0.1,0.9,0.1h3.2v-1.3c0-0.3,0-0.6-0.1-0.9h0.6c0,0.3-0.1,0.6-0.1,0.9
			v1.3h3.1c0.3,0,0.6,0,0.9-0.1c0,0.3-0.1,0.6-0.1,0.9v3.5C29.7,26.4,29.8,26.6,29.8,27z"/>
		<path d="M38.5,7.5h-26c-2.8,0-5,2.2-5,5v26c0,2.8,2.2,5,5,5h26c2.8,0,5-2.2,5-5v-26C43.5,9.7,41.3,7.5,38.5,7.5z M41.5,38.5
			c0,0.6-0.2,1.2-0.5,1.7c-0.2,0.3-0.5,0.6-0.8,0.8c-0.2,0.1-0.3,0.2-0.5,0.3c-0.4,0.2-0.8,0.2-1.2,0.2h-26c-1.7,0-3-1.3-3-3v-26
			c0-1.6,1.3-3,3-3h26c0.4,0,0.8,0.1,1.2,0.2c0.2,0.1,0.3,0.2,0.5,0.3c0.3,0.2,0.6,0.5,0.8,0.8c0.3,0.5,0.5,1.1,0.5,1.7V38.5z"/>
		<path d="M25.5,14.5c-6.1,0-11,4.9-11,11s4.9,11,11,11s11-4.9,11-11S31.6,14.5,25.5,14.5z M25.5,35.5c-5.5,0-10-4.5-10-10
			c0-5.5,4.5-10,10-10s10,4.5,10,10C35.5,31,31,35.5,25.5,35.5z"/>
		<path d="M29.8,21.7c-0.3,0-0.6,0.1-0.9,0.1h-3.1v-1.3c0-0.3,0-0.5,0.1-0.9h-0.6c0,0.3,0.1,0.6,0.1,0.9v1.3h-3.2
			c-0.3,0-0.6,0-0.9-0.1c0,0.3,0.1,0.6,0.1,0.9v3.6c0,0.3,0,0.5-0.1,0.8h0.6c0-0.3-0.1-0.6-0.1-0.8h3.6v3.6c0,0.3,0,0.6-0.1,0.8h0.6
			c0-0.3-0.1-0.6-0.1-0.8v-3.6h3.6c0,0.3,0,0.6-0.1,0.8h0.6c0-0.3-0.1-0.6-0.1-0.8v-3.5C29.7,22.3,29.8,22,29.8,21.7z M25.2,25.7
			h-3.6v-3.6h3.6V25.7z M29.3,25.7h-3.6v-3.6h3.6V25.7z"/>
	</g>
	<g>
		<g>
			<rect x="20.7" y="21.1" class="st1" width="3.6" height="3.6"/>
			<path class="st1" d="M39.2,9c-0.2-0.1-0.3-0.2-0.5-0.3c-0.4-0.2-0.8-0.2-1.2-0.2h-26c-1.7,0-3,1.4-3,3v26c0,1.7,1.3,3,3,3h26
				c0.4,0,0.8-0.1,1.2-0.2c0.2-0.1,0.3-0.2,0.5-0.3c0.3-0.2,0.6-0.5,0.8-0.8c0.3-0.5,0.5-1.1,0.5-1.7v-26c0-0.6-0.2-1.2-0.5-1.7
				C39.8,9.5,39.5,9.2,39.2,9z M24.5,35.5c-6.1,0-11-4.9-11-11s4.9-11,11-11s11,4.9,11,11S30.6,35.5,24.5,35.5z"/>
			<rect x="24.7" y="21.1" class="st1" width="3.6" height="3.6"/>
			<path class="st1" d="M24.5,14.5c-5.5,0-10,4.5-10,10c0,5.5,4.5,10,10,10s10-4.5,10-10C34.5,19,30,14.5,24.5,14.5z M28.8,26h-0.6
				c0-0.2,0.1-0.5,0.1-0.8h-3.6v3.6c0,0.3,0,0.5,0.1,0.8h-0.6c0-0.3,0.1-0.6,0.1-0.8v-3.6h-3.6c0,0.3,0,0.5,0.1,0.8h-0.6
				c0-0.3,0.1-0.6,0.1-0.8v-3.6c0-0.2,0-0.5-0.1-0.9c0.3,0,0.6,0.1,0.9,0.1h3.2v-1.3c0-0.3,0-0.6-0.1-0.9h0.6c0,0.3-0.1,0.6-0.1,0.9
				v1.3h3.1c0.3,0,0.6,0,0.9-0.1c0,0.3-0.1,0.6-0.1,0.9v3.5C28.7,25.4,28.8,25.6,28.8,26z"/>
			<path class="st2" d="M37.5,6.5h-26c-2.8,0-5,2.2-5,5v26c0,2.8,2.2,5,5,5h26c2.8,0,5-2.2,5-5v-26C42.5,8.7,40.3,6.5,37.5,6.5z
				 M40.5,37.5c0,0.6-0.2,1.2-0.5,1.7c-0.2,0.3-0.5,0.6-0.8,0.8c-0.2,0.1-0.3,0.2-0.5,0.3c-0.4,0.2-0.8,0.2-1.2,0.2h-26
				c-1.7,0-3-1.3-3-3v-26c0-1.6,1.3-3,3-3h26c0.4,0,0.8,0.1,1.2,0.2C38.8,8.8,39,8.9,39.2,9c0.3,0.2,0.6,0.5,0.8,0.8
				c0.3,0.5,0.5,1.1,0.5,1.7V37.5z"/>
			<path class="st2" d="M24.5,13.5c-6.1,0-11,4.9-11,11s4.9,11,11,11s11-4.9,11-11S30.6,13.5,24.5,13.5z M24.5,34.5
				c-5.5,0-10-4.5-10-10c0-5.5,4.5-10,10-10s10,4.5,10,10C34.5,30,30,34.5,24.5,34.5z"/>
			<path class="st2" d="M28.8,20.7c-0.3,0-0.6,0.1-0.9,0.1h-3.1v-1.3c0-0.3,0-0.5,0.1-0.9h-0.6c0,0.3,0.1,0.6,0.1,0.9v1.3h-3.2
				c-0.3,0-0.6,0-0.9-0.1c0,0.3,0.1,0.6,0.1,0.9v3.6c0,0.3,0,0.5-0.1,0.8h0.6c0-0.3-0.1-0.6-0.1-0.8h3.6v3.6c0,0.3,0,0.6-0.1,0.8
				h0.6c0-0.3-0.1-0.6-0.1-0.8v-3.6h3.6c0,0.3,0,0.6-0.1,0.8h0.6c0-0.3-0.1-0.6-0.1-0.8v-3.5C28.7,21.3,28.8,21,28.8,20.7z
				 M24.2,24.7h-3.6v-3.6h3.6V24.7z M28.3,24.7h-3.6v-3.6h3.6V24.7z"/>
		</g>
	</g>
</g>
</svg>
