<?xml version="1.0" encoding="utf-8"?>
<!-- Generator: Adobe Illustrator 21.0.2, SVG Export Plug-In . SVG Version: 6.00 Build 0)  -->
<svg version="1.1" id="图层_1" xmlns="http://www.w3.org/2000/svg" xmlns:xlink="http://www.w3.org/1999/xlink" x="0px" y="0px"
	 viewBox="0 0 50 50" style="enable-background:new 0 0 50 50;" xml:space="preserve">
<style type="text/css">
	.st0{opacity:0.2;}
	.st1{fill:#FFFFFF;}
	.st2{fill:#00A0E9;}
</style>
<g>
	<g class="st0">
		<ellipse cx="25.4" cy="25.3" rx="3" ry="3"/>
		<ellipse cx="25.4" cy="32.6" rx="3" ry="3"/>
		<path d="M41,10.6c-0.2-0.3-0.5-0.6-0.8-0.8c-0.5-0.3-1.1-0.5-1.7-0.5h-26c-0.6,0-1.2,0.2-1.7,0.5c-0.3,0.2-0.6,0.5-0.8,0.8
			c-0.1,0.2-0.2,0.3-0.3,0.5c-0.2,0.4-0.2,0.8-0.2,1.2v26c0,1.7,1.4,3,3,3h26c1.7,0,3-1.3,3-3v-26c0-0.4-0.1-0.8-0.2-1.2
			C41.2,10.9,41.1,10.7,41,10.6z M34.8,22.8l-4.1,3.8v1.9h4.1l-4.1,3.8v4.9H20.3v-4.9l-4.1-3.8h4.1v-1.9l-4.1-3.8h4.1v-1.9L16.2,17
			h4.1v-3.8h10.4V17h4.1l-4.1,3.8v1.9H34.8z"/>
		<ellipse cx="25.4" cy="17.9" rx="3" ry="3"/>
		<path d="M38.5,7.3h-26c-2.8,0-5,2.2-5,5v26c0,2.8,2.2,5,5,5h26c2.8,0,5-2.2,5-5v-26C43.5,9.5,41.3,7.3,38.5,7.3z M41.5,38.3
			c0,1.7-1.3,3-3,3h-26c-1.6,0-3-1.3-3-3v-26c0-0.4,0.1-0.8,0.2-1.2c0.1-0.2,0.2-0.3,0.3-0.5c0.2-0.3,0.5-0.6,0.8-0.8
			c0.5-0.3,1.1-0.5,1.7-0.5h26c0.6,0,1.2,0.2,1.7,0.5c0.3,0.2,0.6,0.5,0.8,0.8c0.1,0.2,0.2,0.3,0.3,0.5c0.2,0.4,0.2,0.8,0.2,1.2
			V38.3z"/>
		<path d="M34.8,17h-4.1v-3.8H20.3V17h-4.1l4.1,3.8v1.9h-4.1l4.1,3.8v1.9h-4.1l4.1,3.8v4.9h10.4v-4.9l4.1-3.8h-4.1v-1.9l4.1-3.8
			h-4.1v-1.9L34.8,17z M25.4,35.6c-1.7,0-3-1.3-3-3c0-1.6,1.3-3,3-3c1.7,0,3,1.3,3,3C28.4,34.3,27.1,35.6,25.4,35.6z M25.4,28.2
			c-1.7,0-3-1.3-3-3c0-1.6,1.3-3,3-3c1.7,0,3,1.3,3,3C28.4,26.9,27.1,28.2,25.4,28.2z M25.4,20.9c-1.7,0-3-1.3-3-3c0-1.6,1.3-3,3-3
			c1.7,0,3,1.3,3,3C28.4,19.5,27.1,20.9,25.4,20.9z"/>
	</g>
	<g>
		<g>
			<ellipse class="st1" cx="24.4" cy="24.3" rx="3" ry="3"/>
			<ellipse class="st1" cx="24.4" cy="31.6" rx="3" ry="3"/>
			<path class="st1" d="M40,9.6c-0.2-0.3-0.5-0.6-0.8-0.8c-0.5-0.3-1.1-0.5-1.7-0.5h-26c-0.6,0-1.2,0.2-1.7,0.5C9.5,9,9.2,9.3,9,9.6
				c-0.1,0.2-0.2,0.3-0.3,0.5c-0.2,0.4-0.2,0.8-0.2,1.2v26c0,1.7,1.4,3,3,3h26c1.7,0,3-1.3,3-3v-26c0-0.4-0.1-0.8-0.2-1.2
				C40.2,9.9,40.1,9.7,40,9.6z M33.8,21.8l-4.1,3.8v1.9h4.1l-4.1,3.8v4.9H19.3v-4.9l-4.1-3.8h4.1v-1.9l-4.1-3.8h4.1v-1.9L15.2,16
				h4.1v-3.8h10.4V16h4.1l-4.1,3.8v1.9H33.8z"/>
			<ellipse class="st1" cx="24.4" cy="16.9" rx="3" ry="3"/>
			<g>
				<path class="st2" d="M37.5,6.3h-26c-2.8,0-5,2.2-5,5v26c0,2.8,2.2,5,5,5h26c2.8,0,5-2.2,5-5v-26C42.5,8.5,40.3,6.3,37.5,6.3z
					 M40.5,37.3c0,1.7-1.3,3-3,3h-26c-1.6,0-3-1.3-3-3v-26c0-0.4,0.1-0.8,0.2-1.2C8.8,9.9,8.9,9.7,9,9.6C9.2,9.3,9.5,9,9.8,8.8
					c0.5-0.3,1.1-0.5,1.7-0.5h26c0.6,0,1.2,0.2,1.7,0.5C39.5,9,39.8,9.3,40,9.6c0.1,0.2,0.2,0.3,0.3,0.5c0.2,0.4,0.2,0.8,0.2,1.2
					V37.3z"/>
			</g>
			<g>
				<path class="st2" d="M33.8,16h-4.1v-3.8H19.3V16h-4.1l4.1,3.8v1.9h-4.1l4.1,3.8v1.9h-4.1l4.1,3.8v4.9h10.4v-4.9l4.1-3.8h-4.1
					v-1.9l4.1-3.8h-4.1v-1.9L33.8,16z M24.4,34.6c-1.7,0-3-1.3-3-3c0-1.6,1.3-3,3-3c1.7,0,3,1.3,3,3C27.4,33.3,26.1,34.6,24.4,34.6z
					 M24.4,27.2c-1.7,0-3-1.3-3-3c0-1.6,1.3-3,3-3c1.7,0,3,1.3,3,3C27.4,25.9,26.1,27.2,24.4,27.2z M24.4,19.9c-1.7,0-3-1.3-3-3
					c0-1.6,1.3-3,3-3c1.7,0,3,1.3,3,3C27.4,18.5,26.1,19.9,24.4,19.9z"/>
			</g>
		</g>
	</g>
</g>
</svg>
