<?xml version="1.0" encoding="utf-8"?>
<!-- Generator: Adobe Illustrator 21.0.2, SVG Export Plug-In . SVG Version: 6.00 Build 0)  -->
<svg version="1.1" id="图层_1" xmlns="http://www.w3.org/2000/svg" xmlns:xlink="http://www.w3.org/1999/xlink" x="0px" y="0px"
	 viewBox="0 0 50 50" style="enable-background:new 0 0 50 50;" xml:space="preserve">
<style type="text/css">
	.st0{opacity:0.2;}
	.st1{fill:#FFFFFF;}
	.st2{fill:#00A0E9;}
</style>
<g>
	<g class="st0">
		<path d="M41,10.6c-0.2-0.3-0.5-0.6-0.8-0.8c-0.5-0.3-1.1-0.5-1.7-0.5h-26c-0.6,0-1.2,0.2-1.7,0.5c-0.3,0.2-0.6,0.5-0.8,0.8
			c-0.1,0.2-0.2,0.3-0.3,0.5c-0.2,0.4-0.2,0.8-0.2,1.2v26c0,1.7,1.4,3,3,3h26c1.7,0,3-1.3,3-3v-26c0-0.4-0.1-0.8-0.2-1.2
			C41.2,10.9,41.1,10.7,41,10.6z M38.5,26.3h-2v1h-1v-1h-3v1h-1v-1h-3v1h-1v-1h-3v1h-1v-1h-3v1h-1v-1h-3v1h-1v-1h-2v-1h2v-2h1v2h3
			v-2h1v2h3v-2h1v2h3v-2h1v2h3v-2h1v2h3v-2h1v2h2V26.3z"/>
		<path d="M38.5,7.3h-26c-2.8,0-5,2.2-5,5v26c0,2.8,2.2,5,5,5h26c2.8,0,5-2.2,5-5v-26C43.5,9.5,41.3,7.3,38.5,7.3z M41.5,38.3
			c0,1.7-1.3,3-3,3h-26c-1.6,0-3-1.3-3-3v-26c0-0.4,0.1-0.8,0.2-1.2c0.1-0.2,0.2-0.3,0.3-0.5c0.2-0.3,0.5-0.6,0.8-0.8
			c0.5-0.3,1.1-0.5,1.7-0.5h26c0.6,0,1.2,0.2,1.7,0.5c0.3,0.2,0.6,0.5,0.8,0.8c0.1,0.2,0.2,0.3,0.3,0.5c0.2,0.4,0.2,0.8,0.2,1.2
			V38.3z"/>
		<polygon points="36.5,23.3 35.5,23.3 35.5,25.3 32.5,25.3 32.5,23.3 31.5,23.3 31.5,25.3 28.5,25.3 28.5,23.3 27.5,23.3 
			27.5,25.3 24.5,25.3 24.5,23.3 23.5,23.3 23.5,25.3 20.5,25.3 20.5,23.3 19.5,23.3 19.5,25.3 16.5,25.3 16.5,23.3 15.5,23.3 
			15.5,25.3 13.5,25.3 13.5,26.3 15.5,26.3 15.5,27.3 16.5,27.3 16.5,26.3 19.5,26.3 19.5,27.3 20.5,27.3 20.5,26.3 23.5,26.3 
			23.5,27.3 24.5,27.3 24.5,26.3 27.5,26.3 27.5,27.3 28.5,27.3 28.5,26.3 31.5,26.3 31.5,27.3 32.5,27.3 32.5,26.3 35.5,26.3 
			35.5,27.3 36.5,27.3 36.5,26.3 38.5,26.3 38.5,25.3 36.5,25.3 		"/>
	</g>
	<g>
		<g>
			<path class="st1" d="M40,9.6c-0.2-0.3-0.5-0.6-0.8-0.8c-0.5-0.3-1.1-0.5-1.7-0.5h-26c-0.6,0-1.2,0.2-1.7,0.5C9.5,9,9.2,9.3,9,9.6
				c-0.1,0.2-0.2,0.3-0.3,0.5c-0.2,0.4-0.2,0.8-0.2,1.2v26c0,1.7,1.4,3,3,3h26c1.7,0,3-1.3,3-3v-26c0-0.4-0.1-0.8-0.2-1.2
				C40.2,9.9,40.1,9.7,40,9.6z M37.5,25.3h-2v1h-1v-1h-3v1h-1v-1h-3v1h-1v-1h-3v1h-1v-1h-3v1h-1v-1h-3v1h-1v-1h-2v-1h2v-2h1v2h3v-2
				h1v2h3v-2h1v2h3v-2h1v2h3v-2h1v2h3v-2h1v2h2V25.3z"/>
			<g>
				<path class="st2" d="M37.5,6.3h-26c-2.8,0-5,2.2-5,5v26c0,2.8,2.2,5,5,5h26c2.8,0,5-2.2,5-5v-26C42.5,8.5,40.3,6.3,37.5,6.3z
					 M40.5,37.3c0,1.7-1.3,3-3,3h-26c-1.6,0-3-1.3-3-3v-26c0-0.4,0.1-0.8,0.2-1.2C8.8,9.9,8.9,9.7,9,9.6C9.2,9.3,9.5,9,9.8,8.8
					c0.5-0.3,1.1-0.5,1.7-0.5h26c0.6,0,1.2,0.2,1.7,0.5C39.5,9,39.8,9.3,40,9.6c0.1,0.2,0.2,0.3,0.3,0.5c0.2,0.4,0.2,0.8,0.2,1.2
					V37.3z"/>
			</g>
			<polygon class="st2" points="35.5,22.3 34.5,22.3 34.5,24.3 31.5,24.3 31.5,22.3 30.5,22.3 30.5,24.3 27.5,24.3 27.5,22.3 
				26.5,22.3 26.5,24.3 23.5,24.3 23.5,22.3 22.5,22.3 22.5,24.3 19.5,24.3 19.5,22.3 18.5,22.3 18.5,24.3 15.5,24.3 15.5,22.3 
				14.5,22.3 14.5,24.3 12.5,24.3 12.5,25.3 14.5,25.3 14.5,26.3 15.5,26.3 15.5,25.3 18.5,25.3 18.5,26.3 19.5,26.3 19.5,25.3 
				22.5,25.3 22.5,26.3 23.5,26.3 23.5,25.3 26.5,25.3 26.5,26.3 27.5,26.3 27.5,25.3 30.5,25.3 30.5,26.3 31.5,26.3 31.5,25.3 
				34.5,25.3 34.5,26.3 35.5,26.3 35.5,25.3 37.5,25.3 37.5,24.3 35.5,24.3 			"/>
		</g>
	</g>
</g>
</svg>
