<?xml version="1.0" encoding="utf-8"?>
<!-- Generator: Adobe Illustrator 21.0.2, SVG Export Plug-In . SVG Version: 6.00 Build 0)  -->
<svg version="1.1" id="图层_1" xmlns="http://www.w3.org/2000/svg" xmlns:xlink="http://www.w3.org/1999/xlink" x="0px" y="0px"
	 viewBox="0 0 50 50" style="enable-background:new 0 0 50 50;" xml:space="preserve">
<style type="text/css">

	.st0{opacity:0.2;}
	.st1{fill:#FFFFFF;}
	.st2{fill:#00A0E9;}
</style>
<g>
	<g class="st0">
		<path d="M41,10.6c-0.2-0.3-0.5-0.6-0.8-0.8c-0.5-0.3-1.1-0.5-1.7-0.5h-26c-0.6,0-1.2,0.2-1.7,0.5c-0.3,0.2-0.6,0.5-0.8,0.8
			c-0.1,0.2-0.2,0.3-0.3,0.5c-0.2,0.4-0.2,0.8-0.2,1.2v26c0,1.7,1.4,3,3,3h26c1.7,0,3-1.3,3-3v-26c0-0.4-0.1-0.8-0.2-1.2
			C41.2,10.9,41.1,10.7,41,10.6z M36.5,25.3v1v7h-22v-7v-1v-7h22V25.3z"/>
		<polygon points="35.5,26.3 28,26.3 28.2,26.7 18.2,31.7 17.8,30.8 26.9,26.3 15.5,26.3 15.5,32.3 35.5,32.3 		"/>
		<polygon points="22.8,24.8 32.8,19.8 33.2,20.7 24.1,25.3 35.5,25.3 35.5,19.3 15.5,19.3 15.5,25.3 23,25.3 		"/>
		<path d="M38.5,7.3h-26c-2.8,0-5,2.2-5,5v26c0,2.8,2.2,5,5,5h26c2.8,0,5-2.2,5-5v-26C43.5,9.5,41.3,7.3,38.5,7.3z M41.5,38.3
			c0,1.7-1.3,3-3,3h-26c-1.6,0-3-1.3-3-3v-26c0-0.4,0.1-0.8,0.2-1.2c0.1-0.2,0.2-0.3,0.3-0.5c0.2-0.3,0.5-0.6,0.8-0.8
			c0.5-0.3,1.1-0.5,1.7-0.5h26c0.6,0,1.2,0.2,1.7,0.5c0.3,0.2,0.6,0.5,0.8,0.8c0.1,0.2,0.2,0.3,0.3,0.5c0.2,0.4,0.2,0.8,0.2,1.2
			V38.3z"/>
		<path d="M14.5,25.3v1v7h22v-7v-1v-7h-22V25.3z M15.5,19.3h20v6H24.1l9.1-4.6l-0.4-0.9l-10,5l0.2,0.4h-7.5V19.3z M15.5,26.3h11.4
			l-9.1,4.6l0.4,0.9l10-5L28,26.3h7.5v6h-20V26.3z"/>
	</g>
	<g>
		<g>
			<path class="st1" d="M40,9.6c-0.2-0.3-0.5-0.6-0.8-0.8c-0.5-0.3-1.1-0.5-1.7-0.5h-26c-0.6,0-1.2,0.2-1.7,0.5C9.5,9,9.2,9.3,9,9.6
				c-0.1,0.2-0.2,0.3-0.3,0.5c-0.2,0.4-0.2,0.8-0.2,1.2v26c0,1.7,1.4,3,3,3h26c1.7,0,3-1.3,3-3v-26c0-0.4-0.1-0.8-0.2-1.2
				C40.2,9.9,40.1,9.7,40,9.6z M35.5,24.3v1v7h-22v-7v-1v-7h22V24.3z"/>
			<polygon class="st1" points="34.5,25.3 27,25.3 27.2,25.7 17.2,30.7 16.8,29.8 25.9,25.3 14.5,25.3 14.5,31.3 34.5,31.3 			"/>
			<polygon class="st1" points="21.8,23.8 31.8,18.8 32.2,19.7 23.1,24.3 34.5,24.3 34.5,18.3 14.5,18.3 14.5,24.3 22,24.3 			"/>
			<g>
				<path class="st2" d="M37.5,6.3h-26c-2.8,0-5,2.2-5,5v26c0,2.8,2.2,5,5,5h26c2.8,0,5-2.2,5-5v-26C42.5,8.5,40.3,6.3,37.5,6.3z
					 M40.5,37.3c0,1.7-1.3,3-3,3h-26c-1.6,0-3-1.3-3-3v-26c0-0.4,0.1-0.8,0.2-1.2C8.8,9.9,8.9,9.7,9,9.6C9.2,9.3,9.5,9,9.8,8.8
					c0.5-0.3,1.1-0.5,1.7-0.5h26c0.6,0,1.2,0.2,1.7,0.5C39.5,9,39.8,9.3,40,9.6c0.1,0.2,0.2,0.3,0.3,0.5c0.2,0.4,0.2,0.8,0.2,1.2
					V37.3z"/>
			</g>
			<path class="st2" d="M13.5,24.3v1v7h22v-7v-1v-7h-22V24.3z M14.5,18.3h20v6H23.1l9.1-4.6l-0.4-0.9l-10,5l0.2,0.4h-7.5V18.3z
				 M14.5,25.3h11.4l-9.1,4.6l0.4,0.9l10-5L27,25.3h7.5v6h-20V25.3z"/>
		</g>
	</g>
</g>
</svg>
