<?xml version="1.0" encoding="utf-8"?>
<!-- Generator: Adobe Illustrator 21.0.2, SVG Export Plug-In . SVG Version: 6.00 Build 0)  -->
<svg version="1.1" id="图层_1" xmlns="http://www.w3.org/2000/svg" xmlns:xlink="http://www.w3.org/1999/xlink" x="0px" y="0px"
	 viewBox="0 0 32 32" style="enable-background:new 0 0 32 32;" xml:space="preserve">
<style type="text/css">
	.st0{fill:#3090A0;}
	.st1{fill:#FFFFFF;}
</style>
<path class="st0" d="M16,0C7.2,0,0,7.2,0,16s7.2,16,16,16s16-7.2,16-16S24.8,0,16,0z M16,30C8.3,30,2,23.7,2,16C2,8.3,8.3,2,16,2
	s14,6.3,14,14C30,23.7,23.7,30,16,30z"/>
<path class="st1" d="M16,2C8.3,2,2,8.3,2,16c0,7.7,6.3,14,14,14s14-6.3,14-14C30,8.3,23.7,2,16,2z"/>
<path class="st0" d="M12.5,13.1v-2.6h-1.4c-0.5,0-0.8,0.6-0.4,1L12.5,13.1z M19.5,10.5v2.6l1.8-1.7c0.4-0.3,0.1-1-0.4-1H19.5z
	 M12.5,17v-2.6h-1.4c-0.5,0-0.8,0.6-0.4,1L12.5,17z M19.5,17l1.8-1.7c0.4-0.3,0.1-1-0.4-1h-1.4V17z M12.5,24h6.9V8h-6.9V24z M16,9.1
	c1.1,0,2,0.9,2,2s-0.9,2-2,2s-2-0.9-2-2S14.9,9.1,16,9.1z M16,14c1.1,0,2,0.9,2,2c0,1.1-0.9,2-2,2s-2-0.9-2-2C14,14.9,14.9,14,16,14
	z M16,18.9c1.1,0,2,0.9,2,2c0,1.1-0.9,2-2,2s-2-0.9-2-2C14,19.8,14.9,18.9,16,18.9z M19.5,20.8l1.8-1.7c0.4-0.3,0.1-1-0.4-1h-1.4
	V20.8z M12.5,20.8v-2.6h-1.4c-0.5,0-0.8,0.6-0.4,1L12.5,20.8z"/>
</svg>
