<?xml version="1.0" encoding="utf-8"?>
<!-- Generator: Adobe Illustrator 21.0.2, SVG Export Plug-In . SVG Version: 6.00 Build 0)  -->
<svg version="1.1" id="图层_1" xmlns="http://www.w3.org/2000/svg" xmlns:xlink="http://www.w3.org/1999/xlink" x="0px" y="0px"
	 viewBox="0 0 50 50" style="enable-background:new 0 0 50 50;" xml:space="preserve">
<style type="text/css">
	.st0{opacity:0.2;}
	.st1{fill:#FFFFFF;}
	.st2{fill:#00A0E9;}
</style>
<g>
	<g class="st0">
		<path d="M41,10.6c-0.2-0.3-0.5-0.6-0.8-0.8c-0.5-0.3-1.1-0.5-1.7-0.5h-26c-0.6,0-1.2,0.2-1.7,0.5c-0.3,0.2-0.6,0.5-0.8,0.8
			c-0.1,0.2-0.2,0.3-0.3,0.5c-0.2,0.4-0.2,0.8-0.2,1.2v26c0,1.7,1.4,3,3,3h26c1.7,0,3-1.3,3-3v-26c0-0.4-0.1-0.8-0.2-1.2
			C41.2,10.9,41.1,10.7,41,10.6z M32.2,22.5c0.3,0.5,0.6,1,0.9,1.5l-0.7,0.3h5.4v0.9H26.6v-0.9h5.5c-0.2-0.4-0.4-0.8-0.8-1.4
			L32.2,22.5z M37.6,28.5c-0.2,0.2-0.5,0.5-0.7,0.8c-0.9-0.9-2-1.9-3.3-3l0.6-0.6C35.7,26.8,36.8,27.7,37.6,28.5z M30.8,26.3
			c-1.1,1.1-2.2,2.2-3.4,3.1c-0.2-0.2-0.4-0.5-0.7-0.8c1.2-0.8,2.3-1.8,3.3-2.9L30.8,26.3z M12.3,21.6l-0.6-0.8l8.6-7.3l8.6,7.3
			l-0.6,0.8l-7.9-6.7L12.3,21.6z M20.5,21.3v11h-1v-11H20.5z M24.5,35.3h-9v-16h1v15h7v-15h1V35.3z M37.2,34c-2.1-0.5-3.7-1.3-5-2.2
			c-1.1,0.8-2.8,1.6-5.1,2.3c-0.2-0.3-0.4-0.6-0.6-0.9c2.2-0.6,3.9-1.2,5-2c-0.8-0.8-1.4-1.8-2-3.1l0.8-0.4c0.5,1.2,1.2,2.1,1.9,2.9
			c0.7-0.7,1.3-1.7,1.9-3l0.9,0.4c-0.6,1.3-1.3,2.4-2.1,3.2c1.2,0.9,2.8,1.5,5,1.9C37.6,33.4,37.4,33.7,37.2,34z"/>
		<path d="M38.5,7.3h-26c-2.8,0-5,2.2-5,5v26c0,2.8,2.2,5,5,5h26c2.8,0,5-2.2,5-5v-26C43.5,9.5,41.3,7.3,38.5,7.3z M41.5,38.3
			c0,1.7-1.3,3-3,3h-26c-1.6,0-3-1.3-3-3v-26c0-0.4,0.1-0.8,0.2-1.2c0.1-0.2,0.2-0.3,0.3-0.5c0.2-0.3,0.5-0.6,0.8-0.8
			c0.5-0.3,1.1-0.5,1.7-0.5h26c0.6,0,1.2,0.2,1.7,0.5c0.3,0.2,0.6,0.5,0.8,0.8c0.1,0.2,0.2,0.3,0.3,0.5c0.2,0.4,0.2,0.8,0.2,1.2
			V38.3z"/>
		<polygon points="28.2,21.6 28.8,20.9 20.3,13.6 11.7,20.9 12.3,21.6 20.3,14.9 		"/>
		<rect x="19.5" y="21.3" width="1" height="11"/>
		<path d="M26.6,24.3v0.9h11.3v-0.9h-5.4l0.7-0.3c-0.3-0.5-0.6-1-0.9-1.5l-0.9,0.4c0.3,0.5,0.6,1,0.8,1.4H26.6z"/>
		<path d="M36.9,29.2c0.3-0.3,0.5-0.5,0.7-0.8c-0.8-0.8-1.9-1.7-3.4-2.8l-0.6,0.6C35,27.3,36.1,28.3,36.9,29.2z"/>
		<path d="M27.4,29.4c1.2-0.9,2.3-1.9,3.4-3.1l-0.8-0.6c-1,1.1-2.1,2.1-3.3,2.9C27,28.9,27.2,29.1,27.4,29.4z"/>
		<path d="M35,27.9l-0.9-0.4c-0.5,1.3-1.2,2.3-1.9,3c-0.8-0.8-1.4-1.8-1.9-2.9l-0.8,0.4c0.6,1.3,1.2,2.3,2,3.1c-1.1,0.8-2.8,1.5-5,2
			c0.2,0.3,0.4,0.6,0.6,0.9c2.3-0.7,4-1.5,5.1-2.3c1.2,0.9,2.9,1.7,5,2.2c0.2-0.3,0.4-0.6,0.7-1c-2.2-0.4-3.8-1-5-1.9
			C33.7,30.3,34.4,29.3,35,27.9z"/>
		<polygon points="23.5,34.3 16.5,34.3 16.5,19.3 15.5,19.3 15.5,35.3 24.5,35.3 24.5,19.3 23.5,19.3 		"/>
	</g>
	<g>
		<g>
			<path class="st1" d="M40,9.6c-0.2-0.3-0.5-0.6-0.8-0.8c-0.5-0.3-1.1-0.5-1.7-0.5h-26c-0.6,0-1.2,0.2-1.7,0.5C9.5,9,9.2,9.3,9,9.6
				c-0.1,0.2-0.2,0.3-0.3,0.5c-0.2,0.4-0.2,0.8-0.2,1.2v26c0,1.7,1.4,3,3,3h26c1.7,0,3-1.3,3-3v-26c0-0.4-0.1-0.8-0.2-1.2
				C40.2,9.9,40.1,9.7,40,9.6z M31.2,21.5c0.3,0.5,0.6,1,0.9,1.5l-0.7,0.3h5.4v0.9H25.6v-0.9h5.5c-0.2-0.4-0.4-0.8-0.8-1.4
				L31.2,21.5z M36.6,27.5c-0.2,0.2-0.5,0.5-0.7,0.8c-0.9-0.9-2-1.9-3.3-3l0.6-0.6C34.7,25.8,35.8,26.7,36.6,27.5z M29.8,25.3
				c-1.1,1.1-2.2,2.2-3.4,3.1c-0.2-0.2-0.4-0.5-0.7-0.8c1.2-0.8,2.3-1.8,3.3-2.9L29.8,25.3z M11.3,20.6l-0.6-0.8l8.6-7.3l8.6,7.3
				l-0.6,0.8l-7.9-6.7L11.3,20.6z M19.5,20.3v11h-1v-11H19.5z M23.5,34.3h-9v-16h1v15h7v-15h1V34.3z M36.2,33
				c-2.1-0.5-3.7-1.3-5-2.2c-1.1,0.8-2.8,1.6-5.1,2.3c-0.2-0.3-0.4-0.6-0.6-0.9c2.2-0.6,3.9-1.2,5-2c-0.8-0.8-1.4-1.8-2-3.1l0.8-0.4
				c0.5,1.2,1.2,2.1,1.9,2.9c0.7-0.7,1.3-1.7,1.9-3l0.9,0.4c-0.6,1.3-1.3,2.4-2.1,3.2c1.2,0.9,2.8,1.5,5,1.9
				C36.6,32.4,36.4,32.7,36.2,33z"/>
			<g>
				<path class="st2" d="M37.5,6.3h-26c-2.8,0-5,2.2-5,5v26c0,2.8,2.2,5,5,5h26c2.8,0,5-2.2,5-5v-26C42.5,8.5,40.3,6.3,37.5,6.3z
					 M40.5,37.3c0,1.7-1.3,3-3,3h-26c-1.6,0-3-1.3-3-3v-26c0-0.4,0.1-0.8,0.2-1.2C8.8,9.9,8.9,9.7,9,9.6C9.2,9.3,9.5,9,9.8,8.8
					c0.5-0.3,1.1-0.5,1.7-0.5h26c0.6,0,1.2,0.2,1.7,0.5C39.5,9,39.8,9.3,40,9.6c0.1,0.2,0.2,0.3,0.3,0.5c0.2,0.4,0.2,0.8,0.2,1.2
					V37.3z"/>
			</g>
			<polygon class="st2" points="27.2,20.6 27.8,19.9 19.3,12.6 10.7,19.9 11.3,20.6 19.3,13.9 			"/>
			<rect x="18.5" y="20.3" class="st2" width="1" height="11"/>
			<path class="st2" d="M25.6,23.3v0.9h11.3v-0.9h-5.4l0.7-0.3c-0.3-0.5-0.6-1-0.9-1.5l-0.9,0.4c0.3,0.5,0.6,1,0.8,1.4H25.6z"/>
			<path class="st2" d="M35.9,28.2c0.3-0.3,0.5-0.5,0.7-0.8c-0.8-0.8-1.9-1.7-3.4-2.8l-0.6,0.6C34,26.3,35.1,27.3,35.9,28.2z"/>
			<path class="st2" d="M26.4,28.4c1.2-0.9,2.3-1.9,3.4-3.1l-0.8-0.6c-1,1.1-2.1,2.1-3.3,2.9C26,27.9,26.2,28.1,26.4,28.4z"/>
			<path class="st2" d="M34,26.9l-0.9-0.4c-0.5,1.3-1.2,2.3-1.9,3c-0.8-0.8-1.4-1.8-1.9-2.9l-0.8,0.4c0.6,1.3,1.2,2.3,2,3.1
				c-1.1,0.8-2.8,1.5-5,2c0.2,0.3,0.4,0.6,0.6,0.9c2.3-0.7,4-1.5,5.1-2.3c1.2,0.9,2.9,1.7,5,2.2c0.2-0.3,0.4-0.6,0.7-1
				c-2.2-0.4-3.8-1-5-1.9C32.7,29.3,33.4,28.3,34,26.9z"/>
			<polygon class="st2" points="22.5,33.3 15.5,33.3 15.5,18.3 14.5,18.3 14.5,34.3 23.5,34.3 23.5,18.3 22.5,18.3 			"/>
		</g>
	</g>
</g>
</svg>
