<?xml version="1.0" encoding="utf-8"?>
<!-- Generator: Adobe Illustrator 21.0.2, SVG Export Plug-In . SVG Version: 6.00 Build 0)  -->
<svg version="1.1" id="图层_1" xmlns="http://www.w3.org/2000/svg" xmlns:xlink="http://www.w3.org/1999/xlink" x="0px" y="0px"
	 viewBox="0 0 50 50" style="enable-background:new 0 0 50 50;" xml:space="preserve">
<style type="text/css">
	
	.st0{opacity:0.2;}
	.st1{fill:#FFFFFF;}
	.st2{fill:#00A0E9;}
</style>
<g>
	<g class="st0">
		<path d="M25.5,12.3c-3.4,0-5.3,1.4-5.3,2s1.8,2,5.3,2c3.4,0,5.3-1.4,5.3-2S28.9,12.3,25.5,12.3z"/>
		<path d="M41,10.6c-0.2-0.3-0.5-0.6-0.8-0.8c-0.5-0.3-1.1-0.5-1.7-0.5h-26c-0.6,0-1.2,0.2-1.7,0.5c-0.3,0.2-0.6,0.5-0.8,0.8
			c-0.1,0.2-0.2,0.3-0.3,0.5c-0.2,0.4-0.2,0.8-0.2,1.2v26c0,1.7,1.4,3,3,3h26c1.7,0,3-1.3,3-3v-26c0-0.4-0.1-0.8-0.2-1.2
			C41.2,10.9,41.1,10.7,41,10.6z M31.5,36.3c0,1.7-2.7,3-6,3s-6-1.3-6-3v-4c0,1,1.1,2,2.7,2.5c0.9,0.3,2.1,0.5,3.3,0.5
			c1.2,0,2.4-0.2,3.3-0.5c1.6-0.5,2.7-1.5,2.7-2.5V36.3z M31.5,30.3c0,1.7-2.7,3-6,3s-6-1.3-6-3v-4c0,1,1.1,2,2.7,2.5
			c0.9,0.3,2.1,0.5,3.3,0.5c1.2,0,2.4-0.2,3.3-0.5c1.6-0.5,2.7-1.5,2.7-2.5V30.3z M31.5,24.3c0,1.7-2.7,3-6,3s-6-1.3-6-3v-4
			c0,1,1.1,2,2.7,2.5c0.9,0.3,2.1,0.5,3.3,0.5c1.2,0,2.4-0.2,3.3-0.5c1.6-0.5,2.7-1.5,2.7-2.5V24.3z M31.5,18.3c0,1.7-2.7,3-6,3
			s-6-1.3-6-3v-4c0-1.7,2.7-3,6-3s6,1.3,6,3V18.3z"/>
		<path d="M38.5,7.3h-26c-2.8,0-5,2.2-5,5v26c0,2.8,2.2,5,5,5h26c2.8,0,5-2.2,5-5v-26C43.5,9.5,41.3,7.3,38.5,7.3z M41.5,38.3
			c0,1.7-1.3,3-3,3h-26c-1.6,0-3-1.3-3-3v-26c0-0.4,0.1-0.8,0.2-1.2c0.1-0.2,0.2-0.3,0.3-0.5c0.2-0.3,0.5-0.6,0.8-0.8
			c0.5-0.3,1.1-0.5,1.7-0.5h26c0.6,0,1.2,0.2,1.7,0.5c0.3,0.2,0.6,0.5,0.8,0.8c0.1,0.2,0.2,0.3,0.3,0.5c0.2,0.4,0.2,0.8,0.2,1.2
			V38.3z"/>
		<path d="M25.5,11.3c-3.3,0-6,1.3-6,3v4c0,1.7,2.7,3,6,3s6-1.3,6-3v-4C31.5,12.6,28.8,11.3,25.5,11.3z M25.5,16.3
			c-3.4,0-5.3-1.4-5.3-2s1.8-2,5.3-2c3.4,0,5.3,1.4,5.3,2S28.9,16.3,25.5,16.3z"/>
		<path d="M28.8,22.8c-0.9,0.3-2.1,0.5-3.3,0.5c-1.2,0-2.4-0.2-3.3-0.5c-1.6-0.5-2.7-1.5-2.7-2.5v4c0,1.7,2.7,3,6,3s6-1.3,6-3v-4
			C31.5,21.3,30.4,22.2,28.8,22.8z"/>
		<path d="M28.8,28.8c-0.9,0.3-2.1,0.5-3.3,0.5c-1.2,0-2.4-0.2-3.3-0.5c-1.6-0.5-2.7-1.5-2.7-2.5v4c0,1.7,2.7,3,6,3s6-1.3,6-3v-4
			C31.5,27.3,30.4,28.2,28.8,28.8z"/>
		<path d="M28.8,34.8c-0.9,0.3-2.1,0.5-3.3,0.5c-1.2,0-2.4-0.2-3.3-0.5c-1.6-0.5-2.7-1.5-2.7-2.5v4c0,1.7,2.7,3,6,3s6-1.3,6-3v-4
			C31.5,33.3,30.4,34.2,28.8,34.8z"/>
	</g>
	<g>
		<g>
			<path class="st1" d="M24.5,11.3c-3.4,0-5.3,1.4-5.3,2s1.8,2,5.3,2c3.4,0,5.3-1.4,5.3-2S27.9,11.3,24.5,11.3z"/>
			<path class="st1" d="M40,9.6c-0.2-0.3-0.5-0.6-0.8-0.8c-0.5-0.3-1.1-0.5-1.7-0.5h-26c-0.6,0-1.2,0.2-1.7,0.5C9.5,9,9.2,9.3,9,9.6
				c-0.1,0.2-0.2,0.3-0.3,0.5c-0.2,0.4-0.2,0.8-0.2,1.2v26c0,1.7,1.4,3,3,3h26c1.7,0,3-1.3,3-3v-26c0-0.4-0.1-0.8-0.2-1.2
				C40.2,9.9,40.1,9.7,40,9.6z M30.5,35.3c0,1.7-2.7,3-6,3s-6-1.3-6-3v-4c0,1,1.1,2,2.7,2.5c0.9,0.3,2.1,0.5,3.3,0.5
				c1.2,0,2.4-0.2,3.3-0.5c1.6-0.5,2.7-1.5,2.7-2.5V35.3z M30.5,29.3c0,1.7-2.7,3-6,3s-6-1.3-6-3v-4c0,1,1.1,2,2.7,2.5
				c0.9,0.3,2.1,0.5,3.3,0.5c1.2,0,2.4-0.2,3.3-0.5c1.6-0.5,2.7-1.5,2.7-2.5V29.3z M30.5,23.3c0,1.7-2.7,3-6,3s-6-1.3-6-3v-4
				c0,1,1.1,2,2.7,2.5c0.9,0.3,2.1,0.5,3.3,0.5c1.2,0,2.4-0.2,3.3-0.5c1.6-0.5,2.7-1.5,2.7-2.5V23.3z M30.5,17.3c0,1.7-2.7,3-6,3
				s-6-1.3-6-3v-4c0-1.7,2.7-3,6-3s6,1.3,6,3V17.3z"/>
			<g>
				<path class="st2" d="M37.5,6.3h-26c-2.8,0-5,2.2-5,5v26c0,2.8,2.2,5,5,5h26c2.8,0,5-2.2,5-5v-26C42.5,8.5,40.3,6.3,37.5,6.3z
					 M40.5,37.3c0,1.7-1.3,3-3,3h-26c-1.6,0-3-1.3-3-3v-26c0-0.4,0.1-0.8,0.2-1.2C8.8,9.9,8.9,9.7,9,9.6C9.2,9.3,9.5,9,9.8,8.8
					c0.5-0.3,1.1-0.5,1.7-0.5h26c0.6,0,1.2,0.2,1.7,0.5C39.5,9,39.8,9.3,40,9.6c0.1,0.2,0.2,0.3,0.3,0.5c0.2,0.4,0.2,0.8,0.2,1.2
					V37.3z"/>
			</g>
			<g>
				<path class="st2" d="M24.5,10.3c-3.3,0-6,1.3-6,3v4c0,1.7,2.7,3,6,3s6-1.3,6-3v-4C30.5,11.6,27.8,10.3,24.5,10.3z M24.5,15.3
					c-3.4,0-5.3-1.4-5.3-2s1.8-2,5.3-2c3.4,0,5.3,1.4,5.3,2S27.9,15.3,24.5,15.3z"/>
			</g>
			<g>
				<path class="st2" d="M27.8,21.8c-0.9,0.3-2.1,0.5-3.3,0.5c-1.2,0-2.4-0.2-3.3-0.5c-1.6-0.5-2.7-1.5-2.7-2.5v4c0,1.7,2.7,3,6,3
					s6-1.3,6-3v-4C30.5,20.3,29.4,21.2,27.8,21.8z"/>
			</g>
			<g>
				<path class="st2" d="M27.8,27.8c-0.9,0.3-2.1,0.5-3.3,0.5c-1.2,0-2.4-0.2-3.3-0.5c-1.6-0.5-2.7-1.5-2.7-2.5v4c0,1.7,2.7,3,6,3
					s6-1.3,6-3v-4C30.5,26.3,29.4,27.2,27.8,27.8z"/>
			</g>
			<g>
				<path class="st2" d="M27.8,33.8c-0.9,0.3-2.1,0.5-3.3,0.5c-1.2,0-2.4-0.2-3.3-0.5c-1.6-0.5-2.7-1.5-2.7-2.5v4c0,1.7,2.7,3,6,3
					s6-1.3,6-3v-4C30.5,32.3,29.4,33.2,27.8,33.8z"/>
			</g>
		</g>
	</g>
</g>
</svg>
