<?xml version="1.0" encoding="utf-8"?>
<!-- Generator: Adobe Illustrator 21.0.2, SVG Export Plug-In . SVG Version: 6.00 Build 0)  -->
<svg version="1.1" id="图层_1" xmlns="http://www.w3.org/2000/svg" xmlns:xlink="http://www.w3.org/1999/xlink" x="0px" y="0px"
	 viewBox="0 0 50 50" style="enable-background:new 0 0 50 50;" xml:space="preserve">
<style type="text/css">
	.st0{opacity:0.2;}
	.st1{fill:#FFFFFF;}
	.st2{fill:#BC09FF;}
</style>
<g>
	<g class="st0">
		<path d="M21.5,36.5h26v-16h-26V36.5z M42,22.8c0.5,0.6,1,1.2,1.6,1.8L43,25.2c-0.5-0.6-1-1.2-1.6-1.8L42,22.8z M44.9,25.4
			c0.4,0,0.7,0,1.1-0.1V26c-0.3,0-0.7-0.1-1.1-0.1h-3.1c0,0.6,0,1.2-0.1,2h2.6c0.3,0,0.7,0,1-0.1c-0.1,0.4-0.1,0.7-0.1,1
			c0,2.9-0.2,4.3-0.4,4.3c-0.2,0.4-0.8,0.6-1.9,0.7c-0.1-0.3-0.3-0.6-0.5-0.9c0.3,0,0.5,0.1,0.7,0.1c0.5,0,0.8-0.1,1-0.3
			c0,0,0,0,0,0c0.1,0,0.3-1.4,0.3-4.3h-2.8c-0.2,2.5-1.2,4.3-3,5.4c-0.2-0.2-0.5-0.5-0.8-0.6c1.3-0.6,2.1-1.4,2.5-2.5
			c0.4-0.9,0.6-2.2,0.6-3.9c0-0.3,0-0.6,0-0.9h-1c-0.3,0-0.6,0-1,0.1v-0.7c0.3,0,0.7,0.1,1,0.1H44.9z M35.8,23.4
			c0.4,0.1,0.7,0.1,1,0.1h1.5c0.4,0,0.7,0,1-0.1c-0.1,0.3-0.2,0.6-0.3,0.9c-0.3,1-0.7,1.9-1,2.7c0.8,0.8,1.2,1.8,1.2,2.9
			c0,0.6-0.1,1.1-0.4,1.3c-0.3,0.3-0.8,0.4-1.5,0.5c-0.1-0.3-0.2-0.6-0.4-0.9c0.2,0,0.4,0.1,0.5,0.1c0.7,0,1-0.3,1-0.9
			c0-0.9-0.4-1.9-1.3-2.8c0.4-1,0.8-2,1-3.1h-1.8v9c0,0.3,0,0.7,0.1,1.1h-0.8c0.1-0.4,0.1-0.7,0.1-1.1v-8.7
			C35.8,24.1,35.8,23.8,35.8,23.4z M28.2,24.7c0-0.4,0-0.8,0-1.2l1,0.2c0.1,0,0.1,0,0.1,0.1c0,0,0,0.1-0.1,0.1
			C29.1,24,29,24.2,29,24.4c0,0.1,0,0.3,0,0.4c0,3.6,1.7,6.3,5,8.2c-0.3,0.1-0.6,0.3-0.8,0.7c-2.3-1.3-3.8-3.4-4.5-6.1
			c-0.5,2.8-2.1,4.8-4.8,6c-0.2-0.4-0.5-0.6-0.8-0.7C26.5,31.9,28.2,29.2,28.2,24.7z"/>
		<path d="M48.5,9.5h-46c-0.4,0-0.8,0.1-1.2,0.2C1.2,9.8,1,9.9,0.8,10c-0.3,0.2-0.6,0.5-0.8,0.8c-0.3,0.5-0.5,1.1-0.5,1.7v26
			c0,0.4,0.1,0.8,0.2,1.2c0.1,0.2,0.2,0.3,0.3,0.5s0.2,0.3,0.4,0.4c0.1,0.1,0.3,0.3,0.4,0.4s0.3,0.2,0.5,0.3
			c0.4,0.2,0.8,0.2,1.2,0.2h46c0.6,0,1.2-0.2,1.7-0.5c0.3-0.2,0.6-0.5,0.8-0.8c0.1-0.2,0.2-0.3,0.3-0.5c0.2-0.4,0.2-0.8,0.2-1.2v-26
			C51.5,10.8,50.2,9.5,48.5,9.5z M10,37.5H9v-12h1V37.5z M16.5,37.5h-1v-17h-12v17h-1v-17c0-3.9,3.1-7,7-7s7,3.1,7,7V37.5z
			 M48.5,20.5v16v1h-1h-26h-1v-1v-16v-1h1h26h1V20.5z"/>
		<path d="M48.5,7.5h-46c-2.8,0-5,2.2-5,5v26c0,2.8,2.2,5,5,5h46c2.8,0,5-2.2,5-5v-26C53.5,9.7,51.3,7.5,48.5,7.5z M51.5,38.5
			c0,0.4-0.1,0.8-0.2,1.2c-0.1,0.2-0.2,0.3-0.3,0.5c-0.2,0.3-0.5,0.6-0.8,0.8c-0.5,0.3-1.1,0.5-1.7,0.5h-46c-0.4,0-0.8-0.1-1.2-0.2
			C1.2,41.2,1,41.1,0.8,41s-0.3-0.2-0.4-0.4S0.1,40.3,0,40.2s-0.2-0.3-0.3-0.5c-0.2-0.4-0.2-0.8-0.2-1.2v-26c0-0.6,0.2-1.2,0.5-1.7
			c0.2-0.3,0.5-0.6,0.8-0.8C1,9.9,1.2,9.8,1.3,9.7c0.4-0.2,0.8-0.2,1.2-0.2h46c1.7,0,3,1.3,3,3V38.5z"/>
		<path d="M21.5,19.5h-1v1v16v1h1h26h1v-1v-16v-1h-1H21.5z M47.5,36.5h-26v-16h26V36.5z"/>
		<path d="M23.8,33.6c2.7-1.3,4.3-3.3,4.8-6c0.8,2.7,2.3,4.7,4.5,6.1c0.3-0.3,0.5-0.6,0.8-0.7c-3.4-1.9-5-4.6-5-8.2
			c0-0.2,0-0.3,0-0.4c0-0.2,0.1-0.4,0.2-0.5c0.1-0.1,0.1-0.1,0.1-0.1c0,0-0.1-0.1-0.1-0.1l-1-0.2c0,0.4,0,0.8,0,1.2
			c0,4.5-1.7,7.2-5.1,8.2C23.3,33,23.6,33.3,23.8,33.6z"/>
		<path d="M35.8,34.2h0.8c-0.1-0.4-0.1-0.7-0.1-1.1v-9h1.8c-0.3,1.1-0.6,2.1-1,3.1c0.8,0.9,1.3,1.8,1.3,2.8c0,0.6-0.3,0.9-1,0.9
			c-0.1,0-0.3,0-0.5-0.1c0.2,0.3,0.3,0.6,0.4,0.9c0.8-0.1,1.3-0.3,1.5-0.5c0.3-0.2,0.4-0.7,0.4-1.3c0-1.1-0.4-2.1-1.2-2.9
			c0.3-0.8,0.6-1.7,1-2.7c0.1-0.3,0.2-0.6,0.3-0.9c-0.3,0.1-0.6,0.1-1,0.1h-1.5c-0.3,0-0.7,0-1-0.1c0.1,0.4,0.1,0.7,0.1,0.9v8.7
			C35.8,33.4,35.8,33.8,35.8,34.2z"/>
		<path d="M43.6,24.7c-0.5-0.6-1-1.2-1.6-1.8l-0.6,0.5c0.5,0.6,1.1,1.2,1.6,1.8L43.6,24.7z"/>
		<path d="M39,26c0.3,0,0.7-0.1,1-0.1h1c0,0.3,0,0.6,0,0.9c0,1.7-0.2,3-0.6,3.9c-0.4,1.1-1.3,1.9-2.5,2.5c0.3,0.2,0.6,0.4,0.8,0.6
			c1.8-1.1,2.8-2.9,3-5.4h2.8c-0.1,2.9-0.2,4.3-0.3,4.3c0,0,0,0,0,0c-0.2,0.2-0.6,0.3-1,0.3c-0.2,0-0.5,0-0.7-0.1
			c0.2,0.3,0.4,0.6,0.5,0.9c1.1-0.1,1.7-0.3,1.9-0.7c0.2,0,0.3-1.5,0.4-4.3c0-0.3,0-0.6,0.1-1c-0.3,0-0.6,0.1-1,0.1h-2.6
			c0-0.7,0.1-1.4,0.1-2h3.1c0.4,0,0.7,0,1.1,0.1v-0.7c-0.4,0-0.7,0.1-1.1,0.1H40c-0.3,0-0.6,0-1-0.1V26z"/>
		<path d="M9.5,13.5c-3.9,0-7,3.1-7,7v17h1v-17h12v17h1v-17C16.5,16.6,13.4,13.5,9.5,13.5z"/>
		<rect x="9" y="25.5" width="1" height="12"/>
	</g>
	<g>
		<g>
			<path class="st1" d="M20.5,35.5h26v-16h-26V35.5z M41,21.8c0.5,0.6,1,1.2,1.6,1.8L42,24.2c-0.5-0.6-1-1.2-1.6-1.8L41,21.8z
				 M43.9,24.4c0.4,0,0.7,0,1.1-0.1V25c-0.3,0-0.7-0.1-1.1-0.1h-3.1c0,0.6,0,1.2-0.1,2h2.6c0.3,0,0.7,0,1-0.1
				c-0.1,0.4-0.1,0.7-0.1,1c0,2.9-0.2,4.3-0.4,4.3c-0.2,0.4-0.8,0.6-1.9,0.7c-0.1-0.3-0.3-0.6-0.5-0.9c0.3,0,0.5,0.1,0.7,0.1
				c0.5,0,0.8-0.1,1-0.3c0,0,0,0,0,0c0.1,0,0.3-1.4,0.3-4.3h-2.8c-0.2,2.5-1.2,4.3-3,5.4c-0.2-0.2-0.5-0.5-0.8-0.6
				c1.3-0.6,2.1-1.4,2.5-2.5c0.4-0.9,0.6-2.2,0.6-3.9c0-0.3,0-0.6,0-0.9h-1c-0.3,0-0.6,0-1,0.1v-0.7c0.3,0,0.7,0.1,1,0.1H43.9z
				 M34.8,22.4c0.4,0.1,0.7,0.1,1,0.1h1.5c0.4,0,0.7,0,1-0.1c-0.1,0.3-0.2,0.6-0.3,0.9c-0.3,1-0.7,1.9-1,2.7
				c0.8,0.8,1.2,1.8,1.2,2.9c0,0.6-0.1,1.1-0.4,1.3c-0.3,0.3-0.8,0.4-1.5,0.5c-0.1-0.3-0.2-0.6-0.4-0.9c0.2,0,0.4,0.1,0.5,0.1
				c0.7,0,1-0.3,1-0.9c0-0.9-0.4-1.9-1.3-2.8c0.4-1,0.8-2,1-3.1h-1.8v9c0,0.3,0,0.7,0.1,1.1h-0.8c0.1-0.4,0.1-0.7,0.1-1.1v-8.7
				C34.8,23.1,34.8,22.8,34.8,22.4z M27.2,23.7c0-0.4,0-0.8,0-1.2l1,0.2c0.1,0,0.1,0,0.1,0.1c0,0,0,0.1-0.1,0.1
				C28.1,23,28,23.2,28,23.4c0,0.1,0,0.3,0,0.4c0,3.6,1.7,6.3,5,8.2c-0.3,0.1-0.6,0.3-0.8,0.7c-2.3-1.3-3.8-3.4-4.5-6.1
				c-0.5,2.8-2.1,4.8-4.8,6c-0.2-0.4-0.5-0.6-0.8-0.7C25.5,30.9,27.2,28.2,27.2,23.7z"/>
			<path class="st1" d="M47.5,8.5h-46c-0.4,0-0.8,0.1-1.2,0.2C0.2,8.8,0,8.9-0.2,9C-0.5,9.2-0.8,9.5-1,9.8c-0.3,0.5-0.5,1.1-0.5,1.7
				v26c0,0.4,0.1,0.8,0.2,1.2c0.1,0.2,0.2,0.3,0.3,0.5s0.2,0.3,0.4,0.4c0.1,0.1,0.3,0.3,0.4,0.4s0.3,0.2,0.5,0.3
				c0.4,0.2,0.8,0.2,1.2,0.2h46c0.6,0,1.2-0.2,1.7-0.5c0.3-0.2,0.6-0.5,0.8-0.8c0.1-0.2,0.2-0.3,0.3-0.5c0.2-0.4,0.2-0.8,0.2-1.2
				v-26C50.5,9.8,49.2,8.5,47.5,8.5z M9,36.5H8v-12h1V36.5z M15.5,36.5h-1v-17h-12v17h-1v-17c0-3.9,3.1-7,7-7s7,3.1,7,7V36.5z
				 M47.5,19.5v16v1h-1h-26h-1v-1v-16v-1h1h26h1V19.5z"/>
			<path class="st2" d="M47.5,6.5h-46c-2.8,0-5,2.2-5,5v26c0,2.8,2.2,5,5,5h46c2.8,0,5-2.2,5-5v-26C52.5,8.7,50.3,6.5,47.5,6.5z
				 M50.5,37.5c0,0.4-0.1,0.8-0.2,1.2c-0.1,0.2-0.2,0.3-0.3,0.5c-0.2,0.3-0.5,0.6-0.8,0.8c-0.5,0.3-1.1,0.5-1.7,0.5h-46
				c-0.4,0-0.8-0.1-1.2-0.2C0.2,40.2,0,40.1-0.2,40s-0.3-0.2-0.4-0.4s-0.3-0.3-0.4-0.4s-0.2-0.3-0.3-0.5c-0.2-0.4-0.2-0.8-0.2-1.2
				v-26c0-0.6,0.2-1.2,0.5-1.7C-0.8,9.5-0.5,9.2-0.2,9C0,8.9,0.2,8.8,0.3,8.7c0.4-0.2,0.8-0.2,1.2-0.2h46c1.7,0,3,1.3,3,3V37.5z"/>
			<path class="st2" d="M20.5,18.5h-1v1v16v1h1h26h1v-1v-16v-1h-1H20.5z M46.5,35.5h-26v-16h26V35.5z"/>
			<path class="st2" d="M22.8,32.6c2.7-1.3,4.3-3.3,4.8-6c0.8,2.7,2.3,4.7,4.5,6.1c0.3-0.3,0.5-0.6,0.8-0.7c-3.4-1.9-5-4.6-5-8.2
				c0-0.2,0-0.3,0-0.4c0-0.2,0.1-0.4,0.2-0.5c0.1-0.1,0.1-0.1,0.1-0.1c0,0-0.1-0.1-0.1-0.1l-1-0.2c0,0.4,0,0.8,0,1.2
				c0,4.5-1.7,7.2-5.1,8.2C22.3,32,22.6,32.3,22.8,32.6z"/>
			<path class="st2" d="M34.8,33.2h0.8c-0.1-0.4-0.1-0.7-0.1-1.1v-9h1.8c-0.3,1.1-0.6,2.1-1,3.1c0.8,0.9,1.3,1.8,1.3,2.8
				c0,0.6-0.3,0.9-1,0.9c-0.1,0-0.3,0-0.5-0.1c0.2,0.3,0.3,0.6,0.4,0.9c0.8-0.1,1.3-0.3,1.5-0.5c0.3-0.2,0.4-0.7,0.4-1.3
				c0-1.1-0.4-2.1-1.2-2.9c0.3-0.8,0.6-1.7,1-2.7c0.1-0.3,0.2-0.6,0.3-0.9c-0.3,0.1-0.6,0.1-1,0.1h-1.5c-0.3,0-0.7,0-1-0.1
				c0.1,0.4,0.1,0.7,0.1,0.9v8.7C34.8,32.4,34.8,32.8,34.8,33.2z"/>
			<path class="st2" d="M42.6,23.7c-0.5-0.6-1-1.2-1.6-1.8l-0.6,0.5c0.5,0.6,1.1,1.2,1.6,1.8L42.6,23.7z"/>
			<path class="st2" d="M38,25c0.3,0,0.7-0.1,1-0.1h1c0,0.3,0,0.6,0,0.9c0,1.7-0.2,3-0.6,3.9c-0.4,1.1-1.3,1.9-2.5,2.5
				c0.3,0.2,0.6,0.4,0.8,0.6c1.8-1.1,2.8-2.9,3-5.4h2.8c-0.1,2.9-0.2,4.3-0.3,4.3c0,0,0,0,0,0c-0.2,0.2-0.6,0.3-1,0.3
				c-0.2,0-0.5,0-0.7-0.1c0.2,0.3,0.4,0.6,0.5,0.9c1.1-0.1,1.7-0.3,1.9-0.7c0.2,0,0.3-1.5,0.4-4.3c0-0.3,0-0.6,0.1-1
				c-0.3,0-0.6,0.1-1,0.1h-2.6c0-0.7,0.1-1.4,0.1-2h3.1c0.4,0,0.7,0,1.1,0.1v-0.7c-0.4,0-0.7,0.1-1.1,0.1H39c-0.3,0-0.6,0-1-0.1V25z
				"/>
			<path class="st2" d="M8.5,12.5c-3.9,0-7,3.1-7,7v17h1v-17h12v17h1v-17C15.5,15.6,12.4,12.5,8.5,12.5z"/>
			<rect x="8" y="24.5" class="st2" width="1" height="12"/>
		</g>
	</g>
</g>
</svg>
