<?xml version="1.0" encoding="utf-8"?>
<!-- Generator: Adobe Illustrator 21.0.2, SVG Export Plug-In . SVG Version: 6.00 Build 0)  -->
<svg version="1.1" id="图层_1" xmlns="http://www.w3.org/2000/svg" xmlns:xlink="http://www.w3.org/1999/xlink" x="0px" y="0px"
	 viewBox="0 0 50 50" style="enable-background:new 0 0 50 50;" xml:space="preserve">
<style type="text/css">
	.st0{opacity:0.2;}
	.st1{fill:#FFFFFF;}
	.st2{fill:#F93E54;}
</style>
<g>
	<g class="st0">
		<path d="M41,10.8c-0.2-0.3-0.5-0.6-0.8-0.8c-0.5-0.3-1.1-0.5-1.7-0.5h-26c-0.6,0-1.2,0.2-1.7,0.5c-0.3,0.2-0.6,0.5-0.8,0.8
			c-0.1,0.2-0.2,0.3-0.3,0.5c-0.2,0.4-0.2,0.8-0.2,1.2v26c0,1.7,1.3,3,3,3h26c1.6,0,3-1.3,3-3v-26c0-0.4-0.1-0.8-0.2-1.2
			C41.2,11.2,41.1,11,41,10.8z M31.7,33.4c-0.1,0.1-0.2,0.1-0.3,0.1c-0.2,0-0.3-0.1-0.4-0.2c-0.1-0.1-1.3-1.9-2-4.4l-3,0
			c-0.7,2.5-2,4.4-2,4.4c-0.1,0.1-0.3,0.2-0.4,0.2c-0.1,0-0.2,0-0.3-0.1c-0.2-0.2-0.3-0.5-0.1-0.7c0,0,1.2-1.7,1.9-4.1
			c-0.4-0.4-1.1-1.9-1.8-7l1-0.1c0.4,2.7,1,5.8,1.5,6.4h5.7v1l-1.4,0c0.7,2.2,1.8,3.8,1.8,3.8C32,32.9,31.9,33.2,31.7,33.4z
			 M35.7,18.5c-0.4,0.1-1.2,0.1-1.7,0.1c-0.4,0-0.7,0-0.7,0l-11.8,0v15.8h-1V18.6C17.8,18,15.3,17,15.2,17c-0.3-0.1-0.4-0.4-0.3-0.6
			c0.1-0.3,0.4-0.4,0.6-0.3c0,0,2.8,1.1,5.4,1.6h12.3c0.5,0,1.7,0,2.2-0.1c0.3-0.1,0.5,0.1,0.6,0.4C36.2,18.2,36,18.5,35.7,18.5z"/>
		<path d="M38.5,7.5h-26c-2.8,0-5,2.2-5,5v26c0,2.8,2.2,5,5,5h26c2.8,0,5-2.2,5-5v-26C43.5,9.7,41.3,7.5,38.5,7.5z M41.5,38.5
			c0,1.7-1.4,3-3,3h-26c-1.7,0-3-1.3-3-3v-26c0-0.4,0.1-0.8,0.2-1.2c0.1-0.2,0.2-0.3,0.3-0.5c0.2-0.3,0.5-0.6,0.8-0.8
			c0.5-0.3,1.1-0.5,1.7-0.5h26c0.6,0,1.2,0.2,1.7,0.5c0.3,0.2,0.6,0.5,0.8,0.8c0.1,0.2,0.2,0.3,0.3,0.5c0.2,0.4,0.2,0.8,0.2,1.2
			V38.5z"/>
		<path d="M35.5,17.6c-0.5,0.1-1.7,0.1-2.2,0.1H21c-2.7-0.6-5.4-1.6-5.4-1.6c-0.3-0.1-0.5,0-0.6,0.3c-0.1,0.3,0,0.5,0.3,0.6
			c0.1,0,2.6,1,5.2,1.6v15.9h1V18.7l11.8,0c0.1,0,0.4,0,0.7,0c0.6,0,1.3,0,1.7-0.1c0.3-0.1,0.4-0.3,0.4-0.6
			C36,17.7,35.8,17.5,35.5,17.6z"/>
		<path d="M30,28.8l1.4,0v-1h-5.7c-0.4-0.6-1.1-3.7-1.5-6.4l-1,0.1c0.7,5.1,1.4,6.5,1.8,7c-0.7,2.3-1.8,4.1-1.9,4.1
			c-0.2,0.2-0.1,0.5,0.1,0.7c0.1,0.1,0.2,0.1,0.3,0.1c0.2,0,0.3-0.1,0.4-0.2c0.1-0.1,1.3-1.9,2-4.4l3,0c0.7,2.5,2,4.3,2,4.4
			c0.1,0.1,0.3,0.2,0.4,0.2c0.1,0,0.2,0,0.3-0.1c0.2-0.2,0.3-0.5,0.1-0.7C31.8,32.7,30.7,31.1,30,28.8z"/>
	</g>
	<g>
		<g>
			<path class="st1" d="M40,9.8c-0.2-0.3-0.5-0.6-0.8-0.8c-0.5-0.3-1.1-0.5-1.7-0.5h-26c-0.6,0-1.2,0.2-1.7,0.5
				C9.5,9.2,9.2,9.5,9,9.8c-0.1,0.2-0.2,0.3-0.3,0.5c-0.2,0.4-0.2,0.8-0.2,1.2v26c0,1.7,1.3,3,3,3h26c1.6,0,3-1.3,3-3v-26
				c0-0.4-0.1-0.8-0.2-1.2C40.2,10.2,40.1,10,40,9.8z M30.7,32.4c-0.1,0.1-0.2,0.1-0.3,0.1c-0.2,0-0.3-0.1-0.4-0.2
				c-0.1-0.1-1.3-1.9-2-4.4l-3,0c-0.7,2.5-2,4.4-2,4.4c-0.1,0.1-0.3,0.2-0.4,0.2c-0.1,0-0.2,0-0.3-0.1c-0.2-0.2-0.3-0.5-0.1-0.7
				c0,0,1.2-1.7,1.9-4.1c-0.4-0.4-1.1-1.9-1.8-7l1-0.1c0.4,2.7,1,5.8,1.5,6.4h5.7v1l-1.4,0c0.7,2.2,1.8,3.8,1.8,3.8
				C31,31.9,30.9,32.2,30.7,32.4z M34.7,17.5c-0.4,0.1-1.2,0.1-1.7,0.1c-0.4,0-0.7,0-0.7,0l-11.8,0v15.8h-1V17.6
				C16.8,17,14.3,16,14.2,16c-0.3-0.1-0.4-0.4-0.3-0.6c0.1-0.3,0.4-0.4,0.6-0.3c0,0,2.8,1.1,5.4,1.6h12.3c0.5,0,1.7,0,2.2-0.1
				c0.3-0.1,0.5,0.1,0.6,0.4C35.2,17.2,35,17.5,34.7,17.5z"/>
			<path class="st2" d="M37.5,6.5h-26c-2.8,0-5,2.2-5,5v26c0,2.8,2.2,5,5,5h26c2.8,0,5-2.2,5-5v-26C42.5,8.7,40.3,6.5,37.5,6.5z
				 M40.5,37.5c0,1.7-1.4,3-3,3h-26c-1.7,0-3-1.3-3-3v-26c0-0.4,0.1-0.8,0.2-1.2C8.8,10.2,8.9,10,9,9.8C9.2,9.5,9.5,9.2,9.8,9
				c0.5-0.3,1.1-0.5,1.7-0.5h26c0.6,0,1.2,0.2,1.7,0.5c0.3,0.2,0.6,0.5,0.8,0.8c0.1,0.2,0.2,0.3,0.3,0.5c0.2,0.4,0.2,0.8,0.2,1.2
				V37.5z"/>
			<path class="st2" d="M34.5,16.6c-0.5,0.1-1.7,0.1-2.2,0.1H20c-2.7-0.6-5.4-1.6-5.4-1.6c-0.3-0.1-0.5,0-0.6,0.3
				c-0.1,0.3,0,0.5,0.3,0.6c0.1,0,2.6,1,5.2,1.6v15.9h1V17.7l11.8,0c0.1,0,0.4,0,0.7,0c0.6,0,1.3,0,1.7-0.1c0.3-0.1,0.4-0.3,0.4-0.6
				C35,16.7,34.8,16.5,34.5,16.6z"/>
			<path class="st2" d="M29,27.8l1.4,0v-1h-5.7c-0.4-0.6-1.1-3.7-1.5-6.4l-1,0.1c0.7,5.1,1.4,6.5,1.8,7c-0.7,2.3-1.8,4.1-1.9,4.1
				c-0.2,0.2-0.1,0.5,0.1,0.7c0.1,0.1,0.2,0.1,0.3,0.1c0.2,0,0.3-0.1,0.4-0.2c0.1-0.1,1.3-1.9,2-4.4l3,0c0.7,2.5,2,4.3,2,4.4
				c0.1,0.1,0.3,0.2,0.4,0.2c0.1,0,0.2,0,0.3-0.1c0.2-0.2,0.3-0.5,0.1-0.7C30.8,31.7,29.7,30.1,29,27.8z"/>
		</g>
	</g>
</g>
</svg>
