<?xml version="1.0" encoding="utf-8"?>
<!-- Generator: Adobe Illustrator 21.0.2, SVG Export Plug-In . SVG Version: 6.00 Build 0)  -->
<svg version="1.1" id="图层_1" xmlns="http://www.w3.org/2000/svg" xmlns:xlink="http://www.w3.org/1999/xlink" x="0px" y="0px"
	 viewBox="0 0 50 50" style="enable-background:new 0 0 50 50;" xml:space="preserve">
<style type="text/css">
	.st0{opacity:0.2;}
	.st1{fill:#FFFFFF;}
	.st2{fill:#F93E54;}
</style>
<g>
	<g class="st0">
		<circle cx="24.5" cy="33" r="2.5"/>
		<path d="M38.5,9.5h-26c-1.6,0-3,1.3-3,3v26c0,1.6,1.4,3,3,3h26c1.7,0,3-1.4,3-3v-26C41.5,10.8,40.2,9.5,38.5,9.5z M32.4,22l-1-0.2
			c0.2-1,0.1-1.8-0.3-2.4c-0.6-0.9-1.7-1.1-1.7-1.1l-4.4,0v11.3c1.7,0.2,3,1.7,3,3.4c0,1.9-1.6,3.5-3.5,3.5S21,35,21,33
			c0-1.8,1.3-3.2,3-3.4V15.1h1v2.2h4.5c0.2,0,1.6,0.3,2.4,1.6C32.5,19.7,32.6,20.8,32.4,22z"/>
		<path d="M38.5,7.5h-26c-2.8,0-5,2.2-5,5v26c0,2.8,2.2,5,5,5h26c2.8,0,5-2.2,5-5v-26C43.5,9.7,41.3,7.5,38.5,7.5z M41.5,38.5
			c0,1.6-1.3,3-3,3h-26c-1.6,0-3-1.4-3-3v-26c0-1.7,1.4-3,3-3h26c1.7,0,3,1.3,3,3V38.5z"/>
		<path d="M29.5,17.3H25v-2.2h-1v14.4c-1.7,0.2-3,1.7-3,3.4c0,1.9,1.6,3.5,3.5,3.5S28,35,28,33c0-1.8-1.3-3.2-3-3.4V18.3l4.4,0
			c0,0,1.1,0.2,1.7,1.1c0.4,0.6,0.5,1.4,0.3,2.4l1,0.2c0.3-1.2,0.1-2.3-0.4-3.1C31.1,17.6,29.7,17.3,29.5,17.3z M27,33
			c0,1.4-1.1,2.5-2.5,2.5S22,34.4,22,33c0-1.4,1.1-2.5,2.5-2.5S27,31.7,27,33z"/>
	</g>
	<g>
		<g>
			<circle class="st1" cx="23.5" cy="32" r="2.5"/>
			<path class="st1" d="M37.5,8.5h-26c-1.6,0-3,1.3-3,3v26c0,1.6,1.4,3,3,3h26c1.7,0,3-1.4,3-3v-26C40.5,9.8,39.2,8.5,37.5,8.5z
				 M31.4,21l-1-0.2c0.2-1,0.1-1.8-0.3-2.4c-0.6-0.9-1.7-1.1-1.7-1.1l-4.4,0v11.3c1.7,0.2,3,1.7,3,3.4c0,1.9-1.6,3.5-3.5,3.5
				S20,34,20,32c0-1.8,1.3-3.2,3-3.4V14.1h1v2.2h4.5c0.2,0,1.6,0.3,2.4,1.6C31.5,18.7,31.6,19.8,31.4,21z"/>
			<path class="st2" d="M37.5,6.5h-26c-2.8,0-5,2.2-5,5v26c0,2.8,2.2,5,5,5h26c2.8,0,5-2.2,5-5v-26C42.5,8.7,40.3,6.5,37.5,6.5z
				 M40.5,37.5c0,1.6-1.3,3-3,3h-26c-1.6,0-3-1.4-3-3v-26c0-1.7,1.4-3,3-3h26c1.7,0,3,1.3,3,3V37.5z"/>
			<path class="st2" d="M28.5,16.3H24v-2.2h-1v14.4c-1.7,0.2-3,1.7-3,3.4c0,1.9,1.6,3.5,3.5,3.5S27,34,27,32c0-1.8-1.3-3.2-3-3.4
				V17.3l4.4,0c0,0,1.1,0.2,1.7,1.1c0.4,0.6,0.5,1.4,0.3,2.4l1,0.2c0.3-1.2,0.1-2.3-0.4-3.1C30.1,16.6,28.7,16.3,28.5,16.3z M26,32
				c0,1.4-1.1,2.5-2.5,2.5S21,33.4,21,32c0-1.4,1.1-2.5,2.5-2.5S26,30.7,26,32z"/>
		</g>
	</g>
</g>
</svg>
