<?xml version="1.0" encoding="utf-8"?>
<!-- Generator: Adobe Illustrator 21.0.2, SVG Export Plug-In . SVG Version: 6.00 Build 0)  -->
<svg version="1.1" id="图层_1" xmlns="http://www.w3.org/2000/svg" xmlns:xlink="http://www.w3.org/1999/xlink" x="0px" y="0px"
	 viewBox="0 0 50 50" style="enable-background:new 0 0 50 50;" xml:space="preserve">
<style type="text/css">
	
	.st0{opacity:0.2;}
	.st1{fill:#FFFFFF;}
	.st2{fill:#00A0E9;}
</style>
<g>
	<g class="st0">
		<path d="M41,10.6c-0.2-0.3-0.5-0.6-0.8-0.8c-0.5-0.3-1.1-0.5-1.7-0.5h-26c-0.6,0-1.2,0.2-1.7,0.5c-0.3,0.2-0.6,0.5-0.8,0.8
			c-0.1,0.2-0.2,0.3-0.3,0.5c-0.2,0.4-0.2,0.8-0.2,1.2v26c0,1.7,1.4,3,3,3h26c1.7,0,3-1.3,3-3v-26c0-0.4-0.1-0.8-0.2-1.2
			C41.2,10.9,41.1,10.7,41,10.6z M16.5,37.3h-1v-24h1V37.3z M22.5,37.3h-4v-10c0-1.1,0.9-2,2-2s2,0.9,2,2V37.3z M27.5,37.3h-4v-10
			c0-1.1,0.9-2,2-2s2,0.9,2,2V37.3z M32.5,37.3h-4v-10c0-1.1,0.9-2,2-2s2,0.9,2,2V37.3z M35.5,37.3h-1v-24h1V37.3z"/>
		<path d="M38.5,7.3h-26c-2.8,0-5,2.2-5,5v26c0,2.8,2.2,5,5,5h26c2.8,0,5-2.2,5-5v-26C43.5,9.5,41.3,7.3,38.5,7.3z M41.5,38.3
			c0,1.7-1.3,3-3,3h-26c-1.6,0-3-1.3-3-3v-26c0-0.4,0.1-0.8,0.2-1.2c0.1-0.2,0.2-0.3,0.3-0.5c0.2-0.3,0.5-0.6,0.8-0.8
			c0.5-0.3,1.1-0.5,1.7-0.5h26c0.6,0,1.2,0.2,1.7,0.5c0.3,0.2,0.6,0.5,0.8,0.8c0.1,0.2,0.2,0.3,0.3,0.5c0.2,0.4,0.2,0.8,0.2,1.2
			V38.3z"/>
		<rect x="15.5" y="13.3" width="1" height="24"/>
		<rect x="34.5" y="13.3" width="1" height="24"/>
		<path d="M20.5,25.3c-1.1,0-2,0.9-2,2v10h4v-10C22.5,26.1,21.6,25.3,20.5,25.3z"/>
		<path d="M25.5,25.3c-1.1,0-2,0.9-2,2v10h4v-10C27.5,26.1,26.6,25.3,25.5,25.3z"/>
		<path d="M30.5,25.3c-1.1,0-2,0.9-2,2v10h4v-10C32.5,26.1,31.6,25.3,30.5,25.3z"/>
	</g>
	<g>
		<g>
			<path class="st1" d="M40,9.6c-0.2-0.3-0.5-0.6-0.8-0.8c-0.5-0.3-1.1-0.5-1.7-0.5h-26c-0.6,0-1.2,0.2-1.7,0.5C9.5,9,9.2,9.3,9,9.6
				c-0.1,0.2-0.2,0.3-0.3,0.5c-0.2,0.4-0.2,0.8-0.2,1.2v26c0,1.7,1.4,3,3,3h26c1.7,0,3-1.3,3-3v-26c0-0.4-0.1-0.8-0.2-1.2
				C40.2,9.9,40.1,9.7,40,9.6z M15.5,36.3h-1v-24h1V36.3z M21.5,36.3h-4v-10c0-1.1,0.9-2,2-2s2,0.9,2,2V36.3z M26.5,36.3h-4v-10
				c0-1.1,0.9-2,2-2s2,0.9,2,2V36.3z M31.5,36.3h-4v-10c0-1.1,0.9-2,2-2s2,0.9,2,2V36.3z M34.5,36.3h-1v-24h1V36.3z"/>
			<g>
				<path class="st2" d="M37.5,6.3h-26c-2.8,0-5,2.2-5,5v26c0,2.8,2.2,5,5,5h26c2.8,0,5-2.2,5-5v-26C42.5,8.5,40.3,6.3,37.5,6.3z
					 M40.5,37.3c0,1.7-1.3,3-3,3h-26c-1.6,0-3-1.3-3-3v-26c0-0.4,0.1-0.8,0.2-1.2C8.8,9.9,8.9,9.7,9,9.6C9.2,9.3,9.5,9,9.8,8.8
					c0.5-0.3,1.1-0.5,1.7-0.5h26c0.6,0,1.2,0.2,1.7,0.5C39.5,9,39.8,9.3,40,9.6c0.1,0.2,0.2,0.3,0.3,0.5c0.2,0.4,0.2,0.8,0.2,1.2
					V37.3z"/>
			</g>
			<rect x="14.5" y="12.3" class="st2" width="1" height="24"/>
			<rect x="33.5" y="12.3" class="st2" width="1" height="24"/>
			<path class="st2" d="M19.5,24.3c-1.1,0-2,0.9-2,2v10h4v-10C21.5,25.1,20.6,24.3,19.5,24.3z"/>
			<path class="st2" d="M24.5,24.3c-1.1,0-2,0.9-2,2v10h4v-10C26.5,25.1,25.6,24.3,24.5,24.3z"/>
			<path class="st2" d="M29.5,24.3c-1.1,0-2,0.9-2,2v10h4v-10C31.5,25.1,30.6,24.3,29.5,24.3z"/>
		</g>
	</g>
</g>
</svg>
