<?xml version="1.0" encoding="utf-8"?>
<!-- Generator: Adobe Illustrator 21.0.2, SVG Export Plug-In . SVG Version: 6.00 Build 0)  -->
<svg version="1.1" id="图层_1" xmlns="http://www.w3.org/2000/svg" xmlns:xlink="http://www.w3.org/1999/xlink" x="0px" y="0px"
	 viewBox="0 0 50 50" style="enable-background:new 0 0 50 50;" xml:space="preserve">
<style type="text/css">
	.st0{opacity:0.2;}
	.st1{fill:#FFFFFF;}
	.st2{fill:#F93E54;}
</style>
<g>
	<g class="st0">
		<path d="M25.5,15.5c-5.5,0-10,4.5-10,10c0,5.5,4.5,10,10,10s10-4.5,10-10C35.5,20,31,15.5,25.5,15.5z M21.9,33l3.1-6.6h-4.3
			l8.2-8.4l-3.4,6.3h4.8L21.9,33z"/>
		<path d="M38.5,9.5h-26c-1.7,0-3,1.3-3,3v26c0,1.7,1.3,3,3,3h26c1.6,0,3-1.3,3-3v-26C41.5,10.8,40.2,9.5,38.5,9.5z M25.5,36.5
			c-6.1,0-11-4.9-11-11s4.9-11,11-11s11,4.9,11,11S31.6,36.5,25.5,36.5z"/>
		<path d="M38.5,7.5h-26c-2.8,0-5,2.2-5,5v26c0,2.8,2.2,5,5,5h26c2.8,0,5-2.2,5-5v-26C43.5,9.7,41.3,7.5,38.5,7.5z M41.5,38.5
			c0,1.7-1.4,3-3,3h-26c-1.7,0-3-1.3-3-3v-26c0-1.7,1.3-3,3-3h26c1.6,0,3,1.3,3,3V38.5z"/>
		<path d="M25.5,14.5c-6.1,0-11,4.9-11,11s4.9,11,11,11s11-4.9,11-11S31.6,14.5,25.5,14.5z M25.5,35.5c-5.5,0-10-4.5-10-10
			c0-5.5,4.5-10,10-10s10,4.5,10,10C35.5,31,31,35.5,25.5,35.5z"/>
		<polygon points="28.9,18 20.7,26.4 25,26.4 21.9,33 30.3,24.3 25.5,24.3 		"/>
	</g>
	<g>
		<g>
			<path class="st1" d="M24.5,14.5c-5.5,0-10,4.5-10,10c0,5.5,4.5,10,10,10s10-4.5,10-10C34.5,19,30,14.5,24.5,14.5z M20.9,32
				l3.1-6.6h-4.3l8.2-8.4l-3.4,6.3h4.8L20.9,32z"/>
			<path class="st1" d="M37.5,8.5h-26c-1.7,0-3,1.3-3,3v26c0,1.7,1.3,3,3,3h26c1.6,0,3-1.3,3-3v-26C40.5,9.8,39.2,8.5,37.5,8.5z
				 M24.5,35.5c-6.1,0-11-4.9-11-11s4.9-11,11-11s11,4.9,11,11S30.6,35.5,24.5,35.5z"/>
			<path class="st2" d="M37.5,6.5h-26c-2.8,0-5,2.2-5,5v26c0,2.8,2.2,5,5,5h26c2.8,0,5-2.2,5-5v-26C42.5,8.7,40.3,6.5,37.5,6.5z
				 M40.5,37.5c0,1.7-1.4,3-3,3h-26c-1.7,0-3-1.3-3-3v-26c0-1.7,1.3-3,3-3h26c1.6,0,3,1.3,3,3V37.5z"/>
			<path class="st2" d="M24.5,13.5c-6.1,0-11,4.9-11,11s4.9,11,11,11s11-4.9,11-11S30.6,13.5,24.5,13.5z M24.5,34.5
				c-5.5,0-10-4.5-10-10c0-5.5,4.5-10,10-10s10,4.5,10,10C34.5,30,30,34.5,24.5,34.5z"/>
			<polygon class="st2" points="27.9,17 19.7,25.4 24,25.4 20.9,32 29.3,23.3 24.5,23.3 			"/>
		</g>
	</g>
</g>
</svg>
