<?xml version="1.0" encoding="utf-8"?>
<!-- Generator: Adobe Illustrator 21.0.2, SVG Export Plug-In . SVG Version: 6.00 Build 0)  -->
<svg version="1.1" id="图层_1" xmlns="http://www.w3.org/2000/svg" xmlns:xlink="http://www.w3.org/1999/xlink" x="0px" y="0px"
	 viewBox="0 0 50 50" style="enable-background:new 0 0 50 50;" xml:space="preserve">
<style type="text/css">
	.st0{opacity:0.2;}
	.st1{fill:#FFFFFF;}
	.st2{fill:#F93E54;}
</style>
<g>
	<g class="st0">
		<path d="M16.4,20.1v14.8h7.8V20.1l-3.9-3.9L16.4,20.1z M20.8,32h-1V20h1V32z"/>
		<rect x="32" y="32.3" width="4.6" height="2"/>
		<path d="M41,10.8c-0.2-0.3-0.5-0.6-0.8-0.8c-0.5-0.3-1.1-0.5-1.7-0.5h-26c-0.6,0-1.2,0.2-1.7,0.5c-0.3,0.2-0.6,0.5-0.8,0.8
			c-0.1,0.2-0.2,0.3-0.3,0.5c-0.2,0.4-0.2,0.8-0.2,1.2v26c0,1.7,1.4,3,3,3h26c1.7,0,3-1.3,3-3v-26c0-0.4-0.1-0.8-0.2-1.2
			C41.2,11.2,41.1,11,41,10.8z M33.5,24.5c0.6,0.4,1.3,0.8,1.9,1.3l-0.3,0.5c-0.6-0.6-1.2-1-1.9-1.3L33.5,24.5z M25.2,35.9h-9.8
			V21.1l-1.6,1.6L13.1,22l7.2-7.2l0.4,0.3l6.9,6.9l-0.7,0.7l-1.6-1.6V35.9z M29.6,35.7H29c0-0.2,0.1-0.5,0.1-0.7v-7.1
			c-0.5,0.8-1,1.5-1.5,2.1c-0.2-0.1-0.4-0.2-0.7-0.3c1.2-0.8,2.3-2.5,3.2-5.1l0.8,0.4c-0.2,0.1-0.4,0.2-0.5,0.4
			c-0.2,0.6-0.5,1.1-0.8,1.7V35C29.5,35.4,29.6,35.6,29.6,35.7z M37.2,35.7h-0.6c0-0.3,0.1-0.5,0.1-0.7v-0.3H32V35
			c0,0.3,0,0.6,0.1,0.8h-0.6c0-0.2,0.1-0.5,0.1-0.8v-2.4c0-0.3,0-0.5-0.1-0.8c0.2,0,0.4,0.1,0.7,0.1h4.2c0.3,0,0.6,0,0.7-0.1
			c0,0.2-0.1,0.5-0.1,0.8V35C37.1,35.2,37.1,35.5,37.2,35.7z M37.2,30.5c-0.2,0-0.4-0.1-0.8-0.1h-4.3c-0.3,0-0.5,0-0.7,0.1V30
			c0.2,0,0.4,0.1,0.7,0.1h4.3c0.3,0,0.5,0,0.8-0.1V30.5z M37.2,28.8c-0.2,0-0.4-0.1-0.8-0.1h-4.2c-0.3,0-0.5,0-0.7,0.1v-0.5
			c0.2,0,0.4,0.1,0.7,0.1h4.2c0.3,0,0.6,0,0.8-0.1V28.8z M38.2,27.1C38,27,37.7,27,37.4,27h-6.3c-0.3,0-0.5,0-0.7,0.1v-0.5
			c0.2,0,0.4,0.1,0.7,0.1h6.2c0.3,0,0.6,0,0.7-0.1V27.1z"/>
		<path d="M38.5,7.5h-26c-2.8,0-5,2.2-5,5v26c0,2.8,2.2,5,5,5h26c2.8,0,5-2.2,5-5v-26C43.5,9.7,41.3,7.5,38.5,7.5z M41.5,38.5
			c0,1.7-1.3,3-3,3h-26c-1.6,0-3-1.3-3-3v-26c0-0.4,0.1-0.8,0.2-1.2c0.1-0.2,0.2-0.3,0.3-0.5c0.2-0.3,0.5-0.6,0.8-0.8
			c0.5-0.3,1.1-0.5,1.7-0.5h26c0.6,0,1.2,0.2,1.7,0.5c0.3,0.2,0.6,0.5,0.8,0.8c0.1,0.2,0.2,0.3,0.3,0.5c0.2,0.4,0.2,0.8,0.2,1.2
			V38.5z"/>
		<path d="M27.5,22l-6.9-6.9l-0.4-0.3L13.1,22l0.7,0.7l1.6-1.6v14.8h9.8V21.1l1.6,1.6L27.5,22z M24.2,34.9h-7.8V20.1l3.9-3.9
			l3.9,3.9V34.9z"/>
		<rect x="19.8" y="20" width="1" height="12"/>
		<path d="M30.4,25.4c0.1-0.2,0.3-0.3,0.5-0.4l-0.8-0.4c-0.9,2.6-1.9,4.3-3.2,5.1c0.3,0.1,0.5,0.2,0.7,0.3c0.5-0.6,1-1.3,1.5-2.1V35
			c0,0.3,0,0.5-0.1,0.7h0.6c0-0.1,0-0.3-0.1-0.7v-7.9C29.8,26.6,30.1,26,30.4,25.4z"/>
		<path d="M35.4,25.8c-0.6-0.5-1.2-0.9-1.9-1.3L33.2,25c0.7,0.3,1.3,0.8,1.9,1.3L35.4,25.8z"/>
		<path d="M37.2,31.8c-0.2,0-0.4,0.1-0.7,0.1h-4.2c-0.3,0-0.5,0-0.7-0.1c0,0.2,0.1,0.5,0.1,0.8V35c0,0.3,0,0.6-0.1,0.8h0.6
			c0-0.2-0.1-0.5-0.1-0.8v-0.3h4.6V35c0,0.2,0,0.5-0.1,0.7h0.6c0-0.2-0.1-0.5-0.1-0.7v-2.4C37.1,32.2,37.1,32,37.2,31.8z M36.7,34.2
			H32v-2h4.6V34.2z"/>
		<path d="M32.3,28.3c-0.3,0-0.5,0-0.7-0.1v0.5c0.2,0,0.4-0.1,0.7-0.1h4.2c0.3,0,0.6,0,0.8,0.1v-0.5c-0.2,0-0.4,0.1-0.8,0.1H32.3z"
			/>
		<path d="M31.2,26.6c-0.3,0-0.6,0-0.7-0.1v0.5c0.2,0,0.4-0.1,0.7-0.1h6.3c0.3,0,0.5,0,0.7,0.1v-0.5c-0.2,0-0.4,0.1-0.7,0.1H31.2z"
			/>
		<path d="M32.2,30c-0.3,0-0.6,0-0.7-0.1v0.5c0.2,0,0.4-0.1,0.7-0.1h4.3c0.3,0,0.6,0,0.8,0.1V30c-0.2,0-0.5,0.1-0.8,0.1H32.2z"/>
	</g>
	<g>
		<g>
			<path class="st1" d="M15.4,19.1v14.8h7.8V19.1l-3.9-3.9L15.4,19.1z M19.8,31h-1V19h1V31z"/>
			<rect x="31" y="31.3" class="st1" width="4.6" height="2"/>
			<path class="st1" d="M40,9.8c-0.2-0.3-0.5-0.6-0.8-0.8c-0.5-0.3-1.1-0.5-1.7-0.5h-26c-0.6,0-1.2,0.2-1.7,0.5
				C9.5,9.2,9.2,9.5,9,9.8c-0.1,0.2-0.2,0.3-0.3,0.5c-0.2,0.4-0.2,0.8-0.2,1.2v26c0,1.7,1.4,3,3,3h26c1.7,0,3-1.3,3-3v-26
				c0-0.4-0.1-0.8-0.2-1.2C40.2,10.2,40.1,10,40,9.8z M32.5,23.5c0.6,0.4,1.3,0.8,1.9,1.3l-0.3,0.5c-0.6-0.6-1.2-1-1.9-1.3
				L32.5,23.5z M24.2,34.9h-9.8V20.1l-1.6,1.6L12.1,21l7.2-7.2l0.4,0.3l6.9,6.9l-0.7,0.7l-1.6-1.6V34.9z M28.6,34.7H28
				c0-0.2,0.1-0.5,0.1-0.7v-7.1c-0.5,0.8-1,1.5-1.5,2.1c-0.2-0.1-0.4-0.2-0.7-0.3c1.2-0.8,2.3-2.5,3.2-5.1l0.8,0.4
				c-0.2,0.1-0.4,0.2-0.5,0.4c-0.2,0.6-0.5,1.1-0.8,1.7V34C28.5,34.4,28.6,34.6,28.6,34.7z M36.2,34.7h-0.6c0-0.3,0.1-0.5,0.1-0.7
				v-0.3H31V34c0,0.3,0,0.6,0.1,0.8h-0.6c0-0.2,0.1-0.5,0.1-0.8v-2.4c0-0.3,0-0.5-0.1-0.8c0.2,0,0.4,0.1,0.7,0.1h4.2
				c0.3,0,0.6,0,0.7-0.1c0,0.2-0.1,0.5-0.1,0.8V34C36.1,34.2,36.1,34.5,36.2,34.7z M36.2,29.5c-0.2,0-0.4-0.1-0.8-0.1h-4.3
				c-0.3,0-0.5,0-0.7,0.1V29c0.2,0,0.4,0.1,0.7,0.1h4.3c0.3,0,0.5,0,0.8-0.1V29.5z M36.2,27.8c-0.2,0-0.4-0.1-0.8-0.1h-4.2
				c-0.3,0-0.5,0-0.7,0.1v-0.5c0.2,0,0.4,0.1,0.7,0.1h4.2c0.3,0,0.6,0,0.8-0.1V27.8z M37.2,26.1C37,26,36.7,26,36.4,26h-6.3
				c-0.3,0-0.5,0-0.7,0.1v-0.5c0.2,0,0.4,0.1,0.7,0.1h6.2c0.3,0,0.6,0,0.7-0.1V26.1z"/>
			<path class="st2" d="M37.5,6.5h-26c-2.8,0-5,2.2-5,5v26c0,2.8,2.2,5,5,5h26c2.8,0,5-2.2,5-5v-26C42.5,8.7,40.3,6.5,37.5,6.5z
				 M40.5,37.5c0,1.7-1.3,3-3,3h-26c-1.6,0-3-1.3-3-3v-26c0-0.4,0.1-0.8,0.2-1.2C8.8,10.2,8.9,10,9,9.8C9.2,9.5,9.5,9.2,9.8,9
				c0.5-0.3,1.1-0.5,1.7-0.5h26c0.6,0,1.2,0.2,1.7,0.5c0.3,0.2,0.6,0.5,0.8,0.8c0.1,0.2,0.2,0.3,0.3,0.5c0.2,0.4,0.2,0.8,0.2,1.2
				V37.5z"/>
			<path class="st2" d="M26.5,21l-6.9-6.9l-0.4-0.3L12.1,21l0.7,0.7l1.6-1.6v14.8h9.8V20.1l1.6,1.6L26.5,21z M23.2,33.9h-7.8V19.1
				l3.9-3.9l3.9,3.9V33.9z"/>
			<rect x="18.8" y="19" class="st2" width="1" height="12"/>
			<path class="st2" d="M29.4,24.4c0.1-0.2,0.3-0.3,0.5-0.4l-0.8-0.4c-0.9,2.6-1.9,4.3-3.2,5.1c0.3,0.1,0.5,0.2,0.7,0.3
				c0.5-0.6,1-1.3,1.5-2.1V34c0,0.3,0,0.5-0.1,0.7h0.6c0-0.1,0-0.3-0.1-0.7v-7.9C28.8,25.6,29.1,25,29.4,24.4z"/>
			<path class="st2" d="M34.4,24.8c-0.6-0.5-1.2-0.9-1.9-1.3L32.2,24c0.7,0.3,1.3,0.8,1.9,1.3L34.4,24.8z"/>
			<path class="st2" d="M36.2,30.8c-0.2,0-0.4,0.1-0.7,0.1h-4.2c-0.3,0-0.5,0-0.7-0.1c0,0.2,0.1,0.5,0.1,0.8V34c0,0.3,0,0.6-0.1,0.8
				h0.6c0-0.2-0.1-0.5-0.1-0.8v-0.3h4.6V34c0,0.2,0,0.5-0.1,0.7h0.6c0-0.2-0.1-0.5-0.1-0.7v-2.4C36.1,31.2,36.1,31,36.2,30.8z
				 M35.7,33.2H31v-2h4.6V33.2z"/>
			<path class="st2" d="M31.3,27.3c-0.3,0-0.5,0-0.7-0.1v0.5c0.2,0,0.4-0.1,0.7-0.1h4.2c0.3,0,0.6,0,0.8,0.1v-0.5
				c-0.2,0-0.4,0.1-0.8,0.1H31.3z"/>
			<path class="st2" d="M30.2,25.6c-0.3,0-0.6,0-0.7-0.1v0.5c0.2,0,0.4-0.1,0.7-0.1h6.3c0.3,0,0.5,0,0.7,0.1v-0.5
				c-0.2,0-0.4,0.1-0.7,0.1H30.2z"/>
			<path class="st2" d="M31.2,29c-0.3,0-0.6,0-0.7-0.1v0.5c0.2,0,0.4-0.1,0.7-0.1h4.3c0.3,0,0.6,0,0.8,0.1V29
				c-0.2,0-0.5,0.1-0.8,0.1H31.2z"/>
		</g>
	</g>
</g>
</svg>
