<?xml version="1.0" encoding="utf-8"?>
<!-- Generator: Adobe Illustrator 21.0.2, SVG Export Plug-In . SVG Version: 6.00 Build 0)  -->
<svg version="1.1" id="图层_1" xmlns="http://www.w3.org/2000/svg" xmlns:xlink="http://www.w3.org/1999/xlink" x="0px" y="0px"
	 viewBox="0 0 50 50" style="enable-background:new 0 0 50 50;" xml:space="preserve">
<style type="text/css">
	.st0{opacity:0.2;}
	.st1{fill:#00A0E9;}
	.st2{fill:#FFFFFF;}
</style>
<g>
	<g class="st0">
		<path d="M38.5,7.3h-26c-2.8,0-5,2.2-5,5v26c0,2.8,2.2,5,5,5h26c2.8,0,5-2.2,5-5v-26C43.5,9.5,41.3,7.3,38.5,7.3z M41.5,38.3
			c0,1.7-1.3,3-3,3h-26c-1.6,0-3-1.3-3-3v-26c0-0.4,0.1-0.8,0.2-1.2c0.1-0.2,0.2-0.3,0.3-0.5c0.2-0.3,0.5-0.6,0.8-0.8
			c0.5-0.3,1.1-0.5,1.7-0.5h26c0.6,0,1.2,0.2,1.7,0.5c0.3,0.2,0.6,0.5,0.8,0.8c0.1,0.2,0.2,0.3,0.3,0.5c0.2,0.4,0.2,0.8,0.2,1.2
			V38.3z"/>
		<path d="M41,10.6c-0.2-0.3-0.5-0.6-0.8-0.8c-0.5-0.3-1.1-0.5-1.7-0.5h-26c-0.6,0-1.2,0.2-1.7,0.5c-0.3,0.2-0.6,0.5-0.8,0.8
			c-0.1,0.2-0.2,0.3-0.3,0.5c-0.2,0.4-0.2,0.8-0.2,1.2v26c0,1.7,1.4,3,3,3h26c1.7,0,3-1.3,3-3v-26c0-0.4-0.1-0.8-0.2-1.2
			C41.2,10.9,41.1,10.7,41,10.6z M25.5,36.3c-6.1,0-11-4.9-11-11s4.9-11,11-11c6.1,0,11,4.9,11,11S31.6,36.3,25.5,36.3z"/>
		<path d="M30.2,20.4c-0.4-0.3-0.8-0.6-1.4-0.8c-0.5-0.2-1.1-0.3-1.7-0.3h-5.7v12h2.3v-4.2h3.4c0.6,0,1.1-0.1,1.7-0.3
			c0.5-0.2,1-0.5,1.4-0.8c0.4-0.4,0.7-0.8,0.9-1.2c0.2-0.5,0.3-1,0.3-1.5c0-0.5-0.1-1-0.3-1.5C30.9,21.2,30.6,20.7,30.2,20.4z
			 M29,23.8c-0.1,0.2-0.2,0.4-0.4,0.6c-0.2,0.2-0.4,0.3-0.6,0.4c-0.2,0.1-0.5,0.1-0.8,0.1h-3.3v-3.6h3.3c0.3,0,0.5,0,0.8,0.1
			c0.2,0.1,0.4,0.2,0.6,0.4c0.2,0.2,0.3,0.4,0.4,0.6c0.1,0.2,0.2,0.5,0.2,0.7C29.2,23.4,29.1,23.6,29,23.8z"/>
		<path d="M22.8,25.9v-5.6h4.3c0.4,0,0.8,0.1,1.2,0.2c0.3,0.1,0.7,0.3,0.9,0.6c0.3,0.2,0.5,0.5,0.7,0.9c0.2,0.4,0.3,0.7,0.3,1.1
			c0,0.4-0.1,0.8-0.3,1.1c-0.2,0.3-0.4,0.6-0.6,0.9c-0.3,0.3-0.6,0.5-1,0.6c-0.4,0.1-0.7,0.2-1.1,0.2H22.8z"/>
		<path d="M27.2,21.3c0.3,0,0.5,0,0.8,0.1c0.2,0.1,0.4,0.2,0.6,0.4c0.2,0.2,0.3,0.4,0.4,0.6c0.1,0.2,0.2,0.5,0.2,0.7
			c0,0.3-0.1,0.5-0.2,0.7c-0.1,0.2-0.2,0.4-0.4,0.6c-0.2,0.2-0.4,0.3-0.6,0.4c-0.2,0.1-0.5,0.1-0.8,0.1h-3.3v-3.6H27.2 M27.2,19.3
			h-3.3h-2v2v3.6v2h2h3.3c0.5,0,1-0.1,1.5-0.3c0.5-0.2,0.9-0.5,1.3-0.8c0.4-0.3,0.6-0.7,0.9-1.1c0.2-0.5,0.4-1,0.4-1.6
			c0-0.5-0.1-1.1-0.4-1.6c-0.2-0.5-0.5-0.9-0.9-1.2c-0.4-0.3-0.8-0.6-1.2-0.8C28.2,19.4,27.7,19.3,27.2,19.3L27.2,19.3z"/>
		<path d="M25.5,37.3c-6.6,0-12-5.4-12-12c0-6.6,5.4-12,12-12c6.6,0,12,5.4,12,12C37.5,31.9,32.1,37.3,25.5,37.3z M22.8,30.3V26h4.4
			c0.5,0,0.9-0.1,1.3-0.2c0.4-0.2,0.8-0.4,1-0.6c0.3-0.3,0.5-0.6,0.7-0.9c0.2-0.3,0.2-0.7,0.2-1.1s-0.1-0.7-0.2-1.1
			c-0.2-0.4-0.4-0.7-0.7-0.9c-0.3-0.3-0.6-0.5-1.1-0.6c-0.4-0.2-0.8-0.2-1.3-0.2h-4.7v10H22.8z"/>
		<path d="M25.5,14.3c6.1,0,11,4.9,11,11s-4.9,11-11,11c-6.1,0-11-4.9-11-11S19.4,14.3,25.5,14.3 M21.5,31.3h2.3v-4.2h3.4
			c0.6,0,1.1-0.1,1.7-0.3c0.5-0.2,1-0.5,1.4-0.8c0.4-0.4,0.7-0.8,0.9-1.2c0.2-0.5,0.3-1,0.3-1.5c0-0.5-0.1-1-0.3-1.5
			c-0.2-0.5-0.5-0.9-0.9-1.2c-0.4-0.3-0.8-0.6-1.4-0.8c-0.5-0.2-1.1-0.3-1.7-0.3h-5.7V31.3 M25.5,12.3c-7.2,0-13,5.8-13,13
			s5.8,13,13,13s13-5.8,13-13S32.7,12.3,25.5,12.3L25.5,12.3z M23.5,21.3h3.7c0.3,0,0.7,0.1,0.9,0.2c0.3,0.1,0.5,0.3,0.8,0.5
			c0.2,0.2,0.3,0.4,0.5,0.6c0.1,0.2,0.1,0.4,0.1,0.7c0,0.2,0,0.5-0.1,0.7c-0.1,0.2-0.3,0.5-0.5,0.6c-0.2,0.2-0.4,0.3-0.7,0.4
			c-0.3,0.1-0.6,0.2-0.9,0.2h-3.4h-0.3V21.3L23.5,21.3z"/>
	</g>
	<g>
		<g>
			<g>
				<path class="st1" d="M37.5,6.3h-26c-2.8,0-5,2.2-5,5v26c0,2.8,2.2,5,5,5h26c2.8,0,5-2.2,5-5v-26C42.5,8.5,40.3,6.3,37.5,6.3z
					 M40.5,37.3c0,1.7-1.3,3-3,3h-26c-1.6,0-3-1.3-3-3v-26c0-0.4,0.1-0.8,0.2-1.2C8.8,9.9,8.9,9.7,9,9.6C9.2,9.3,9.5,9,9.8,8.8
					c0.5-0.3,1.1-0.5,1.7-0.5h26c0.6,0,1.2,0.2,1.7,0.5C39.5,9,39.8,9.3,40,9.6c0.1,0.2,0.2,0.3,0.3,0.5c0.2,0.4,0.2,0.8,0.2,1.2
					V37.3z"/>
			</g>
			<path class="st2" d="M40,9.6c-0.2-0.3-0.5-0.6-0.8-0.8c-0.5-0.3-1.1-0.5-1.7-0.5h-26c-0.6,0-1.2,0.2-1.7,0.5C9.5,9,9.2,9.3,9,9.6
				c-0.1,0.2-0.2,0.3-0.3,0.5c-0.2,0.4-0.2,0.8-0.2,1.2v26c0,1.7,1.4,3,3,3h26c1.7,0,3-1.3,3-3v-26c0-0.4-0.1-0.8-0.2-1.2
				C40.2,9.9,40.1,9.7,40,9.6z M24.5,35.3c-6.1,0-11-4.9-11-11s4.9-11,11-11c6.1,0,11,4.9,11,11S30.6,35.3,24.5,35.3z"/>
			<path class="st2" d="M29.2,19.4c-0.4-0.3-0.8-0.6-1.4-0.8c-0.5-0.2-1.1-0.3-1.7-0.3h-5.7v12h2.3v-4.2h3.4c0.6,0,1.1-0.1,1.7-0.3
				c0.5-0.2,1-0.5,1.4-0.8c0.4-0.4,0.7-0.8,0.9-1.2c0.2-0.5,0.3-1,0.3-1.5c0-0.5-0.1-1-0.3-1.5C29.9,20.2,29.6,19.7,29.2,19.4z
				 M28,22.8c-0.1,0.2-0.2,0.4-0.4,0.6c-0.2,0.2-0.4,0.3-0.6,0.4c-0.2,0.1-0.5,0.1-0.8,0.1h-3.3v-3.6h3.3c0.3,0,0.5,0,0.8,0.1
				c0.2,0.1,0.4,0.2,0.6,0.4c0.2,0.2,0.3,0.4,0.4,0.6c0.1,0.2,0.2,0.5,0.2,0.7C28.2,22.4,28.1,22.6,28,22.8z"/>
			<g>
				<path class="st1" d="M21.8,24.9v-5.6h4.3c0.4,0,0.8,0.1,1.2,0.2c0.3,0.1,0.7,0.3,0.9,0.6c0.3,0.2,0.5,0.5,0.7,0.9
					c0.2,0.4,0.3,0.7,0.3,1.1c0,0.4-0.1,0.8-0.3,1.1c-0.2,0.3-0.4,0.6-0.6,0.9c-0.3,0.3-0.6,0.5-1,0.6c-0.4,0.1-0.7,0.2-1.1,0.2
					H21.8z"/>
				<path class="st2" d="M26.2,20.3c0.3,0,0.5,0,0.8,0.1c0.2,0.1,0.4,0.2,0.6,0.4c0.2,0.2,0.3,0.4,0.4,0.6c0.1,0.2,0.2,0.5,0.2,0.7
					c0,0.3-0.1,0.5-0.2,0.7c-0.1,0.2-0.2,0.4-0.4,0.6c-0.2,0.2-0.4,0.3-0.6,0.4c-0.2,0.1-0.5,0.1-0.8,0.1h-3.3v-3.6H26.2 M26.2,18.3
					h-3.3h-2v2v3.6v2h2h3.3c0.5,0,1-0.1,1.5-0.3c0.5-0.2,0.9-0.5,1.3-0.8c0.4-0.3,0.6-0.7,0.9-1.1c0.2-0.5,0.4-1,0.4-1.6
					c0-0.5-0.1-1.1-0.4-1.6c-0.2-0.5-0.5-0.9-0.9-1.2c-0.4-0.3-0.8-0.6-1.2-0.8C27.2,18.4,26.7,18.3,26.2,18.3L26.2,18.3z"/>
			</g>
			<g>
				<path class="st1" d="M24.5,36.3c-6.6,0-12-5.4-12-12c0-6.6,5.4-12,12-12c6.6,0,12,5.4,12,12C36.5,30.9,31.1,36.3,24.5,36.3z
					 M21.8,29.3V25h4.4c0.5,0,0.9-0.1,1.3-0.2c0.4-0.2,0.8-0.4,1-0.6c0.3-0.3,0.5-0.6,0.7-0.9c0.2-0.3,0.2-0.7,0.2-1.1
					s-0.1-0.7-0.2-1.1c-0.2-0.4-0.4-0.7-0.7-0.9c-0.3-0.3-0.6-0.5-1.1-0.6c-0.4-0.2-0.8-0.2-1.3-0.2h-4.7v10H21.8z"/>
				<path class="st2" d="M24.5,13.3c6.1,0,11,4.9,11,11s-4.9,11-11,11c-6.1,0-11-4.9-11-11S18.4,13.3,24.5,13.3 M20.5,30.3h2.3v-4.2
					h3.4c0.6,0,1.1-0.1,1.7-0.3c0.5-0.2,1-0.5,1.4-0.8c0.4-0.4,0.7-0.8,0.9-1.2c0.2-0.5,0.3-1,0.3-1.5c0-0.5-0.1-1-0.3-1.5
					c-0.2-0.5-0.5-0.9-0.9-1.2c-0.4-0.3-0.8-0.6-1.4-0.8c-0.5-0.2-1.1-0.3-1.7-0.3h-5.7V30.3 M24.5,11.3c-7.2,0-13,5.8-13,13
					s5.8,13,13,13s13-5.8,13-13S31.7,11.3,24.5,11.3L24.5,11.3z M22.5,20.3h3.7c0.3,0,0.7,0.1,0.9,0.2c0.3,0.1,0.5,0.3,0.8,0.5
					c0.2,0.2,0.3,0.4,0.5,0.6c0.1,0.2,0.1,0.4,0.1,0.7c0,0.2,0,0.5-0.1,0.7c-0.1,0.2-0.3,0.5-0.5,0.6c-0.2,0.2-0.4,0.3-0.7,0.4
					c-0.3,0.1-0.6,0.2-0.9,0.2h-3.4h-0.3V20.3L22.5,20.3z"/>
			</g>
		</g>
	</g>
</g>
</svg>
