<?xml version="1.0" encoding="utf-8"?>
<!-- Generator: Adobe Illustrator 21.0.2, SVG Export Plug-In . SVG Version: 6.00 Build 0)  -->
<svg version="1.1" id="图层_1" xmlns="http://www.w3.org/2000/svg" xmlns:xlink="http://www.w3.org/1999/xlink" x="0px" y="0px"
	 viewBox="0 0 50 50" style="enable-background:new 0 0 50 50;" xml:space="preserve">
<style type="text/css">
	
	.st0{opacity:0.2;}
	.st1{fill:#00A0E9;}
	.st2{fill:#FFFFFF;}
</style>
<g>
	<g class="st0">
		<path d="M38.5,7.3h-26c-2.8,0-5,2.2-5,5v26c0,2.8,2.2,5,5,5h26c2.8,0,5-2.2,5-5v-26C43.5,9.5,41.3,7.3,38.5,7.3z M41.5,38.3
			c0,1.7-1.3,3-3,3h-26c-1.6,0-3-1.3-3-3v-26c0-0.4,0.1-0.8,0.2-1.2c0.1-0.2,0.2-0.3,0.3-0.5c0.2-0.3,0.5-0.6,0.8-0.8
			c0.5-0.3,1.1-0.5,1.7-0.5h26c0.6,0,1.2,0.2,1.7,0.5c0.3,0.2,0.6,0.5,0.8,0.8c0.1,0.2,0.2,0.3,0.3,0.5c0.2,0.4,0.2,0.8,0.2,1.2
			V38.3z"/>
		<polygon points="17.2,34.3 33.8,34.3 25.5,26 		"/>
		<polygon points="34.5,33.5 34.5,17 26.2,25.3 		"/>
		<polygon points="33.8,16.3 17.2,16.3 25.5,24.5 		"/>
		<polygon points="16.5,17 16.5,33.5 24.8,25.3 		"/>
		<path d="M41,10.6c-0.2-0.3-0.5-0.6-0.8-0.8c-0.5-0.3-1.1-0.5-1.7-0.5h-26c-0.6,0-1.2,0.2-1.7,0.5c-0.3,0.2-0.6,0.5-0.8,0.8
			c-0.1,0.2-0.2,0.3-0.3,0.5c-0.2,0.4-0.2,0.8-0.2,1.2v26c0,1.7,1.4,3,3,3h26c1.7,0,3-1.3,3-3v-26c0-0.4-0.1-0.8-0.2-1.2
			C41.2,10.9,41.1,10.7,41,10.6z M35.5,35.3h-20v-20h20V35.3z"/>
		<path d="M15.5,35.3h20v-20h-20V35.3z M17.2,34.3l8.3-8.3l8.3,8.3H17.2z M34.5,33.5l-8.3-8.3l8.3-8.3V33.5z M33.8,16.3l-8.3,8.3
			l-8.3-8.3H33.8z M16.5,17l8.3,8.3l-8.3,8.3V17z"/>
	</g>
	<g>
		<g>
			<g>
				<path class="st1" d="M37.5,6.3h-26c-2.8,0-5,2.2-5,5v26c0,2.8,2.2,5,5,5h26c2.8,0,5-2.2,5-5v-26C42.5,8.5,40.3,6.3,37.5,6.3z
					 M40.5,37.3c0,1.7-1.3,3-3,3h-26c-1.6,0-3-1.3-3-3v-26c0-0.4,0.1-0.8,0.2-1.2C8.8,9.9,8.9,9.7,9,9.6C9.2,9.3,9.5,9,9.8,8.8
					c0.5-0.3,1.1-0.5,1.7-0.5h26c0.6,0,1.2,0.2,1.7,0.5C39.5,9,39.8,9.3,40,9.6c0.1,0.2,0.2,0.3,0.3,0.5c0.2,0.4,0.2,0.8,0.2,1.2
					V37.3z"/>
			</g>
			<polygon class="st2" points="16.2,33.3 32.8,33.3 24.5,25 			"/>
			<polygon class="st2" points="33.5,32.5 33.5,16 25.2,24.3 			"/>
			<polygon class="st2" points="32.8,15.3 16.2,15.3 24.5,23.5 			"/>
			<polygon class="st2" points="15.5,16 15.5,32.5 23.8,24.3 			"/>
			<path class="st2" d="M40,9.6c-0.2-0.3-0.5-0.6-0.8-0.8c-0.5-0.3-1.1-0.5-1.7-0.5h-26c-0.6,0-1.2,0.2-1.7,0.5C9.5,9,9.2,9.3,9,9.6
				c-0.1,0.2-0.2,0.3-0.3,0.5c-0.2,0.4-0.2,0.8-0.2,1.2v26c0,1.7,1.4,3,3,3h26c1.7,0,3-1.3,3-3v-26c0-0.4-0.1-0.8-0.2-1.2
				C40.2,9.9,40.1,9.7,40,9.6z M34.5,34.3h-20v-20h20V34.3z"/>
			<path class="st1" d="M14.5,34.3h20v-20h-20V34.3z M16.2,33.3l8.3-8.3l8.3,8.3H16.2z M33.5,32.5l-8.3-8.3l8.3-8.3V32.5z
				 M32.8,15.3l-8.3,8.3l-8.3-8.3H32.8z M15.5,16l8.3,8.3l-8.3,8.3V16z"/>
		</g>
	</g>
</g>
</svg>
