<?xml version="1.0" encoding="utf-8"?>
<!-- Generator: Adobe Illustrator 21.0.2, SVG Export Plug-In . SVG Version: 6.00 Build 0)  -->
<svg version="1.1" id="图层_1" xmlns="http://www.w3.org/2000/svg" xmlns:xlink="http://www.w3.org/1999/xlink" x="0px" y="0px"
	 viewBox="0 0 50 50" style="enable-background:new 0 0 50 50;" xml:space="preserve">
<style type="text/css">
	.st0{opacity:0.2;}
	.st1{fill:#FFFFFF;}
	.st2{fill:#F93E54;}
</style>
<g>
	<g class="st0">
		<path d="M29.1,29.5c0-0.3-0.2-0.5-0.5-0.5h-1c-0.3,0-0.5,0.2-0.5,0.5v2.8c0,0.1,0,0.2,0.1,0.3c0.1,0.1,0.2,0.1,0.3,0.1h1
			c0.3,0,0.5-0.2,0.5-0.5h0V29.5z"/>
		<path d="M23.9,29.5c0-0.3-0.2-0.5-0.5-0.5h-1c-0.3,0-0.5,0.2-0.5,0.5v2.8c0,0.1,0,0.2,0.1,0.3c0.1,0.1,0.2,0.1,0.3,0.1h1
			c0.3,0,0.5-0.2,0.5-0.5h0V29.5z"/>
		<path d="M26.5,25.3l0.7,0.7c0.1,0.1,0.2,0.1,0.3,0.1c0.1,0,0.2,0,0.3-0.1l2-2c0.2-0.2,0.2-0.5,0-0.6l-0.7-0.7
			c-0.1-0.1-0.2-0.1-0.3-0.1c-0.1,0-0.2,0-0.3,0.1l-2,2C26.3,24.8,26.3,25.1,26.5,25.3z"/>
		<path d="M25,21.6h1c0.3,0,0.5-0.2,0.5-0.5h0v-2.8c0-0.3-0.2-0.5-0.5-0.5h-1c-0.3,0-0.5,0.2-0.5,0.5v2.8c0,0.1,0,0.2,0.1,0.3
			C24.8,21.5,24.9,21.6,25,21.6z"/>
		<path d="M41,10.8c-0.2-0.3-0.5-0.6-0.8-0.8c-0.5-0.3-1.1-0.5-1.7-0.5h-26c-0.6,0-1.2,0.2-1.7,0.5c-0.3,0.2-0.6,0.5-0.8,0.8
			c-0.1,0.2-0.2,0.3-0.3,0.5c-0.2,0.4-0.2,0.8-0.2,1.2v26c0,1.7,1.4,3,3,3h26c1.7,0,3-1.3,3-3v-26c0-0.4-0.1-0.8-0.2-1.2
			C41.2,11.2,41.1,11,41,10.8z M33.5,35.5h-16v-20h16V35.5z"/>
		<path d="M23.3,26c0.1,0.1,0.2,0.1,0.3,0.1c0.1,0,0.2,0,0.3-0.1l0.7-0.7c0.2-0.2,0.2-0.5,0-0.6l-2-2c-0.1-0.1-0.2-0.1-0.3-0.1
			c-0.1,0-0.2,0-0.3,0.1l-0.7,0.7c-0.2,0.2-0.2,0.5,0,0.6L23.3,26z"/>
		<path d="M38.5,7.5h-26c-2.8,0-5,2.2-5,5v26c0,2.8,2.2,5,5,5h26c2.8,0,5-2.2,5-5v-26C43.5,9.7,41.3,7.5,38.5,7.5z M41.5,38.5
			c0,1.7-1.3,3-3,3h-26c-1.6,0-3-1.3-3-3v-26c0-0.4,0.1-0.8,0.2-1.2c0.1-0.2,0.2-0.3,0.3-0.5c0.2-0.3,0.5-0.6,0.8-0.8
			c0.5-0.3,1.1-0.5,1.7-0.5h26c0.6,0,1.2,0.2,1.7,0.5c0.3,0.2,0.6,0.5,0.8,0.8c0.1,0.2,0.2,0.3,0.3,0.5c0.2,0.4,0.2,0.8,0.2,1.2
			V38.5z"/>
		<path d="M17.5,35.5h16v-20h-16V35.5z M23.5,32.8h-1c-0.1,0-0.2,0-0.3-0.1c-0.1-0.1-0.1-0.2-0.1-0.3v-2.8c0-0.3,0.2-0.5,0.5-0.5h1
			c0.3,0,0.5,0.2,0.5,0.5v2.8h0C23.9,32.6,23.7,32.8,23.5,32.8z M28.6,32.8h-1c-0.1,0-0.2,0-0.3-0.1c-0.1-0.1-0.1-0.2-0.1-0.3v-2.8
			c0-0.3,0.2-0.5,0.5-0.5h1c0.3,0,0.5,0.2,0.5,0.5v2.8h0C29.1,32.6,28.9,32.8,28.6,32.8z M28.8,22.5c0.1,0,0.2,0,0.3,0.1l0.7,0.7
			c0.2,0.2,0.2,0.5,0,0.6l-2,2c-0.1,0.1-0.2,0.1-0.3,0.1c-0.1,0-0.2,0-0.3-0.1l-0.7-0.7c-0.2-0.2-0.2-0.5,0-0.6l2-2
			C28.6,22.6,28.7,22.5,28.8,22.5z M24.6,18.3c0-0.3,0.2-0.5,0.5-0.5h1c0.3,0,0.5,0.2,0.5,0.5v2.8h0c0,0.3-0.2,0.5-0.5,0.5h-1
			c-0.1,0-0.2,0-0.3-0.1c-0.1-0.1-0.1-0.2-0.1-0.3V18.3z M21.3,23.3l0.7-0.7c0.1-0.1,0.2-0.1,0.3-0.1c0.1,0,0.2,0,0.3,0.1l2,2
			c0.2,0.2,0.2,0.5,0,0.6L23.9,26c-0.1,0.1-0.2,0.1-0.3,0.1c-0.1,0-0.2,0-0.3-0.1l-2-2C21.1,23.8,21.1,23.5,21.3,23.3z"/>
	</g>
	<g>
		<g>
			<path class="st1" d="M28.1,28.5c0-0.3-0.2-0.5-0.5-0.5h-1c-0.3,0-0.5,0.2-0.5,0.5v2.8c0,0.1,0,0.2,0.1,0.3
				c0.1,0.1,0.2,0.1,0.3,0.1h1c0.3,0,0.5-0.2,0.5-0.5h0V28.5z"/>
			<path class="st1" d="M22.9,28.5c0-0.3-0.2-0.5-0.5-0.5h-1c-0.3,0-0.5,0.2-0.5,0.5v2.8c0,0.1,0,0.2,0.1,0.3
				c0.1,0.1,0.2,0.1,0.3,0.1h1c0.3,0,0.5-0.2,0.5-0.5h0V28.5z"/>
			<path class="st1" d="M25.5,24.3l0.7,0.7c0.1,0.1,0.2,0.1,0.3,0.1c0.1,0,0.2,0,0.3-0.1l2-2c0.2-0.2,0.2-0.5,0-0.6l-0.7-0.7
				c-0.1-0.1-0.2-0.1-0.3-0.1c-0.1,0-0.2,0-0.3,0.1l-2,2C25.3,23.8,25.3,24.1,25.5,24.3z"/>
			<path class="st1" d="M24,20.6h1c0.3,0,0.5-0.2,0.5-0.5h0v-2.8c0-0.3-0.2-0.5-0.5-0.5h-1c-0.3,0-0.5,0.2-0.5,0.5v2.8
				c0,0.1,0,0.2,0.1,0.3C23.8,20.5,23.9,20.6,24,20.6z"/>
			<path class="st1" d="M40,9.8c-0.2-0.3-0.5-0.6-0.8-0.8c-0.5-0.3-1.1-0.5-1.7-0.5h-26c-0.6,0-1.2,0.2-1.7,0.5
				C9.5,9.2,9.3,9.5,9,9.8c-0.1,0.2-0.2,0.3-0.3,0.5c-0.2,0.4-0.2,0.8-0.2,1.2v26c0,1.7,1.4,3,3,3h26c1.7,0,3-1.3,3-3v-26
				c0-0.4-0.1-0.8-0.2-1.2C40.2,10.2,40.1,10,40,9.8z M32.5,34.5h-16v-20h16V34.5z"/>
			<path class="st1" d="M22.3,25c0.1,0.1,0.2,0.1,0.3,0.1c0.1,0,0.2,0,0.3-0.1l0.7-0.7c0.2-0.2,0.2-0.5,0-0.6l-2-2
				c-0.1-0.1-0.2-0.1-0.3-0.1c-0.1,0-0.2,0-0.3,0.1l-0.7,0.7c-0.2,0.2-0.2,0.5,0,0.6L22.3,25z"/>
			<path class="st2" d="M37.5,6.5h-26c-2.8,0-5,2.2-5,5v26c0,2.8,2.2,5,5,5h26c2.8,0,5-2.2,5-5v-26C42.5,8.7,40.3,6.5,37.5,6.5z
				 M40.5,37.5c0,1.7-1.3,3-3,3h-26c-1.6,0-3-1.3-3-3v-26c0-0.4,0.1-0.8,0.2-1.2C8.8,10.2,8.9,10,9,9.8C9.3,9.5,9.5,9.2,9.9,9
				c0.5-0.3,1.1-0.5,1.7-0.5h26c0.6,0,1.2,0.2,1.7,0.5c0.3,0.2,0.6,0.5,0.8,0.8c0.1,0.2,0.2,0.3,0.3,0.5c0.2,0.4,0.2,0.8,0.2,1.2
				V37.5z"/>
			<path class="st2" d="M16.5,34.5h16v-20h-16V34.5z M22.5,31.8h-1c-0.1,0-0.2,0-0.3-0.1c-0.1-0.1-0.1-0.2-0.1-0.3v-2.8
				c0-0.3,0.2-0.5,0.5-0.5h1c0.3,0,0.5,0.2,0.5,0.5v2.8h0C22.9,31.6,22.7,31.8,22.5,31.8z M27.6,31.8h-1c-0.1,0-0.2,0-0.3-0.1
				c-0.1-0.1-0.1-0.2-0.1-0.3v-2.8c0-0.3,0.2-0.5,0.5-0.5h1c0.3,0,0.5,0.2,0.5,0.5v2.8h0C28.1,31.6,27.9,31.8,27.6,31.8z M27.8,21.5
				c0.1,0,0.2,0,0.3,0.1l0.7,0.7c0.2,0.2,0.2,0.5,0,0.6l-2,2c-0.1,0.1-0.2,0.1-0.3,0.1c-0.1,0-0.2,0-0.3-0.1l-0.7-0.7
				c-0.2-0.2-0.2-0.5,0-0.6l2-2C27.6,21.6,27.7,21.5,27.8,21.5z M23.6,17.3c0-0.3,0.2-0.5,0.5-0.5h1c0.3,0,0.5,0.2,0.5,0.5v2.8h0
				c0,0.3-0.2,0.5-0.5,0.5h-1c-0.1,0-0.2,0-0.3-0.1c-0.1-0.1-0.1-0.2-0.1-0.3V17.3z M20.3,22.3l0.7-0.7c0.1-0.1,0.2-0.1,0.3-0.1
				c0.1,0,0.2,0,0.3,0.1l2,2c0.2,0.2,0.2,0.5,0,0.6L22.9,25c-0.1,0.1-0.2,0.1-0.3,0.1c-0.1,0-0.2,0-0.3-0.1l-2-2
				C20.1,22.8,20.1,22.5,20.3,22.3z"/>
		</g>
	</g>
</g>
</svg>
