<?xml version="1.0" encoding="utf-8"?>
<!-- Generator: Adobe Illustrator 21.0.2, SVG Export Plug-In . SVG Version: 6.00 Build 0)  -->
<svg version="1.1" id="图层_1" xmlns="http://www.w3.org/2000/svg" xmlns:xlink="http://www.w3.org/1999/xlink" x="0px" y="0px"
	 viewBox="0 0 50 50" style="enable-background:new 0 0 50 50;" xml:space="preserve">
<style type="text/css">
	.st0{opacity:0.2;}
	.st1{fill:#00A0E9;}
	.st2{fill:#FFFFFF;}
</style>
<g>
	<g class="st0">
		<path d="M38.5,7.3h-26c-2.8,0-5,2.2-5,5v26c0,2.8,2.2,5,5,5h26c2.8,0,5-2.2,5-5v-26C43.5,9.5,41.3,7.3,38.5,7.3z M41.5,38.3
			c0,1.7-1.3,3-3,3h-26c-1.6,0-3-1.3-3-3v-26c0-0.4,0.1-0.8,0.2-1.2c0.1-0.2,0.2-0.3,0.3-0.5c0.2-0.3,0.5-0.6,0.8-0.8
			c0.5-0.3,1.1-0.5,1.7-0.5h26c0.6,0,1.2,0.2,1.7,0.5c0.3,0.2,0.6,0.5,0.8,0.8c0.1,0.2,0.2,0.3,0.3,0.5c0.2,0.4,0.2,0.8,0.2,1.2
			V38.3z"/>
		<polygon points="20,22.9 21.9,22.9 21.9,28.8 23.3,28.8 23.3,22.9 25.1,22.9 25.1,21.7 20,21.7 		"/>
		<path d="M17.9,24.7l-0.8-0.1c-0.3,0-0.5-0.1-0.7-0.3c-0.1-0.1-0.2-0.3-0.2-0.5c0-0.5,0.4-0.9,1.1-0.9c0.5,0,1,0.1,1.5,0.5l0.9-0.9
			c-0.6-0.6-1.3-0.8-2.3-0.8c-1.5,0-2.5,0.9-2.5,2.2c0,0.6,0.2,1.1,0.5,1.4c0.3,0.3,0.8,0.5,1.4,0.6l0.9,0.1c0.3,0,0.5,0.1,0.6,0.2
			c0.1,0.1,0.2,0.4,0.2,0.6c0,0.6-0.4,0.9-1.3,0.9c-0.7,0-1.3-0.1-1.7-0.6l-0.9,0.9c0.7,0.7,1.5,0.9,2.6,0.9c1.5,0,2.6-0.8,2.6-2.2
			c0-0.6-0.2-1.1-0.5-1.5C19,24.9,18.6,24.7,17.9,24.7z"/>
		<path d="M41,10.6c-0.2-0.3-0.5-0.6-0.8-0.8c-0.5-0.3-1.1-0.5-1.7-0.5h-26c-0.6,0-1.2,0.2-1.7,0.5c-0.3,0.2-0.6,0.5-0.8,0.8
			c-0.1,0.2-0.2,0.3-0.3,0.5c-0.2,0.4-0.2,0.8-0.2,1.2v26c0,1.7,1.4,3,3,3h26c1.7,0,3-1.3,3-3v-26c0-0.4-0.1-0.8-0.2-1.2
			C41.2,10.9,41.1,10.7,41,10.6z M37.5,29.8l-7,6.4h-9.9l-7-6.4v-9.1l7-6.4h9.9l7,6.4V29.8z"/>
		<path d="M27.8,21.6c-0.8,0-1.4,0.3-1.9,0.8c-0.7,0.7-0.7,1.6-0.7,2.8s0,2.1,0.7,2.8c0.5,0.5,1.1,0.8,1.9,0.8s1.4-0.3,1.9-0.8
			c0.7-0.7,0.7-1.6,0.7-2.8s0-2.1-0.7-2.8C29.3,21.9,28.7,21.6,27.8,21.6z M28.7,27.2c-0.2,0.2-0.5,0.4-0.9,0.4
			c-0.4,0-0.7-0.1-0.9-0.4c-0.3-0.3-0.3-0.6-0.3-2s0.1-1.7,0.3-2c0.2-0.2,0.5-0.4,0.9-0.4c0.4,0,0.7,0.1,0.9,0.4
			c0.3,0.3,0.4,0.6,0.4,2S29,26.9,28.7,27.2z"/>
		<path d="M32.7,26.1h1.4c1.5,0,2.3-1,2.3-2.2c0-1.2-0.9-2.2-2.3-2.2h-2.8v7.1h1.4V26.1z M32.7,22.9H34c0.6,0,1,0.4,1,1s-0.4,1-1,1
			h-1.3V22.9z"/>
		<path d="M35,23.9c0-0.6-0.4-1-1-1h-1.3v1.9H34C34.6,24.9,35,24.5,35,23.9z"/>
		<path d="M27.8,22.9c-0.4,0-0.7,0.1-0.9,0.4c-0.3,0.3-0.3,0.6-0.3,2s0.1,1.7,0.3,2c0.2,0.2,0.5,0.4,0.9,0.4c0.4,0,0.7-0.1,0.9-0.4
			c0.3-0.3,0.4-0.6,0.4-2s-0.1-1.7-0.4-2C28.5,23,28.2,22.9,27.8,22.9z"/>
		<path d="M20.5,14.3l-7,6.4v9.1l7,6.4h9.9l7-6.4v-9.1l-7-6.4H20.5z M17.2,28.9c-1.1,0-1.9-0.2-2.6-0.9l0.9-0.9
			c0.4,0.4,1.1,0.6,1.7,0.6c0.8,0,1.3-0.3,1.3-0.9c0-0.2-0.1-0.5-0.2-0.6c-0.1-0.1-0.3-0.2-0.6-0.2l-0.9-0.1
			c-0.6-0.1-1.1-0.3-1.4-0.6c-0.3-0.3-0.5-0.8-0.5-1.4c0-1.3,0.9-2.2,2.5-2.2c1,0,1.7,0.2,2.3,0.8l-0.9,0.9c-0.4-0.4-1-0.5-1.5-0.5
			c-0.7,0-1.1,0.4-1.1,0.9c0,0.2,0.1,0.4,0.2,0.5c0.1,0.1,0.4,0.2,0.7,0.3l0.8,0.1c0.6,0.1,1.1,0.3,1.4,0.5c0.4,0.4,0.5,0.9,0.5,1.5
			C19.8,28.1,18.7,28.9,17.2,28.9z M25.1,22.9h-1.9v5.9h-1.4v-5.9H20v-1.2h5.1V22.9z M31.3,21.7h2.8c1.5,0,2.3,1,2.3,2.2
			c0,1.2-0.9,2.2-2.3,2.2h-1.4v2.7h-1.4V21.7z M29.8,28.1c-0.5,0.5-1.1,0.8-1.9,0.8s-1.4-0.3-1.9-0.8c-0.7-0.7-0.7-1.6-0.7-2.8
			s0-2.1,0.7-2.8c0.5-0.5,1.1-0.8,1.9-0.8s1.4,0.3,1.9,0.8c0.7,0.7,0.7,1.6,0.7,2.8S30.5,27.4,29.8,28.1z"/>
	</g>
	<g>
		<g>
			<g>
				<path class="st1" d="M37.5,6.3h-26c-2.8,0-5,2.2-5,5v26c0,2.8,2.2,5,5,5h26c2.8,0,5-2.2,5-5v-26C42.5,8.5,40.3,6.3,37.5,6.3z
					 M40.5,37.3c0,1.7-1.3,3-3,3h-26c-1.6,0-3-1.3-3-3v-26c0-0.4,0.1-0.8,0.2-1.2C8.8,9.9,8.9,9.7,9,9.6C9.2,9.3,9.5,9,9.8,8.8
					c0.5-0.3,1.1-0.5,1.7-0.5h26c0.6,0,1.2,0.2,1.7,0.5C39.5,9,39.8,9.3,40,9.6c0.1,0.2,0.2,0.3,0.3,0.5c0.2,0.4,0.2,0.8,0.2,1.2
					V37.3z"/>
			</g>
			<polygon class="st2" points="19,21.9 20.9,21.9 20.9,27.8 22.3,27.8 22.3,21.9 24.1,21.9 24.1,20.7 19,20.7 			"/>
			<path class="st2" d="M16.9,23.7l-0.8-0.1c-0.3,0-0.5-0.1-0.7-0.3c-0.1-0.1-0.2-0.3-0.2-0.5c0-0.5,0.4-0.9,1.1-0.9
				c0.5,0,1,0.1,1.5,0.5l0.9-0.9c-0.6-0.6-1.3-0.8-2.3-0.8c-1.5,0-2.5,0.9-2.5,2.2c0,0.6,0.2,1.1,0.5,1.4c0.3,0.3,0.8,0.5,1.4,0.6
				l0.9,0.1c0.3,0,0.5,0.1,0.6,0.2c0.1,0.1,0.2,0.4,0.2,0.6c0,0.6-0.4,0.9-1.3,0.9c-0.7,0-1.3-0.1-1.7-0.6l-0.9,0.9
				c0.7,0.7,1.5,0.9,2.6,0.9c1.5,0,2.6-0.8,2.6-2.2c0-0.6-0.2-1.1-0.5-1.5C18,23.9,17.6,23.7,16.9,23.7z"/>
			<path class="st2" d="M40,9.6c-0.2-0.3-0.5-0.6-0.8-0.8c-0.5-0.3-1.1-0.5-1.7-0.5h-26c-0.6,0-1.2,0.2-1.7,0.5C9.5,9,9.2,9.3,9,9.6
				c-0.1,0.2-0.2,0.3-0.3,0.5c-0.2,0.4-0.2,0.8-0.2,1.2v26c0,1.7,1.4,3,3,3h26c1.7,0,3-1.3,3-3v-26c0-0.4-0.1-0.8-0.2-1.2
				C40.2,9.9,40.1,9.7,40,9.6z M36.5,28.8l-7,6.4h-9.9l-7-6.4v-9.1l7-6.4h9.9l7,6.4V28.8z"/>
			<path class="st2" d="M26.8,20.6c-0.8,0-1.4,0.3-1.9,0.8c-0.7,0.7-0.7,1.6-0.7,2.8s0,2.1,0.7,2.8c0.5,0.5,1.1,0.8,1.9,0.8
				s1.4-0.3,1.9-0.8c0.7-0.7,0.7-1.6,0.7-2.8s0-2.1-0.7-2.8C28.3,20.9,27.7,20.6,26.8,20.6z M27.7,26.2c-0.2,0.2-0.5,0.4-0.9,0.4
				c-0.4,0-0.7-0.1-0.9-0.4c-0.3-0.3-0.3-0.6-0.3-2s0.1-1.7,0.3-2c0.2-0.2,0.5-0.4,0.9-0.4c0.4,0,0.7,0.1,0.9,0.4
				c0.3,0.3,0.4,0.6,0.4,2S28,25.9,27.7,26.2z"/>
			<path class="st2" d="M31.7,25.1h1.4c1.5,0,2.3-1,2.3-2.2c0-1.2-0.9-2.2-2.3-2.2h-2.8v7.1h1.4V25.1z M31.7,21.9H33
				c0.6,0,1,0.4,1,1s-0.4,1-1,1h-1.3V21.9z"/>
			<path class="st1" d="M34,22.9c0-0.6-0.4-1-1-1h-1.3v1.9H33C33.6,23.9,34,23.5,34,22.9z"/>
			<path class="st1" d="M26.8,21.9c-0.4,0-0.7,0.1-0.9,0.4c-0.3,0.3-0.3,0.6-0.3,2s0.1,1.7,0.3,2c0.2,0.2,0.5,0.4,0.9,0.4
				c0.4,0,0.7-0.1,0.9-0.4c0.3-0.3,0.4-0.6,0.4-2s-0.1-1.7-0.4-2C27.5,22,27.2,21.9,26.8,21.9z"/>
			<path class="st1" d="M19.5,13.3l-7,6.4v9.1l7,6.4h9.9l7-6.4v-9.1l-7-6.4H19.5z M16.2,27.9c-1.1,0-1.9-0.2-2.6-0.9l0.9-0.9
				c0.4,0.4,1.1,0.6,1.7,0.6c0.8,0,1.3-0.3,1.3-0.9c0-0.2-0.1-0.5-0.2-0.6c-0.1-0.1-0.3-0.2-0.6-0.2l-0.9-0.1
				c-0.6-0.1-1.1-0.3-1.4-0.6c-0.3-0.3-0.5-0.8-0.5-1.4c0-1.3,0.9-2.2,2.5-2.2c1,0,1.7,0.2,2.3,0.8l-0.9,0.9c-0.4-0.4-1-0.5-1.5-0.5
				c-0.7,0-1.1,0.4-1.1,0.9c0,0.2,0.1,0.4,0.2,0.5c0.1,0.1,0.4,0.2,0.7,0.3l0.8,0.1c0.6,0.1,1.1,0.3,1.4,0.5
				c0.4,0.4,0.5,0.9,0.5,1.5C18.8,27.1,17.7,27.9,16.2,27.9z M24.1,21.9h-1.9v5.9h-1.4v-5.9H19v-1.2h5.1V21.9z M30.3,20.7h2.8
				c1.5,0,2.3,1,2.3,2.2c0,1.2-0.9,2.2-2.3,2.2h-1.4v2.7h-1.4V20.7z M28.8,27.1c-0.5,0.5-1.1,0.8-1.9,0.8s-1.4-0.3-1.9-0.8
				c-0.7-0.7-0.7-1.6-0.7-2.8s0-2.1,0.7-2.8c0.5-0.5,1.1-0.8,1.9-0.8s1.4,0.3,1.9,0.8c0.7,0.7,0.7,1.6,0.7,2.8S29.5,26.4,28.8,27.1z
				"/>
		</g>
	</g>
</g>
</svg>
