<?xml version="1.0" encoding="utf-8"?>
<!-- Generator: Adobe Illustrator 21.0.2, SVG Export Plug-In . SVG Version: 6.00 Build 0)  -->
<svg version="1.1" id="图层_1" xmlns="http://www.w3.org/2000/svg" xmlns:xlink="http://www.w3.org/1999/xlink" x="0px" y="0px"
	 viewBox="0 0 50 50" style="enable-background:new 0 0 50 50;" xml:space="preserve">
<style type="text/css">
	.st0{opacity:0.2;}
	.st1{fill:#FFFFFF;}
	.st2{fill:#F93E54;}
</style>
<g>
	<g class="st0">
		<path d="M25.5,15.5c-5.5,0-10,4.5-10,10c0,5.5,4.5,10,10,10s10-4.5,10-10C35.5,20,31,15.5,25.5,15.5z M24.8,19.7
			c0.6,0.4,1.2,0.8,1.8,1.2l-0.3,0.5c-0.5-0.5-1-0.9-1.8-1.3L24.8,19.7z M20.3,21.6c0.2,0,0.4,0.1,0.7,0.1h9c0.3,0,0.6,0,0.7-0.1
			v0.5c-0.2,0-0.4-0.1-0.7-0.1h-9c-0.3,0-0.5,0-0.7,0.1V21.6z M30.1,24.6l-0.4,0.5c-0.8-0.7-1.8-1.3-2.9-1.9l0.3-0.5
			c0.5,0.3,1.3,0.8,2.3,1.4C29.7,24.3,30,24.5,30.1,24.6z M24.4,23c-0.3,0.1-0.6,0.3-1,0.6c-0.1,0.1-0.2,0.2-0.3,0.3
			c-0.5,0.5-0.9,0.8-1.2,1c-0.1,0.1-0.3,0.2-0.4,0.4c-0.1,0.1-0.2,0.2-0.3,0.3c-0.2-0.2-0.4-0.3-0.6-0.5c1-0.4,2-1.3,3.2-2.6
			C23.9,22.7,24.1,22.9,24.4,23z M30.4,30.3c-2-0.6-3.5-1.3-4.7-2.3c-1.1,1.2-2.8,2-5.1,2.6c0,0,0,0,0-0.1c-0.1-0.1-0.2-0.3-0.4-0.6
			c2.1-0.1,3.8-0.9,5.2-2.3c-0.6-0.6-1.1-1.3-1.7-2.1c-0.3-0.4-0.5-0.6-0.6-0.7c0.2-0.1,0.5-0.2,0.7-0.3c0.4,0.9,1.1,1.8,2,2.7
			c0.9-1.2,1.4-2.2,1.6-3c0.2,0.1,0.5,0.2,0.8,0.3c-0.3,0.2-0.5,0.5-0.8,1c-0.2,0.4-0.6,1.1-1.2,2c1.3,1.1,2.9,1.8,4.8,2
			C30.7,29.8,30.6,30,30.4,30.3z"/>
		<path d="M38.5,9.5h-26c-1.7,0-3,1.4-3,3v26c0,1.7,1.3,3,3,3h26c1.6,0,3-1.3,3-3v-26C41.5,10.9,40.1,9.5,38.5,9.5z M25.5,36.5
			c-6.1,0-11-4.9-11-11s4.9-11,11-11s11,4.9,11,11S31.6,36.5,25.5,36.5z"/>
		<path d="M38.5,7.5h-26c-2.8,0-5,2.2-5,5v26c0,2.8,2.2,5,5,5h26c2.8,0,5-2.2,5-5v-26C43.5,9.7,41.3,7.5,38.5,7.5z M41.5,38.5
			c0,1.7-1.4,3-3,3h-26c-1.7,0-3-1.3-3-3v-26c0-1.6,1.3-3,3-3h26c1.6,0,3,1.4,3,3V38.5z"/>
		<path d="M25.5,14.5c-6.1,0-11,4.9-11,11s4.9,11,11,11s11-4.9,11-11S31.6,14.5,25.5,14.5z M25.5,35.5c-5.5,0-10-4.5-10-10
			c0-5.5,4.5-10,10-10s10,4.5,10,10C35.5,31,31,35.5,25.5,35.5z"/>
		<path d="M27.1,22.7l-0.3,0.5c1.2,0.6,2.2,1.2,2.9,1.9l0.4-0.5c-0.1-0.1-0.4-0.2-0.7-0.4C28.4,23.5,27.6,23,27.1,22.7z"/>
		<path d="M20.6,25.1c0.2,0.2,0.4,0.3,0.6,0.5c0.1-0.1,0.2-0.1,0.3-0.3c0.2-0.2,0.3-0.3,0.4-0.4c0.3-0.2,0.7-0.6,1.2-1
			c0.1-0.1,0.3-0.2,0.3-0.3c0.3-0.3,0.6-0.5,1-0.6c-0.2-0.2-0.4-0.4-0.6-0.6C22.6,23.9,21.5,24.8,20.6,25.1z"/>
		<path d="M27.3,25.7c0.2-0.5,0.5-0.8,0.8-1c-0.3-0.1-0.5-0.2-0.8-0.3c-0.2,0.8-0.7,1.8-1.6,3c-0.9-0.9-1.5-1.8-2-2.7
			c-0.2,0.1-0.5,0.2-0.7,0.3c0.2,0.1,0.4,0.4,0.6,0.7c0.5,0.8,1.1,1.5,1.7,2.1c-1.4,1.4-3.1,2.2-5.2,2.3c0.2,0.2,0.3,0.4,0.4,0.6
			c0,0,0,0.1,0,0.1c2.3-0.5,4-1.4,5.1-2.6c1.1,1,2.7,1.7,4.7,2.3c0.2-0.3,0.3-0.5,0.5-0.6c-1.9-0.2-3.5-0.9-4.8-2
			C26.7,26.8,27.1,26.1,27.3,25.7z"/>
		<path d="M26.6,20.9c-0.5-0.4-1.1-0.8-1.8-1.2l-0.3,0.5c0.7,0.4,1.3,0.8,1.8,1.3L26.6,20.9z"/>
		<path d="M30,22.1c0.3,0,0.5,0,0.7,0.1v-0.5c-0.2,0-0.4,0.1-0.7,0.1h-9c-0.3,0-0.5,0-0.7-0.1v0.5c0.2,0,0.4-0.1,0.7-0.1H30z"/>
	</g>
	<g>
		<g>
			<path class="st1" d="M24.5,14.5c-5.5,0-10,4.5-10,10c0,5.5,4.5,10,10,10s10-4.5,10-10C34.5,19,30,14.5,24.5,14.5z M23.8,18.7
				c0.6,0.4,1.2,0.8,1.8,1.2l-0.3,0.5c-0.5-0.5-1-0.9-1.8-1.3L23.8,18.7z M19.3,20.6c0.2,0,0.4,0.1,0.7,0.1h9c0.3,0,0.6,0,0.7-0.1
				v0.5c-0.2,0-0.4-0.1-0.7-0.1h-9c-0.3,0-0.5,0-0.7,0.1V20.6z M29.1,23.6l-0.4,0.5c-0.8-0.7-1.8-1.3-2.9-1.9l0.3-0.5
				c0.5,0.3,1.3,0.8,2.3,1.4C28.7,23.3,29,23.5,29.1,23.6z M23.4,22c-0.3,0.1-0.6,0.3-1,0.6c-0.1,0.1-0.2,0.2-0.3,0.3
				c-0.5,0.5-0.9,0.8-1.2,1c-0.1,0.1-0.3,0.2-0.4,0.4c-0.1,0.1-0.2,0.2-0.3,0.3c-0.2-0.2-0.4-0.3-0.6-0.5c1-0.4,2-1.3,3.2-2.6
				C22.9,21.7,23.1,21.9,23.4,22z M29.4,29.3c-2-0.6-3.5-1.3-4.7-2.3c-1.1,1.2-2.8,2-5.1,2.6c0,0,0,0,0-0.1
				c-0.1-0.1-0.2-0.3-0.4-0.6c2.1-0.1,3.8-0.9,5.2-2.3c-0.6-0.6-1.1-1.3-1.7-2.1c-0.3-0.4-0.5-0.6-0.6-0.7c0.2-0.1,0.5-0.2,0.7-0.3
				c0.4,0.9,1.1,1.8,2,2.7c0.9-1.2,1.4-2.2,1.6-3c0.2,0.1,0.5,0.2,0.8,0.3c-0.3,0.2-0.5,0.5-0.8,1c-0.2,0.4-0.6,1.1-1.2,2
				c1.3,1.1,2.9,1.8,4.8,2C29.7,28.8,29.6,29,29.4,29.3z"/>
			<path class="st1" d="M37.5,8.5h-26c-1.7,0-3,1.4-3,3v26c0,1.7,1.3,3,3,3h26c1.6,0,3-1.3,3-3v-26C40.5,9.9,39.1,8.5,37.5,8.5z
				 M24.5,35.5c-6.1,0-11-4.9-11-11s4.9-11,11-11s11,4.9,11,11S30.6,35.5,24.5,35.5z"/>
			<path class="st2" d="M37.5,6.5h-26c-2.8,0-5,2.2-5,5v26c0,2.8,2.2,5,5,5h26c2.8,0,5-2.2,5-5v-26C42.5,8.7,40.3,6.5,37.5,6.5z
				 M40.5,37.5c0,1.7-1.4,3-3,3h-26c-1.7,0-3-1.3-3-3v-26c0-1.6,1.3-3,3-3h26c1.6,0,3,1.4,3,3V37.5z"/>
			<path class="st2" d="M24.5,13.5c-6.1,0-11,4.9-11,11s4.9,11,11,11s11-4.9,11-11S30.6,13.5,24.5,13.5z M24.5,34.5
				c-5.5,0-10-4.5-10-10c0-5.5,4.5-10,10-10s10,4.5,10,10C34.5,30,30,34.5,24.5,34.5z"/>
			<path class="st2" d="M26.1,21.7l-0.3,0.5c1.2,0.6,2.2,1.2,2.9,1.9l0.4-0.5c-0.1-0.1-0.4-0.2-0.7-0.4C27.4,22.5,26.6,22,26.1,21.7
				z"/>
			<path class="st2" d="M19.6,24.1c0.2,0.2,0.4,0.3,0.6,0.5c0.1-0.1,0.2-0.1,0.3-0.3c0.2-0.2,0.3-0.3,0.4-0.4c0.3-0.2,0.7-0.6,1.2-1
				c0.1-0.1,0.3-0.2,0.3-0.3c0.3-0.3,0.6-0.5,1-0.6c-0.2-0.2-0.4-0.4-0.6-0.6C21.6,22.9,20.5,23.8,19.6,24.1z"/>
			<path class="st2" d="M26.3,24.7c0.2-0.5,0.5-0.8,0.8-1c-0.3-0.1-0.5-0.2-0.8-0.3c-0.2,0.8-0.7,1.8-1.6,3c-0.9-0.9-1.5-1.8-2-2.7
				c-0.2,0.1-0.5,0.2-0.7,0.3c0.2,0.1,0.4,0.4,0.6,0.7c0.5,0.8,1.1,1.5,1.7,2.1c-1.4,1.4-3.1,2.2-5.2,2.3c0.2,0.2,0.3,0.4,0.4,0.6
				c0,0,0,0.1,0,0.1c2.3-0.5,4-1.4,5.1-2.6c1.1,1,2.7,1.7,4.7,2.3c0.2-0.3,0.3-0.5,0.5-0.6c-1.9-0.2-3.5-0.9-4.8-2
				C25.7,25.8,26.1,25.1,26.3,24.7z"/>
			<path class="st2" d="M25.6,19.9c-0.5-0.4-1.1-0.8-1.8-1.2l-0.3,0.5c0.7,0.4,1.3,0.8,1.8,1.3L25.6,19.9z"/>
			<path class="st2" d="M29,21.1c0.3,0,0.5,0,0.7,0.1v-0.5c-0.2,0-0.4,0.1-0.7,0.1h-9c-0.3,0-0.5,0-0.7-0.1v0.5
				c0.2,0,0.4-0.1,0.7-0.1H29z"/>
		</g>
	</g>
</g>
</svg>
