<?xml version="1.0" encoding="utf-8"?>
<!-- Generator: Adobe Illustrator 21.0.2, SVG Export Plug-In . SVG Version: 6.00 Build 0)  -->
<svg version="1.1" id="图层_1" xmlns="http://www.w3.org/2000/svg" xmlns:xlink="http://www.w3.org/1999/xlink" x="0px" y="0px"
	 viewBox="0 0 50 50" style="enable-background:new 0 0 50 50;" xml:space="preserve">
<style type="text/css">
	.st0{opacity:0.2;}
	.st1{fill:#FFFFFF;}
	.st2{fill:#F93E54;}
</style>
<g>
	<g class="st0">
		<circle cx="19.5" cy="25.5" r="4"/>
		<path d="M38.5,9.5h-26c-0.4,0-0.8,0.1-1.2,0.2C11.2,9.8,11,9.9,10.8,10c-0.3,0.2-0.6,0.5-0.8,0.8c-0.3,0.5-0.5,1.1-0.5,1.7v26
			c0,0.6,0.2,1.2,0.5,1.7c0.2,0.3,0.5,0.6,0.8,0.8c0.2,0.1,0.3,0.2,0.5,0.3c0.4,0.2,0.8,0.2,1.2,0.2h26c1.7,0,3-1.3,3-3v-26
			C41.5,10.9,40.2,9.5,38.5,9.5z M31.4,19.7c0.6,0.4,1.2,0.8,1.8,1.2l-0.3,0.5c-0.5-0.5-1-0.9-1.8-1.3L31.4,19.7z M26.8,21.6
			c0.2,0,0.4,0.1,0.7,0.1h9c0.3,0,0.6,0,0.7-0.1v0.5c-0.2,0-0.4-0.1-0.7-0.1h-9c-0.3,0-0.5,0-0.7,0.1V21.6z M36.6,24.6l-0.4,0.5
			c-0.8-0.7-1.8-1.3-2.9-1.9l0.3-0.5c0.5,0.3,1.3,0.8,2.3,1.4C36.2,24.3,36.5,24.5,36.6,24.6z M30.9,23c-0.3,0.1-0.6,0.3-1,0.6
			c-0.1,0.1-0.2,0.2-0.3,0.3c-0.5,0.5-0.9,0.8-1.2,1c-0.1,0.1-0.3,0.2-0.4,0.4c-0.1,0.1-0.2,0.2-0.3,0.3c-0.2-0.2-0.4-0.3-0.6-0.5
			c1-0.4,2-1.3,3.2-2.6C30.5,22.7,30.6,22.9,30.9,23z M19.5,30.5c-2.8,0-5-2.2-5-5s2.2-5,5-5s5,2.2,5,5S22.3,30.5,19.5,30.5z
			 M36.9,30.3c-2-0.6-3.5-1.3-4.7-2.3c-1.1,1.2-2.8,2-5.1,2.6c0,0,0,0,0-0.1c-0.1-0.1-0.2-0.3-0.4-0.6c2.1-0.1,3.8-0.9,5.2-2.3
			c-0.6-0.6-1.1-1.3-1.7-2.1c-0.3-0.4-0.5-0.6-0.6-0.7c0.2-0.1,0.5-0.2,0.7-0.3c0.4,0.9,1.1,1.8,2,2.7c0.9-1.2,1.4-2.2,1.6-3
			c0.2,0.1,0.5,0.2,0.8,0.3c-0.3,0.2-0.5,0.5-0.8,1c-0.2,0.4-0.6,1.1-1.2,2c1.3,1.1,2.9,1.8,4.8,2C37.2,29.8,37.1,30,36.9,30.3z"/>
		<path d="M38.5,7.5h-26c-2.8,0-5,2.2-5,5v26c0,2.8,2.2,5,5,5h26c2.8,0,5-2.2,5-5v-26C43.5,9.7,41.3,7.5,38.5,7.5z M41.5,38.5
			c0,1.7-1.3,3-3,3h-26c-0.4,0-0.8-0.1-1.2-0.2c-0.2-0.1-0.3-0.2-0.5-0.3c-0.3-0.2-0.6-0.5-0.8-0.8c-0.3-0.5-0.5-1.1-0.5-1.7v-26
			c0-0.6,0.2-1.2,0.5-1.7c0.2-0.3,0.5-0.6,0.8-0.8c0.2-0.1,0.3-0.2,0.5-0.3c0.4-0.2,0.8-0.2,1.2-0.2h26c1.7,0,3,1.4,3,3V38.5z"/>
		<path d="M19.5,20.5c-2.8,0-5,2.2-5,5s2.2,5,5,5s5-2.2,5-5S22.3,20.5,19.5,20.5z M19.5,29.5c-2.2,0-4-1.8-4-4c0-2.2,1.8-4,4-4
			c2.2,0,4,1.8,4,4C23.5,27.7,21.7,29.5,19.5,29.5z"/>
		<path d="M33.8,25.7c0.2-0.5,0.5-0.8,0.8-1c-0.3-0.1-0.5-0.2-0.8-0.3c-0.2,0.8-0.7,1.8-1.6,3c-0.9-0.9-1.5-1.8-2-2.7
			c-0.2,0.1-0.5,0.2-0.7,0.3c0.2,0.1,0.4,0.4,0.6,0.7c0.5,0.8,1.1,1.5,1.7,2.1c-1.4,1.4-3.1,2.2-5.2,2.3c0.2,0.2,0.3,0.4,0.4,0.6
			c0,0,0,0.1,0,0.1c2.3-0.5,4-1.4,5.1-2.6c1.1,1,2.7,1.7,4.7,2.3c0.2-0.3,0.3-0.5,0.5-0.6c-1.9-0.2-3.5-0.9-4.8-2
			C33.2,26.8,33.6,26.1,33.8,25.7z"/>
		<path d="M27.1,25.1c0.2,0.2,0.4,0.3,0.6,0.5c0.1-0.1,0.2-0.1,0.3-0.3c0.2-0.2,0.3-0.3,0.4-0.4c0.3-0.2,0.7-0.6,1.2-1
			c0.1-0.1,0.3-0.2,0.3-0.3c0.3-0.3,0.6-0.5,1-0.6c-0.2-0.2-0.4-0.4-0.6-0.6C29.1,23.9,28,24.8,27.1,25.1z"/>
		<path d="M33.1,20.9c-0.5-0.4-1.1-0.8-1.8-1.2L31,20.1c0.7,0.4,1.3,0.8,1.8,1.3L33.1,20.9z"/>
		<path d="M36.5,22.1c0.3,0,0.5,0,0.7,0.1v-0.5c-0.2,0-0.4,0.1-0.7,0.1h-9c-0.3,0-0.5,0-0.7-0.1v0.5c0.2,0,0.4-0.1,0.7-0.1H36.5z"/>
		<path d="M33.6,22.7l-0.3,0.5c1.2,0.6,2.2,1.2,2.9,1.9l0.4-0.5c-0.1-0.1-0.4-0.2-0.7-0.4C34.9,23.5,34.1,23,33.6,22.7z"/>
	</g>
	<g>
		<g>
			<circle class="st1" cx="18.5" cy="24.5" r="4"/>
			<path class="st1" d="M37.5,8.5h-26c-0.4,0-0.8,0.1-1.2,0.2C10.2,8.8,10,8.9,9.8,9C9.5,9.2,9.2,9.5,9,9.8
				c-0.3,0.5-0.5,1.1-0.5,1.7v26c0,0.6,0.2,1.2,0.5,1.7c0.2,0.3,0.5,0.6,0.8,0.8c0.2,0.1,0.3,0.2,0.5,0.3c0.4,0.2,0.8,0.2,1.2,0.2
				h26c1.7,0,3-1.3,3-3v-26C40.5,9.9,39.2,8.5,37.5,8.5z M30.4,18.7c0.6,0.4,1.2,0.8,1.8,1.2l-0.3,0.5c-0.5-0.5-1-0.9-1.8-1.3
				L30.4,18.7z M25.8,20.6c0.2,0,0.4,0.1,0.7,0.1h9c0.3,0,0.6,0,0.7-0.1v0.5c-0.2,0-0.4-0.1-0.7-0.1h-9c-0.3,0-0.5,0-0.7,0.1V20.6z
				 M35.6,23.6l-0.4,0.5c-0.8-0.7-1.8-1.3-2.9-1.9l0.3-0.5c0.5,0.3,1.3,0.8,2.3,1.4C35.2,23.3,35.5,23.5,35.6,23.6z M29.9,22
				c-0.3,0.1-0.6,0.3-1,0.6c-0.1,0.1-0.2,0.2-0.3,0.3c-0.5,0.5-0.9,0.8-1.2,1c-0.1,0.1-0.3,0.2-0.4,0.4c-0.1,0.1-0.2,0.2-0.3,0.3
				c-0.2-0.2-0.4-0.3-0.6-0.5c1-0.4,2-1.3,3.2-2.6C29.5,21.7,29.6,21.9,29.9,22z M18.5,29.5c-2.8,0-5-2.2-5-5s2.2-5,5-5s5,2.2,5,5
				S21.3,29.5,18.5,29.5z M35.9,29.3c-2-0.6-3.5-1.3-4.7-2.3c-1.1,1.2-2.8,2-5.1,2.6c0,0,0,0,0-0.1c-0.1-0.1-0.2-0.3-0.4-0.6
				c2.1-0.1,3.8-0.9,5.2-2.3c-0.6-0.6-1.1-1.3-1.7-2.1c-0.3-0.4-0.5-0.6-0.6-0.7c0.2-0.1,0.5-0.2,0.7-0.3c0.4,0.9,1.1,1.8,2,2.7
				c0.9-1.2,1.4-2.2,1.6-3c0.2,0.1,0.5,0.2,0.8,0.3c-0.3,0.2-0.5,0.5-0.8,1c-0.2,0.4-0.6,1.1-1.2,2c1.3,1.1,2.9,1.8,4.8,2
				C36.2,28.8,36.1,29,35.9,29.3z"/>
			<path class="st2" d="M37.5,6.5h-26c-2.8,0-5,2.2-5,5v26c0,2.8,2.2,5,5,5h26c2.8,0,5-2.2,5-5v-26C42.5,8.7,40.3,6.5,37.5,6.5z
				 M40.5,37.5c0,1.7-1.3,3-3,3h-26c-0.4,0-0.8-0.1-1.2-0.2c-0.2-0.1-0.3-0.2-0.5-0.3c-0.3-0.2-0.6-0.5-0.8-0.8
				c-0.3-0.5-0.5-1.1-0.5-1.7v-26c0-0.6,0.2-1.2,0.5-1.7C9.2,9.5,9.5,9.2,9.8,9c0.2-0.1,0.3-0.2,0.5-0.3c0.4-0.2,0.8-0.2,1.2-0.2h26
				c1.7,0,3,1.4,3,3V37.5z"/>
			<path class="st2" d="M18.5,19.5c-2.8,0-5,2.2-5,5s2.2,5,5,5s5-2.2,5-5S21.3,19.5,18.5,19.5z M18.5,28.5c-2.2,0-4-1.8-4-4
				c0-2.2,1.8-4,4-4c2.2,0,4,1.8,4,4C22.5,26.7,20.7,28.5,18.5,28.5z"/>
			<path class="st2" d="M32.8,24.7c0.2-0.5,0.5-0.8,0.8-1c-0.3-0.1-0.5-0.2-0.8-0.3c-0.2,0.8-0.7,1.8-1.6,3c-0.9-0.9-1.5-1.8-2-2.7
				c-0.2,0.1-0.5,0.2-0.7,0.3c0.2,0.1,0.4,0.4,0.6,0.7c0.5,0.8,1.1,1.5,1.7,2.1c-1.4,1.4-3.1,2.2-5.2,2.3c0.2,0.2,0.3,0.4,0.4,0.6
				c0,0,0,0.1,0,0.1c2.3-0.5,4-1.4,5.1-2.6c1.1,1,2.7,1.7,4.7,2.3c0.2-0.3,0.3-0.5,0.5-0.6c-1.9-0.2-3.5-0.9-4.8-2
				C32.2,25.8,32.6,25.1,32.8,24.7z"/>
			<path class="st2" d="M26.1,24.1c0.2,0.2,0.4,0.3,0.6,0.5c0.1-0.1,0.2-0.1,0.3-0.3c0.2-0.2,0.3-0.3,0.4-0.4c0.3-0.2,0.7-0.6,1.2-1
				c0.1-0.1,0.3-0.2,0.3-0.3c0.3-0.3,0.6-0.5,1-0.6c-0.2-0.2-0.4-0.4-0.6-0.6C28.1,22.9,27,23.8,26.1,24.1z"/>
			<path class="st2" d="M32.1,19.9c-0.5-0.4-1.1-0.8-1.8-1.2L30,19.1c0.7,0.4,1.3,0.8,1.8,1.3L32.1,19.9z"/>
			<path class="st2" d="M35.5,21.1c0.3,0,0.5,0,0.7,0.1v-0.5c-0.2,0-0.4,0.1-0.7,0.1h-9c-0.3,0-0.5,0-0.7-0.1v0.5
				c0.2,0,0.4-0.1,0.7-0.1H35.5z"/>
			<path class="st2" d="M32.6,21.7l-0.3,0.5c1.2,0.6,2.2,1.2,2.9,1.9l0.4-0.5c-0.1-0.1-0.4-0.2-0.7-0.4C33.9,22.5,33.1,22,32.6,21.7
				z"/>
		</g>
	</g>
</g>
</svg>
