<?xml version="1.0" encoding="utf-8"?>
<!-- Generator: Adobe Illustrator 21.0.2, SVG Export Plug-In . SVG Version: 6.00 Build 0)  -->
<svg version="1.1" id="图层_1" xmlns="http://www.w3.org/2000/svg" xmlns:xlink="http://www.w3.org/1999/xlink" x="0px" y="0px"
	 viewBox="0 0 50 50" style="enable-background:new 0 0 50 50;" xml:space="preserve">
<style type="text/css">
	.st0{opacity:0.2;}
	.st1{fill:#FFFFFF;}
	.st2{fill:#F93E54;}
</style>
<g>
	<g class="st0">
		<path d="M38.5,9.5h-26c-1.6,0-3,1.3-3,3v26c0,1.7,1.4,3,3,3h26c1.7,0,3-1.3,3-3v-26C41.5,10.8,40.2,9.5,38.5,9.5z M25.5,36.5
			c-6.1,0-11-4.9-11-11s4.9-11,11-11s11,4.9,11,11S31.6,36.5,25.5,36.5z"/>
		<path d="M25.5,15.5c-5.5,0-10,4.5-10,10c0,5.5,4.5,10,10,10s10-4.5,10-10C35.5,20,31,15.5,25.5,15.5z M29.2,31.5l-3.7-2.7
			l-3.7,2.7l1.3-4.5l-3.6-2.9L24,24l1.5-4.5L27,24l4.5,0.1L27.9,27L29.2,31.5z"/>
		<path d="M38.5,7.5h-26c-2.8,0-5,2.2-5,5v26c0,2.8,2.2,5,5,5h26c2.8,0,5-2.2,5-5v-26C43.5,9.7,41.3,7.5,38.5,7.5z M41.5,38.5
			c0,1.7-1.3,3-3,3h-26c-1.6,0-3-1.3-3-3v-26c0-1.7,1.4-3,3-3h26c1.7,0,3,1.3,3,3V38.5z"/>
		<path d="M25.5,14.5c-6.1,0-11,4.9-11,11s4.9,11,11,11s11-4.9,11-11S31.6,14.5,25.5,14.5z M25.5,35.5c-5.5,0-10-4.5-10-10
			c0-5.5,4.5-10,10-10s10,4.5,10,10C35.5,31,31,35.5,25.5,35.5z"/>
		<polygon points="27,24 25.5,19.5 24,24 19.5,24.1 23.1,27 21.8,31.5 25.5,28.8 29.2,31.5 27.9,27 31.5,24.1 		"/>
	</g>
	<g>
		<g>
			<path class="st1" d="M37.5,8.5h-26c-1.6,0-3,1.3-3,3v26c0,1.7,1.4,3,3,3h26c1.7,0,3-1.3,3-3v-26C40.5,9.8,39.2,8.5,37.5,8.5z
				 M24.5,35.5c-6.1,0-11-4.9-11-11s4.9-11,11-11s11,4.9,11,11S30.6,35.5,24.5,35.5z"/>
			<path class="st1" d="M24.5,14.5c-5.5,0-10,4.5-10,10c0,5.5,4.5,10,10,10s10-4.5,10-10C34.5,19,30,14.5,24.5,14.5z M28.2,30.5
				l-3.7-2.7l-3.7,2.7l1.3-4.5l-3.6-2.9L23,23l1.5-4.5L26,23l4.5,0.1L26.9,26L28.2,30.5z"/>
			<path class="st2" d="M37.5,6.5h-26c-2.8,0-5,2.2-5,5v26c0,2.8,2.2,5,5,5h26c2.8,0,5-2.2,5-5v-26C42.5,8.7,40.3,6.5,37.5,6.5z
				 M40.5,37.5c0,1.7-1.3,3-3,3h-26c-1.6,0-3-1.3-3-3v-26c0-1.7,1.4-3,3-3h26c1.7,0,3,1.3,3,3V37.5z"/>
			<path class="st2" d="M24.5,13.5c-6.1,0-11,4.9-11,11s4.9,11,11,11s11-4.9,11-11S30.6,13.5,24.5,13.5z M24.5,34.5
				c-5.5,0-10-4.5-10-10c0-5.5,4.5-10,10-10s10,4.5,10,10C34.5,30,30,34.5,24.5,34.5z"/>
			<polygon class="st2" points="26,23 24.5,18.5 23,23 18.5,23.1 22.1,26 20.8,30.5 24.5,27.8 28.2,30.5 26.9,26 30.5,23.1 			"/>
		</g>
	</g>
</g>
</svg>
