<?xml version="1.0" encoding="utf-8"?>
<!-- Generator: Adobe Illustrator 21.0.2, SVG Export Plug-In . SVG Version: 6.00 Build 0)  -->
<svg version="1.1" id="图层_1" xmlns="http://www.w3.org/2000/svg" xmlns:xlink="http://www.w3.org/1999/xlink" x="0px" y="0px"
	 viewBox="0 0 50 50" style="enable-background:new 0 0 50 50;" xml:space="preserve">
<style type="text/css">
	.st0{opacity:0.2;}
	.st1{fill:#FFFFFF;}
	.st2{fill:#FF6D0C;}
</style>
<g>
	<g class="st0">
		<path d="M41,10.8c-0.2-0.3-0.5-0.6-0.8-0.8c-0.5-0.3-1.1-0.5-1.7-0.5h-26c-0.6,0-1.2,0.2-1.7,0.5c-0.3,0.2-0.6,0.5-0.8,0.8
			c-0.1,0.2-0.2,0.3-0.3,0.5c-0.2,0.4-0.2,0.8-0.2,1.2v26c0,1.7,1.4,3,3,3h26c1.7,0,3-1.3,3-3v-26c0-0.4-0.1-0.8-0.2-1.2
			C41.2,11.2,41.1,11,41,10.8z M33,14.6c1.1,0,2,0.9,2,2c0,1.1-0.9,2-2,2s-2-0.9-2-2S31.9,14.6,33,14.6z M18,14.6c1.1,0,2,0.9,2,2
			c0,1.1-0.9,2-2,2s-2-0.9-2-2S16.9,14.6,18,14.6z M23.7,27.8l-2.1-3.3l-0.3-2.1v0h-1.9v3l2.8,6h-2.8v6h-0.9v-6h-0.9v6h-0.9v-6h-2.8
			l2.8-6v-3h-1.9v-0.2l-0.4,2.4l-2,3.1l-0.8-0.6l2-3l0.8-4.8l0.5,0.1h6.6l0.5-0.1l0.8,4.8l2,3L23.7,27.8z M26.5,37.5h-1v-23h1V37.5z
			 M28,29C27.9,29,27.9,29,28,29c-0.3-0.1-0.5-0.3-0.4-0.6l1.8-8c0.1-0.3,0.3-0.4,0.5-0.4c0.2,0.1,0.4,0.3,0.3,0.6l-1.8,8
			C28.4,28.8,28.2,29,28,29z M36.3,37C36.3,37,36.2,37,36.3,37c-0.3,0-0.5-0.1-0.5-0.4l-1.8-6c0,0,0-0.1,0-0.1h-1.9c0,0,0,0.1,0,0.1
			l-1.8,6c0,0.2-0.2,0.4-0.4,0.4c0,0-0.1,0-0.1,0c-0.2-0.1-0.4-0.3-0.3-0.6l1.8-5.9h-0.4v-3h0.9l-1.4-6c-0.2-1,0.5-2,1.4-2h2.7
			c1,0,1.7,1,1.4,2l-1.4,6h0.9v3h-0.4l1.8,5.9C36.7,36.7,36.6,36.9,36.3,37z M38.1,29C38.1,29,38.1,29,38.1,29
			c-0.3,0-0.5-0.1-0.5-0.4l-1.8-8c-0.1-0.3,0.1-0.5,0.3-0.6c0.2-0.1,0.5,0.1,0.5,0.4l1.8,8C38.5,28.7,38.4,28.9,38.1,29z"/>
		<path d="M38.5,7.5h-26c-2.8,0-5,2.2-5,5v26c0,2.8,2.2,5,5,5h26c2.8,0,5-2.2,5-5v-26C43.5,9.7,41.3,7.5,38.5,7.5z M41.5,38.5
			c0,1.7-1.3,3-3,3h-26c-1.6,0-3-1.3-3-3v-26c0-0.4,0.1-0.8,0.2-1.2c0.1-0.2,0.2-0.3,0.3-0.5c0.2-0.3,0.5-0.6,0.8-0.8
			c0.5-0.3,1.1-0.5,1.7-0.5h26c0.6,0,1.2,0.2,1.7,0.5c0.3,0.2,0.6,0.5,0.8,0.8c0.1,0.2,0.2,0.3,0.3,0.5c0.2,0.4,0.2,0.8,0.2,1.2
			V38.5z"/>
		<circle cx="18" cy="16.6" r="2"/>
		<circle cx="33" cy="16.6" r="2"/>
		<polygon points="21.8,19.4 21.3,19.5 14.7,19.5 14.2,19.4 13.5,24.2 11.5,27.2 12.3,27.8 14.3,24.7 14.7,22.3 14.7,22.5 
			16.6,22.5 16.6,25.5 13.8,31.5 16.6,31.5 16.6,37.5 17.5,37.5 17.5,31.5 18.5,31.5 18.5,37.5 19.4,37.5 19.4,31.5 22.2,31.5 
			19.4,25.5 19.4,22.5 21.3,22.5 21.3,22.5 21.6,24.5 23.7,27.8 24.5,27.2 22.5,24.2 		"/>
		<path d="M29.9,20c-0.2-0.1-0.5,0.1-0.5,0.4l-1.8,8c-0.1,0.3,0.1,0.5,0.3,0.6c0,0,0.1,0,0.1,0c0.2,0,0.4-0.2,0.4-0.4l1.8-8
			C30.3,20.3,30.1,20.1,29.9,20z"/>
		<path d="M34.9,30.5h0.4v-3h-0.9l1.4-6c0.2-1-0.5-2-1.4-2h-2.7c-1,0-1.7,1-1.4,2l1.4,6h-0.9v3h0.4l-1.8,5.9
			c-0.1,0.3,0.1,0.5,0.3,0.6c0,0,0.1,0,0.1,0c0.2,0,0.4-0.2,0.4-0.4l1.8-6c0,0,0-0.1,0-0.1h1.9c0,0,0,0.1,0,0.1l1.8,6
			c0,0.2,0.2,0.4,0.4,0.4c0,0,0.1,0,0.1,0c0.2-0.1,0.4-0.3,0.3-0.6L34.9,30.5z"/>
		<path d="M36.7,20.4c-0.1-0.3-0.3-0.4-0.5-0.4c-0.2,0.1-0.4,0.3-0.3,0.6l1.8,8c0,0.2,0.2,0.4,0.4,0.4c0,0,0.1,0,0.1,0
			c0.2-0.1,0.4-0.3,0.3-0.6L36.7,20.4z"/>
		<rect x="25.5" y="14.5" width="1" height="23"/>
	</g>
	<g>
		<g>
			<path class="st1" d="M40,9.8c-0.2-0.3-0.5-0.6-0.8-0.8c-0.5-0.3-1.1-0.5-1.7-0.5h-26c-0.6,0-1.2,0.2-1.7,0.5
				C9.5,9.2,9.2,9.5,9,9.8c-0.1,0.2-0.2,0.3-0.3,0.5c-0.2,0.4-0.2,0.8-0.2,1.2v26c0,1.7,1.4,3,3,3h26c1.7,0,3-1.3,3-3v-26
				c0-0.4-0.1-0.8-0.2-1.2C40.2,10.2,40.1,10,40,9.8z M32,13.6c1.1,0,2,0.9,2,2c0,1.1-0.9,2-2,2s-2-0.9-2-2S30.9,13.6,32,13.6z
				 M17,13.6c1.1,0,2,0.9,2,2c0,1.1-0.9,2-2,2s-2-0.9-2-2S15.9,13.6,17,13.6z M22.7,26.8l-2.1-3.3l-0.3-2.1v0h-1.9v3l2.8,6h-2.8v6
				h-0.9v-6h-0.9v6h-0.9v-6h-2.8l2.8-6v-3h-1.9v-0.2l-0.4,2.4l-2,3.1l-0.8-0.6l2-3l0.8-4.8l0.5,0.1h6.6l0.5-0.1l0.8,4.8l2,3
				L22.7,26.8z M25.5,36.5h-1v-23h1V36.5z M27,28C26.9,28,26.9,28,27,28c-0.3-0.1-0.5-0.3-0.4-0.6l1.8-8c0.1-0.3,0.3-0.4,0.5-0.4
				c0.2,0.1,0.4,0.3,0.3,0.6l-1.8,8C27.4,27.8,27.2,28,27,28z M35.3,36C35.3,36,35.2,36,35.3,36c-0.3,0-0.5-0.1-0.5-0.4l-1.8-6
				c0,0,0-0.1,0-0.1h-1.9c0,0,0,0.1,0,0.1l-1.8,6c0,0.2-0.2,0.4-0.4,0.4c0,0-0.1,0-0.1,0c-0.2-0.1-0.4-0.3-0.3-0.6l1.8-5.9h-0.4v-3
				h0.9l-1.4-6c-0.2-1,0.5-2,1.4-2h2.7c1,0,1.7,1,1.4,2l-1.4,6h0.9v3h-0.4l1.8,5.9C35.7,35.7,35.6,35.9,35.3,36z M37.1,28
				C37.1,28,37.1,28,37.1,28c-0.3,0-0.5-0.1-0.5-0.4l-1.8-8c-0.1-0.3,0.1-0.5,0.3-0.6c0.2-0.1,0.5,0.1,0.5,0.4l1.8,8
				C37.5,27.7,37.4,27.9,37.1,28z"/>
			<g>
				<path class="st2" d="M37.5,6.5h-26c-2.8,0-5,2.2-5,5v26c0,2.8,2.2,5,5,5h26c2.8,0,5-2.2,5-5v-26C42.5,8.7,40.3,6.5,37.5,6.5z
					 M40.5,37.5c0,1.7-1.3,3-3,3h-26c-1.6,0-3-1.3-3-3v-26c0-0.4,0.1-0.8,0.2-1.2C8.8,10.2,8.9,10,9,9.8C9.2,9.5,9.5,9.2,9.8,9
					c0.5-0.3,1.1-0.5,1.7-0.5h26c0.6,0,1.2,0.2,1.7,0.5c0.3,0.2,0.6,0.5,0.8,0.8c0.1,0.2,0.2,0.3,0.3,0.5c0.2,0.4,0.2,0.8,0.2,1.2
					V37.5z"/>
			</g>
			<circle class="st2" cx="17" cy="15.6" r="2"/>
			<circle class="st2" cx="32" cy="15.6" r="2"/>
			<polygon class="st2" points="20.8,18.4 20.3,18.5 13.7,18.5 13.2,18.4 12.5,23.2 10.5,26.2 11.3,26.8 13.3,23.7 13.7,21.3 
				13.7,21.5 15.6,21.5 15.6,24.5 12.8,30.5 15.6,30.5 15.6,36.5 16.5,36.5 16.5,30.5 17.5,30.5 17.5,36.5 18.4,36.5 18.4,30.5 
				21.2,30.5 18.4,24.5 18.4,21.5 20.3,21.5 20.3,21.5 20.6,23.5 22.7,26.8 23.5,26.2 21.5,23.2 			"/>
			<path class="st2" d="M28.9,19c-0.2-0.1-0.5,0.1-0.5,0.4l-1.8,8c-0.1,0.3,0.1,0.5,0.3,0.6c0,0,0.1,0,0.1,0c0.2,0,0.4-0.2,0.4-0.4
				l1.8-8C29.3,19.3,29.1,19.1,28.9,19z"/>
			<path class="st2" d="M33.9,29.5h0.4v-3h-0.9l1.4-6c0.2-1-0.5-2-1.4-2h-2.7c-1,0-1.7,1-1.4,2l1.4,6h-0.9v3h0.4l-1.8,5.9
				c-0.1,0.3,0.1,0.5,0.3,0.6c0,0,0.1,0,0.1,0c0.2,0,0.4-0.2,0.4-0.4l1.8-6c0,0,0-0.1,0-0.1h1.9c0,0,0,0.1,0,0.1l1.8,6
				c0,0.2,0.2,0.4,0.4,0.4c0,0,0.1,0,0.1,0c0.2-0.1,0.4-0.3,0.3-0.6L33.9,29.5z"/>
			<path class="st2" d="M35.7,19.4c-0.1-0.3-0.3-0.4-0.5-0.4c-0.2,0.1-0.4,0.3-0.3,0.6l1.8,8c0,0.2,0.2,0.4,0.4,0.4c0,0,0.1,0,0.1,0
				c0.2-0.1,0.4-0.3,0.3-0.6L35.7,19.4z"/>
			<rect x="24.5" y="13.5" class="st2" width="1" height="23"/>
		</g>
	</g>
</g>
</svg>
