<?xml version="1.0" encoding="utf-8"?>
<!-- Generator: Adobe Illustrator 21.0.2, SVG Export Plug-In . SVG Version: 6.00 Build 0)  -->
<svg version="1.1" id="图层_1" xmlns="http://www.w3.org/2000/svg" xmlns:xlink="http://www.w3.org/1999/xlink" x="0px" y="0px"
	 viewBox="0 0 50 50" style="enable-background:new 0 0 50 50;" xml:space="preserve">
<style type="text/css">
	.st0{opacity:0.2;}
	.st1{fill:#FFFFFF;}
	.st2{fill:#BC09FF;}
</style>
<g>
	<g class="st0">
		<path d="M3.5,33.5h24v-16h-24V33.5z M23,19h2h1v1v2h-1v-2h-2V19z M23,31h2v-2h1v2v1h-1h-2V31z M14,19h3v1h-3V19z M14,31h3v1h-3V31
			z M5,20v-1h1h2v1H6v2H5V20z M5,31v-2h1v2h2v1H6H5V31z"/>
		<path d="M31.5,33.5h16v-16h-16V33.5z M38.8,20.8l0.9,0.1c0.1,0,0.2,0,0.2,0.1c0,0,0,0.1-0.1,0.2c-0.1,0.1-0.2,0.3-0.2,0.6v2.4
			l1.4-0.3v-2.6c0-0.3,0-0.7-0.1-1.2l0.9,0.1c0.1,0,0.2,0,0.2,0.1c0,0,0,0.1-0.1,0.2c-0.1,0.2-0.2,0.4-0.2,0.8v2.4l1.5-0.4
			c0.2-0.1,0.5-0.2,0.9-0.3c0,0.2,0,0.5,0,0.9c0,1.4-0.1,2.4-0.1,2.9c0,0.9-0.5,1.4-1.5,1.4c-0.1-0.3-0.2-0.5-0.3-0.8
			c0.2,0.1,0.4,0.1,0.5,0.1c0.4,0,0.7-0.3,0.7-0.8c0-0.6,0.1-1.3,0.1-2c0-0.2,0-0.5,0-0.9l-1.7,0.4v3.7c0,0.2,0,0.6,0.1,1h-0.8
			c0.1-0.4,0.1-0.8,0.1-1v-3.5l-1.4,0.4v4.6c0,0.6,0.4,0.9,1.3,0.9h1.7c0.7,0,1.2-0.1,1.4-0.3c0.2-0.2,0.4-0.6,0.4-1.2
			c0.2,0.2,0.5,0.3,0.8,0.5c-0.2,0.6-0.4,1.1-0.7,1.3c-0.3,0.2-0.9,0.3-1.6,0.3h-2.1c-1.2,0-1.7-0.4-1.7-1.3v-4.7l-0.4,0.1
			c-0.2,0.1-0.5,0.2-0.9,0.3l-0.1-0.8c0.3,0,0.6,0,0.9-0.1l0.6-0.1v-2.4C38.9,21.6,38.8,21.2,38.8,20.8z M35,24
			c-0.2,0-0.5,0-0.9,0.1v-0.7c0.4,0.1,0.7,0.1,0.9,0.1h0.8v-2c0-0.3,0-0.6-0.1-1.1l0.8,0.1c0.1,0,0.2,0,0.2,0.1c0,0,0,0.1-0.1,0.2
			c-0.1,0.1-0.1,0.3-0.1,0.7v2h0.7c0.2,0,0.5,0,0.8-0.1v0.7c-0.3,0-0.6-0.1-0.8-0.1h-0.7v3.9c0.7-0.2,1.3-0.4,1.8-0.7
			c0,0.3-0.1,0.5-0.1,0.8c-1.1,0.3-2.4,0.8-3.8,1.5L34,28.7c0.6-0.1,1.2-0.3,1.8-0.6V24H35z"/>
		<path d="M48.5,9.5h-46c-0.4,0-0.8,0.1-1.2,0.2C1.2,9.8,1,9.9,0.8,10c-0.3,0.2-0.6,0.5-0.8,0.8c-0.3,0.5-0.5,1.1-0.5,1.7v26
			c0,0.6,0.2,1.2,0.5,1.7c0.2,0.3,0.5,0.6,0.8,0.8c0.2,0.1,0.3,0.2,0.5,0.3c0.4,0.2,0.8,0.2,1.2,0.2h46c1.7,0,3-1.3,3-3v-26
			C51.5,10.8,50.2,9.5,48.5,9.5z M28.5,17.5v16v1h-1h-24h-1v-1v-16v-1h1h24h1V17.5z M48.5,17.5v16v1h-1h-16h-1v-1v-16v-1h1h16h1
			V17.5z"/>
		<path d="M48.5,7.5h-46c-2.8,0-5,2.2-5,5v26c0,2.8,2.2,5,5,5h46c2.8,0,5-2.2,5-5v-26C53.5,9.7,51.3,7.5,48.5,7.5z M51.5,38.5
			c0,1.7-1.3,3-3,3h-46c-0.4,0-0.8-0.1-1.2-0.2C1.2,41.2,1,41.1,0.8,41c-0.3-0.2-0.6-0.5-0.8-0.8c-0.3-0.5-0.5-1.1-0.5-1.7v-26
			c0-0.6,0.2-1.2,0.5-1.7c0.2-0.3,0.5-0.6,0.8-0.8C1,9.9,1.2,9.8,1.3,9.7c0.4-0.2,0.8-0.2,1.2-0.2h46c1.7,0,3,1.3,3,3V38.5z"/>
		<path d="M34,28.7l0.4,0.7c1.4-0.6,2.7-1.1,3.8-1.5c0-0.2,0-0.5,0.1-0.8c-0.6,0.2-1.2,0.5-1.8,0.7V24h0.7c0.2,0,0.5,0,0.8,0.1v-0.7
			c-0.3,0-0.6,0.1-0.8,0.1h-0.7v-2c0-0.4,0-0.6,0.1-0.7c0.1-0.1,0.1-0.2,0.1-0.2c0,0-0.1-0.1-0.2-0.1l-0.8-0.1
			c0,0.4,0.1,0.8,0.1,1.1v2H35c-0.2,0-0.5,0-0.9-0.1v0.7c0.3,0,0.6-0.1,0.9-0.1h0.8v4.1C35.1,28.4,34.5,28.6,34,28.7z"/>
		<path d="M38.3,24.5c-0.3,0.1-0.6,0.1-0.9,0.1l0.1,0.8c0.4-0.2,0.7-0.3,0.9-0.3l0.4-0.1v4.7c0,0.9,0.5,1.3,1.7,1.3h2.1
			c0.8,0,1.3-0.1,1.6-0.3c0.3-0.2,0.6-0.6,0.7-1.3c-0.3-0.2-0.6-0.3-0.8-0.5c0,0.6-0.1,1-0.4,1.2c-0.2,0.2-0.7,0.3-1.4,0.3h-1.7
			c-0.9,0-1.4-0.3-1.3-0.9v-4.6l1.4-0.4v3.5c0,0.3,0,0.6-0.1,1h0.8c-0.1-0.5-0.1-0.8-0.1-1v-3.7l1.7-0.4c0,0.4,0,0.7,0,0.9
			c0,0.7,0,1.4-0.1,2c0,0.5-0.2,0.8-0.7,0.8c-0.2,0-0.3,0-0.5-0.1c0.2,0.3,0.3,0.5,0.3,0.8c1,0,1.5-0.5,1.5-1.4
			c0-0.6,0.1-1.5,0.1-2.9c0-0.4,0-0.7,0-0.9c-0.4,0.1-0.7,0.2-0.9,0.3l-1.5,0.4v-2.4c0-0.4,0.1-0.7,0.2-0.8c0.1-0.1,0.1-0.2,0.1-0.2
			c0,0-0.1-0.1-0.2-0.1l-0.9-0.1c0.1,0.4,0.1,0.8,0.1,1.2v2.6l-1.4,0.3v-2.4c0-0.3,0.1-0.5,0.2-0.6c0.1-0.1,0.1-0.1,0.1-0.2
			c0,0-0.1-0.1-0.2-0.1l-0.9-0.1c0,0.5,0.1,0.9,0.1,1.2v2.4L38.3,24.5z"/>
		<path d="M31.5,16.5h-1v1v16v1h1h16h1v-1v-16v-1h-1H31.5z M47.5,33.5h-16v-16h16V33.5z"/>
		<path d="M3.5,16.5h-1v1v16v1h1h24h1v-1v-16v-1h-1H3.5z M27.5,33.5h-24v-16h24V33.5z"/>
		<rect x="14" y="19" width="3" height="1"/>
		<polygon points="25,22 26,22 26,20 26,19 25,19 23,19 23,20 25,20 		"/>
		<polygon points="6,20 8,20 8,19 6,19 5,19 5,20 5,22 6,22 		"/>
		<rect x="14" y="31" width="3" height="1"/>
		<polygon points="26,32 26,31 26,29 25,29 25,31 23,31 23,32 25,32 		"/>
		<polygon points="8,32 8,31 6,31 6,29 5,29 5,31 5,32 6,32 		"/>
	</g>
	<g>
		<g>
			<path class="st1" d="M2.5,32.5h24v-16h-24V32.5z M22,18h2h1v1v2h-1v-2h-2V18z M22,30h2v-2h1v2v1h-1h-2V30z M13,18h3v1h-3V18z
				 M13,30h3v1h-3V30z M4,19v-1h1h2v1H5v2H4V19z M4,30v-2h1v2h2v1H5H4V30z"/>
			<path class="st1" d="M30.5,32.5h16v-16h-16V32.5z M37.8,19.8l0.9,0.1c0.1,0,0.2,0,0.2,0.1c0,0,0,0.1-0.1,0.2
				c-0.1,0.1-0.2,0.3-0.2,0.6v2.4l1.4-0.3v-2.6c0-0.3,0-0.7-0.1-1.2l0.9,0.1c0.1,0,0.2,0,0.2,0.1c0,0,0,0.1-0.1,0.2
				c-0.1,0.2-0.2,0.4-0.2,0.8v2.4l1.5-0.4c0.2-0.1,0.5-0.2,0.9-0.3c0,0.2,0,0.5,0,0.9c0,1.4-0.1,2.4-0.1,2.9c0,0.9-0.5,1.4-1.5,1.4
				c-0.1-0.3-0.2-0.5-0.3-0.8c0.2,0.1,0.4,0.1,0.5,0.1c0.4,0,0.7-0.3,0.7-0.8c0-0.6,0.1-1.3,0.1-2c0-0.2,0-0.5,0-0.9l-1.7,0.4v3.7
				c0,0.2,0,0.6,0.1,1h-0.8c0.1-0.4,0.1-0.8,0.1-1v-3.5l-1.4,0.4v4.6c0,0.6,0.4,0.9,1.3,0.9h1.7c0.7,0,1.2-0.1,1.4-0.3
				c0.2-0.2,0.4-0.6,0.4-1.2c0.2,0.2,0.5,0.3,0.8,0.5c-0.2,0.6-0.4,1.1-0.7,1.3c-0.3,0.2-0.9,0.3-1.6,0.3h-2.1
				c-1.2,0-1.7-0.4-1.7-1.3v-4.7l-0.4,0.1c-0.2,0.1-0.5,0.2-0.9,0.3l-0.1-0.8c0.3,0,0.6,0,0.9-0.1l0.6-0.1v-2.4
				C37.9,20.6,37.8,20.2,37.8,19.8z M34,23c-0.2,0-0.5,0-0.9,0.1v-0.7c0.4,0.1,0.7,0.1,0.9,0.1h0.8v-2c0-0.3,0-0.6-0.1-1.1l0.8,0.1
				c0.1,0,0.2,0,0.2,0.1c0,0,0,0.1-0.1,0.2c-0.1,0.1-0.1,0.3-0.1,0.7v2h0.7c0.2,0,0.5,0,0.8-0.1v0.7c-0.3,0-0.6-0.1-0.8-0.1h-0.7
				v3.9c0.7-0.2,1.3-0.4,1.8-0.7c0,0.3-0.1,0.5-0.1,0.8c-1.1,0.3-2.4,0.8-3.8,1.5L33,27.7c0.6-0.1,1.2-0.3,1.8-0.6V23H34z"/>
			<path class="st1" d="M47.5,8.5h-46c-0.4,0-0.8,0.1-1.2,0.2C0.2,8.8,0,8.9-0.2,9C-0.5,9.2-0.8,9.5-1,9.8c-0.3,0.5-0.5,1.1-0.5,1.7
				v26c0,0.6,0.2,1.2,0.5,1.7c0.2,0.3,0.5,0.6,0.8,0.8c0.2,0.1,0.3,0.2,0.5,0.3c0.4,0.2,0.8,0.2,1.2,0.2h46c1.7,0,3-1.3,3-3v-26
				C50.5,9.8,49.2,8.5,47.5,8.5z M27.5,16.5v16v1h-1h-24h-1v-1v-16v-1h1h24h1V16.5z M47.5,16.5v16v1h-1h-16h-1v-1v-16v-1h1h16h1
				V16.5z"/>
			<path class="st2" d="M47.5,6.5h-46c-2.8,0-5,2.2-5,5v26c0,2.8,2.2,5,5,5h46c2.8,0,5-2.2,5-5v-26C52.5,8.7,50.3,6.5,47.5,6.5z
				 M50.5,37.5c0,1.7-1.3,3-3,3h-46c-0.4,0-0.8-0.1-1.2-0.2C0.2,40.2,0,40.1-0.2,40c-0.3-0.2-0.6-0.5-0.8-0.8
				c-0.3-0.5-0.5-1.1-0.5-1.7v-26c0-0.6,0.2-1.2,0.5-1.7C-0.8,9.5-0.5,9.2-0.2,9C0,8.9,0.2,8.8,0.3,8.7c0.4-0.2,0.8-0.2,1.2-0.2h46
				c1.7,0,3,1.3,3,3V37.5z"/>
			<path class="st2" d="M33,27.7l0.4,0.7c1.4-0.6,2.7-1.1,3.8-1.5c0-0.2,0-0.5,0.1-0.8c-0.6,0.2-1.2,0.5-1.8,0.7V23h0.7
				c0.2,0,0.5,0,0.8,0.1v-0.7c-0.3,0-0.6,0.1-0.8,0.1h-0.7v-2c0-0.4,0-0.6,0.1-0.7c0.1-0.1,0.1-0.2,0.1-0.2c0,0-0.1-0.1-0.2-0.1
				l-0.8-0.1c0,0.4,0.1,0.8,0.1,1.1v2H34c-0.2,0-0.5,0-0.9-0.1v0.7c0.3,0,0.6-0.1,0.9-0.1h0.8v4.1C34.1,27.4,33.5,27.6,33,27.7z"/>
			<path class="st2" d="M37.3,23.5c-0.3,0.1-0.6,0.1-0.9,0.1l0.1,0.8c0.4-0.2,0.7-0.3,0.9-0.3l0.4-0.1v4.7c0,0.9,0.5,1.3,1.7,1.3
				h2.1c0.8,0,1.3-0.1,1.6-0.3c0.3-0.2,0.6-0.6,0.7-1.3c-0.3-0.2-0.6-0.3-0.8-0.5c0,0.6-0.1,1-0.4,1.2c-0.2,0.2-0.7,0.3-1.4,0.3
				h-1.7c-0.9,0-1.4-0.3-1.3-0.9v-4.6l1.4-0.4v3.5c0,0.3,0,0.6-0.1,1h0.8c-0.1-0.5-0.1-0.8-0.1-1v-3.7l1.7-0.4c0,0.4,0,0.7,0,0.9
				c0,0.7,0,1.4-0.1,2c0,0.5-0.2,0.8-0.7,0.8c-0.2,0-0.3,0-0.5-0.1c0.2,0.3,0.3,0.5,0.3,0.8c1,0,1.5-0.5,1.5-1.4
				c0-0.6,0.1-1.5,0.1-2.9c0-0.4,0-0.7,0-0.9c-0.4,0.1-0.7,0.2-0.9,0.3l-1.5,0.4v-2.4c0-0.4,0.1-0.7,0.2-0.8
				c0.1-0.1,0.1-0.2,0.1-0.2c0,0-0.1-0.1-0.2-0.1l-0.9-0.1c0.1,0.4,0.1,0.8,0.1,1.2v2.6l-1.4,0.3v-2.4c0-0.3,0.1-0.5,0.2-0.6
				c0.1-0.1,0.1-0.1,0.1-0.2c0,0-0.1-0.1-0.2-0.1l-0.9-0.1c0,0.5,0.1,0.9,0.1,1.2v2.4L37.3,23.5z"/>
			<path class="st2" d="M30.5,15.5h-1v1v16v1h1h16h1v-1v-16v-1h-1H30.5z M46.5,32.5h-16v-16h16V32.5z"/>
			<path class="st2" d="M2.5,15.5h-1v1v16v1h1h24h1v-1v-16v-1h-1H2.5z M26.5,32.5h-24v-16h24V32.5z"/>
			<rect x="13" y="18" class="st2" width="3" height="1"/>
			<polygon class="st2" points="24,21 25,21 25,19 25,18 24,18 22,18 22,19 24,19 			"/>
			<polygon class="st2" points="5,19 7,19 7,18 5,18 4,18 4,19 4,21 5,21 			"/>
			<rect x="13" y="30" class="st2" width="3" height="1"/>
			<polygon class="st2" points="25,31 25,30 25,28 24,28 24,30 22,30 22,31 24,31 			"/>
			<polygon class="st2" points="7,31 7,30 5,30 5,28 4,28 4,30 4,31 5,31 			"/>
		</g>
	</g>
</g>
</svg>
