<?xml version="1.0" encoding="utf-8"?>
<!-- Generator: Adobe Illustrator 21.0.2, SVG Export Plug-In . SVG Version: 6.00 Build 0)  -->
<svg version="1.1" id="图层_1" xmlns="http://www.w3.org/2000/svg" xmlns:xlink="http://www.w3.org/1999/xlink" x="0px" y="0px"
	 viewBox="0 0 32 32" style="enable-background:new 0 0 32 32;" xml:space="preserve">
<style type="text/css">
	.st0{fill:#3090A0;}
	.st1{fill:#FFFFFF;}
</style>
<path class="st0" d="M16,0C7.1,0,0,7.2,0,16s7.2,16,16,16s16-7.2,16-16S24.8,0,16,0z M16,30C8.3,30,2,23.7,2,16C2,8.3,8.3,2,16,2
	s14,6.3,14,14C30,23.7,23.7,30,16,30z"/>
<path class="st1" d="M16,2C8.3,2,2,8.3,2,16c0,7.7,6.3,14,14,14s14-6.3,14-14C30,8.3,23.7,2,16,2z"/>
<path class="st0" d="M23.5,11.2l-2.7-1.6c-0.1,0-0.1-0.1-0.2-0.1h-3.4c-0.1,0-0.1,0-0.1-0.1V7.9c0-0.1,0-0.1-0.1-0.2l-0.7-0.3
	c-0.1,0-0.1,0-0.2,0l-0.7,0.3c-0.1,0-0.1,0.1-0.1,0.2v1.5c0,0.1,0,0.1-0.1,0.1h-3.8c-0.1,0-0.1,0-0.1,0.1v3.3c0,0.1,0,0.1,0.1,0.1
	h3.8c0.1,0,0.1,0,0.1,0.1v1.3c0,0.1,0,0.1,0,0.1c0,0,0,0-0.1,0h-3.8c-0.1,0-0.2,0-0.2,0.1l-2.7,1.6c-0.1,0-0.1,0.1,0,0.1l2.7,1.6
	c0.1,0,0.1,0.1,0.2,0.1h3.8c0.1,0,0.1,0,0.1,0.1v5.5h-3.2c-0.5,0-0.9,0.4-0.9,0.9s0.4,0.9,0.9,0.9h7.8c0.5,0,0.9-0.4,0.9-0.9
	s-0.4-0.9-0.9-0.9h-2.8v-5.5c0-0.1,0-0.1,0.1-0.1h3.4c0.1,0,0.1,0,0.1-0.1v-3.3c0-0.1,0-0.1-0.1-0.1h-3.4c-0.1,0-0.1,0-0.1,0
	c0,0,0-0.1,0-0.1v-1.3h0c0-0.1,0-0.1,0.1-0.1h3.4c0.1,0,0.2,0,0.2-0.1l2.7-1.6C23.5,11.3,23.5,11.2,23.5,11.2z"/>
</svg>
