<?xml version="1.0" encoding="utf-8"?>
<!-- Generator: Adobe Illustrator 21.0.2, SVG Export Plug-In . SVG Version: 6.00 Build 0)  -->
<svg version="1.1" id="图层_1" xmlns="http://www.w3.org/2000/svg" xmlns:xlink="http://www.w3.org/1999/xlink" x="0px" y="0px"
	 viewBox="0 0 32 32" style="enable-background:new 0 0 32 32;" xml:space="preserve">
<style type="text/css">
	.st0{fill:#3090A0;}
	.st1{fill:#FFFFFF;}
</style>
<path class="st0" d="M16,0C7.2,0,0,7.2,0,16s7.2,16,16,16s16-7.2,16-16S24.8,0,16,0z M16,30C8.3,30,2,23.7,2,16C2,8.3,8.3,2,16,2
	s14,6.3,14,14C30,23.7,23.7,30,16,30z"/>
<path class="st1" d="M16,2C8.3,2,2,8.3,2,16c0,7.7,6.3,14,14,14s14-6.3,14-14C30,8.3,23.7,2,16,2z"/>
<g>
	<g>
		<path class="st0" d="M7.6,16c0,1.1,0.9,1.9,1.9,1.9s1.9-0.9,1.9-1.9s-0.9-1.9-1.9-1.9S7.6,14.9,7.6,16z"/>
		<path class="st0" d="M20.6,16c0,1.1,0.9,1.9,1.9,1.9c1.1,0,1.9-0.9,1.9-1.9s-0.9-1.9-1.9-1.9C21.4,14.1,20.6,14.9,20.6,16z"/>
		<path class="st0" d="M14.1,16c0,1.1,0.9,1.9,1.9,1.9s1.9-0.9,1.9-1.9S17,14.1,16,14.1S14.1,14.9,14.1,16z"/>
	</g>
</g>
</svg>
