<?xml version="1.0" encoding="utf-8"?>
<!-- Generator: Adobe Illustrator 21.0.2, SVG Export Plug-In . SVG Version: 6.00 Build 0)  -->
<svg version="1.1" id="图层_1" xmlns="http://www.w3.org/2000/svg" xmlns:xlink="http://www.w3.org/1999/xlink" x="0px" y="0px"
	 viewBox="0 0 50 50" style="enable-background:new 0 0 50 50;" xml:space="preserve">
<style type="text/css">

	.st0{opacity:0.2;}
	.st1{fill:#00A0E9;}
	.st2{fill:#FFFFFF;}
</style>
<g>
	<g class="st0">
		<path d="M38.5,7.3h-26c-2.8,0-5,2.2-5,5v26c0,2.8,2.2,5,5,5h26c2.8,0,5-2.2,5-5v-26C43.5,9.5,41.3,7.3,38.5,7.3z M41.5,38.3
			c0,1.7-1.3,3-3,3h-26c-1.6,0-3-1.3-3-3v-26c0-0.4,0.1-0.8,0.2-1.2c0.1-0.2,0.2-0.3,0.3-0.5c0.2-0.3,0.5-0.6,0.8-0.8
			c0.5-0.3,1.1-0.5,1.7-0.5h26c0.6,0,1.2,0.2,1.7,0.5c0.3,0.2,0.6,0.5,0.8,0.8c0.1,0.2,0.2,0.3,0.3,0.5c0.2,0.4,0.2,0.8,0.2,1.2
			V38.3z"/>
		<polygon points="28.8,28.8 29.7,28.8 31.1,26.4 32.5,28.8 33.4,28.8 34.3,28.8 32,25.1 34.2,21.7 33.3,21.7 32.4,21.7 31.1,24 
			29.9,21.7 29,21.7 28.1,21.7 30.3,25.2 27.9,28.8 		"/>
		<polygon points="37.8,28.8 37.8,21.7 37,21.7 36.3,21.7 36.3,28.8 37.1,28.8 		"/>
		<polygon points="15.4,28.8 16.1,28.8 16.9,28.8 16.9,22.9 19,22.9 19,22.3 19,21.7 13.2,21.7 13.2,22.3 13.2,22.9 15.4,22.9 		"/>
		<path d="M21.1,28.8l0.5-1.5h2.7l0.5,1.5h0.8h0.8l-2.5-7.2H23h-0.9l-2.5,7.2h0.8H21.1z M23,23.3l1,2.9H22L23,23.3z"/>
		<path d="M41,10.6c-0.2-0.3-0.5-0.6-0.8-0.8c-0.5-0.3-1.1-0.5-1.7-0.5h-26c-0.6,0-1.2,0.2-1.7,0.5c-0.3,0.2-0.6,0.5-0.8,0.8
			c-0.1,0.2-0.2,0.3-0.3,0.5c-0.2,0.4-0.2,0.8-0.2,1.2v26c0,1.7,1.4,3,3,3h26c1.7,0,3-1.3,3-3v-26c0-0.4-0.1-0.8-0.2-1.2
			C41.2,10.9,41.1,10.7,41,10.6z M38.5,31.3h-26v-12h26V31.3z"/>
		<path d="M12.5,31.3h26v-12h-26V31.3z M36.3,21.7H37h0.8v7.2h-0.7h-0.8V21.7z M28.1,21.7H29h0.9l1.3,2.3l1.3-2.3h0.9h0.9L32,25.1
			l2.3,3.7h-0.9h-0.9l-1.4-2.5l-1.4,2.5h-0.9h-0.9l2.3-3.6L28.1,21.7z M22.1,21.7H23h0.9l2.5,7.2h-0.8h-0.8l-0.5-1.5h-2.7l-0.5,1.5
			h-0.8h-0.8L22.1,21.7z M13.2,22.3v-0.6H19v0.6v0.6h-2.2v5.9h-0.7h-0.8v-5.9h-2.2V22.3z"/>
		<polygon points="23,23.3 22,26.1 23.9,26.1 		"/>
	</g>
	<g>
		<g>
			<g>
				<path class="st1" d="M37.5,6.3h-26c-2.8,0-5,2.2-5,5v26c0,2.8,2.2,5,5,5h26c2.8,0,5-2.2,5-5v-26C42.5,8.5,40.3,6.3,37.5,6.3z
					 M40.5,37.3c0,1.7-1.3,3-3,3h-26c-1.6,0-3-1.3-3-3v-26c0-0.4,0.1-0.8,0.2-1.2C8.8,9.9,8.9,9.7,9,9.6C9.2,9.3,9.5,9,9.8,8.8
					c0.5-0.3,1.1-0.5,1.7-0.5h26c0.6,0,1.2,0.2,1.7,0.5C39.5,9,39.8,9.3,40,9.6c0.1,0.2,0.2,0.3,0.3,0.5c0.2,0.4,0.2,0.8,0.2,1.2
					V37.3z"/>
			</g>
			<polygon class="st2" points="27.8,27.8 28.7,27.8 30.1,25.4 31.5,27.8 32.4,27.8 33.3,27.8 31,24.1 33.2,20.7 32.3,20.7 
				31.4,20.7 30.1,23 28.9,20.7 28,20.7 27.1,20.7 29.3,24.2 26.9,27.8 			"/>
			<polygon class="st2" points="36.8,27.8 36.8,20.7 36,20.7 35.3,20.7 35.3,27.8 36.1,27.8 			"/>
			<polygon class="st2" points="14.4,27.8 15.1,27.8 15.9,27.8 15.9,21.9 18,21.9 18,21.3 18,20.7 12.2,20.7 12.2,21.3 12.2,21.9 
				14.4,21.9 			"/>
			<path class="st2" d="M20.1,27.8l0.5-1.5h2.7l0.5,1.5h0.8h0.8l-2.5-7.2H22h-0.9l-2.5,7.2h0.8H20.1z M22,22.3l1,2.9H21L22,22.3z"/>
			<path class="st2" d="M40,9.6c-0.2-0.3-0.5-0.6-0.8-0.8c-0.5-0.3-1.1-0.5-1.7-0.5h-26c-0.6,0-1.2,0.2-1.7,0.5C9.5,9,9.2,9.3,9,9.6
				c-0.1,0.2-0.2,0.3-0.3,0.5c-0.2,0.4-0.2,0.8-0.2,1.2v26c0,1.7,1.4,3,3,3h26c1.7,0,3-1.3,3-3v-26c0-0.4-0.1-0.8-0.2-1.2
				C40.2,9.9,40.1,9.7,40,9.6z M37.5,30.3h-26v-12h26V30.3z"/>
			<path class="st1" d="M11.5,30.3h26v-12h-26V30.3z M35.3,20.7H36h0.8v7.2h-0.7h-0.8V20.7z M27.1,20.7H28h0.9l1.3,2.3l1.3-2.3h0.9
				h0.9L31,24.1l2.3,3.7h-0.9h-0.9l-1.4-2.5l-1.4,2.5h-0.9h-0.9l2.3-3.6L27.1,20.7z M21.1,20.7H22h0.9l2.5,7.2h-0.8h-0.8l-0.5-1.5
				h-2.7l-0.5,1.5h-0.8h-0.8L21.1,20.7z M12.2,21.3v-0.6H18v0.6v0.6h-2.2v5.9h-0.7h-0.8v-5.9h-2.2V21.3z"/>
			<polygon class="st1" points="22,22.3 21,25.1 22.9,25.1 			"/>
		</g>
	</g>
</g>
</svg>
