<?xml version="1.0" encoding="utf-8"?>
<!-- Generator: Adobe Illustrator 21.0.2, SVG Export Plug-In . SVG Version: 6.00 Build 0)  -->
<svg version="1.1" id="图层_1" xmlns="http://www.w3.org/2000/svg" xmlns:xlink="http://www.w3.org/1999/xlink" x="0px" y="0px"
	 viewBox="0 0 50 50" style="enable-background:new 0 0 50 50;" xml:space="preserve">
<style type="text/css">
	.st0{opacity:0.2;}
	.st1{fill:#FFFFFF;}
	.st2{fill:#F93E54;}
</style>
<g>
	<g class="st0">
		<path d="M25.5,15.5c-5.5,0-10,4.5-10,10c0,5.5,4.5,10,10,10s10-4.5,10-10C35.5,20,31,15.5,25.5,15.5z M28.3,19.8l0.5,0.4
			c-0.2,0.1-0.4,0.2-0.6,0.4c-0.3,0.3-0.6,0.7-1.1,1.1l-0.4-0.3C27.4,20.8,28,20.3,28.3,19.8z M22.4,20c0.1,0,0.1,0.1,0.3,0.2
			c0.8,0.5,1.3,0.9,1.7,1.1L24,21.7c-0.6-0.5-1.3-1-1.9-1.3L22.4,20z M23.9,29.1c-0.8,0.7-1.5,1.2-2.1,1.5c-0.2-0.1-0.3-0.3-0.6-0.4
			c1.2-0.5,2.1-1.1,2.9-2l0.7,0.4C24.4,28.8,24.1,28.9,23.9,29.1z M29.2,30.5c-0.9-0.7-1.8-1.3-2.7-1.9l0.3-0.5
			c1,0.6,1.9,1.3,2.7,1.9L29.2,30.5z M30.6,27.9c-0.2,0-0.4-0.1-0.8-0.1h-8.7c-0.3,0-0.6,0-0.8,0.1v-0.5c0.2,0,0.4,0.1,0.8,0.1h2.6
			V26h-1.3c-0.4,0-0.6,0-0.8,0.1v-0.5c0.1,0,0.4,0.1,0.8,0.1h1.3v-0.2c0-0.3,0-0.6-0.1-0.8h0.6c0,0.2-0.1,0.4-0.1,0.8v0.2h2.5v-0.4
			c0-0.4,0-0.6-0.1-0.8h0.6c0,0.2-0.1,0.5-0.1,0.8v0.4h1.5c0.3,0,0.5,0,0.8-0.1v0.5c-0.1,0-0.4-0.1-0.8-0.1h-1.5v1.4h2.7
			c0.3,0,0.6,0,0.8-0.1V27.9z M30.2,24.9c-1.1-0.3-2-0.7-2.7-1.2c-0.8-0.5-1.4-0.9-1.8-1.4v1.4c0,0.3,0,0.5,0.1,0.8h-0.6
			c0-0.2,0.1-0.5,0.1-0.8v-1.3c-0.7,0.7-1.4,1.2-1.9,1.5c-0.9,0.5-1.7,0.9-2.4,1.1c-0.2-0.2-0.3-0.4-0.5-0.5
			c0.8-0.1,1.5-0.3,2.2-0.7c0.9-0.5,1.6-1,2.1-1.5h-3.2c-0.3,0-0.6,0-0.8,0.1v-0.5c0.2,0,0.5,0.1,0.8,0.1h3.8v-1.5
			c0-0.3,0-0.6-0.1-0.7h0.6c0,0.2-0.1,0.4-0.1,0.7v1.5h3.6c0.3,0,0.6,0,0.8-0.1v0.5c-0.2,0-0.4-0.1-0.8-0.1h-3.1
			c1,0.8,1.7,1.3,2.2,1.5c0.7,0.3,1.5,0.5,2.2,0.6C30.5,24.5,30.4,24.7,30.2,24.9z"/>
		<rect x="24.1" y="26" width="2.5" height="1.4"/>
		<path d="M38.5,9.5h-26c-0.4,0-0.8,0.1-1.2,0.2C11.2,9.8,11,9.9,10.8,10c-0.3,0.2-0.6,0.5-0.8,0.8c-0.3,0.5-0.5,1.1-0.5,1.7v26
			c0,0.6,0.2,1.2,0.5,1.7c0.2,0.3,0.5,0.6,0.8,0.8c0.2,0.1,0.3,0.2,0.5,0.3c0.4,0.2,0.8,0.2,1.2,0.2h26c1.7,0,3-1.3,3-3v-26
			C41.5,10.9,40.2,9.5,38.5,9.5z M25.5,36.5c-6.1,0-11-4.9-11-11s4.9-11,11-11s11,4.9,11,11S31.6,36.5,25.5,36.5z"/>
		<path d="M38.5,7.5h-26c-2.8,0-5,2.2-5,5v26c0,2.8,2.2,5,5,5h26c2.8,0,5-2.2,5-5v-26C43.5,9.7,41.3,7.5,38.5,7.5z M41.5,38.5
			c0,1.7-1.3,3-3,3h-26c-0.4,0-0.8-0.1-1.2-0.2c-0.2-0.1-0.3-0.2-0.5-0.3c-0.3-0.2-0.6-0.5-0.8-0.8c-0.3-0.5-0.5-1.1-0.5-1.7v-26
			c0-0.6,0.2-1.2,0.5-1.7c0.2-0.3,0.5-0.6,0.8-0.8c0.2-0.1,0.3-0.2,0.5-0.3c0.4-0.2,0.8-0.2,1.2-0.2h26c1.7,0,3,1.4,3,3V38.5z"/>
		<path d="M25.5,14.5c-6.1,0-11,4.9-11,11s4.9,11,11,11s11-4.9,11-11S31.6,14.5,25.5,14.5z M25.5,35.5c-5.5,0-10-4.5-10-10
			c0-5.5,4.5-10,10-10s10,4.5,10,10C35.5,31,31,35.5,25.5,35.5z"/>
		<path d="M24.3,21.3c-0.3-0.3-0.9-0.6-1.7-1.1c-0.1-0.1-0.2-0.1-0.3-0.2l-0.3,0.4c0.6,0.3,1.3,0.8,1.9,1.3L24.3,21.3z"/>
		<path d="M21.2,30.2c0.2,0.1,0.4,0.3,0.6,0.4c0.6-0.3,1.3-0.8,2.1-1.5c0.2-0.2,0.5-0.3,0.9-0.5l-0.7-0.4
			C23.3,29.1,22.4,29.8,21.2,30.2z"/>
		<path d="M28.2,20.6c0.2-0.2,0.4-0.3,0.6-0.4l-0.5-0.4c-0.4,0.5-0.9,1.1-1.6,1.7l0.4,0.3C27.6,21.3,28,20.9,28.2,20.6z"/>
		<path d="M26.3,22.3h3.1c0.3,0,0.6,0,0.8,0.1v-0.5c-0.2,0-0.5,0.1-0.8,0.1h-3.6v-1.5c0-0.3,0-0.6,0.1-0.7h-0.6
			c0,0.2,0.1,0.4,0.1,0.7v1.5h-3.8c-0.3,0-0.6,0-0.8-0.1v0.5c0.2,0,0.5-0.1,0.8-0.1h3.2c-0.5,0.6-1.2,1.1-2.1,1.5
			c-0.6,0.4-1.4,0.6-2.2,0.7c0.2,0.1,0.4,0.3,0.5,0.5c0.7-0.2,1.5-0.6,2.4-1.1c0.5-0.3,1.1-0.8,1.9-1.5v1.3c0,0.4,0,0.6-0.1,0.8h0.6
			c0-0.3-0.1-0.5-0.1-0.8v-1.4c0.5,0.5,1.1,1,1.8,1.4c0.7,0.5,1.6,0.9,2.7,1.2c0.1-0.3,0.3-0.5,0.4-0.7c-0.7-0.1-1.4-0.2-2.2-0.6
			C28,23.6,27.2,23.1,26.3,22.3z"/>
		<path d="M27.1,27.5V26h1.5c0.4,0,0.6,0,0.8,0.1v-0.5c-0.2,0-0.5,0.1-0.8,0.1h-1.5v-0.4c0-0.3,0-0.6,0.1-0.8h-0.6
			c0,0.2,0.1,0.4,0.1,0.8v0.4h-2.5v-0.2c0-0.3,0-0.6,0.1-0.8h-0.6c0,0.2,0.1,0.5,0.1,0.8v0.2h-1.3c-0.4,0-0.7,0-0.8-0.1v0.5
			c0.2,0,0.4-0.1,0.8-0.1h1.3v1.4h-2.6c-0.4,0-0.6,0-0.8-0.1v0.5c0.2,0,0.5-0.1,0.8-0.1h8.7c0.4,0,0.6,0,0.8,0.1v-0.5
			c-0.2,0-0.5,0.1-0.8,0.1H27.1z M26.6,27.5h-2.5V26h2.5V27.5z"/>
		<path d="M26.5,28.6c0.9,0.5,1.8,1.2,2.7,1.9l0.3-0.5c-0.8-0.6-1.7-1.2-2.7-1.9L26.5,28.6z"/>
	</g>
	<g>
		<g>
			<path class="st1" d="M24.5,14.5c-5.5,0-10,4.5-10,10c0,5.5,4.5,10,10,10s10-4.5,10-10C34.5,19,30,14.5,24.5,14.5z M27.3,18.8
				l0.5,0.4c-0.2,0.1-0.4,0.2-0.6,0.4c-0.3,0.3-0.6,0.7-1.1,1.1l-0.4-0.3C26.4,19.8,27,19.3,27.3,18.8z M21.4,19
				c0.1,0,0.1,0.1,0.3,0.2c0.8,0.5,1.3,0.9,1.7,1.1L23,20.7c-0.6-0.5-1.3-1-1.9-1.3L21.4,19z M22.9,28.1c-0.8,0.7-1.5,1.2-2.1,1.5
				c-0.2-0.1-0.3-0.3-0.6-0.4c1.2-0.5,2.1-1.1,2.9-2l0.7,0.4C23.4,27.8,23.1,27.9,22.9,28.1z M28.2,29.5c-0.9-0.7-1.8-1.3-2.7-1.9
				l0.3-0.5c1,0.6,1.9,1.3,2.7,1.9L28.2,29.5z M29.6,26.9c-0.2,0-0.4-0.1-0.8-0.1h-8.7c-0.3,0-0.6,0-0.8,0.1v-0.5
				c0.2,0,0.4,0.1,0.8,0.1h2.6V25h-1.3c-0.4,0-0.6,0-0.8,0.1v-0.5c0.1,0,0.4,0.1,0.8,0.1h1.3v-0.2c0-0.3,0-0.6-0.1-0.8h0.6
				c0,0.2-0.1,0.4-0.1,0.8v0.2h2.5v-0.4c0-0.4,0-0.6-0.1-0.8h0.6c0,0.2-0.1,0.5-0.1,0.8v0.4h1.5c0.3,0,0.5,0,0.8-0.1v0.5
				c-0.1,0-0.4-0.1-0.8-0.1h-1.5v1.4h2.7c0.3,0,0.6,0,0.8-0.1V26.9z M29.2,23.9c-1.1-0.3-2-0.7-2.7-1.2c-0.8-0.5-1.4-0.9-1.8-1.4
				v1.4c0,0.3,0,0.5,0.1,0.8h-0.6c0-0.2,0.1-0.5,0.1-0.8v-1.3c-0.7,0.7-1.4,1.2-1.9,1.5c-0.9,0.5-1.7,0.9-2.4,1.1
				c-0.2-0.2-0.3-0.4-0.5-0.5c0.8-0.1,1.5-0.3,2.2-0.7c0.9-0.5,1.6-1,2.1-1.5h-3.2c-0.3,0-0.6,0-0.8,0.1v-0.5c0.2,0,0.5,0.1,0.8,0.1
				h3.8v-1.5c0-0.3,0-0.6-0.1-0.7h0.6c0,0.2-0.1,0.4-0.1,0.7v1.5h3.6c0.3,0,0.6,0,0.8-0.1v0.5c-0.2,0-0.4-0.1-0.8-0.1h-3.1
				c1,0.8,1.7,1.3,2.2,1.5c0.7,0.3,1.5,0.5,2.2,0.6C29.5,23.5,29.4,23.7,29.2,23.9z"/>
			<rect x="23.1" y="25" class="st1" width="2.5" height="1.4"/>
			<path class="st1" d="M37.5,8.5h-26c-0.4,0-0.8,0.1-1.2,0.2C10.2,8.8,10,8.9,9.8,9C9.5,9.2,9.2,9.5,9,9.8
				c-0.3,0.5-0.5,1.1-0.5,1.7v26c0,0.6,0.2,1.2,0.5,1.7c0.2,0.3,0.5,0.6,0.8,0.8c0.2,0.1,0.3,0.2,0.5,0.3c0.4,0.2,0.8,0.2,1.2,0.2
				h26c1.7,0,3-1.3,3-3v-26C40.5,9.9,39.2,8.5,37.5,8.5z M24.5,35.5c-6.1,0-11-4.9-11-11s4.9-11,11-11s11,4.9,11,11
				S30.6,35.5,24.5,35.5z"/>
			<path class="st2" d="M37.5,6.5h-26c-2.8,0-5,2.2-5,5v26c0,2.8,2.2,5,5,5h26c2.8,0,5-2.2,5-5v-26C42.5,8.7,40.3,6.5,37.5,6.5z
				 M40.5,37.5c0,1.7-1.3,3-3,3h-26c-0.4,0-0.8-0.1-1.2-0.2c-0.2-0.1-0.3-0.2-0.5-0.3c-0.3-0.2-0.6-0.5-0.8-0.8
				c-0.3-0.5-0.5-1.1-0.5-1.7v-26c0-0.6,0.2-1.2,0.5-1.7C9.2,9.5,9.5,9.2,9.8,9c0.2-0.1,0.3-0.2,0.5-0.3c0.4-0.2,0.8-0.2,1.2-0.2h26
				c1.7,0,3,1.4,3,3V37.5z"/>
			<path class="st2" d="M24.5,13.5c-6.1,0-11,4.9-11,11s4.9,11,11,11s11-4.9,11-11S30.6,13.5,24.5,13.5z M24.5,34.5
				c-5.5,0-10-4.5-10-10c0-5.5,4.5-10,10-10s10,4.5,10,10C34.5,30,30,34.5,24.5,34.5z"/>
			<path class="st2" d="M23.3,20.3c-0.3-0.3-0.9-0.6-1.7-1.1c-0.1-0.1-0.2-0.1-0.3-0.2l-0.3,0.4c0.6,0.3,1.3,0.8,1.9,1.3L23.3,20.3z
				"/>
			<path class="st2" d="M20.2,29.2c0.2,0.1,0.4,0.3,0.6,0.4c0.6-0.3,1.3-0.8,2.1-1.5c0.2-0.2,0.5-0.3,0.9-0.5l-0.7-0.4
				C22.3,28.1,21.4,28.8,20.2,29.2z"/>
			<path class="st2" d="M27.2,19.6c0.2-0.2,0.4-0.3,0.6-0.4l-0.5-0.4c-0.4,0.5-0.9,1.1-1.6,1.7l0.4,0.3C26.6,20.3,27,19.9,27.2,19.6
				z"/>
			<path class="st2" d="M25.3,21.3h3.1c0.3,0,0.6,0,0.8,0.1v-0.5c-0.2,0-0.5,0.1-0.8,0.1h-3.6v-1.5c0-0.3,0-0.6,0.1-0.7h-0.6
				c0,0.2,0.1,0.4,0.1,0.7v1.5h-3.8c-0.3,0-0.6,0-0.8-0.1v0.5c0.2,0,0.5-0.1,0.8-0.1h3.2c-0.5,0.6-1.2,1.1-2.1,1.5
				c-0.6,0.4-1.4,0.6-2.2,0.7c0.2,0.1,0.4,0.3,0.5,0.5c0.7-0.2,1.5-0.6,2.4-1.1c0.5-0.3,1.1-0.8,1.9-1.5v1.3c0,0.4,0,0.6-0.1,0.8
				h0.6c0-0.3-0.1-0.5-0.1-0.8v-1.4c0.5,0.5,1.1,1,1.8,1.4c0.7,0.5,1.6,0.9,2.7,1.2c0.1-0.3,0.3-0.5,0.4-0.7
				c-0.7-0.1-1.4-0.2-2.2-0.6C27,22.6,26.2,22.1,25.3,21.3z"/>
			<path class="st2" d="M26.1,26.5V25h1.5c0.4,0,0.6,0,0.8,0.1v-0.5c-0.2,0-0.5,0.1-0.8,0.1h-1.5v-0.4c0-0.3,0-0.6,0.1-0.8h-0.6
				c0,0.2,0.1,0.4,0.1,0.8v0.4h-2.5v-0.2c0-0.3,0-0.6,0.1-0.8h-0.6c0,0.2,0.1,0.5,0.1,0.8v0.2h-1.3c-0.4,0-0.7,0-0.8-0.1v0.5
				c0.2,0,0.4-0.1,0.8-0.1h1.3v1.4h-2.6c-0.4,0-0.6,0-0.8-0.1v0.5c0.2,0,0.5-0.1,0.8-0.1h8.7c0.4,0,0.6,0,0.8,0.1v-0.5
				c-0.2,0-0.5,0.1-0.8,0.1H26.1z M25.6,26.5h-2.5V25h2.5V26.5z"/>
			<path class="st2" d="M25.5,27.6c0.9,0.5,1.8,1.2,2.7,1.9l0.3-0.5c-0.8-0.6-1.7-1.2-2.7-1.9L25.5,27.6z"/>
		</g>
	</g>
</g>
</svg>
