<?xml version="1.0" encoding="utf-8"?>
<!-- Generator: Adobe Illustrator 21.0.2, SVG Export Plug-In . SVG Version: 6.00 Build 0)  -->
<svg version="1.1" id="图层_1" xmlns="http://www.w3.org/2000/svg" xmlns:xlink="http://www.w3.org/1999/xlink" x="0px" y="0px"
	 viewBox="0 0 50 50" style="enable-background:new 0 0 50 50;" xml:space="preserve">
<style type="text/css">
	.st0{opacity:0.2;}
	.st1{fill:#FFFFFF;}
	.st2{fill:#FF6D0C;}
</style>
<g>
	<g class="st0">
		<path d="M29.8,20.5l-0.6-0.7c-0.6,0.5-1.2,0.9-1.9,1.3l0.6,0.7C28.6,21.3,29.3,20.9,29.8,20.5z"/>
		<path d="M28,26.7h2.6V26H28v-1.1h-0.9V26h-3.3v-1.1H23V26h-2.7v0.8H23V28h-3.2v0.8h11.4V28H28V26.7z M27.1,28h-3.3v-1.3h3.3V28z"
			/>
		<path d="M26.5,29.7c1.8,0.6,3.2,1.1,4.1,1.5l0.4-0.8c-1.5-0.5-2.8-1-4.1-1.4L26.5,29.7z"/>
		<path d="M23.8,21c-0.6-0.4-1.3-0.8-2-1.2l-0.5,0.7c0.7,0.4,1.4,0.8,2,1.2L23.8,21z"/>
		<path d="M41,10.8c-0.2-0.3-0.5-0.6-0.8-0.8c-0.5-0.3-1.1-0.5-1.7-0.5h-26c-0.6,0-1.2,0.2-1.7,0.5c-0.3,0.2-0.6,0.5-0.8,0.8
			c-0.1,0.2-0.2,0.3-0.3,0.5c-0.2,0.4-0.2,0.8-0.2,1.2v26c0,1.7,1.4,3,3,3h26c1.7,0,3-1.3,3-3v-26c0-0.4-0.1-0.8-0.2-1.2
			C41.2,11.2,41.1,11,41,10.8z M35.5,35.5h-20v-20h20V35.5z"/>
		<path d="M20.2,25.2c1.9-0.5,3.5-1.2,4.9-2.2v2.1h0.9v-2c1.2,0.9,2.9,1.6,5,2c0.1-0.3,0.3-0.6,0.4-0.9c-2-0.2-3.6-0.7-4.9-1.5h4.5
			v-0.8h-5v-2.1H25v2.1h-5v0.8h4.4c-1.3,0.8-2.9,1.3-4.7,1.7C19.9,24.6,20.1,24.9,20.2,25.2z"/>
		<path d="M20,30.4c0.2,0.3,0.3,0.6,0.4,0.8c1.4-0.5,2.8-1,4.1-1.6L23.9,29C22.6,29.6,21.3,30,20,30.4z"/>
		<path d="M38.5,7.5h-26c-2.8,0-5,2.2-5,5v26c0,2.8,2.2,5,5,5h26c2.8,0,5-2.2,5-5v-26C43.5,9.7,41.3,7.5,38.5,7.5z M41.5,38.5
			c0,1.7-1.3,3-3,3h-26c-1.6,0-3-1.3-3-3v-26c0-0.4,0.1-0.8,0.2-1.2c0.1-0.2,0.2-0.3,0.3-0.5c0.2-0.3,0.5-0.6,0.8-0.8
			c0.5-0.3,1.1-0.5,1.7-0.5h26c0.6,0,1.2,0.2,1.7,0.5c0.3,0.2,0.6,0.5,0.8,0.8c0.1,0.2,0.2,0.3,0.3,0.5c0.2,0.4,0.2,0.8,0.2,1.2
			V38.5z"/>
		<rect x="23.8" y="26.7" width="3.3" height="1.3"/>
		<path d="M15.5,35.5h20v-20h-20V35.5z M20.4,31.2c-0.1-0.2-0.2-0.5-0.4-0.8c1.3-0.4,2.7-0.9,4-1.5l0.6,0.7
			C23.2,30.3,21.8,30.8,20.4,31.2z M30.6,31.2c-1-0.4-2.3-0.9-4.1-1.5l0.4-0.7c1.3,0.4,2.7,0.8,4.1,1.4L30.6,31.2z M31.2,28.8H19.8
			V28H23v-1.3h-2.7V26H23v-1.1h0.9V26h3.3v-1.1H28V26h2.6v0.8H28V28h3.2V28.8z M29.2,19.8l0.6,0.7c-0.5,0.4-1.2,0.8-2,1.3l-0.6-0.7
			C28,20.7,28.6,20.3,29.2,19.8z M21.8,19.9c0.7,0.4,1.3,0.8,2,1.2l-0.5,0.7c-0.6-0.4-1.3-0.8-2-1.2L21.8,19.9z M20,22.6v-0.8h5
			v-2.1h0.9v2.1h5v0.8h-4.5c1.3,0.8,2.9,1.3,4.9,1.5c-0.2,0.3-0.3,0.6-0.4,0.9c-2.1-0.4-3.7-1.1-5-2v2H25V23c-1.3,0.9-3,1.6-4.9,2.2
			c-0.1-0.3-0.3-0.6-0.4-0.9c1.8-0.4,3.4-0.9,4.7-1.7H20z"/>
	</g>
	<g>
		<g>
			<path class="st1" d="M28.8,19.5l-0.6-0.7c-0.6,0.5-1.2,0.9-1.9,1.3l0.6,0.7C27.6,20.3,28.3,19.9,28.8,19.5z"/>
			<path class="st1" d="M27,25.7h2.6V25H27v-1.1h-0.9V25h-3.3v-1.1H22V25h-2.7v0.8H22V27h-3.2v0.8h11.4V27H27V25.7z M26.1,27h-3.3
				v-1.3h3.3V27z"/>
			<path class="st1" d="M25.5,28.7c1.8,0.6,3.2,1.1,4.1,1.5l0.4-0.8c-1.5-0.5-2.8-1-4.1-1.4L25.5,28.7z"/>
			<path class="st1" d="M22.8,20c-0.6-0.4-1.3-0.8-2-1.2l-0.5,0.7c0.7,0.4,1.4,0.8,2,1.2L22.8,20z"/>
			<path class="st1" d="M40,9.8c-0.2-0.3-0.5-0.6-0.8-0.8c-0.5-0.3-1.1-0.5-1.7-0.5h-26c-0.6,0-1.2,0.2-1.7,0.5
				C9.5,9.2,9.2,9.5,9,9.8c-0.1,0.2-0.2,0.3-0.3,0.5c-0.2,0.4-0.2,0.8-0.2,1.2v26c0,1.7,1.4,3,3,3h26c1.7,0,3-1.3,3-3v-26
				c0-0.4-0.1-0.8-0.2-1.2C40.2,10.2,40.1,10,40,9.8z M34.5,34.5h-20v-20h20V34.5z"/>
			<path class="st1" d="M19.2,24.2c1.9-0.5,3.5-1.2,4.9-2.2v2.1h0.9v-2c1.2,0.9,2.9,1.6,5,2c0.1-0.3,0.3-0.6,0.4-0.9
				c-2-0.2-3.6-0.7-4.9-1.5h4.5v-0.8h-5v-2.1H24v2.1h-5v0.8h4.4c-1.3,0.8-2.9,1.3-4.7,1.7C18.9,23.6,19.1,23.9,19.2,24.2z"/>
			<path class="st1" d="M19,29.4c0.2,0.3,0.3,0.6,0.4,0.8c1.4-0.5,2.8-1,4.1-1.6L22.9,28C21.6,28.6,20.3,29,19,29.4z"/>
			<g>
				<path class="st2" d="M37.5,6.5h-26c-2.8,0-5,2.2-5,5v26c0,2.8,2.2,5,5,5h26c2.8,0,5-2.2,5-5v-26C42.5,8.7,40.3,6.5,37.5,6.5z
					 M40.5,37.5c0,1.7-1.3,3-3,3h-26c-1.6,0-3-1.3-3-3v-26c0-0.4,0.1-0.8,0.2-1.2C8.8,10.2,8.9,10,9,9.8C9.2,9.5,9.5,9.2,9.8,9
					c0.5-0.3,1.1-0.5,1.7-0.5h26c0.6,0,1.2,0.2,1.7,0.5c0.3,0.2,0.6,0.5,0.8,0.8c0.1,0.2,0.2,0.3,0.3,0.5c0.2,0.4,0.2,0.8,0.2,1.2
					V37.5z"/>
			</g>
			<rect x="22.8" y="25.7" class="st2" width="3.3" height="1.3"/>
			<path class="st2" d="M14.5,34.5h20v-20h-20V34.5z M19.4,30.2c-0.1-0.2-0.2-0.5-0.4-0.8c1.3-0.4,2.7-0.9,4-1.5l0.6,0.7
				C22.2,29.3,20.8,29.8,19.4,30.2z M29.6,30.2c-1-0.4-2.3-0.9-4.1-1.5l0.4-0.7c1.3,0.4,2.7,0.8,4.1,1.4L29.6,30.2z M30.2,27.8H18.8
				V27H22v-1.3h-2.7V25H22v-1.1h0.9V25h3.3v-1.1H27V25h2.6v0.8H27V27h3.2V27.8z M28.2,18.8l0.6,0.7c-0.5,0.4-1.2,0.8-2,1.3l-0.6-0.7
				C27,19.7,27.6,19.3,28.2,18.8z M20.8,18.9c0.7,0.4,1.3,0.8,2,1.2l-0.5,0.7c-0.6-0.4-1.3-0.8-2-1.2L20.8,18.9z M19,21.6v-0.8h5
				v-2.1h0.9v2.1h5v0.8h-4.5c1.3,0.8,2.9,1.3,4.9,1.5c-0.2,0.3-0.3,0.6-0.4,0.9c-2.1-0.4-3.7-1.1-5-2v2H24V22
				c-1.3,0.9-3,1.6-4.9,2.2c-0.1-0.3-0.3-0.6-0.4-0.9c1.8-0.4,3.4-0.9,4.7-1.7H19z"/>
		</g>
	</g>
</g>
</svg>
