<?xml version="1.0" encoding="utf-8"?>
<!-- Generator: Adobe Illustrator 21.0.2, SVG Export Plug-In . SVG Version: 6.00 Build 0)  -->
<svg version="1.1" id="图层_1" xmlns="http://www.w3.org/2000/svg" xmlns:xlink="http://www.w3.org/1999/xlink" x="0px" y="0px"
	 viewBox="0 0 50 50" style="enable-background:new 0 0 50 50;" xml:space="preserve">
<style type="text/css">
	.st0{opacity:0.2;}
	.st1{fill:#FFFFFF;}
	.st2{fill:#F93E54;}
</style>
<g>
	<g class="st0">
		<circle cx="18.2" cy="25.5" r="2.5"/>
		<circle cx="32.8" cy="25.5" r="2.5"/>
		<path d="M41.5,12.5c0-0.8-0.3-1.6-0.9-2.1s-1.3-0.9-2.1-0.9h-26c-1.7,0-3,1.3-3,3v26c0,0.8,0.3,1.6,0.9,2.1s1.3,0.9,2.1,0.9h26
			c0.8,0,1.6-0.3,2.1-0.9c0.5-0.5,0.9-1.3,0.9-2.1V12.5z M32.8,29c-1.6,0-2.9-1-3.3-2.4V29h-8v-2.3C21,28,19.7,29,18.2,29
			c-1.9,0-3.5-1.6-3.5-3.5s1.6-3.5,3.5-3.5c1.5,0,2.8,1,3.3,2.3V22h8v2.4c0.5-1.4,1.8-2.4,3.3-2.4c1.9,0,3.5,1.6,3.5,3.5
			S34.7,29,32.8,29z"/>
		<path d="M38.5,7.5h-26c-2.8,0-5,2.2-5,5v26c0,2.8,2.2,5,5,5h26c2.8,0,5-2.2,5-5v-26C43.5,9.7,41.3,7.5,38.5,7.5z M41.5,38.5
			c0,0.8-0.3,1.6-0.9,2.1s-1.3,0.9-2.1,0.9h-26c-0.8,0-1.6-0.3-2.1-0.9c-0.5-0.5-0.9-1.3-0.9-2.1v-26c0-1.7,1.3-3,3-3h26
			c0.8,0,1.6,0.3,2.1,0.9s0.9,1.3,0.9,2.1V38.5z"/>
		<path d="M18.2,22c-1.9,0-3.5,1.6-3.5,3.5s1.6,3.5,3.5,3.5c1.5,0,2.8-1,3.3-2.3v-2.3C21,23,19.7,22,18.2,22z M18.2,28
			c-1.4,0-2.5-1.1-2.5-2.5c0-1.4,1.1-2.5,2.5-2.5c1.4,0,2.5,1.1,2.5,2.5C20.7,26.9,19.6,28,18.2,28z"/>
		<path d="M32.8,22c-1.6,0-2.9,1-3.3,2.4v2.2c0.5,1.4,1.8,2.4,3.3,2.4c1.9,0,3.5-1.6,3.5-3.5S34.7,22,32.8,22z M32.8,28
			c-1.4,0-2.5-1.1-2.5-2.5c0-1.4,1.1-2.5,2.5-2.5c1.4,0,2.5,1.1,2.5,2.5C35.3,26.9,34.2,28,32.8,28z"/>
		<polygon points="29.5,22 21.5,22 21.5,24.3 21.5,26.7 21.5,29 29.5,29 29.5,26.6 29.5,24.4 		"/>
	</g>
	<g>
		<g>
			<circle class="st1" cx="17.2" cy="24.5" r="2.5"/>
			<circle class="st1" cx="31.8" cy="24.5" r="2.5"/>
			<path class="st1" d="M40.5,11.5c0-0.8-0.3-1.6-0.9-2.1s-1.3-0.9-2.1-0.9h-26c-1.7,0-3,1.3-3,3v26c0,0.8,0.3,1.6,0.9,2.1
				s1.3,0.9,2.1,0.9h26c0.8,0,1.6-0.3,2.1-0.9c0.5-0.5,0.9-1.3,0.9-2.1V11.5z M31.8,28c-1.6,0-2.9-1-3.3-2.4V28h-8v-2.3
				C20,27,18.7,28,17.2,28c-1.9,0-3.5-1.6-3.5-3.5s1.6-3.5,3.5-3.5c1.5,0,2.8,1,3.3,2.3V21h8v2.4c0.5-1.4,1.8-2.4,3.3-2.4
				c1.9,0,3.5,1.6,3.5,3.5S33.7,28,31.8,28z"/>
			<path class="st2" d="M37.5,6.5h-26c-2.8,0-5,2.2-5,5v26c0,2.8,2.2,5,5,5h26c2.8,0,5-2.2,5-5v-26C42.5,8.7,40.3,6.5,37.5,6.5z
				 M40.5,37.5c0,0.8-0.3,1.6-0.9,2.1s-1.3,0.9-2.1,0.9h-26c-0.8,0-1.6-0.3-2.1-0.9c-0.5-0.5-0.9-1.3-0.9-2.1v-26c0-1.7,1.3-3,3-3
				h26c0.8,0,1.6,0.3,2.1,0.9s0.9,1.3,0.9,2.1V37.5z"/>
			<path class="st2" d="M17.2,21c-1.9,0-3.5,1.6-3.5,3.5s1.6,3.5,3.5,3.5c1.5,0,2.8-1,3.3-2.3v-2.3C20,22,18.7,21,17.2,21z M17.2,27
				c-1.4,0-2.5-1.1-2.5-2.5c0-1.4,1.1-2.5,2.5-2.5c1.4,0,2.5,1.1,2.5,2.5C19.7,25.9,18.6,27,17.2,27z"/>
			<path class="st2" d="M31.8,21c-1.6,0-2.9,1-3.3,2.4v2.2c0.5,1.4,1.8,2.4,3.3,2.4c1.9,0,3.5-1.6,3.5-3.5S33.7,21,31.8,21z
				 M31.8,27c-1.4,0-2.5-1.1-2.5-2.5c0-1.4,1.1-2.5,2.5-2.5c1.4,0,2.5,1.1,2.5,2.5C34.3,25.9,33.2,27,31.8,27z"/>
			<g>
				<polygon class="st2" points="28.5,21 20.5,21 20.5,23.3 20.5,25.7 20.5,28 28.5,28 28.5,25.6 28.5,23.4 				"/>
			</g>
		</g>
	</g>
</g>
</svg>
