<?xml version="1.0" encoding="utf-8"?>
<!-- Generator: Adobe Illustrator 21.0.2, SVG Export Plug-In . SVG Version: 6.00 Build 0)  -->
<svg version="1.1" id="图层_1" xmlns="http://www.w3.org/2000/svg" xmlns:xlink="http://www.w3.org/1999/xlink" x="0px" y="0px"
	 viewBox="0 0 50 50" style="enable-background:new 0 0 50 50;" xml:space="preserve">
<style type="text/css">
	.st0{opacity:0.2;}
	.st1{fill:#FFFFFF;}
	.st2{fill:#F93E54;}
</style>
<g>
	<g class="st0">
		<rect x="29.8" y="32.6" width="5.9" height="1.8"/>
		<rect x="29.5" y="29.6" width="3.4" height="1"/>
		<path d="M16.4,20.1v14.8h7.8V20.1l-3.9-3.9L16.4,20.1z M20.8,32h-1V20h1V32z"/>
		<rect x="29.5" y="26.8" width="3.4" height="1"/>
		<path d="M41,10.8c-0.2-0.3-0.5-0.6-0.8-0.8c-0.5-0.3-1.1-0.5-1.7-0.5h-26c-0.6,0-1.2,0.2-1.7,0.5c-0.3,0.2-0.6,0.5-0.8,0.8
			c-0.1,0.2-0.2,0.3-0.3,0.5c-0.2,0.4-0.2,0.8-0.2,1.2v26c0,1.7,1.4,3,3,3h26c1.7,0,3-1.3,3-3v-26c0-0.4-0.1-0.8-0.2-1.2
			C41.2,11.2,41.1,11,41,10.8z M32.6,24.6c0.5,0.4,1,0.8,1.4,1.3l-0.4,0.4c-0.4-0.5-0.9-0.9-1.4-1.3L32.6,24.6z M25.2,35.9h-9.8
			V21.1l-1.6,1.6L13.1,22l7.2-7.2l0.4,0.3l6.9,6.9l-0.7,0.7l-1.6-1.6V35.9z M36.2,35.7h-0.6c0-0.4,0.1-0.7,0.1-0.9h-5.9v0.1
			c0,0.1,0,0.4,0.1,0.8h-0.6c0-0.4,0.1-0.7,0.1-0.8v-2c0-0.2,0-0.4-0.1-0.8c0.4,0,0.7,0.1,0.9,0.1h5.1c0.1,0,0.4,0,0.9-0.1
			c0,0.2,0,0.5-0.1,0.8v1.8C36.2,34.9,36.2,35.2,36.2,35.7z M37.8,31.2c-0.4,0-0.6-0.1-0.7-0.1h-7.6c0,0.1,0,0.3,0.1,0.6H29
			c0-0.3,0.1-0.5,0.1-0.6v-3.7c-0.5,0.6-1,1.2-1.4,1.7c-0.2-0.1-0.4-0.3-0.6-0.3c1.4-1.1,2.4-2.4,3-4l0.8,0.4
			c-0.3,0.1-0.5,0.3-0.6,0.6c-0.1,0.1-0.2,0.3-0.3,0.5c-0.1,0.1-0.1,0.2-0.1,0.2h6.8c0.2,0,0.4,0,0.7-0.1v0.5
			c-0.3,0-0.6-0.1-0.7-0.1h-3.2v1h2.6c0.1,0,0.4,0,0.8-0.1v0.5c-0.4,0-0.6-0.1-0.8-0.1h-2.6v1h2.6c0.1,0,0.4,0,0.8-0.1v0.5
			c-0.4,0-0.6-0.1-0.7-0.1h-2.6v1H37c0.1,0,0.4,0,0.8-0.1V31.2z"/>
		<rect x="29.5" y="28.2" width="3.4" height="1"/>
		<path d="M38.5,7.5h-26c-2.8,0-5,2.2-5,5v26c0,2.8,2.2,5,5,5h26c2.8,0,5-2.2,5-5v-26C43.5,9.7,41.3,7.5,38.5,7.5z M41.5,38.5
			c0,1.7-1.3,3-3,3h-26c-1.6,0-3-1.3-3-3v-26c0-0.4,0.1-0.8,0.2-1.2c0.1-0.2,0.2-0.3,0.3-0.5c0.2-0.3,0.5-0.6,0.8-0.8
			c0.5-0.3,1.1-0.5,1.7-0.5h26c0.6,0,1.2,0.2,1.7,0.5c0.3,0.2,0.6,0.5,0.8,0.8c0.1,0.2,0.2,0.3,0.3,0.5c0.2,0.4,0.2,0.8,0.2,1.2
			V38.5z"/>
		<path d="M27.5,22l-6.9-6.9l-0.4-0.3L13.1,22l0.7,0.7l1.6-1.6v14.8h9.8V21.1l1.6,1.6L27.5,22z M24.2,34.9h-7.8V20.1l3.9-3.9
			l3.9,3.9V34.9z"/>
		<rect x="19.8" y="20" width="1" height="12"/>
		<path d="M33.3,30.7v-1h2.6c0.1,0,0.4,0,0.7,0.1v-0.5c-0.4,0-0.7,0.1-0.8,0.1h-2.6v-1h2.6c0.2,0,0.4,0,0.8,0.1v-0.5
			c-0.4,0-0.6,0.1-0.8,0.1h-2.6v-1h3.2c0.2,0,0.4,0,0.7,0.1v-0.5c-0.3,0-0.6,0.1-0.7,0.1h-6.8c0-0.1,0.1-0.1,0.1-0.2
			c0.1-0.2,0.2-0.3,0.3-0.5c0.2-0.3,0.4-0.5,0.6-0.6L30,24.7c-0.7,1.6-1.7,3-3,4c0.2,0.1,0.4,0.2,0.6,0.3c0.5-0.5,0.9-1.1,1.4-1.7
			v3.7c0,0.1,0,0.3-0.1,0.6h0.6c0-0.3-0.1-0.5-0.1-0.6h7.6c0.1,0,0.4,0,0.7,0.1v-0.5c-0.4,0-0.6,0.1-0.8,0.1H33.3z M32.9,30.7h-3.4
			v-1h3.4V30.7z M32.9,29.2h-3.4v-1h3.4V29.2z M32.9,27.8h-3.4v-1h3.4V27.8z"/>
		<path d="M33.6,26.2l0.4-0.4c-0.5-0.5-0.9-0.9-1.4-1.3L32.2,25C32.7,25.3,33.2,25.7,33.6,26.2z"/>
		<path d="M36.2,32.1c-0.5,0-0.8,0.1-0.9,0.1h-5.1c-0.2,0-0.5,0-0.9-0.1c0,0.4,0.1,0.7,0.1,0.8v2c0,0.1,0,0.4-0.1,0.8h0.6
			c0-0.4-0.1-0.7-0.1-0.8v-0.1h5.9c0,0.2,0,0.4-0.1,0.9h0.6c0-0.5-0.1-0.8-0.1-0.9V33C36.2,32.6,36.2,32.4,36.2,32.1z M35.7,34.4
			h-5.9v-1.8h5.9V34.4z"/>
	</g>
	<g>
		<g>
			<rect x="28.8" y="31.6" class="st1" width="5.9" height="1.8"/>
			<rect x="28.5" y="28.6" class="st1" width="3.4" height="1"/>
			<path class="st1" d="M15.4,19.1v14.8h7.8V19.1l-3.9-3.9L15.4,19.1z M19.8,31h-1V19h1V31z"/>
			<rect x="28.5" y="25.8" class="st1" width="3.4" height="1"/>
			<path class="st1" d="M40,9.8c-0.2-0.3-0.5-0.6-0.8-0.8c-0.5-0.3-1.1-0.5-1.7-0.5h-26c-0.6,0-1.2,0.2-1.7,0.5
				C9.5,9.2,9.2,9.5,9,9.8c-0.1,0.2-0.2,0.3-0.3,0.5c-0.2,0.4-0.2,0.8-0.2,1.2v26c0,1.7,1.4,3,3,3h26c1.7,0,3-1.3,3-3v-26
				c0-0.4-0.1-0.8-0.2-1.2C40.2,10.2,40.1,10,40,9.8z M31.6,23.6c0.5,0.4,1,0.8,1.4,1.3l-0.4,0.4c-0.4-0.5-0.9-0.9-1.4-1.3
				L31.6,23.6z M24.2,34.9h-9.8V20.1l-1.6,1.6L12.1,21l7.2-7.2l0.4,0.3l6.9,6.9l-0.7,0.7l-1.6-1.6V34.9z M35.2,34.7h-0.6
				c0-0.4,0.1-0.7,0.1-0.9h-5.9v0.1c0,0.1,0,0.4,0.1,0.8h-0.6c0-0.4,0.1-0.7,0.1-0.8v-2c0-0.2,0-0.4-0.1-0.8c0.4,0,0.7,0.1,0.9,0.1
				h5.1c0.1,0,0.4,0,0.9-0.1c0,0.2,0,0.5-0.1,0.8v1.8C35.2,33.9,35.2,34.2,35.2,34.7z M36.8,30.2c-0.4,0-0.6-0.1-0.7-0.1h-7.6
				c0,0.1,0,0.3,0.1,0.6H28c0-0.3,0.1-0.5,0.1-0.6v-3.7c-0.5,0.6-1,1.2-1.4,1.7c-0.2-0.1-0.4-0.3-0.6-0.3c1.4-1.1,2.4-2.4,3-4
				l0.8,0.4c-0.3,0.1-0.5,0.3-0.6,0.6c-0.1,0.1-0.2,0.3-0.3,0.5c-0.1,0.1-0.1,0.2-0.1,0.2h6.8c0.2,0,0.4,0,0.7-0.1v0.5
				c-0.3,0-0.6-0.1-0.7-0.1h-3.2v1h2.6c0.1,0,0.4,0,0.8-0.1v0.5c-0.4,0-0.6-0.1-0.8-0.1h-2.6v1h2.6c0.1,0,0.4,0,0.8-0.1v0.5
				c-0.4,0-0.6-0.1-0.7-0.1h-2.6v1H36c0.1,0,0.4,0,0.8-0.1V30.2z"/>
			<rect x="28.5" y="27.2" class="st1" width="3.4" height="1"/>
			<path class="st2" d="M37.5,6.5h-26c-2.8,0-5,2.2-5,5v26c0,2.8,2.2,5,5,5h26c2.8,0,5-2.2,5-5v-26C42.5,8.7,40.3,6.5,37.5,6.5z
				 M40.5,37.5c0,1.7-1.3,3-3,3h-26c-1.6,0-3-1.3-3-3v-26c0-0.4,0.1-0.8,0.2-1.2C8.8,10.2,8.9,10,9,9.8C9.2,9.5,9.5,9.2,9.8,9
				c0.5-0.3,1.1-0.5,1.7-0.5h26c0.6,0,1.2,0.2,1.7,0.5c0.3,0.2,0.6,0.5,0.8,0.8c0.1,0.2,0.2,0.3,0.3,0.5c0.2,0.4,0.2,0.8,0.2,1.2
				V37.5z"/>
			<path class="st2" d="M26.5,21l-6.9-6.9l-0.4-0.3L12.1,21l0.7,0.7l1.6-1.6v14.8h9.8V20.1l1.6,1.6L26.5,21z M23.2,33.9h-7.8V19.1
				l3.9-3.9l3.9,3.9V33.9z"/>
			<rect x="18.8" y="19" class="st2" width="1" height="12"/>
			<path class="st2" d="M32.3,29.7v-1h2.6c0.1,0,0.4,0,0.7,0.1v-0.5c-0.4,0-0.7,0.1-0.8,0.1h-2.6v-1h2.6c0.2,0,0.4,0,0.8,0.1v-0.5
				c-0.4,0-0.6,0.1-0.8,0.1h-2.6v-1h3.2c0.2,0,0.4,0,0.7,0.1v-0.5c-0.3,0-0.6,0.1-0.7,0.1h-6.8c0-0.1,0.1-0.1,0.1-0.2
				c0.1-0.2,0.2-0.3,0.3-0.5c0.2-0.3,0.4-0.5,0.6-0.6L29,23.7c-0.7,1.6-1.7,3-3,4c0.2,0.1,0.4,0.2,0.6,0.3c0.5-0.5,0.9-1.1,1.4-1.7
				v3.7c0,0.1,0,0.3-0.1,0.6h0.6c0-0.3-0.1-0.5-0.1-0.6h7.6c0.1,0,0.4,0,0.7,0.1v-0.5c-0.4,0-0.6,0.1-0.8,0.1H32.3z M31.9,29.7h-3.4
				v-1h3.4V29.7z M31.9,28.2h-3.4v-1h3.4V28.2z M31.9,26.8h-3.4v-1h3.4V26.8z"/>
			<path class="st2" d="M32.6,25.2l0.4-0.4c-0.5-0.5-0.9-0.9-1.4-1.3L31.2,24C31.7,24.3,32.2,24.7,32.6,25.2z"/>
			<path class="st2" d="M35.2,31.1c-0.5,0-0.8,0.1-0.9,0.1h-5.1c-0.2,0-0.5,0-0.9-0.1c0,0.4,0.1,0.7,0.1,0.8v2c0,0.1,0,0.4-0.1,0.8
				h0.6c0-0.4-0.1-0.7-0.1-0.8v-0.1h5.9c0,0.2,0,0.4-0.1,0.9h0.6c0-0.5-0.1-0.8-0.1-0.9V32C35.2,31.6,35.2,31.4,35.2,31.1z
				 M34.7,33.4h-5.9v-1.8h5.9V33.4z"/>
		</g>
	</g>
</g>
</svg>
