<?xml version="1.0" encoding="utf-8"?>
<!-- Generator: Adobe Illustrator 21.0.2, SVG Export Plug-In . SVG Version: 6.00 Build 0)  -->
<svg version="1.1" id="图层_1" xmlns="http://www.w3.org/2000/svg" xmlns:xlink="http://www.w3.org/1999/xlink" x="0px" y="0px"
	 viewBox="0 0 50 50" style="enable-background:new 0 0 50 50;" xml:space="preserve">
<style type="text/css">
	.st0{opacity:0.2;}
	.st1{fill:#FFFFFF;}
	.st2{fill:#22AC38;}
</style>
<g>
	<g class="st0">
		<path d="M21,31.2c0,2.5,2,4.5,4.5,4.5s4.5-2,4.5-4.5s-2-4.5-4.5-4.5S21,28.7,21,31.2z M28,31.2c0,1.4-1.1,2.5-2.5,2.5
			S23,32.6,23,31.2s1.1-2.5,2.5-2.5S28,29.8,28,31.2z"/>
		<path d="M41,10.8c-0.2-0.3-0.5-0.6-0.8-0.8c-0.5-0.3-1.1-0.5-1.7-0.5h-26c-0.6,0-1.2,0.2-1.7,0.5c-0.3,0.2-0.6,0.5-0.8,0.8
			c-0.1,0.2-0.2,0.3-0.3,0.5c-0.2,0.4-0.2,0.8-0.2,1.2v26c0,1.7,1.3,3,3,3h26c1.7,0,3-1.3,3-3v-26c0-0.4-0.1-0.8-0.2-1.2
			C41.2,11.2,41.1,11,41,10.8z M29.1,17.9c1.7-0.1,3.3,0.7,4.8,2.3l-0.7,0.7c-1.3-1.4-2.7-2.1-4-2c-1.7,0.1-2.9,1.5-3.2,1.9v5
			c2.8,0.2,5,2.6,5,5.5c0,3-2.5,5.5-5.5,5.5S20,34.2,20,31.2c0-2.9,2.2-5.2,5-5.5v-4.9c-1.3-1.3-2.6-2-3.9-1.9c-2,0.1-3.3,2-3.3,2
			L17,20.3c0.1-0.1,1.6-2.2,4-2.4c1.3-0.1,2.7,0.4,4,1.5v-2.2c-1.3-1.3-2.6-2-3.9-1.9c-2,0.1-3.3,2-3.3,2L17,16.7
			c0.1-0.1,1.6-2.2,4-2.4c1.5-0.1,3,0.6,4.4,2c0.6-0.7,1.9-1.8,3.7-2c1.7-0.1,3.3,0.7,4.8,2.3l-0.7,0.7c-1.4-1.4-2.7-2.1-4-2
			c-1.7,0.1-2.9,1.5-3.2,1.9v2.2C26.7,18.7,27.8,18,29.1,17.9z"/>
		<circle cx="25.5" cy="31.2" r="1.5"/>
		<path d="M38.5,7.5h-26c-2.8,0-5,2.2-5,5v26c0,2.8,2.2,5,5,5h26c2.8,0,5-2.2,5-5v-26C43.5,9.7,41.3,7.5,38.5,7.5z M41.5,38.5
			c0,1.7-1.3,3-3,3h-26c-1.7,0-3-1.3-3-3v-26c0-0.4,0.1-0.8,0.2-1.2c0.1-0.2,0.2-0.3,0.3-0.5c0.2-0.3,0.5-0.6,0.8-0.8
			c0.5-0.3,1.1-0.5,1.7-0.5h26c0.6,0,1.2,0.2,1.7,0.5c0.3,0.2,0.6,0.5,0.8,0.8c0.1,0.2,0.2,0.3,0.3,0.5c0.2,0.4,0.2,0.8,0.2,1.2
			V38.5z"/>
		<path d="M23,31.2c0,1.4,1.1,2.5,2.5,2.5s2.5-1.1,2.5-2.5s-1.1-2.5-2.5-2.5S23,29.8,23,31.2z M27,31.2c0,0.8-0.7,1.5-1.5,1.5
			S24,32,24,31.2s0.7-1.5,1.5-1.5S27,30.4,27,31.2z"/>
		<path d="M29.2,15.3c1.3-0.1,2.7,0.6,4,2l0.7-0.7c-1.6-1.7-3.2-2.5-4.8-2.3c-1.8,0.1-3.1,1.3-3.7,2c-1.4-1.4-2.9-2.1-4.4-2
			c-2.5,0.2-4,2.3-4,2.4l0.8,0.6c0,0,1.3-1.8,3.3-2c1.3-0.1,2.6,0.6,3.9,1.9v2.2c-1.3-1.1-2.6-1.6-4-1.5c-2.5,0.2-4,2.3-4,2.4
			l0.8,0.6c0,0,1.3-1.8,3.3-2c1.3-0.1,2.6,0.6,3.9,1.9v4.9c-2.8,0.3-5,2.6-5,5.5c0,3,2.5,5.5,5.5,5.5s5.5-2.5,5.5-5.5
			c0-2.9-2.2-5.2-5-5.5v-5c0.3-0.4,1.5-1.8,3.2-1.9c1.3-0.1,2.7,0.6,4,2l0.7-0.7c-1.6-1.7-3.2-2.5-4.8-2.3c-1.4,0.1-2.4,0.8-3.1,1.4
			v-2.2C26.3,16.8,27.5,15.4,29.2,15.3z M30,31.2c0,2.5-2,4.5-4.5,4.5s-4.5-2-4.5-4.5s2-4.5,4.5-4.5S30,28.7,30,31.2z"/>
	</g>
	<g>
		<g>
			<path class="st1" d="M20,30.2c0,2.5,2,4.5,4.5,4.5s4.5-2,4.5-4.5s-2-4.5-4.5-4.5S20,27.7,20,30.2z M27,30.2
				c0,1.4-1.1,2.5-2.5,2.5S22,31.6,22,30.2s1.1-2.5,2.5-2.5S27,28.8,27,30.2z"/>
			<path class="st1" d="M40,9.8c-0.2-0.3-0.5-0.6-0.8-0.8c-0.5-0.3-1.1-0.5-1.7-0.5h-26c-0.6,0-1.2,0.2-1.7,0.5
				C9.5,9.2,9.2,9.5,9,9.8c-0.1,0.2-0.2,0.3-0.3,0.5c-0.2,0.4-0.2,0.8-0.2,1.2v26c0,1.7,1.3,3,3,3h26c1.7,0,3-1.3,3-3v-26
				c0-0.4-0.1-0.8-0.2-1.2C40.2,10.2,40.1,10,40,9.8z M28.1,16.9c1.7-0.1,3.3,0.7,4.8,2.3l-0.7,0.7c-1.3-1.4-2.7-2.1-4-2
				c-1.7,0.1-2.9,1.5-3.2,1.9v5c2.8,0.2,5,2.6,5,5.5c0,3-2.5,5.5-5.5,5.5S19,33.2,19,30.2c0-2.9,2.2-5.2,5-5.5v-4.9
				c-1.3-1.3-2.6-2-3.9-1.9c-2,0.1-3.3,2-3.3,2L16,19.3c0.1-0.1,1.6-2.2,4-2.4c1.3-0.1,2.7,0.4,4,1.5v-2.2c-1.3-1.3-2.6-2-3.9-1.9
				c-2,0.1-3.3,2-3.3,2L16,15.7c0.1-0.1,1.6-2.2,4-2.4c1.5-0.1,3,0.6,4.4,2c0.6-0.7,1.9-1.8,3.7-2c1.7-0.1,3.3,0.7,4.8,2.3l-0.7,0.7
				c-1.4-1.4-2.7-2.1-4-2c-1.7,0.1-2.9,1.5-3.2,1.9v2.2C25.7,17.7,26.8,17,28.1,16.9z"/>
			<circle class="st1" cx="24.5" cy="30.2" r="1.5"/>
			<path class="st2" d="M37.5,6.5h-26c-2.8,0-5,2.2-5,5v26c0,2.8,2.2,5,5,5h26c2.8,0,5-2.2,5-5v-26C42.5,8.7,40.3,6.5,37.5,6.5z
				 M40.5,37.5c0,1.7-1.3,3-3,3h-26c-1.7,0-3-1.3-3-3v-26c0-0.4,0.1-0.8,0.2-1.2C8.8,10.2,8.9,10,9,9.8C9.2,9.5,9.5,9.2,9.8,9
				c0.5-0.3,1.1-0.5,1.7-0.5h26c0.6,0,1.2,0.2,1.7,0.5c0.3,0.2,0.6,0.5,0.8,0.8c0.1,0.2,0.2,0.3,0.3,0.5c0.2,0.4,0.2,0.8,0.2,1.2
				V37.5z"/>
			<path class="st2" d="M22,30.2c0,1.4,1.1,2.5,2.5,2.5s2.5-1.1,2.5-2.5s-1.1-2.5-2.5-2.5S22,28.8,22,30.2z M26,30.2
				c0,0.8-0.7,1.5-1.5,1.5S23,31,23,30.2s0.7-1.5,1.5-1.5S26,29.4,26,30.2z"/>
			<path class="st2" d="M28.2,14.3c1.3-0.1,2.7,0.6,4,2l0.7-0.7c-1.6-1.7-3.2-2.5-4.8-2.3c-1.8,0.1-3.1,1.3-3.7,2
				c-1.4-1.4-2.9-2.1-4.4-2c-2.5,0.2-4,2.3-4,2.4l0.8,0.6c0,0,1.3-1.8,3.3-2c1.3-0.1,2.6,0.6,3.9,1.9v2.2c-1.3-1.1-2.6-1.6-4-1.5
				c-2.5,0.2-4,2.3-4,2.4l0.8,0.6c0,0,1.3-1.8,3.3-2c1.3-0.1,2.6,0.6,3.9,1.9v4.9c-2.8,0.3-5,2.6-5,5.5c0,3,2.5,5.5,5.5,5.5
				s5.5-2.5,5.5-5.5c0-2.9-2.2-5.2-5-5.5v-5c0.3-0.4,1.5-1.8,3.2-1.9c1.3-0.1,2.7,0.6,4,2l0.7-0.7c-1.6-1.7-3.2-2.5-4.8-2.3
				c-1.4,0.1-2.4,0.8-3.1,1.4v-2.2C25.3,15.8,26.5,14.4,28.2,14.3z M29,30.2c0,2.5-2,4.5-4.5,4.5s-4.5-2-4.5-4.5s2-4.5,4.5-4.5
				S29,27.7,29,30.2z"/>
		</g>
	</g>
</g>
</svg>
