<?xml version="1.0" encoding="utf-8"?>
<!-- Generator: Adobe Illustrator 21.0.2, SVG Export Plug-In . SVG Version: 6.00 Build 0)  -->
<svg version="1.1" id="图层_1" xmlns="http://www.w3.org/2000/svg" xmlns:xlink="http://www.w3.org/1999/xlink" x="0px" y="0px"
	 viewBox="0 0 50 50" style="enable-background:new 0 0 50 50;" xml:space="preserve">
<style type="text/css">
	.st0{opacity:0.2;}
	.st1{fill:#FFFFFF;}
	.st2{fill:#FF6D0C;}
</style>
<g>
	<g class="st0">
		<path d="M29.7,21.5c0.3-0.3,0.4-0.7,0.4-1.3c0-0.6-0.1-1-0.4-1.3s-0.7-0.4-1.2-0.4H28v3.5h0.4C29,21.9,29.4,21.8,29.7,21.5z"/>
		<path d="M21.5,26.1c0.4,0,0.7-0.1,0.9-0.4s0.3-0.7,0.3-1.3v-1.7c0-0.4-0.1-0.7-0.4-1s-0.5-0.4-0.9-0.4c-0.4,0-0.6,0.2-0.8,0.5
			s-0.2,1-0.2,2c0,0.9,0.1,1.5,0.2,1.8S21.1,26.1,21.5,26.1z"/>
		<path d="M30.3,24.2c0-0.7-0.1-1.3-0.4-1.6s-0.8-0.5-1.5-0.5H28v4h0.6c0.5,0,1-0.2,1.2-0.5S30.3,24.8,30.3,24.2z"/>
		<path d="M37.5,15.5h-24v20h24V15.5z M25.3,26.1h0.9v-7.6h-0.9v-0.2h3.3c1,0,1.8,0.2,2.3,0.5s0.8,0.8,0.8,1.4
			c0,0.5-0.2,0.9-0.5,1.2s-0.9,0.5-1.6,0.6V22c0.8,0.1,1.5,0.3,1.9,0.7s0.7,0.9,0.7,1.5c0,0.7-0.3,1.2-0.8,1.6s-1.3,0.6-2.3,0.6
			h-3.8V26.1z M19.5,21.8c0.5-0.5,1.1-0.7,1.8-0.7c0.3,0,0.6,0.1,0.8,0.2s0.4,0.4,0.6,0.7v-3.6H22v-0.2H23c0.3,0,0.5,0,0.8,0
			s0.4-0.1,0.6-0.1v8H25v0.2h-0.9c-0.3,0-0.5,0-0.7,0s-0.4,0.1-0.6,0.1v-1c-0.2,0.3-0.4,0.6-0.7,0.7s-0.6,0.2-0.9,0.2
			c-0.7,0-1.2-0.3-1.7-0.8s-0.7-1.2-0.7-1.9C18.8,22.9,19,22.3,19.5,21.8z M31.5,32.9h-12v-1h12V32.9z M33.5,30.9h-16v-1h16V30.9z
			 M35.5,28.9h-20v-1h20V28.9z"/>
		<path d="M41,10.8c-0.2-0.3-0.5-0.6-0.8-0.8c-0.5-0.3-1.1-0.5-1.7-0.5h-26c-0.6,0-1.2,0.2-1.7,0.5c-0.3,0.2-0.6,0.5-0.8,0.8
			c-0.1,0.2-0.2,0.3-0.3,0.5c-0.2,0.4-0.2,0.8-0.2,1.2v26c0,1.7,1.4,3,3,3h26c1.7,0,3-1.3,3-3v-26c0-0.4-0.1-0.8-0.2-1.2
			C41.2,11.2,41.1,11,41,10.8z M38.5,36.5h-26v-22h26V36.5z"/>
		<path d="M38.5,7.5h-26c-2.8,0-5,2.2-5,5v26c0,2.8,2.2,5,5,5h26c2.8,0,5-2.2,5-5v-26C43.5,9.7,41.3,7.5,38.5,7.5z M41.5,38.5
			c0,1.7-1.3,3-3,3h-26c-1.6,0-3-1.3-3-3v-26c0-0.4,0.1-0.8,0.2-1.2c0.1-0.2,0.2-0.3,0.3-0.5c0.2-0.3,0.5-0.6,0.8-0.8
			c0.5-0.3,1.1-0.5,1.7-0.5h26c0.6,0,1.2,0.2,1.7,0.5c0.3,0.2,0.6,0.5,0.8,0.8c0.1,0.2,0.2,0.3,0.3,0.5c0.2,0.4,0.2,0.8,0.2,1.2
			V38.5z"/>
		<path d="M12.5,36.5h26v-22h-26V36.5z M13.5,15.5h24v20h-24V15.5z"/>
		<path d="M21.2,26.4c0.3,0,0.6-0.1,0.9-0.2s0.5-0.4,0.7-0.7v1c0.2-0.1,0.4-0.1,0.6-0.1s0.4,0,0.7,0H25v-0.2h-0.7v-8
			c-0.2,0-0.4,0.1-0.6,0.1s-0.5,0-0.8,0H22v0.2h0.7V22c-0.2-0.3-0.4-0.5-0.6-0.7s-0.5-0.2-0.8-0.2c-0.7,0-1.3,0.2-1.8,0.7
			s-0.7,1.1-0.7,1.9c0,0.7,0.2,1.4,0.7,1.9S20.6,26.4,21.2,26.4z M20.7,21.8c0.1-0.3,0.4-0.5,0.8-0.5c0.3,0,0.6,0.1,0.9,0.4
			s0.4,0.6,0.4,1v1.7c0,0.5-0.1,1-0.3,1.3s-0.5,0.4-0.9,0.4c-0.4,0-0.6-0.2-0.8-0.5s-0.2-0.9-0.2-1.8C20.5,22.8,20.6,22.2,20.7,21.8
			z"/>
		<path d="M31.4,25.7c0.6-0.4,0.8-0.9,0.8-1.6c0-0.6-0.2-1.1-0.7-1.5S30.5,22,29.6,22v-0.1c0.7-0.1,1.2-0.3,1.6-0.6s0.5-0.7,0.5-1.2
			c0-0.6-0.3-1.1-0.8-1.4s-1.3-0.5-2.3-0.5h-3.3v0.2h0.9v7.6h-0.9v0.2h3.8C30.1,26.2,30.8,26,31.4,25.7z M28,18.4h0.4
			c0.5,0,1,0.1,1.2,0.4s0.4,0.7,0.4,1.3c0,0.6-0.1,1.1-0.4,1.3s-0.7,0.4-1.2,0.4H28V18.4z M28,26.1v-4h0.4c0.7,0,1.2,0.2,1.5,0.5
			s0.4,0.8,0.4,1.6c0,0.6-0.1,1.1-0.4,1.4s-0.7,0.5-1.2,0.5H28z"/>
		<rect x="19.5" y="31.9" width="12" height="1"/>
		<rect x="17.5" y="29.9" width="16" height="1"/>
		<rect x="15.5" y="27.9" width="20" height="1"/>
	</g>
	<g>
		<g>
			<path class="st1" d="M28.7,20.5c0.3-0.3,0.4-0.7,0.4-1.3c0-0.6-0.1-1-0.4-1.3s-0.7-0.4-1.2-0.4H27v3.5h0.4
				C28,20.9,28.4,20.8,28.7,20.5z"/>
			<path class="st1" d="M20.5,25.1c0.4,0,0.7-0.1,0.9-0.4s0.3-0.7,0.3-1.3v-1.7c0-0.4-0.1-0.7-0.4-1s-0.5-0.4-0.9-0.4
				c-0.4,0-0.6,0.2-0.8,0.5s-0.2,1-0.2,2c0,0.9,0.1,1.5,0.2,1.8S20.1,25.1,20.5,25.1z"/>
			<path class="st1" d="M29.3,23.2c0-0.7-0.1-1.3-0.4-1.6s-0.8-0.5-1.5-0.5H27v4h0.6c0.5,0,1-0.2,1.2-0.5S29.3,23.8,29.3,23.2z"/>
			<path class="st1" d="M36.5,14.5h-24v20h24V14.5z M24.3,25.1h0.9v-7.6h-0.9v-0.2h3.3c1,0,1.8,0.2,2.3,0.5s0.8,0.8,0.8,1.4
				c0,0.5-0.2,0.9-0.5,1.2s-0.9,0.5-1.6,0.6V21c0.8,0.1,1.5,0.3,1.9,0.7s0.7,0.9,0.7,1.5c0,0.7-0.3,1.2-0.8,1.6s-1.3,0.6-2.3,0.6
				h-3.8V25.1z M18.5,20.8c0.5-0.5,1.1-0.7,1.8-0.7c0.3,0,0.6,0.1,0.8,0.2s0.4,0.4,0.6,0.7v-3.6H21v-0.2H22c0.3,0,0.5,0,0.8,0
				s0.4-0.1,0.6-0.1v8H24v0.2h-0.9c-0.3,0-0.5,0-0.7,0s-0.4,0.1-0.6,0.1v-1c-0.2,0.3-0.4,0.6-0.7,0.7s-0.6,0.2-0.9,0.2
				c-0.7,0-1.2-0.3-1.7-0.8s-0.7-1.2-0.7-1.9C17.8,21.9,18,21.3,18.5,20.8z M30.5,31.9h-12v-1h12V31.9z M32.5,29.9h-16v-1h16V29.9z
				 M34.5,27.9h-20v-1h20V27.9z"/>
			<path class="st1" d="M40,9.8c-0.2-0.3-0.5-0.6-0.8-0.8c-0.5-0.3-1.1-0.5-1.7-0.5h-26c-0.6,0-1.2,0.2-1.7,0.5
				C9.5,9.2,9.2,9.5,9,9.8c-0.1,0.2-0.2,0.3-0.3,0.5c-0.2,0.4-0.2,0.8-0.2,1.2v26c0,1.7,1.4,3,3,3h26c1.7,0,3-1.3,3-3v-26
				c0-0.4-0.1-0.8-0.2-1.2C40.2,10.2,40.1,10,40,9.8z M37.5,35.5h-26v-22h26V35.5z"/>
			<g>
				<path class="st2" d="M37.5,6.5h-26c-2.8,0-5,2.2-5,5v26c0,2.8,2.2,5,5,5h26c2.8,0,5-2.2,5-5v-26C42.5,8.7,40.3,6.5,37.5,6.5z
					 M40.5,37.5c0,1.7-1.3,3-3,3h-26c-1.6,0-3-1.3-3-3v-26c0-0.4,0.1-0.8,0.2-1.2C8.8,10.2,8.9,10,9,9.8C9.2,9.5,9.5,9.2,9.8,9
					c0.5-0.3,1.1-0.5,1.7-0.5h26c0.6,0,1.2,0.2,1.7,0.5c0.3,0.2,0.6,0.5,0.8,0.8c0.1,0.2,0.2,0.3,0.3,0.5c0.2,0.4,0.2,0.8,0.2,1.2
					V37.5z"/>
			</g>
			<path class="st2" d="M11.5,35.5h26v-22h-26V35.5z M12.5,14.5h24v20h-24V14.5z"/>
			<path class="st2" d="M20.2,25.4c0.3,0,0.6-0.1,0.9-0.2s0.5-0.4,0.7-0.7v1c0.2-0.1,0.4-0.1,0.6-0.1s0.4,0,0.7,0H24v-0.2h-0.7v-8
				c-0.2,0-0.4,0.1-0.6,0.1s-0.5,0-0.8,0H21v0.2h0.7V21c-0.2-0.3-0.4-0.5-0.6-0.7s-0.5-0.2-0.8-0.2c-0.7,0-1.3,0.2-1.8,0.7
				s-0.7,1.1-0.7,1.9c0,0.7,0.2,1.4,0.7,1.9S19.6,25.4,20.2,25.4z M19.7,20.8c0.1-0.3,0.4-0.5,0.8-0.5c0.3,0,0.6,0.1,0.9,0.4
				s0.4,0.6,0.4,1v1.7c0,0.5-0.1,1-0.3,1.3s-0.5,0.4-0.9,0.4c-0.4,0-0.6-0.2-0.8-0.5s-0.2-0.9-0.2-1.8
				C19.5,21.8,19.6,21.2,19.7,20.8z"/>
			<path class="st2" d="M30.4,24.7c0.6-0.4,0.8-0.9,0.8-1.6c0-0.6-0.2-1.1-0.7-1.5S29.5,21,28.6,21v-0.1c0.7-0.1,1.2-0.3,1.6-0.6
				s0.5-0.7,0.5-1.2c0-0.6-0.3-1.1-0.8-1.4s-1.3-0.5-2.3-0.5h-3.3v0.2h0.9v7.6h-0.9v0.2h3.8C29.1,25.2,29.8,25,30.4,24.7z M27,17.4
				h0.4c0.5,0,1,0.1,1.2,0.4s0.4,0.7,0.4,1.3c0,0.6-0.1,1.1-0.4,1.3s-0.7,0.4-1.2,0.4H27V17.4z M27,25.1v-4h0.4
				c0.7,0,1.2,0.2,1.5,0.5s0.4,0.8,0.4,1.6c0,0.6-0.1,1.1-0.4,1.4s-0.7,0.5-1.2,0.5H27z"/>
			<rect x="18.5" y="30.9" class="st2" width="12" height="1"/>
			<rect x="16.5" y="28.9" class="st2" width="16" height="1"/>
			<rect x="14.5" y="26.9" class="st2" width="20" height="1"/>
		</g>
	</g>
</g>
</svg>
