<?xml version="1.0" encoding="utf-8"?>
<!-- Generator: Adobe Illustrator 21.0.2, SVG Export Plug-In . SVG Version: 6.00 Build 0)  -->
<svg version="1.1" id="图层_1" xmlns="http://www.w3.org/2000/svg" xmlns:xlink="http://www.w3.org/1999/xlink" x="0px" y="0px"
	 viewBox="0 0 32 32" style="enable-background:new 0 0 32 32;" xml:space="preserve">
<style type="text/css">
	.st0{fill:#3090A0;}
	.st1{fill:#FFFFFF;}
</style>
<path class="st0" d="M16.1,0c-8.8,0-16,7.2-16,16s7.2,16,16,16s16-7.2,16-16S24.9,0,16.1,0z M16.1,30c-7.7,0-14-6.3-14-14
	c0-7.7,6.3-14,14-14s14,6.3,14,14C30.1,23.7,23.8,30,16.1,30z"/>
<path class="st1" d="M16.1,2c-7.7,0-14,6.3-14,14c0,7.7,6.3,14,14,14s14-6.3,14-14C30.1,8.3,23.8,2,16.1,2z"/>
<path class="st0" d="M24,16.1c0-1-0.4-1.9-1.1-2.6c0.1-0.3,0.1-0.6,0.1-0.9c0-1.7-1.4-3.1-3.1-3.1c-1.6,0-2.9,1.2-3.1,2.8
	c-0.8-0.3-1.7,0-2.3,0.6c-0.1,0.1-0.2,0.2-0.2,0.3c-0.1-1.3-0.4-2.4-0.8-3.4c-0.6-1.2-1.4-1.9-2.4-1.9S9.4,8.6,8.8,9.8
	C8.3,10.9,8,12.4,8,13.9c0,1.5,0.3,3,0.8,4.1c0.5,1,1.2,1.6,1.9,1.8v3.3H9.6c-0.3,0-0.5,0.2-0.5,0.5s0.2,0.5,0.5,0.5h12
	c0.3,0,0.5-0.2,0.5-0.5s-0.2-0.5-0.5-0.5h-1v-3.5C22.5,19.5,24,18,24,16.1z M11.2,18.9c-0.5,0-1.1-0.5-1.5-1.3
	c-0.5-1-0.7-2.3-0.7-3.6s0.3-2.7,0.7-3.6c0.4-0.8,1-1.3,1.5-1.3c0.5,0,1.1,0.5,1.5,1.3c0.5,1,0.7,2.3,0.7,3.6c0,0.1,0,0.2,0,0.3
	c-1.7,0.7-2.5,2.6-1.9,4.3c0,0.1,0.1,0.1,0.1,0.2C11.5,18.8,11.4,18.9,11.2,18.9z M15.5,23.1h-3.8v-3.4c0.2,0,0.3-0.1,0.5-0.2
	c0.6,0.7,1.5,1.1,2.4,1.1c0.3,0,0.6,0,0.9-0.1V23.1z M19.6,23.1h-3.2v-2.8c0,0,0,0,0,0c0.1,0,0.3,0,0.5,0c0.8,0,1.6-0.3,2.2-0.9
	c0.2,0.1,0.4,0.1,0.6,0.2V23.1z M20.4,18.7c-0.3,0-0.5,0-0.8-0.1c0.6-1.4,0.1-3-1.1-3.7c0-0.1,0-0.2,0-0.3c0-0.6-0.2-1.1-0.6-1.6v0
	c-0.2-1.1,0.6-2.2,1.8-2.4c0.1,0,0.2,0,0.3,0c1.2,0,2.1,0.9,2.1,2.1c0,0.3-0.1,0.6-0.2,0.8l-0.1,0.3l0.3,0.2c0.6,0.5,1,1.2,1,2
	C23,17.5,21.9,18.7,20.4,18.7z"/>
</svg>
