<?xml version="1.0" encoding="utf-8"?>
<!-- Generator: Adobe Illustrator 21.0.2, SVG Export Plug-In . SVG Version: 6.00 Build 0)  -->
<svg version="1.1" id="图层_1" xmlns="http://www.w3.org/2000/svg" xmlns:xlink="http://www.w3.org/1999/xlink" x="0px" y="0px"
	 viewBox="0 0 50 50" style="enable-background:new 0 0 50 50;" xml:space="preserve">
<style type="text/css">
	.st0{opacity:0.2;}
	.st1{fill:#FFFFFF;}
	.st2{fill:#F93E54;}
</style>
<g>
	<g class="st0">
		<path d="M25.5,15.5c-5.5,0-10,4.5-10,10s4.5,10,10,10s10-4.5,10-10S31,15.5,25.5,15.5z M30,30.4h-0.6c0-0.3,0.1-0.5,0.1-0.8v-0.1
			h-8v0.2c0,0.3,0,0.5,0.1,0.8H21c0-0.3,0.1-0.5,0.1-0.8v-8.7c0-0.3,0-0.6-0.1-0.9c0.4,0,0.6,0.1,0.9,0.1h7.3c0.3,0,0.5,0,0.9-0.1
			c0,0.3-0.1,0.6-0.1,0.8v8.6C29.9,29.9,30,30.2,30,30.4z"/>
		<path d="M21.5,29.1h8v-8.4h-8V29.1z M23,22c0.3,0,0.5,0.1,0.8,0.1h3.3c0.3,0,0.5,0,0.8-0.1v0.5c-0.3,0-0.5-0.1-0.8-0.1h-3.3
			c-0.2,0-0.5,0-0.8,0.1V22z M23.2,24.4c-0.3,0-0.5,0-0.8,0.1v-0.5c0.3,0,0.5,0.1,0.8,0.1h4.6c0.3,0,0.5,0,0.8-0.1v0.5
			c-0.3,0-0.5-0.1-0.8-0.1h-1.3v2.4c0,0.3,0,0.5,0.1,0.5c0.1,0.1,0.2,0.1,0.5,0.1c0.1,0,0.2,0,0.3,0c0.4,0,0.6,0,0.7-0.1
			c0.1-0.1,0.3-0.3,0.3-0.8c0.1,0.1,0.3,0.2,0.5,0.3c-0.2,0.5-0.4,0.9-0.6,0.9c-0.2,0.1-0.6,0.2-1.2,0.2c-0.5,0-0.8-0.1-0.9-0.2
			c-0.1-0.1-0.2-0.5-0.2-1v-2.3h-1c-0.1,1.2-0.3,2.1-0.6,2.5c-0.3,0.5-0.9,1-1.8,1.5c-0.1-0.2-0.2-0.3-0.4-0.5
			c1.6-0.3,2.4-1.5,2.3-3.5H23.2z"/>
		<path d="M38.5,9.5h-26c-1.6,0-3,1.4-3,3v26c0,1.7,1.4,3,3,3h26c1.7,0,3-1.3,3-3v-26C41.5,10.9,40.2,9.5,38.5,9.5z M25.5,36.5
			c-6.1,0-11-4.9-11-11s4.9-11,11-11s11,4.9,11,11S31.6,36.5,25.5,36.5z"/>
		<path d="M38.5,7.5h-26c-2.8,0-5,2.2-5,5v26c0,2.8,2.2,5,5,5h26c2.8,0,5-2.2,5-5v-26C43.5,9.7,41.3,7.5,38.5,7.5z M41.5,38.5
			c0,1.7-1.3,3-3,3h-26c-1.6,0-3-1.3-3-3v-26c0-1.6,1.4-3,3-3h26c1.7,0,3,1.4,3,3V38.5z"/>
		<path d="M25.5,14.5c-6.1,0-11,4.9-11,11s4.9,11,11,11s11-4.9,11-11S31.6,14.5,25.5,14.5z M25.5,35.5c-5.5,0-10-4.5-10-10
			s4.5-10,10-10s10,4.5,10,10S31,35.5,25.5,35.5z"/>
		<path d="M22.2,27.9c0.2,0.2,0.4,0.3,0.4,0.5c0.9-0.5,1.5-1,1.8-1.5c0.3-0.4,0.5-1.3,0.6-2.5h1v2.3c0,0.5,0.1,0.9,0.2,1
			c0.1,0.2,0.4,0.2,0.9,0.2c0.6,0,1-0.1,1.2-0.2c0.2-0.1,0.4-0.4,0.6-0.9c-0.2-0.1-0.3-0.1-0.5-0.3c-0.1,0.5-0.2,0.7-0.3,0.8
			c-0.1,0.1-0.3,0.1-0.7,0.1c-0.1,0-0.2,0-0.3,0c-0.3,0-0.5,0-0.5-0.1c-0.1-0.1-0.1-0.2-0.1-0.5v-2.4h1.3c0.3,0,0.5,0,0.8,0.1v-0.5
			c-0.3,0-0.5,0.1-0.8,0.1h-4.6c-0.3,0-0.5,0-0.8-0.1v0.5c0.3,0,0.5-0.1,0.8-0.1h1.3C24.6,26.4,23.8,27.5,22.2,27.9z"/>
		<path d="M27.1,22.5c0.3,0,0.5,0,0.8,0.1V22c-0.3,0-0.5,0.1-0.8,0.1h-3.3c-0.2,0-0.5,0-0.8-0.1v0.5c0.3,0,0.6-0.1,0.8-0.1H27.1z"/>
		<path d="M30,20.2c-0.3,0-0.6,0.1-0.9,0.1h-7.3c-0.2,0-0.5,0-0.9-0.1c0,0.3,0.1,0.6,0.1,0.9v8.7c0,0.3,0,0.5-0.1,0.8h0.6
			c0-0.3-0.1-0.6-0.1-0.8v-0.2h8v0.1c0,0.3,0,0.5-0.1,0.8H30c0-0.3-0.1-0.5-0.1-0.8V21C29.9,20.8,30,20.5,30,20.2z M29.5,29.1h-8
			v-8.4h8V29.1z"/>
	</g>
	<g>
		<g>
			<path class="st1" d="M24.5,14.5c-5.5,0-10,4.5-10,10s4.5,10,10,10s10-4.5,10-10S30,14.5,24.5,14.5z M29,29.4h-0.6
				c0-0.3,0.1-0.5,0.1-0.8v-0.1h-8v0.2c0,0.3,0,0.5,0.1,0.8H20c0-0.3,0.1-0.5,0.1-0.8v-8.7c0-0.3,0-0.6-0.1-0.9
				c0.4,0,0.6,0.1,0.9,0.1h7.3c0.3,0,0.5,0,0.9-0.1c0,0.3-0.1,0.6-0.1,0.8v8.6C28.9,28.9,29,29.2,29,29.4z"/>
			<path class="st1" d="M20.5,28.1h8v-8.4h-8V28.1z M22,21c0.3,0,0.5,0.1,0.8,0.1h3.3c0.3,0,0.5,0,0.8-0.1v0.5
				c-0.3,0-0.5-0.1-0.8-0.1h-3.3c-0.2,0-0.5,0-0.8,0.1V21z M22.2,23.4c-0.3,0-0.5,0-0.8,0.1v-0.5c0.3,0,0.5,0.1,0.8,0.1h4.6
				c0.3,0,0.5,0,0.8-0.1v0.5c-0.3,0-0.5-0.1-0.8-0.1h-1.3v2.4c0,0.3,0,0.5,0.1,0.5c0.1,0.1,0.2,0.1,0.5,0.1c0.1,0,0.2,0,0.3,0
				c0.4,0,0.6,0,0.7-0.1c0.1-0.1,0.3-0.3,0.3-0.8c0.1,0.1,0.3,0.2,0.5,0.3c-0.2,0.5-0.4,0.9-0.6,0.9c-0.2,0.1-0.6,0.2-1.2,0.2
				c-0.5,0-0.8-0.1-0.9-0.2c-0.1-0.1-0.2-0.5-0.2-1v-2.3h-1c-0.1,1.2-0.3,2.1-0.6,2.5c-0.3,0.5-0.9,1-1.8,1.5
				c-0.1-0.2-0.2-0.3-0.4-0.5c1.6-0.3,2.4-1.5,2.3-3.5H22.2z"/>
			<path class="st1" d="M37.5,8.5h-26c-1.6,0-3,1.4-3,3v26c0,1.7,1.4,3,3,3h26c1.7,0,3-1.3,3-3v-26C40.5,9.9,39.2,8.5,37.5,8.5z
				 M24.5,35.5c-6.1,0-11-4.9-11-11s4.9-11,11-11s11,4.9,11,11S30.6,35.5,24.5,35.5z"/>
			<path class="st2" d="M37.5,6.5h-26c-2.8,0-5,2.2-5,5v26c0,2.8,2.2,5,5,5h26c2.8,0,5-2.2,5-5v-26C42.5,8.7,40.3,6.5,37.5,6.5z
				 M40.5,37.5c0,1.7-1.3,3-3,3h-26c-1.6,0-3-1.3-3-3v-26c0-1.6,1.4-3,3-3h26c1.7,0,3,1.4,3,3V37.5z"/>
			<path class="st2" d="M24.5,13.5c-6.1,0-11,4.9-11,11s4.9,11,11,11s11-4.9,11-11S30.6,13.5,24.5,13.5z M24.5,34.5
				c-5.5,0-10-4.5-10-10s4.5-10,10-10s10,4.5,10,10S30,34.5,24.5,34.5z"/>
			<path class="st2" d="M21.2,26.9c0.2,0.2,0.4,0.3,0.4,0.5c0.9-0.5,1.5-1,1.8-1.5c0.3-0.4,0.5-1.3,0.6-2.5h1v2.3
				c0,0.5,0.1,0.9,0.2,1c0.1,0.2,0.4,0.2,0.9,0.2c0.6,0,1-0.1,1.2-0.2c0.2-0.1,0.4-0.4,0.6-0.9c-0.2-0.1-0.3-0.1-0.5-0.3
				c-0.1,0.5-0.2,0.7-0.3,0.8c-0.1,0.1-0.3,0.1-0.7,0.1c-0.1,0-0.2,0-0.3,0c-0.3,0-0.5,0-0.5-0.1c-0.1-0.1-0.1-0.2-0.1-0.5v-2.4h1.3
				c0.3,0,0.5,0,0.8,0.1v-0.5c-0.3,0-0.5,0.1-0.8,0.1h-4.6c-0.3,0-0.5,0-0.8-0.1v0.5c0.3,0,0.5-0.1,0.8-0.1h1.3
				C23.6,25.4,22.8,26.5,21.2,26.9z"/>
			<path class="st2" d="M26.1,21.5c0.3,0,0.5,0,0.8,0.1V21c-0.3,0-0.5,0.1-0.8,0.1h-3.3c-0.2,0-0.5,0-0.8-0.1v0.5
				c0.3,0,0.6-0.1,0.8-0.1H26.1z"/>
			<path class="st2" d="M29,19.2c-0.3,0-0.6,0.1-0.9,0.1h-7.3c-0.2,0-0.5,0-0.9-0.1c0,0.3,0.1,0.6,0.1,0.9v8.7c0,0.3,0,0.5-0.1,0.8
				h0.6c0-0.3-0.1-0.6-0.1-0.8v-0.2h8v0.1c0,0.3,0,0.5-0.1,0.8H29c0-0.3-0.1-0.5-0.1-0.8V20C28.9,19.8,29,19.5,29,19.2z M28.5,28.1
				h-8v-8.4h8V28.1z"/>
		</g>
	</g>
</g>
</svg>
