<?xml version="1.0" encoding="utf-8"?>
<!-- Generator: Adobe Illustrator 21.0.2, SVG Export Plug-In . SVG Version: 6.00 Build 0)  -->
<svg version="1.1" id="图层_1" xmlns="http://www.w3.org/2000/svg" xmlns:xlink="http://www.w3.org/1999/xlink" x="0px" y="0px"
	 viewBox="0 0 50 50" style="enable-background:new 0 0 50 50;" xml:space="preserve">
<style type="text/css">
	
	.st0{opacity:0.2;}
	.st1{fill:#00A0E9;}
	.st2{fill:#FFFFFF;}
</style>
<g>
	<g class="st0">
		<path d="M38.5,7.3h-26c-2.8,0-5,2.2-5,5v26c0,2.8,2.2,5,5,5h26c2.8,0,5-2.2,5-5v-26C43.5,9.5,41.3,7.3,38.5,7.3z M41.5,38.3
			c0,1.7-1.3,3-3,3h-26c-1.6,0-3-1.3-3-3v-26c0-0.4,0.1-0.8,0.2-1.2c0.1-0.2,0.2-0.3,0.3-0.5c0.2-0.3,0.5-0.6,0.8-0.8
			c0.5-0.3,1.1-0.5,1.7-0.5h26c0.6,0,1.2,0.2,1.7,0.5c0.3,0.2,0.6,0.5,0.8,0.8c0.1,0.2,0.2,0.3,0.3,0.5c0.2,0.4,0.2,0.8,0.2,1.2
			V38.3z"/>
		<path d="M41,10.6c-0.2-0.3-0.5-0.6-0.8-0.8c-0.5-0.3-1.1-0.5-1.7-0.5h-26c-0.6,0-1.2,0.2-1.7,0.5c-0.3,0.2-0.6,0.5-0.8,0.8
			c-0.1,0.2-0.2,0.3-0.3,0.5c-0.2,0.4-0.2,0.8-0.2,1.2v26c0,1.7,1.4,3,3,3h26c1.7,0,3-1.3,3-3v-26c0-0.4-0.1-0.8-0.2-1.2
			C41.2,10.9,41.1,10.7,41,10.6z M12.9,31.3V30c1.9-1.1,2.8-2.7,2.8-4.7c0-2.1-0.9-3.7-2.8-4.8v-1.2c2.7,1.2,4,3.2,4.2,6.1
			C17,28.1,15.6,30.1,12.9,31.3z M18.1,27.3h-1v-1h1V27.3z M18.1,24.3h-1v-1h1V24.3z M22.1,27.3h-3v-1h3V27.3z M22.1,24.3h-3v-1h3
			V24.3z M27.1,27.3h-3v-1h3V27.3z M27.1,24.3h-3v-1h3V24.3z M32.1,27.3h-3v-1h3V27.3z M32.1,24.3h-3v-1h3V24.3z M38.1,20.5
			c-1.9,1.2-2.8,2.8-2.8,4.8c0,2,0.9,3.6,2.8,4.7v1.2c-2.2-1-3.6-2.5-4-4.7v0.7h-1v-1H34c0-0.3-0.1-0.6-0.1-0.9
			c0-0.4,0.1-0.7,0.1-1.1h-1v-1h1v0.8c0.4-2.2,1.8-3.8,4-4.8V20.5z"/>
		<rect x="19.1" y="26.3" width="3" height="1"/>
		<rect x="17.1" y="26.3" width="1" height="1"/>
		<rect x="17.1" y="23.3" width="1" height="1"/>
		<rect x="29.1" y="26.3" width="3" height="1"/>
		<rect x="24.1" y="26.3" width="3" height="1"/>
		<rect x="19.1" y="23.3" width="3" height="1"/>
		<rect x="29.1" y="23.3" width="3" height="1"/>
		<rect x="24.1" y="23.3" width="3" height="1"/>
		<path d="M34.1,24.1v-0.8h-1v1h1c-0.1,0.3-0.1,0.7-0.1,1.1c0,0.3,0,0.6,0.1,0.9h-0.9v1h1v-0.7c0.4,2.1,1.8,3.7,4,4.7V30
			c-1.9-1.1-2.8-2.7-2.8-4.7c0-2.1,0.9-3.7,2.8-4.8v-1.2C35.8,20.3,34.5,21.9,34.1,24.1z"/>
		<path d="M12.9,19.3v1.2c1.9,1.2,2.8,2.8,2.8,4.8c0,2-0.9,3.6-2.8,4.7v1.2c2.7-1.2,4-3.1,4.2-5.9C17,22.5,15.6,20.4,12.9,19.3z"/>
	</g>
	<g>
		<g>
			<g>
				<path class="st1" d="M37.5,6.3h-26c-2.8,0-5,2.2-5,5v26c0,2.8,2.2,5,5,5h26c2.8,0,5-2.2,5-5v-26C42.5,8.5,40.3,6.3,37.5,6.3z
					 M40.5,37.3c0,1.7-1.3,3-3,3h-26c-1.6,0-3-1.3-3-3v-26c0-0.4,0.1-0.8,0.2-1.2C8.8,9.9,8.9,9.7,9,9.6C9.2,9.3,9.5,9,9.8,8.8
					c0.5-0.3,1.1-0.5,1.7-0.5h26c0.6,0,1.2,0.2,1.7,0.5C39.5,9,39.8,9.3,40,9.6c0.1,0.2,0.2,0.3,0.3,0.5c0.2,0.4,0.2,0.8,0.2,1.2
					V37.3z"/>
			</g>
			<path class="st2" d="M40,9.6c-0.2-0.3-0.5-0.6-0.8-0.8c-0.5-0.3-1.1-0.5-1.7-0.5h-26c-0.6,0-1.2,0.2-1.7,0.5C9.5,9,9.2,9.3,9,9.6
				c-0.1,0.2-0.2,0.3-0.3,0.5c-0.2,0.4-0.2,0.8-0.2,1.2v26c0,1.7,1.4,3,3,3h26c1.7,0,3-1.3,3-3v-26c0-0.4-0.1-0.8-0.2-1.2
				C40.2,9.9,40.1,9.7,40,9.6z M11.9,30.3V29c1.9-1.1,2.8-2.7,2.8-4.7c0-2.1-0.9-3.7-2.8-4.8v-1.2c2.7,1.2,4,3.2,4.2,6.1
				C16,27.1,14.6,29.1,11.9,30.3z M17.1,26.3h-1v-1h1V26.3z M17.1,23.3h-1v-1h1V23.3z M21.1,26.3h-3v-1h3V26.3z M21.1,23.3h-3v-1h3
				V23.3z M26.1,26.3h-3v-1h3V26.3z M26.1,23.3h-3v-1h3V23.3z M31.1,26.3h-3v-1h3V26.3z M31.1,23.3h-3v-1h3V23.3z M37.1,19.5
				c-1.9,1.2-2.8,2.8-2.8,4.8c0,2,0.9,3.6,2.8,4.7v1.2c-2.2-1-3.6-2.5-4-4.7v0.7h-1v-1H33c0-0.3-0.1-0.6-0.1-0.9
				c0-0.4,0.1-0.7,0.1-1.1h-1v-1h1v0.8c0.4-2.2,1.8-3.8,4-4.8V19.5z"/>
			<g>
				<rect x="18.1" y="25.3" class="st1" width="3" height="1"/>
			</g>
			<g>
				<rect x="16.1" y="25.3" class="st1" width="1" height="1"/>
			</g>
			<g>
				<rect x="16.1" y="22.3" class="st1" width="1" height="1"/>
			</g>
			<g>
				<rect x="28.1" y="25.3" class="st1" width="3" height="1"/>
			</g>
			<g>
				<rect x="23.1" y="25.3" class="st1" width="3" height="1"/>
			</g>
			<g>
				<rect x="18.1" y="22.3" class="st1" width="3" height="1"/>
			</g>
			<g>
				<rect x="28.1" y="22.3" class="st1" width="3" height="1"/>
			</g>
			<g>
				<rect x="23.1" y="22.3" class="st1" width="3" height="1"/>
			</g>
			<g>
				<path class="st1" d="M33.1,23.1v-0.8h-1v1h1c-0.1,0.3-0.1,0.7-0.1,1.1c0,0.3,0,0.6,0.1,0.9h-0.9v1h1v-0.7c0.4,2.1,1.8,3.7,4,4.7
					V29c-1.9-1.1-2.8-2.7-2.8-4.7c0-2.1,0.9-3.7,2.8-4.8v-1.2C34.8,19.3,33.5,20.9,33.1,23.1z"/>
			</g>
			<g>
				<path class="st1" d="M11.9,18.3v1.2c1.9,1.2,2.8,2.8,2.8,4.8c0,2-0.9,3.6-2.8,4.7v1.2c2.7-1.2,4-3.1,4.2-5.9
					C16,21.5,14.6,19.4,11.9,18.3z"/>
			</g>
		</g>
	</g>
</g>
</svg>
