<?xml version="1.0" encoding="utf-8"?>
<!-- Generator: Adobe Illustrator 21.0.2, SVG Export Plug-In . SVG Version: 6.00 Build 0)  -->
<svg version="1.1" id="图层_1" xmlns="http://www.w3.org/2000/svg" xmlns:xlink="http://www.w3.org/1999/xlink" x="0px" y="0px"
	 viewBox="0 0 50 50" style="enable-background:new 0 0 50 50;" xml:space="preserve">
<style type="text/css">
	.st0{opacity:0.2;}
	.st1{fill:#FFFFFF;}
	.st2{fill:#00A0E9;}
</style>
<g>
	<g class="st0">
		<path d="M32,14.8H19v12h13V14.8z M21,24.7l-0.3-0.8c0.5-0.1,0.9-0.3,1.4-0.5v-3.9h-1.3v-0.7h1.3v-2.7h0.7v2.7H24v0.7h-1.1v3.7
			c0.4-0.1,0.8-0.3,1.3-0.4c0,0.3,0,0.5,0.1,0.7C23.1,23.9,22.1,24.3,21,24.7z M30.4,24.3c-0.2,0.7-0.7,1.1-1.5,1.1H26
			c-0.9,0-1.4-0.5-1.4-1.4v-3.7l-0.7,0.2l-0.1-0.7l0.9-0.3v-2.3h0.8v2.1l1.5-0.4v-2.8h0.8v2.5l2.4-0.7c0,1.3-0.1,2.3-0.1,3.1
			c0,0.9-0.4,1.3-1.1,1.3c-0.3,0-0.6,0-0.9,0c0-0.2-0.1-0.5-0.1-0.8c0.3,0,0.6,0.1,0.8,0.1c0.3,0,0.5-0.2,0.5-0.7
			c0-0.6,0.1-1.3,0.1-2l-1.6,0.5v4.2h-0.8v-4l-1.5,0.5v3.8c0,0.5,0.3,0.8,0.8,0.8h2.4c0.6,0,0.9-0.2,1-0.7c0.1-0.4,0.1-0.9,0.2-1.5
			c0.3,0.1,0.5,0.2,0.8,0.3C30.5,23.4,30.4,23.9,30.4,24.3z"/>
		<path d="M41,10.6c-0.2-0.3-0.5-0.6-0.8-0.8c-0.5-0.3-1.1-0.5-1.7-0.5h-26c-0.6,0-1.2,0.2-1.7,0.5c-0.3,0.2-0.6,0.5-0.8,0.8
			c-0.1,0.2-0.2,0.3-0.3,0.5c-0.2,0.4-0.2,0.8-0.2,1.2v26c0,1.7,1.4,3,3,3h26c1.7,0,3-1.3,3-3v-26c0-0.4-0.1-0.8-0.2-1.2
			C41.2,10.9,41.1,10.7,41,10.6z M33,27.8H19v8h7v1h-8v-1v-8v-14h15V27.8z"/>
		<path d="M38.5,7.3h-26c-2.8,0-5,2.2-5,5v26c0,2.8,2.2,5,5,5h26c2.8,0,5-2.2,5-5v-26C43.5,9.5,41.3,7.3,38.5,7.3z M41.5,38.3
			c0,1.7-1.3,3-3,3h-26c-1.6,0-3-1.3-3-3v-26c0-0.4,0.1-0.8,0.2-1.2c0.1-0.2,0.2-0.3,0.3-0.5c0.2-0.3,0.5-0.6,0.8-0.8
			c0.5-0.3,1.1-0.5,1.7-0.5h26c0.6,0,1.2,0.2,1.7,0.5c0.3,0.2,0.6,0.5,0.8,0.8c0.1,0.2,0.2,0.3,0.3,0.5c0.2,0.4,0.2,0.8,0.2,1.2
			V38.3z"/>
		<path d="M18,27.8v8v1h8v-1h-7v-8h14v-14H18V27.8z M19,14.8h13v12H19V14.8z"/>
		<path d="M22.9,23.2v-3.7H24v-0.7h-1.1v-2.7h-0.7v2.7h-1.3v0.7h1.3v3.9c-0.5,0.2-0.9,0.3-1.4,0.5l0.3,0.8c1-0.4,2.1-0.8,3.2-1.2
			c0-0.2-0.1-0.4-0.1-0.7C23.7,23,23.3,23.1,22.9,23.2z"/>
		<path d="M29.6,23.9c-0.1,0.5-0.4,0.7-1,0.7h-2.4c-0.6,0-0.8-0.3-0.8-0.8v-3.8l1.5-0.5v4h0.8v-4.2l1.6-0.5c0,0.8,0,1.4-0.1,2
			c0,0.5-0.2,0.7-0.5,0.7c-0.2,0-0.5,0-0.8-0.1c0.1,0.3,0.1,0.6,0.1,0.8c0.3,0,0.6,0,0.9,0c0.7,0,1-0.4,1.1-1.3
			c0-0.8,0.1-1.9,0.1-3.1l-2.4,0.7v-2.5h-0.8v2.8l-1.5,0.4v-2.1h-0.8v2.3l-0.9,0.3l0.1,0.7l0.7-0.2V24c0,0.9,0.5,1.4,1.4,1.4h2.8
			c0.9,0,1.4-0.4,1.5-1.1c0.1-0.4,0.2-0.9,0.3-1.5c-0.3-0.1-0.6-0.2-0.8-0.3C29.8,23,29.7,23.5,29.6,23.9z"/>
	</g>
	<g>
		<g>
			<path class="st1" d="M31,13.8H18v12h13V13.8z M20,23.7l-0.3-0.8c0.5-0.1,0.9-0.3,1.4-0.5v-3.9h-1.3v-0.7h1.3v-2.7h0.7v2.7H23v0.7
				h-1.1v3.7c0.4-0.1,0.8-0.3,1.3-0.4c0,0.3,0,0.5,0.1,0.7C22.1,22.9,21.1,23.3,20,23.7z M29.4,23.3c-0.2,0.7-0.7,1.1-1.5,1.1H25
				c-0.9,0-1.4-0.5-1.4-1.4v-3.7l-0.7,0.2l-0.1-0.7l0.9-0.3v-2.3h0.8v2.1l1.5-0.4v-2.8h0.8v2.5l2.4-0.7c0,1.3-0.1,2.3-0.1,3.1
				c0,0.9-0.4,1.3-1.1,1.3c-0.3,0-0.6,0-0.9,0c0-0.2-0.1-0.5-0.1-0.8c0.3,0,0.6,0.1,0.8,0.1c0.3,0,0.5-0.2,0.5-0.7
				c0-0.6,0.1-1.3,0.1-2l-1.6,0.5v4.2h-0.8v-4l-1.5,0.5v3.8c0,0.5,0.3,0.8,0.8,0.8h2.4c0.6,0,0.9-0.2,1-0.7c0.1-0.4,0.1-0.9,0.2-1.5
				c0.3,0.1,0.5,0.2,0.8,0.3C29.5,22.4,29.4,22.9,29.4,23.3z"/>
			<path class="st1" d="M40,9.6c-0.2-0.3-0.5-0.6-0.8-0.8c-0.5-0.3-1.1-0.5-1.7-0.5h-26c-0.6,0-1.2,0.2-1.7,0.5C9.5,9,9.2,9.3,9,9.6
				c-0.1,0.2-0.2,0.3-0.3,0.5c-0.2,0.4-0.2,0.8-0.2,1.2v26c0,1.7,1.4,3,3,3h26c1.7,0,3-1.3,3-3v-26c0-0.4-0.1-0.8-0.2-1.2
				C40.2,9.9,40.1,9.7,40,9.6z M32,26.8H18v8h7v1h-8v-1v-8v-14h15V26.8z"/>
			<g>
				<path class="st2" d="M37.5,6.3h-26c-2.8,0-5,2.2-5,5v26c0,2.8,2.2,5,5,5h26c2.8,0,5-2.2,5-5v-26C42.5,8.5,40.3,6.3,37.5,6.3z
					 M40.5,37.3c0,1.7-1.3,3-3,3h-26c-1.6,0-3-1.3-3-3v-26c0-0.4,0.1-0.8,0.2-1.2C8.8,9.9,8.9,9.7,9,9.6C9.2,9.3,9.5,9,9.8,8.8
					c0.5-0.3,1.1-0.5,1.7-0.5h26c0.6,0,1.2,0.2,1.7,0.5C39.5,9,39.8,9.3,40,9.6c0.1,0.2,0.2,0.3,0.3,0.5c0.2,0.4,0.2,0.8,0.2,1.2
					V37.3z"/>
			</g>
			<path class="st2" d="M17,26.8v8v1h8v-1h-7v-8h14v-14H17V26.8z M18,13.8h13v12H18V13.8z"/>
			<path class="st2" d="M21.9,22.2v-3.7H23v-0.7h-1.1v-2.7h-0.7v2.7h-1.3v0.7h1.3v3.9c-0.5,0.2-0.9,0.3-1.4,0.5l0.3,0.8
				c1-0.4,2.1-0.8,3.2-1.2c0-0.2-0.1-0.4-0.1-0.7C22.7,22,22.3,22.1,21.9,22.2z"/>
			<path class="st2" d="M28.6,22.9c-0.1,0.5-0.4,0.7-1,0.7h-2.4c-0.6,0-0.8-0.3-0.8-0.8v-3.8l1.5-0.5v4h0.8v-4.2l1.6-0.5
				c0,0.8,0,1.4-0.1,2c0,0.5-0.2,0.7-0.5,0.7c-0.2,0-0.5,0-0.8-0.1c0.1,0.3,0.1,0.6,0.1,0.8c0.3,0,0.6,0,0.9,0c0.7,0,1-0.4,1.1-1.3
				c0-0.8,0.1-1.9,0.1-3.1l-2.4,0.7v-2.5h-0.8v2.8l-1.5,0.4v-2.1h-0.8v2.3l-0.9,0.3l0.1,0.7l0.7-0.2V23c0,0.9,0.5,1.4,1.4,1.4h2.8
				c0.9,0,1.4-0.4,1.5-1.1c0.1-0.4,0.2-0.9,0.3-1.5c-0.3-0.1-0.6-0.2-0.8-0.3C28.8,22,28.7,22.5,28.6,22.9z"/>
		</g>
	</g>
</g>
</svg>
