<?xml version="1.0" encoding="utf-8"?>
<!-- Generator: Adobe Illustrator 21.0.2, SVG Export Plug-In . SVG Version: 6.00 Build 0)  -->
<svg version="1.1" id="图层_1" xmlns="http://www.w3.org/2000/svg" xmlns:xlink="http://www.w3.org/1999/xlink" x="0px" y="0px"
	 viewBox="0 0 50 50" style="enable-background:new 0 0 50 50;" xml:space="preserve">
<style type="text/css">
	.st0{opacity:0.2;}
	.st1{fill:#FFFFFF;}
	.st2{fill:#F93E54;}
</style>
<g>
	<g class="st0">
		<path d="M38.5,9.5h-26c-1.6,0-3,1.3-3,3v26c0,0.2,0,0.4,0.1,0.6c0.1,0.6,0.4,1.1,0.8,1.5c0.5,0.5,1.3,0.9,2.1,0.9h26
			c0.8,0,1.6-0.3,2.1-0.9c0.4-0.4,0.7-0.9,0.8-1.5c0-0.2,0.1-0.4,0.1-0.6v-26C41.5,10.8,40.2,9.5,38.5,9.5z M21.2,31l-5.7,0l0-1
			l5.7,0L21.2,31z M21.5,28.8l-5.2-2.9l0.5-0.9l5.2,2.9L21.5,28.8z M22.9,27l-2.8-5.3l0.9-0.5l2.8,5.3L22.9,27z M25,26.2l0-5.7l1,0
			l0,5.7L25,26.2z M27.2,26.5l3.5-4.6l0.8,0.6L28,27.1L27.2,26.5z M29,27.9l5.2-2.2l0.4,0.9l-5.2,2.2L29,27.9z M35.5,31l-5.7,0v-1
			l5.7,0V31z"/>
		<path d="M38.5,7.5h-26c-2.8,0-5,2.2-5,5v26c0,2.8,2.2,5,5,5h26c2.8,0,5-2.2,5-5v-26C43.5,9.7,41.3,7.5,38.5,7.5z M41.5,38.5
			L41.5,38.5c0,0.2,0,0.4-0.1,0.6c-0.1,0.6-0.4,1.1-0.8,1.5c-0.5,0.5-1.3,0.9-2.1,0.9h-26c-0.8,0-1.6-0.3-2.1-0.9
			c-0.4-0.4-0.7-0.9-0.8-1.5c0-0.2-0.1-0.4-0.1-0.6v0v-26c0-1.7,1.4-3,3-3h26c1.7,0,3,1.3,3,3V38.5z"/>
		<rect x="25" y="20.5" transform="matrix(1 -2.563875e-03 2.563875e-03 1 -5.979126e-02 6.541923e-02)" width="1" height="5.7"/>
		<rect x="26.5" y="24" transform="matrix(0.6011 -0.7992 0.7992 0.6011 -7.8385 33.244)" width="5.8" height="1"/>
		<rect x="29" y="26.7" transform="matrix(0.9196 -0.393 0.393 0.9196 -8.1417 14.7017)" width="5.7" height="1"/>
		<rect x="29.8" y="30" width="5.7" height="1"/>
		<rect x="17.9" y="27.6" transform="matrix(4.272735e-03 -1 1 4.272735e-03 -12.2076 48.6992)" width="1" height="5.7"/>
		<rect x="18.7" y="23.9" transform="matrix(0.4831 -0.8756 0.8756 0.4831 -13.6423 30.6998)" width="1" height="6"/>
		<rect x="21.5" y="21.2" transform="matrix(0.8807 -0.4738 0.4738 0.8807 -8.8205 13.2835)" width="1" height="6"/>
	</g>
	<g>
		<g>
			<path class="st1" d="M37.5,8.5h-26c-1.6,0-3,1.3-3,3v26c0,0.2,0,0.4,0.1,0.6c0.1,0.6,0.4,1.1,0.8,1.5c0.5,0.5,1.3,0.9,2.1,0.9h26
				c0.8,0,1.6-0.3,2.1-0.9c0.4-0.4,0.7-0.9,0.8-1.5c0-0.2,0.1-0.4,0.1-0.6v-26C40.5,9.8,39.2,8.5,37.5,8.5z M20.2,30l-5.7,0l0-1
				l5.7,0L20.2,30z M20.5,27.8l-5.2-2.9l0.5-0.9l5.2,2.9L20.5,27.8z M21.9,26l-2.8-5.3l0.9-0.5l2.8,5.3L21.9,26z M24,25.2l0-5.7l1,0
				l0,5.7L24,25.2z M26.2,25.5l3.5-4.6l0.8,0.6L27,26.1L26.2,25.5z M28,26.9l5.2-2.2l0.4,0.9l-5.2,2.2L28,26.9z M34.5,30l-5.7,0v-1
				l5.7,0V30z"/>
			<path class="st2" d="M37.5,6.5h-26c-2.8,0-5,2.2-5,5v26c0,2.8,2.2,5,5,5h26c2.8,0,5-2.2,5-5v-26C42.5,8.7,40.3,6.5,37.5,6.5z
				 M40.5,37.5L40.5,37.5c0,0.2,0,0.4-0.1,0.6c-0.1,0.6-0.4,1.1-0.8,1.5c-0.5,0.5-1.3,0.9-2.1,0.9h-26c-0.8,0-1.6-0.3-2.1-0.9
				c-0.4-0.4-0.7-0.9-0.8-1.5c0-0.2-0.1-0.4-0.1-0.6v0v-26c0-1.7,1.4-3,3-3h26c1.7,0,3,1.3,3,3V37.5z"/>
			
				<rect x="24" y="19.5" transform="matrix(1 -2.563875e-03 2.563875e-03 1 -5.723067e-02 6.285207e-02)" class="st2" width="1" height="5.7"/>
			<rect x="25.5" y="23" transform="matrix(0.6011 -0.7992 0.7992 0.6011 -7.4382 32.0459)" class="st2" width="5.8" height="1"/>
			<rect x="28" y="25.7" transform="matrix(0.9196 -0.393 0.393 0.9196 -7.8291 14.2283)" class="st2" width="5.7" height="1"/>
			<rect x="28.8" y="29" class="st2" width="5.7" height="1"/>
			
				<rect x="16.9" y="26.6" transform="matrix(4.272735e-03 -1 1 4.272735e-03 -12.2033 46.7035)" class="st2" width="1" height="5.7"/>
			<rect x="17.7" y="22.9" transform="matrix(0.4831 -0.8756 0.8756 0.4831 -13.2836 29.3073)" class="st2" width="1" height="6"/>
			<rect x="20.5" y="20.2" transform="matrix(0.8807 -0.4738 0.4738 0.8807 -8.4661 12.6904)" class="st2" width="1" height="6"/>
		</g>
	</g>
</g>
</svg>
