<?xml version="1.0" encoding="utf-8"?>
<!-- Generator: Adobe Illustrator 21.0.2, SVG Export Plug-In . SVG Version: 6.00 Build 0)  -->
<svg version="1.1" id="图层_1" xmlns="http://www.w3.org/2000/svg" xmlns:xlink="http://www.w3.org/1999/xlink" x="0px" y="0px"
	 viewBox="0 0 50 50" style="enable-background:new 0 0 50 50;" xml:space="preserve">
<style type="text/css">
	.st0{opacity:0.2;}
	.st1{fill:#FFFFFF;}
	.st2{fill:#FF6D0C;}
</style>
<g>
	<g class="st0">
		<path d="M22.6,26.7l-0.7,0.7c0,0,0,0.1,0,0.1l0.7,0.7c0,0,0.1,0,0.1,0l0.7-0.7c0,0,0-0.1,0-0.1l-0.7-0.7
			C22.7,26.7,22.6,26.7,22.6,26.7z"/>
		<path d="M22.1,28.9c0,0-0.1,0-0.1,0l-0.7,0.7c0,0,0,0.1,0,0.1l0.7,0.7c0,0,0.1,0,0.1,0l0.7-0.7c0,0,0-0.1,0-0.1L22.1,28.9z"/>
		<path d="M22.4,32.7h-1c-0.1,0-0.1,0-0.1,0.1v1c0,0.1,0,0.1,0.1,0.1h1c0.1,0,0.1,0,0.1-0.1L22.4,32.7
			C22.5,32.8,22.4,32.7,22.4,32.7z"/>
		<path d="M27.8,17.1C27.8,17.1,27.8,17.1,27.8,17.1c0,0.9,0.7,1.6,1.6,1.6S31,18,31,17.1v0c0-0.9-0.7-1.6-1.6-1.6
			C28.5,15.5,27.8,16.2,27.8,17.1z"/>
		<path d="M21.8,25.2L21,25.9c0,0,0,0.1,0,0.1l0.7,0.7c0,0,0.1,0,0.1,0l0.7-0.7c0,0,0-0.1,0-0.1l-0.7-0.7
			C21.9,25.1,21.8,25.1,21.8,25.2z"/>
		<path d="M41,10.8c-0.2-0.3-0.5-0.6-0.8-0.8c-0.5-0.3-1.1-0.5-1.7-0.5h-26c-0.6,0-1.2,0.2-1.7,0.5c-0.3,0.2-0.6,0.5-0.8,0.8
			c-0.1,0.2-0.2,0.3-0.3,0.5c-0.2,0.4-0.2,0.8-0.2,1.2v26c0,1.7,1.4,3,3,3h26c1.7,0,3-1.3,3-3v-26c0-0.4-0.1-0.8-0.2-1.2
			C41.2,11.2,41.1,11,41,10.8z M28.4,35.5c0.3,0,0.6-0.3,0.6-0.6v-7.7h0.7v7.7c0,0.3,0.3,0.6,0.6,0.6H28.4z M35.5,35.5h-5
			c0.3,0,0.6-0.3,0.6-0.6V21.5h0.2v5.4c0,0.3,0.3,0.6,0.6,0.6s0.6-0.3,0.6-0.6v-6.7c0-0.3-0.3-0.6-0.6-0.6c-0.1,0-0.1,0-0.1,0
			c-0.1,0-0.1,0-0.2,0h-0.5v0h-3.5v0h-0.3c-0.5,0-0.9,0.4-0.9,0.9c0,0,0,0.1,0,0.1l-1.1,2.2l-2.5,0.9c-0.3,0.1-0.5,0.5-0.4,0.8
			c0.1,0.3,0.5,0.5,0.8,0.4l2.7-0.9c0.1,0,0.2-0.1,0.2-0.2c0.1-0.1,0.2-0.1,0.2-0.3l1-2h0.3v13.4c0,0.3,0.3,0.6,0.6,0.6h-3.8
			l1.2-8.5h-1.1l-0.9,7.2h-3.2L19.6,27h-1.1l1.2,8.5h-4.2v-20h13.9h6.1V35.5z"/>
		<path d="M38.5,7.5h-26c-2.8,0-5,2.2-5,5v26c0,2.8,2.2,5,5,5h26c2.8,0,5-2.2,5-5v-26C43.5,9.7,41.3,7.5,38.5,7.5z M41.5,38.5
			c0,1.7-1.3,3-3,3h-26c-1.6,0-3-1.3-3-3v-26c0-0.4,0.1-0.8,0.2-1.2c0.1-0.2,0.2-0.3,0.3-0.5c0.2-0.3,0.5-0.6,0.8-0.8
			c0.5-0.3,1.1-0.5,1.7-0.5h26c0.6,0,1.2,0.2,1.7,0.5c0.3,0.2,0.6,0.5,0.8,0.8c0.1,0.2,0.2,0.3,0.3,0.5c0.2,0.4,0.2,0.8,0.2,1.2
			V38.5z"/>
		<path d="M29.7,34.9v-7.7H29v7.7c0,0.3-0.3,0.6-0.6,0.6h2C30,35.5,29.7,35.2,29.7,34.9z"/>
		<path d="M31,17.1L31,17.1c0,0.9-0.7,1.6-1.6,1.6s-1.6-0.7-1.6-1.6c0,0,0,0,0,0c0-0.9,0.7-1.6,1.6-1.6H15.5v20h4.2L18.4,27h1.1
			l0.9,7.2h3.2l0.9-7.2h1.1l-1.2,8.5h3.8c-0.3,0-0.6-0.3-0.6-0.6V21.5h-0.3l-1,2c0,0.1-0.1,0.2-0.2,0.3c-0.1,0.1-0.2,0.1-0.2,0.2
			l-2.7,0.9c-0.3,0.1-0.7-0.1-0.8-0.4c-0.1-0.3,0.1-0.7,0.4-0.8l2.5-0.9l1.1-2.2c0,0,0-0.1,0-0.1c0-0.5,0.4-0.9,0.9-0.9h0.3v0h3.5v0
			h0.5c0.1,0,0.1,0,0.2,0c0,0,0.1,0,0.1,0c0.3,0,0.6,0.3,0.6,0.6v6.7c0,0.3-0.3,0.6-0.6,0.6s-0.6-0.3-0.6-0.6v-5.4h-0.2v13.4
			c0,0.3-0.3,0.6-0.6,0.6h5v-20h-6.1C30.3,15.5,31,16.2,31,17.1z M22.5,33.9C22.5,33.9,22.4,34,22.5,33.9L21.3,34
			c-0.1,0-0.1,0-0.1-0.1v-1c0-0.1,0-0.1,0.1-0.1h1c0.1,0,0.1,0,0.1,0.1V33.9z M22.9,29.8l-0.7,0.7c0,0-0.1,0-0.1,0l-0.7-0.7
			c0,0,0-0.1,0-0.1l0.7-0.7c0,0,0.1,0,0.1,0l0.7,0.7C22.9,29.7,22.9,29.8,22.9,29.8z M23.5,27.5c0,0,0,0.1,0,0.1l-0.7,0.7
			c0,0-0.1,0-0.1,0l-0.7-0.7c0,0,0-0.1,0-0.1l0.7-0.7c0,0,0.1,0,0.1,0L23.5,27.5z M22.6,25.9c0,0,0,0.1,0,0.1l-0.7,0.7
			c0,0-0.1,0-0.1,0L21,26c0,0,0-0.1,0-0.1l0.7-0.7c0,0,0.1,0,0.1,0L22.6,25.9z"/>
	</g>
	<g>
		<g>
			<path class="st1" d="M21.6,25.7l-0.7,0.7c0,0,0,0.1,0,0.1l0.7,0.7c0,0,0.1,0,0.1,0l0.7-0.7c0,0,0-0.1,0-0.1l-0.7-0.7
				C21.7,25.7,21.6,25.7,21.6,25.7z"/>
			<path class="st1" d="M21.1,27.9c0,0-0.1,0-0.1,0l-0.7,0.7c0,0,0,0.1,0,0.1l0.7,0.7c0,0,0.1,0,0.1,0l0.7-0.7c0,0,0-0.1,0-0.1
				L21.1,27.9z"/>
			<path class="st1" d="M21.4,31.7h-1c-0.1,0-0.1,0-0.1,0.1v1c0,0.1,0,0.1,0.1,0.1h1c0.1,0,0.1,0,0.1-0.1L21.4,31.7
				C21.5,31.8,21.4,31.7,21.4,31.7z"/>
			<path class="st1" d="M26.8,16.1C26.8,16.1,26.8,16.1,26.8,16.1c0,0.9,0.7,1.6,1.6,1.6S30,17,30,16.1v0c0-0.9-0.7-1.6-1.6-1.6
				C27.5,14.5,26.8,15.2,26.8,16.1z"/>
			<path class="st1" d="M20.8,24.2L20,24.9c0,0,0,0.1,0,0.1l0.7,0.7c0,0,0.1,0,0.1,0l0.7-0.7c0,0,0-0.1,0-0.1l-0.7-0.7
				C20.9,24.1,20.8,24.1,20.8,24.2z"/>
			<path class="st1" d="M40,9.8c-0.2-0.3-0.5-0.6-0.8-0.8c-0.5-0.3-1.1-0.5-1.7-0.5h-26c-0.6,0-1.2,0.2-1.7,0.5
				C9.5,9.2,9.2,9.5,9,9.8c-0.1,0.2-0.2,0.3-0.3,0.5c-0.2,0.4-0.2,0.8-0.2,1.2v26c0,1.7,1.4,3,3,3h26c1.7,0,3-1.3,3-3v-26
				c0-0.4-0.1-0.8-0.2-1.2C40.2,10.2,40.1,10,40,9.8z M27.4,34.5c0.3,0,0.6-0.3,0.6-0.6v-7.7h0.7v7.7c0,0.3,0.3,0.6,0.6,0.6H27.4z
				 M34.5,34.5h-5c0.3,0,0.6-0.3,0.6-0.6V20.5h0.2v5.4c0,0.3,0.3,0.6,0.6,0.6s0.6-0.3,0.6-0.6v-6.7c0-0.3-0.3-0.6-0.6-0.6
				c-0.1,0-0.1,0-0.1,0c-0.1,0-0.1,0-0.2,0h-0.5v0h-3.5v0h-0.3c-0.5,0-0.9,0.4-0.9,0.9c0,0,0,0.1,0,0.1l-1.1,2.2l-2.5,0.9
				c-0.3,0.1-0.5,0.5-0.4,0.8c0.1,0.3,0.5,0.5,0.8,0.4l2.7-0.9c0.1,0,0.2-0.1,0.2-0.2c0.1-0.1,0.2-0.1,0.2-0.3l1-2h0.3v13.4
				c0,0.3,0.3,0.6,0.6,0.6h-3.8l1.2-8.5h-1.1l-0.9,7.2h-3.2L18.6,26h-1.1l1.2,8.5h-4.2v-20h13.9h6.1V34.5z"/>
			<g>
				<path class="st2" d="M37.5,6.5h-26c-2.8,0-5,2.2-5,5v26c0,2.8,2.2,5,5,5h26c2.8,0,5-2.2,5-5v-26C42.5,8.7,40.3,6.5,37.5,6.5z
					 M40.5,37.5c0,1.7-1.3,3-3,3h-26c-1.6,0-3-1.3-3-3v-26c0-0.4,0.1-0.8,0.2-1.2C8.8,10.2,8.9,10,9,9.8C9.2,9.5,9.5,9.2,9.8,9
					c0.5-0.3,1.1-0.5,1.7-0.5h26c0.6,0,1.2,0.2,1.7,0.5c0.3,0.2,0.6,0.5,0.8,0.8c0.1,0.2,0.2,0.3,0.3,0.5c0.2,0.4,0.2,0.8,0.2,1.2
					V37.5z"/>
			</g>
			<path class="st2" d="M28.7,33.9v-7.7H28v7.7c0,0.3-0.3,0.6-0.6,0.6h2C29,34.5,28.7,34.2,28.7,33.9z"/>
			<path class="st2" d="M30,16.1L30,16.1c0,0.9-0.7,1.6-1.6,1.6s-1.6-0.7-1.6-1.6c0,0,0,0,0,0c0-0.9,0.7-1.6,1.6-1.6H14.5v20h4.2
				L17.4,26h1.1l0.9,7.2h3.2l0.9-7.2h1.1l-1.2,8.5h3.8c-0.3,0-0.6-0.3-0.6-0.6V20.5h-0.3l-1,2c0,0.1-0.1,0.2-0.2,0.3
				c-0.1,0.1-0.2,0.1-0.2,0.2l-2.7,0.9c-0.3,0.1-0.7-0.1-0.8-0.4c-0.1-0.3,0.1-0.7,0.4-0.8l2.5-0.9l1.1-2.2c0,0,0-0.1,0-0.1
				c0-0.5,0.4-0.9,0.9-0.9h0.3v0h3.5v0h0.5c0.1,0,0.1,0,0.2,0c0,0,0.1,0,0.1,0c0.3,0,0.6,0.3,0.6,0.6v6.7c0,0.3-0.3,0.6-0.6,0.6
				s-0.6-0.3-0.6-0.6v-5.4h-0.2v13.4c0,0.3-0.3,0.6-0.6,0.6h5v-20h-6.1C29.3,14.5,30,15.2,30,16.1z M21.5,32.9
				C21.5,32.9,21.4,33,21.5,32.9L20.3,33c-0.1,0-0.1,0-0.1-0.1v-1c0-0.1,0-0.1,0.1-0.1h1c0.1,0,0.1,0,0.1,0.1V32.9z M21.9,28.8
				l-0.7,0.7c0,0-0.1,0-0.1,0l-0.7-0.7c0,0,0-0.1,0-0.1l0.7-0.7c0,0,0.1,0,0.1,0l0.7,0.7C21.9,28.7,21.9,28.8,21.9,28.8z M22.5,26.5
				c0,0,0,0.1,0,0.1l-0.7,0.7c0,0-0.1,0-0.1,0l-0.7-0.7c0,0,0-0.1,0-0.1l0.7-0.7c0,0,0.1,0,0.1,0L22.5,26.5z M21.6,24.9
				c0,0,0,0.1,0,0.1l-0.7,0.7c0,0-0.1,0-0.1,0L20,25c0,0,0-0.1,0-0.1l0.7-0.7c0,0,0.1,0,0.1,0L21.6,24.9z"/>
		</g>
	</g>
</g>
</svg>
