<?xml version="1.0" encoding="utf-8"?>
<!-- Generator: Adobe Illustrator 21.0.2, SVG Export Plug-In . SVG Version: 6.00 Build 0)  -->
<svg version="1.1" id="图层_1" xmlns="http://www.w3.org/2000/svg" xmlns:xlink="http://www.w3.org/1999/xlink" x="0px" y="0px"
	 viewBox="0 0 50 50" style="enable-background:new 0 0 50 50;" xml:space="preserve">
<style type="text/css">

	.st0{opacity:0.2;}
	.st1{fill:#FFFFFF;}
	.st2{fill:#00A0E9;}
</style>
<g>
	<g class="st0">
		<rect x="32.6" y="26.2" width="1" height="6.7"/>
		<rect x="24.5" y="27.8" width="2" height="6.7"/>
		<rect x="17.4" y="26.2" width="1" height="6.7"/>
		<path d="M25.3,16.6c-6.5,0-12,2.2-12,4.9c0,2.6,5.5,4.9,12,4.9c6.5,0,12-2.2,12-4.9C37.2,18.8,31.7,16.6,25.3,16.6z"/>
		<path d="M41,10.6c-0.2-0.3-0.5-0.6-0.8-0.8c-0.5-0.3-1.1-0.5-1.7-0.5h-26c-0.6,0-1.2,0.2-1.7,0.5c-0.3,0.2-0.6,0.5-0.8,0.8
			c-0.1,0.2-0.2,0.3-0.3,0.5c-0.2,0.4-0.2,0.8-0.2,1.2v26c0,1.7,1.4,3,3,3h26c1.7,0,3-1.3,3-3v-26c0-0.4-0.1-0.8-0.2-1.2
			C41.2,10.9,41.1,10.7,41,10.6z M38.3,30c0,3.2-5.8,5.7-13,5.7s-13-2.6-13-5.7v-8.6h0c0-3.2,5.8-5.7,13-5.7s13,2.6,13,5.7V30z"/>
		<path d="M38.5,7.3h-26c-2.8,0-5,2.2-5,5v26c0,2.8,2.2,5,5,5h26c2.8,0,5-2.2,5-5v-26C43.5,9.5,41.3,7.3,38.5,7.3z M41.5,38.3
			c0,1.7-1.3,3-3,3h-26c-1.6,0-3-1.3-3-3v-26c0-0.4,0.1-0.8,0.2-1.2c0.1-0.2,0.2-0.3,0.3-0.5c0.2-0.3,0.5-0.6,0.8-0.8
			c0.5-0.3,1.1-0.5,1.7-0.5h26c0.6,0,1.2,0.2,1.7,0.5c0.3,0.2,0.6,0.5,0.8,0.8c0.1,0.2,0.2,0.3,0.3,0.5c0.2,0.4,0.2,0.8,0.2,1.2
			V38.3z"/>
		<path d="M25.3,15.8c-7.2,0-13,2.6-13,5.7h0V30c0,3.2,5.8,5.7,13,5.7s13-2.6,13-5.7v-8.6C38.3,18.3,32.4,15.8,25.3,15.8z
			 M18.4,32.8h-1v-6.7h1V32.8z M26.5,34.5h-2v-6.7h2V34.5z M33.7,32.8h-1v-6.7h1V32.8z M25.3,26.3c-6.5,0-12-2.2-12-4.9
			c0-2.6,5.5-4.9,12-4.9c6.5,0,12,2.2,12,4.9C37.2,24.1,31.7,26.3,25.3,26.3z"/>
	</g>
	<g>
		<g>
			<rect x="31.6" y="25.2" class="st1" width="1" height="6.7"/>
			<rect x="23.5" y="26.8" class="st1" width="2" height="6.7"/>
			<rect x="16.4" y="25.2" class="st1" width="1" height="6.7"/>
			<path class="st1" d="M24.3,15.6c-6.5,0-12,2.2-12,4.9c0,2.6,5.5,4.9,12,4.9c6.5,0,12-2.2,12-4.9C36.2,17.8,30.7,15.6,24.3,15.6z"
				/>
			<path class="st1" d="M40,9.6c-0.2-0.3-0.5-0.6-0.8-0.8c-0.5-0.3-1.1-0.5-1.7-0.5h-26c-0.6,0-1.2,0.2-1.7,0.5C9.5,9,9.2,9.3,9,9.6
				c-0.1,0.2-0.2,0.3-0.3,0.5c-0.2,0.4-0.2,0.8-0.2,1.2v26c0,1.7,1.4,3,3,3h26c1.7,0,3-1.3,3-3v-26c0-0.4-0.1-0.8-0.2-1.2
				C40.2,9.9,40.1,9.7,40,9.6z M37.3,29c0,3.2-5.8,5.7-13,5.7s-13-2.6-13-5.7v-8.6h0c0-3.2,5.8-5.7,13-5.7s13,2.6,13,5.7V29z"/>
			<g>
				<path class="st2" d="M37.5,6.3h-26c-2.8,0-5,2.2-5,5v26c0,2.8,2.2,5,5,5h26c2.8,0,5-2.2,5-5v-26C42.5,8.5,40.3,6.3,37.5,6.3z
					 M40.5,37.3c0,1.7-1.3,3-3,3h-26c-1.6,0-3-1.3-3-3v-26c0-0.4,0.1-0.8,0.2-1.2C8.8,9.9,8.9,9.7,9,9.6C9.2,9.3,9.5,9,9.8,8.8
					c0.5-0.3,1.1-0.5,1.7-0.5h26c0.6,0,1.2,0.2,1.7,0.5C39.5,9,39.8,9.3,40,9.6c0.1,0.2,0.2,0.3,0.3,0.5c0.2,0.4,0.2,0.8,0.2,1.2
					V37.3z"/>
			</g>
			<path class="st2" d="M24.3,14.8c-7.2,0-13,2.6-13,5.7h0V29c0,3.2,5.8,5.7,13,5.7s13-2.6,13-5.7v-8.6
				C37.3,17.3,31.4,14.8,24.3,14.8z M17.4,31.8h-1v-6.7h1V31.8z M25.5,33.5h-2v-6.7h2V33.5z M32.7,31.8h-1v-6.7h1V31.8z M24.3,25.3
				c-6.5,0-12-2.2-12-4.9c0-2.6,5.5-4.9,12-4.9c6.5,0,12,2.2,12,4.9C36.2,23.1,30.7,25.3,24.3,25.3z"/>
		</g>
	</g>
</g>
</svg>
