<?xml version="1.0" encoding="utf-8"?>
<!-- Generator: Adobe Illustrator 21.0.2, SVG Export Plug-In . SVG Version: 6.00 Build 0)  -->
<svg version="1.1" id="图层_1" xmlns="http://www.w3.org/2000/svg" xmlns:xlink="http://www.w3.org/1999/xlink" x="0px" y="0px"
	 viewBox="0 0 32 32" style="enable-background:new 0 0 32 32;" xml:space="preserve">
<style type="text/css">
	.st0{fill:#3090A0;}
	.st1{fill:#FFFFFF;}
</style>
<path class="st0" d="M16,0C7.1,0,0,7.2,0,16s7.2,16,16,16s16-7.2,16-16S24.8,0,16,0z M16,30C8.3,30,2,23.7,2,16C2,8.3,8.3,2,16,2
	s14,6.3,14,14C30,23.7,23.7,30,16,30z"/>
<path class="st1" d="M16,2C8.3,2,2,8.3,2,16c0,7.7,6.3,14,14,14s14-6.3,14-14C30,8.3,23.7,2,16,2z"/>
<g>
	<g>
		<path class="st0" d="M22.7,22h-0.4V10.7c0-0.9-0.6-1.6-1.4-1.6H17c-0.8,0-1.4,0.7-1.4,1.6v2.1c-0.1,0-0.2,0-0.4,0l-3.9,0
			c-0.8,0-1.4,0.6-1.4,1.3v8H9.2c-0.2,0-0.4,0.2-0.4,0.4c0,0.2,0.2,0.4,0.4,0.4h13.5c0.2,0,0.4-0.2,0.4-0.4C23.2,22.2,23,22,22.7,22
			L22.7,22z M11,14c0,0,0.1-0.1,0.3-0.1h3.9c0.2,0,0.3,0.1,0.3,0.1v8H11L11,14L11,14z M16.7,10.7c0-0.3,0.2-0.4,0.3-0.4h3.9
			c0.1,0,0.3,0.2,0.3,0.4V22h-4.5L16.7,10.7L16.7,10.7z"/>
		<path class="st0" d="M18.2,10.8h-0.7c-0.2,0-0.4,0.2-0.4,0.4v0.7c0,0.2,0.2,0.4,0.4,0.4h0.7c0.2,0,0.4-0.2,0.4-0.4v-0.7
			C18.6,10.9,18.5,10.8,18.2,10.8z M18.2,12.8h-0.7c-0.2,0-0.4,0.2-0.4,0.4v0.7c0,0.2,0.2,0.4,0.4,0.4h0.7c0.2,0,0.4-0.2,0.4-0.4
			v-0.7C18.6,12.9,18.5,12.8,18.2,12.8z M18.2,14.7h-0.7c-0.2,0-0.4,0.2-0.4,0.4v0.7c0,0.2,0.2,0.4,0.4,0.4h0.7
			c0.2,0,0.4-0.2,0.4-0.4v-0.7C18.6,14.9,18.5,14.7,18.2,14.7z M20.3,10.8h-0.7c-0.2,0-0.4,0.2-0.4,0.4v0.7c0,0.2,0.2,0.4,0.4,0.4
			h0.7c0.2,0,0.4-0.2,0.4-0.4v-0.7C20.7,10.9,20.5,10.8,20.3,10.8z M20.3,12.8h-0.7c-0.2,0-0.4,0.2-0.4,0.4v0.7
			c0,0.2,0.2,0.4,0.4,0.4h0.7c0.2,0,0.4-0.2,0.4-0.4v-0.7C20.7,12.9,20.5,12.8,20.3,12.8z M20.3,14.7h-0.7c-0.2,0-0.4,0.2-0.4,0.4
			v0.7c0,0.2,0.2,0.4,0.4,0.4h0.7c0.2,0,0.4-0.2,0.4-0.4v-0.7C20.7,14.9,20.5,14.7,20.3,14.7z M18.2,16.7h-0.7
			c-0.2,0-0.4,0.2-0.4,0.4v0.7c0,0.2,0.2,0.4,0.4,0.4h0.7c0.2,0,0.4-0.2,0.4-0.4v-0.7C18.6,16.9,18.5,16.7,18.2,16.7z M18.2,18.7
			h-0.7c-0.2,0-0.4,0.2-0.4,0.4v0.7c0,0.2,0.2,0.4,0.4,0.4h0.7c0.2,0,0.4-0.2,0.4-0.4v-0.7C18.6,18.9,18.5,18.7,18.2,18.7z
			 M20.3,16.7h-0.7c-0.2,0-0.4,0.2-0.4,0.4v0.7c0,0.2,0.2,0.4,0.4,0.4h0.7c0.2,0,0.4-0.2,0.4-0.4v-0.7
			C20.7,16.9,20.5,16.7,20.3,16.7z M20.3,18.7h-0.7c-0.2,0-0.4,0.2-0.4,0.4v0.7c0,0.2,0.2,0.4,0.4,0.4h0.7c0.2,0,0.4-0.2,0.4-0.4
			v-0.7C20.7,18.9,20.5,18.7,20.3,18.7z M12.5,14.7h-0.7c-0.2,0-0.4,0.2-0.4,0.4v0.7c0,0.2,0.2,0.4,0.4,0.4h0.7
			c0.2,0,0.4-0.2,0.4-0.4v-0.7C12.9,14.9,12.8,14.7,12.5,14.7z M14.6,14.7h-0.7c-0.2,0-0.4,0.2-0.4,0.4v0.7c0,0.2,0.2,0.4,0.4,0.4
			h0.7c0.2,0,0.4-0.2,0.4-0.4v-0.7C15,14.9,14.8,14.7,14.6,14.7z M12.5,16.7h-0.7c-0.2,0-0.4,0.2-0.4,0.4v0.7c0,0.2,0.2,0.4,0.4,0.4
			h0.7c0.2,0,0.4-0.2,0.4-0.4v-0.7C12.9,16.9,12.8,16.7,12.5,16.7z M12.5,18.7h-0.7c-0.2,0-0.4,0.2-0.4,0.4v0.7
			c0,0.2,0.2,0.4,0.4,0.4h0.7c0.2,0,0.4-0.2,0.4-0.4v-0.7C12.9,18.9,12.8,18.7,12.5,18.7z M14.6,16.7h-0.7c-0.2,0-0.4,0.2-0.4,0.4
			v0.7c0,0.2,0.2,0.4,0.4,0.4h0.7c0.2,0,0.4-0.2,0.4-0.4v-0.7C15,16.9,14.8,16.7,14.6,16.7z M14.6,18.7h-0.7c-0.2,0-0.4,0.2-0.4,0.4
			v0.7c0,0.2,0.2,0.4,0.4,0.4h0.7c0.2,0,0.4-0.2,0.4-0.4v-0.7C15,18.9,14.8,18.7,14.6,18.7z"/>
	</g>
</g>
</svg>
