<?xml version="1.0" encoding="utf-8"?>
<!-- Generator: Adobe Illustrator 21.0.2, SVG Export Plug-In . SVG Version: 6.00 Build 0)  -->
<svg version="1.1" id="图层_1" xmlns="http://www.w3.org/2000/svg" xmlns:xlink="http://www.w3.org/1999/xlink" x="0px" y="0px"
	 viewBox="0 0 50 50" style="enable-background:new 0 0 50 50;" xml:space="preserve">
<style type="text/css">
	.st0{opacity:0.2;}
	.st1{fill:#FFFFFF;}
	.st2{fill:#F93E54;}
</style>
<g>
	<g class="st0">
		<path d="M41,10.8c-0.2-0.3-0.5-0.6-0.8-0.8c-0.5-0.3-1.1-0.5-1.7-0.5h-26c-0.6,0-1.2,0.2-1.7,0.5c-0.3,0.2-0.6,0.5-0.8,0.8
			c-0.1,0.2-0.2,0.3-0.3,0.5c-0.2,0.4-0.2,0.8-0.2,1.2v26c0,1.7,1.3,3,3,3h26c1.6,0,3-1.3,3-3v-26c0-0.4-0.1-0.8-0.2-1.2
			C41.2,11.2,41.1,11,41,10.8z M25.8,15.3c1,0,1.8,0.9,1.8,2c0,1.1-0.8,2-1.8,2s-1.8-0.9-1.8-2C24,16.2,24.8,15.3,25.8,15.3z
			 M33.4,23.8c-0.7,0-1.2-0.8-1.4-2h-4.5v2.5v2V35c0,0.2,0,0.4-0.2,0.5c-0.2,0.1-0.3,0.2-0.5,0.2c-0.2,0-0.4-0.1-0.6-0.2
			C26,35.4,26,35.2,26,35v-6.2h-0.3V35c0,0.2-0.1,0.4-0.3,0.5c-0.2,0.1-0.3,0.2-0.6,0.2c-0.2,0-0.4,0-0.5-0.2
			C24.1,35.4,24,35.2,24,35v-8.6v-2v-2.5H19c0,0,0,0,0,0c-0.2,1.1-0.8,2-1.4,2v-5.6c0.7,0,1.2,0.8,1.4,2c0,0,0,0,0,0h13
			c0.2-1.1,0.8-2,1.4-2V23.8z"/>
		<path d="M38.5,7.5h-26c-2.8,0-5,2.2-5,5v26c0,2.8,2.2,5,5,5h26c2.8,0,5-2.2,5-5v-26C43.5,9.7,41.3,7.5,38.5,7.5z M41.5,38.5
			c0,1.7-1.4,3-3,3h-26c-1.7,0-3-1.3-3-3v-26c0-0.4,0.1-0.8,0.2-1.2c0.1-0.2,0.2-0.3,0.3-0.5c0.2-0.3,0.5-0.6,0.8-0.8
			c0.5-0.3,1.1-0.5,1.7-0.5h26c0.6,0,1.2,0.2,1.7,0.5c0.3,0.2,0.6,0.5,0.8,0.8c0.1,0.2,0.2,0.3,0.3,0.5c0.2,0.4,0.2,0.8,0.2,1.2
			V38.5z"/>
		<ellipse cx="25.8" cy="17.3" rx="1.8" ry="2"/>
		<path d="M32,20.2H19c0,0,0,0,0,0c-0.2-1.1-0.8-2-1.4-2v5.6c0.7,0,1.2-0.8,1.4-2c0,0,0,0,0,0H24v2.5v2V35c0,0.2,0.1,0.4,0.3,0.5
			c0.2,0.2,0.3,0.2,0.5,0.2c0.3,0,0.4-0.1,0.6-0.2c0.2-0.2,0.3-0.3,0.3-0.5v-6.2H26V35c0,0.2,0.1,0.4,0.3,0.5
			c0.2,0.1,0.4,0.2,0.6,0.2c0.2,0,0.4-0.1,0.5-0.2c0.2-0.2,0.2-0.3,0.2-0.5v-8.6v-2v-2.5H32c0.2,1.1,0.8,2,1.4,2v-5.6
			C32.8,18.2,32.2,19.1,32,20.2z"/>
	</g>
	<g>
		<g>
			<path class="st1" d="M40,9.8c-0.2-0.3-0.5-0.6-0.8-0.8c-0.5-0.3-1.1-0.5-1.7-0.5h-26c-0.6,0-1.2,0.2-1.7,0.5
				C9.5,9.2,9.2,9.5,9,9.8c-0.1,0.2-0.2,0.3-0.3,0.5c-0.2,0.4-0.2,0.8-0.2,1.2v26c0,1.7,1.3,3,3,3h26c1.6,0,3-1.3,3-3v-26
				c0-0.4-0.1-0.8-0.2-1.2C40.2,10.2,40.1,10,40,9.8z M24.8,14.3c1,0,1.8,0.9,1.8,2c0,1.1-0.8,2-1.8,2s-1.8-0.9-1.8-2
				C23,15.2,23.8,14.3,24.8,14.3z M32.4,22.8c-0.7,0-1.2-0.8-1.4-2h-4.5v2.5v2V34c0,0.2,0,0.4-0.2,0.5c-0.2,0.1-0.3,0.2-0.5,0.2
				c-0.2,0-0.4-0.1-0.6-0.2C25,34.4,25,34.2,25,34v-6.2h-0.3V34c0,0.2-0.1,0.4-0.3,0.5c-0.2,0.1-0.3,0.2-0.6,0.2
				c-0.2,0-0.4,0-0.5-0.2C23.1,34.4,23,34.2,23,34v-8.6v-2v-2.5H18c0,0,0,0,0,0c-0.2,1.1-0.8,2-1.4,2v-5.6c0.7,0,1.2,0.8,1.4,2
				c0,0,0,0,0,0h13c0.2-1.1,0.8-2,1.4-2V22.8z"/>
			<path class="st2" d="M37.5,6.5h-26c-2.8,0-5,2.2-5,5v26c0,2.8,2.2,5,5,5h26c2.8,0,5-2.2,5-5v-26C42.5,8.7,40.3,6.5,37.5,6.5z
				 M40.5,37.5c0,1.7-1.4,3-3,3h-26c-1.7,0-3-1.3-3-3v-26c0-0.4,0.1-0.8,0.2-1.2C8.8,10.2,8.9,10,9,9.8C9.2,9.5,9.5,9.2,9.8,9
				c0.5-0.3,1.1-0.5,1.7-0.5h26c0.6,0,1.2,0.2,1.7,0.5c0.3,0.2,0.6,0.5,0.8,0.8c0.1,0.2,0.2,0.3,0.3,0.5c0.2,0.4,0.2,0.8,0.2,1.2
				V37.5z"/>
			<ellipse class="st2" cx="24.8" cy="16.3" rx="1.8" ry="2"/>
			<path class="st2" d="M31,19.2H18c0,0,0,0,0,0c-0.2-1.1-0.8-2-1.4-2v5.6c0.7,0,1.2-0.8,1.4-2c0,0,0,0,0,0H23v2.5v2V34
				c0,0.2,0.1,0.4,0.3,0.5c0.2,0.2,0.3,0.2,0.5,0.2c0.3,0,0.4-0.1,0.6-0.2c0.2-0.2,0.3-0.3,0.3-0.5v-6.2H25V34
				c0,0.2,0.1,0.4,0.3,0.5c0.2,0.1,0.4,0.2,0.6,0.2c0.2,0,0.4-0.1,0.5-0.2c0.2-0.2,0.2-0.3,0.2-0.5v-8.6v-2v-2.5H31
				c0.2,1.1,0.8,2,1.4,2v-5.6C31.8,17.2,31.2,18.1,31,19.2z"/>
		</g>
	</g>
</g>
</svg>
