<?xml version="1.0" encoding="utf-8"?>
<!-- Generator: Adobe Illustrator 21.0.2, SVG Export Plug-In . SVG Version: 6.00 Build 0)  -->
<svg version="1.1" id="图层_1" xmlns="http://www.w3.org/2000/svg" xmlns:xlink="http://www.w3.org/1999/xlink" x="0px" y="0px"
	 viewBox="0 0 50 50" style="enable-background:new 0 0 50 50;" xml:space="preserve">
<style type="text/css">
	.st0{opacity:0.2;}
	.st1{fill:#FFFFFF;}
	.st2{fill:#22AC38;}
</style>
<g>
	<g class="st0">
		<path d="M38.5,9.5h-26c-1.7,0-3,1.3-3,3v26c0,0.2,0,0.4,0.1,0.6c0.1,0.6,0.4,1.1,0.8,1.5c0.5,0.5,1.3,0.9,2.1,0.9h26
			c0.8,0,1.6-0.3,2.1-0.9c0.4-0.4,0.7-0.9,0.8-1.5c0-0.2,0.1-0.4,0.1-0.6v-26C41.5,10.8,40.1,9.5,38.5,9.5z M29.1,16.2
			c1.2,0.4,2.2,1.1,3.1,1.9h-3.9L29.1,16.2z M33.2,19.1L30.9,25h-1.5c-0.2-1.4-1.2-2.7-2.5-3.2l1.1-2.7H33.2z M23.5,15.7
			c0.6-0.1,1.3-0.2,2-0.2c0.8,0,1.7,0.1,2.4,0.3l-0.9,2.3h-4.5L23.5,15.7z M26.7,19.1l-1,2.5c-0.1,0-0.1,0-0.2,0
			c-2,0-3.7,1.5-3.9,3.4h-1.7l2.3-5.9H26.7z M22.2,16.1l-0.8,2h-2.6C19.7,17.2,20.9,16.5,22.2,16.1z M17.8,19.1H21L18.7,25h-3.2
			C15.6,22.8,16.4,20.7,17.8,19.1z M15.5,26h2.8l-1.6,4.2C16,29,15.6,27.5,15.5,26z M20.8,34.3c-0.4-0.2-0.7-0.4-1-0.6H21L20.8,34.3
			z M18.5,32.7c-0.4-0.4-0.8-0.8-1.1-1.3l2.1-5.4h2.1c0.1,1,0.7,1.9,1.4,2.6l-1.6,4.1H18.5z M26.9,35.4c-0.4,0.1-0.9,0.1-1.4,0.1
			c-1.3,0-2.5-0.2-3.6-0.7l0.4-1.1h5.2L26.9,35.4z M22.7,32.7l1.4-3.5c0.4,0.2,0.9,0.3,1.4,0.3c2,0,3.7-1.5,3.9-3.4h1.1l-2.6,6.7
			H22.7z M28.1,35.1l0.6-1.5h2.6C30.3,34.3,29.3,34.8,28.1,35.1z M32.5,32.7h-3.4l2.6-6.7h3.8C35.4,28.6,34.2,31,32.5,32.7z
			 M32.1,25l1.9-4.9c0.9,1.4,1.5,3.1,1.6,4.9H32.1z"/>
		<path d="M38.5,7.5h-26c-2.8,0-5,2.2-5,5v26c0,2.8,2.2,5,5,5h26c2.8,0,5-2.2,5-5v-26C43.5,9.7,41.3,7.5,38.5,7.5z M41.5,38.5
			L41.5,38.5c0,0.2,0,0.4-0.1,0.6c-0.1,0.6-0.4,1.1-0.8,1.5c-0.5,0.5-1.3,0.9-2.1,0.9h-26c-0.8,0-1.6-0.3-2.1-0.9
			c-0.4-0.4-0.7-0.9-0.8-1.5c0-0.2-0.1-0.4-0.1-0.6v0v-26c0-1.7,1.3-3,3-3h26c1.6,0,3,1.3,3,3V38.5z"/>
		<path d="M32.1,25h3.4c-0.1-1.8-0.6-3.5-1.6-4.9L32.1,25z"/>
		<path d="M29.1,16.2l-0.7,1.9h3.9C31.3,17.3,30.3,16.6,29.1,16.2z"/>
		<path d="M29.4,25h1.5l2.3-5.9H28l-1.1,2.7C28.3,22.4,29.2,23.6,29.4,25z"/>
		<path d="M28.1,35.1c1.1-0.3,2.2-0.8,3.1-1.5h-2.6L28.1,35.1z"/>
		<path d="M29.1,32.7h3.4c1.8-1.7,2.9-4.1,3-6.7h-3.8L29.1,32.7z"/>
		<path d="M21,19.1h-3.2c-1.3,1.6-2.2,3.7-2.3,5.9h3.2L21,19.1z"/>
		<path d="M22.2,16.1c-1.3,0.4-2.4,1.1-3.4,2h2.6L22.2,16.1z"/>
		<path d="M15.5,26c0.1,1.5,0.5,3,1.2,4.2l1.6-4.2H15.5z"/>
		<path d="M27.9,15.8c-0.8-0.2-1.6-0.3-2.4-0.3c-0.7,0-1.4,0.1-2,0.2l-0.9,2.4h4.5L27.9,15.8z"/>
		<path d="M21.9,34.8c1.1,0.4,2.3,0.7,3.6,0.7c0.5,0,0.9,0,1.4-0.1l0.7-1.7h-5.2L21.9,34.8z"/>
		<path d="M29.4,26c-0.2,1.9-1.9,3.4-3.9,3.4c-0.5,0-1-0.1-1.4-0.3l-1.4,3.5h5.2l2.6-6.7H29.4z"/>
		<path d="M21.6,25c0.2-1.9,1.9-3.4,3.9-3.4c0.1,0,0.1,0,0.2,0l1-2.5h-4.5L19.9,25H21.6z"/>
		<path d="M20.8,34.3l0.2-0.6h-1.3C20.1,33.9,20.4,34.1,20.8,34.3z"/>
		<path d="M21.6,26h-2.1l-2.1,5.4c0.3,0.5,0.7,0.9,1.1,1.3h2.9l1.6-4.1C22.2,27.9,21.7,27,21.6,26z"/>
	</g>
	<g>
		<g>
			<path class="st1" d="M37.5,8.5h-26c-1.7,0-3,1.3-3,3v26c0,0.2,0,0.4,0.1,0.6c0.1,0.6,0.4,1.1,0.8,1.5c0.5,0.5,1.3,0.9,2.1,0.9h26
				c0.8,0,1.6-0.3,2.1-0.9c0.4-0.4,0.7-0.9,0.8-1.5c0-0.2,0.1-0.4,0.1-0.6v-26C40.5,9.8,39.1,8.5,37.5,8.5z M28.1,15.2
				c1.2,0.4,2.2,1.1,3.1,1.9h-3.9L28.1,15.2z M32.2,18.1L29.9,24h-1.5c-0.2-1.4-1.2-2.7-2.5-3.2l1.1-2.7H32.2z M22.5,14.7
				c0.6-0.1,1.3-0.2,2-0.2c0.8,0,1.7,0.1,2.4,0.3l-0.9,2.3h-4.5L22.5,14.7z M25.7,18.1l-1,2.5c-0.1,0-0.1,0-0.2,0
				c-2,0-3.7,1.5-3.9,3.4h-1.7l2.3-5.9H25.7z M21.2,15.1l-0.8,2h-2.6C18.7,16.2,19.9,15.5,21.2,15.1z M16.8,18.1H20L17.7,24h-3.2
				C14.6,21.8,15.4,19.7,16.8,18.1z M14.5,25h2.8l-1.6,4.2C15,28,14.6,26.5,14.5,25z M19.8,33.3c-0.4-0.2-0.7-0.4-1-0.6H20
				L19.8,33.3z M17.5,31.7c-0.4-0.4-0.8-0.8-1.1-1.3l2.1-5.4h2.1c0.1,1,0.7,1.9,1.4,2.6l-1.6,4.1H17.5z M25.9,34.4
				c-0.4,0.1-0.9,0.1-1.4,0.1c-1.3,0-2.5-0.2-3.6-0.7l0.4-1.1h5.2L25.9,34.4z M21.7,31.7l1.4-3.5c0.4,0.2,0.9,0.3,1.4,0.3
				c2,0,3.7-1.5,3.9-3.4h1.1l-2.6,6.7H21.7z M27.1,34.1l0.6-1.5h2.6C29.3,33.3,28.3,33.8,27.1,34.1z M31.5,31.7h-3.4l2.6-6.7h3.8
				C34.4,27.6,33.2,30,31.5,31.7z M31.1,24l1.9-4.9c0.9,1.4,1.5,3.1,1.6,4.9H31.1z"/>
			<path class="st2" d="M37.5,6.5h-26c-2.8,0-5,2.2-5,5v26c0,2.8,2.2,5,5,5h26c2.8,0,5-2.2,5-5v-26C42.5,8.7,40.3,6.5,37.5,6.5z
				 M40.5,37.5L40.5,37.5c0,0.2,0,0.4-0.1,0.6c-0.1,0.6-0.4,1.1-0.8,1.5c-0.5,0.5-1.3,0.9-2.1,0.9h-26c-0.8,0-1.6-0.3-2.1-0.9
				c-0.4-0.4-0.7-0.9-0.8-1.5c0-0.2-0.1-0.4-0.1-0.6v0v-26c0-1.7,1.3-3,3-3h26c1.6,0,3,1.3,3,3V37.5z"/>
			<path class="st2" d="M31.1,24h3.4c-0.1-1.8-0.6-3.5-1.6-4.9L31.1,24z"/>
			<path class="st2" d="M28.1,15.2l-0.7,1.9h3.9C30.3,16.3,29.3,15.6,28.1,15.2z"/>
			<path class="st2" d="M28.4,24h1.5l2.3-5.9H27l-1.1,2.7C27.3,21.4,28.2,22.6,28.4,24z"/>
			<path class="st2" d="M27.1,34.1c1.1-0.3,2.2-0.8,3.1-1.5h-2.6L27.1,34.1z"/>
			<path class="st2" d="M28.1,31.7h3.4c1.8-1.7,2.9-4.1,3-6.7h-3.8L28.1,31.7z"/>
			<path class="st2" d="M20,18.1h-3.2c-1.3,1.6-2.2,3.7-2.3,5.9h3.2L20,18.1z"/>
			<path class="st2" d="M21.2,15.1c-1.3,0.4-2.4,1.1-3.4,2h2.6L21.2,15.1z"/>
			<path class="st2" d="M14.5,25c0.1,1.5,0.5,3,1.2,4.2l1.6-4.2H14.5z"/>
			<path class="st2" d="M26.9,14.8c-0.8-0.2-1.6-0.3-2.4-0.3c-0.7,0-1.4,0.1-2,0.2l-0.9,2.4h4.5L26.9,14.8z"/>
			<path class="st2" d="M20.9,33.8c1.1,0.4,2.3,0.7,3.6,0.7c0.5,0,0.9,0,1.4-0.1l0.7-1.7h-5.2L20.9,33.8z"/>
			<path class="st2" d="M28.4,25c-0.2,1.9-1.9,3.4-3.9,3.4c-0.5,0-1-0.1-1.4-0.3l-1.4,3.5h5.2l2.6-6.7H28.4z"/>
			<path class="st2" d="M20.6,24c0.2-1.9,1.9-3.4,3.9-3.4c0.1,0,0.1,0,0.2,0l1-2.5h-4.5L18.9,24H20.6z"/>
			<path class="st2" d="M19.8,33.3l0.2-0.6h-1.3C19.1,32.9,19.4,33.1,19.8,33.3z"/>
			<path class="st2" d="M20.6,25h-2.1l-2.1,5.4c0.3,0.5,0.7,0.9,1.1,1.3h2.9l1.6-4.1C21.2,26.9,20.7,26,20.6,25z"/>
		</g>
	</g>
</g>
</svg>
