<?xml version="1.0" encoding="utf-8"?>
<!-- Generator: Adobe Illustrator 21.0.2, SVG Export Plug-In . SVG Version: 6.00 Build 0)  -->
<svg version="1.1" id="图层_1" xmlns="http://www.w3.org/2000/svg" xmlns:xlink="http://www.w3.org/1999/xlink" x="0px" y="0px"
	 viewBox="0 0 50 50" style="enable-background:new 0 0 50 50;" xml:space="preserve">
<style type="text/css">
	.st0{opacity:0.2;}
	.st1{fill:#FFFFFF;}
	.st2{fill:#F93E54;}
</style>
<g>
	<g class="st0">
		<path d="M38.5,9.5h-26c-1.6,0-3,1.4-3,3v26c0,1.7,1.4,3,3,3h26c1.7,0,3-1.3,3-3v-26C41.5,10.9,40.2,9.5,38.5,9.5z M25.2,35.9h-9.8
			V21.1l-1.6,1.6L13.1,22l7.2-7.2l0.4,0.3l6.9,6.9l-0.7,0.7l-1.6-1.6V35.9z M31.3,27.9c-0.2,0-0.5-0.1-0.8-0.1h-0.9v2.7
			c0.7-0.3,1.2-0.5,1.6-0.8l0,0.6c-0.2,0.1-0.5,0.2-1,0.4c-0.3,0.1-0.4,0.2-0.5,0.2v3.6c0,0.4-0.1,0.7-0.3,0.8
			c-0.2,0.1-0.6,0.3-1.3,0.4c-0.1-0.3-0.2-0.5-0.3-0.7c0.1,0,0.3,0.1,0.5,0.1c0.1,0,0.2,0,0.2,0c0.1,0,0.2,0,0.3,0
			c0.4,0,0.5-0.2,0.5-0.6v-3.4c-0.1,0-0.3,0.1-0.6,0.2c-0.3,0.1-0.4,0.2-0.6,0.2c-0.2,0.1-0.4,0.2-0.6,0.3l-0.3-0.6
			c0.5-0.1,1.2-0.3,2-0.6v-2.9H28c-0.3,0-0.6,0-0.8,0.1v-0.5c0.2,0,0.5,0.1,0.8,0.1h1.2v-1.9c0-0.3,0-0.6-0.1-0.8h0.6
			c0,0.2-0.1,0.5-0.1,0.8v1.9h0.9c0.3,0,0.6,0,0.8-0.1V27.9z M37.6,35.6c-0.9-0.6-1.7-1.2-2.3-1.7c-0.6,0.6-1.2,1.2-2,1.7
			c-0.2-0.3-0.4-0.4-0.5-0.5c1-0.4,1.7-0.9,2.3-1.6c-0.8-1.1-1.5-2.3-2-3.5h-0.3v5.1c0,0.4,0,0.6,0.1,0.8h-0.6
			c0-0.2,0.1-0.5,0.1-0.8V26c0,0,0-0.3-0.1-0.8c0.2,0,0.4,0,0.6,0.1c0.1,0,0.2,0,0.2,0h3.2c0,0,0.2,0,0.4,0c0.2,0,0.3,0,0.4,0
			c0,0.2-0.1,0.4-0.1,0.8l-0.1,1.2c0,0.9-0.7,1.4-2.2,1.5c-0.1-0.3-0.2-0.5-0.4-0.7c0.1,0,0.3,0,0.6,0c0.3,0,0.5,0,0.7,0
			c0.6-0.1,0.8-0.4,0.9-1l0.1-1.3h-3.7v3.9h3.7c0.4,0,0.6,0,0.8-0.1c-0.4,1.7-0.9,3-1.6,3.9c0.5,0.4,1,0.8,1.5,1.1
			c0.4,0.2,0.7,0.4,1.1,0.4C37.9,35.1,37.8,35.3,37.6,35.6z"/>
		<path d="M16.4,20.1v14.8h7.8V20.1l-3.9-3.9L16.4,20.1z M20.8,32h-1V20h1V32z"/>
		<path d="M33.4,30c0.5,1.1,1.1,2.2,1.8,3.1c0.6-1,1-2,1.2-3.1H33.4z"/>
		<path d="M38.5,7.5h-26c-2.8,0-5,2.2-5,5v26c0,2.8,2.2,5,5,5h26c2.8,0,5-2.2,5-5v-26C43.5,9.7,41.3,7.5,38.5,7.5z M41.5,38.5
			c0,1.7-1.3,3-3,3h-26c-1.6,0-3-1.3-3-3v-26c0-1.6,1.4-3,3-3h26c1.7,0,3,1.4,3,3V38.5z"/>
		<path d="M27.5,22l-6.9-6.9l-0.4-0.3L13.1,22l0.7,0.7l1.6-1.6v14.8h9.8V21.1l1.6,1.6L27.5,22z M24.2,34.9h-7.8V20.1l3.9-3.9
			l3.9,3.9V34.9z"/>
		<rect x="19.8" y="20" width="1" height="12"/>
		<path d="M35.5,33.5c0.7-1,1.2-2.3,1.6-3.9c-0.2,0-0.5,0.1-0.8,0.1h-3.7v-3.9h3.7l-0.1,1.3c0,0.6-0.3,1-0.9,1c-0.1,0-0.4,0-0.7,0
			c-0.3,0-0.5,0-0.6,0c0.1,0.2,0.2,0.4,0.4,0.7c1.5-0.1,2.2-0.6,2.2-1.5l0.1-1.2c0-0.4,0.1-0.6,0.1-0.8c-0.1,0-0.2,0-0.4,0
			c-0.2,0-0.3,0-0.4,0h-3.2c0,0-0.1,0-0.2,0c-0.2,0-0.4,0-0.6-0.1c0,0.5,0.1,0.8,0.1,0.8v9.1c0,0.3,0,0.6-0.1,0.8h0.6
			c0-0.2-0.1-0.4-0.1-0.8V30h0.3c0.5,1.3,1.2,2.4,2,3.5c-0.5,0.7-1.3,1.2-2.3,1.6c0.2,0,0.3,0.2,0.5,0.5c0.8-0.5,1.5-1.1,2-1.7
			c0.6,0.6,1.4,1.1,2.3,1.7c0.2-0.3,0.3-0.4,0.5-0.5c-0.3,0-0.7-0.2-1.1-0.4C36.5,34.3,36,33.9,35.5,33.5z M35.2,33.1
			c-0.8-0.9-1.4-2-1.8-3.1h3.1C36.3,31.1,35.8,32.2,35.2,33.1z"/>
		<path d="M29.6,27.4v-1.9c0-0.3,0-0.6,0.1-0.8h-0.6c0,0.2,0.1,0.5,0.1,0.8v1.9H28c-0.3,0-0.6,0-0.8-0.1v0.5c0.2,0,0.5-0.1,0.8-0.1
			h1.2v2.9c-0.8,0.3-1.5,0.5-2,0.6l0.3,0.6c0.2-0.1,0.4-0.2,0.6-0.3c0.1-0.1,0.3-0.1,0.6-0.2c0.3-0.1,0.5-0.2,0.6-0.2v3.4
			c0,0.3-0.1,0.5-0.5,0.6c-0.1,0-0.2,0-0.3,0c0,0-0.1,0-0.2,0c-0.2,0-0.4,0-0.5-0.1c0.1,0.1,0.2,0.4,0.3,0.7
			c0.7-0.1,1.2-0.2,1.3-0.4c0.2-0.1,0.3-0.4,0.3-0.8v-3.6c0.1,0,0.3-0.1,0.5-0.2c0.5-0.2,0.9-0.3,1-0.4l0-0.6
			c-0.3,0.2-0.8,0.5-1.6,0.8v-2.7h0.9c0.3,0,0.6,0,0.8,0.1v-0.5c-0.2,0-0.5,0.1-0.8,0.1H29.6z"/>
	</g>
	<g>
		<g>
			<path class="st1" d="M37.5,8.5h-26c-1.6,0-3,1.4-3,3v26c0,1.7,1.4,3,3,3h26c1.7,0,3-1.3,3-3v-26C40.5,9.9,39.2,8.5,37.5,8.5z
				 M24.2,34.9h-9.8V20.1l-1.6,1.6L12.1,21l7.2-7.2l0.4,0.3l6.9,6.9l-0.7,0.7l-1.6-1.6V34.9z M30.3,26.9c-0.2,0-0.5-0.1-0.8-0.1
				h-0.9v2.7c0.7-0.3,1.2-0.5,1.6-0.8l0,0.6c-0.2,0.1-0.5,0.2-1,0.4c-0.3,0.1-0.4,0.2-0.5,0.2v3.6c0,0.4-0.1,0.7-0.3,0.8
				c-0.2,0.1-0.6,0.3-1.3,0.4c-0.1-0.3-0.2-0.5-0.3-0.7c0.1,0,0.3,0.1,0.5,0.1c0.1,0,0.2,0,0.2,0c0.1,0,0.2,0,0.3,0
				c0.4,0,0.5-0.2,0.5-0.6v-3.4c-0.1,0-0.3,0.1-0.6,0.2c-0.3,0.1-0.4,0.2-0.6,0.2c-0.2,0.1-0.4,0.2-0.6,0.3l-0.3-0.6
				c0.5-0.1,1.2-0.3,2-0.6v-2.9H27c-0.3,0-0.6,0-0.8,0.1v-0.5c0.2,0,0.5,0.1,0.8,0.1h1.2v-1.9c0-0.3,0-0.6-0.1-0.8h0.6
				c0,0.2-0.1,0.5-0.1,0.8v1.9h0.9c0.3,0,0.6,0,0.8-0.1V26.9z M36.6,34.6c-0.9-0.6-1.7-1.2-2.3-1.7c-0.6,0.6-1.2,1.2-2,1.7
				c-0.2-0.3-0.4-0.4-0.5-0.5c1-0.4,1.7-0.9,2.3-1.6c-0.8-1.1-1.5-2.3-2-3.5h-0.3v5.1c0,0.4,0,0.6,0.1,0.8h-0.6
				c0-0.2,0.1-0.5,0.1-0.8V25c0,0,0-0.3-0.1-0.8c0.2,0,0.4,0,0.6,0.1c0.1,0,0.2,0,0.2,0h3.2c0,0,0.2,0,0.4,0c0.2,0,0.3,0,0.4,0
				c0,0.2-0.1,0.4-0.1,0.8l-0.1,1.2c0,0.9-0.7,1.4-2.2,1.5c-0.1-0.3-0.2-0.5-0.4-0.7c0.1,0,0.3,0,0.6,0c0.3,0,0.5,0,0.7,0
				c0.6-0.1,0.8-0.4,0.9-1l0.1-1.3h-3.7v3.9h3.7c0.4,0,0.6,0,0.8-0.1c-0.4,1.7-0.9,3-1.6,3.9c0.5,0.4,1,0.8,1.5,1.1
				c0.4,0.2,0.7,0.4,1.1,0.4C36.9,34.1,36.8,34.3,36.6,34.6z"/>
			<path class="st1" d="M15.4,19.1v14.8h7.8V19.1l-3.9-3.9L15.4,19.1z M19.8,31h-1V19h1V31z"/>
			<path class="st1" d="M32.4,29c0.5,1.1,1.1,2.2,1.8,3.1c0.6-1,1-2,1.2-3.1H32.4z"/>
			<path class="st2" d="M37.5,6.5h-26c-2.8,0-5,2.2-5,5v26c0,2.8,2.2,5,5,5h26c2.8,0,5-2.2,5-5v-26C42.5,8.7,40.3,6.5,37.5,6.5z
				 M40.5,37.5c0,1.7-1.3,3-3,3h-26c-1.6,0-3-1.3-3-3v-26c0-1.6,1.4-3,3-3h26c1.7,0,3,1.4,3,3V37.5z"/>
			<path class="st2" d="M26.5,21l-6.9-6.9l-0.4-0.3L12.1,21l0.7,0.7l1.6-1.6v14.8h9.8V20.1l1.6,1.6L26.5,21z M23.2,33.9h-7.8V19.1
				l3.9-3.9l3.9,3.9V33.9z"/>
			<rect x="18.8" y="19" class="st2" width="1" height="12"/>
			<path class="st2" d="M34.5,32.5c0.7-1,1.2-2.3,1.6-3.9c-0.2,0-0.5,0.1-0.8,0.1h-3.7v-3.9h3.7l-0.1,1.3c0,0.6-0.3,1-0.9,1
				c-0.1,0-0.4,0-0.7,0c-0.3,0-0.5,0-0.6,0c0.1,0.2,0.2,0.4,0.4,0.7c1.5-0.1,2.2-0.6,2.2-1.5l0.1-1.2c0-0.4,0.1-0.6,0.1-0.8
				c-0.1,0-0.2,0-0.4,0c-0.2,0-0.3,0-0.4,0h-3.2c0,0-0.1,0-0.2,0c-0.2,0-0.4,0-0.6-0.1c0,0.5,0.1,0.8,0.1,0.8v9.1
				c0,0.3,0,0.6-0.1,0.8h0.6c0-0.2-0.1-0.4-0.1-0.8V29h0.3c0.5,1.3,1.2,2.4,2,3.5c-0.5,0.7-1.3,1.2-2.3,1.6c0.2,0,0.3,0.2,0.5,0.5
				c0.8-0.5,1.5-1.1,2-1.7c0.6,0.6,1.4,1.1,2.3,1.7c0.2-0.3,0.3-0.4,0.5-0.5c-0.3,0-0.7-0.2-1.1-0.4C35.5,33.3,35,32.9,34.5,32.5z
				 M34.2,32.1c-0.8-0.9-1.4-2-1.8-3.1h3.1C35.3,30.1,34.8,31.2,34.2,32.1z"/>
			<path class="st2" d="M28.6,26.4v-1.9c0-0.3,0-0.6,0.1-0.8h-0.6c0,0.2,0.1,0.5,0.1,0.8v1.9H27c-0.3,0-0.6,0-0.8-0.1v0.5
				c0.2,0,0.5-0.1,0.8-0.1h1.2v2.9c-0.8,0.3-1.5,0.5-2,0.6l0.3,0.6c0.2-0.1,0.4-0.2,0.6-0.3c0.1-0.1,0.3-0.1,0.6-0.2
				c0.3-0.1,0.5-0.2,0.6-0.2v3.4c0,0.3-0.1,0.5-0.5,0.6c-0.1,0-0.2,0-0.3,0c0,0-0.1,0-0.2,0c-0.2,0-0.4,0-0.5-0.1
				c0.1,0.1,0.2,0.4,0.3,0.7c0.7-0.1,1.2-0.2,1.3-0.4c0.2-0.1,0.3-0.4,0.3-0.8v-3.6c0.1,0,0.3-0.1,0.5-0.2c0.5-0.2,0.9-0.3,1-0.4
				l0-0.6c-0.3,0.2-0.8,0.5-1.6,0.8v-2.7h0.9c0.3,0,0.6,0,0.8,0.1v-0.5c-0.2,0-0.5,0.1-0.8,0.1H28.6z"/>
		</g>
	</g>
</g>
</svg>
