<?xml version="1.0" encoding="utf-8"?>
<!-- Generator: Adobe Illustrator 21.0.2, SVG Export Plug-In . SVG Version: 6.00 Build 0)  -->
<svg version="1.1" id="图层_1" xmlns="http://www.w3.org/2000/svg" xmlns:xlink="http://www.w3.org/1999/xlink" x="0px" y="0px"
	 viewBox="0 0 50 50" style="enable-background:new 0 0 50 50;" xml:space="preserve">
<style type="text/css">
	.st0{opacity:0.2;}
	.st1{fill:#FFFFFF;}
	.st2{fill:#BC09FF;}
</style>
<g>
	<g class="st0">
		<path d="M22.4,25c-0.2,2.6-1,5.7-2,8.5h9.1c-1-2.8-1.7-5.9-2-8.5H22.4z"/>
		<path d="M41,10.8c-0.2-0.3-0.5-0.6-0.8-0.8c-0.5-0.3-1.1-0.5-1.7-0.5h-26c-0.6,0-1.2,0.2-1.7,0.5c-0.3,0.2-0.6,0.5-0.8,0.8
			c-0.1,0.2-0.2,0.3-0.3,0.5c-0.2,0.4-0.2,0.8-0.2,1.2v26c0,1.7,1.4,3,3,3h26c1.7,0,3-1.3,3-3v-26c0-0.4-0.1-0.8-0.2-1.2
			C41.2,11.2,41.1,11,41,10.8z M31.7,38.1c-0.3-0.4-0.6-1-0.9-1.6H19.2c-0.3,0.6-0.6,1.1-0.9,1.6l-1.7-1.1c1.9-2.8,3.8-9.6,3.8-13.4
			V23h4v-6H18v-1h6.5v-2.8h1V16H32v1h-6.5v6h4v0.5c0,3.8,1.9,10.6,3.8,13.4L31.7,38.1z"/>
		<path d="M38.5,7.5h-26c-2.8,0-5,2.2-5,5v26c0,2.8,2.2,5,5,5h26c2.8,0,5-2.2,5-5v-26C43.5,9.7,41.3,7.5,38.5,7.5z M41.5,38.5
			c0,1.7-1.3,3-3,3h-26c-1.6,0-3-1.3-3-3v-26c0-0.4,0.1-0.8,0.2-1.2c0.1-0.2,0.2-0.3,0.3-0.5c0.2-0.3,0.5-0.6,0.8-0.8
			c0.5-0.3,1.1-0.5,1.7-0.5h26c0.6,0,1.2,0.2,1.7,0.5c0.3,0.2,0.6,0.5,0.8,0.8c0.1,0.2,0.2,0.3,0.3,0.5c0.2,0.4,0.2,0.8,0.2,1.2
			V38.5z"/>
		<path d="M29.5,23h-4v-6H32v-1h-6.5v-2.8h-1V16H18v1h6.5v6h-4v0.5c0,3.8-1.9,10.6-3.8,13.4l1.7,1.1c0.3-0.4,0.6-1,0.9-1.6h11.6
			c0.3,0.6,0.6,1.1,0.9,1.6l1.7-1.1c-1.9-2.8-3.8-9.6-3.8-13.4V23z M29.5,33.5h-9.1c1-2.8,1.7-5.9,2-8.5h5.2
			C27.8,27.6,28.6,30.7,29.5,33.5z"/>
	</g>
	<g>
		<g>
			<path class="st1" d="M21.4,24c-0.2,2.6-1,5.7-2,8.5h9.1c-1-2.8-1.7-5.9-2-8.5H21.4z"/>
			<path class="st1" d="M40,9.8c-0.2-0.3-0.5-0.6-0.8-0.8c-0.5-0.3-1.1-0.5-1.7-0.5h-26c-0.6,0-1.2,0.2-1.7,0.5
				C9.5,9.2,9.2,9.5,9,9.8c-0.1,0.2-0.2,0.3-0.3,0.5c-0.2,0.4-0.2,0.8-0.2,1.2v26c0,1.7,1.4,3,3,3h26c1.7,0,3-1.3,3-3v-26
				c0-0.4-0.1-0.8-0.2-1.2C40.2,10.2,40.1,10,40,9.8z M30.7,37.1c-0.3-0.4-0.6-1-0.9-1.6H18.2c-0.3,0.6-0.6,1.1-0.9,1.6l-1.7-1.1
				c1.9-2.8,3.8-9.6,3.8-13.4V22h4v-6H17v-1h6.5v-2.8h1V15H31v1h-6.5v6h4v0.5c0,3.8,1.9,10.6,3.8,13.4L30.7,37.1z"/>
			<path class="st2" d="M37.5,6.5h-26c-2.8,0-5,2.2-5,5v26c0,2.8,2.2,5,5,5h26c2.8,0,5-2.2,5-5v-26C42.5,8.7,40.3,6.5,37.5,6.5z
				 M40.5,37.5c0,1.7-1.3,3-3,3h-26c-1.6,0-3-1.3-3-3v-26c0-0.4,0.1-0.8,0.2-1.2C8.8,10.2,8.9,10,9,9.8C9.2,9.5,9.5,9.2,9.8,9
				c0.5-0.3,1.1-0.5,1.7-0.5h26c0.6,0,1.2,0.2,1.7,0.5c0.3,0.2,0.6,0.5,0.8,0.8c0.1,0.2,0.2,0.3,0.3,0.5c0.2,0.4,0.2,0.8,0.2,1.2
				V37.5z"/>
			<path class="st2" d="M28.5,22h-4v-6H31v-1h-6.5v-2.8h-1V15H17v1h6.5v6h-4v0.5c0,3.8-1.9,10.6-3.8,13.4l1.7,1.1
				c0.3-0.4,0.6-1,0.9-1.6h11.6c0.3,0.6,0.6,1.1,0.9,1.6l1.7-1.1c-1.9-2.8-3.8-9.6-3.8-13.4V22z M28.5,32.5h-9.1
				c1-2.8,1.7-5.9,2-8.5h5.2C26.8,26.6,27.6,29.7,28.5,32.5z"/>
		</g>
	</g>
</g>
</svg>
