<?xml version="1.0" encoding="utf-8"?>
<!-- Generator: Adobe Illustrator 21.0.2, SVG Export Plug-In . SVG Version: 6.00 Build 0)  -->
<svg version="1.1" id="图层_1" xmlns="http://www.w3.org/2000/svg" xmlns:xlink="http://www.w3.org/1999/xlink" x="0px" y="0px"
	 viewBox="0 0 50 50" style="enable-background:new 0 0 50 50;" xml:space="preserve">
<style type="text/css">
	.st0{opacity:0.2;}
	.st1{fill:#FFFFFF;}
	.st2{fill:#F93E54;}
</style>
<g>
	<g class="st0">
		<path d="M25.9,25.9v-4.2v-2.8c-2.4-2.9-6.7-0.5-7.8,0.1v8.1C21,25.3,24.5,25.6,25.9,25.9z"/>
		<path d="M25.8,26.9c-0.4-0.1-1.2-0.2-2.1-0.2c-0.8,0.9-0.7,1.9-0.5,2.6c0.2-0.1,0.5-0.2,0.7-0.3C24,28.9,25.6,28.5,25.8,26.9z"/>
		<path d="M26.9,22.9v3.6v0.6l-0.1,0c-0.3,1.7-1.8,2.6-2.6,2.8c-0.2,0.1-0.3,0.1-0.5,0.2c0,0,0.1,0,0.1,0c4.5,1.3,8.4,0.2,9.5-0.1
			v-7.9C31.1,23.2,28.1,23,26.9,22.9z"/>
		<path d="M41,10.8c-0.2-0.3-0.5-0.6-0.8-0.8c-0.5-0.3-1.1-0.5-1.7-0.5h-26c-0.4,0-0.8,0.1-1.2,0.2C11.2,9.8,11,9.9,10.8,10
			c-0.3,0.2-0.6,0.5-0.8,0.8c-0.1,0.2-0.2,0.3-0.3,0.5c-0.2,0.4-0.2,0.8-0.2,1.2v26c0,0.6,0.2,1.2,0.5,1.7c0.2,0.3,0.5,0.6,0.8,0.8
			c0.2,0.1,0.3,0.2,0.5,0.3c0.4,0.2,0.8,0.2,1.2,0.2h26c1.7,0,3-1.3,3-3v-26c0-0.4-0.1-0.8-0.2-1.2C41.2,11.2,41.1,11,41,10.8z
			 M34.4,30.7l-0.3,0.1c-0.1,0.1-2.4,1-5.6,1c-1.4,0-3.1-0.2-4.8-0.7c-0.3-0.1-0.9-0.3-1.1-0.8c-0.4-0.7-0.8-2.2,0-3.6
			c-1.4,0.1-3.1,0.5-4.4,1.6v7h-2V15.7h2v2.1c2.4-1.3,6.4-2.5,8.7,0.6l0.1,0.1v3.3c1.2,0.1,4.6,0.4,6.7-1l0.8-0.5V30.7z"/>
		<path d="M38.5,7.5h-26c-2.8,0-5,2.2-5,5v26c0,2.8,2.2,5,5,5h26c2.8,0,5-2.2,5-5v-26C43.5,9.7,41.3,7.5,38.5,7.5z M41.5,38.5
			c0,1.7-1.3,3-3,3h-26c-0.4,0-0.8-0.1-1.2-0.2c-0.2-0.1-0.3-0.2-0.5-0.3c-0.3-0.2-0.6-0.5-0.8-0.8c-0.3-0.5-0.5-1.1-0.5-1.7v-26
			c0-0.4,0.1-0.8,0.2-1.2c0.1-0.2,0.2-0.3,0.3-0.5c0.2-0.3,0.5-0.6,0.8-0.8c0.2-0.1,0.3-0.2,0.5-0.3c0.4-0.2,0.8-0.2,1.2-0.2h26
			c0.6,0,1.2,0.2,1.7,0.5c0.3,0.2,0.6,0.5,0.8,0.8c0.1,0.2,0.2,0.3,0.3,0.5c0.2,0.4,0.2,0.8,0.2,1.2V38.5z"/>
		<path d="M26.9,21.9v-3.3l-0.1-0.1c-2.3-3-6.3-1.9-8.7-0.6v-2.1h-2v19.7h2v-7c1.4-1,3-1.5,4.4-1.6c-0.7,1.4-0.4,2.9,0,3.6
			c0.1,0.5,0.8,0.7,1.1,0.8c1.7,0.5,3.4,0.7,4.8,0.7c3.2,0,5.5-0.9,5.6-1l0.3-0.1V20.4l-0.8,0.5C31.5,22.2,28.1,22,26.9,21.9z
			 M18.1,19c1-0.6,5.4-3,7.8-0.1v2.8v4.2c-1.4-0.2-4.9-0.6-7.8,1.2V19z M23.2,29.3c-0.2-0.6-0.3-1.6,0.5-2.6c0.9,0,1.7,0.1,2.1,0.2
			C25.6,28.5,24,28.9,24,29C23.7,29.1,23.5,29.2,23.2,29.3z M33.4,30c-1.1,0.4-4.9,1.5-9.5,0.1c0,0-0.1,0-0.1,0
			c0.1-0.1,0.3-0.1,0.5-0.2c0.8-0.2,2.3-1.1,2.6-2.8l0.1,0v-0.6v-3.6c1.2,0.1,4.2,0.3,6.5-0.7V30z"/>
	</g>
	<g>
		<g>
			<path class="st1" d="M24.9,24.9v-4.2v-2.8c-2.4-2.9-6.7-0.5-7.8,0.1v8.1C20,24.3,23.5,24.6,24.9,24.9z"/>
			<path class="st1" d="M24.8,25.9c-0.4-0.1-1.2-0.2-2.1-0.2c-0.8,0.9-0.7,1.9-0.5,2.6c0.2-0.1,0.5-0.2,0.7-0.3
				C23,27.9,24.6,27.5,24.8,25.9z"/>
			<path class="st1" d="M25.9,21.9v3.6v0.6l-0.1,0c-0.3,1.7-1.8,2.6-2.6,2.8c-0.2,0.1-0.3,0.1-0.5,0.2c0,0,0.1,0,0.1,0
				c4.5,1.3,8.4,0.2,9.5-0.1v-7.9C30.1,22.2,27.1,22,25.9,21.9z"/>
			<path class="st1" d="M40,9.8c-0.2-0.3-0.5-0.6-0.8-0.8c-0.5-0.3-1.1-0.5-1.7-0.5h-26c-0.4,0-0.8,0.1-1.2,0.2
				C10.2,8.8,10,8.9,9.8,9C9.5,9.2,9.2,9.5,9,9.8c-0.1,0.2-0.2,0.3-0.3,0.5c-0.2,0.4-0.2,0.8-0.2,1.2v26c0,0.6,0.2,1.2,0.5,1.7
				c0.2,0.3,0.5,0.6,0.8,0.8c0.2,0.1,0.3,0.2,0.5,0.3c0.4,0.2,0.8,0.2,1.2,0.2h26c1.7,0,3-1.3,3-3v-26c0-0.4-0.1-0.8-0.2-1.2
				C40.2,10.2,40.1,10,40,9.8z M33.4,29.7l-0.3,0.1c-0.1,0.1-2.4,1-5.6,1c-1.4,0-3.1-0.2-4.8-0.7c-0.3-0.1-0.9-0.3-1.1-0.8
				c-0.4-0.7-0.8-2.2,0-3.6c-1.4,0.1-3.1,0.5-4.4,1.6v7h-2V14.7h2v2.1c2.4-1.3,6.4-2.5,8.7,0.6l0.1,0.1v3.3c1.2,0.1,4.6,0.4,6.7-1
				l0.8-0.5V29.7z"/>
			<path class="st2" d="M37.5,6.5h-26c-2.8,0-5,2.2-5,5v26c0,2.8,2.2,5,5,5h26c2.8,0,5-2.2,5-5v-26C42.5,8.7,40.3,6.5,37.5,6.5z
				 M40.5,37.5c0,1.7-1.3,3-3,3h-26c-0.4,0-0.8-0.1-1.2-0.2c-0.2-0.1-0.3-0.2-0.5-0.3c-0.3-0.2-0.6-0.5-0.8-0.8
				c-0.3-0.5-0.5-1.1-0.5-1.7v-26c0-0.4,0.1-0.8,0.2-1.2C8.8,10.2,8.9,10,9,9.8C9.2,9.5,9.5,9.2,9.8,9c0.2-0.1,0.3-0.2,0.5-0.3
				c0.4-0.2,0.8-0.2,1.2-0.2h26c0.6,0,1.2,0.2,1.7,0.5c0.3,0.2,0.6,0.5,0.8,0.8c0.1,0.2,0.2,0.3,0.3,0.5c0.2,0.4,0.2,0.8,0.2,1.2
				V37.5z"/>
			<path class="st2" d="M25.9,20.9v-3.3l-0.1-0.1c-2.3-3-6.3-1.9-8.7-0.6v-2.1h-2v19.7h2v-7c1.4-1,3-1.5,4.4-1.6
				c-0.7,1.4-0.4,2.9,0,3.6c0.1,0.5,0.8,0.7,1.1,0.8c1.7,0.5,3.4,0.7,4.8,0.7c3.2,0,5.5-0.9,5.6-1l0.3-0.1V19.4l-0.8,0.5
				C30.5,21.2,27.1,21,25.9,20.9z M17.1,18c1-0.6,5.4-3,7.8-0.1v2.8v4.2c-1.4-0.2-4.9-0.6-7.8,1.2V18z M22.2,28.3
				c-0.2-0.6-0.3-1.6,0.5-2.6c0.9,0,1.7,0.1,2.1,0.2C24.6,27.5,23,27.9,23,28C22.7,28.1,22.5,28.2,22.2,28.3z M32.4,29
				c-1.1,0.4-4.9,1.5-9.5,0.1c0,0-0.1,0-0.1,0c0.1-0.1,0.3-0.1,0.5-0.2c0.8-0.2,2.3-1.1,2.6-2.8l0.1,0v-0.6v-3.6
				c1.2,0.1,4.2,0.3,6.5-0.7V29z"/>
		</g>
	</g>
</g>
</svg>
