<?xml version="1.0" encoding="utf-8"?>
<!-- Generator: Adobe Illustrator 21.0.2, SVG Export Plug-In . SVG Version: 6.00 Build 0)  -->
<svg version="1.1" id="图层_1" xmlns="http://www.w3.org/2000/svg" xmlns:xlink="http://www.w3.org/1999/xlink" x="0px" y="0px"
	 viewBox="0 0 50 50" style="enable-background:new 0 0 50 50;" xml:space="preserve">
<style type="text/css">
	.st0{opacity:0.2;}
	.st1{fill:#FFFFFF;}
	.st2{fill:#F93E54;}
</style>
<g>
	<g class="st0">
		<path d="M41,10.8c-0.2-0.3-0.5-0.6-0.8-0.8c-0.5-0.3-1.1-0.5-1.7-0.5h-26c-0.6,0-1.2,0.2-1.7,0.5c-0.3,0.2-0.6,0.5-0.8,0.8
			C10,11,9.9,11.2,9.8,11.3c-0.2,0.4-0.2,0.8-0.2,1.2v26c0,1.7,1.3,3,3,3h26c1.6,0,3-1.3,3-3v-26c0-0.4-0.1-0.8-0.2-1.2
			C41.2,11.2,41.2,11,41,10.8z M35.6,20.1H32v9.5c0.8,0.2,1.6,0.6,2.4,1.4l-0.7,0.7c-0.9-0.9-1.7-1.2-2.5-1.2
			c-1.1,0.1-1.8,1.1-1.8,1.1l-0.8-0.6c0-0.1,0.9-1.3,2.5-1.5v-9.5H20.3v9.5c0.8,0.2,1.6,0.6,2.4,1.4L22,31.7
			c-0.9-0.9-1.7-1.2-2.5-1.2c-1.1,0.1-1.8,1.1-1.8,1.1l-0.8-0.6c0-0.1,0.9-1.3,2.5-1.5v-9.5h-3.7v-1h20V20.1z"/>
		<path d="M38.6,7.5h-26c-2.8,0-5,2.2-5,5v26c0,2.8,2.2,5,5,5h26c2.8,0,5-2.2,5-5v-26C43.6,9.7,41.3,7.5,38.6,7.5z M41.6,38.5
			c0,1.7-1.4,3-3,3h-26c-1.7,0-3-1.3-3-3v-26c0-0.4,0.1-0.8,0.2-1.2c0.1-0.2,0.2-0.3,0.3-0.5c0.2-0.3,0.5-0.6,0.8-0.8
			c0.5-0.3,1.1-0.5,1.7-0.5h26c0.6,0,1.2,0.2,1.7,0.5c0.3,0.2,0.6,0.5,0.8,0.8c0.1,0.2,0.2,0.3,0.3,0.5c0.2,0.4,0.2,0.8,0.2,1.2
			V38.5z"/>
		<path d="M15.6,20.1h3.7v9.5c-1.5,0.2-2.4,1.5-2.5,1.5l0.8,0.6c0,0,0.7-1,1.8-1.1c0.8-0.1,1.6,0.3,2.5,1.2l0.7-0.7
			c-0.8-0.8-1.6-1.3-2.4-1.4v-9.5H31v9.5c-1.5,0.2-2.4,1.5-2.5,1.5l0.8,0.6c0,0,0.7-1,1.8-1.1c0.8-0.1,1.6,0.3,2.5,1.2l0.7-0.7
			c-0.8-0.8-1.6-1.3-2.4-1.4v-9.5h3.6v-1h-20V20.1z"/>
	</g>
	<g>
		<g>
			<path class="st1" d="M40,9.8c-0.2-0.3-0.5-0.6-0.8-0.8c-0.5-0.3-1.1-0.5-1.7-0.5h-26c-0.6,0-1.2,0.2-1.7,0.5
				C9.6,9.2,9.3,9.5,9.1,9.8C9,10,8.9,10.2,8.8,10.3c-0.2,0.4-0.2,0.8-0.2,1.2v26c0,1.7,1.3,3,3,3h26c1.6,0,3-1.3,3-3v-26
				c0-0.4-0.1-0.8-0.2-1.2C40.2,10.2,40.2,10,40,9.8z M34.6,19.1H31v9.5c0.8,0.2,1.6,0.6,2.4,1.4l-0.7,0.7c-0.9-0.9-1.7-1.2-2.5-1.2
				c-1.1,0.1-1.8,1.1-1.8,1.1l-0.8-0.6c0-0.1,0.9-1.3,2.5-1.5v-9.5H19.3v9.5c0.8,0.2,1.6,0.6,2.4,1.4L21,30.7
				c-0.9-0.9-1.7-1.2-2.5-1.2c-1.1,0.1-1.8,1.1-1.8,1.1l-0.8-0.6c0-0.1,0.9-1.3,2.5-1.5v-9.5h-3.7v-1h20V19.1z"/>
			<path class="st2" d="M37.6,6.5h-26c-2.8,0-5,2.2-5,5v26c0,2.8,2.2,5,5,5h26c2.8,0,5-2.2,5-5v-26C42.6,8.7,40.3,6.5,37.6,6.5z
				 M40.6,37.5c0,1.7-1.4,3-3,3h-26c-1.7,0-3-1.3-3-3v-26c0-0.4,0.1-0.8,0.2-1.2C8.9,10.2,9,10,9.1,9.8C9.3,9.5,9.6,9.2,9.9,9
				c0.5-0.3,1.1-0.5,1.7-0.5h26c0.6,0,1.2,0.2,1.7,0.5c0.3,0.2,0.6,0.5,0.8,0.8c0.1,0.2,0.2,0.3,0.3,0.5c0.2,0.4,0.2,0.8,0.2,1.2
				V37.5z"/>
			<path class="st2" d="M14.6,19.1h3.7v9.5c-1.5,0.2-2.4,1.5-2.5,1.5l0.8,0.6c0,0,0.7-1,1.8-1.1c0.8-0.1,1.6,0.3,2.5,1.2l0.7-0.7
				c-0.8-0.8-1.6-1.3-2.4-1.4v-9.5H30v9.5c-1.5,0.2-2.4,1.5-2.5,1.5l0.8,0.6c0,0,0.7-1,1.8-1.1c0.8-0.1,1.6,0.3,2.5,1.2l0.7-0.7
				c-0.8-0.8-1.6-1.3-2.4-1.4v-9.5h3.6v-1h-20V19.1z"/>
		</g>
	</g>
</g>
</svg>
