<?xml version="1.0" encoding="utf-8"?>
<!-- Generator: Adobe Illustrator 21.0.2, SVG Export Plug-In . SVG Version: 6.00 Build 0)  -->
<svg version="1.1" id="图层_1" xmlns="http://www.w3.org/2000/svg" xmlns:xlink="http://www.w3.org/1999/xlink" x="0px" y="0px"
	 viewBox="0 0 50 50" style="enable-background:new 0 0 50 50;" xml:space="preserve">
<style type="text/css">
	.st0{opacity:0.2;}
	.st1{fill:#FFFFFF;}
	.st2{fill:#F93E54;}
</style>
<g>
	<g class="st0">
		<circle cx="21.4" cy="34" r="1"/>
		<polygon points="27,22.9 27,26.3 30.6,24.2 30.6,20.8 		"/>
		<path d="M38.5,9.5h-26c-1.6,0-3,1.4-3,3v26c0,1.7,1.4,3,3,3h26c1.7,0,3-1.3,3-3v-26C41.5,10.9,40.2,9.5,38.5,9.5z M21.4,36
			c-1.1,0-2-0.9-2-2c0-1.1,0.9-2,2-2s2,0.9,2,2C23.4,35.1,22.5,36,21.4,36z M31.6,24.8l-10,6V20.6l10-6V24.8z"/>
		<polygon points="26,23.5 22.6,25.5 22.6,29 26,26.9 		"/>
		<polygon points="26,22.3 26,19.1 22.6,21.2 22.6,24.4 		"/>
		<path d="M38.5,7.5h-26c-2.8,0-5,2.2-5,5v26c0,2.8,2.2,5,5,5h26c2.8,0,5-2.2,5-5v-26C43.5,9.7,41.3,7.5,38.5,7.5z M41.5,38.5
			c0,1.7-1.3,3-3,3h-26c-1.6,0-3-1.3-3-3v-26c0-1.6,1.4-3,3-3h26c1.7,0,3,1.4,3,3V38.5z"/>
		<path d="M21.4,32c-1.1,0-2,0.9-2,2c0,1.1,0.9,2,2,2s2-0.9,2-2C23.4,32.9,22.5,32,21.4,32z M21.4,35c-0.6,0-1-0.4-1-1
			c0-0.6,0.4-1,1-1c0.6,0,1,0.4,1,1C22.4,34.6,22,35,21.4,35z"/>
		<path d="M21.6,30.8l10-6V14.6l-10,6V30.8z M22.6,25.5l3.4-2v3.4L22.6,29V25.5z M27,26.3v-3.4l3.6-2.1v3.4L27,26.3z M26,19.1v3.2
			l-3.4,2v-3.2L26,19.1z"/>
	</g>
	<g>
		<g>
			<circle class="st1" cx="20.4" cy="33" r="1"/>
			<polygon class="st1" points="26,21.9 26,25.3 29.6,23.2 29.6,19.8 			"/>
			<path class="st1" d="M37.5,8.5h-26c-1.6,0-3,1.4-3,3v26c0,1.7,1.4,3,3,3h26c1.7,0,3-1.3,3-3v-26C40.5,9.9,39.2,8.5,37.5,8.5z
				 M20.4,35c-1.1,0-2-0.9-2-2c0-1.1,0.9-2,2-2s2,0.9,2,2C22.4,34.1,21.5,35,20.4,35z M30.6,23.8l-10,6V19.6l10-6V23.8z"/>
			<polygon class="st1" points="25,22.5 21.6,24.5 21.6,28 25,25.9 			"/>
			<polygon class="st1" points="25,21.3 25,18.1 21.6,20.2 21.6,23.4 			"/>
			<path class="st2" d="M37.5,6.5h-26c-2.8,0-5,2.2-5,5v26c0,2.8,2.2,5,5,5h26c2.8,0,5-2.2,5-5v-26C42.5,8.7,40.3,6.5,37.5,6.5z
				 M40.5,37.5c0,1.7-1.3,3-3,3h-26c-1.6,0-3-1.3-3-3v-26c0-1.6,1.4-3,3-3h26c1.7,0,3,1.4,3,3V37.5z"/>
			<path class="st2" d="M20.4,31c-1.1,0-2,0.9-2,2c0,1.1,0.9,2,2,2s2-0.9,2-2C22.4,31.9,21.5,31,20.4,31z M20.4,34c-0.6,0-1-0.4-1-1
				c0-0.6,0.4-1,1-1c0.6,0,1,0.4,1,1C21.4,33.6,21,34,20.4,34z"/>
			<path class="st2" d="M20.6,29.8l10-6V13.6l-10,6V29.8z M21.6,24.5l3.4-2v3.4L21.6,28V24.5z M26,25.3v-3.4l3.6-2.1v3.4L26,25.3z
				 M25,18.1v3.2l-3.4,2v-3.2L25,18.1z"/>
		</g>
	</g>
</g>
</svg>
