<svg xmlns="http://www.w3.org/2000/svg" viewBox="0 0 36 36"><defs><style>.cls-1{fill:none;}.cls-2{fill:#fff;}.cls-3{fill:#bc09ff;}</style></defs><title>资源 18</title><g id="图层_2" data-name="图层 2"><g id="图层_1-2" data-name="图层 1"><path class="cls-1" d="M31,2a3,3,0,0,1,1.16.24A3,3,0,0,0,31,2Z"/><path class="cls-1" d="M2.24,32.16A3,3,0,0,1,2,31,3,3,0,0,0,2.24,32.16Z"/><path class="cls-1" d="M2.51,32.67a3,3,0,0,0,.81.81A3,3,0,0,1,2.51,32.67Z"/><path class="cls-1" d="M32.67,33.49a3,3,0,0,0,.81-.81A3,3,0,0,1,32.67,33.49Z"/><path class="cls-1" d="M34,31a3,3,0,0,1-.24,1.16A3,3,0,0,0,34,31Z"/><path class="cls-1" d="M32.16,33.76A3,3,0,0,1,31,34,3,3,0,0,0,32.16,33.76Z"/><path class="cls-1" d="M33.49,3.33a3,3,0,0,0-.81-.81A3,3,0,0,1,33.49,3.33Z"/><path class="cls-2" d="M18,9.31A8.69,8.69,0,0,0,9.31,18c0,4.8,8.69,8.69,8.69,8.69S26.69,22.8,26.69,18A8.69,8.69,0,0,0,18,9.31Zm1,14.2a1.29,1.29,0,0,1-.9.36,1.33,1.33,0,0,1-.84-.3,1.25,1.25,0,0,1-.47-.9,1.12,1.12,0,0,1,.34-1,1.33,1.33,0,0,1,.94-.4,1.29,1.29,0,0,1,.93.38,1.25,1.25,0,0,1,0,1.84Zm2.13-7a3.51,3.51,0,0,1-.94,1q-.68.53-.85.68a1,1,0,0,0-.25.37,1.63,1.63,0,0,0-.09.59v1.09a.6.6,0,0,1-.18.42,1.28,1.28,0,0,1-1.36,0,.75.75,0,0,1-.24-.6v-1a2.85,2.85,0,0,1,.25-1.35,2.93,2.93,0,0,1,.69-.82l.42-.33a4.13,4.13,0,0,0,.72-.72A1,1,0,0,0,19,14.25a2,2,0,0,0-1.07-.37,1.94,1.94,0,0,0-1.13.24,1.84,1.84,0,0,0-.63.58,2.36,2.36,0,0,0-.28.75,2.07,2.07,0,0,1-.19.6.57.57,0,0,1-.3.23,1.14,1.14,0,0,1-.39.07,1.05,1.05,0,0,1-.57-.14.69.69,0,0,1-.33-.46,1.89,1.89,0,0,1,0-.76,4.39,4.39,0,0,1,.34-1.1,3.1,3.1,0,0,1,.55-.78,2.78,2.78,0,0,1,.82-.58,4.64,4.64,0,0,1,1-.33,4.82,4.82,0,0,1,1-.12,4,4,0,0,1,1.25.17,3.59,3.59,0,0,1,1,.47,3.93,3.93,0,0,1,.68.59,2.74,2.74,0,0,1,.47.85,3,3,0,0,1,.18,1.19A2.53,2.53,0,0,1,21.08,16.47Z"/><path class="cls-2" d="M32.67,2.51A3,3,0,0,0,31,2H5A3,3,0,0,0,2,5V31a3,3,0,0,0,.51,1.67,3,3,0,0,0,.81.81A3,3,0,0,0,5,34H31a3,3,0,0,0,1.67-.51,3,3,0,0,0,.81-.81A3,3,0,0,0,34,31V5a3,3,0,0,0-.51-1.67A3,3,0,0,0,32.67,2.51ZM18,28.49S7.51,23.79,7.51,18a10.49,10.49,0,0,1,21,0C28.49,23.79,18,28.49,18,28.49Z"/><path class="cls-3" d="M31,0H5A5,5,0,0,0,0,5V31a5,5,0,0,0,5,5H31a5,5,0,0,0,5-5V5A5,5,0,0,0,31,0Zm3,31a3,3,0,0,1-.51,1.67,3,3,0,0,1-.81.81A3,3,0,0,1,31,34H5a3,3,0,0,1-1.67-.51,3,3,0,0,1-.81-.81A3,3,0,0,1,2,31V5A3,3,0,0,1,5,2H31a3,3,0,0,1,1.67.51,3,3,0,0,1,.81.81A3,3,0,0,1,34,5Z"/><path class="cls-3" d="M18,21.29a1.33,1.33,0,0,0-.94.4,1.12,1.12,0,0,0-.34,1,1.25,1.25,0,0,0,.47.9,1.33,1.33,0,0,0,.84.3,1.29,1.29,0,0,0,.9-.36,1.25,1.25,0,0,0,0-1.84A1.29,1.29,0,0,0,18,21.29Z"/><path class="cls-3" d="M20.71,13.31a3.93,3.93,0,0,0-.68-.59,3.59,3.59,0,0,0-1-.47,4,4,0,0,0-1.25-.17,4.82,4.82,0,0,0-1,.12,4.64,4.64,0,0,0-1,.33,2.78,2.78,0,0,0-.82.58,3.1,3.1,0,0,0-.55.78,4.39,4.39,0,0,0-.34,1.1,1.89,1.89,0,0,0,0,.76.69.69,0,0,0,.33.46,1.05,1.05,0,0,0,.57.14,1.14,1.14,0,0,0,.39-.07.57.57,0,0,0,.3-.23,2.07,2.07,0,0,0,.19-.6,2.36,2.36,0,0,1,.28-.75,1.84,1.84,0,0,1,.63-.58,1.94,1.94,0,0,1,1.13-.24,2,2,0,0,1,1.07.37,1,1,0,0,1,.26,1.61,4.13,4.13,0,0,1-.72.72l-.42.33a2.93,2.93,0,0,0-.69.82,2.85,2.85,0,0,0-.25,1.35v1a.75.75,0,0,0,.24.6,1.28,1.28,0,0,0,1.36,0,.6.6,0,0,0,.18-.42V19.1a1.63,1.63,0,0,1,.09-.59,1,1,0,0,1,.25-.37q.16-.16.85-.68a3.51,3.51,0,0,0,.94-1,2.53,2.53,0,0,0,.29-1.11,3,3,0,0,0-.18-1.19A2.74,2.74,0,0,0,20.71,13.31Z"/><path class="cls-3" d="M18,7.51A10.49,10.49,0,0,0,7.51,18C7.51,23.79,18,28.49,18,28.49S28.49,23.79,28.49,18A10.49,10.49,0,0,0,18,7.51Zm0,19.18S9.31,22.8,9.31,18a8.69,8.69,0,0,1,17.38,0C26.69,22.8,18,26.69,18,26.69Z"/></g></g></svg>