<?xml version="1.0" encoding="utf-8"?>
<!-- Generator: Adobe Illustrator 21.0.2, SVG Export Plug-In . SVG Version: 6.00 Build 0)  -->
<svg version="1.1" id="图层_1" xmlns="http://www.w3.org/2000/svg" xmlns:xlink="http://www.w3.org/1999/xlink" x="0px" y="0px"
	 viewBox="0 0 50 50" style="enable-background:new 0 0 50 50;" xml:space="preserve">
<style type="text/css">
	
	.st0{opacity:0.2;}
	.st1{fill:#FFFFFF;}
	.st2{fill:#00A0E9;}
</style>
<g>
	<g class="st0">
		<path d="M41,10.6c-0.2-0.3-0.5-0.6-0.8-0.8c-0.5-0.3-1.1-0.5-1.7-0.5h-26c-0.6,0-1.2,0.2-1.7,0.5c-0.3,0.2-0.6,0.5-0.8,0.8
			c-0.1,0.2-0.2,0.3-0.3,0.5c-0.2,0.4-0.2,0.8-0.2,1.2v26c0,1.7,1.4,3,3,3h26c1.7,0,3-1.3,3-3v-26c0-0.4-0.1-0.8-0.2-1.2
			C41.2,10.9,41.1,10.7,41,10.6z M19.5,36.3h-4v-20l2-2l2,2V36.3z M24.5,36.3h-4v-20l2-2l2,2V36.3z M29.5,36.3h-4v-20l2-2l2,2V36.3z
			 M34.5,36.3h-4v-20l2-2l2,2V36.3z"/>
		<path d="M38.5,7.3h-26c-2.8,0-5,2.2-5,5v26c0,2.8,2.2,5,5,5h26c2.8,0,5-2.2,5-5v-26C43.5,9.5,41.3,7.3,38.5,7.3z M41.5,38.3
			c0,1.7-1.3,3-3,3h-26c-1.6,0-3-1.3-3-3v-26c0-0.4,0.1-0.8,0.2-1.2c0.1-0.2,0.2-0.3,0.3-0.5c0.2-0.3,0.5-0.6,0.8-0.8
			c0.5-0.3,1.1-0.5,1.7-0.5h26c0.6,0,1.2,0.2,1.7,0.5c0.3,0.2,0.6,0.5,0.8,0.8c0.1,0.2,0.2,0.3,0.3,0.5c0.2,0.4,0.2,0.8,0.2,1.2
			V38.3z"/>
		<polygon points="20.5,16.3 20.5,36.3 24.5,36.3 24.5,16.3 22.5,14.3 		"/>
		<polygon points="25.5,16.3 25.5,36.3 29.5,36.3 29.5,16.3 27.5,14.3 		"/>
		<polygon points="30.5,16.3 30.5,36.3 34.5,36.3 34.5,16.3 32.5,14.3 		"/>
		<polygon points="15.5,16.3 15.5,36.3 19.5,36.3 19.5,16.3 17.5,14.3 		"/>
	</g>
	<g>
		<g>
			<path class="st1" d="M40,9.6c-0.2-0.3-0.5-0.6-0.8-0.8c-0.5-0.3-1.1-0.5-1.7-0.5h-26c-0.6,0-1.2,0.2-1.7,0.5C9.5,9,9.2,9.3,9,9.6
				c-0.1,0.2-0.2,0.3-0.3,0.5c-0.2,0.4-0.2,0.8-0.2,1.2v26c0,1.7,1.4,3,3,3h26c1.7,0,3-1.3,3-3v-26c0-0.4-0.1-0.8-0.2-1.2
				C40.2,9.9,40.1,9.7,40,9.6z M18.5,35.3h-4v-20l2-2l2,2V35.3z M23.5,35.3h-4v-20l2-2l2,2V35.3z M28.5,35.3h-4v-20l2-2l2,2V35.3z
				 M33.5,35.3h-4v-20l2-2l2,2V35.3z"/>
			<g>
				<path class="st2" d="M37.5,6.3h-26c-2.8,0-5,2.2-5,5v26c0,2.8,2.2,5,5,5h26c2.8,0,5-2.2,5-5v-26C42.5,8.5,40.3,6.3,37.5,6.3z
					 M40.5,37.3c0,1.7-1.3,3-3,3h-26c-1.6,0-3-1.3-3-3v-26c0-0.4,0.1-0.8,0.2-1.2C8.8,9.9,8.9,9.7,9,9.6C9.2,9.3,9.5,9,9.8,8.8
					c0.5-0.3,1.1-0.5,1.7-0.5h26c0.6,0,1.2,0.2,1.7,0.5C39.5,9,39.8,9.3,40,9.6c0.1,0.2,0.2,0.3,0.3,0.5c0.2,0.4,0.2,0.8,0.2,1.2
					V37.3z"/>
			</g>
			<polygon class="st2" points="19.5,15.3 19.5,35.3 23.5,35.3 23.5,15.3 21.5,13.3 			"/>
			<polygon class="st2" points="24.5,15.3 24.5,35.3 28.5,35.3 28.5,15.3 26.5,13.3 			"/>
			<polygon class="st2" points="29.5,15.3 29.5,35.3 33.5,35.3 33.5,15.3 31.5,13.3 			"/>
			<polygon class="st2" points="14.5,15.3 14.5,35.3 18.5,35.3 18.5,15.3 16.5,13.3 			"/>
		</g>
	</g>
</g>
</svg>
