<?xml version="1.0" encoding="utf-8"?>
<!-- Generator: Adobe Illustrator 21.0.2, SVG Export Plug-In . SVG Version: 6.00 Build 0)  -->
<svg version="1.1" id="图层_1" xmlns="http://www.w3.org/2000/svg" xmlns:xlink="http://www.w3.org/1999/xlink" x="0px" y="0px"
	 viewBox="0 0 50 50" style="enable-background:new 0 0 50 50;" xml:space="preserve">
<style type="text/css">
	.st0{opacity:0.2;}
	.st1{fill:#FFFFFF;}
	.st2{fill:#BC09FF;}
</style>
<g>
	<g class="st0">
		<path d="M38.5,9.5h-26c-1.7,0-3,1.3-3,3v26c0,0.4,0.1,0.8,0.2,1.2c0.1,0.2,0.2,0.3,0.3,0.5c0.2,0.3,0.5,0.6,0.8,0.8
			c0.5,0.3,1.1,0.5,1.7,0.5h26c0.6,0,1.2-0.2,1.7-0.5c0.3-0.2,0.6-0.5,0.8-0.8c0.1-0.2,0.2-0.3,0.3-0.5c0.2-0.4,0.2-0.8,0.2-1.2v-26
			C41.5,10.8,40.2,9.5,38.5,9.5z M37.5,26h-1v1.5h-2V26h-8v1.5h-2V26h-8v1.5h-2V26h-1v-1h1v-1.5h2V25h8v-1.5h2V25h8v-1.5h2V25h1V26z
			"/>
		<path d="M38.5,7.5h-26c-2.8,0-5,2.2-5,5v26c0,2.8,2.2,5,5,5h26c2.8,0,5-2.2,5-5v-26C43.5,9.7,41.3,7.5,38.5,7.5z M41.5,38.5
			c0,0.4-0.1,0.8-0.2,1.2c-0.1,0.2-0.2,0.3-0.3,0.5c-0.2,0.3-0.5,0.6-0.8,0.8c-0.5,0.3-1.1,0.5-1.7,0.5h-26c-0.6,0-1.2-0.2-1.7-0.5
			c-0.3-0.2-0.6-0.5-0.8-0.8c-0.1-0.2-0.2-0.3-0.3-0.5c-0.2-0.4-0.2-0.8-0.2-1.2v-26c0-1.7,1.3-3,3-3h26c1.7,0,3,1.3,3,3V38.5z"/>
		<polygon points="36.5,23.5 34.5,23.5 34.5,25 26.5,25 26.5,23.5 24.5,23.5 24.5,25 16.5,25 16.5,23.5 14.5,23.5 14.5,25 13.5,25 
			13.5,26 14.5,26 14.5,27.5 16.5,27.5 16.5,26 24.5,26 24.5,27.5 26.5,27.5 26.5,26 34.5,26 34.5,27.5 36.5,27.5 36.5,26 37.5,26 
			37.5,25 36.5,25 		"/>
	</g>
	<g>
		<g>
			<path class="st1" d="M37.5,8.5h-26c-1.7,0-3,1.3-3,3v26c0,0.4,0.1,0.8,0.2,1.2C8.8,38.8,8.9,39,9,39.2c0.2,0.3,0.5,0.6,0.8,0.8
				c0.5,0.3,1.1,0.5,1.7,0.5h26c0.6,0,1.2-0.2,1.7-0.5c0.3-0.2,0.6-0.5,0.8-0.8c0.1-0.2,0.2-0.3,0.3-0.5c0.2-0.4,0.2-0.8,0.2-1.2
				v-26C40.5,9.8,39.2,8.5,37.5,8.5z M36.5,25h-1v1.5h-2V25h-8v1.5h-2V25h-8v1.5h-2V25h-1v-1h1v-1.5h2V24h8v-1.5h2V24h8v-1.5h2V24h1
				V25z"/>
			<path class="st2" d="M37.5,6.5h-26c-2.8,0-5,2.2-5,5v26c0,2.8,2.2,5,5,5h26c2.8,0,5-2.2,5-5v-26C42.5,8.7,40.3,6.5,37.5,6.5z
				 M40.5,37.5c0,0.4-0.1,0.8-0.2,1.2c-0.1,0.2-0.2,0.3-0.3,0.5c-0.2,0.3-0.5,0.6-0.8,0.8c-0.5,0.3-1.1,0.5-1.7,0.5h-26
				c-0.6,0-1.2-0.2-1.7-0.5c-0.3-0.2-0.6-0.5-0.8-0.8c-0.1-0.2-0.2-0.3-0.3-0.5c-0.2-0.4-0.2-0.8-0.2-1.2v-26c0-1.7,1.3-3,3-3h26
				c1.7,0,3,1.3,3,3V37.5z"/>
			<polygon class="st2" points="35.5,22.5 33.5,22.5 33.5,24 25.5,24 25.5,22.5 23.5,22.5 23.5,24 15.5,24 15.5,22.5 13.5,22.5 
				13.5,24 12.5,24 12.5,25 13.5,25 13.5,26.5 15.5,26.5 15.5,25 23.5,25 23.5,26.5 25.5,26.5 25.5,25 33.5,25 33.5,26.5 35.5,26.5 
				35.5,25 36.5,25 36.5,24 35.5,24 			"/>
		</g>
	</g>
</g>
</svg>
