<?xml version="1.0" encoding="utf-8"?>
<!-- Generator: Adobe Illustrator 21.0.2, SVG Export Plug-In . SVG Version: 6.00 Build 0)  -->
<svg version="1.1" id="图层_1" xmlns="http://www.w3.org/2000/svg" xmlns:xlink="http://www.w3.org/1999/xlink" x="0px" y="0px"
	 viewBox="0 0 50 50" style="enable-background:new 0 0 50 50;" xml:space="preserve">
<style type="text/css">
	.st0{opacity:0.2;}
	.st1{fill:#FFFFFF;}
	.st2{fill:#BC09FF;}
</style>
<g>
	<g class="st0">
		<path d="M38.5,9.5h-26c-0.4,0-0.8,0.1-1.2,0.2C11.2,9.8,11,9.9,10.8,10c-0.3,0.2-0.6,0.5-0.8,0.8c-0.3,0.5-0.5,1.1-0.5,1.7v26
			c0,0.6,0.2,1.2,0.5,1.7c0.2,0.3,0.5,0.6,0.8,0.8c0.2,0.1,0.3,0.2,0.5,0.3c0.4,0.2,0.8,0.2,1.2,0.2h26c1.7,0,3-1.3,3-3v-26
			C41.5,10.8,40.2,9.5,38.5,9.5z M36.6,35h-5.4l-5.7-16l-5.8,16h-5.4v-1h4.6l3-8.3h-3.3v-1h3.7l3.1-8.6l3.1,8.6h3.6v1H29l2.9,8.3
			h4.6V35z"/>
		<path d="M38.5,7.5h-26c-2.8,0-5,2.2-5,5v26c0,2.8,2.2,5,5,5h26c2.8,0,5-2.2,5-5v-26C43.5,9.7,41.3,7.5,38.5,7.5z M41.5,38.5
			c0,1.7-1.3,3-3,3h-26c-0.4,0-0.8-0.1-1.2-0.2c-0.2-0.1-0.3-0.2-0.5-0.3c-0.3-0.2-0.6-0.5-0.8-0.8c-0.3-0.5-0.5-1.1-0.5-1.7v-26
			c0-0.6,0.2-1.2,0.5-1.7c0.2-0.3,0.5-0.6,0.8-0.8c0.2-0.1,0.3-0.2,0.5-0.3c0.4-0.2,0.8-0.2,1.2-0.2h26c1.7,0,3,1.3,3,3V38.5z"/>
		<polygon points="29,25.6 32.3,25.6 32.3,24.6 28.6,24.6 25.6,16 22.5,24.6 18.8,24.6 18.8,25.6 22.1,25.6 19.1,34 14.4,34 
			14.4,35 19.8,35 25.6,19 31.2,35 36.6,35 36.6,34 31.9,34 		"/>
	</g>
	<g>
		<g>
			<path class="st1" d="M37.5,8.5h-26c-0.4,0-0.8,0.1-1.2,0.2C10.2,8.8,10,8.9,9.8,9C9.5,9.2,9.2,9.5,9,9.8
				c-0.3,0.5-0.5,1.1-0.5,1.7v26c0,0.6,0.2,1.2,0.5,1.7c0.2,0.3,0.5,0.6,0.8,0.8c0.2,0.1,0.3,0.2,0.5,0.3c0.4,0.2,0.8,0.2,1.2,0.2
				h26c1.7,0,3-1.3,3-3v-26C40.5,9.8,39.2,8.5,37.5,8.5z M35.6,34h-5.4l-5.7-16l-5.8,16h-5.4v-1h4.6l3-8.3h-3.3v-1h3.7l3.1-8.6
				l3.1,8.6h3.6v1H28l2.9,8.3h4.6V34z"/>
			<path class="st2" d="M37.5,6.5h-26c-2.8,0-5,2.2-5,5v26c0,2.8,2.2,5,5,5h26c2.8,0,5-2.2,5-5v-26C42.5,8.7,40.3,6.5,37.5,6.5z
				 M40.5,37.5c0,1.7-1.3,3-3,3h-26c-0.4,0-0.8-0.1-1.2-0.2c-0.2-0.1-0.3-0.2-0.5-0.3c-0.3-0.2-0.6-0.5-0.8-0.8
				c-0.3-0.5-0.5-1.1-0.5-1.7v-26c0-0.6,0.2-1.2,0.5-1.7C9.2,9.5,9.5,9.2,9.8,9c0.2-0.1,0.3-0.2,0.5-0.3c0.4-0.2,0.8-0.2,1.2-0.2h26
				c1.7,0,3,1.3,3,3V37.5z"/>
			<polygon class="st2" points="28,24.6 31.3,24.6 31.3,23.6 27.6,23.6 24.6,15 21.5,23.6 17.8,23.6 17.8,24.6 21.1,24.6 18.1,33 
				13.4,33 13.4,34 18.8,34 24.6,18 30.2,34 35.6,34 35.6,33 30.9,33 			"/>
		</g>
	</g>
</g>
</svg>
