<?xml version="1.0" encoding="utf-8"?>
<!-- Generator: Adobe Illustrator 21.0.2, SVG Export Plug-In . SVG Version: 6.00 Build 0)  -->
<svg version="1.1" id="图层_1" xmlns="http://www.w3.org/2000/svg" xmlns:xlink="http://www.w3.org/1999/xlink" x="0px" y="0px"
	 viewBox="0 0 50 50" style="enable-background:new 0 0 50 50;" xml:space="preserve">
<style type="text/css">

	.st0{opacity:0.2;}
	.st1{fill:#FFFFFF;}
	.st2{fill:#00A0E9;}
</style>
<g>
	<g class="st0">
		<path d="M16.7,24.7c0.3-0.5,0.7-1.2,1.5-1.2c0.8,0,1.1,0.7,1.5,1.2c0.3,0.5,0.5,0.8,0.8,0.8c0.4,0,0.5-0.3,0.8-0.8
			c0.3-0.5,0.7-1.2,1.5-1.2c0.8,0,1.1,0.7,1.5,1.2c0.3,0.5,0.5,0.8,0.8,0.8c0.4,0,0.5-0.3,0.8-0.8c0.3-0.5,0.7-1.2,1.5-1.2
			c0.8,0,1.1,0.7,1.5,1.2c0.3,0.5,0.5,0.8,0.8,0.8c0.4,0,0.5-0.3,0.8-0.8c0.3-0.5,0.7-1.2,1.5-1.2c0.8,0,1.1,0.7,1.5,1.2
			c0.3,0.5,0.5,0.8,0.8,0.8c0.4,0,0.5-0.3,0.8-0.8c0.1-0.2,0.3-0.5,0.5-0.7c-0.5-5.1-4.8-9-9.9-9c-5.5,0-10,4.5-10,10
			c0,0.1,0,0.3,0,0.4c0.1,0.1,0.2,0.1,0.3,0.1C16.2,25.5,16.4,25.2,16.7,24.7z"/>
		<path d="M34.2,26.5c-0.8,0-1.1-0.7-1.5-1.2c-0.3-0.5-0.5-0.8-0.8-0.8c-0.4,0-0.5,0.3-0.8,0.8c-0.3,0.5-0.7,1.2-1.5,1.2
			c-0.8,0-1.1-0.7-1.5-1.2c-0.3-0.5-0.5-0.8-0.8-0.8c-0.4,0-0.5,0.3-0.8,0.8c-0.3,0.5-0.7,1.2-1.5,1.2c-0.8,0-1.1-0.7-1.5-1.2
			c-0.3-0.5-0.5-0.8-0.8-0.8c-0.4,0-0.5,0.3-0.8,0.8c-0.3,0.5-0.7,1.2-1.5,1.2c-0.8,0-1.1-0.7-1.5-1.2c-0.3-0.5-0.5-0.8-0.8-0.8
			c-0.4,0-0.5,0.3-0.8,0.8c-0.3,0.5-0.7,1.2-1.5,1.2c-0.1,0-0.1,0-0.2,0c0.7,4.8,4.9,8.5,9.9,8.5c5.3,0,9.7-4.2,10-9.5
			C35.2,26,34.8,26.5,34.2,26.5z"/>
		<path d="M41,10.6c-0.2-0.3-0.5-0.6-0.8-0.8c-0.5-0.3-1.1-0.5-1.7-0.5h-26c-0.6,0-1.2,0.2-1.7,0.5c-0.3,0.2-0.6,0.5-0.8,0.8
			c-0.1,0.2-0.2,0.3-0.3,0.5c-0.2,0.4-0.2,0.8-0.2,1.2v26c0,1.7,1.4,3,3,3h26c1.7,0,3-1.3,3-3v-26c0-0.4-0.1-0.8-0.2-1.2
			C41.2,10.9,41.1,10.7,41,10.6z M25.5,36c-5.9,0-10.7-4.6-11-10.5c0-0.2,0-0.4,0-0.5c0-0.3,0-0.7,0-1c0.5-5.6,5.2-10,11-10
			c5.6,0,10.2,4.1,10.9,9.5c0,0.3,0.1,0.7,0.1,1c0,0.2,0,0.3,0,0.5C36.5,31.1,31.6,36,25.5,36z"/>
		<path d="M38.5,7.3h-26c-2.8,0-5,2.2-5,5v26c0,2.8,2.2,5,5,5h26c2.8,0,5-2.2,5-5v-26C43.5,9.5,41.3,7.3,38.5,7.3z M41.5,38.3
			c0,1.7-1.3,3-3,3h-26c-1.6,0-3-1.3-3-3v-26c0-0.4,0.1-0.8,0.2-1.2c0.1-0.2,0.2-0.3,0.3-0.5c0.2-0.3,0.5-0.6,0.8-0.8
			c0.5-0.3,1.1-0.5,1.7-0.5h26c0.6,0,1.2,0.2,1.7,0.5c0.3,0.2,0.6,0.5,0.8,0.8c0.1,0.2,0.2,0.3,0.3,0.5c0.2,0.4,0.2,0.8,0.2,1.2
			V38.3z"/>
		<path d="M36.4,23.5c-0.7-5.4-5.3-9.5-10.9-9.5c-5.7,0-10.5,4.4-11,10c0,0.3,0,0.7,0,1c0,0.2,0,0.4,0,0.5c0.3,5.8,5.1,10.5,11,10.5
			c6.1,0,11-4.9,11-11c0-0.2,0-0.3,0-0.5C36.5,24.2,36.4,23.8,36.4,23.5z M15.5,25c0-5.5,4.5-10,10-10c5.2,0,9.5,4,9.9,9
			c-0.2,0.2-0.3,0.5-0.5,0.7c-0.3,0.5-0.5,0.8-0.8,0.8c-0.4,0-0.5-0.3-0.8-0.8c-0.3-0.5-0.7-1.2-1.5-1.2c-0.8,0-1.1,0.7-1.5,1.2
			c-0.3,0.5-0.5,0.8-0.8,0.8c-0.4,0-0.5-0.3-0.8-0.8c-0.3-0.5-0.7-1.2-1.5-1.2c-0.8,0-1.1,0.7-1.5,1.2c-0.3,0.5-0.5,0.8-0.8,0.8
			c-0.4,0-0.5-0.3-0.8-0.8c-0.3-0.5-0.7-1.2-1.5-1.2c-0.8,0-1.1,0.7-1.5,1.2c-0.3,0.5-0.5,0.8-0.8,0.8c-0.4,0-0.5-0.3-0.8-0.8
			c-0.3-0.5-0.7-1.2-1.5-1.2c-0.8,0-1.1,0.7-1.5,1.2c-0.3,0.5-0.5,0.8-0.8,0.8c-0.1,0-0.2,0-0.3-0.1C15.5,25.3,15.5,25.1,15.5,25z
			 M25.5,35c-5,0-9.2-3.7-9.9-8.5c0.1,0,0.1,0,0.2,0c0.8,0,1.1-0.7,1.5-1.2c0.3-0.5,0.5-0.8,0.8-0.8c0.4,0,0.5,0.3,0.8,0.8
			c0.3,0.5,0.7,1.2,1.5,1.2c0.8,0,1.1-0.7,1.5-1.2c0.3-0.5,0.5-0.8,0.8-0.8c0.4,0,0.5,0.3,0.8,0.8c0.3,0.5,0.7,1.2,1.5,1.2
			c0.8,0,1.1-0.7,1.5-1.2c0.3-0.5,0.5-0.8,0.8-0.8c0.4,0,0.5,0.3,0.8,0.8c0.3,0.5,0.7,1.2,1.5,1.2c0.8,0,1.1-0.7,1.5-1.2
			c0.3-0.5,0.5-0.8,0.8-0.8c0.4,0,0.5,0.3,0.8,0.8c0.3,0.5,0.7,1.2,1.5,1.2c0.7,0,1-0.5,1.3-1C35.2,30.8,30.8,35,25.5,35z"/>
	</g>
	<g>
		<g>
			<path class="st1" d="M15.7,23.7c0.3-0.5,0.7-1.2,1.5-1.2c0.8,0,1.1,0.7,1.5,1.2c0.3,0.5,0.5,0.8,0.8,0.8c0.4,0,0.5-0.3,0.8-0.8
				c0.3-0.5,0.7-1.2,1.5-1.2c0.8,0,1.1,0.7,1.5,1.2c0.3,0.5,0.5,0.8,0.8,0.8c0.4,0,0.5-0.3,0.8-0.8c0.3-0.5,0.7-1.2,1.5-1.2
				c0.8,0,1.1,0.7,1.5,1.2c0.3,0.5,0.5,0.8,0.8,0.8c0.4,0,0.5-0.3,0.8-0.8c0.3-0.5,0.7-1.2,1.5-1.2c0.8,0,1.1,0.7,1.5,1.2
				c0.3,0.5,0.5,0.8,0.8,0.8c0.4,0,0.5-0.3,0.8-0.8c0.1-0.2,0.3-0.5,0.5-0.7c-0.5-5.1-4.8-9-9.9-9c-5.5,0-10,4.5-10,10
				c0,0.1,0,0.3,0,0.4c0.1,0.1,0.2,0.1,0.3,0.1C15.2,24.5,15.4,24.2,15.7,23.7z"/>
			<path class="st1" d="M33.2,25.5c-0.8,0-1.1-0.7-1.5-1.2c-0.3-0.5-0.5-0.8-0.8-0.8c-0.4,0-0.5,0.3-0.8,0.8
				c-0.3,0.5-0.7,1.2-1.5,1.2c-0.8,0-1.1-0.7-1.5-1.2c-0.3-0.5-0.5-0.8-0.8-0.8c-0.4,0-0.5,0.3-0.8,0.8c-0.3,0.5-0.7,1.2-1.5,1.2
				c-0.8,0-1.1-0.7-1.5-1.2c-0.3-0.5-0.5-0.8-0.8-0.8c-0.4,0-0.5,0.3-0.8,0.8c-0.3,0.5-0.7,1.2-1.5,1.2c-0.8,0-1.1-0.7-1.5-1.2
				c-0.3-0.5-0.5-0.8-0.8-0.8c-0.4,0-0.5,0.3-0.8,0.8c-0.3,0.5-0.7,1.2-1.5,1.2c-0.1,0-0.1,0-0.2,0c0.7,4.8,4.9,8.5,9.9,8.5
				c5.3,0,9.7-4.2,10-9.5C34.2,25,33.8,25.5,33.2,25.5z"/>
			<path class="st1" d="M40,9.6c-0.2-0.3-0.5-0.6-0.8-0.8c-0.5-0.3-1.1-0.5-1.7-0.5h-26c-0.6,0-1.2,0.2-1.7,0.5C9.5,9,9.2,9.3,9,9.6
				c-0.1,0.2-0.2,0.3-0.3,0.5c-0.2,0.4-0.2,0.8-0.2,1.2v26c0,1.7,1.4,3,3,3h26c1.7,0,3-1.3,3-3v-26c0-0.4-0.1-0.8-0.2-1.2
				C40.2,9.9,40.1,9.7,40,9.6z M24.5,35c-5.9,0-10.7-4.6-11-10.5c0-0.2,0-0.4,0-0.5c0-0.3,0-0.7,0-1c0.5-5.6,5.2-10,11-10
				c5.6,0,10.2,4.1,10.9,9.5c0,0.3,0.1,0.7,0.1,1c0,0.2,0,0.3,0,0.5C35.5,30.1,30.6,35,24.5,35z"/>
			<g>
				<path class="st2" d="M37.5,6.3h-26c-2.8,0-5,2.2-5,5v26c0,2.8,2.2,5,5,5h26c2.8,0,5-2.2,5-5v-26C42.5,8.5,40.3,6.3,37.5,6.3z
					 M40.5,37.3c0,1.7-1.3,3-3,3h-26c-1.6,0-3-1.3-3-3v-26c0-0.4,0.1-0.8,0.2-1.2C8.8,9.9,8.9,9.7,9,9.6C9.2,9.3,9.5,9,9.8,8.8
					c0.5-0.3,1.1-0.5,1.7-0.5h26c0.6,0,1.2,0.2,1.7,0.5C39.5,9,39.8,9.3,40,9.6c0.1,0.2,0.2,0.3,0.3,0.5c0.2,0.4,0.2,0.8,0.2,1.2
					V37.3z"/>
			</g>
			<path class="st2" d="M35.4,22.5c-0.7-5.4-5.3-9.5-10.9-9.5c-5.7,0-10.5,4.4-11,10c0,0.3,0,0.7,0,1c0,0.2,0,0.4,0,0.5
				c0.3,5.8,5.1,10.5,11,10.5c6.1,0,11-4.9,11-11c0-0.2,0-0.3,0-0.5C35.5,23.2,35.4,22.8,35.4,22.5z M14.5,24c0-5.5,4.5-10,10-10
				c5.2,0,9.5,4,9.9,9c-0.2,0.2-0.3,0.5-0.5,0.7c-0.3,0.5-0.5,0.8-0.8,0.8c-0.4,0-0.5-0.3-0.8-0.8c-0.3-0.5-0.7-1.2-1.5-1.2
				c-0.8,0-1.1,0.7-1.5,1.2c-0.3,0.5-0.5,0.8-0.8,0.8c-0.4,0-0.5-0.3-0.8-0.8c-0.3-0.5-0.7-1.2-1.5-1.2c-0.8,0-1.1,0.7-1.5,1.2
				c-0.3,0.5-0.5,0.8-0.8,0.8c-0.4,0-0.5-0.3-0.8-0.8c-0.3-0.5-0.7-1.2-1.5-1.2c-0.8,0-1.1,0.7-1.5,1.2c-0.3,0.5-0.5,0.8-0.8,0.8
				c-0.4,0-0.5-0.3-0.8-0.8c-0.3-0.5-0.7-1.2-1.5-1.2c-0.8,0-1.1,0.7-1.5,1.2c-0.3,0.5-0.5,0.8-0.8,0.8c-0.1,0-0.2,0-0.3-0.1
				C14.5,24.3,14.5,24.1,14.5,24z M24.5,34c-5,0-9.2-3.7-9.9-8.5c0.1,0,0.1,0,0.2,0c0.8,0,1.1-0.7,1.5-1.2c0.3-0.5,0.5-0.8,0.8-0.8
				c0.4,0,0.5,0.3,0.8,0.8c0.3,0.5,0.7,1.2,1.5,1.2c0.8,0,1.1-0.7,1.5-1.2c0.3-0.5,0.5-0.8,0.8-0.8c0.4,0,0.5,0.3,0.8,0.8
				c0.3,0.5,0.7,1.2,1.5,1.2c0.8,0,1.1-0.7,1.5-1.2c0.3-0.5,0.5-0.8,0.8-0.8c0.4,0,0.5,0.3,0.8,0.8c0.3,0.5,0.7,1.2,1.5,1.2
				c0.8,0,1.1-0.7,1.5-1.2c0.3-0.5,0.5-0.8,0.8-0.8c0.4,0,0.5,0.3,0.8,0.8c0.3,0.5,0.7,1.2,1.5,1.2c0.7,0,1-0.5,1.3-1
				C34.2,29.8,29.8,34,24.5,34z"/>
		</g>
	</g>
</g>
</svg>
