<?xml version="1.0" encoding="utf-8"?>
<!-- Generator: Adobe Illustrator 21.0.2, SVG Export Plug-In . SVG Version: 6.00 Build 0)  -->
<svg version="1.1" id="图层_1" xmlns="http://www.w3.org/2000/svg" xmlns:xlink="http://www.w3.org/1999/xlink" x="0px" y="0px"
	 viewBox="0 0 50 50" style="enable-background:new 0 0 50 50;" xml:space="preserve">
<style type="text/css">
	.st0{opacity:0.2;}
	.st1{fill:#FFFFFF;}
	.st2{fill:#F93E54;}
</style>
<g>
	<g class="st0">
		<polygon points="15.5,25.5 15.5,25.5 15.5,25.5 		"/>
		<polygon points="25.5,15.5 25.5,15.5 25.5,15.5 		"/>
		<path d="M25,25v-9.5c-5.1,0.3-9.2,4.4-9.5,9.5H25z"/>
		<path d="M26,25h9.5c-0.3-5.1-4.4-9.2-9.5-9.5V25z"/>
		<path d="M38.5,9.5h-26c-1.6,0-3,1.3-3,3v26c0,1.6,1.4,3,3,3h26c1.7,0,3-1.4,3-3v-26C41.5,10.8,40.2,9.5,38.5,9.5z M25.5,36.5
			c-6.1,0-11-4.9-11-11s4.9-11,11-11c6.1,0,11,4.9,11,11S31.6,36.5,25.5,36.5z"/>
		<path d="M25,26h-9.5c0.3,5.1,4.4,9.2,9.5,9.5V26z"/>
		<path d="M26,26v9.5c5.1-0.3,9.2-4.4,9.5-9.5H26z"/>
		<path d="M38.5,7.5h-26c-2.8,0-5,2.2-5,5v26c0,2.8,2.2,5,5,5h26c2.8,0,5-2.2,5-5v-26C43.5,9.7,41.3,7.5,38.5,7.5z M41.5,38.5
			c0,1.6-1.3,3-3,3h-26c-1.6,0-3-1.4-3-3v-26c0-1.7,1.4-3,3-3h26c1.7,0,3,1.3,3,3V38.5z"/>
		<path d="M25.5,14.5c-6.1,0-11,4.9-11,11s4.9,11,11,11c6.1,0,11-4.9,11-11S31.6,14.5,25.5,14.5z M35.5,25H26v-9.5
			C31.1,15.8,35.2,19.9,35.5,25z M25.5,15.5L25.5,15.5C25.5,15.5,25.5,15.5,25.5,15.5C25.5,15.5,25.5,15.5,25.5,15.5z M25,15.5V25
			h-9.5C15.8,19.9,19.9,15.8,25,15.5z M15.5,25.5L15.5,25.5C15.5,25.5,15.5,25.5,15.5,25.5C15.5,25.5,15.5,25.5,15.5,25.5z M15.5,26
			H25v9.5C19.9,35.2,15.8,31.1,15.5,26z M26,35.5V26h9.5C35.2,31.1,31.1,35.2,26,35.5z"/>
	</g>
	<g>
		<g>
			<polygon class="st1" points="14.5,24.5 14.5,24.5 14.5,24.5 			"/>
			<polygon class="st1" points="24.5,14.5 24.5,14.5 24.5,14.5 			"/>
			<path class="st1" d="M24,24v-9.5c-5.1,0.3-9.2,4.4-9.5,9.5H24z"/>
			<path class="st1" d="M25,24h9.5c-0.3-5.1-4.4-9.2-9.5-9.5V24z"/>
			<path class="st1" d="M37.5,8.5h-26c-1.6,0-3,1.3-3,3v26c0,1.6,1.4,3,3,3h26c1.7,0,3-1.4,3-3v-26C40.5,9.8,39.2,8.5,37.5,8.5z
				 M24.5,35.5c-6.1,0-11-4.9-11-11s4.9-11,11-11c6.1,0,11,4.9,11,11S30.6,35.5,24.5,35.5z"/>
			<path class="st1" d="M24,25h-9.5c0.3,5.1,4.4,9.2,9.5,9.5V25z"/>
			<path class="st1" d="M25,25v9.5c5.1-0.3,9.2-4.4,9.5-9.5H25z"/>
			<path class="st2" d="M37.5,6.5h-26c-2.8,0-5,2.2-5,5v26c0,2.8,2.2,5,5,5h26c2.8,0,5-2.2,5-5v-26C42.5,8.7,40.3,6.5,37.5,6.5z
				 M40.5,37.5c0,1.6-1.3,3-3,3h-26c-1.6,0-3-1.4-3-3v-26c0-1.7,1.4-3,3-3h26c1.7,0,3,1.3,3,3V37.5z"/>
			<path class="st2" d="M24.5,13.5c-6.1,0-11,4.9-11,11s4.9,11,11,11c6.1,0,11-4.9,11-11S30.6,13.5,24.5,13.5z M34.5,24H25v-9.5
				C30.1,14.8,34.2,18.9,34.5,24z M24.5,14.5L24.5,14.5C24.5,14.5,24.5,14.5,24.5,14.5C24.5,14.5,24.5,14.5,24.5,14.5z M24,14.5V24
				h-9.5C14.8,18.9,18.9,14.8,24,14.5z M14.5,24.5L14.5,24.5C14.5,24.5,14.5,24.5,14.5,24.5C14.5,24.5,14.5,24.5,14.5,24.5z
				 M14.5,25H24v9.5C18.9,34.2,14.8,30.1,14.5,25z M25,34.5V25h9.5C34.2,30.1,30.1,34.2,25,34.5z"/>
		</g>
	</g>
</g>
</svg>
