<?xml version="1.0" encoding="utf-8"?>
<!-- Generator: Adobe Illustrator 21.0.2, SVG Export Plug-In . SVG Version: 6.00 Build 0)  -->
<svg version="1.1" id="图层_1" xmlns="http://www.w3.org/2000/svg" xmlns:xlink="http://www.w3.org/1999/xlink" x="0px" y="0px"
	 viewBox="0 0 50 50" style="enable-background:new 0 0 50 50;" xml:space="preserve">
<style type="text/css">
	.st0{opacity:0.2;}
	.st1{fill:#FFFFFF;}
	.st2{fill:#FF6D0C;}
</style>
<g>
	<g class="st0">
		<rect x="21.9" y="20.3" width="5.7" height="0.6"/>
		<rect x="16" y="29.4" width="11.5" height="1.2"/>
		<rect x="20.6" y="24.5" width="6.4" height="1.2"/>
		<path d="M41,10.8c-0.2-0.3-0.5-0.6-0.8-0.8c-0.5-0.3-1.1-0.5-1.7-0.5h-26c-0.6,0-1.2,0.2-1.7,0.5c-0.3,0.2-0.6,0.5-0.8,0.8
			c-0.1,0.2-0.2,0.3-0.3,0.5c-0.2,0.4-0.2,0.8-0.2,1.2v26c0,1.7,1.4,3,3,3h26c1.7,0,3-1.3,3-3v-26c0-0.4-0.1-0.8-0.2-1.2
			C41.2,11.2,41.1,11,41,10.8z M38.5,31.8l-3.2-1.2H34l-1.3,0.6v0.1c0,1-0.8,1.7-1.7,1.7H14.4c-1.1,0-1.9-0.9-1.9-2v-7.5
			c0-1.1,0.9-2,1.9-2h4.3c0,0,1.4-2.4,3.2-2.4c1.8,0,7,0,7,0l1.4,2.2l1-1.4c-0.4-0.1-0.7-0.5-0.7-0.9c0-0.5,0.4-1,0.9-1h3.7
			c0.5,0,0.9,0.4,0.9,1s-0.4,1-0.9,1h-2.5l-1.1,1.5h1.1v3.6c0,0,0.7-1.3,1.3-1.2c0.6,0.1,1.3,1.2,1.3,1.2l3.2-3V31.8z"/>
		<path d="M38.5,7.5h-26c-2.8,0-5,2.2-5,5v26c0,2.8,2.2,5,5,5h26c2.8,0,5-2.2,5-5v-26C43.5,9.7,41.3,7.5,38.5,7.5z M41.5,38.5
			c0,1.7-1.3,3-3,3h-26c-1.6,0-3-1.3-3-3v-26c0-0.4,0.1-0.8,0.2-1.2c0.1-0.2,0.2-0.3,0.3-0.5c0.2-0.3,0.5-0.6,0.8-0.8
			c0.5-0.3,1.1-0.5,1.7-0.5h26c0.6,0,1.2,0.2,1.7,0.5c0.3,0.2,0.6,0.5,0.8,0.8c0.1,0.2,0.2,0.3,0.3,0.5c0.2,0.4,0.2,0.8,0.2,1.2
			V38.5z"/>
		<path d="M34,23.9c-0.6-0.1-1.3,1.2-1.3,1.2v-3.6h-1.1l1.1-1.5h2.5c0.5,0,0.9-0.4,0.9-1s-0.4-1-0.9-1h-3.7c-0.5,0-0.9,0.4-0.9,1
			c0,0.5,0.3,0.8,0.7,0.9l-1,1.4L28.9,19c0,0-5.2,0-7,0c-1.8,0-3.2,2.4-3.2,2.4h-4.3c-1.1,0-1.9,0.9-1.9,2V31c0,1.1,0.9,2,1.9,2
			h16.7c0.9,0,1.7-0.8,1.7-1.7v-0.1l1.3-0.6h1.3l3.2,1.2v-9.7l-3.2,3C35.3,25.1,34.7,24,34,23.9z M20.6,24.5H27v1.2h-6.4V24.5z
			 M27.4,30.6H16v-1.2h11.5V30.6z M27.7,20.9h-5.7v-0.6h5.7V20.9z"/>
	</g>
	<g>
		<g>
			<rect x="20.9" y="19.3" class="st1" width="5.7" height="0.6"/>
			<rect x="15" y="28.4" class="st1" width="11.5" height="1.2"/>
			<rect x="19.6" y="23.5" class="st1" width="6.4" height="1.2"/>
			<path class="st1" d="M40,9.8c-0.2-0.3-0.5-0.6-0.8-0.8c-0.5-0.3-1.1-0.5-1.7-0.5h-26c-0.6,0-1.2,0.2-1.7,0.5
				C9.5,9.2,9.2,9.5,9,9.8c-0.1,0.2-0.2,0.3-0.3,0.5c-0.2,0.4-0.2,0.8-0.2,1.2v26c0,1.7,1.4,3,3,3h26c1.7,0,3-1.3,3-3v-26
				c0-0.4-0.1-0.8-0.2-1.2C40.2,10.2,40.1,10,40,9.8z M37.5,30.8l-3.2-1.2H33l-1.3,0.6v0.1c0,1-0.8,1.7-1.7,1.7H13.4
				c-1.1,0-1.9-0.9-1.9-2v-7.5c0-1.1,0.9-2,1.9-2h4.3c0,0,1.4-2.4,3.2-2.4c1.8,0,7,0,7,0l1.4,2.2l1-1.4c-0.4-0.1-0.7-0.5-0.7-0.9
				c0-0.5,0.4-1,0.9-1h3.7c0.5,0,0.9,0.4,0.9,1s-0.4,1-0.9,1h-2.5l-1.1,1.5h1.1v3.6c0,0,0.7-1.3,1.3-1.2c0.6,0.1,1.3,1.2,1.3,1.2
				l3.2-3V30.8z"/>
			<g>
				<path class="st2" d="M37.5,6.5h-26c-2.8,0-5,2.2-5,5v26c0,2.8,2.2,5,5,5h26c2.8,0,5-2.2,5-5v-26C42.5,8.7,40.3,6.5,37.5,6.5z
					 M40.5,37.5c0,1.7-1.3,3-3,3h-26c-1.6,0-3-1.3-3-3v-26c0-0.4,0.1-0.8,0.2-1.2C8.8,10.2,8.9,10,9,9.8C9.2,9.5,9.5,9.2,9.8,9
					c0.5-0.3,1.1-0.5,1.7-0.5h26c0.6,0,1.2,0.2,1.7,0.5c0.3,0.2,0.6,0.5,0.8,0.8c0.1,0.2,0.2,0.3,0.3,0.5c0.2,0.4,0.2,0.8,0.2,1.2
					V37.5z"/>
			</g>
			<path class="st2" d="M33,22.9c-0.6-0.1-1.3,1.2-1.3,1.2v-3.6h-1.1l1.1-1.5h2.5c0.5,0,0.9-0.4,0.9-1s-0.4-1-0.9-1h-3.7
				c-0.5,0-0.9,0.4-0.9,1c0,0.5,0.3,0.8,0.7,0.9l-1,1.4L27.9,18c0,0-5.2,0-7,0c-1.8,0-3.2,2.4-3.2,2.4h-4.3c-1.1,0-1.9,0.9-1.9,2V30
				c0,1.1,0.9,2,1.9,2h16.7c0.9,0,1.7-0.8,1.7-1.7v-0.1l1.3-0.6h1.3l3.2,1.2v-9.7l-3.2,3C34.3,24.1,33.7,23,33,22.9z M19.6,23.5H26
				v1.2h-6.4V23.5z M26.4,29.6H15v-1.2h11.5V29.6z M26.7,19.9h-5.7v-0.6h5.7V19.9z"/>
		</g>
	</g>
</g>
</svg>
