<?xml version="1.0" encoding="utf-8"?>
<!-- Generator: Adobe Illustrator 21.0.2, SVG Export Plug-In . SVG Version: 6.00 Build 0)  -->
<svg version="1.1" id="图层_1" xmlns="http://www.w3.org/2000/svg" xmlns:xlink="http://www.w3.org/1999/xlink" x="0px" y="0px"
	 viewBox="0 0 50 50" style="enable-background:new 0 0 50 50;" xml:space="preserve">
<style type="text/css">
	.st0{opacity:0.2;}
	.st1{fill:#FFFFFF;}
	.st2{fill:#F93E54;}
</style>
<g>
	<g class="st0">
		<path d="M38.5,9.5h-26c-1.6,0-3,1.4-3,3v26c0,1.7,1.4,3,3,3h26c1.7,0,3-1.3,3-3v-26C41.5,10.9,40.2,9.5,38.5,9.5z M35.5,22.5h-4.6
			l-2.5,10.8H28h-5h-0.4l-2.5-10.8h-4.6v-1h5.4l2.5,10.8h4.2l2.5-10.8h5.4V22.5z M35.5,19.2h-20v-2h20V19.2z"/>
		<path d="M38.5,7.5h-26c-2.8,0-5,2.2-5,5v26c0,2.8,2.2,5,5,5h26c2.8,0,5-2.2,5-5v-26C43.5,9.7,41.3,7.5,38.5,7.5z M41.5,38.5
			c0,1.7-1.3,3-3,3h-26c-1.6,0-3-1.3-3-3v-26c0-1.6,1.4-3,3-3h26c1.7,0,3,1.4,3,3V38.5z"/>
		<rect x="15.5" y="17.2" width="20" height="2"/>
		<polygon points="27.6,32.3 23.4,32.3 20.9,21.5 15.5,21.5 15.5,22.5 20.1,22.5 22.6,33.3 23,33.3 28,33.3 28.4,33.3 30.9,22.5 
			35.5,22.5 35.5,21.5 30.1,21.5 		"/>
	</g>
	<g>
		<g>
			<path class="st1" d="M37.5,8.5h-26c-1.6,0-3,1.4-3,3v26c0,1.7,1.4,3,3,3h26c1.7,0,3-1.3,3-3v-26C40.5,9.9,39.2,8.5,37.5,8.5z
				 M34.5,21.5h-4.6l-2.5,10.8H27h-5h-0.4l-2.5-10.8h-4.6v-1h5.4l2.5,10.8h4.2l2.5-10.8h5.4V21.5z M34.5,18.2h-20v-2h20V18.2z"/>
			<path class="st2" d="M37.5,6.5h-26c-2.8,0-5,2.2-5,5v26c0,2.8,2.2,5,5,5h26c2.8,0,5-2.2,5-5v-26C42.5,8.7,40.3,6.5,37.5,6.5z
				 M40.5,37.5c0,1.7-1.3,3-3,3h-26c-1.6,0-3-1.3-3-3v-26c0-1.6,1.4-3,3-3h26c1.7,0,3,1.4,3,3V37.5z"/>
			<rect x="14.5" y="16.2" class="st2" width="20" height="2"/>
			<polygon class="st2" points="26.6,31.3 22.4,31.3 19.9,20.5 14.5,20.5 14.5,21.5 19.1,21.5 21.6,32.3 22,32.3 27,32.3 27.4,32.3 
				29.9,21.5 34.5,21.5 34.5,20.5 29.1,20.5 			"/>
		</g>
	</g>
</g>
</svg>
