<?xml version="1.0" encoding="utf-8"?>
<!-- Generator: Adobe Illustrator 21.0.2, SVG Export Plug-In . SVG Version: 6.00 Build 0)  -->
<svg version="1.1" id="图层_1" xmlns="http://www.w3.org/2000/svg" xmlns:xlink="http://www.w3.org/1999/xlink" x="0px" y="0px"
	 viewBox="0 0 50 50" style="enable-background:new 0 0 50 50;" xml:space="preserve">
<style type="text/css">
	.st0{opacity:0.2;}
	.st1{fill:#FFFFFF;}
	.st2{fill:#F93E54;}
</style>
<g>
	<g class="st0">
		<path d="M41,10.8c-0.2-0.3-0.5-0.6-0.8-0.8c-0.5-0.3-1.1-0.5-1.7-0.5h-26c-0.4,0-0.8,0.1-1.2,0.2C11.2,9.8,11,9.9,10.8,10
			c-0.3,0.2-0.6,0.5-0.8,0.8c-0.1,0.2-0.2,0.3-0.3,0.5c-0.2,0.4-0.2,0.8-0.2,1.2v26c0,0.4,0.1,0.8,0.2,1.2c0.1,0.2,0.2,0.3,0.3,0.5
			s0.2,0.3,0.4,0.4s0.3,0.3,0.4,0.4s0.3,0.2,0.5,0.3c0.4,0.2,0.8,0.2,1.2,0.2h26c0.6,0,1.2-0.2,1.7-0.5c0.3-0.2,0.6-0.5,0.8-0.8
			c0.1-0.2,0.2-0.3,0.3-0.5c0.2-0.4,0.2-0.8,0.2-1.2v-26c0-0.4-0.1-0.8-0.2-1.2C41.2,11.2,41.1,11,41,10.8z M35.5,36.5h-20v-2h3
			V19.5h-2l9-5l9,5h-2v15.1h3V36.5z"/>
		<rect x="21.2" y="21.2" width="6" height="12"/>
		<path d="M38.5,7.5h-26c-2.8,0-5,2.2-5,5v26c0,2.8,2.2,5,5,5h26c2.8,0,5-2.2,5-5v-26C43.5,9.7,41.3,7.5,38.5,7.5z M41.5,38.5
			c0,0.4-0.1,0.8-0.2,1.2c-0.1,0.2-0.2,0.3-0.3,0.5c-0.2,0.3-0.5,0.6-0.8,0.8c-0.5,0.3-1.1,0.5-1.7,0.5h-26c-0.4,0-0.8-0.1-1.2-0.2
			c-0.2-0.1-0.3-0.2-0.5-0.3s-0.3-0.2-0.4-0.4c-0.1-0.1-0.3-0.3-0.4-0.4s-0.2-0.3-0.3-0.5c-0.2-0.4-0.2-0.8-0.2-1.2v-26
			c0-0.4,0.1-0.8,0.2-1.2c0.1-0.2,0.2-0.3,0.3-0.5c0.2-0.3,0.5-0.6,0.8-0.8c0.2-0.1,0.3-0.2,0.5-0.3c0.4-0.2,0.8-0.2,1.2-0.2h26
			c0.6,0,1.2,0.2,1.7,0.5c0.3,0.2,0.6,0.5,0.8,0.8c0.1,0.2,0.2,0.3,0.3,0.5c0.2,0.4,0.2,0.8,0.2,1.2V38.5z"/>
		<polygon points="32.5,35 18.5,35 18.5,34.5 15.5,34.5 15.5,36.5 35.5,36.5 35.5,34.5 32.5,34.5 		"/>
		<path d="M32.5,35v-0.4V19.5h2l-9-5l-9,5h2v15.1V35H32.5z M21.2,33.2v-12h6v12H21.2z"/>
	</g>
	<g>
		<g>
			<path class="st1" d="M40,9.8c-0.2-0.3-0.5-0.6-0.8-0.8c-0.5-0.3-1.1-0.5-1.7-0.5h-26c-0.4,0-0.8,0.1-1.2,0.2
				C10.2,8.8,10,8.9,9.8,9C9.5,9.2,9.2,9.5,9,9.8c-0.1,0.2-0.2,0.3-0.3,0.5c-0.2,0.4-0.2,0.8-0.2,1.2v26c0,0.4,0.1,0.8,0.2,1.2
				C8.8,38.8,8.9,39,9,39.2s0.2,0.3,0.4,0.4s0.3,0.3,0.4,0.4s0.3,0.2,0.5,0.3c0.4,0.2,0.8,0.2,1.2,0.2h26c0.6,0,1.2-0.2,1.7-0.5
				c0.3-0.2,0.6-0.5,0.8-0.8c0.1-0.2,0.2-0.3,0.3-0.5c0.2-0.4,0.2-0.8,0.2-1.2v-26c0-0.4-0.1-0.8-0.2-1.2C40.2,10.2,40.1,10,40,9.8z
				 M34.5,35.5h-20v-2h3V18.5h-2l9-5l9,5h-2v15.1h3V35.5z"/>
			<rect x="20.2" y="20.2" class="st1" width="6" height="12"/>
			<path class="st2" d="M37.5,6.5h-26c-2.8,0-5,2.2-5,5v26c0,2.8,2.2,5,5,5h26c2.8,0,5-2.2,5-5v-26C42.5,8.7,40.3,6.5,37.5,6.5z
				 M40.5,37.5c0,0.4-0.1,0.8-0.2,1.2c-0.1,0.2-0.2,0.3-0.3,0.5c-0.2,0.3-0.5,0.6-0.8,0.8c-0.5,0.3-1.1,0.5-1.7,0.5h-26
				c-0.4,0-0.8-0.1-1.2-0.2c-0.2-0.1-0.3-0.2-0.5-0.3s-0.3-0.2-0.4-0.4c-0.1-0.1-0.3-0.3-0.4-0.4s-0.2-0.3-0.3-0.5
				c-0.2-0.4-0.2-0.8-0.2-1.2v-26c0-0.4,0.1-0.8,0.2-1.2C8.8,10.2,8.9,10,9,9.8C9.2,9.5,9.5,9.2,9.8,9c0.2-0.1,0.3-0.2,0.5-0.3
				c0.4-0.2,0.8-0.2,1.2-0.2h26c0.6,0,1.2,0.2,1.7,0.5c0.3,0.2,0.6,0.5,0.8,0.8c0.1,0.2,0.2,0.3,0.3,0.5c0.2,0.4,0.2,0.8,0.2,1.2
				V37.5z"/>
			<g>
				<polygon class="st2" points="31.5,34 17.5,34 17.5,33.5 14.5,33.5 14.5,35.5 34.5,35.5 34.5,33.5 31.5,33.5 				"/>
			</g>
			<path class="st2" d="M31.5,34v-0.4V18.5h2l-9-5l-9,5h2v15.1V34H31.5z M20.2,32.2v-12h6v12H20.2z"/>
		</g>
	</g>
</g>
</svg>
