<?xml version="1.0" encoding="utf-8"?>
<!-- Generator: Adobe Illustrator 21.0.2, SVG Export Plug-In . SVG Version: 6.00 Build 0)  -->
<svg version="1.1" id="图层_1" xmlns="http://www.w3.org/2000/svg" xmlns:xlink="http://www.w3.org/1999/xlink" x="0px" y="0px"
	 viewBox="0 0 50 50" style="enable-background:new 0 0 50 50;" xml:space="preserve">
<style type="text/css">
	.st0{opacity:0.2;}
	.st1{fill:#FFFFFF;}
	.st2{fill:#F93E54;}
</style>
<g>
	<g class="st0">
		<polygon points="20.5,30.6 20.5,30.6 20.5,30.6 		"/>
		<path d="M30.5,30.1c-0.3-2.5-2.4-4.5-4.9-4.5h0c-2.6,0-4.7,2-4.9,4.5H30.5z"/>
		<path d="M38.5,9.5h-26c-1.6,0-3,1.3-3,3v26c0,1.7,1.4,3,3,3h26c1.7,0,3-1.3,3-3v-26C41.5,10.8,40.2,9.5,38.5,9.5z M25.5,36.6
			c-3.3,0-6-2.7-6-6c0-3.1,2.4-5.7,5.5-6v-8.5h-4.5v-1h10v1H26v8.5c3.1,0.3,5.5,2.8,5.5,6C31.5,33.9,28.8,36.6,25.5,36.6z"/>
		<path d="M20.6,31.1c0.3,2.5,2.4,4.5,4.9,4.5s4.7-2,4.9-4.5H20.6z"/>
		<path d="M38.5,7.5h-26c-2.8,0-5,2.2-5,5v26c0,2.8,2.2,5,5,5h26c2.8,0,5-2.2,5-5v-26C43.5,9.7,41.3,7.5,38.5,7.5z M41.5,38.5
			c0,1.7-1.3,3-3,3h-26c-1.6,0-3-1.3-3-3v-26c0-1.7,1.4-3,3-3h26c1.7,0,3,1.3,3,3V38.5z"/>
		<path d="M26,24.7v-8.5h4.5v-1h-10v1H25v8.5c-3.1,0.3-5.5,2.8-5.5,6c0,3.3,2.7,6,6,6s6-2.7,6-6C31.5,27.5,29.1,24.9,26,24.7z
			 M25.5,25.6L25.5,25.6c2.6,0,4.7,2,5,4.5h-9.9C20.8,27.6,22.9,25.6,25.5,25.6z M20.5,30.6L20.5,30.6
			C20.5,30.6,20.5,30.6,20.5,30.6C20.5,30.6,20.5,30.6,20.5,30.6z M25.5,35.6c-2.6,0-4.7-2-4.9-4.5h9.9
			C30.2,33.7,28.1,35.6,25.5,35.6z"/>
	</g>
	<g>
		<g>
			<polygon class="st1" points="19.5,29.6 19.5,29.6 19.5,29.6 			"/>
			<path class="st1" d="M29.5,29.1c-0.3-2.5-2.4-4.5-4.9-4.5h0c-2.6,0-4.7,2-4.9,4.5H29.5z"/>
			<path class="st1" d="M37.5,8.5h-26c-1.6,0-3,1.3-3,3v26c0,1.7,1.4,3,3,3h26c1.7,0,3-1.3,3-3v-26C40.5,9.8,39.2,8.5,37.5,8.5z
				 M24.5,35.6c-3.3,0-6-2.7-6-6c0-3.1,2.4-5.7,5.5-6v-8.5h-4.5v-1h10v1H25v8.5c3.1,0.3,5.5,2.8,5.5,6
				C30.5,32.9,27.8,35.6,24.5,35.6z"/>
			<path class="st1" d="M19.6,30.1c0.3,2.5,2.4,4.5,4.9,4.5s4.7-2,4.9-4.5H19.6z"/>
			<path class="st2" d="M37.5,6.5h-26c-2.8,0-5,2.2-5,5v26c0,2.8,2.2,5,5,5h26c2.8,0,5-2.2,5-5v-26C42.5,8.7,40.3,6.5,37.5,6.5z
				 M40.5,37.5c0,1.7-1.3,3-3,3h-26c-1.6,0-3-1.3-3-3v-26c0-1.7,1.4-3,3-3h26c1.7,0,3,1.3,3,3V37.5z"/>
			<path class="st2" d="M25,23.7v-8.5h4.5v-1h-10v1H24v8.5c-3.1,0.3-5.5,2.8-5.5,6c0,3.3,2.7,6,6,6s6-2.7,6-6
				C30.5,26.5,28.1,23.9,25,23.7z M24.5,24.6L24.5,24.6c2.6,0,4.7,2,5,4.5h-9.9C19.8,26.6,21.9,24.6,24.5,24.6z M19.5,29.6
				L19.5,29.6C19.5,29.6,19.5,29.6,19.5,29.6C19.5,29.6,19.5,29.6,19.5,29.6z M24.5,34.6c-2.6,0-4.7-2-4.9-4.5h9.9
				C29.2,32.7,27.1,34.6,24.5,34.6z"/>
		</g>
	</g>
</g>
</svg>
