<?xml version="1.0" encoding="utf-8"?>
<!-- Generator: Adobe Illustrator 21.0.2, SVG Export Plug-In . SVG Version: 6.00 Build 0)  -->
<svg version="1.1" id="图层_1" xmlns="http://www.w3.org/2000/svg" xmlns:xlink="http://www.w3.org/1999/xlink" x="0px" y="0px"
	 viewBox="0 0 50 50" style="enable-background:new 0 0 50 50;" xml:space="preserve">
<style type="text/css">
	.st0{opacity:0.2;}
	.st1{fill:#BC09FF;}
	.st2{fill:#FFFFFF;}
</style>
<g>
	<g class="st0">
		<path d="M38.5,7.5h-26c-2.8,0-5,2.2-5,5v26c0,2.8,2.2,5,5,5h26c2.8,0,5-2.2,5-5v-26C43.5,9.7,41.3,7.5,38.5,7.5z M41.5,38.5
			c0,1.7-1.3,3-3,3h-26c-1.6,0-3-1.3-3-3v-26c0-1.6,1.4-3,3-3h26c1.7,0,3,1.4,3,3V38.5z"/>
		<path d="M38.5,9.5h-26c-1.6,0-3,1.4-3,3v26c0,1.7,1.4,3,3,3h26c1.7,0,3-1.3,3-3v-26C41.5,10.9,40.2,9.5,38.5,9.5z M25.4,34.1
			c0,1.6-1.3,2.9-2.8,2.9h-7.4c-1.5,0-2.8-1.3-2.8-2.9V22.9l2.8-2.9v-1h3.2v-5h1v1.5h3.5v1h-3.5V19h3.2v1l2.8,2.9V34.1z M27.4,29.8
			c1.4-1.1,2.4-2.4,2.8-4l0.8,0.3c0.1,0,0.2,0.1,0.2,0.1c0,0-0.1,0.1-0.2,0.1c-0.1,0.1-0.2,0.2-0.3,0.3c-0.1,0.2-0.2,0.4-0.3,0.5
			h6.3c0.2,0,0.5,0,0.8-0.1v0.7c-0.3-0.1-0.6-0.1-0.8-0.1h-6.5c-0.5,0.8-1.1,1.6-1.9,2.4C28,30,27.7,29.9,27.4,29.8z M37,29v0.7
			c-0.3-0.1-0.5-0.1-0.8-0.1h-5.3c-0.2,0-0.5,0-0.8,0.1V29c0.3,0.1,0.6,0.1,0.8,0.1h5.3C36.5,29,36.7,29,37,29z M37.6,37
			c-1.5-0.4-2.2-2-2.2-4.7c0-0.3,0-0.6,0-0.9h-5.8c-0.2,0-0.5,0-0.9,0.1v-0.7c0.3,0.1,0.6,0.1,0.9,0.1h5.6c0.4,0,0.7,0,1.2-0.1
			c-0.1,0.7-0.2,1.3-0.2,1.9c0,0.6,0,1.1,0.1,1.6c0.3,1.1,0.7,1.7,1.2,1.8c0.2,0,0.3-0.4,0.4-1.2c0.2,0.2,0.4,0.4,0.7,0.6
			C38.3,36.5,38,37,37.6,37z"/>
		<path d="M36.8,27.8c0.2,0,0.5,0,0.8,0.1v-0.7c-0.3,0.1-0.6,0.1-0.8,0.1h-6.3c0.1-0.2,0.2-0.3,0.3-0.5c0.1-0.2,0.2-0.3,0.3-0.3
			c0.1-0.1,0.2-0.1,0.2-0.1c0,0-0.1-0.1-0.2-0.1l-0.8-0.3c-0.4,1.6-1.4,2.9-2.8,4c0.2,0.1,0.5,0.2,0.9,0.5c0.8-0.9,1.5-1.7,1.9-2.4
			H36.8z"/>
		<path d="M30.9,29c-0.2,0-0.5,0-0.8-0.1v0.7c0.3-0.1,0.6-0.1,0.8-0.1h5.3c0.3,0,0.5,0,0.8,0.1V29C36.7,29,36.5,29,36.2,29H30.9z"/>
		<path d="M37.9,34.9c-0.1,0.8-0.3,1.2-0.4,1.2c-0.5-0.1-0.9-0.7-1.2-1.8c-0.1-0.5-0.1-1-0.1-1.6c0-0.6,0.1-1.2,0.2-1.9
			c-0.4,0.1-0.8,0.1-1.2,0.1h-5.6c-0.2,0-0.5,0-0.9-0.1v0.7c0.4-0.1,0.7-0.1,0.9-0.1h5.8c0,0.3,0,0.7,0,0.9c0,2.7,0.7,4.2,2.2,4.7
			c0.4,0,0.7-0.5,1-1.5C38.3,35.3,38.1,35.1,37.9,34.9z"/>
		<path d="M22.7,19h-3.2v-2.5h3.5v-1h-3.5V14h-1v5h-3.2v1l-2.8,2.9v11.2c0,1.6,1.3,2.9,2.8,2.9h7.4c1.5,0,2.8-1.3,2.8-2.9V22.9
			L22.7,20V19z"/>
	</g>
	<g>
		<g>
			<path class="st1" d="M37.5,6.5h-26c-2.8,0-5,2.2-5,5v26c0,2.8,2.2,5,5,5h26c2.8,0,5-2.2,5-5v-26C42.5,8.7,40.3,6.5,37.5,6.5z
				 M40.5,37.5c0,1.7-1.3,3-3,3h-26c-1.6,0-3-1.3-3-3v-26c0-1.6,1.4-3,3-3h26c1.7,0,3,1.4,3,3V37.5z"/>
			<path class="st2" d="M37.5,8.5h-26c-1.6,0-3,1.4-3,3v26c0,1.7,1.4,3,3,3h26c1.7,0,3-1.3,3-3v-26C40.5,9.9,39.2,8.5,37.5,8.5z
				 M24.4,33.1c0,1.6-1.3,2.9-2.8,2.9h-7.4c-1.5,0-2.8-1.3-2.8-2.9V21.9l2.8-2.9v-1h3.2v-5h1v1.5h3.5v1h-3.5V18h3.2v1l2.8,2.9V33.1z
				 M26.4,28.8c1.4-1.1,2.4-2.4,2.8-4l0.8,0.3c0.1,0,0.2,0.1,0.2,0.1c0,0-0.1,0.1-0.2,0.1c-0.1,0.1-0.2,0.2-0.3,0.3
				c-0.1,0.2-0.2,0.4-0.3,0.5h6.3c0.2,0,0.5,0,0.8-0.1v0.7c-0.3-0.1-0.6-0.1-0.8-0.1h-6.5c-0.5,0.8-1.1,1.6-1.9,2.4
				C27,29,26.7,28.9,26.4,28.8z M36,28v0.7c-0.3-0.1-0.5-0.1-0.8-0.1h-5.3c-0.2,0-0.5,0-0.8,0.1V28c0.3,0.1,0.6,0.1,0.8,0.1h5.3
				C35.5,28,35.7,28,36,28z M36.6,36c-1.5-0.4-2.2-2-2.2-4.7c0-0.3,0-0.6,0-0.9h-5.8c-0.2,0-0.5,0-0.9,0.1v-0.7
				c0.3,0.1,0.6,0.1,0.9,0.1h5.6c0.4,0,0.7,0,1.2-0.1c-0.1,0.7-0.2,1.3-0.2,1.9c0,0.6,0,1.1,0.1,1.6c0.3,1.1,0.7,1.7,1.2,1.8
				c0.2,0,0.3-0.4,0.4-1.2c0.2,0.2,0.4,0.4,0.7,0.6C37.3,35.5,37,36,36.6,36z"/>
			<path class="st1" d="M35.8,26.8c0.2,0,0.5,0,0.8,0.1v-0.7c-0.3,0.1-0.6,0.1-0.8,0.1h-6.3c0.1-0.2,0.2-0.3,0.3-0.5
				c0.1-0.2,0.2-0.3,0.3-0.3c0.1-0.1,0.2-0.1,0.2-0.1c0,0-0.1-0.1-0.2-0.1l-0.8-0.3c-0.4,1.6-1.4,2.9-2.8,4c0.2,0.1,0.5,0.2,0.9,0.5
				c0.8-0.9,1.5-1.7,1.9-2.4H35.8z"/>
			<path class="st1" d="M29.9,28c-0.2,0-0.5,0-0.8-0.1v0.7c0.3-0.1,0.6-0.1,0.8-0.1h5.3c0.3,0,0.5,0,0.8,0.1V28
				C35.7,28,35.5,28,35.2,28H29.9z"/>
			<path class="st1" d="M36.9,33.9c-0.1,0.8-0.3,1.2-0.4,1.2c-0.5-0.1-0.9-0.7-1.2-1.8c-0.1-0.5-0.1-1-0.1-1.6
				c0-0.6,0.1-1.2,0.2-1.9c-0.4,0.1-0.8,0.1-1.2,0.1h-5.6c-0.2,0-0.5,0-0.9-0.1v0.7c0.4-0.1,0.7-0.1,0.9-0.1h5.8c0,0.3,0,0.7,0,0.9
				c0,2.7,0.7,4.2,2.2,4.7c0.4,0,0.7-0.5,1-1.5C37.3,34.3,37.1,34.1,36.9,33.9z"/>
			<path class="st1" d="M21.7,18h-3.2v-2.5h3.5v-1h-3.5V13h-1v5h-3.2v1l-2.8,2.9v11.2c0,1.6,1.3,2.9,2.8,2.9h7.4
				c1.5,0,2.8-1.3,2.8-2.9V21.9L21.7,19V18z"/>
		</g>
	</g>
</g>
</svg>
