<?xml version="1.0" encoding="utf-8"?>
<!-- Generator: Adobe Illustrator 21.0.2, SVG Export Plug-In . SVG Version: 6.00 Build 0)  -->
<svg version="1.1" id="图层_1" xmlns="http://www.w3.org/2000/svg" xmlns:xlink="http://www.w3.org/1999/xlink" x="0px" y="0px"
	 viewBox="0 0 50 50" style="enable-background:new 0 0 50 50;" xml:space="preserve">
<style type="text/css">
	
	.st0{opacity:0.2;}
	.st1{fill:#FFFFFF;}
	.st2{fill:#00A0E9;}
</style>
<g>
	<g class="st0">
		<polygon points="25,36.5 33.5,30.8 16.5,30.8 		"/>
		<path d="M41,11.1c-0.2-0.3-0.5-0.6-0.8-0.8c-0.5-0.3-1.1-0.5-1.7-0.5h-26c-0.6,0-1.2,0.2-1.7,0.5c-0.3,0.2-0.6,0.5-0.8,0.8
			c-0.1,0.2-0.2,0.3-0.3,0.5c-0.2,0.4-0.2,0.8-0.2,1.2v26c0,1.7,1.4,3,3,3h26c1.7,0,3-1.3,3-3v-26c0-0.4-0.1-0.8-0.2-1.2
			C41.2,11.4,41.1,11.2,41,11.1z M25,37.8l-11.5-8h11v-9.4L20,24.1l-0.6-0.8l4.8-4l-4.9-3.8l0.6-0.8l5.1,4l5-4.2l0.6,0.8l-4.8,4
			l4.9,3.8l-0.6,0.8l-4.7-3.6v9.5h11L25,37.8z"/>
		<path d="M38.5,7.8h-26c-2.8,0-5,2.2-5,5v26c0,2.8,2.2,5,5,5h26c2.8,0,5-2.2,5-5v-26C43.5,10,41.3,7.8,38.5,7.8z M41.5,38.8
			c0,1.7-1.3,3-3,3h-26c-1.6,0-3-1.3-3-3v-26c0-0.4,0.1-0.8,0.2-1.2c0.1-0.2,0.2-0.3,0.3-0.5c0.2-0.3,0.5-0.6,0.8-0.8
			c0.5-0.3,1.1-0.5,1.7-0.5h26c0.6,0,1.2,0.2,1.7,0.5c0.3,0.2,0.6,0.5,0.8,0.8c0.1,0.2,0.2,0.3,0.3,0.5c0.2,0.4,0.2,0.8,0.2,1.2
			V38.8z"/>
		<path d="M25.5,20.3l4.7,3.6l0.6-0.8l-4.9-3.8l4.8-4L30,14.4l-5,4.2l-5.1-4l-0.6,0.8l4.9,3.8l-4.8,4l0.6,0.8l4.5-3.7v9.4h-11
			l11.5,8l11.5-8h-11V20.3z M33.5,30.8L25,36.5l-8.5-5.7H33.5z"/>
	</g>
	<g>
		<g>
			<polygon class="st1" points="24,35.5 32.5,29.8 15.5,29.8 			"/>
			<path class="st1" d="M40,10.1c-0.2-0.3-0.5-0.6-0.8-0.8c-0.5-0.3-1.1-0.5-1.7-0.5h-26c-0.6,0-1.2,0.2-1.7,0.5
				C9.5,9.5,9.2,9.8,9,10.1c-0.1,0.2-0.2,0.3-0.3,0.5c-0.2,0.4-0.2,0.8-0.2,1.2v26c0,1.7,1.4,3,3,3h26c1.7,0,3-1.3,3-3v-26
				c0-0.4-0.1-0.8-0.2-1.2C40.2,10.4,40.1,10.2,40,10.1z M24,36.8l-11.5-8h11v-9.4L19,23.1l-0.6-0.8l4.8-4l-4.9-3.8l0.6-0.8l5.1,4
				l5-4.2l0.6,0.8l-4.8,4l4.9,3.8l-0.6,0.8l-4.7-3.6v9.5h11L24,36.8z"/>
			<g>
				<path class="st2" d="M37.5,6.8h-26c-2.8,0-5,2.2-5,5v26c0,2.8,2.2,5,5,5h26c2.8,0,5-2.2,5-5v-26C42.5,9,40.3,6.8,37.5,6.8z
					 M40.5,37.8c0,1.7-1.3,3-3,3h-26c-1.6,0-3-1.3-3-3v-26c0-0.4,0.1-0.8,0.2-1.2c0.1-0.2,0.2-0.3,0.3-0.5c0.2-0.3,0.5-0.6,0.8-0.8
					c0.5-0.3,1.1-0.5,1.7-0.5h26c0.6,0,1.2,0.2,1.7,0.5c0.3,0.2,0.6,0.5,0.8,0.8c0.1,0.2,0.2,0.3,0.3,0.5c0.2,0.4,0.2,0.8,0.2,1.2
					V37.8z"/>
			</g>
			<path class="st2" d="M24.5,19.3l4.7,3.6l0.6-0.8l-4.9-3.8l4.8-4L29,13.4l-5,4.2l-5.1-4l-0.6,0.8l4.9,3.8l-4.8,4l0.6,0.8l4.5-3.7
				v9.4h-11l11.5,8l11.5-8h-11V19.3z M32.5,29.8L24,35.5l-8.5-5.7H32.5z"/>
		</g>
	</g>
</g>
</svg>
