<?xml version="1.0" encoding="utf-8"?>
<!-- Generator: Adobe Illustrator 21.0.2, SVG Export Plug-In . SVG Version: 6.00 Build 0)  -->
<svg version="1.1" id="图层_1" xmlns="http://www.w3.org/2000/svg" xmlns:xlink="http://www.w3.org/1999/xlink" x="0px" y="0px"
	 viewBox="0 0 50 50" style="enable-background:new 0 0 50 50;" xml:space="preserve">
<style type="text/css">
	.st0{opacity:0.2;}
	.st1{fill:#FFFFFF;}
	.st2{fill:#F93E54;}
</style>
<g>
	<g class="st0">
		<path d="M41.5,38.5v-26c0-0.8-0.3-1.6-0.9-2.1c-0.4-0.4-0.9-0.7-1.5-0.8c-0.2,0-0.4-0.1-0.6-0.1h-26c-1.7,0-3,1.3-3,3v26
			c0,0.7,0.3,1.4,0.7,1.9c0.1,0.1,0.3,0.3,0.4,0.4c0.5,0.4,1.2,0.7,1.9,0.7h26c0.2,0,0.4,0,0.6-0.1C40.5,41.2,41.5,39.9,41.5,38.5z
			 M36,33H15V18h21V33z"/>
		<polygon points="34.8,32 35,32 35,19 16.2,19 		"/>
		<path d="M38.5,7.5h-26c-2.8,0-5,2.2-5,5v26c0,2.8,2.2,5,5,5h26c2.8,0,5-2.2,5-5v-26C43.5,9.7,41.3,7.5,38.5,7.5z M41.5,38.5
			c0,1.4-1,2.7-2.4,2.9c-0.2,0-0.4,0.1-0.6,0.1h0h-26c-0.7,0-1.4-0.3-1.9-0.7c-0.1-0.1-0.3-0.3-0.4-0.4c-0.4-0.5-0.7-1.2-0.7-1.9
			v-26c0-1.7,1.3-3,3-3h26h0c0.2,0,0.4,0,0.6,0.1c0.6,0.1,1.1,0.4,1.5,0.8c0.5,0.5,0.9,1.3,0.9,2.1V38.5z"/>
		<path d="M15,33h21V18H15V33z M35,32h-0.2L16.2,19H35V32z"/>
	</g>
	<g>
		<g>
			<path class="st1" d="M40.5,37.5v-26c0-0.8-0.3-1.6-0.9-2.1c-0.4-0.4-0.9-0.7-1.5-0.8c-0.2,0-0.4-0.1-0.6-0.1h-26
				c-1.7,0-3,1.3-3,3v26c0,0.7,0.3,1.4,0.7,1.9c0.1,0.1,0.3,0.3,0.4,0.4c0.5,0.4,1.2,0.7,1.9,0.7h26c0.2,0,0.4,0,0.6-0.1
				C39.5,40.2,40.5,38.9,40.5,37.5z M35,32H14V17h21V32z"/>
			<polygon class="st1" points="33.8,31 34,31 34,18 15.2,18 			"/>
			<path class="st2" d="M37.5,6.5h-26c-2.8,0-5,2.2-5,5v26c0,2.8,2.2,5,5,5h26c2.8,0,5-2.2,5-5v-26C42.5,8.7,40.3,6.5,37.5,6.5z
				 M40.5,37.5c0,1.4-1,2.7-2.4,2.9c-0.2,0-0.4,0.1-0.6,0.1h0h-26c-0.7,0-1.4-0.3-1.9-0.7c-0.1-0.1-0.3-0.3-0.4-0.4
				c-0.4-0.5-0.7-1.2-0.7-1.9v-26c0-1.7,1.3-3,3-3h26h0c0.2,0,0.4,0,0.6,0.1c0.6,0.1,1.1,0.4,1.5,0.8c0.5,0.5,0.9,1.3,0.9,2.1V37.5z
				"/>
			<path class="st2" d="M14,32h21V17H14V32z M34,31h-0.2L15.2,18H34V31z"/>
		</g>
	</g>
</g>
</svg>
