<?xml version="1.0" encoding="utf-8"?>
<!-- Generator: Adobe Illustrator 21.0.2, SVG Export Plug-In . SVG Version: 6.00 Build 0)  -->
<svg version="1.1" id="图层_1" xmlns="http://www.w3.org/2000/svg" xmlns:xlink="http://www.w3.org/1999/xlink" x="0px" y="0px"
	 viewBox="0 0 50 50" style="enable-background:new 0 0 50 50;" xml:space="preserve">
<style type="text/css">
	.st0{opacity:0.2;}
	.st1{fill:#FFFFFF;}
	.st2{fill:#F93E54;}
</style>
<g>
	<g class="st0">
		<path d="M29.8,27.8c-1.4,0-3-0.5-4.8-1.7c-5.2-3.7-8.7-1.1-9.5-0.4c0.1,5.5,4.5,9.8,10,9.8c5.5,0,10-4.5,10-10c0-0.1,0-0.2,0-0.2
			C34.3,26.2,32.4,27.8,29.8,27.8z"/>
		<path d="M25.5,25.3c4.6,3.3,7.6,0.7,9.4-0.8c0.2-0.1,0.3-0.3,0.5-0.4c-0.7-4.8-4.9-8.5-9.9-8.5c-5.1,0-9.4,3.9-9.9,8.9
			C17.2,23.4,20.8,21.9,25.5,25.3z"/>
		<path d="M38.5,9.5h-26c-1.6,0-3,1.3-3,3v26c0,1.7,1.4,3,3,3h26c1.7,0,3-1.3,3-3v-26C41.5,10.8,40.2,9.5,38.5,9.5z M25.5,36.5
			c-6.1,0-11-4.9-11-11s4.9-11,11-11s11,4.9,11,11S31.6,36.5,25.5,36.5z"/>
		<path d="M38.5,7.5h-26c-2.8,0-5,2.2-5,5v26c0,2.8,2.2,5,5,5h26c2.8,0,5-2.2,5-5v-26C43.5,9.7,41.3,7.5,38.5,7.5z M41.5,38.5
			c0,1.7-1.3,3-3,3h-26c-1.6,0-3-1.3-3-3v-26c0-1.7,1.4-3,3-3h26c1.7,0,3,1.3,3,3V38.5z"/>
		<path d="M25.5,14.5c-6.1,0-11,4.9-11,11s4.9,11,11,11s11-4.9,11-11S31.6,14.5,25.5,14.5z M25.5,15.5c5,0,9.2,3.7,9.9,8.5
			c-0.1,0.1-0.3,0.2-0.5,0.4c-1.8,1.5-4.8,4.1-9.4,0.8c-4.7-3.4-8.4-1.9-10-0.9C16.1,19.4,20.4,15.5,25.5,15.5z M25.5,35.5
			c-5.5,0-9.9-4.4-10-9.8c0.8-0.7,4.3-3.2,9.5,0.4c1.8,1.3,3.4,1.7,4.8,1.7c2.6,0,4.5-1.6,5.7-2.6c0,0.1,0,0.2,0,0.2
			C35.5,31,31,35.5,25.5,35.5z"/>
	</g>
	<g>
		<g>
			<path class="st1" d="M28.8,26.8c-1.4,0-3-0.5-4.8-1.7c-5.2-3.7-8.7-1.1-9.5-0.4c0.1,5.5,4.5,9.8,10,9.8c5.5,0,10-4.5,10-10
				c0-0.1,0-0.2,0-0.2C33.3,25.2,31.4,26.8,28.8,26.8z"/>
			<path class="st1" d="M24.5,24.3c4.6,3.3,7.6,0.7,9.4-0.8c0.2-0.1,0.3-0.3,0.5-0.4c-0.7-4.8-4.9-8.5-9.9-8.5
				c-5.1,0-9.4,3.9-9.9,8.9C16.2,22.4,19.8,20.9,24.5,24.3z"/>
			<path class="st1" d="M37.5,8.5h-26c-1.6,0-3,1.3-3,3v26c0,1.7,1.4,3,3,3h26c1.7,0,3-1.3,3-3v-26C40.5,9.8,39.2,8.5,37.5,8.5z
				 M24.5,35.5c-6.1,0-11-4.9-11-11s4.9-11,11-11s11,4.9,11,11S30.6,35.5,24.5,35.5z"/>
			<path class="st2" d="M37.5,6.5h-26c-2.8,0-5,2.2-5,5v26c0,2.8,2.2,5,5,5h26c2.8,0,5-2.2,5-5v-26C42.5,8.7,40.3,6.5,37.5,6.5z
				 M40.5,37.5c0,1.7-1.3,3-3,3h-26c-1.6,0-3-1.3-3-3v-26c0-1.7,1.4-3,3-3h26c1.7,0,3,1.3,3,3V37.5z"/>
			<path class="st2" d="M24.5,13.5c-6.1,0-11,4.9-11,11s4.9,11,11,11s11-4.9,11-11S30.6,13.5,24.5,13.5z M24.5,14.5
				c5,0,9.2,3.7,9.9,8.5c-0.1,0.1-0.3,0.2-0.5,0.4c-1.8,1.5-4.8,4.1-9.4,0.8c-4.7-3.4-8.4-1.9-10-0.9C15.1,18.4,19.4,14.5,24.5,14.5
				z M24.5,34.5c-5.5,0-9.9-4.4-10-9.8c0.8-0.7,4.3-3.2,9.5,0.4c1.8,1.3,3.4,1.7,4.8,1.7c2.6,0,4.5-1.6,5.7-2.6c0,0.1,0,0.2,0,0.2
				C34.5,30,30,34.5,24.5,34.5z"/>
		</g>
	</g>
</g>
</svg>
