<?xml version="1.0" encoding="utf-8"?>
<!-- Generator: Adobe Illustrator 21.0.2, SVG Export Plug-In . SVG Version: 6.00 Build 0)  -->
<svg version="1.1" id="图层_1" xmlns="http://www.w3.org/2000/svg" xmlns:xlink="http://www.w3.org/1999/xlink" x="0px" y="0px"
	 viewBox="0 0 50 50" style="enable-background:new 0 0 50 50;" xml:space="preserve">
<style type="text/css">
	.st0{opacity:0.2;}
	.st1{fill:#FFFFFF;}
	.st2{fill:#FF6D0C;}
</style>
<g>
	<g class="st0">
		<rect x="12.5" y="25.7" width="13.7" height="7.8"/>
		<polygon points="38.5,18 38.5,17.5 14.9,17.5 14.9,20.4 38.5,20.4 		"/>
		<path d="M41,10.8c-0.2-0.3-0.5-0.6-0.8-0.8c-0.5-0.3-1.1-0.5-1.7-0.5h-26c-0.6,0-1.2,0.2-1.7,0.5c-0.3,0.2-0.6,0.5-0.8,0.8
			c-0.1,0.2-0.2,0.3-0.3,0.5c-0.2,0.4-0.2,0.8-0.2,1.2v26c0,1.7,1.4,3,3,3h26c1.7,0,3-1.3,3-3v-26c0-0.4-0.1-0.8-0.2-1.2
			C41.2,11.2,41.1,11,41,10.8z M37,34.5h-1v-8.8h-3.9v8.8h-1v-8.8h-3.9v8.8h-1H11.5v-9.7h14.7h1h3.9h1H37V34.5z M39.5,18v2.9v0.5
			v1.5v11.7h-1V22.8H14v-1.5v-0.5v-4.4h25.5V18z"/>
		<path d="M38.5,7.5h-26c-2.8,0-5,2.2-5,5v26c0,2.8,2.2,5,5,5h26c2.8,0,5-2.2,5-5v-26C43.5,9.7,41.3,7.5,38.5,7.5z M41.5,38.5
			c0,1.7-1.3,3-3,3h-26c-1.6,0-3-1.3-3-3v-26c0-0.4,0.1-0.8,0.2-1.2c0.1-0.2,0.2-0.3,0.3-0.5c0.2-0.3,0.5-0.6,0.8-0.8
			c0.5-0.3,1.1-0.5,1.7-0.5h26c0.6,0,1.2,0.2,1.7,0.5c0.3,0.2,0.6,0.5,0.8,0.8c0.1,0.2,0.2,0.3,0.3,0.5c0.2,0.4,0.2,0.8,0.2,1.2
			V38.5z"/>
		<path d="M14,20.9v0.5v1.5h24.6v11.7h1V22.8v-1.5v-0.5V18v-1.5H14V20.9z M14.9,17.5h23.6V18v2.4H14.9V17.5z"/>
		<path d="M31.1,24.8h-3.9h-1H11.5v9.7h14.7h1v-8.8h3.9v8.8h1v-8.8H36v8.8h1v-9.7h-4.9H31.1z M26.2,33.5H12.5v-7.8h13.7V33.5z"/>
	</g>
	<g>
		<g>
			<rect x="11.5" y="24.7" class="st1" width="13.7" height="7.8"/>
			<polygon class="st1" points="37.5,17 37.5,16.5 13.9,16.5 13.9,19.4 37.5,19.4 			"/>
			<path class="st1" d="M40,9.8c-0.2-0.3-0.5-0.6-0.8-0.8c-0.5-0.3-1.1-0.5-1.7-0.5h-26c-0.6,0-1.2,0.2-1.7,0.5
				C9.5,9.2,9.2,9.5,9,9.8c-0.1,0.2-0.2,0.3-0.3,0.5c-0.2,0.4-0.2,0.8-0.2,1.2v26c0,1.7,1.4,3,3,3h26c1.7,0,3-1.3,3-3v-26
				c0-0.4-0.1-0.8-0.2-1.2C40.2,10.2,40.1,10,40,9.8z M36,33.5h-1v-8.8h-3.9v8.8h-1v-8.8h-3.9v8.8h-1H10.5v-9.7h14.7h1h3.9h1H36
				V33.5z M38.5,17v2.9v0.5v1.5v11.7h-1V21.8H13v-1.5v-0.5v-4.4h25.5V17z"/>
			<g>
				<path class="st2" d="M37.5,6.5h-26c-2.8,0-5,2.2-5,5v26c0,2.8,2.2,5,5,5h26c2.8,0,5-2.2,5-5v-26C42.5,8.7,40.3,6.5,37.5,6.5z
					 M40.5,37.5c0,1.7-1.3,3-3,3h-26c-1.6,0-3-1.3-3-3v-26c0-0.4,0.1-0.8,0.2-1.2C8.8,10.2,8.9,10,9,9.8C9.2,9.5,9.5,9.2,9.8,9
					c0.5-0.3,1.1-0.5,1.7-0.5h26c0.6,0,1.2,0.2,1.7,0.5c0.3,0.2,0.6,0.5,0.8,0.8c0.1,0.2,0.2,0.3,0.3,0.5c0.2,0.4,0.2,0.8,0.2,1.2
					V37.5z"/>
			</g>
			<path class="st2" d="M13,19.9v0.5v1.5h24.6v11.7h1V21.8v-1.5v-0.5V17v-1.5H13V19.9z M13.9,16.5h23.6V17v2.4H13.9V16.5z"/>
			<path class="st2" d="M30.1,23.8h-3.9h-1H10.5v9.7h14.7h1v-8.8h3.9v8.8h1v-8.8H35v8.8h1v-9.7h-4.9H30.1z M25.2,32.5H11.5v-7.8
				h13.7V32.5z"/>
		</g>
	</g>
</g>
</svg>
