<?xml version="1.0" encoding="utf-8"?>
<!-- Generator: Adobe Illustrator 21.0.2, SVG Export Plug-In . SVG Version: 6.00 Build 0)  -->
<svg version="1.1" id="图层_1" xmlns="http://www.w3.org/2000/svg" xmlns:xlink="http://www.w3.org/1999/xlink" x="0px" y="0px"
	 viewBox="0 0 50 50" style="enable-background:new 0 0 50 50;" xml:space="preserve">
<style type="text/css">
	.st0{opacity:0.2;}
	.st1{fill:#FFFFFF;}
	.st2{fill:#F93E54;}
</style>
<g>
	<g class="st0">
		<path d="M25.6,18.6l-0.1,0c-0.7,0-1.1,0.4-1.2,1.1l0,0.1c0,0,0,0.4,0.3,2.5c0.3,2.1,0.6,4.2,0.9,6.2c0.5-2.9,1-5.8,1.4-8.7
			C26.7,19,26.3,18.7,25.6,18.6z"/>
		<path d="M25.5,15.5c-5.5,0-10,4.5-10,10s4.5,10,10,10c5.5,0,10-4.5,10-10S31,15.5,25.5,15.5z M25.5,32.6c-0.6,0-1.1-0.5-1.1-1.1
			c0-0.6,0.5-1.1,1.1-1.1s1.1,0.5,1.1,1.1C26.6,32.1,26.1,32.6,25.5,32.6z M27.3,19.8c-0.4,3.2-0.9,6.4-1.5,9.6l0,0.2h-0.7l0-0.2
			c-0.3-2.3-0.7-4.6-1-7c-0.3-2.2-0.3-2.6-0.2-2.7c0.1-0.9,0.7-1.5,1.7-1.5l0.2,0C26.6,18.2,27.2,18.7,27.3,19.8L27.3,19.8
			L27.3,19.8z"/>
		<path d="M41.5,12.5c0-0.8-0.3-1.6-0.9-2.1c-0.4-0.4-0.9-0.7-1.5-0.8c-0.2,0-0.4-0.1-0.6-0.1h-26c-1.7,0-3,1.4-3,3v26
			c0,1.7,1.3,3,3,3h26c0.2,0,0.4,0,0.6-0.1c0.6-0.1,1.1-0.4,1.5-0.8c0.5-0.5,0.9-1.3,0.9-2.1V12.5z M25.5,36.5c-6.1,0-11-4.9-11-11
			s4.9-11,11-11s11,4.9,11,11S31.6,36.5,25.5,36.5z"/>
		<path d="M38.5,7.5h-26c-2.8,0-5,2.2-5,5v26c0,2.8,2.2,5,5,5h26c2.8,0,5-2.2,5-5v-26C43.5,9.7,41.3,7.5,38.5,7.5z M41.5,38.5
			c0,0.8-0.3,1.6-0.9,2.1c-0.4,0.4-0.9,0.7-1.5,0.8c-0.2,0-0.4,0.1-0.6,0.1h0h-26c-1.7,0-3-1.3-3-3v-26c0-1.6,1.3-3,3-3h26h0
			c0.2,0,0.4,0,0.6,0.1c0.6,0.1,1.1,0.4,1.5,0.8c0.5,0.5,0.9,1.3,0.9,2.1V38.5z"/>
		<path d="M25.5,14.5c-6.1,0-11,4.9-11,11s4.9,11,11,11s11-4.9,11-11S31.6,14.5,25.5,14.5z M25.5,35.5c-5.5,0-10-4.5-10-10
			s4.5-10,10-10c5.5,0,10,4.5,10,10S31,35.5,25.5,35.5z"/>
		<path d="M25.6,18.1l-0.2,0c-1,0.1-1.5,0.6-1.7,1.5c0,0.1-0.1,0.5,0.2,2.7c0.4,2.4,0.7,4.7,1,7l0,0.2h0.7l0-0.2
			c0.6-3.2,1.1-6.4,1.5-9.6l0,0l0,0C27.2,18.7,26.6,18.2,25.6,18.1z M25.4,28.5c-0.3-2-0.6-4.1-0.9-6.2c-0.3-2.1-0.3-2.5-0.3-2.5
			l0-0.1c0.1-0.7,0.5-1.1,1.2-1.1l0.1,0c0.7,0,1.1,0.4,1.2,1.2C26.4,22.7,25.9,25.6,25.4,28.5z"/>
		<circle cx="25.5" cy="31.5" r="1.1"/>
	</g>
	<g>
		<g>
			<path class="st1" d="M24.6,17.6l-0.1,0c-0.7,0-1.1,0.4-1.2,1.1l0,0.1c0,0,0,0.4,0.3,2.5c0.3,2.1,0.6,4.2,0.9,6.2
				c0.5-2.9,1-5.8,1.4-8.7C25.7,18,25.3,17.7,24.6,17.6z"/>
			<path class="st1" d="M24.5,14.5c-5.5,0-10,4.5-10,10s4.5,10,10,10c5.5,0,10-4.5,10-10S30,14.5,24.5,14.5z M24.5,31.6
				c-0.6,0-1.1-0.5-1.1-1.1c0-0.6,0.5-1.1,1.1-1.1s1.1,0.5,1.1,1.1C25.6,31.1,25.1,31.6,24.5,31.6z M26.3,18.8
				c-0.4,3.2-0.9,6.4-1.5,9.6l0,0.2h-0.7l0-0.2c-0.3-2.3-0.7-4.6-1-7c-0.3-2.2-0.3-2.6-0.2-2.7c0.1-0.9,0.7-1.5,1.7-1.5l0.2,0
				C25.6,17.2,26.2,17.7,26.3,18.8L26.3,18.8L26.3,18.8z"/>
			<path class="st1" d="M40.5,11.5c0-0.8-0.3-1.6-0.9-2.1c-0.4-0.4-0.9-0.7-1.5-0.8c-0.2,0-0.4-0.1-0.6-0.1h-26c-1.7,0-3,1.4-3,3v26
				c0,1.7,1.3,3,3,3h26c0.2,0,0.4,0,0.6-0.1c0.6-0.1,1.1-0.4,1.5-0.8c0.5-0.5,0.9-1.3,0.9-2.1V11.5z M24.5,35.5c-6.1,0-11-4.9-11-11
				s4.9-11,11-11s11,4.9,11,11S30.6,35.5,24.5,35.5z"/>
			<path class="st2" d="M37.5,6.5h-26c-2.8,0-5,2.2-5,5v26c0,2.8,2.2,5,5,5h26c2.8,0,5-2.2,5-5v-26C42.5,8.7,40.3,6.5,37.5,6.5z
				 M40.5,37.5c0,0.8-0.3,1.6-0.9,2.1c-0.4,0.4-0.9,0.7-1.5,0.8c-0.2,0-0.4,0.1-0.6,0.1h0h-26c-1.7,0-3-1.3-3-3v-26c0-1.6,1.3-3,3-3
				h26h0c0.2,0,0.4,0,0.6,0.1c0.6,0.1,1.1,0.4,1.5,0.8c0.5,0.5,0.9,1.3,0.9,2.1V37.5z"/>
			<path class="st2" d="M24.5,13.5c-6.1,0-11,4.9-11,11s4.9,11,11,11s11-4.9,11-11S30.6,13.5,24.5,13.5z M24.5,34.5
				c-5.5,0-10-4.5-10-10s4.5-10,10-10c5.5,0,10,4.5,10,10S30,34.5,24.5,34.5z"/>
			<path class="st2" d="M24.6,17.1l-0.2,0c-1,0.1-1.5,0.6-1.7,1.5c0,0.1-0.1,0.5,0.2,2.7c0.4,2.4,0.7,4.7,1,7l0,0.2h0.7l0-0.2
				c0.6-3.2,1.1-6.4,1.5-9.6l0,0l0,0C26.2,17.7,25.6,17.2,24.6,17.1z M24.4,27.5c-0.3-2-0.6-4.1-0.9-6.2c-0.3-2.1-0.3-2.5-0.3-2.5
				l0-0.1c0.1-0.7,0.5-1.1,1.2-1.1l0.1,0c0.7,0,1.1,0.4,1.2,1.2C25.4,21.7,24.9,24.6,24.4,27.5z"/>
			<circle class="st2" cx="24.5" cy="30.5" r="1.1"/>
		</g>
	</g>
</g>
</svg>
