<?xml version="1.0" encoding="utf-8"?>
<!-- Generator: Adobe Illustrator 21.0.2, SVG Export Plug-In . SVG Version: 6.00 Build 0)  -->
<svg version="1.1" id="图层_1" xmlns="http://www.w3.org/2000/svg" xmlns:xlink="http://www.w3.org/1999/xlink" x="0px" y="0px"
	 viewBox="0 0 50 50" style="enable-background:new 0 0 50 50;" xml:space="preserve">
<style type="text/css">
	.st0{opacity:0.2;}
	.st1{fill:#FFFFFF;}
	.st2{fill:#F93E54;}
</style>
<g>
	<g class="st0">
		<path d="M40.2,10c-0.2-0.1-0.3-0.2-0.5-0.3c-0.4-0.2-0.8-0.2-1.2-0.2h-26c-1.7,0-3,1.4-3,3v26c0,1.7,1.3,3,3,3h26
			c0.4,0,0.8-0.1,1.2-0.2c0.2-0.1,0.3-0.2,0.5-0.3c0.3-0.2,0.6-0.5,0.8-0.8c0.3-0.5,0.5-1.1,0.5-1.7v-26c0-0.6-0.2-1.2-0.5-1.7
			C40.8,10.5,40.5,10.2,40.2,10z M19.5,30.5c-2.8,0-5-2.2-5-5s2.2-5,5-5s5,2.2,5,5S22.3,30.5,19.5,30.5z M31.1,24.9
			c0,0.2,0,0.3,0,0.4c-0.2,0.1-0.7,0.4-1.6,0.8v3.9c0,0.2,0,0.4,0.1,0.7c0,0,0,0.1,0,0.1h-0.6c0,0,0-0.1,0-0.2c0-0.4,0-0.5,0-0.6
			v-3.7c-1,0.5-1.7,0.9-2.1,1.1l-0.2-0.6c0.1,0,0.9-0.3,2.3-1v-2.5h-1.4c-0.2,0.6-0.4,1.1-0.7,1.5c-0.1-0.1-0.3-0.1-0.6-0.2
			c0.5-0.5,0.9-1.6,1.3-3.2l0.7,0.2c-0.2,0-0.4,0.5-0.6,1.3H29v-2.2c0-0.2,0-0.5-0.1-0.8h0.6c0,0.3-0.1,0.6-0.1,0.8v2.2h0.7
			c0.3,0,0.5,0,0.8-0.1v0.5c-0.2,0-0.5-0.1-0.8-0.1h-0.7v2.3c0.9-0.4,1.5-0.8,1.6-0.9C31.1,24.6,31.1,24.7,31.1,24.9z M33.1,28.9
			c-0.4-0.6-1-1.1-1.6-1.4l0.4-0.4c0.6,0.5,1.2,1,1.7,1.4L33.1,28.9z M37.3,26.4c-0.3,0-0.5-0.1-0.8-0.1h-0.9v3
			c0,0.5-0.1,0.8-0.3,0.9c-0.2,0.1-0.7,0.2-1.6,0.3c0-0.3-0.1-0.5-0.2-0.7c0.2,0.1,0.6,0.1,0.9,0.1c0.5,0,0.7-0.1,0.7-0.5
			c0-0.1,0-0.1,0-0.1v-3H32c-0.3,0-0.6,0-0.8,0.1v-0.6c0.2,0,0.5,0.1,0.8,0.1h3.2v-0.8c0-0.3,0-0.5-0.1-0.8h0.6
			c0,0.3-0.1,0.5-0.1,0.8V26h0.9c0.3,0,0.5,0,0.8-0.1V26.4z M37.6,24.2c-0.2-0.1-0.5-0.1-0.8-0.1h-5.2c-0.3,0-0.5,0-0.8,0.1v-0.5
			c0.3,0,0.5,0.1,0.8,0.1h2v-1.8h-1.6c-0.3,0-0.5,0-0.8,0.1v-0.5c0.3,0,0.5,0.1,0.8,0.1h1.6v-1.1c0-0.3,0-0.5-0.1-0.8h0.6
			c0,0.3-0.1,0.5-0.1,0.8v1.1h1.8c0.3,0,0.5,0,0.8-0.1v0.5c-0.2,0-0.5-0.1-0.8-0.1h-1.8v1.8h2.7c0.4,0,0.6,0,0.8-0.1V24.2z"/>
		<circle cx="19.5" cy="25.5" r="4"/>
		<path d="M38.5,7.5h-26c-2.8,0-5,2.2-5,5v26c0,2.8,2.2,5,5,5h26c2.8,0,5-2.2,5-5v-26C43.5,9.7,41.3,7.5,38.5,7.5z M41.5,38.5
			c0,0.6-0.2,1.2-0.5,1.7c-0.2,0.3-0.5,0.6-0.8,0.8c-0.2,0.1-0.3,0.2-0.5,0.3c-0.4,0.2-0.8,0.2-1.2,0.2h-26c-1.7,0-3-1.3-3-3v-26
			c0-1.6,1.3-3,3-3h26c0.4,0,0.8,0.1,1.2,0.2c0.2,0.1,0.3,0.2,0.5,0.3c0.3,0.2,0.6,0.5,0.8,0.8c0.3,0.5,0.5,1.1,0.5,1.7V38.5z"/>
		<path d="M19.5,20.5c-2.8,0-5,2.2-5,5s2.2,5,5,5s5-2.2,5-5S22.3,20.5,19.5,20.5z M19.5,29.5c-2.2,0-4-1.8-4-4c0-2.2,1.8-4,4-4
			s4,1.8,4,4C23.5,27.7,21.7,29.5,19.5,29.5z"/>
		<path d="M29.4,23.2h0.7c0.3,0,0.5,0,0.8,0.1v-0.5c-0.2,0-0.5,0.1-0.8,0.1h-0.7v-2.2c0-0.2,0-0.5,0.1-0.8h-0.6
			c0,0.3,0.1,0.6,0.1,0.8v2.2h-1.3c0.2-0.8,0.4-1.2,0.6-1.3l-0.7-0.2c-0.3,1.7-0.8,2.7-1.3,3.2c0.3,0,0.5,0.1,0.6,0.2
			c0.2-0.4,0.4-0.9,0.7-1.5H29v2.5c-1.4,0.7-2.2,1-2.3,1l0.2,0.6c0.4-0.3,1.1-0.6,2.1-1.1v3.7c0,0,0,0.2,0,0.6c0,0.1,0,0.2,0,0.2
			h0.6c0,0,0,0,0-0.1c0-0.3-0.1-0.5-0.1-0.7V26c0.8-0.4,1.4-0.6,1.6-0.8c0-0.1,0-0.2,0-0.4c0-0.2,0-0.3,0-0.3
			c-0.2,0.2-0.7,0.5-1.6,0.9V23.2z"/>
		<path d="M31.5,27.5c0.6,0.4,1.2,0.9,1.6,1.4l0.4-0.4c-0.5-0.4-1-0.9-1.7-1.4L31.5,27.5z"/>
		<path d="M35.6,26v-0.8c0-0.2,0-0.5,0.1-0.8h-0.6c0,0.3,0.1,0.5,0.1,0.8V26H32c-0.3,0-0.6,0-0.8-0.1v0.6c0.2-0.1,0.5-0.1,0.8-0.1
			h3.2v3c0,0,0,0.1,0,0.1c0,0.3-0.2,0.5-0.7,0.5c-0.4,0-0.7,0-0.9-0.1c0.1,0.2,0.2,0.4,0.2,0.7c0.9,0,1.4-0.1,1.6-0.3
			c0.2-0.1,0.3-0.4,0.3-0.9v-3h0.9c0.3,0,0.5,0,0.8,0.1v-0.5c-0.3,0-0.5,0.1-0.8,0.1H35.6z"/>
		<path d="M34.1,23.7v-1.8h1.8c0.3,0,0.5,0,0.8,0.1v-0.5c-0.2,0-0.5,0.1-0.8,0.1h-1.8v-1.1c0-0.2,0-0.5,0.1-0.8h-0.6
			c0,0.3,0.1,0.5,0.1,0.8v1.1h-1.6c-0.2,0-0.5,0-0.8-0.1v0.5c0.3,0,0.5-0.1,0.8-0.1h1.6v1.8h-2c-0.3,0-0.5,0-0.8-0.1v0.5
			c0.3,0,0.5-0.1,0.8-0.1h5.2c0.3,0,0.5,0,0.8,0.1v-0.6c-0.1,0-0.4,0.1-0.8,0.1H34.1z"/>
	</g>
	<g>
		<g>
			<path class="st1" d="M39.2,9c-0.2-0.1-0.3-0.2-0.5-0.3c-0.4-0.2-0.8-0.2-1.2-0.2h-26c-1.7,0-3,1.4-3,3v26c0,1.7,1.3,3,3,3h26
				c0.4,0,0.8-0.1,1.2-0.2c0.2-0.1,0.3-0.2,0.5-0.3c0.3-0.2,0.6-0.5,0.8-0.8c0.3-0.5,0.5-1.1,0.5-1.7v-26c0-0.6-0.2-1.2-0.5-1.7
				C39.8,9.5,39.5,9.2,39.2,9z M18.5,29.5c-2.8,0-5-2.2-5-5s2.2-5,5-5s5,2.2,5,5S21.3,29.5,18.5,29.5z M30.1,23.9c0,0.2,0,0.3,0,0.4
				c-0.2,0.1-0.7,0.4-1.6,0.8v3.9c0,0.2,0,0.4,0.1,0.7c0,0,0,0.1,0,0.1h-0.6c0,0,0-0.1,0-0.2c0-0.4,0-0.5,0-0.6v-3.7
				c-1,0.5-1.7,0.9-2.1,1.1l-0.2-0.6c0.1,0,0.9-0.3,2.3-1v-2.5h-1.4c-0.2,0.6-0.4,1.1-0.7,1.5c-0.1-0.1-0.3-0.1-0.6-0.2
				c0.5-0.5,0.9-1.6,1.3-3.2l0.7,0.2c-0.2,0-0.4,0.5-0.6,1.3H28v-2.2c0-0.2,0-0.5-0.1-0.8h0.6c0,0.3-0.1,0.6-0.1,0.8v2.2h0.7
				c0.3,0,0.5,0,0.8-0.1v0.5c-0.2,0-0.5-0.1-0.8-0.1h-0.7v2.3c0.9-0.4,1.5-0.8,1.6-0.9C30.1,23.6,30.1,23.7,30.1,23.9z M32.1,27.9
				c-0.4-0.6-1-1.1-1.6-1.4l0.4-0.4c0.6,0.5,1.2,1,1.7,1.4L32.1,27.9z M36.3,25.4c-0.3,0-0.5-0.1-0.8-0.1h-0.9v3
				c0,0.5-0.1,0.8-0.3,0.9c-0.2,0.1-0.7,0.2-1.6,0.3c0-0.3-0.1-0.5-0.2-0.7c0.2,0.1,0.6,0.1,0.9,0.1c0.5,0,0.7-0.1,0.7-0.5
				c0-0.1,0-0.1,0-0.1v-3H31c-0.3,0-0.6,0-0.8,0.1v-0.6c0.2,0,0.5,0.1,0.8,0.1h3.2v-0.8c0-0.3,0-0.5-0.1-0.8h0.6
				c0,0.3-0.1,0.5-0.1,0.8V25h0.9c0.3,0,0.5,0,0.8-0.1V25.4z M36.6,23.2c-0.2-0.1-0.5-0.1-0.8-0.1h-5.2c-0.3,0-0.5,0-0.8,0.1v-0.5
				c0.3,0,0.5,0.1,0.8,0.1h2v-1.8h-1.6c-0.3,0-0.5,0-0.8,0.1v-0.5c0.3,0,0.5,0.1,0.8,0.1h1.6v-1.1c0-0.3,0-0.5-0.1-0.8h0.6
				c0,0.3-0.1,0.5-0.1,0.8v1.1h1.8c0.3,0,0.5,0,0.8-0.1v0.5c-0.2,0-0.5-0.1-0.8-0.1h-1.8v1.8h2.7c0.4,0,0.6,0,0.8-0.1V23.2z"/>
			<circle class="st1" cx="18.5" cy="24.5" r="4"/>
			<path class="st2" d="M37.5,6.5h-26c-2.8,0-5,2.2-5,5v26c0,2.8,2.2,5,5,5h26c2.8,0,5-2.2,5-5v-26C42.5,8.7,40.3,6.5,37.5,6.5z
				 M40.5,37.5c0,0.6-0.2,1.2-0.5,1.7c-0.2,0.3-0.5,0.6-0.8,0.8c-0.2,0.1-0.3,0.2-0.5,0.3c-0.4,0.2-0.8,0.2-1.2,0.2h-26
				c-1.7,0-3-1.3-3-3v-26c0-1.6,1.3-3,3-3h26c0.4,0,0.8,0.1,1.2,0.2C38.8,8.8,39,8.9,39.2,9c0.3,0.2,0.6,0.5,0.8,0.8
				c0.3,0.5,0.5,1.1,0.5,1.7V37.5z"/>
			<path class="st2" d="M18.5,19.5c-2.8,0-5,2.2-5,5s2.2,5,5,5s5-2.2,5-5S21.3,19.5,18.5,19.5z M18.5,28.5c-2.2,0-4-1.8-4-4
				c0-2.2,1.8-4,4-4s4,1.8,4,4C22.5,26.7,20.7,28.5,18.5,28.5z"/>
			<path class="st2" d="M28.4,22.2h0.7c0.3,0,0.5,0,0.8,0.1v-0.5c-0.2,0-0.5,0.1-0.8,0.1h-0.7v-2.2c0-0.2,0-0.5,0.1-0.8h-0.6
				c0,0.3,0.1,0.6,0.1,0.8v2.2h-1.3c0.2-0.8,0.4-1.2,0.6-1.3l-0.7-0.2c-0.3,1.7-0.8,2.7-1.3,3.2c0.3,0,0.5,0.1,0.6,0.2
				c0.2-0.4,0.4-0.9,0.7-1.5H28v2.5c-1.4,0.7-2.2,1-2.3,1l0.2,0.6c0.4-0.3,1.1-0.6,2.1-1.1v3.7c0,0,0,0.2,0,0.6c0,0.1,0,0.2,0,0.2
				h0.6c0,0,0,0,0-0.1c0-0.3-0.1-0.5-0.1-0.7V25c0.8-0.4,1.4-0.6,1.6-0.8c0-0.1,0-0.2,0-0.4c0-0.2,0-0.3,0-0.3
				c-0.2,0.2-0.7,0.5-1.6,0.9V22.2z"/>
			<path class="st2" d="M30.5,26.5c0.6,0.4,1.2,0.9,1.6,1.4l0.4-0.4c-0.5-0.4-1-0.9-1.7-1.4L30.5,26.5z"/>
			<path class="st2" d="M34.6,25v-0.8c0-0.2,0-0.5,0.1-0.8h-0.6c0,0.3,0.1,0.5,0.1,0.8V25H31c-0.3,0-0.6,0-0.8-0.1v0.6
				c0.2-0.1,0.5-0.1,0.8-0.1h3.2v3c0,0,0,0.1,0,0.1c0,0.3-0.2,0.5-0.7,0.5c-0.4,0-0.7,0-0.9-0.1c0.1,0.2,0.2,0.4,0.2,0.7
				c0.9,0,1.4-0.1,1.6-0.3c0.2-0.1,0.3-0.4,0.3-0.9v-3h0.9c0.3,0,0.5,0,0.8,0.1v-0.5c-0.3,0-0.5,0.1-0.8,0.1H34.6z"/>
			<path class="st2" d="M33.1,22.7v-1.8h1.8c0.3,0,0.5,0,0.8,0.1v-0.5c-0.2,0-0.5,0.1-0.8,0.1h-1.8v-1.1c0-0.2,0-0.5,0.1-0.8h-0.6
				c0,0.3,0.1,0.5,0.1,0.8v1.1h-1.6c-0.2,0-0.5,0-0.8-0.1v0.5c0.3,0,0.5-0.1,0.8-0.1h1.6v1.8h-2c-0.3,0-0.5,0-0.8-0.1v0.5
				c0.3,0,0.5-0.1,0.8-0.1h5.2c0.3,0,0.5,0,0.8,0.1v-0.6c-0.1,0-0.4,0.1-0.8,0.1H33.1z"/>
		</g>
	</g>
</g>
</svg>
