<?xml version="1.0" encoding="utf-8"?>
<!-- Generator: Adobe Illustrator 21.0.2, SVG Export Plug-In . SVG Version: 6.00 Build 0)  -->
<svg version="1.1" id="图层_1" xmlns="http://www.w3.org/2000/svg" xmlns:xlink="http://www.w3.org/1999/xlink" x="0px" y="0px"
	 viewBox="0 0 50 50" style="enable-background:new 0 0 50 50;" xml:space="preserve">
<style type="text/css">
	.st0{opacity:0.2;}
	.st1{fill:#FFFFFF;}
	.st2{fill:#22AC38;}
</style>
<g>
	<g class="st0">
		<path d="M38.5,9.5h-26c-0.4,0-0.8,0.1-1.2,0.2C11.2,9.8,11,9.9,10.8,10c-0.3,0.2-0.6,0.5-0.8,0.8c-0.3,0.5-0.5,1.1-0.5,1.7v26
			c0,0.6,0.2,1.2,0.5,1.7c0.2,0.3,0.5,0.6,0.8,0.8c0.2,0.1,0.3,0.2,0.5,0.3c0.4,0.2,0.8,0.2,1.2,0.2h26c1.7,0,3-1.4,3-3v-26
			C41.5,10.8,40.2,9.5,38.5,9.5z M33.4,22.5c0,0,2.1,2.3-1,5.8c0,0-0.5-6.6-5.2-5.8c0,0,2.4,4.4,3.1,10.3c0,0,2.5-0.1,3,0.3
			c0,0-2.1,2-3.3,1.9c0,0-0.6-0.8-3.1-0.8L25.5,33l1.8-0.5c0,0,0.4-5-2.5-9.6c0,0-3.9,0.8-4.9,6c0,0-2.2-6.2,1.5-7.3
			c0,0,0.7-1.6-4.5-0.8c0,0,4.2-3.2,7-1.8c0,0,1.6,0.2-0.8-2.6c0,0,2.8-1.1,4.7,0c0,0-1.5,1-0.8,1.2c0,0,5-1.8,7.3,2.6
			c0,0-3.8-2.3-6,0.1C28.2,20.3,32.4,20.8,33.4,22.5z"/>
		<path d="M38.5,7.5h-26c-2.8,0-5,2.2-5,5v26c0,2.8,2.2,5,5,5h26c2.8,0,5-2.2,5-5v-26C43.5,9.7,41.3,7.5,38.5,7.5z M41.5,38.5
			c0,1.6-1.3,3-3,3h-26c-0.4,0-0.8-0.1-1.2-0.2c-0.2-0.1-0.3-0.2-0.5-0.3c-0.3-0.2-0.6-0.5-0.8-0.8c-0.3-0.5-0.5-1.1-0.5-1.7v-26
			c0-0.6,0.2-1.2,0.5-1.7c0.2-0.3,0.5-0.6,0.8-0.8c0.2-0.1,0.3-0.2,0.5-0.3c0.4-0.2,0.8-0.2,1.2-0.2h26c1.7,0,3,1.3,3,3V38.5z"/>
		<path d="M34.2,20.2c-2.3-4.4-7.3-2.6-7.3-2.6c-0.6-0.2,0.8-1.2,0.8-1.2c-1.9-1.1-4.7,0-4.7,0c2.4,2.8,0.8,2.6,0.8,2.6
			c-2.8-1.5-7,1.8-7,1.8c5.2-0.8,4.5,0.8,4.5,0.8c-3.7,1.1-1.5,7.3-1.5,7.3c1-5.2,4.9-6,4.9-6c2.9,4.6,2.5,9.6,2.5,9.6L25.5,33
			l1.4,1.2C29.4,34.2,30,35,30,35c1.2,0.1,3.3-1.9,3.3-1.9c-0.5-0.4-3-0.3-3-0.3c-0.8-5.8-3.1-10.3-3.1-10.3
			c4.7-0.8,5.2,5.8,5.2,5.8c3.1-3.5,1-5.8,1-5.8c-1-1.7-5.2-2.2-5.2-2.2C30.3,17.9,34.2,20.2,34.2,20.2z"/>
	</g>
	<g>
		<g>
			<path class="st1" d="M37.5,8.5h-26c-0.4,0-0.8,0.1-1.2,0.2C10.2,8.8,10,8.9,9.8,9C9.5,9.2,9.2,9.5,9,9.8
				c-0.3,0.5-0.5,1.1-0.5,1.7v26c0,0.6,0.2,1.2,0.5,1.7c0.2,0.3,0.5,0.6,0.8,0.8c0.2,0.1,0.3,0.2,0.5,0.3c0.4,0.2,0.8,0.2,1.2,0.2
				h26c1.7,0,3-1.4,3-3v-26C40.5,9.8,39.2,8.5,37.5,8.5z M32.4,21.5c0,0,2.1,2.3-1,5.8c0,0-0.5-6.6-5.2-5.8c0,0,2.4,4.4,3.1,10.3
				c0,0,2.5-0.1,3,0.3c0,0-2.1,2-3.3,1.9c0,0-0.6-0.8-3.1-0.8L24.5,32l1.8-0.5c0,0,0.4-5-2.5-9.6c0,0-3.9,0.8-4.9,6
				c0,0-2.2-6.2,1.5-7.3c0,0,0.7-1.6-4.5-0.8c0,0,4.2-3.2,7-1.8c0,0,1.6,0.2-0.8-2.6c0,0,2.8-1.1,4.7,0c0,0-1.5,1-0.8,1.2
				c0,0,5-1.8,7.3,2.6c0,0-3.8-2.3-6,0.1C27.2,19.3,31.4,19.8,32.4,21.5z"/>
			<path class="st2" d="M37.5,6.5h-26c-2.8,0-5,2.2-5,5v26c0,2.8,2.2,5,5,5h26c2.8,0,5-2.2,5-5v-26C42.5,8.7,40.3,6.5,37.5,6.5z
				 M40.5,37.5c0,1.6-1.3,3-3,3h-26c-0.4,0-0.8-0.1-1.2-0.2c-0.2-0.1-0.3-0.2-0.5-0.3c-0.3-0.2-0.6-0.5-0.8-0.8
				c-0.3-0.5-0.5-1.1-0.5-1.7v-26c0-0.6,0.2-1.2,0.5-1.7C9.2,9.5,9.5,9.2,9.8,9c0.2-0.1,0.3-0.2,0.5-0.3c0.4-0.2,0.8-0.2,1.2-0.2h26
				c1.7,0,3,1.3,3,3V37.5z"/>
			<path class="st2" d="M33.2,19.2c-2.3-4.4-7.3-2.6-7.3-2.6c-0.6-0.2,0.8-1.2,0.8-1.2c-1.9-1.1-4.7,0-4.7,0
				c2.4,2.8,0.8,2.6,0.8,2.6c-2.8-1.5-7,1.8-7,1.8c5.2-0.8,4.5,0.8,4.5,0.8c-3.7,1.1-1.5,7.3-1.5,7.3c1-5.2,4.9-6,4.9-6
				c2.9,4.6,2.5,9.6,2.5,9.6L24.5,32l1.4,1.2C28.4,33.2,29,34,29,34c1.2,0.1,3.3-1.9,3.3-1.9c-0.5-0.4-3-0.3-3-0.3
				c-0.8-5.8-3.1-10.3-3.1-10.3c4.7-0.8,5.2,5.8,5.2,5.8c3.1-3.5,1-5.8,1-5.8c-1-1.7-5.2-2.2-5.2-2.2C29.3,16.9,33.2,19.2,33.2,19.2
				z"/>
		</g>
	</g>
</g>
</svg>
