<?xml version="1.0" encoding="utf-8"?>
<!-- Generator: Adobe Illustrator 21.0.2, SVG Export Plug-In . SVG Version: 6.00 Build 0)  -->
<svg version="1.1" id="图层_1" xmlns="http://www.w3.org/2000/svg" xmlns:xlink="http://www.w3.org/1999/xlink" x="0px" y="0px"
	 viewBox="0 0 50 50" style="enable-background:new 0 0 50 50;" xml:space="preserve">
<style type="text/css">
	.st0{opacity:0.2;}
	.st1{fill:#FFFFFF;}
	.st2{fill:#FF6D0C;}
</style>
<g>
	<g class="st0">
		<rect x="16.5" y="16" width="18" height="10"/>
		<path d="M41,10.8c-0.2-0.3-0.5-0.6-0.8-0.8c-0.5-0.3-1.1-0.5-1.7-0.5h-26c-0.6,0-1.2,0.2-1.7,0.5c-0.3,0.2-0.6,0.5-0.8,0.8
			c-0.1,0.2-0.2,0.3-0.3,0.5c-0.2,0.4-0.2,0.8-0.2,1.2v26c0,1.7,1.4,3,3,3h26c1.7,0,3-1.3,3-3v-26c0-0.4-0.1-0.8-0.2-1.2
			C41.2,11.2,41.1,11,41,10.8z M35.5,27H26v8h5.5v1H26h-1h-5.5v-1H25v-8h-9.5V15h20V27z"/>
		<path d="M38.5,7.5h-26c-2.8,0-5,2.2-5,5v26c0,2.8,2.2,5,5,5h26c2.8,0,5-2.2,5-5v-26C43.5,9.7,41.3,7.5,38.5,7.5z M41.5,38.5
			c0,1.7-1.3,3-3,3h-26c-1.6,0-3-1.3-3-3v-26c0-0.4,0.1-0.8,0.2-1.2c0.1-0.2,0.2-0.3,0.3-0.5c0.2-0.3,0.5-0.6,0.8-0.8
			c0.5-0.3,1.1-0.5,1.7-0.5h26c0.6,0,1.2,0.2,1.7,0.5c0.3,0.2,0.6,0.5,0.8,0.8c0.1,0.2,0.2,0.3,0.3,0.5c0.2,0.4,0.2,0.8,0.2,1.2
			V38.5z"/>
		<path d="M15.5,27H25v8h-5.5v1H25h1h5.5v-1H26v-8h9.5V15h-20V27z M16.5,16h18v10h-18V16z"/>
	</g>
	<g>
		<g>
			<rect x="15.5" y="15" class="st1" width="18" height="10"/>
			<path class="st1" d="M40,9.8c-0.2-0.3-0.5-0.6-0.8-0.8c-0.5-0.3-1.1-0.5-1.7-0.5h-26c-0.6,0-1.2,0.2-1.7,0.5
				C9.5,9.2,9.2,9.5,9,9.8c-0.1,0.2-0.2,0.3-0.3,0.5c-0.2,0.4-0.2,0.8-0.2,1.2v26c0,1.7,1.4,3,3,3h26c1.7,0,3-1.3,3-3v-26
				c0-0.4-0.1-0.8-0.2-1.2C40.2,10.2,40.1,10,40,9.8z M34.5,26H25v8h5.5v1H25h-1h-5.5v-1H24v-8h-9.5V14h20V26z"/>
			<g>
				<path class="st2" d="M37.5,6.5h-26c-2.8,0-5,2.2-5,5v26c0,2.8,2.2,5,5,5h26c2.8,0,5-2.2,5-5v-26C42.5,8.7,40.3,6.5,37.5,6.5z
					 M40.5,37.5c0,1.7-1.3,3-3,3h-26c-1.6,0-3-1.3-3-3v-26c0-0.4,0.1-0.8,0.2-1.2C8.8,10.2,8.9,10,9,9.8C9.2,9.5,9.5,9.2,9.8,9
					c0.5-0.3,1.1-0.5,1.7-0.5h26c0.6,0,1.2,0.2,1.7,0.5c0.3,0.2,0.6,0.5,0.8,0.8c0.1,0.2,0.2,0.3,0.3,0.5c0.2,0.4,0.2,0.8,0.2,1.2
					V37.5z"/>
			</g>
			<path class="st2" d="M14.5,26H24v8h-5.5v1H24h1h5.5v-1H25v-8h9.5V14h-20V26z M15.5,15h18v10h-18V15z"/>
		</g>
	</g>
</g>
</svg>
