<?xml version="1.0" encoding="utf-8"?>
<!-- Generator: Adobe Illustrator 21.0.2, SVG Export Plug-In . SVG Version: 6.00 Build 0)  -->
<svg version="1.1" id="图层_1" xmlns="http://www.w3.org/2000/svg" xmlns:xlink="http://www.w3.org/1999/xlink" x="0px" y="0px"
	 viewBox="0 0 50 50" style="enable-background:new 0 0 50 50;" xml:space="preserve">
<style type="text/css">
	.st0{opacity:0.2;}
	.st1{fill:#FFFFFF;}
	.st2{fill:#F93E54;}
</style>
<g>
	<g class="st0">
		<path d="M41.5,12.5c0-0.8-0.3-1.6-0.9-2.1c-0.4-0.4-0.9-0.7-1.5-0.8c-0.2,0-0.4-0.1-0.6-0.1h-26c-0.8,0-1.6,0.3-2.1,0.9
			c-0.1,0.1-0.3,0.3-0.4,0.4c-0.2,0.3-0.4,0.7-0.5,1.1c0,0.2-0.1,0.4-0.1,0.6v26c0,0.2,0,0.4,0.1,0.6c0.1,0.4,0.2,0.8,0.5,1.1
			c0.1,0.2,0.2,0.3,0.4,0.4c0.5,0.5,1.3,0.9,2.1,0.9h26c0.2,0,0.4,0,0.6-0.1c0.6-0.1,1.1-0.4,1.5-0.8c0.5-0.5,0.9-1.3,0.9-2.1V12.5z
			 M25.5,36.5c-6.1,0-11-4.9-11-11s4.9-11,11-11s11,4.9,11,11S31.6,36.5,25.5,36.5z"/>
		<path d="M29.7,26h-10l5-10.5c-5.1,0.4-9.2,4.7-9.2,10c0,5.4,4.3,9.8,9.7,10L29.7,26z"/>
		<path d="M25.8,15.5L21.3,25h10l-5,10.5c5.1-0.4,9.2-4.7,9.2-10C35.5,20.1,31.2,15.7,25.8,15.5z"/>
		<path d="M38.5,7.5h-26c-2.8,0-5,2.2-5,5v26c0,2.8,2.2,5,5,5h26c2.8,0,5-2.2,5-5v-26C43.5,9.7,41.3,7.5,38.5,7.5z M41.5,38.5
			c0,0.8-0.3,1.6-0.9,2.1c-0.4,0.4-0.9,0.7-1.5,0.8c-0.2,0-0.4,0.1-0.6,0.1h0h-26c-0.8,0-1.6-0.3-2.1-0.9c-0.1-0.1-0.3-0.3-0.4-0.4
			c-0.2-0.3-0.4-0.7-0.5-1.1c0-0.2-0.1-0.4-0.1-0.6v-26c0-0.2,0-0.4,0.1-0.6c0.1-0.4,0.2-0.8,0.5-1.1c0.1-0.2,0.2-0.3,0.4-0.4
			c0.5-0.5,1.3-0.9,2.1-0.9h26h0c0.2,0,0.4,0,0.6,0.1c0.6,0.1,1.1,0.4,1.5,0.8c0.5,0.5,0.9,1.3,0.9,2.1V38.5z"/>
		<path d="M25.5,14.5c-6.1,0-11,4.9-11,11s4.9,11,11,11s11-4.9,11-11S31.6,14.5,25.5,14.5z M15.5,25.5c0-5.2,4-9.5,9.2-10l-5,10.5
			h10l-4.5,9.4C19.8,35.3,15.5,30.9,15.5,25.5z M26.3,35.5l5-10.5h-10l4.5-9.5c5.4,0.2,9.7,4.6,9.7,10C35.5,30.7,31.5,35,26.3,35.5z
			"/>
	</g>
	<g>
		<g>
			<path class="st1" d="M40.5,11.5c0-0.8-0.3-1.6-0.9-2.1c-0.4-0.4-0.9-0.7-1.5-0.8c-0.2,0-0.4-0.1-0.6-0.1h-26
				c-0.8,0-1.6,0.3-2.1,0.9C9.2,9.5,9.1,9.7,9,9.8c-0.2,0.3-0.4,0.7-0.5,1.1c0,0.2-0.1,0.4-0.1,0.6v26c0,0.2,0,0.4,0.1,0.6
				c0.1,0.4,0.2,0.8,0.5,1.1c0.1,0.2,0.2,0.3,0.4,0.4c0.5,0.5,1.3,0.9,2.1,0.9h26c0.2,0,0.4,0,0.6-0.1c0.6-0.1,1.1-0.4,1.5-0.8
				c0.5-0.5,0.9-1.3,0.9-2.1V11.5z M24.5,35.5c-6.1,0-11-4.9-11-11s4.9-11,11-11s11,4.9,11,11S30.6,35.5,24.5,35.5z"/>
			<path class="st1" d="M28.7,25h-10l5-10.5c-5.1,0.4-9.2,4.7-9.2,10c0,5.4,4.3,9.8,9.7,10L28.7,25z"/>
			<path class="st1" d="M24.8,14.5L20.3,24h10l-5,10.5c5.1-0.4,9.2-4.7,9.2-10C34.5,19.1,30.2,14.7,24.8,14.5z"/>
			<path class="st2" d="M37.5,6.5h-26c-2.8,0-5,2.2-5,5v26c0,2.8,2.2,5,5,5h26c2.8,0,5-2.2,5-5v-26C42.5,8.7,40.3,6.5,37.5,6.5z
				 M40.5,37.5c0,0.8-0.3,1.6-0.9,2.1c-0.4,0.4-0.9,0.7-1.5,0.8c-0.2,0-0.4,0.1-0.6,0.1h0h-26c-0.8,0-1.6-0.3-2.1-0.9
				c-0.1-0.1-0.3-0.3-0.4-0.4c-0.2-0.3-0.4-0.7-0.5-1.1c0-0.2-0.1-0.4-0.1-0.6v-26c0-0.2,0-0.4,0.1-0.6c0.1-0.4,0.2-0.8,0.5-1.1
				c0.1-0.2,0.2-0.3,0.4-0.4c0.5-0.5,1.3-0.9,2.1-0.9h26h0c0.2,0,0.4,0,0.6,0.1c0.6,0.1,1.1,0.4,1.5,0.8c0.5,0.5,0.9,1.3,0.9,2.1
				V37.5z"/>
			<path class="st2" d="M24.5,13.5c-6.1,0-11,4.9-11,11s4.9,11,11,11s11-4.9,11-11S30.6,13.5,24.5,13.5z M14.5,24.5
				c0-5.2,4-9.5,9.2-10l-5,10.5h10l-4.5,9.4C18.8,34.3,14.5,29.9,14.5,24.5z M25.3,34.5l5-10.5h-10l4.5-9.5c5.4,0.2,9.7,4.6,9.7,10
				C34.5,29.7,30.5,34,25.3,34.5z"/>
		</g>
	</g>
</g>
</svg>
