<?xml version="1.0" encoding="utf-8"?>
<!-- Generator: Adobe Illustrator 21.0.2, SVG Export Plug-In . SVG Version: 6.00 Build 0)  -->
<svg version="1.1" id="图层_1" xmlns="http://www.w3.org/2000/svg" xmlns:xlink="http://www.w3.org/1999/xlink" x="0px" y="0px"
	 viewBox="0 0 50 50" style="enable-background:new 0 0 50 50;" xml:space="preserve">
<style type="text/css">
	.st0{opacity:0.2;}
	.st1{fill:#FFFFFF;}
	.st2{fill:#F93E54;}
</style>
<g>
	<g class="st0">
		<circle cx="19.5" cy="25.5" r="4"/>
		<rect x="32" y="22" width="3.4" height="2.2"/>
		<rect x="28.6" y="24.6" width="3" height="2.3"/>
		<rect x="32" y="24.6" width="3.4" height="2.3"/>
		<rect x="28.6" y="22" width="3" height="2.2"/>
		<path d="M38.5,9.5h-26c-1.6,0-3,1.4-3,3v26c0,1.7,1.4,3,3,3h26c1.7,0,3-1.3,3-3v-26C41.5,10.9,40.2,9.5,38.5,9.5z M19.5,30.5
			c-2.8,0-5-2.2-5-5s2.2-5,5-5s5,2.2,5,5S22.3,30.5,19.5,30.5z M37.2,29.3c-0.2,0.7-0.8,1-1.7,1h-2.4c-1,0-1.5-0.4-1.5-1.3v-1.6
			h-2.7c-0.2,0-0.4,0-0.8,0.1c0-0.3,0.1-0.6,0.1-0.8v-4.4c0-0.2,0-0.4-0.1-0.7c0.3,0,0.6,0.1,0.7,0.1h2.8v-1.3c0-0.2,0-0.5-0.1-0.7
			h0.6c0,0.3-0.1,0.5-0.1,0.7v1.3h3.2c0.2,0,0.4,0,0.8-0.1c0,0.3-0.1,0.6-0.1,0.7v4.4c0,0.2,0,0.5,0.1,0.8c-0.3,0-0.6-0.1-0.8-0.1
			H32v1.5c0,0.7,0.3,1.1,1.1,1h2.3c0.7,0,1.2-0.2,1.3-0.7c0.1-0.3,0.1-0.6,0.1-1c0.2,0.1,0.4,0.2,0.6,0.3
			C37.3,28.8,37.2,29.1,37.2,29.3z"/>
		<path d="M38.5,7.5h-26c-2.8,0-5,2.2-5,5v26c0,2.8,2.2,5,5,5h26c2.8,0,5-2.2,5-5v-26C43.5,9.7,41.3,7.5,38.5,7.5z M41.5,38.5
			c0,1.7-1.3,3-3,3h-26c-1.6,0-3-1.3-3-3v-26c0-1.6,1.4-3,3-3h26c1.7,0,3,1.4,3,3V38.5z"/>
		<path d="M19.5,20.5c-2.8,0-5,2.2-5,5s2.2,5,5,5s5-2.2,5-5S22.3,20.5,19.5,20.5z M19.5,29.5c-2.2,0-4-1.8-4-4c0-2.2,1.8-4,4-4
			c2.2,0,4,1.8,4,4C23.5,27.7,21.7,29.5,19.5,29.5z"/>
		<path d="M36.7,29.2c-0.1,0.5-0.5,0.7-1.3,0.7h-2.3c-0.8,0-1.2-0.3-1.1-1v-1.5h3.2c0.2,0,0.5,0,0.8,0.1c0-0.3-0.1-0.5-0.1-0.8v-4.4
			c0-0.1,0-0.4,0.1-0.7c-0.4,0-0.6,0.1-0.8,0.1H32v-1.3c0-0.2,0-0.4,0.1-0.7h-0.6c0,0.3,0.1,0.5,0.1,0.7v1.3h-2.8
			c-0.2,0-0.4,0-0.7-0.1c0,0.3,0.1,0.6,0.1,0.7v4.4c0,0.2,0,0.5-0.1,0.8c0.3,0,0.6-0.1,0.8-0.1h2.7V29c0,0.9,0.5,1.3,1.5,1.3h2.4
			c1,0,1.6-0.3,1.7-1c0.1-0.2,0.2-0.5,0.3-0.8c-0.2-0.1-0.4-0.2-0.6-0.3C36.8,28.6,36.8,28.9,36.7,29.2z M32,22h3.4v2.2H32V22z
			 M32,24.6h3.4v2.3H32V24.6z M31.6,26.9h-3v-2.3h3V26.9z M31.6,24.2h-3V22h3V24.2z"/>
	</g>
	<g>
		<g>
			<circle class="st1" cx="18.5" cy="24.5" r="4"/>
			<rect x="31" y="21" class="st1" width="3.4" height="2.2"/>
			<rect x="27.6" y="23.6" class="st1" width="3" height="2.3"/>
			<rect x="31" y="23.6" class="st1" width="3.4" height="2.3"/>
			<rect x="27.6" y="21" class="st1" width="3" height="2.2"/>
			<path class="st1" d="M37.5,8.5h-26c-1.6,0-3,1.4-3,3v26c0,1.7,1.4,3,3,3h26c1.7,0,3-1.3,3-3v-26C40.5,9.9,39.2,8.5,37.5,8.5z
				 M18.5,29.5c-2.8,0-5-2.2-5-5s2.2-5,5-5s5,2.2,5,5S21.3,29.5,18.5,29.5z M36.2,28.3c-0.2,0.7-0.8,1-1.7,1h-2.4
				c-1,0-1.5-0.4-1.5-1.3v-1.6h-2.7c-0.2,0-0.4,0-0.8,0.1c0-0.3,0.1-0.6,0.1-0.8v-4.4c0-0.2,0-0.4-0.1-0.7c0.3,0,0.6,0.1,0.7,0.1
				h2.8v-1.3c0-0.2,0-0.5-0.1-0.7h0.6c0,0.3-0.1,0.5-0.1,0.7v1.3h3.2c0.2,0,0.4,0,0.8-0.1c0,0.3-0.1,0.6-0.1,0.7v4.4
				c0,0.2,0,0.5,0.1,0.8c-0.3,0-0.6-0.1-0.8-0.1H31v1.5c0,0.7,0.3,1.1,1.1,1h2.3c0.7,0,1.2-0.2,1.3-0.7c0.1-0.3,0.1-0.6,0.1-1
				c0.2,0.1,0.4,0.2,0.6,0.3C36.3,27.8,36.2,28.1,36.2,28.3z"/>
			<path class="st2" d="M37.5,6.5h-26c-2.8,0-5,2.2-5,5v26c0,2.8,2.2,5,5,5h26c2.8,0,5-2.2,5-5v-26C42.5,8.7,40.3,6.5,37.5,6.5z
				 M40.5,37.5c0,1.7-1.3,3-3,3h-26c-1.6,0-3-1.3-3-3v-26c0-1.6,1.4-3,3-3h26c1.7,0,3,1.4,3,3V37.5z"/>
			<path class="st2" d="M18.5,19.5c-2.8,0-5,2.2-5,5s2.2,5,5,5s5-2.2,5-5S21.3,19.5,18.5,19.5z M18.5,28.5c-2.2,0-4-1.8-4-4
				c0-2.2,1.8-4,4-4c2.2,0,4,1.8,4,4C22.5,26.7,20.7,28.5,18.5,28.5z"/>
			<path class="st2" d="M35.7,28.2c-0.1,0.5-0.5,0.7-1.3,0.7h-2.3c-0.8,0-1.2-0.3-1.1-1v-1.5h3.2c0.2,0,0.5,0,0.8,0.1
				c0-0.3-0.1-0.5-0.1-0.8v-4.4c0-0.1,0-0.4,0.1-0.7c-0.4,0-0.6,0.1-0.8,0.1H31v-1.3c0-0.2,0-0.4,0.1-0.7h-0.6
				c0,0.3,0.1,0.5,0.1,0.7v1.3h-2.8c-0.2,0-0.4,0-0.7-0.1c0,0.3,0.1,0.6,0.1,0.7v4.4c0,0.2,0,0.5-0.1,0.8c0.3,0,0.6-0.1,0.8-0.1h2.7
				V28c0,0.9,0.5,1.3,1.5,1.3h2.4c1,0,1.6-0.3,1.7-1c0.1-0.2,0.2-0.5,0.3-0.8c-0.2-0.1-0.4-0.2-0.6-0.3
				C35.8,27.6,35.8,27.9,35.7,28.2z M31,21h3.4v2.2H31V21z M31,23.6h3.4v2.3H31V23.6z M30.6,25.9h-3v-2.3h3V25.9z M30.6,23.2h-3V21
				h3V23.2z"/>
		</g>
	</g>
</g>
</svg>
