<?xml version="1.0" encoding="utf-8"?>
<!-- Generator: Adobe Illustrator 21.0.2, SVG Export Plug-In . SVG Version: 6.00 Build 0)  -->
<svg version="1.1" id="图层_1" xmlns="http://www.w3.org/2000/svg" xmlns:xlink="http://www.w3.org/1999/xlink" x="0px" y="0px"
	 viewBox="0 0 50 50" style="enable-background:new 0 0 50 50;" xml:space="preserve">
<style type="text/css">
	.st0{opacity:0.2;}
	.st1{fill:#FFFFFF;}
	.st2{fill:#F93E54;}
</style>
<g>
	<g class="st0">
		<path d="M38.5,9.5h-26c-1.6,0-3,1.3-3,3v26c0,1.6,1.4,3,3,3h26c1.7,0,3-1.4,3-3v-26C41.5,10.8,40.2,9.5,38.5,9.5z M34.5,32.2
			c0.5,0,1,0.4,1,1v3c0,0.5-0.5,1-1,1h-18c-0.5,0-1-0.5-1-1v-3c0-0.6,0.5-1,1-1h11.7l6.1-6.1h-10l7.8-7.8L31,17.1l4-1.1l-1.1,4
			L32.8,19l-6.1,6.1h10l-7.1,7.1H34.5z"/>
		<path d="M38.5,7.5h-26c-2.8,0-5,2.2-5,5v26c0,2.8,2.2,5,5,5h26c2.8,0,5-2.2,5-5v-26C43.5,9.7,41.3,7.5,38.5,7.5z M41.5,38.5
			c0,1.6-1.3,3-3,3h-26c-1.6,0-3-1.4-3-3v-26c0-1.7,1.4-3,3-3h26c1.7,0,3,1.3,3,3V38.5z"/>
		<path d="M26.7,25.1l6.1-6.1l1.1,1.1l1.1-4l-4,1.1l1.1,1.1l-7.8,7.8h10l-6.1,6.1H16.5c-0.5,0-1,0.4-1,1v3c0,0.5,0.5,1,1,1h18
			c0.5,0,1-0.5,1-1v-3c0-0.6-0.5-1-1-1h-4.9l7.1-7.1H26.7z"/>
	</g>
	<g>
		<g>
			<path class="st1" d="M37.5,8.5h-26c-1.6,0-3,1.3-3,3v26c0,1.6,1.4,3,3,3h26c1.7,0,3-1.4,3-3v-26C40.5,9.8,39.2,8.5,37.5,8.5z
				 M33.5,31.2c0.5,0,1,0.4,1,1v3c0,0.5-0.5,1-1,1h-18c-0.5,0-1-0.5-1-1v-3c0-0.6,0.5-1,1-1h11.7l6.1-6.1h-10l7.8-7.8L30,16.1l4-1.1
				l-1.1,4L31.8,18l-6.1,6.1h10l-7.1,7.1H33.5z"/>
			<path class="st2" d="M37.5,6.5h-26c-2.8,0-5,2.2-5,5v26c0,2.8,2.2,5,5,5h26c2.8,0,5-2.2,5-5v-26C42.5,8.7,40.3,6.5,37.5,6.5z
				 M40.5,37.5c0,1.6-1.3,3-3,3h-26c-1.6,0-3-1.4-3-3v-26c0-1.7,1.4-3,3-3h26c1.7,0,3,1.3,3,3V37.5z"/>
			<path class="st2" d="M25.7,24.1l6.1-6.1l1.1,1.1l1.1-4l-4,1.1l1.1,1.1l-7.8,7.8h10l-6.1,6.1H15.5c-0.5,0-1,0.4-1,1v3
				c0,0.5,0.5,1,1,1h18c0.5,0,1-0.5,1-1v-3c0-0.6-0.5-1-1-1h-4.9l7.1-7.1H25.7z"/>
		</g>
	</g>
</g>
</svg>
