<?xml version="1.0" encoding="utf-8"?>
<!-- Generator: Adobe Illustrator 21.0.2, SVG Export Plug-In . SVG Version: 6.00 Build 0)  -->
<svg version="1.1" id="图层_1" xmlns="http://www.w3.org/2000/svg" xmlns:xlink="http://www.w3.org/1999/xlink" x="0px" y="0px"
	 viewBox="0 0 50 50" style="enable-background:new 0 0 50 50;" xml:space="preserve">
<style type="text/css">
	.st0{opacity:0.2;}
	.st1{fill:#FFFFFF;}
	.st2{fill:#F93E54;}
</style>
<g>
	<g class="st0">
		<path d="M25.5,15.5c-5.5,0-10,4.5-10,10c0,5.5,4.5,10,10,10s10-4.5,10-10C35.5,20,31,15.5,25.5,15.5z M29,24.4
			c0.2,0,0.5,0,0.8-0.1c0,0.2-0.1,0.5-0.1,0.8v2.1c0,0.3,0,0.5,0.1,0.8h-0.6c0-0.2,0.1-0.4,0.1-0.8v-2.4H25v2.4c0,0.3,0,0.6,0.1,0.8
			h-0.6c0-0.2,0.1-0.5,0.1-0.8v-2.1c0-0.2,0-0.5-0.1-0.8c0.2,0,0.5,0.1,0.8,0.1H29z M28.5,22.4l0.4-0.3c0.5,0.4,0.9,0.9,1.3,1.4
			l-0.4,0.3C29.4,23.3,28.9,22.9,28.5,22.4z M24.2,20h0.6c0,0.3-0.1,0.5-0.1,0.8v2.1c0,0.4,0,0.6,0.1,0.8h-0.6
			c0-0.2,0.1-0.5,0.1-0.8v-2.1C24.3,20.5,24.3,20.3,24.2,20z M21.2,21.7c0.5-0.9,0.8-1.6,0.9-2.1l0.7,0.3c-0.2,0.2-0.4,0.3-0.5,0.6
			c-0.5,1-1.1,2-1.6,2.9c0.6,0,1.2-0.1,1.9-0.1c0.4-0.6,0.6-1.1,0.8-1.6l0.6,0.4c-0.2,0.1-0.4,0.3-0.6,0.6c-0.8,1.3-1.5,2.4-2.3,3.4
			c1.2-0.1,2-0.2,2.4-0.4c-0.1,0.2-0.2,0.4-0.2,0.6c-1.7,0.2-2.7,0.4-3,0.5l-0.2-0.6c0.3-0.1,0.5-0.3,0.7-0.5
			c0.4-0.4,0.8-1.1,1.4-2.1c-1.2,0.1-1.9,0.2-2.1,0.3L20,23.4C20.3,23.3,20.7,22.7,21.2,21.7z M20.3,29.2c-0.1-0.2-0.2-0.3-0.2-0.5
			c1.4-0.1,2.6-0.4,3.8-0.9c0,0,0,0.1,0,0.1c0,0.3-0.1,0.4-0.1,0.5c-0.1,0-0.2,0.1-0.4,0.1c-1.8,0.4-2.8,0.7-3,0.9
			C20.3,29.3,20.3,29.2,20.3,29.2z M25.9,29.1c-0.6,0.5-1.4,1-2.7,1.4c-0.1-0.2-0.2-0.4-0.4-0.6c1.2-0.1,2.2-0.5,2.9-1.3
			c0.6-0.7,0.9-1.7,1-3.2l0.7,0.2c-0.1,0.2-0.2,0.4-0.3,0.8C26.9,27.7,26.5,28.6,25.9,29.1z M30.5,29.6c-0.2,0.2-0.3,0.4-0.5,0.4
			c-0.3,0.1-0.6,0.1-1,0.1c-0.4,0-0.7,0-1.1-0.1c-0.3-0.1-0.5-0.3-0.5-0.8V28c0-0.3,0-0.6-0.1-0.8h0.6c0,0.2-0.1,0.5-0.1,0.8v1
			c0,0.4,0.1,0.6,0.4,0.6c0.3,0,0.6,0.1,0.9,0.1c0.3,0,0.5,0,0.6-0.1c0.2,0,0.3-0.2,0.4-0.3c0.1-0.2,0.1-0.4,0.1-0.7
			c0.1,0.1,0.3,0.2,0.5,0.2C30.7,29.2,30.6,29.5,30.5,29.6z M31,21.6c-0.2,0-0.5-0.1-0.8-0.1h-2.4c0,0,0,0.1-0.1,0.1
			c-0.4,0.5-0.6,0.9-0.8,1.1c-0.1,0-0.2-0.1-0.3-0.2c-0.1,0-0.1-0.1-0.2-0.1V23c0,0.3,0,0.6,0.1,0.8H26c0-0.2,0.1-0.4,0.1-0.8v-2.6
			c0-0.3,0-0.6-0.1-0.8h0.6c0,0.2-0.1,0.5-0.1,0.8v2c0.7-0.6,1.3-1.5,1.8-2.7l0.7,0.2c-0.2,0.2-0.3,0.3-0.4,0.5
			c-0.1,0.2-0.3,0.5-0.5,0.8h2.1c0.3,0,0.6,0,0.8-0.1V21.6z"/>
		<path d="M38.5,9.5h-26c-1.7,0-3,1.4-3,3v26c0,1.7,1.3,3,3,3h26c1.6,0,3-1.3,3-3v-26C41.5,10.9,40.2,9.5,38.5,9.5z M25.5,36.5
			c-6.1,0-11-4.9-11-11s4.9-11,11-11s11,4.9,11,11S31.6,36.5,25.5,36.5z"/>
		<path d="M38.5,7.5h-26c-2.8,0-5,2.2-5,5v26c0,2.8,2.2,5,5,5h26c2.8,0,5-2.2,5-5v-26C43.5,9.7,41.3,7.5,38.5,7.5z M41.5,38.5
			c0,1.7-1.4,3-3,3h-26c-1.7,0-3-1.3-3-3v-26c0-1.6,1.3-3,3-3h26c1.6,0,3,1.4,3,3V38.5z"/>
		<path d="M25.5,14.5c-6.1,0-11,4.9-11,11s4.9,11,11,11s11-4.9,11-11S31.6,14.5,25.5,14.5z M25.5,35.5c-5.5,0-10-4.5-10-10
			c0-5.5,4.5-10,10-10s10,4.5,10,10C35.5,31,31,35.5,25.5,35.5z"/>
		<path d="M26.7,25.5c0,1.5-0.4,2.5-1,3.2c-0.7,0.7-1.7,1.2-2.9,1.3c0.2,0.2,0.3,0.4,0.4,0.6c1.2-0.4,2.1-0.9,2.7-1.4
			c0.5-0.5,0.9-1.4,1.2-2.7c0.1-0.3,0.1-0.6,0.3-0.8L26.7,25.5z"/>
		<path d="M30.2,29.3c-0.1,0.2-0.2,0.3-0.4,0.3c-0.1,0-0.3,0.1-0.6,0.1c-0.3,0-0.6,0-0.9-0.1c-0.3,0-0.4-0.2-0.4-0.6v-1
			c0-0.3,0-0.6,0.1-0.8h-0.6c0,0.2,0.1,0.4,0.1,0.8v1.3c0,0.4,0.2,0.7,0.5,0.8c0.4,0.1,0.8,0.1,1.1,0.1c0.3,0,0.7,0,1-0.1
			c0.2-0.1,0.4-0.2,0.5-0.4c0.1-0.1,0.2-0.4,0.3-0.8c-0.2,0-0.4-0.1-0.5-0.2C30.3,28.9,30.3,29.1,30.2,29.3z"/>
		<path d="M28.1,21.1c0.2-0.3,0.3-0.5,0.5-0.8c0.1-0.1,0.2-0.3,0.4-0.5l-0.7-0.2c-0.5,1.3-1.1,2.2-1.8,2.7v-2c0-0.3,0-0.6,0.1-0.8
			H26c0,0.2,0.1,0.5,0.1,0.8V23c0,0.4,0,0.7-0.1,0.8h0.6c0-0.2-0.1-0.5-0.1-0.8v-0.6c0,0,0.1,0,0.2,0.1c0.2,0.1,0.3,0.1,0.3,0.2
			c0.1-0.2,0.4-0.5,0.8-1.1c0,0,0.1-0.1,0.1-0.1h2.4c0.3,0,0.6,0,0.8,0.1v-0.5c-0.2,0-0.5,0.1-0.8,0.1H28.1z"/>
		<path d="M23.8,28.4c0-0.1,0-0.3,0.1-0.5c0-0.1,0-0.1,0-0.1c-1.2,0.5-2.4,0.8-3.8,0.9c0.1,0.1,0.1,0.3,0.2,0.5
			c0,0.1,0.1,0.2,0.1,0.2c0.2-0.2,1.2-0.4,3-0.9C23.6,28.5,23.7,28.4,23.8,28.4z"/>
		<path d="M30.1,23.6c-0.4-0.5-0.9-1-1.3-1.4l-0.4,0.3c0.5,0.4,0.9,0.9,1.3,1.5L30.1,23.6z"/>
		<path d="M22.4,23.7c-0.6,0.9-1,1.6-1.4,2.1c-0.2,0.2-0.4,0.4-0.7,0.5l0.2,0.6c0.3-0.2,1.3-0.3,3-0.5c0-0.2,0.1-0.4,0.2-0.6
			c-0.4,0.2-1.2,0.3-2.4,0.4c0.7-1,1.5-2.2,2.3-3.4c0.2-0.3,0.4-0.5,0.6-0.6l-0.6-0.4c-0.2,0.5-0.5,1-0.8,1.6
			c-0.6,0-1.2,0.1-1.9,0.1c0.6-0.9,1.1-1.9,1.6-2.9c0.1-0.2,0.3-0.4,0.5-0.6l-0.7-0.3c-0.1,0.5-0.4,1.2-0.9,2.1
			c-0.5,1-0.9,1.6-1.2,1.7l0.3,0.6C20.5,23.9,21.2,23.8,22.4,23.7z"/>
		<path d="M24.5,25.1v2.1c0,0.3,0,0.6-0.1,0.8H25c0-0.2-0.1-0.5-0.1-0.8v-2.4h4.3v2.4c0,0.4,0,0.6-0.1,0.8h0.6
			c0-0.3-0.1-0.5-0.1-0.8v-2.1c0-0.3,0-0.5,0.1-0.8c-0.3,0-0.6,0.1-0.8,0.1h-3.7c-0.3,0-0.6,0-0.8-0.1
			C24.5,24.7,24.5,24.9,24.5,25.1z"/>
		<path d="M24.2,23.6h0.6c0-0.2-0.1-0.4-0.1-0.8v-2.1c0-0.3,0-0.5,0.1-0.8h-0.6c0,0.3,0.1,0.6,0.1,0.8v2.1
			C24.3,23.1,24.3,23.4,24.2,23.6z"/>
	</g>
	<g>
		<g>
			<path class="st1" d="M24.5,14.5c-5.5,0-10,4.5-10,10c0,5.5,4.5,10,10,10s10-4.5,10-10C34.5,19,30,14.5,24.5,14.5z M28,23.4
				c0.2,0,0.5,0,0.8-0.1c0,0.2-0.1,0.5-0.1,0.8v2.1c0,0.3,0,0.5,0.1,0.8h-0.6c0-0.2,0.1-0.4,0.1-0.8v-2.4H24v2.4
				c0,0.3,0,0.6,0.1,0.8h-0.6c0-0.2,0.1-0.5,0.1-0.8v-2.1c0-0.2,0-0.5-0.1-0.8c0.2,0,0.5,0.1,0.8,0.1H28z M27.5,21.4l0.4-0.3
				c0.5,0.4,0.9,0.9,1.3,1.4l-0.4,0.3C28.4,22.3,27.9,21.9,27.5,21.4z M23.2,19h0.6c0,0.3-0.1,0.5-0.1,0.8v2.1c0,0.4,0,0.6,0.1,0.8
				h-0.6c0-0.2,0.1-0.5,0.1-0.8v-2.1C23.3,19.5,23.3,19.3,23.2,19z M20.2,20.7c0.5-0.9,0.8-1.6,0.9-2.1l0.7,0.3
				c-0.2,0.2-0.4,0.3-0.5,0.6c-0.5,1-1.1,2-1.6,2.9c0.6,0,1.2-0.1,1.9-0.1c0.4-0.6,0.6-1.1,0.8-1.6l0.6,0.4
				c-0.2,0.1-0.4,0.3-0.6,0.6c-0.8,1.3-1.5,2.4-2.3,3.4c1.2-0.1,2-0.2,2.4-0.4c-0.1,0.2-0.2,0.4-0.2,0.6c-1.7,0.2-2.7,0.4-3,0.5
				l-0.2-0.6c0.3-0.1,0.5-0.3,0.7-0.5c0.4-0.4,0.8-1.1,1.4-2.1c-1.2,0.1-1.9,0.2-2.1,0.3L19,22.4C19.3,22.3,19.7,21.7,20.2,20.7z
				 M19.3,28.2c-0.1-0.2-0.2-0.3-0.2-0.5c1.4-0.1,2.6-0.4,3.8-0.9c0,0,0,0.1,0,0.1c0,0.3-0.1,0.4-0.1,0.5c-0.1,0-0.2,0.1-0.4,0.1
				c-1.8,0.4-2.8,0.7-3,0.9C19.3,28.3,19.3,28.2,19.3,28.2z M24.9,28.1c-0.6,0.5-1.4,1-2.7,1.4c-0.1-0.2-0.2-0.4-0.4-0.6
				c1.2-0.1,2.2-0.5,2.9-1.3c0.6-0.7,0.9-1.7,1-3.2l0.7,0.2c-0.1,0.2-0.2,0.4-0.3,0.8C25.9,26.7,25.5,27.6,24.9,28.1z M29.5,28.6
				c-0.2,0.2-0.3,0.4-0.5,0.4c-0.3,0.1-0.6,0.1-1,0.1c-0.4,0-0.7,0-1.1-0.1c-0.3-0.1-0.5-0.3-0.5-0.8V27c0-0.3,0-0.6-0.1-0.8h0.6
				c0,0.2-0.1,0.5-0.1,0.8v1c0,0.4,0.1,0.6,0.4,0.6c0.3,0,0.6,0.1,0.9,0.1c0.3,0,0.5,0,0.6-0.1c0.2,0,0.3-0.2,0.4-0.3
				c0.1-0.2,0.1-0.4,0.1-0.7c0.1,0.1,0.3,0.2,0.5,0.2C29.7,28.2,29.6,28.5,29.5,28.6z M30,20.6c-0.2,0-0.5-0.1-0.8-0.1h-2.4
				c0,0,0,0.1-0.1,0.1c-0.4,0.5-0.6,0.9-0.8,1.1c-0.1,0-0.2-0.1-0.3-0.2c-0.1,0-0.1-0.1-0.2-0.1V22c0,0.3,0,0.6,0.1,0.8H25
				c0-0.2,0.1-0.4,0.1-0.8v-2.6c0-0.3,0-0.6-0.1-0.8h0.6c0,0.2-0.1,0.5-0.1,0.8v2c0.7-0.6,1.3-1.5,1.8-2.7l0.7,0.2
				c-0.2,0.2-0.3,0.3-0.4,0.5c-0.1,0.2-0.3,0.5-0.5,0.8h2.1c0.3,0,0.6,0,0.8-0.1V20.6z"/>
			<path class="st1" d="M37.5,8.5h-26c-1.7,0-3,1.4-3,3v26c0,1.7,1.3,3,3,3h26c1.6,0,3-1.3,3-3v-26C40.5,9.9,39.2,8.5,37.5,8.5z
				 M24.5,35.5c-6.1,0-11-4.9-11-11s4.9-11,11-11s11,4.9,11,11S30.6,35.5,24.5,35.5z"/>
			<path class="st2" d="M37.5,6.5h-26c-2.8,0-5,2.2-5,5v26c0,2.8,2.2,5,5,5h26c2.8,0,5-2.2,5-5v-26C42.5,8.7,40.3,6.5,37.5,6.5z
				 M40.5,37.5c0,1.7-1.4,3-3,3h-26c-1.7,0-3-1.3-3-3v-26c0-1.6,1.3-3,3-3h26c1.6,0,3,1.4,3,3V37.5z"/>
			<path class="st2" d="M24.5,13.5c-6.1,0-11,4.9-11,11s4.9,11,11,11s11-4.9,11-11S30.6,13.5,24.5,13.5z M24.5,34.5
				c-5.5,0-10-4.5-10-10c0-5.5,4.5-10,10-10s10,4.5,10,10C34.5,30,30,34.5,24.5,34.5z"/>
			<path class="st2" d="M25.7,24.5c0,1.5-0.4,2.5-1,3.2c-0.7,0.7-1.7,1.2-2.9,1.3c0.2,0.2,0.3,0.4,0.4,0.6c1.2-0.4,2.1-0.9,2.7-1.4
				c0.5-0.5,0.9-1.4,1.2-2.7c0.1-0.3,0.1-0.6,0.3-0.8L25.7,24.5z"/>
			<path class="st2" d="M29.2,28.3c-0.1,0.2-0.2,0.3-0.4,0.3c-0.1,0-0.3,0.1-0.6,0.1c-0.3,0-0.6,0-0.9-0.1c-0.3,0-0.4-0.2-0.4-0.6
				v-1c0-0.3,0-0.6,0.1-0.8h-0.6c0,0.2,0.1,0.4,0.1,0.8v1.3c0,0.4,0.2,0.7,0.5,0.8c0.4,0.1,0.8,0.1,1.1,0.1c0.3,0,0.7,0,1-0.1
				c0.2-0.1,0.4-0.2,0.5-0.4c0.1-0.1,0.2-0.4,0.3-0.8c-0.2,0-0.4-0.1-0.5-0.2C29.3,27.9,29.3,28.1,29.2,28.3z"/>
			<path class="st2" d="M27.1,20.1c0.2-0.3,0.3-0.5,0.5-0.8c0.1-0.1,0.2-0.3,0.4-0.5l-0.7-0.2c-0.5,1.3-1.1,2.2-1.8,2.7v-2
				c0-0.3,0-0.6,0.1-0.8H25c0,0.2,0.1,0.5,0.1,0.8V22c0,0.4,0,0.7-0.1,0.8h0.6c0-0.2-0.1-0.5-0.1-0.8v-0.6c0,0,0.1,0,0.2,0.1
				c0.2,0.1,0.3,0.1,0.3,0.2c0.1-0.2,0.4-0.5,0.8-1.1c0,0,0.1-0.1,0.1-0.1h2.4c0.3,0,0.6,0,0.8,0.1v-0.5c-0.2,0-0.5,0.1-0.8,0.1
				H27.1z"/>
			<path class="st2" d="M22.8,27.4c0-0.1,0-0.3,0.1-0.5c0-0.1,0-0.1,0-0.1c-1.2,0.5-2.4,0.8-3.8,0.9c0.1,0.1,0.1,0.3,0.2,0.5
				c0,0.1,0.1,0.2,0.1,0.2c0.2-0.2,1.2-0.4,3-0.9C22.6,27.5,22.7,27.4,22.8,27.4z"/>
			<path class="st2" d="M29.1,22.6c-0.4-0.5-0.9-1-1.3-1.4l-0.4,0.3c0.5,0.4,0.9,0.9,1.3,1.5L29.1,22.6z"/>
			<path class="st2" d="M21.4,22.7c-0.6,0.9-1,1.6-1.4,2.1c-0.2,0.2-0.4,0.4-0.7,0.5l0.2,0.6c0.3-0.2,1.3-0.3,3-0.5
				c0-0.2,0.1-0.4,0.2-0.6c-0.4,0.2-1.2,0.3-2.4,0.4c0.7-1,1.5-2.2,2.3-3.4c0.2-0.3,0.4-0.5,0.6-0.6l-0.6-0.4
				c-0.2,0.5-0.5,1-0.8,1.6c-0.6,0-1.2,0.1-1.9,0.1c0.6-0.9,1.1-1.9,1.6-2.9c0.1-0.2,0.3-0.4,0.5-0.6l-0.7-0.3
				c-0.1,0.5-0.4,1.2-0.9,2.1c-0.5,1-0.9,1.6-1.2,1.7l0.3,0.6C19.5,22.9,20.2,22.8,21.4,22.7z"/>
			<path class="st2" d="M23.5,24.1v2.1c0,0.3,0,0.6-0.1,0.8H24c0-0.2-0.1-0.5-0.1-0.8v-2.4h4.3v2.4c0,0.4,0,0.6-0.1,0.8h0.6
				c0-0.3-0.1-0.5-0.1-0.8v-2.1c0-0.3,0-0.5,0.1-0.8c-0.3,0-0.6,0.1-0.8,0.1h-3.7c-0.3,0-0.6,0-0.8-0.1
				C23.5,23.7,23.5,23.9,23.5,24.1z"/>
			<path class="st2" d="M23.2,22.6h0.6c0-0.2-0.1-0.4-0.1-0.8v-2.1c0-0.3,0-0.5,0.1-0.8h-0.6c0,0.3,0.1,0.6,0.1,0.8v2.1
				C23.3,22.1,23.3,22.4,23.2,22.6z"/>
		</g>
	</g>
</g>
</svg>
