<?xml version="1.0" encoding="utf-8"?>
<!-- Generator: Adobe Illustrator 21.0.2, SVG Export Plug-In . SVG Version: 6.00 Build 0)  -->
<svg version="1.1" id="图层_1" xmlns="http://www.w3.org/2000/svg" xmlns:xlink="http://www.w3.org/1999/xlink" x="0px" y="0px"
	 viewBox="0 0 50 50" style="enable-background:new 0 0 50 50;" xml:space="preserve">
<style type="text/css">
	.st0{opacity:0.2;}
	.st1{fill:#FFFFFF;}
	.st2{fill:#F93E54;}
</style>
<g>
	<g class="st0">
		<path d="M38.5,9.5h-26c-1.6,0-3,1.4-3,3v26c0,1.7,1.4,3,3,3h26c1.7,0,3-1.3,3-3v-26C41.5,10.9,40.2,9.5,38.5,9.5z M28.3,35.5
			c-0.7,0-2.2,0-3,0c-1,0-1-0.4-1.2-0.7c-1.3-2.9-2.5-5.9-2.5-9.3c0-3.4,0.8-6.6,2.5-9.3c0.2-0.3,0.5-0.7,1.2-0.7c0.7,0,2.2,0,3,0
			c0.6,0,1,0.4,1,1c0,1.1-0.3,3.2-0.3,4.3c0,0.6-0.5,1.1-1,1c-0.5-0.1-1-0.3-1.8-0.3c-0.5,0-1.1,0.3-1.4,0.7c0,0-0.1,0.1-0.1,0.1
			c-0.2,0.3-0.3,0.8-0.3,1c-0.1,1.1-0.1,3.3,0,4.3c0,0.3,0.1,0.8,0.3,1c0,0,0.1,0.1,0.1,0.1c0.3,0.4,0.8,0.6,1.4,0.7
			c0.3,0,1.4-0.3,1.8-0.3c0.5-0.1,1,0.4,1,1c0,1.1,0.3,3.2,0.3,4.3C29.4,35.1,28.9,35.5,28.3,35.5z"/>
		<path d="M38.5,7.5h-26c-2.8,0-5,2.2-5,5v26c0,2.8,2.2,5,5,5h26c2.8,0,5-2.2,5-5v-26C43.5,9.7,41.3,7.5,38.5,7.5z M41.5,38.5
			c0,1.7-1.3,3-3,3h-26c-1.6,0-3-1.3-3-3v-26c0-1.6,1.4-3,3-3h26c1.7,0,3,1.4,3,3V38.5z"/>
		<path d="M28,29.2c-0.5,0.1-1.5,0.4-1.8,0.3c-0.6,0-1.1-0.3-1.4-0.7c0,0-0.1-0.1-0.1-0.1c-0.2-0.3-0.3-0.8-0.3-1
			c-0.1-1.1-0.1-3.3,0-4.3c0-0.3,0.1-0.8,0.3-1c0,0,0.1-0.1,0.1-0.1c0.3-0.4,0.9-0.7,1.4-0.7c0.8,0,1.4,0.3,1.8,0.3
			c0.5,0.1,1-0.4,1-1c0-1.1,0.3-3.2,0.3-4.3c0-0.6-0.4-1-1-1c-0.7,0-2.2,0-3,0c-0.7,0-1,0.4-1.2,0.7c-1.6,2.7-2.5,5.9-2.5,9.3
			c0,3.4,1.2,6.4,2.5,9.3c0.1,0.3,0.2,0.7,1.2,0.7c0.7,0,2.2,0,3,0c0.6,0,1-0.4,1-1c-0.1-1.1-0.3-3.2-0.3-4.3
			C29,29.6,28.6,29.1,28,29.2z"/>
	</g>
	<g>
		<g>
			<path class="st1" d="M37.5,8.5h-26c-1.6,0-3,1.4-3,3v26c0,1.7,1.4,3,3,3h26c1.7,0,3-1.3,3-3v-26C40.5,9.9,39.2,8.5,37.5,8.5z
				 M27.3,34.5c-0.7,0-2.2,0-3,0c-1,0-1-0.4-1.2-0.7c-1.3-2.9-2.5-5.9-2.5-9.3c0-3.4,0.8-6.6,2.5-9.3c0.2-0.3,0.5-0.7,1.2-0.7
				c0.7,0,2.2,0,3,0c0.6,0,1,0.4,1,1c0,1.1-0.3,3.2-0.3,4.3c0,0.6-0.5,1.1-1,1c-0.5-0.1-1-0.3-1.8-0.3c-0.5,0-1.1,0.3-1.4,0.7
				c0,0-0.1,0.1-0.1,0.1c-0.2,0.3-0.3,0.8-0.3,1c-0.1,1.1-0.1,3.3,0,4.3c0,0.3,0.1,0.8,0.3,1c0,0,0.1,0.1,0.1,0.1
				c0.3,0.4,0.8,0.6,1.4,0.7c0.3,0,1.4-0.3,1.8-0.3c0.5-0.1,1,0.4,1,1c0,1.1,0.3,3.2,0.3,4.3C28.4,34.1,27.9,34.5,27.3,34.5z"/>
			<path class="st2" d="M37.5,6.5h-26c-2.8,0-5,2.2-5,5v26c0,2.8,2.2,5,5,5h26c2.8,0,5-2.2,5-5v-26C42.5,8.7,40.3,6.5,37.5,6.5z
				 M40.5,37.5c0,1.7-1.3,3-3,3h-26c-1.6,0-3-1.3-3-3v-26c0-1.6,1.4-3,3-3h26c1.7,0,3,1.4,3,3V37.5z"/>
			<path class="st2" d="M27,28.2c-0.5,0.1-1.5,0.4-1.8,0.3c-0.6,0-1.1-0.3-1.4-0.7c0,0-0.1-0.1-0.1-0.1c-0.2-0.3-0.3-0.8-0.3-1
				c-0.1-1.1-0.1-3.3,0-4.3c0-0.3,0.1-0.8,0.3-1c0,0,0.1-0.1,0.1-0.1c0.3-0.4,0.9-0.7,1.4-0.7c0.8,0,1.4,0.3,1.8,0.3
				c0.5,0.1,1-0.4,1-1c0-1.1,0.3-3.2,0.3-4.3c0-0.6-0.4-1-1-1c-0.7,0-2.2,0-3,0c-0.7,0-1,0.4-1.2,0.7c-1.6,2.7-2.5,5.9-2.5,9.3
				c0,3.4,1.2,6.4,2.5,9.3c0.1,0.3,0.2,0.7,1.2,0.7c0.7,0,2.2,0,3,0c0.6,0,1-0.4,1-1c-0.1-1.1-0.3-3.2-0.3-4.3
				C28,28.6,27.6,28.1,27,28.2z"/>
		</g>
	</g>
</g>
</svg>
