<?xml version="1.0" encoding="utf-8"?>
<!-- Generator: Adobe Illustrator 21.0.2, SVG Export Plug-In . SVG Version: 6.00 Build 0)  -->
<svg version="1.1" id="图层_1" xmlns="http://www.w3.org/2000/svg" xmlns:xlink="http://www.w3.org/1999/xlink" x="0px" y="0px"
	 viewBox="0 0 50 50" style="enable-background:new 0 0 50 50;" xml:space="preserve">
<style type="text/css">
	.st0{opacity:0.2;}
	.st1{fill:#FFFFFF;}
	.st2{fill:#F93E54;}
</style>
<g>
	<g class="st0">
		<path d="M38.5,9.5h-26c-0.4,0-0.8,0.1-1.2,0.2C11.2,9.8,11,9.9,10.8,10c-0.3,0.2-0.6,0.5-0.8,0.8c-0.3,0.5-0.5,1.1-0.5,1.7v26
			c0,0.6,0.2,1.2,0.5,1.7c0.2,0.3,0.5,0.6,0.8,0.8c0.2,0.1,0.3,0.2,0.5,0.3c0.4,0.2,0.8,0.2,1.2,0.2h26c1.7,0,3-1.3,3-3v-26
			C41.5,10.9,40.2,9.5,38.5,9.5z M25.5,36.5c-6.1,0-11-4.9-11-11s4.9-11,11-11s11,4.9,11,11S31.6,36.5,25.5,36.5z"/>
		<path d="M25.5,15.5c-5.5,0-10,4.5-10,10c0,5.5,4.5,10,10,10c5.5,0,10-4.5,10-10C35.5,20,31,15.5,25.5,15.5z M24.9,21.6h-2.7v7.7
			h-0.6v-7.7h-2.7v-0.5h5.9V21.6z M28.9,29.3h-0.7l-3.2-8.3h0.6l2.5,6.7c0.2,0.6,0.3,1,0.4,1.1c0.1-0.2,0.1-0.4,0.2-0.5
			s0.1-0.4,0.2-0.5l2.5-6.7h0.7L28.9,29.3z"/>
		<path d="M38.5,7.5h-26c-2.8,0-5,2.2-5,5v26c0,2.8,2.2,5,5,5h26c2.8,0,5-2.2,5-5v-26C43.5,9.7,41.3,7.5,38.5,7.5z M41.5,38.5
			c0,1.7-1.3,3-3,3h-26c-0.4,0-0.8-0.1-1.2-0.2c-0.2-0.1-0.3-0.2-0.5-0.3c-0.3-0.2-0.6-0.5-0.8-0.8c-0.3-0.5-0.5-1.1-0.5-1.7v-26
			c0-0.6,0.2-1.2,0.5-1.7c0.2-0.3,0.5-0.6,0.8-0.8c0.2-0.1,0.3-0.2,0.5-0.3c0.4-0.2,0.8-0.2,1.2-0.2h26c1.7,0,3,1.4,3,3V38.5z"/>
		<path d="M25.5,14.5c-6.1,0-11,4.9-11,11s4.9,11,11,11s11-4.9,11-11S31.6,14.5,25.5,14.5z M25.5,35.5c-5.5,0-10-4.5-10-10
			c0-5.5,4.5-10,10-10c5.5,0,10,4.5,10,10C35.5,31,31,35.5,25.5,35.5z"/>
		<polygon points="18.9,21.6 21.6,21.6 21.6,29.3 22.1,29.3 22.1,21.6 24.9,21.6 24.9,21.1 18.9,21.1 		"/>
		<path d="M28.9,27.8c-0.1,0.2-0.1,0.4-0.2,0.5s-0.1,0.4-0.2,0.5c0-0.1-0.2-0.5-0.4-1.1l-2.5-6.7h-0.6l3.2,8.3h0.7l3.2-8.3h-0.7
			L28.9,27.8z"/>
	</g>
	<g>
		<g>
			<path class="st1" d="M37.5,8.5h-26c-0.4,0-0.8,0.1-1.2,0.2C10.2,8.8,10,8.9,9.8,9C9.5,9.2,9.2,9.5,9,9.8
				c-0.3,0.5-0.5,1.1-0.5,1.7v26c0,0.6,0.2,1.2,0.5,1.7c0.2,0.3,0.5,0.6,0.8,0.8c0.2,0.1,0.3,0.2,0.5,0.3c0.4,0.2,0.8,0.2,1.2,0.2
				h26c1.7,0,3-1.3,3-3v-26C40.5,9.9,39.2,8.5,37.5,8.5z M24.5,35.5c-6.1,0-11-4.9-11-11s4.9-11,11-11s11,4.9,11,11
				S30.6,35.5,24.5,35.5z"/>
			<path class="st1" d="M24.5,14.5c-5.5,0-10,4.5-10,10c0,5.5,4.5,10,10,10c5.5,0,10-4.5,10-10C34.5,19,30,14.5,24.5,14.5z
				 M23.9,20.6h-2.7v7.7h-0.6v-7.7h-2.7v-0.5h5.9V20.6z M27.9,28.3h-0.7l-3.2-8.3h0.6l2.5,6.7c0.2,0.6,0.3,1,0.4,1.1
				c0.1-0.2,0.1-0.4,0.2-0.5s0.1-0.4,0.2-0.5l2.5-6.7h0.7L27.9,28.3z"/>
			<path class="st2" d="M37.5,6.5h-26c-2.8,0-5,2.2-5,5v26c0,2.8,2.2,5,5,5h26c2.8,0,5-2.2,5-5v-26C42.5,8.7,40.3,6.5,37.5,6.5z
				 M40.5,37.5c0,1.7-1.3,3-3,3h-26c-0.4,0-0.8-0.1-1.2-0.2c-0.2-0.1-0.3-0.2-0.5-0.3c-0.3-0.2-0.6-0.5-0.8-0.8
				c-0.3-0.5-0.5-1.1-0.5-1.7v-26c0-0.6,0.2-1.2,0.5-1.7C9.2,9.5,9.5,9.2,9.8,9c0.2-0.1,0.3-0.2,0.5-0.3c0.4-0.2,0.8-0.2,1.2-0.2h26
				c1.7,0,3,1.4,3,3V37.5z"/>
			<path class="st2" d="M24.5,13.5c-6.1,0-11,4.9-11,11s4.9,11,11,11s11-4.9,11-11S30.6,13.5,24.5,13.5z M24.5,34.5
				c-5.5,0-10-4.5-10-10c0-5.5,4.5-10,10-10c5.5,0,10,4.5,10,10C34.5,30,30,34.5,24.5,34.5z"/>
			<polygon class="st2" points="17.9,20.6 20.6,20.6 20.6,28.3 21.1,28.3 21.1,20.6 23.9,20.6 23.9,20.1 17.9,20.1 			"/>
			<path class="st2" d="M27.9,26.8c-0.1,0.2-0.1,0.4-0.2,0.5s-0.1,0.4-0.2,0.5c0-0.1-0.2-0.5-0.4-1.1l-2.5-6.7h-0.6l3.2,8.3h0.7
				l3.2-8.3h-0.7L27.9,26.8z"/>
		</g>
	</g>
</g>
</svg>
