<?xml version="1.0" encoding="utf-8"?>
<!-- Generator: Adobe Illustrator 21.0.2, SVG Export Plug-In . SVG Version: 6.00 Build 0)  -->
<svg version="1.1" id="图层_1" xmlns="http://www.w3.org/2000/svg" xmlns:xlink="http://www.w3.org/1999/xlink" x="0px" y="0px"
	 viewBox="0 0 50 50" style="enable-background:new 0 0 50 50;" xml:space="preserve">
<style type="text/css">
	.st0{opacity:0.2;}
	.st1{fill:#FFFFFF;}
	.st2{fill:#F93E54;}
</style>
<g>
	<g class="st0">
		<rect x="31" y="23" width="5" height="5"/>
		<rect x="15" y="20" width="15" height="11"/>
		<path d="M40.8,10.6c-0.1-0.1-0.3-0.3-0.4-0.4c-0.5-0.4-1.2-0.7-1.9-0.7h-26c-1.7,0-3,1.3-3,3v26c0,0.2,0,0.4,0.1,0.6
			c0.1,0.6,0.4,1.1,0.8,1.5c0.5,0.5,1.3,0.9,2.1,0.9h26c1.4,0,2.7-1,2.9-2.4c0-0.2,0.1-0.4,0.1-0.6v-26
			C41.5,11.8,41.2,11.1,40.8,10.6z M37,29H31v3H14V19h17v3H37V29z"/>
		<path d="M38.5,7.5h-26c-2.8,0-5,2.2-5,5v26c0,2.8,2.2,5,5,5h26c2.8,0,5-2.2,5-5v-26C43.5,9.7,41.3,7.5,38.5,7.5z M41.5,38.5
			L41.5,38.5c0,0.2,0,0.4-0.1,0.6c-0.3,1.4-1.5,2.4-2.9,2.4h-26c-0.8,0-1.6-0.3-2.1-0.9c-0.4-0.4-0.7-0.9-0.8-1.5
			c0-0.2-0.1-0.4-0.1-0.6v0v-26c0-1.7,1.3-3,3-3h26c0.7,0,1.4,0.3,1.9,0.7c0.1,0.1,0.3,0.3,0.4,0.4c0.4,0.5,0.7,1.2,0.7,1.9V38.5z"
			/>
		<path d="M31,19H14v13h17v-3H37v-7H31V19z M31,23h5v5h-5V23z M30,31H15V20h15V31z"/>
	</g>
	<g>
		<g>
			<rect x="30" y="22" class="st1" width="5" height="5"/>
			<rect x="14" y="19" class="st1" width="15" height="11"/>
			<path class="st1" d="M39.8,9.6c-0.1-0.1-0.3-0.3-0.4-0.4c-0.5-0.4-1.2-0.7-1.9-0.7h-26c-1.7,0-3,1.3-3,3v26c0,0.2,0,0.4,0.1,0.6
				c0.1,0.6,0.4,1.1,0.8,1.5c0.5,0.5,1.3,0.9,2.1,0.9h26c1.4,0,2.7-1,2.9-2.4c0-0.2,0.1-0.4,0.1-0.6v-26
				C40.5,10.8,40.2,10.1,39.8,9.6z M36,28H30v3H13V18h17v3H36V28z"/>
			<path class="st2" d="M37.5,6.5h-26c-2.8,0-5,2.2-5,5v26c0,2.8,2.2,5,5,5h26c2.8,0,5-2.2,5-5v-26C42.5,8.7,40.3,6.5,37.5,6.5z
				 M40.5,37.5L40.5,37.5c0,0.2,0,0.4-0.1,0.6c-0.3,1.4-1.5,2.4-2.9,2.4h-26c-0.8,0-1.6-0.3-2.1-0.9c-0.4-0.4-0.7-0.9-0.8-1.5
				c0-0.2-0.1-0.4-0.1-0.6v0v-26c0-1.7,1.3-3,3-3h26c0.7,0,1.4,0.3,1.9,0.7c0.1,0.1,0.3,0.3,0.4,0.4c0.4,0.5,0.7,1.2,0.7,1.9V37.5z"
				/>
			<path class="st2" d="M30,18H13v13h17v-3H36v-7H30V18z M30,22h5v5h-5V22z M29,30H14V19h15V30z"/>
		</g>
	</g>
</g>
</svg>
