<?xml version="1.0" encoding="utf-8"?>
<!-- Generator: Adobe Illustrator 21.0.2, SVG Export Plug-In . SVG Version: 6.00 Build 0)  -->
<svg version="1.1" id="图层_1" xmlns="http://www.w3.org/2000/svg" xmlns:xlink="http://www.w3.org/1999/xlink" x="0px" y="0px"
	 viewBox="0 0 50 50" style="enable-background:new 0 0 50 50;" xml:space="preserve">
<style type="text/css">
	
	.st0{opacity:0.2;}
	.st1{fill:#00A0E9;}
	.st2{fill:#FFFFFF;}
</style>
<g>
	<g class="st0">
		<path d="M38.5,7.3h-26c-2.8,0-5,2.2-5,5v26c0,2.8,2.2,5,5,5h26c2.8,0,5-2.2,5-5v-26C43.5,9.5,41.3,7.3,38.5,7.3z M41.5,38.3
			c0,1.7-1.3,3-3,3h-26c-1.6,0-3-1.3-3-3v-26c0-0.4,0.1-0.8,0.2-1.2c0.1-0.2,0.2-0.3,0.3-0.5c0.2-0.3,0.5-0.6,0.8-0.8
			c0.5-0.3,1.1-0.5,1.7-0.5h26c0.6,0,1.2,0.2,1.7,0.5c0.3,0.2,0.6,0.5,0.8,0.8c0.1,0.2,0.2,0.3,0.3,0.5c0.2,0.4,0.2,0.8,0.2,1.2
			V38.3z"/>
		<path d="M41,10.6c-0.2-0.3-0.5-0.6-0.8-0.8c-0.5-0.3-1.1-0.5-1.7-0.5h-26c-0.6,0-1.2,0.2-1.7,0.5c-0.3,0.2-0.6,0.5-0.8,0.8
			c-0.1,0.2-0.2,0.3-0.3,0.5c-0.2,0.4-0.2,0.8-0.2,1.2v26c0,1.7,1.4,3,3,3h26c1.7,0,3-1.3,3-3v-26c0-0.4-0.1-0.8-0.2-1.2
			C41.2,10.9,41.1,10.7,41,10.6z M38.5,23.7h-9.9l-5.1,3h15v1H23.3l4.4,2.6l-0.5,0.9l-5.9-3.5h-8.9v-1h10l-0.3-0.4l4.4-2.6H12.5v-1
			h14.2l-4.4-2.6l0.5-0.9l5.9,3.5h9.9V23.7z"/>
		<polygon points="22.8,19.3 22.2,20.1 26.7,22.7 12.5,22.7 12.5,23.7 26.7,23.7 22.2,26.3 22.5,26.8 12.5,26.8 12.5,27.8 
			21.4,27.8 27.2,31.3 27.8,30.4 23.3,27.8 38.5,27.8 38.5,26.8 23.5,26.8 28.6,23.7 38.5,23.7 38.5,22.7 28.6,22.7 		"/>
	</g>
	<g>
		<g>
			<g>
				<path class="st1" d="M37.5,6.3h-26c-2.8,0-5,2.2-5,5v26c0,2.8,2.2,5,5,5h26c2.8,0,5-2.2,5-5v-26C42.5,8.5,40.3,6.3,37.5,6.3z
					 M40.5,37.3c0,1.7-1.3,3-3,3h-26c-1.6,0-3-1.3-3-3v-26c0-0.4,0.1-0.8,0.2-1.2C8.8,9.9,8.9,9.7,9,9.6C9.2,9.3,9.5,9,9.8,8.8
					c0.5-0.3,1.1-0.5,1.7-0.5h26c0.6,0,1.2,0.2,1.7,0.5C39.5,9,39.8,9.3,40,9.6c0.1,0.2,0.2,0.3,0.3,0.5c0.2,0.4,0.2,0.8,0.2,1.2
					V37.3z"/>
			</g>
			<path class="st2" d="M40,9.6c-0.2-0.3-0.5-0.6-0.8-0.8c-0.5-0.3-1.1-0.5-1.7-0.5h-26c-0.6,0-1.2,0.2-1.7,0.5C9.5,9,9.2,9.3,9,9.6
				c-0.1,0.2-0.2,0.3-0.3,0.5c-0.2,0.4-0.2,0.8-0.2,1.2v26c0,1.7,1.4,3,3,3h26c1.7,0,3-1.3,3-3v-26c0-0.4-0.1-0.8-0.2-1.2
				C40.2,9.9,40.1,9.7,40,9.6z M37.5,22.7h-9.9l-5.1,3h15v1H22.3l4.4,2.6l-0.5,0.9l-5.9-3.5h-8.9v-1h10l-0.3-0.4l4.4-2.6H11.5v-1
				h14.2l-4.4-2.6l0.5-0.9l5.9,3.5h9.9V22.7z"/>
			<polygon class="st1" points="21.8,18.3 21.2,19.1 25.7,21.7 11.5,21.7 11.5,22.7 25.7,22.7 21.2,25.3 21.5,25.8 11.5,25.8 
				11.5,26.8 20.4,26.8 26.2,30.3 26.8,29.4 22.3,26.8 37.5,26.8 37.5,25.8 22.5,25.8 27.6,22.7 37.5,22.7 37.5,21.7 27.6,21.7 			
				"/>
		</g>
	</g>
</g>
</svg>
