<?xml version="1.0" encoding="utf-8"?>
<!-- Generator: Adobe Illustrator 21.0.2, SVG Export Plug-In . SVG Version: 6.00 Build 0)  -->
<svg version="1.1" id="图层_1" xmlns="http://www.w3.org/2000/svg" xmlns:xlink="http://www.w3.org/1999/xlink" x="0px" y="0px"
	 viewBox="0 0 50 50" style="enable-background:new 0 0 50 50;" xml:space="preserve">
<style type="text/css">
	.st0{opacity:0.2;}
	.st1{fill:#FFFFFF;}
	.st2{fill:#00A0E9;}
</style>
<g>
	<g class="st0">
		<path d="M18.1,29.9c0.5,0,0.8-0.1,0.9-0.3c0.2-0.2,0.3-0.8,0.3-1.6c-0.5,0-0.8,0.2-1,0.3C18.2,28.6,18.1,29.1,18.1,29.9z"/>
		<path d="M22.3,28c0,0.9,0.1,1.4,0.4,1.6s0.8,0.3,1.7,0.3h0.1c0-0.2,0-0.4,0-0.7c0-0.3,0-0.8,0.1-1.3L22.3,28L22.3,28z"/>
		<path d="M23.8,22.6c1.3,0,2.2-0.3,2.8-0.9c0.6-0.6,0.9-1.5,0.9-2.8c0-1.3-0.3-2.3-0.9-2.9s-1.6-0.9-3-0.9c-0.1,0-0.2,0-0.5,0
			s-0.5,0-0.7,0v7.4c0.1,0,0.1,0,0.2,0C23.1,22.6,23.5,22.6,23.8,22.6z"/>
		<path d="M32.9,28h-7.4c0,0.1,0,0.1,0,0.2c0,0.6,0,1,0,1.2c0,1.3,0.3,2.2,0.9,2.8s1.5,0.9,2.8,0.9c1.3,0,2.3-0.3,2.9-0.9
			c0.6-0.6,0.9-1.6,0.9-3c0-0.1,0-0.2,0-0.5S32.9,28.2,32.9,28z"/>
		<path d="M41,10.6c-0.2-0.3-0.5-0.6-0.8-0.8c-0.5-0.3-1.1-0.5-1.7-0.5h-26c-0.6,0-1.2,0.2-1.7,0.5c-0.3,0.2-0.6,0.5-0.8,0.8
			c-0.1,0.2-0.2,0.3-0.3,0.5c-0.2,0.4-0.2,0.8-0.2,1.2v26c0,1.7,1.4,3,3,3h26c1.7,0,3-1.3,3-3v-26c0-0.4-0.1-0.8-0.2-1.2
			C41.2,10.9,41.1,10.7,41,10.6z M33.8,23.3c-0.1,1.2-0.1,2-0.1,2.6c0,0.6,0,1.4,0,2.2s0,1.4,0,1.6c0,2.3-0.4,4-1.1,5
			c-0.7,1.1-1.8,1.6-3.4,1.6c-1.6,0-2.9-0.5-3.7-1.5c-0.7-0.9-1.1-2.2-1.2-3.9c-1,0-1.7-0.1-2.2-0.1c-0.6,0-1,0-1.3,0
			c-0.3,0-0.7,0-1.2,0c-0.5,0-1.3,0-2.3,0.1v-0.6h-0.3c0-1,0.1-1.8,0.1-2.4c0-0.6,0-1,0-1.3c0-0.3,0-0.7,0-1.2c0-0.5,0-1.3-0.1-2.3
			h0.9c0,0.8,0.1,1.4,0.3,1.6c0.2,0.2,0.5,0.3,0.9,0.3v-7.9c0-0.9-0.1-1.4-0.3-1.6s-0.8-0.3-1.6-0.3v-0.9h0.1c1.2,0.1,2,0.1,2.6,0.1
			c0.6,0,1.4,0,2.2,0c0.8,0,1.4,0,1.6,0c2.3,0,4,0.4,5,1.1c1.1,0.7,1.6,1.8,1.6,3.4c0,1.6-0.5,2.9-1.5,3.7c-1,0.8-2.5,1.2-4.6,1.2
			c-0.2,0-0.5,0-0.9,0c-0.3,0-0.8,0-1.3-0.1l0,1.6h8.6c0.9,0,1.4-0.1,1.6-0.3s0.3-0.8,0.3-1.6h0.9V23.3z"/>
		<path d="M38.5,7.3h-26c-2.8,0-5,2.2-5,5v26c0,2.8,2.2,5,5,5h26c2.8,0,5-2.2,5-5v-26C43.5,9.5,41.3,7.3,38.5,7.3z M41.5,38.3
			c0,1.7-1.3,3-3,3h-26c-1.6,0-3-1.3-3-3v-26c0-0.4,0.1-0.8,0.2-1.2c0.1-0.2,0.2-0.3,0.3-0.5c0.2-0.3,0.5-0.6,0.8-0.8
			c0.5-0.3,1.1-0.5,1.7-0.5h26c0.6,0,1.2,0.2,1.7,0.5c0.3,0.2,0.6,0.5,0.8,0.8c0.1,0.2,0.2,0.3,0.3,0.5c0.2,0.4,0.2,0.8,0.2,1.2
			V38.3z"/>
		<path d="M29.3,37.3c-2,0-3.4-0.6-4.4-1.9c-0.7-0.9-1.1-2-1.3-3.6c-0.5,0-1,0-1.4,0c-0.5,0-1,0-1.3,0c-0.3,0-0.7,0-1.2,0
			c-0.5,0-1.2,0-2.3,0.1l-1,0v-0.6h-0.3l0-1c0-1,0.1-1.8,0.1-2.3c0-0.5,0-1,0-1.3c0-0.3,0-0.7,0-1.2c0-0.5,0-1.2-0.1-2.3l0-1h2.2v-5
			c0-0.5,0-0.7-0.1-0.9c-0.1,0-0.4-0.1-0.9-0.1l-1,0v-2.9h1.1c1.2,0.1,2,0.1,2.6,0.1c0.6,0,1.3,0,2.2,0c0.9,0,1.4,0,1.6,0
			c2.5,0,4.4,0.4,5.6,1.2c1.3,0.9,2,2.3,2,4.2c0,2-0.6,3.5-1.9,4.4c-0.5,0.4-1,0.7-1.6,0.9h2.9c0.5,0,0.7,0,0.9-0.1
			c0-0.1,0.1-0.4,0.1-0.9l0-1h2.9v1.1c-0.1,1.2-0.1,2-0.1,2.6c0,0.6,0,1.3,0,2.2c0,0.9,0,1.4,0,1.6c0,2.5-0.4,4.4-1.2,5.6
			C32.6,36.6,31.2,37.3,29.3,37.3z M26.5,29.4c0,1,0.2,1.7,0.6,2.1c0.4,0.4,1.1,0.6,2.1,0.6c1,0,1.8-0.2,2.2-0.6
			c0.4-0.4,0.6-1.2,0.6-2.3c0,0,0-0.1,0-0.3h-5.4C26.5,29.2,26.5,29.3,26.5,29.4z M23.8,21.6c1,0,1.7-0.2,2.1-0.6
			c0.4-0.4,0.6-1.1,0.6-2.1c0-1-0.2-1.8-0.6-2.2c-0.4-0.4-1.2-0.6-2.3-0.6c0,0-0.1,0-0.3,0v5.4C23.5,21.6,23.7,21.6,23.8,21.6z"/>
		<path d="M24,14.3c2.3,0,4,0.4,5,1.1c1.1,0.7,1.6,1.8,1.6,3.4c0,1.6-0.5,2.9-1.5,3.7c-1,0.8-2.5,1.2-4.6,1.2c-0.2,0-0.5,0-0.9,0
			c-0.3,0-0.8,0-1.3-0.1l0,1.6h8.6c0.9,0,1.4-0.1,1.6-0.3c0.2-0.2,0.3-0.8,0.3-1.6h0.9v0.1c-0.1,1.2-0.1,2-0.1,2.6
			c0,0.6,0,1.4,0,2.2c0,0.8,0,1.4,0,1.6c0,2.3-0.4,4-1.1,5c-0.7,1.1-1.8,1.6-3.4,1.6c-1.6,0-2.9-0.5-3.7-1.5
			c-0.7-0.9-1.1-2.2-1.2-3.9c-1,0-1.7-0.1-2.2-0.1c-0.6,0-1,0-1.3,0c-0.3,0-0.7,0-1.2,0c-0.5,0-1.3,0-2.3,0.1v-0.6h-0.3
			c0-1,0.1-1.8,0.1-2.4c0-0.6,0-1,0-1.3c0-0.3,0-0.7,0-1.2c0-0.5,0-1.3-0.1-2.3h0.9c0,0.8,0.1,1.4,0.3,1.6c0.2,0.2,0.5,0.3,0.9,0.3
			v-7.9c0-0.9-0.1-1.4-0.3-1.6c-0.2-0.2-0.8-0.3-1.6-0.3v-0.9h0.1c1.2,0.1,2,0.1,2.6,0.1c0.6,0,1.4,0,2.2,0
			C23.2,14.3,23.7,14.3,24,14.3 M23.8,22.6c1.3,0,2.2-0.3,2.8-0.9c0.6-0.6,0.9-1.5,0.9-2.8c0-1.3-0.3-2.3-0.9-2.9
			c-0.6-0.6-1.6-0.9-3-0.9c-0.1,0-0.2,0-0.5,0c-0.3,0-0.5,0-0.7,0v7.4c0.1,0,0.1,0,0.2,0C23.1,22.6,23.5,22.6,23.8,22.6 M29.1,33.2
			c1.3,0,2.3-0.3,2.9-0.9c0.6-0.6,0.9-1.6,0.9-3c0-0.1,0-0.2,0-0.5c0-0.3,0-0.5,0-0.7h-7.4c0,0.1,0,0.1,0,0.2c0,0.6,0,1,0,1.2
			c0,1.3,0.3,2.2,0.9,2.8C27,32.9,27.9,33.2,29.1,33.2 M24.4,30h0.1c0-0.2,0-0.4,0-0.7c0-0.3,0-0.8,0.1-1.3l-2.3,0l0,0
			c0,0.9,0.1,1.4,0.4,1.6S23.5,30,24.4,30 M18.1,29.9c0.5,0,0.8-0.1,0.9-0.3c0.2-0.2,0.3-0.8,0.3-1.6c-0.5,0-0.8,0.2-1,0.3
			C18.2,28.6,18.1,29.1,18.1,29.9 M24,12.3c-0.2,0-0.8,0-1.7,0c-0.8,0-1.5,0-2.1,0c-0.5,0-1.3,0-2.5-0.1l-0.1,0h-0.1h-0.1h-2v2v0.9
			v2l1.9,0v4h-0.2h-2.1l0.1,2.1c0,1,0.1,1.7,0.1,2.2c0,0.5,0,0.9,0,1.2c0,0.3,0,0.8,0,1.3c0,0.5,0,1.3-0.1,2.3l-0.1,2.1h0.3v0.7
			l2.1-0.1c1,0,1.7-0.1,2.2-0.1c0.5,0,0.9,0,1.2,0c0.3,0,0.8,0,1.3,0c0.2,0,0.3,0,0.5,0c0.3,1.3,0.7,2.4,1.4,3.2
			c0.8,1,2.4,2.3,5.2,2.3c2.8,0,4.3-1.3,5-2.5c1-1.4,1.4-3.4,1.4-6.2c0-0.2,0-0.8,0-1.7c0-0.8,0-1.5,0-2.1c0-0.5,0-1.3,0.1-2.5
			l0-0.1v-0.1v-0.1v-2h-2h-0.9h-0.7c0.2-0.7,0.4-1.5,0.4-2.4c0-2.8-1.3-4.3-2.5-5C28.7,12.7,26.7,12.3,24,12.3L24,12.3z M24.3,20.6
			v-3.4c0.5,0.1,0.8,0.2,0.9,0.3c0.1,0.1,0.3,0.5,0.3,1.5c0,0.7-0.1,1.2-0.3,1.4C25.1,20.3,24.9,20.5,24.3,20.6L24.3,20.6z M27.5,30
			h3.4c-0.1,0.5-0.2,0.8-0.3,0.9c-0.1,0.1-0.5,0.3-1.5,0.3c-0.7,0-1.2-0.1-1.4-0.3C27.7,30.8,27.5,30.5,27.5,30L27.5,30z"/>
	</g>
	<g>
		<g>
			<path class="st1" d="M17.1,28.9c0.5,0,0.8-0.1,0.9-0.3c0.2-0.2,0.3-0.8,0.3-1.6c-0.5,0-0.8,0.2-1,0.3
				C17.2,27.6,17.1,28.1,17.1,28.9z"/>
			<path class="st1" d="M21.3,27c0,0.9,0.1,1.4,0.4,1.6s0.8,0.3,1.7,0.3h0.1c0-0.2,0-0.4,0-0.7c0-0.3,0-0.8,0.1-1.3L21.3,27L21.3,27
				z"/>
			<path class="st1" d="M22.8,21.6c1.3,0,2.2-0.3,2.8-0.9c0.6-0.6,0.9-1.5,0.9-2.8c0-1.3-0.3-2.3-0.9-2.9s-1.6-0.9-3-0.9
				c-0.1,0-0.2,0-0.5,0s-0.5,0-0.7,0v7.4c0.1,0,0.1,0,0.2,0C22.1,21.6,22.5,21.6,22.8,21.6z"/>
			<path class="st1" d="M31.9,27h-7.4c0,0.1,0,0.1,0,0.2c0,0.6,0,1,0,1.2c0,1.3,0.3,2.2,0.9,2.8s1.5,0.9,2.8,0.9
				c1.3,0,2.3-0.3,2.9-0.9c0.6-0.6,0.9-1.6,0.9-3c0-0.1,0-0.2,0-0.5S31.9,27.2,31.9,27z"/>
			<path class="st1" d="M40,9.6c-0.2-0.3-0.5-0.6-0.8-0.8c-0.5-0.3-1.1-0.5-1.7-0.5h-26c-0.6,0-1.2,0.2-1.7,0.5C9.5,9,9.2,9.3,9,9.6
				c-0.1,0.2-0.2,0.3-0.3,0.5c-0.2,0.4-0.2,0.8-0.2,1.2v26c0,1.7,1.4,3,3,3h26c1.7,0,3-1.3,3-3v-26c0-0.4-0.1-0.8-0.2-1.2
				C40.2,9.9,40.1,9.7,40,9.6z M32.8,22.3c-0.1,1.2-0.1,2-0.1,2.6c0,0.6,0,1.4,0,2.2s0,1.4,0,1.6c0,2.3-0.4,4-1.1,5
				c-0.7,1.1-1.8,1.6-3.4,1.6c-1.6,0-2.9-0.5-3.7-1.5c-0.7-0.9-1.1-2.2-1.2-3.9c-1,0-1.7-0.1-2.2-0.1c-0.6,0-1,0-1.3,0
				c-0.3,0-0.7,0-1.2,0c-0.5,0-1.3,0-2.3,0.1v-0.6h-0.3c0-1,0.1-1.8,0.1-2.4c0-0.6,0-1,0-1.3c0-0.3,0-0.7,0-1.2c0-0.5,0-1.3-0.1-2.3
				h0.9c0,0.8,0.1,1.4,0.3,1.6c0.2,0.2,0.5,0.3,0.9,0.3v-7.9c0-0.9-0.1-1.4-0.3-1.6s-0.8-0.3-1.6-0.3v-0.9h0.1
				c1.2,0.1,2,0.1,2.6,0.1c0.6,0,1.4,0,2.2,0c0.8,0,1.4,0,1.6,0c2.3,0,4,0.4,5,1.1c1.1,0.7,1.6,1.8,1.6,3.4c0,1.6-0.5,2.9-1.5,3.7
				c-1,0.8-2.5,1.2-4.6,1.2c-0.2,0-0.5,0-0.9,0c-0.3,0-0.8,0-1.3-0.1l0,1.6h8.6c0.9,0,1.4-0.1,1.6-0.3s0.3-0.8,0.3-1.6h0.9V22.3z"/>
			<g>
				<path class="st2" d="M37.5,6.3h-26c-2.8,0-5,2.2-5,5v26c0,2.8,2.2,5,5,5h26c2.8,0,5-2.2,5-5v-26C42.5,8.5,40.3,6.3,37.5,6.3z
					 M40.5,37.3c0,1.7-1.3,3-3,3h-26c-1.6,0-3-1.3-3-3v-26c0-0.4,0.1-0.8,0.2-1.2C8.8,9.9,8.9,9.7,9,9.6C9.2,9.3,9.5,9,9.8,8.8
					c0.5-0.3,1.1-0.5,1.7-0.5h26c0.6,0,1.2,0.2,1.7,0.5C39.5,9,39.8,9.3,40,9.6c0.1,0.2,0.2,0.3,0.3,0.5c0.2,0.4,0.2,0.8,0.2,1.2
					V37.3z"/>
			</g>
			<g>
				<path class="st2" d="M28.3,36.3c-2,0-3.4-0.6-4.4-1.9c-0.7-0.9-1.1-2-1.3-3.6c-0.5,0-1,0-1.4,0c-0.5,0-1,0-1.3,0
					c-0.3,0-0.7,0-1.2,0c-0.5,0-1.2,0-2.3,0.1l-1,0v-0.6h-0.3l0-1c0-1,0.1-1.8,0.1-2.3c0-0.5,0-1,0-1.3c0-0.3,0-0.7,0-1.2
					c0-0.5,0-1.2-0.1-2.3l0-1h2.2v-5c0-0.5,0-0.7-0.1-0.9c-0.1,0-0.4-0.1-0.9-0.1l-1,0v-2.9h1.1c1.2,0.1,2,0.1,2.6,0.1
					c0.6,0,1.3,0,2.2,0c0.9,0,1.4,0,1.6,0c2.5,0,4.4,0.4,5.6,1.2c1.3,0.9,2,2.3,2,4.2c0,2-0.6,3.5-1.9,4.4c-0.5,0.4-1,0.7-1.6,0.9
					h2.9c0.5,0,0.7,0,0.9-0.1c0-0.1,0.1-0.4,0.1-0.9l0-1h2.9v1.1c-0.1,1.2-0.1,2-0.1,2.6c0,0.6,0,1.3,0,2.2c0,0.9,0,1.4,0,1.6
					c0,2.5-0.4,4.4-1.2,5.6C31.6,35.6,30.2,36.3,28.3,36.3z M25.5,28.4c0,1,0.2,1.7,0.6,2.1c0.4,0.4,1.1,0.6,2.1,0.6
					c1,0,1.8-0.2,2.2-0.6c0.4-0.4,0.6-1.2,0.6-2.3c0,0,0-0.1,0-0.3h-5.4C25.5,28.2,25.5,28.3,25.5,28.4z M22.8,20.6
					c1,0,1.7-0.2,2.1-0.6c0.4-0.4,0.6-1.1,0.6-2.1c0-1-0.2-1.8-0.6-2.2c-0.4-0.4-1.2-0.6-2.3-0.6c0,0-0.1,0-0.3,0v5.4
					C22.5,20.6,22.7,20.6,22.8,20.6z"/>
				<path class="st1" d="M23,13.3c2.3,0,4,0.4,5,1.1c1.1,0.7,1.6,1.8,1.6,3.4c0,1.6-0.5,2.9-1.5,3.7c-1,0.8-2.5,1.2-4.6,1.2
					c-0.2,0-0.5,0-0.9,0c-0.3,0-0.8,0-1.3-0.1l0,1.6h8.6c0.9,0,1.4-0.1,1.6-0.3c0.2-0.2,0.3-0.8,0.3-1.6h0.9v0.1
					c-0.1,1.2-0.1,2-0.1,2.6c0,0.6,0,1.4,0,2.2c0,0.8,0,1.4,0,1.6c0,2.3-0.4,4-1.1,5c-0.7,1.1-1.8,1.6-3.4,1.6
					c-1.6,0-2.9-0.5-3.7-1.5c-0.7-0.9-1.1-2.2-1.2-3.9c-1,0-1.7-0.1-2.2-0.1c-0.6,0-1,0-1.3,0c-0.3,0-0.7,0-1.2,0
					c-0.5,0-1.3,0-2.3,0.1v-0.6h-0.3c0-1,0.1-1.8,0.1-2.4c0-0.6,0-1,0-1.3c0-0.3,0-0.7,0-1.2c0-0.5,0-1.3-0.1-2.3h0.9
					c0,0.8,0.1,1.4,0.3,1.6c0.2,0.2,0.5,0.3,0.9,0.3v-7.9c0-0.9-0.1-1.4-0.3-1.6c-0.2-0.2-0.8-0.3-1.6-0.3v-0.9h0.1
					c1.2,0.1,2,0.1,2.6,0.1c0.6,0,1.4,0,2.2,0C22.2,13.3,22.7,13.3,23,13.3 M22.8,21.6c1.3,0,2.2-0.3,2.8-0.9
					c0.6-0.6,0.9-1.5,0.9-2.8c0-1.3-0.3-2.3-0.9-2.9c-0.6-0.6-1.6-0.9-3-0.9c-0.1,0-0.2,0-0.5,0c-0.3,0-0.5,0-0.7,0v7.4
					c0.1,0,0.1,0,0.2,0C22.1,21.6,22.5,21.6,22.8,21.6 M28.1,32.2c1.3,0,2.3-0.3,2.9-0.9c0.6-0.6,0.9-1.6,0.9-3c0-0.1,0-0.2,0-0.5
					c0-0.3,0-0.5,0-0.7h-7.4c0,0.1,0,0.1,0,0.2c0,0.6,0,1,0,1.2c0,1.3,0.3,2.2,0.9,2.8C26,31.9,26.9,32.2,28.1,32.2 M23.4,29h0.1
					c0-0.2,0-0.4,0-0.7c0-0.3,0-0.8,0.1-1.3l-2.3,0l0,0c0,0.9,0.1,1.4,0.4,1.6S22.5,29,23.4,29 M17.1,28.9c0.5,0,0.8-0.1,0.9-0.3
					c0.2-0.2,0.3-0.8,0.3-1.6c-0.5,0-0.8,0.2-1,0.3C17.2,27.6,17.1,28.1,17.1,28.9 M23,11.3c-0.2,0-0.8,0-1.7,0c-0.8,0-1.5,0-2.1,0
					c-0.5,0-1.3,0-2.5-0.1l-0.1,0h-0.1h-0.1h-2v2v0.9v2l1.9,0v4h-0.2h-2.1l0.1,2.1c0,1,0.1,1.7,0.1,2.2c0,0.5,0,0.9,0,1.2
					c0,0.3,0,0.8,0,1.3c0,0.5,0,1.3-0.1,2.3l-0.1,2.1h0.3v0.7l2.1-0.1c1,0,1.7-0.1,2.2-0.1c0.5,0,0.9,0,1.2,0c0.3,0,0.8,0,1.3,0
					c0.2,0,0.3,0,0.5,0c0.3,1.3,0.7,2.4,1.4,3.2c0.8,1,2.4,2.3,5.2,2.3c2.8,0,4.3-1.3,5-2.5c1-1.4,1.4-3.4,1.4-6.2
					c0-0.2,0-0.8,0-1.7c0-0.8,0-1.5,0-2.1c0-0.5,0-1.3,0.1-2.5l0-0.1v-0.1v-0.1v-2h-2h-0.9h-0.7c0.2-0.7,0.4-1.5,0.4-2.4
					c0-2.8-1.3-4.3-2.5-5C27.7,11.7,25.7,11.3,23,11.3L23,11.3z M23.3,19.6v-3.4c0.5,0.1,0.8,0.2,0.9,0.3c0.1,0.1,0.3,0.5,0.3,1.5
					c0,0.7-0.1,1.2-0.3,1.4C24.1,19.3,23.9,19.5,23.3,19.6L23.3,19.6z M26.5,29h3.4c-0.1,0.5-0.2,0.8-0.3,0.9
					c-0.1,0.1-0.5,0.3-1.5,0.3c-0.7,0-1.2-0.1-1.4-0.3C26.7,29.8,26.5,29.5,26.5,29L26.5,29z"/>
			</g>
		</g>
	</g>
</g>
</svg>
