<?xml version="1.0" encoding="utf-8"?>
<!-- Generator: Adobe Illustrator 21.0.2, SVG Export Plug-In . SVG Version: 6.00 Build 0)  -->
<svg version="1.1" id="图层_1" xmlns="http://www.w3.org/2000/svg" xmlns:xlink="http://www.w3.org/1999/xlink" x="0px" y="0px"
	 viewBox="0 0 50 50" style="enable-background:new 0 0 50 50;" xml:space="preserve">
<style type="text/css">
	.st0{opacity:0.2;}
	.st1{fill:#FFFFFF;}
	.st2{fill:#22AC38;}
</style>
<g>
	<g class="st0">
		<path d="M38.5,9.5h-26c-1.7,0-3,1.3-3,3v26c0,1.6,1.3,3,3,3h26c1.6,0,3-1.4,3-3v-26C41.5,10.8,40.1,9.5,38.5,9.5z M24,18.6l1,0.2
			l-0.4,1.6l-1-0.2L24,18.6z M23.6,20.6l1,0.2l-0.4,1.6l-1-0.2L23.6,20.6z M24.1,22.8l-0.4,1.6l-1-0.2l0.4-1.6L24.1,22.8z
			 M21.9,18.6l1,0.2l-0.4,1.6l-1-0.2L21.9,18.6z M21.5,20.6l1,0.2l-0.4,1.6l-1-0.2L21.5,20.6z M22,22.8l-0.4,1.6l-1-0.2l0.4-1.6
			L22,22.8z M19.7,18.6l1,0.2l-0.4,1.6l-1-0.2L19.7,18.6z M19.4,20.6l1,0.2l-0.4,1.6l-1-0.2L19.4,20.6z M19.9,22.8l-0.4,1.6l-1-0.2
			l0.4-1.6L19.9,22.8z M17.6,18.6l1,0.2l-0.4,1.6l-1-0.2L17.6,18.6z M17.2,20.6l1,0.2l-0.4,1.6l-1-0.2L17.2,20.6z M17.7,22.8
			l-0.4,1.6l-1-0.2l0.4-1.6L17.7,22.8z M15.5,18.6l1,0.2l-0.4,1.6l-1-0.2L15.5,18.6z M15.1,20.6l1,0.2l-0.4,1.6l-1-0.2L15.1,20.6z
			 M15.6,22.8l-0.4,1.6l-1-0.2l0.4-1.6L15.6,22.8z M13.4,18.6l1,0.2L14,20.5l-1-0.2L13.4,18.6z M13,20.6l1,0.2l-0.4,1.6l-1-0.2
			L13,20.6z M12.2,24.2l0.4-1.6l1,0.2l-0.4,1.6L12.2,24.2z M13.8,30.9l-1-0.2l0.4-1.6l1,0.2L13.8,30.9z M14.2,28.9l-1-0.2l0.4-1.6
			l1,0.2L14.2,28.9z M13.7,26.7l0.4-1.6l1,0.2l-0.4,1.6L13.7,26.7z M15.9,30.9l-1-0.2l0.4-1.6l1,0.2L15.9,30.9z M16.4,28.9l-1-0.2
			l0.4-1.6l1,0.2L16.4,28.9z M15.8,26.7l0.4-1.6l1,0.2l-0.4,1.6L15.8,26.7z M18,30.9l-1-0.2l0.4-1.6l1,0.2L18,30.9z M18.5,28.9
			l-1-0.2l0.4-1.6l1,0.2L18.5,28.9z M17.9,26.7l0.4-1.6l1,0.2l-0.4,1.6L17.9,26.7z M20.1,30.9l-1-0.2l0.4-1.6l1,0.2L20.1,30.9z
			 M20.6,28.9l-1-0.2L20,27l1,0.2L20.6,28.9z M20,26.7l0.4-1.6l1,0.2L21,26.9L20,26.7z M22.2,30.9l-1-0.2l0.4-1.6l1,0.2L22.2,30.9z
			 M22.7,28.9l-1-0.2l0.4-1.6l1,0.2L22.7,28.9z M22.1,26.7l0.4-1.6l1,0.2l-0.4,1.6L22.1,26.7z M24.3,30.9l-1-0.2l0.4-1.6l1,0.2
			L24.3,30.9z M24.8,28.9l-1-0.2l0.4-1.6l1,0.2L24.8,28.9z M25.2,26.9l-1-0.2l0.4-1.6l1,0.2L25.2,26.9z M30.7,26.5
			c-0.1,0.8-0.7,1.3-1.9,1.5c-0.1-0.2-0.2-0.4-0.3-0.6c0.2,0,0.4,0.1,0.6,0.1c0.7,0,1.1-0.4,1.1-1.1c0-1-0.6-1.8-1.6-2.7
			c0.6-0.9,1.2-1.8,1.7-2.7h-2.2v8.8c0,0.3,0,0.6,0.1,0.8h-0.6c0-0.2,0.1-0.5,0.1-0.8v-8.5c0-0.3,0-0.5-0.1-0.8
			c0.2,0,0.4,0.1,0.7,0.1h2c0.3,0,0.5,0,0.8-0.1c-0.5,0.9-1.1,1.9-1.9,3c0.9,1,1.4,1.9,1.4,2.8C30.7,26.4,30.7,26.5,30.7,26.5z
			 M31.7,30.6c0-0.2,0.1-0.5,0.1-0.8v-6.5c-0.3,0.5-0.6,1-0.9,1.4c-0.2-0.1-0.4-0.2-0.6-0.3c1-0.7,1.8-2.1,2.4-4.4l0.7,0.2
			c-0.2,0.1-0.3,0.3-0.4,0.7c-0.2,0.6-0.5,1.2-0.7,1.7v7.3c0,0.3,0,0.5,0.1,0.8H31.7z M33,25.2l0.4-0.4c0.6,0.7,1.1,1.3,1.4,1.8
			L34.4,27C34.1,26.4,33.6,25.8,33,25.2z M37.5,23.6c-0.2,0-0.5-0.1-0.8-0.1h-0.6v5.8c0,0.7-0.3,1.1-0.9,1.2c-0.1,0-0.3,0-0.5,0
			c-0.2,0-0.3,0-0.4,0c-0.1-0.2-0.1-0.4-0.2-0.6c0.2,0,0.4,0.1,0.6,0.1c0.1,0,0.2,0,0.3,0c0.4,0,0.7-0.3,0.6-0.7v-5.8h-2.2
			c-0.3,0-0.5,0-0.8,0.1V23c0.2,0,0.5,0.1,0.8,0.1h2.2v-2.2c0-0.3,0-0.5-0.1-0.8h0.6c0,0.3-0.1,0.5-0.1,0.8v2.2h0.6
			c0.3,0,0.5,0,0.8-0.1V23.6z"/>
		<path d="M38.5,7.5h-26c-2.8,0-5,2.2-5,5v26c0,2.8,2.2,5,5,5h26c2.8,0,5-2.2,5-5v-26C43.5,9.7,41.3,7.5,38.5,7.5z M41.5,38.5
			c0,1.6-1.4,3-3,3h-26c-1.7,0-3-1.4-3-3v-26c0-1.7,1.3-3,3-3h26c1.6,0,3,1.3,3,3V38.5z"/>
		<rect x="12.9" y="19" transform="matrix(0.2264 -0.974 0.974 0.2264 -8.414 28.4618)" width="1.7" height="1"/>
		<rect x="15" y="19" transform="matrix(0.2264 -0.974 0.974 0.2264 -6.7823 30.5164)" width="1.7" height="1"/>
		<rect x="17.1" y="19" transform="matrix(0.2274 -0.9738 0.9738 0.2274 -5.1625 32.5495)" width="1.7" height="1"/>
		<rect x="19.2" y="19" transform="matrix(0.2264 -0.974 0.974 0.2264 -3.518 34.6265)" width="1.7" height="1"/>
		<rect x="21.3" y="19" transform="matrix(0.2274 -0.9738 0.9738 0.2274 -1.9022 36.6588)" width="1.7" height="1"/>
		<rect x="23.4" y="19" transform="matrix(0.2264 -0.974 0.974 0.2264 -0.2537 38.7367)" width="1.7" height="1"/>
		<rect x="12.5" y="21" transform="matrix(0.2264 -0.974 0.974 0.2264 -10.6473 29.6166)" width="1.7" height="1"/>
		<rect x="14.6" y="21" transform="matrix(0.2274 -0.9738 0.9738 0.2274 -9.0248 31.6484)" width="1.7" height="1"/>
		<rect x="16.7" y="21" transform="matrix(0.2264 -0.974 0.974 0.2264 -7.3831 33.7267)" width="1.7" height="1"/>
		<rect x="18.8" y="21" transform="matrix(0.2274 -0.9738 0.9738 0.2274 -5.7645 35.7576)" width="1.7" height="1"/>
		<rect x="20.9" y="21" transform="matrix(0.2264 -0.974 0.974 0.2264 -4.1188 37.8369)" width="1.7" height="1"/>
		<rect x="23" y="21" transform="matrix(0.2274 -0.9738 0.9738 0.2274 -2.5041 39.8669)" width="1.7" height="1"/>
		<rect x="12" y="23" transform="matrix(0.2274 -0.9738 0.9738 0.2274 -12.9984 30.7008)" width="1.7" height="1"/>
		<rect x="14.1" y="23" transform="matrix(0.227 -0.9739 0.9739 0.227 -11.3649 32.7649)" width="1.7" height="1"/>
		<rect x="16.2" y="23" transform="matrix(0.227 -0.9739 0.9739 0.227 -9.7344 34.8192)" width="1.7" height="1"/>
		<rect x="18.3" y="23" transform="matrix(0.2276 -0.9738 0.9738 0.2276 -8.111 36.8586)" width="1.7" height="1"/>
		<rect x="20.4" y="23" transform="matrix(0.227 -0.9739 0.9739 0.227 -6.4725 38.9288)" width="1.7" height="1"/>
		<rect x="22.6" y="23" transform="matrix(0.2276 -0.9738 0.9738 0.2276 -4.8515 40.9676)" width="1.7" height="1"/>
		<rect x="13.5" y="25.5" transform="matrix(0.227 -0.9739 0.9739 0.227 -14.2361 34.0548)" width="1.7" height="1"/>
		<rect x="15.6" y="25.5" transform="matrix(0.227 -0.9739 0.9739 0.227 -12.6056 36.1091)" width="1.7" height="1"/>
		<rect x="17.7" y="25.5" transform="matrix(0.2276 -0.9738 0.9738 0.2276 -10.9815 38.1472)" width="1.7" height="1"/>
		<rect x="19.8" y="25.5" transform="matrix(0.227 -0.9739 0.9739 0.227 -9.3437 40.2187)" width="1.7" height="1"/>
		<rect x="21.9" y="25.5" transform="matrix(0.2276 -0.9738 0.9738 0.2276 -7.722 42.2562)" width="1.7" height="1"/>
		<rect x="24" y="25.5" transform="matrix(0.2264 -0.974 0.974 0.2264 -6.0711 44.3465)" width="1.7" height="1"/>
		<rect x="13.1" y="27.5" transform="matrix(0.2274 -0.9738 0.9738 0.2274 -16.4713 35.1973)" width="1.7" height="1"/>
		<rect x="15.2" y="27.5" transform="matrix(0.2274 -0.9738 0.9738 0.2274 -14.8411 37.2519)" width="1.7" height="1"/>
		<rect x="17.3" y="27.5" transform="matrix(0.2274 -0.9738 0.9738 0.2274 -13.2109 39.3065)" width="1.7" height="1"/>
		<rect x="19.4" y="27.5" transform="matrix(0.2274 -0.9738 0.9738 0.2274 -11.5808 41.3611)" width="1.7" height="1"/>
		<rect x="21.5" y="27.5" transform="matrix(0.2274 -0.9738 0.9738 0.2274 -9.9506 43.4157)" width="1.7" height="1"/>
		<rect x="23.7" y="27.5" transform="matrix(0.2274 -0.9738 0.9738 0.2274 -8.3204 45.4703)" width="1.7" height="1"/>
		<rect x="12.6" y="29.5" transform="matrix(0.2274 -0.9738 0.9738 0.2274 -18.8145 36.3041)" width="1.7" height="1"/>
		<rect x="14.7" y="29.5" transform="matrix(0.2264 -0.974 0.974 0.2264 -17.1764 38.3898)" width="1.7" height="1"/>
		<rect x="16.8" y="29.5" transform="matrix(0.2264 -0.974 0.974 0.2264 -15.5446 40.4444)" width="1.7" height="1"/>
		<rect x="19" y="29.5" transform="matrix(0.2274 -0.9738 0.9738 0.2274 -13.9243 42.4674)" width="1.7" height="1"/>
		<rect x="21.1" y="29.5" transform="matrix(0.2264 -0.974 0.974 0.2264 -12.2804 44.5545)" width="1.7" height="1"/>
		<rect x="23.2" y="29.5" transform="matrix(0.2274 -0.9738 0.9738 0.2274 -10.664 46.5766)" width="1.7" height="1"/>
		<path d="M34.8,26.7c-0.3-0.5-0.8-1.1-1.4-1.8L33,25.2c0.6,0.6,1.1,1.2,1.3,1.8L34.8,26.7z"/>
		<path d="M31.2,20.6c-0.3,0-0.6,0.1-0.8,0.1h-2c-0.3,0-0.5,0-0.7-0.1c0,0.3,0.1,0.6,0.1,0.8v8.5c0,0.3,0,0.6-0.1,0.8h0.6
			c0-0.2-0.1-0.5-0.1-0.8v-8.8h2.2c-0.5,0.9-1,1.8-1.7,2.7c1,0.8,1.6,1.7,1.6,2.7c-0.1,0.7-0.4,1.1-1.1,1.1c-0.2,0-0.4,0-0.6-0.1
			c0.1,0.2,0.2,0.4,0.3,0.6c1.1-0.1,1.8-0.6,1.9-1.5c0-0.1,0-0.1,0-0.2c0-0.8-0.5-1.8-1.4-2.8C30,22.4,30.6,21.4,31.2,20.6z"/>
		<path d="M36.1,23.1v-2.2c0-0.2,0-0.5,0.1-0.8h-0.6c0,0.2,0.1,0.5,0.1,0.8v2.2h-2.2c-0.3,0-0.6,0-0.8-0.1v0.5
			c0.2,0,0.5-0.1,0.8-0.1h2.2v5.8c0,0.4-0.2,0.6-0.6,0.7c-0.1,0-0.2,0-0.3,0c-0.2,0-0.4,0-0.6-0.1c0.1,0.2,0.2,0.4,0.2,0.6
			c0.1,0,0.2,0,0.4,0c0.2,0,0.3,0,0.5,0c0.6-0.1,0.9-0.5,0.9-1.2v-5.8h0.6c0.3,0,0.5,0,0.8,0.1V23c-0.2,0-0.5,0.1-0.8,0.1H36.1z"/>
		<path d="M32.2,22.5c0.2-0.5,0.4-1,0.7-1.7c0.1-0.3,0.3-0.5,0.4-0.7L32.6,20c-0.6,2.3-1.4,3.7-2.4,4.4c0.2,0.1,0.4,0.2,0.6,0.3
			c0.3-0.4,0.6-0.8,0.9-1.4v6.5c0,0.3,0,0.6-0.1,0.8h0.5c0-0.2-0.1-0.5-0.1-0.8V22.5z"/>
	</g>
	<g>
		<g>
			<path class="st1" d="M37.5,8.5h-26c-1.7,0-3,1.3-3,3v26c0,1.6,1.3,3,3,3h26c1.6,0,3-1.4,3-3v-26C40.5,9.8,39.1,8.5,37.5,8.5z
				 M23,17.6l1,0.2l-0.4,1.6l-1-0.2L23,17.6z M22.6,19.6l1,0.2l-0.4,1.6l-1-0.2L22.6,19.6z M23.1,21.8l-0.4,1.6l-1-0.2l0.4-1.6
				L23.1,21.8z M20.9,17.6l1,0.2l-0.4,1.6l-1-0.2L20.9,17.6z M20.5,19.6l1,0.2l-0.4,1.6l-1-0.2L20.5,19.6z M21,21.8l-0.4,1.6l-1-0.2
				l0.4-1.6L21,21.8z M18.7,17.6l1,0.2l-0.4,1.6l-1-0.2L18.7,17.6z M18.4,19.6l1,0.2l-0.4,1.6l-1-0.2L18.4,19.6z M18.9,21.8
				l-0.4,1.6l-1-0.2l0.4-1.6L18.9,21.8z M16.6,17.6l1,0.2l-0.4,1.6l-1-0.2L16.6,17.6z M16.2,19.6l1,0.2l-0.4,1.6l-1-0.2L16.2,19.6z
				 M16.7,21.8l-0.4,1.6l-1-0.2l0.4-1.6L16.7,21.8z M14.5,17.6l1,0.2l-0.4,1.6l-1-0.2L14.5,17.6z M14.1,19.6l1,0.2l-0.4,1.6l-1-0.2
				L14.1,19.6z M14.6,21.8l-0.4,1.6l-1-0.2l0.4-1.6L14.6,21.8z M12.4,17.6l1,0.2L13,19.5l-1-0.2L12.4,17.6z M12,19.6l1,0.2l-0.4,1.6
				l-1-0.2L12,19.6z M11.2,23.2l0.4-1.6l1,0.2l-0.4,1.6L11.2,23.2z M12.8,29.9l-1-0.2l0.4-1.6l1,0.2L12.8,29.9z M13.2,27.9l-1-0.2
				l0.4-1.6l1,0.2L13.2,27.9z M12.7,25.7l0.4-1.6l1,0.2l-0.4,1.6L12.7,25.7z M14.9,29.9l-1-0.2l0.4-1.6l1,0.2L14.9,29.9z M15.4,27.9
				l-1-0.2l0.4-1.6l1,0.2L15.4,27.9z M14.8,25.7l0.4-1.6l1,0.2l-0.4,1.6L14.8,25.7z M17,29.9l-1-0.2l0.4-1.6l1,0.2L17,29.9z
				 M17.5,27.9l-1-0.2l0.4-1.6l1,0.2L17.5,27.9z M16.9,25.7l0.4-1.6l1,0.2l-0.4,1.6L16.9,25.7z M19.1,29.9l-1-0.2l0.4-1.6l1,0.2
				L19.1,29.9z M19.6,27.9l-1-0.2L19,26l1,0.2L19.6,27.9z M19,25.7l0.4-1.6l1,0.2L20,25.9L19,25.7z M21.2,29.9l-1-0.2l0.4-1.6l1,0.2
				L21.2,29.9z M21.7,27.9l-1-0.2l0.4-1.6l1,0.2L21.7,27.9z M21.1,25.7l0.4-1.6l1,0.2l-0.4,1.6L21.1,25.7z M23.3,29.9l-1-0.2
				l0.4-1.6l1,0.2L23.3,29.9z M23.8,27.9l-1-0.2l0.4-1.6l1,0.2L23.8,27.9z M24.2,25.9l-1-0.2l0.4-1.6l1,0.2L24.2,25.9z M29.7,25.5
				c-0.1,0.8-0.7,1.3-1.9,1.5c-0.1-0.2-0.2-0.4-0.3-0.6c0.2,0,0.4,0.1,0.6,0.1c0.7,0,1.1-0.4,1.1-1.1c0-1-0.6-1.8-1.6-2.7
				c0.6-0.9,1.2-1.8,1.7-2.7h-2.2v8.8c0,0.3,0,0.6,0.1,0.8h-0.6c0-0.2,0.1-0.5,0.1-0.8v-8.5c0-0.3,0-0.5-0.1-0.8
				c0.2,0,0.4,0.1,0.7,0.1h2c0.3,0,0.5,0,0.8-0.1c-0.5,0.9-1.1,1.9-1.9,3c0.9,1,1.4,1.9,1.4,2.8C29.7,25.4,29.7,25.5,29.7,25.5z
				 M30.7,29.6c0-0.2,0.1-0.5,0.1-0.8v-6.5c-0.3,0.5-0.6,1-0.9,1.4c-0.2-0.1-0.4-0.2-0.6-0.3c1-0.7,1.8-2.1,2.4-4.4l0.7,0.2
				c-0.2,0.1-0.3,0.3-0.4,0.7c-0.2,0.6-0.5,1.2-0.7,1.7v7.3c0,0.3,0,0.5,0.1,0.8H30.7z M32,24.2l0.4-0.4c0.6,0.7,1.1,1.3,1.4,1.8
				L33.4,26C33.1,25.4,32.6,24.8,32,24.2z M36.5,22.6c-0.2,0-0.5-0.1-0.8-0.1h-0.6v5.8c0,0.7-0.3,1.1-0.9,1.2c-0.1,0-0.3,0-0.5,0
				c-0.2,0-0.3,0-0.4,0c-0.1-0.2-0.1-0.4-0.2-0.6c0.2,0,0.4,0.1,0.6,0.1c0.1,0,0.2,0,0.3,0c0.4,0,0.7-0.3,0.6-0.7v-5.8h-2.2
				c-0.3,0-0.5,0-0.8,0.1V22c0.2,0,0.5,0.1,0.8,0.1h2.2v-2.2c0-0.3,0-0.5-0.1-0.8h0.6c0,0.3-0.1,0.5-0.1,0.8v2.2h0.6
				c0.3,0,0.5,0,0.8-0.1V22.6z"/>
			<path class="st2" d="M37.5,6.5h-26c-2.8,0-5,2.2-5,5v26c0,2.8,2.2,5,5,5h26c2.8,0,5-2.2,5-5v-26C42.5,8.7,40.3,6.5,37.5,6.5z
				 M40.5,37.5c0,1.6-1.4,3-3,3h-26c-1.7,0-3-1.4-3-3v-26c0-1.7,1.3-3,3-3h26c1.6,0,3,1.3,3,3V37.5z"/>
			<rect x="11.9" y="18" transform="matrix(0.2264 -0.974 0.974 0.2264 -8.2136 26.7142)" class="st2" width="1.7" height="1"/>
			<rect x="14" y="18" transform="matrix(0.2264 -0.974 0.974 0.2264 -6.5818 28.7688)" class="st2" width="1.7" height="1"/>
			<rect x="16.1" y="18" transform="matrix(0.2274 -0.9738 0.9738 0.2274 -4.9613 30.8031)" class="st2" width="1.7" height="1"/>
			<rect x="18.2" y="18" transform="matrix(0.2264 -0.974 0.974 0.2264 -3.3175 32.8789)" class="st2" width="1.7" height="1"/>
			<rect x="20.3" y="18" transform="matrix(0.2274 -0.9738 0.9738 0.2274 -1.701 34.9123)" class="st2" width="1.7" height="1"/>
			
				<rect x="22.4" y="18" transform="matrix(0.2264 -0.974 0.974 0.2264 -5.327559e-02 36.9891)" class="st2" width="1.7" height="1"/>
			<rect x="11.5" y="20" transform="matrix(0.2264 -0.974 0.974 0.2264 -10.4469 27.869)" class="st2" width="1.7" height="1"/>
			<rect x="13.6" y="20" transform="matrix(0.2274 -0.9738 0.9738 0.2274 -8.8237 29.902)" class="st2" width="1.7" height="1"/>
			<rect x="15.7" y="20" transform="matrix(0.2264 -0.974 0.974 0.2264 -7.1826 31.9791)" class="st2" width="1.7" height="1"/>
			<rect x="17.8" y="20" transform="matrix(0.2274 -0.9738 0.9738 0.2274 -5.5633 34.0112)" class="st2" width="1.7" height="1"/>
			<rect x="19.9" y="20" transform="matrix(0.2264 -0.974 0.974 0.2264 -3.9183 36.0893)" class="st2" width="1.7" height="1"/>
			<rect x="22" y="20" transform="matrix(0.2274 -0.9738 0.9738 0.2274 -2.303 38.1204)" class="st2" width="1.7" height="1"/>
			<rect x="11" y="22" transform="matrix(0.2274 -0.9738 0.9738 0.2274 -12.7973 28.9543)" class="st2" width="1.7" height="1"/>
			<rect x="13.1" y="22" transform="matrix(0.227 -0.9739 0.9739 0.227 -11.164 31.018)" class="st2" width="1.7" height="1"/>
			<rect x="15.2" y="22" transform="matrix(0.227 -0.9739 0.9739 0.227 -9.5335 33.0723)" class="st2" width="1.7" height="1"/>
			<rect x="17.3" y="22" transform="matrix(0.2276 -0.9738 0.9738 0.2276 -7.9097 35.1124)" class="st2" width="1.7" height="1"/>
			<rect x="19.4" y="22" transform="matrix(0.227 -0.9739 0.9739 0.227 -6.2716 37.1819)" class="st2" width="1.7" height="1"/>
			<rect x="21.6" y="22" transform="matrix(0.2276 -0.9738 0.9738 0.2276 -4.6502 39.2214)" class="st2" width="1.7" height="1"/>
			<rect x="12.5" y="24.5" transform="matrix(0.227 -0.9739 0.9739 0.227 -14.0352 32.3079)" class="st2" width="1.7" height="1"/>
			<rect x="14.6" y="24.5" transform="matrix(0.227 -0.9739 0.9739 0.227 -12.4047 34.3622)" class="st2" width="1.7" height="1"/>
			<rect x="16.7" y="24.5" transform="matrix(0.2276 -0.9738 0.9738 0.2276 -10.7802 36.401)" class="st2" width="1.7" height="1"/>
			<rect x="18.8" y="24.5" transform="matrix(0.227 -0.9739 0.9739 0.227 -9.1428 38.4718)" class="st2" width="1.7" height="1"/>
			<rect x="20.9" y="24.5" transform="matrix(0.2276 -0.9738 0.9738 0.2276 -7.5207 40.51)" class="st2" width="1.7" height="1"/>
			<rect x="23" y="24.5" transform="matrix(0.2264 -0.974 0.974 0.2264 -5.8706 42.5989)" class="st2" width="1.7" height="1"/>
			
				<rect x="12.1" y="26.5" transform="matrix(0.2274 -0.9738 0.9738 0.2274 -16.2701 33.4508)" class="st2" width="1.7" height="1"/>
			<rect x="14.2" y="26.5" transform="matrix(0.2274 -0.9738 0.9738 0.2274 -14.64 35.5054)" class="st2" width="1.7" height="1"/>
			<rect x="16.3" y="26.5" transform="matrix(0.2274 -0.9738 0.9738 0.2274 -13.0098 37.56)" class="st2" width="1.7" height="1"/>
			
				<rect x="18.4" y="26.5" transform="matrix(0.2274 -0.9738 0.9738 0.2274 -11.3796 39.6147)" class="st2" width="1.7" height="1"/>
			<rect x="20.5" y="26.5" transform="matrix(0.2274 -0.9738 0.9738 0.2274 -9.7494 41.6693)" class="st2" width="1.7" height="1"/>
			<rect x="22.7" y="26.5" transform="matrix(0.2274 -0.9738 0.9738 0.2274 -8.1192 43.7239)" class="st2" width="1.7" height="1"/>
			
				<rect x="11.6" y="28.5" transform="matrix(0.2274 -0.9738 0.9738 0.2274 -18.6133 34.5576)" class="st2" width="1.7" height="1"/>
			<rect x="13.7" y="28.5" transform="matrix(0.2264 -0.974 0.974 0.2264 -16.9759 36.6422)" class="st2" width="1.7" height="1"/>
			<rect x="15.8" y="28.5" transform="matrix(0.2264 -0.974 0.974 0.2264 -15.3442 38.6968)" class="st2" width="1.7" height="1"/>
			<rect x="18" y="28.5" transform="matrix(0.2274 -0.9738 0.9738 0.2274 -13.7232 40.721)" class="st2" width="1.7" height="1"/>
			<rect x="20.1" y="28.5" transform="matrix(0.2264 -0.974 0.974 0.2264 -12.0799 42.8069)" class="st2" width="1.7" height="1"/>
			
				<rect x="22.2" y="28.5" transform="matrix(0.2274 -0.9738 0.9738 0.2274 -10.4628 44.8302)" class="st2" width="1.7" height="1"/>
			<path class="st2" d="M33.8,25.7c-0.3-0.5-0.8-1.1-1.4-1.8L32,24.2c0.6,0.6,1.1,1.2,1.3,1.8L33.8,25.7z"/>
			<path class="st2" d="M30.2,19.6c-0.3,0-0.6,0.1-0.8,0.1h-2c-0.3,0-0.5,0-0.7-0.1c0,0.3,0.1,0.6,0.1,0.8v8.5c0,0.3,0,0.6-0.1,0.8
				h0.6c0-0.2-0.1-0.5-0.1-0.8v-8.8h2.2c-0.5,0.9-1,1.8-1.7,2.7c1,0.8,1.6,1.7,1.6,2.7c-0.1,0.7-0.4,1.1-1.1,1.1
				c-0.2,0-0.4,0-0.6-0.1c0.1,0.2,0.2,0.4,0.3,0.6c1.1-0.1,1.8-0.6,1.9-1.5c0-0.1,0-0.1,0-0.2c0-0.8-0.5-1.8-1.4-2.8
				C29,21.4,29.6,20.4,30.2,19.6z"/>
			<path class="st2" d="M35.1,22.1v-2.2c0-0.2,0-0.5,0.1-0.8h-0.6c0,0.2,0.1,0.5,0.1,0.8v2.2h-2.2c-0.3,0-0.6,0-0.8-0.1v0.5
				c0.2,0,0.5-0.1,0.8-0.1h2.2v5.8c0,0.4-0.2,0.6-0.6,0.7c-0.1,0-0.2,0-0.3,0c-0.2,0-0.4,0-0.6-0.1c0.1,0.2,0.2,0.4,0.2,0.6
				c0.1,0,0.2,0,0.4,0c0.2,0,0.3,0,0.5,0c0.6-0.1,0.9-0.5,0.9-1.2v-5.8h0.6c0.3,0,0.5,0,0.8,0.1V22c-0.2,0-0.5,0.1-0.8,0.1H35.1z"/>
			<path class="st2" d="M31.2,21.5c0.2-0.5,0.4-1,0.7-1.7c0.1-0.3,0.3-0.5,0.4-0.7L31.6,19c-0.6,2.3-1.4,3.7-2.4,4.4
				c0.2,0.1,0.4,0.2,0.6,0.3c0.3-0.4,0.6-0.8,0.9-1.4v6.5c0,0.3,0,0.6-0.1,0.8h0.5c0-0.2-0.1-0.5-0.1-0.8V21.5z"/>
		</g>
	</g>
</g>
</svg>
