<?xml version="1.0" encoding="utf-8"?>
<!-- Generator: Adobe Illustrator 21.0.2, SVG Export Plug-In . SVG Version: 6.00 Build 0)  -->
<svg version="1.1" id="图层_1" xmlns="http://www.w3.org/2000/svg" xmlns:xlink="http://www.w3.org/1999/xlink" x="0px" y="0px"
	 viewBox="0 0 50 50" style="enable-background:new 0 0 50 50;" xml:space="preserve">
<style type="text/css">
	.st0{opacity:0.2;}
	.st1{fill:#FFFFFF;}
	.st2{fill:#22AC38;}
</style>
<g>
	<g class="st0">
		<path d="M38.5,9.5h-26c-1.6,0-3,1.3-3,3v26c0,0.2,0,0.4,0.1,0.6c0.1,0.5,0.3,0.9,0.6,1.3c0.1,0.1,0.3,0.3,0.4,0.4
			c0.5,0.4,1.2,0.7,1.9,0.7h26c0.8,0,1.6-0.3,2.1-0.9c0.4-0.4,0.7-0.9,0.8-1.5c0-0.2,0.1-0.4,0.1-0.6v-26
			C41.5,10.8,40.2,9.5,38.5,9.5z M36.5,26H34v0.5h-1.8l-1.1,1.1l-0.7-0.7l0.6-0.6V26h-4.1v0.5h-2l-1.1,1.1l-0.7-0.7l0.7-0.7V26h-4.1
			v0.5h-1.8L17,27.6l-0.7-0.7l0.6-0.6V26h-2.4v-1h2.4v-0.5h1.8l1.1-1.1l0.7,0.7l-0.6,0.6V25h4.1v-0.5h1.6l1.1-1.1l0.7,0.7l-0.4,0.4
			V25H31v-0.5h1.8l1.1-1.1l0.7,0.7L34,24.7V25h2.5V26z"/>
		<path d="M38.5,7.5h-26c-2.8,0-5,2.2-5,5v26c0,2.8,2.2,5,5,5h26c2.8,0,5-2.2,5-5v-26C43.5,9.7,41.3,7.5,38.5,7.5z M41.5,38.5
			L41.5,38.5c0,0.2,0,0.4-0.1,0.6c-0.1,0.6-0.4,1.1-0.8,1.5c-0.5,0.5-1.3,0.9-2.1,0.9h-26c-0.7,0-1.4-0.3-1.9-0.7
			c-0.1-0.1-0.3-0.3-0.4-0.4c-0.3-0.4-0.5-0.8-0.6-1.3c0-0.2-0.1-0.4-0.1-0.6v0v-26c0-1.7,1.4-3,3-3h26c1.7,0,3,1.3,3,3V38.5z"/>
		<polygon points="34,24.7 34.6,24.2 33.9,23.4 32.8,24.5 31,24.5 31,25 26.9,25 26.9,24.5 27.3,24.2 26.6,23.4 25.5,24.5 
			23.9,24.5 23.9,25 19.9,25 19.9,24.7 20.4,24.2 19.7,23.4 18.6,24.5 16.9,24.5 16.9,25 14.5,25 14.5,26 16.9,26 16.9,26.3 
			16.3,26.8 17,27.6 18.1,26.5 19.9,26.5 19.9,26 23.9,26 23.9,26.1 23.2,26.8 23.9,27.6 25,26.5 26.9,26.5 26.9,26 31,26 31,26.3 
			30.5,26.8 31.2,27.6 32.2,26.5 34,26.5 34,26 36.5,26 36.5,25 34,25 		"/>
	</g>
	<g>
		<g>
			<path class="st1" d="M37.5,8.5h-26c-1.6,0-3,1.3-3,3v26c0,0.2,0,0.4,0.1,0.6c0.1,0.5,0.3,0.9,0.6,1.3c0.1,0.1,0.3,0.3,0.4,0.4
				c0.5,0.4,1.2,0.7,1.9,0.7h26c0.8,0,1.6-0.3,2.1-0.9c0.4-0.4,0.7-0.9,0.8-1.5c0-0.2,0.1-0.4,0.1-0.6v-26
				C40.5,9.8,39.2,8.5,37.5,8.5z M35.5,25H33v0.5h-1.8l-1.1,1.1l-0.7-0.7l0.6-0.6V25h-4.1v0.5h-2l-1.1,1.1l-0.7-0.7l0.7-0.7V25h-4.1
				v0.5h-1.8L16,26.6l-0.7-0.7l0.6-0.6V25h-2.4v-1h2.4v-0.5h1.8l1.1-1.1l0.7,0.7l-0.6,0.6V24h4.1v-0.5h1.6l1.1-1.1l0.7,0.7l-0.4,0.4
				V24H30v-0.5h1.8l1.1-1.1l0.7,0.7L33,23.7V24h2.5V25z"/>
			<path class="st2" d="M37.5,6.5h-26c-2.8,0-5,2.2-5,5v26c0,2.8,2.2,5,5,5h26c2.8,0,5-2.2,5-5v-26C42.5,8.7,40.3,6.5,37.5,6.5z
				 M40.5,37.5L40.5,37.5c0,0.2,0,0.4-0.1,0.6c-0.1,0.6-0.4,1.1-0.8,1.5c-0.5,0.5-1.3,0.9-2.1,0.9h-26c-0.7,0-1.4-0.3-1.9-0.7
				c-0.1-0.1-0.3-0.3-0.4-0.4c-0.3-0.4-0.5-0.8-0.6-1.3c0-0.2-0.1-0.4-0.1-0.6v0v-26c0-1.7,1.4-3,3-3h26c1.7,0,3,1.3,3,3V37.5z"/>
			<polygon class="st2" points="33,23.7 33.6,23.2 32.9,22.4 31.8,23.5 30,23.5 30,24 25.9,24 25.9,23.5 26.3,23.2 25.6,22.4 
				24.5,23.5 22.9,23.5 22.9,24 18.9,24 18.9,23.7 19.4,23.2 18.7,22.4 17.6,23.5 15.9,23.5 15.9,24 13.5,24 13.5,25 15.9,25 
				15.9,25.3 15.3,25.8 16,26.6 17.1,25.5 18.9,25.5 18.9,25 22.9,25 22.9,25.1 22.2,25.8 22.9,26.6 24,25.5 25.9,25.5 25.9,25 
				30,25 30,25.3 29.5,25.8 30.2,26.6 31.2,25.5 33,25.5 33,25 35.5,25 35.5,24 33,24 			"/>
		</g>
	</g>
</g>
</svg>
