<?xml version="1.0" encoding="utf-8"?>
<!-- Generator: Adobe Illustrator 21.0.2, SVG Export Plug-In . SVG Version: 6.00 Build 0)  -->
<svg version="1.1" id="图层_1" xmlns="http://www.w3.org/2000/svg" xmlns:xlink="http://www.w3.org/1999/xlink" x="0px" y="0px"
	 viewBox="0 0 50 50" style="enable-background:new 0 0 50 50;" xml:space="preserve">
<style type="text/css">
	.st0{opacity:0.2;}
	.st1{fill:#FFFFFF;}
	.st2{fill:#F93E54;}
</style>
<g>
	<g class="st0">
		<path d="M25.5,20.5c-0.7,0-1.4,0.1-2,0.4c-2.5,1.1-3.7,4.1-2.5,6.6c0.8,1.9,2.7,3,4.6,3c0.7,0,1.4-0.1,2-0.4
			c2.5-1.1,3.7-4.1,2.5-6.6C29.2,21.6,27.4,20.5,25.5,20.5z"/>
		<path d="M40.2,10c-0.2-0.1-0.3-0.2-0.5-0.3c-0.4-0.2-0.8-0.2-1.2-0.2h-26c-1.7,0-3,1.3-3,3v26c0,1.7,1.3,3,3,3h26
			c0.4,0,0.8-0.1,1.2-0.2c0.2-0.1,0.3-0.2,0.5-0.3c0.3-0.2,0.6-0.5,0.8-0.8c0.3-0.5,0.5-1.1,0.5-1.7v-26c0-0.6-0.2-1.2-0.5-1.7
			C40.8,10.5,40.5,10.2,40.2,10z M25.5,36.5c-6.1,0-11-4.9-11-11s4.9-11,11-11s11,4.9,11,11S31.6,36.5,25.5,36.5z"/>
		<path d="M25.5,15.5c-5.5,0-10,4.5-10,10s4.5,10,10,10s10-4.5,10-10S31,15.5,25.5,15.5z M31.1,27.6c-0.6,1.5-1.7,2.7-3.2,3.3
			c-0.8,0.3-1.6,0.5-2.4,0.5c-2.4,0-4.5-1.4-5.5-3.6c-0.7-1.5-0.7-3.1-0.1-4.6c0.6-1.5,1.7-2.7,3.2-3.3c0.8-0.3,1.6-0.5,2.4-0.5h0
			c2.4,0,4.5,1.4,5.5,3.6C31.6,24.5,31.7,26.1,31.1,27.6z"/>
		<path d="M38.5,7.5h-26c-2.8,0-5,2.2-5,5v26c0,2.8,2.2,5,5,5h26c2.8,0,5-2.2,5-5v-26C43.5,9.7,41.3,7.5,38.5,7.5z M41.5,38.5
			c0,0.6-0.2,1.2-0.5,1.7c-0.2,0.3-0.5,0.6-0.8,0.8c-0.2,0.1-0.3,0.2-0.5,0.3c-0.4,0.2-0.8,0.2-1.2,0.2h-26c-1.7,0-3-1.3-3-3v-26
			c0-1.7,1.3-3,3-3h26c0.4,0,0.8,0.1,1.2,0.2c0.2,0.1,0.3,0.2,0.5,0.3c0.3,0.2,0.6,0.5,0.8,0.8c0.3,0.5,0.5,1.1,0.5,1.7V38.5z"/>
		<path d="M25.5,14.5c-6.1,0-11,4.9-11,11s4.9,11,11,11s11-4.9,11-11S31.6,14.5,25.5,14.5z M25.5,35.5c-5.5,0-10-4.5-10-10
			s4.5-10,10-10s10,4.5,10,10S31,35.5,25.5,35.5z"/>
		<path d="M25.5,19.5L25.5,19.5c-0.8,0-1.7,0.2-2.4,0.5c-1.5,0.7-2.6,1.8-3.2,3.3c-0.6,1.5-0.5,3.1,0.1,4.6c1,2.2,3.1,3.6,5.5,3.6
			c0.8,0,1.7-0.2,2.4-0.5c1.5-0.7,2.6-1.8,3.2-3.3c0.6-1.5,0.5-3.1-0.1-4.6C30,20.9,27.9,19.5,25.5,19.5z M27.5,30.1
			c-0.7,0.3-1.4,0.4-2,0.4c-1.9,0-3.7-1.1-4.6-3c-1.1-2.5,0-5.5,2.5-6.6c0.7-0.3,1.4-0.4,2-0.4c1.9,0,3.7,1.1,4.6,3
			C31.2,26,30.1,28.9,27.5,30.1z"/>
	</g>
	<g>
		<g>
			<path class="st1" d="M24.5,19.5c-0.7,0-1.4,0.1-2,0.4c-2.5,1.1-3.7,4.1-2.5,6.6c0.8,1.9,2.7,3,4.6,3c0.7,0,1.4-0.1,2-0.4
				c2.5-1.1,3.7-4.1,2.5-6.6C28.2,20.6,26.4,19.5,24.5,19.5z"/>
			<path class="st1" d="M39.2,9c-0.2-0.1-0.3-0.2-0.5-0.3c-0.4-0.2-0.8-0.2-1.2-0.2h-26c-1.7,0-3,1.3-3,3v26c0,1.7,1.3,3,3,3h26
				c0.4,0,0.8-0.1,1.2-0.2c0.2-0.1,0.3-0.2,0.5-0.3c0.3-0.2,0.6-0.5,0.8-0.8c0.3-0.5,0.5-1.1,0.5-1.7v-26c0-0.6-0.2-1.2-0.5-1.7
				C39.8,9.5,39.5,9.2,39.2,9z M24.5,35.5c-6.1,0-11-4.9-11-11s4.9-11,11-11s11,4.9,11,11S30.6,35.5,24.5,35.5z"/>
			<path class="st1" d="M24.5,14.5c-5.5,0-10,4.5-10,10s4.5,10,10,10s10-4.5,10-10S30,14.5,24.5,14.5z M30.1,26.6
				c-0.6,1.5-1.7,2.7-3.2,3.3c-0.8,0.3-1.6,0.5-2.4,0.5c-2.4,0-4.5-1.4-5.5-3.6c-0.7-1.5-0.7-3.1-0.1-4.6c0.6-1.5,1.7-2.7,3.2-3.3
				c0.8-0.3,1.6-0.5,2.4-0.5h0c2.4,0,4.5,1.4,5.5,3.6C30.6,23.5,30.7,25.1,30.1,26.6z"/>
			<path class="st2" d="M37.5,6.5h-26c-2.8,0-5,2.2-5,5v26c0,2.8,2.2,5,5,5h26c2.8,0,5-2.2,5-5v-26C42.5,8.7,40.3,6.5,37.5,6.5z
				 M40.5,37.5c0,0.6-0.2,1.2-0.5,1.7c-0.2,0.3-0.5,0.6-0.8,0.8c-0.2,0.1-0.3,0.2-0.5,0.3c-0.4,0.2-0.8,0.2-1.2,0.2h-26
				c-1.7,0-3-1.3-3-3v-26c0-1.7,1.3-3,3-3h26c0.4,0,0.8,0.1,1.2,0.2C38.8,8.8,39,8.9,39.2,9c0.3,0.2,0.6,0.5,0.8,0.8
				c0.3,0.5,0.5,1.1,0.5,1.7V37.5z"/>
			<path class="st2" d="M24.5,13.5c-6.1,0-11,4.9-11,11s4.9,11,11,11s11-4.9,11-11S30.6,13.5,24.5,13.5z M24.5,34.5
				c-5.5,0-10-4.5-10-10s4.5-10,10-10s10,4.5,10,10S30,34.5,24.5,34.5z"/>
			<path class="st2" d="M24.5,18.5L24.5,18.5c-0.8,0-1.7,0.2-2.4,0.5c-1.5,0.7-2.6,1.8-3.2,3.3c-0.6,1.5-0.5,3.1,0.1,4.6
				c1,2.2,3.1,3.6,5.5,3.6c0.8,0,1.7-0.2,2.4-0.5c1.5-0.7,2.6-1.8,3.2-3.3c0.6-1.5,0.5-3.1-0.1-4.6C29,19.9,26.9,18.5,24.5,18.5z
				 M26.5,29.1c-0.7,0.3-1.4,0.4-2,0.4c-1.9,0-3.7-1.1-4.6-3c-1.1-2.5,0-5.5,2.5-6.6c0.7-0.3,1.4-0.4,2-0.4c1.9,0,3.7,1.1,4.6,3
				C30.2,25,29.1,27.9,26.5,29.1z"/>
		</g>
	</g>
</g>
</svg>
