<?xml version="1.0" encoding="utf-8"?>
<!-- Generator: Adobe Illustrator 21.0.2, SVG Export Plug-In . SVG Version: 6.00 Build 0)  -->
<svg version="1.1" id="图层_1" xmlns="http://www.w3.org/2000/svg" xmlns:xlink="http://www.w3.org/1999/xlink" x="0px" y="0px"
	 viewBox="0 0 50 50" style="enable-background:new 0 0 50 50;" xml:space="preserve">
<style type="text/css">
	.st0{opacity:0.2;}
	.st1{fill:#FFFFFF;}
	.st2{fill:#F93E54;}
</style>
<g>
	<g class="st0">
		<path d="M38.5,9.5h-26c-1.6,0-3,1.3-3,3v26c0,0.2,0,0.4,0.1,0.6c0.1,0.5,0.3,0.9,0.6,1.3c0.1,0.1,0.3,0.3,0.4,0.4
			c0.5,0.4,1.2,0.7,1.9,0.7h26c0.8,0,1.6-0.3,2.1-0.9c0.4-0.4,0.7-0.9,0.8-1.5c0-0.2,0.1-0.4,0.1-0.6v-26
			C41.5,10.8,40.2,9.5,38.5,9.5z M25.5,14.7l9,5h-18L25.5,14.7z M35.5,36.3h-20v-2h1.4v-1.3h1.6V20.2h1v12.9h1.3V20.2h3.9v1.6
			c-1.4,0.4-2.2,1.4-2.2,2.7c0,1.7,1.4,2.4,2.7,3c1.2,0.5,1.4,0.9,1.4,1.3c0,0.6-0.5,1-1.3,1c-0.7,0-1.3-0.2-1.9-0.6l-0.5-0.3
			l-0.7,1.9l0.3,0.2c0.5,0.3,1.3,0.6,2.1,0.7v1.4h1.8v-1.5c1.4-0.4,2.3-1.5,2.3-2.9c0-1.8-1.4-2.6-2.6-3.1c-1.3-0.5-1.5-0.8-1.5-1.3
			c0-0.2,0.1-0.8,1.1-0.8c0.8,0,1.3,0.2,1.6,0.4l0.5,0.3l0.7-1.8l-0.3-0.2c-0.5-0.3-1.1-0.5-1.7-0.5v-1.5h3.7v12.9h1.1V20.2h1v12.9
			h1.8v1.3h1.4V36.3z"/>
		<path d="M38.5,7.5h-26c-2.8,0-5,2.2-5,5v26c0,2.8,2.2,5,5,5h26c2.8,0,5-2.2,5-5v-26C43.5,9.7,41.3,7.5,38.5,7.5z M41.5,38.5
			L41.5,38.5c0,0.2,0,0.4-0.1,0.6c-0.1,0.6-0.4,1.1-0.8,1.5c-0.5,0.5-1.3,0.9-2.1,0.9h-26c-0.7,0-1.4-0.3-1.9-0.7
			c-0.1-0.1-0.3-0.3-0.4-0.4c-0.3-0.4-0.5-0.8-0.6-1.3c0-0.2-0.1-0.4-0.1-0.6v0v-26c0-1.7,1.4-3,3-3h26c1.7,0,3,1.3,3,3V38.5z"/>
		<path d="M34.1,33.1h-1.8V20.2h-1v12.9h-1.1V20.2h-3.7v1.5c0.6,0.1,1.2,0.3,1.7,0.5l0.3,0.2l-0.7,1.8L27.4,24
			c-0.3-0.2-0.8-0.4-1.6-0.4c-1,0-1.1,0.6-1.1,0.8c0,0.4,0.2,0.7,1.5,1.3c1.2,0.5,2.6,1.3,2.6,3.1c0,1.4-0.9,2.5-2.3,2.9v1.5h-1.8
			v-1.4c-0.8-0.1-1.6-0.3-2.1-0.7l-0.3-0.2l0.7-1.9l0.5,0.3c0.5,0.4,1.2,0.6,1.9,0.6c0.8,0,1.3-0.4,1.3-1c0-0.4-0.2-0.8-1.4-1.3
			c-1.3-0.5-2.7-1.3-2.7-3c0-1.3,0.9-2.4,2.2-2.7v-1.6h-3.9v12.9h-1.3V20.2h-1v12.9h-1.6v1.3h-1.4v2h20v-2h-1.4V33.1z"/>
		<polygon points="25.5,14.7 16.5,19.7 34.5,19.7 		"/>
	</g>
	<g>
		<g>
			<path class="st1" d="M37.5,8.5h-26c-1.6,0-3,1.3-3,3v26c0,0.2,0,0.4,0.1,0.6c0.1,0.5,0.3,0.9,0.6,1.3c0.1,0.1,0.3,0.3,0.4,0.4
				c0.5,0.4,1.2,0.7,1.9,0.7h26c0.8,0,1.6-0.3,2.1-0.9c0.4-0.4,0.7-0.9,0.8-1.5c0-0.2,0.1-0.4,0.1-0.6v-26
				C40.5,9.8,39.2,8.5,37.5,8.5z M24.5,13.7l9,5h-18L24.5,13.7z M34.5,35.3h-20v-2h1.4v-1.3h1.6V19.2h1v12.9h1.3V19.2h3.9v1.6
				c-1.4,0.4-2.2,1.4-2.2,2.7c0,1.7,1.4,2.4,2.7,3c1.2,0.5,1.4,0.9,1.4,1.3c0,0.6-0.5,1-1.3,1c-0.7,0-1.3-0.2-1.9-0.6l-0.5-0.3
				l-0.7,1.9l0.3,0.2c0.5,0.3,1.3,0.6,2.1,0.7v1.4h1.8v-1.5c1.4-0.4,2.3-1.5,2.3-2.9c0-1.8-1.4-2.6-2.6-3.1
				c-1.3-0.5-1.5-0.8-1.5-1.3c0-0.2,0.1-0.8,1.1-0.8c0.8,0,1.3,0.2,1.6,0.4l0.5,0.3l0.7-1.8l-0.3-0.2c-0.5-0.3-1.1-0.5-1.7-0.5v-1.5
				h3.7v12.9h1.1V19.2h1v12.9h1.8v1.3h1.4V35.3z"/>
			<path class="st2" d="M37.5,6.5h-26c-2.8,0-5,2.2-5,5v26c0,2.8,2.2,5,5,5h26c2.8,0,5-2.2,5-5v-26C42.5,8.7,40.3,6.5,37.5,6.5z
				 M40.5,37.5L40.5,37.5c0,0.2,0,0.4-0.1,0.6c-0.1,0.6-0.4,1.1-0.8,1.5c-0.5,0.5-1.3,0.9-2.1,0.9h-26c-0.7,0-1.4-0.3-1.9-0.7
				c-0.1-0.1-0.3-0.3-0.4-0.4c-0.3-0.4-0.5-0.8-0.6-1.3c0-0.2-0.1-0.4-0.1-0.6v0v-26c0-1.7,1.4-3,3-3h26c1.7,0,3,1.3,3,3V37.5z"/>
			<path class="st2" d="M33.1,32.1h-1.8V19.2h-1v12.9h-1.1V19.2h-3.7v1.5c0.6,0.1,1.2,0.3,1.7,0.5l0.3,0.2l-0.7,1.8L26.4,23
				c-0.3-0.2-0.8-0.4-1.6-0.4c-1,0-1.1,0.6-1.1,0.8c0,0.4,0.2,0.7,1.5,1.3c1.2,0.5,2.6,1.3,2.6,3.1c0,1.4-0.9,2.5-2.3,2.9v1.5h-1.8
				v-1.4c-0.8-0.1-1.6-0.3-2.1-0.7l-0.3-0.2l0.7-1.9l0.5,0.3c0.5,0.4,1.2,0.6,1.9,0.6c0.8,0,1.3-0.4,1.3-1c0-0.4-0.2-0.8-1.4-1.3
				c-1.3-0.5-2.7-1.3-2.7-3c0-1.3,0.9-2.4,2.2-2.7v-1.6h-3.9v12.9h-1.3V19.2h-1v12.9h-1.6v1.3h-1.4v2h20v-2h-1.4V32.1z"/>
			<polygon class="st2" points="24.5,13.7 15.5,18.7 33.5,18.7 			"/>
		</g>
	</g>
</g>
</svg>
