<?xml version="1.0" encoding="utf-8"?>
<!-- Generator: Adobe Illustrator 21.0.2, SVG Export Plug-In . SVG Version: 6.00 Build 0)  -->
<svg version="1.1" id="图层_1" xmlns="http://www.w3.org/2000/svg" xmlns:xlink="http://www.w3.org/1999/xlink" x="0px" y="0px"
	 viewBox="0 0 50 50" style="enable-background:new 0 0 50 50;" xml:space="preserve">
<style type="text/css">
	.st0{opacity:0.2;}
	.st1{fill:#FFFFFF;}
	.st2{fill:#F93E54;}
</style>
<g>
	<g class="st0">
		<path d="M29.5,22.6c0.1-0.2,0.2-0.4,0.2-0.5c0-0.3-0.2-0.5-0.6-0.6c-0.4,0-0.6,0.2-0.8,0.5l-2.8,4.5l-2.8-4.5
			c-0.2-0.3-0.5-0.4-0.8-0.5c-0.4,0.1-0.6,0.3-0.6,0.6c0,0.2,0.1,0.4,0.1,0.5c0.1,0.1,0.1,0.1,0.1,0.1l2.5,4.1h-1.5
			c-0.5,0-0.7,0.2-0.7,0.6c0,0.4,0.2,0.5,0.7,0.5h2.2v1.2v0h-2.1c-0.5,0-0.7,0.2-0.7,0.6c0,0.4,0.2,0.5,0.7,0.5h2.2v2.6
			c0,0.4,0.2,0.7,0.7,0.7c0.4,0,0.6-0.2,0.7-0.7v-2.6h2.2c0.4,0,0.6-0.2,0.7-0.5c-0.1-0.3-0.3-0.5-0.7-0.6h-2.2V28h2.2
			c0.4,0,0.6-0.2,0.7-0.5c-0.1-0.3-0.3-0.5-0.7-0.6h-1.5l2.5-4.1C29.5,22.7,29.5,22.6,29.5,22.6z"/>
		<path d="M38.5,9.5h-26c-1.7,0-3,1.3-3,3v26c0,0.2,0,0.4,0.1,0.6c0.1,0.6,0.4,1.1,0.8,1.5c0.5,0.5,1.3,0.9,2.1,0.9h26
			c0.8,0,1.6-0.3,2.1-0.9c0.4-0.4,0.7-0.9,0.8-1.5c0-0.2,0.1-0.4,0.1-0.6v-26C41.5,10.8,40.2,9.5,38.5,9.5z M35.5,36.7h-20v-1h3
			V19.3h-2l9-5l9,5h-2v16.4h3V36.7z"/>
		<path d="M38.5,7.5h-26c-2.8,0-5,2.2-5,5v26c0,2.8,2.2,5,5,5h26c2.8,0,5-2.2,5-5v-26C43.5,9.7,41.3,7.5,38.5,7.5z M41.5,38.5
			L41.5,38.5c0,0.2,0,0.4-0.1,0.6c-0.1,0.6-0.4,1.1-0.8,1.5c-0.5,0.5-1.3,0.9-2.1,0.9h-26c-0.8,0-1.6-0.3-2.1-0.9
			c-0.4-0.4-0.7-0.9-0.8-1.5c0-0.2-0.1-0.4-0.1-0.6v0v-26c0-1.7,1.3-3,3-3h26c1.7,0,3,1.3,3,3V38.5z"/>
		<polygon points="32.5,35.9 18.5,35.9 18.5,35.7 15.5,35.7 15.5,36.7 35.5,36.7 35.5,35.7 32.5,35.7 		"/>
		<path d="M32.5,35.9v-0.2V19.3h2l-9-5l-9,5h2v16.4v0.2H32.5z M28.4,26.9c0.4,0.1,0.6,0.3,0.7,0.6C29,27.8,28.8,28,28.4,28h-2.2v1.2
			h2.2c0.4,0.1,0.6,0.3,0.7,0.6c-0.1,0.4-0.3,0.5-0.7,0.5h-2.2v2.6c-0.1,0.4-0.3,0.7-0.7,0.7c-0.5,0-0.7-0.2-0.7-0.7v-2.6h-2.2
			c-0.5,0-0.7-0.2-0.7-0.5c0-0.4,0.2-0.6,0.7-0.6h2.1v0V28h-2.2c-0.5,0-0.7-0.2-0.7-0.5c0-0.4,0.2-0.6,0.7-0.6h1.5l-2.5-4.1
			c-0.1,0-0.1-0.1-0.1-0.1c-0.1-0.1-0.1-0.3-0.1-0.5c0-0.3,0.2-0.5,0.6-0.6c0.3,0.1,0.5,0.2,0.8,0.5l2.8,4.5l2.8-4.5
			c0.2-0.3,0.4-0.4,0.8-0.5c0.3,0.1,0.5,0.3,0.6,0.6c0,0.1-0.1,0.3-0.2,0.5c-0.1,0.1-0.1,0.1-0.1,0.1l-2.5,4.1H28.4z"/>
	</g>
	<g>
		<g>
			<path class="st1" d="M28.5,21.6c0.1-0.2,0.2-0.4,0.2-0.5c0-0.3-0.2-0.5-0.6-0.6c-0.4,0-0.6,0.2-0.8,0.5l-2.8,4.5l-2.8-4.5
				c-0.2-0.3-0.5-0.4-0.8-0.5c-0.4,0.1-0.6,0.3-0.6,0.6c0,0.2,0.1,0.4,0.1,0.5c0.1,0.1,0.1,0.1,0.1,0.1l2.5,4.1h-1.5
				c-0.5,0-0.7,0.2-0.7,0.6c0,0.4,0.2,0.5,0.7,0.5h2.2v1.2v0h-2.1c-0.5,0-0.7,0.2-0.7,0.6c0,0.4,0.2,0.5,0.7,0.5h2.2v2.6
				c0,0.4,0.2,0.7,0.7,0.7c0.4,0,0.6-0.2,0.7-0.7v-2.6h2.2c0.4,0,0.6-0.2,0.7-0.5c-0.1-0.3-0.3-0.5-0.7-0.6h-2.2V27h2.2
				c0.4,0,0.6-0.2,0.7-0.5c-0.1-0.3-0.3-0.5-0.7-0.6h-1.5l2.5-4.1C28.5,21.7,28.5,21.6,28.5,21.6z"/>
			<path class="st1" d="M37.5,8.5h-26c-1.7,0-3,1.3-3,3v26c0,0.2,0,0.4,0.1,0.6c0.1,0.6,0.4,1.1,0.8,1.5c0.5,0.5,1.3,0.9,2.1,0.9h26
				c0.8,0,1.6-0.3,2.1-0.9c0.4-0.4,0.7-0.9,0.8-1.5c0-0.2,0.1-0.4,0.1-0.6v-26C40.5,9.8,39.2,8.5,37.5,8.5z M34.5,35.7h-20v-1h3
				V18.3h-2l9-5l9,5h-2v16.4h3V35.7z"/>
			<path class="st2" d="M37.5,6.5h-26c-2.8,0-5,2.2-5,5v26c0,2.8,2.2,5,5,5h26c2.8,0,5-2.2,5-5v-26C42.5,8.7,40.3,6.5,37.5,6.5z
				 M40.5,37.5L40.5,37.5c0,0.2,0,0.4-0.1,0.6c-0.1,0.6-0.4,1.1-0.8,1.5c-0.5,0.5-1.3,0.9-2.1,0.9h-26c-0.8,0-1.6-0.3-2.1-0.9
				c-0.4-0.4-0.7-0.9-0.8-1.5c0-0.2-0.1-0.4-0.1-0.6v0v-26c0-1.7,1.3-3,3-3h26c1.7,0,3,1.3,3,3V37.5z"/>
			<g>
				<polygon class="st2" points="31.5,34.9 17.5,34.9 17.5,34.7 14.5,34.7 14.5,35.7 34.5,35.7 34.5,34.7 31.5,34.7 				"/>
			</g>
			<path class="st2" d="M31.5,34.9v-0.2V18.3h2l-9-5l-9,5h2v16.4v0.2H31.5z M27.4,25.9c0.4,0.1,0.6,0.3,0.7,0.6
				C28,26.8,27.8,27,27.4,27h-2.2v1.2h2.2c0.4,0.1,0.6,0.3,0.7,0.6c-0.1,0.4-0.3,0.5-0.7,0.5h-2.2v2.6c-0.1,0.4-0.3,0.7-0.7,0.7
				c-0.5,0-0.7-0.2-0.7-0.7v-2.6h-2.2c-0.5,0-0.7-0.2-0.7-0.5c0-0.4,0.2-0.6,0.7-0.6h2.1v0V27h-2.2c-0.5,0-0.7-0.2-0.7-0.5
				c0-0.4,0.2-0.6,0.7-0.6h1.5l-2.5-4.1c-0.1,0-0.1-0.1-0.1-0.1c-0.1-0.1-0.1-0.3-0.1-0.5c0-0.3,0.2-0.5,0.6-0.6
				c0.3,0.1,0.5,0.2,0.8,0.5l2.8,4.5l2.8-4.5c0.2-0.3,0.4-0.4,0.8-0.5c0.3,0.1,0.5,0.3,0.6,0.6c0,0.1-0.1,0.3-0.2,0.5
				c-0.1,0.1-0.1,0.1-0.1,0.1l-2.5,4.1H27.4z"/>
		</g>
	</g>
</g>
</svg>
