<?xml version="1.0" encoding="utf-8"?>
<!-- Generator: Adobe Illustrator 21.0.2, SVG Export Plug-In . SVG Version: 6.00 Build 0)  -->
<svg version="1.1" id="图层_1" xmlns="http://www.w3.org/2000/svg" xmlns:xlink="http://www.w3.org/1999/xlink" x="0px" y="0px"
	 viewBox="0 0 50 50" style="enable-background:new 0 0 50 50;" xml:space="preserve">
<style type="text/css">
	
	.st0{opacity:0.2;}
	.st1{fill:#FFFFFF;}
	.st2{fill:#00A0E9;}
</style>
<g>
	<g class="st0">
		<polygon points="28.1,22.6 24.6,22.7 27.4,24.3 		"/>
		<path d="M29.5,25L29.5,25c-1.3,0-2.2,1-2.2,2.3c0,1.2,1,2.2,2.2,2.2h0c0.6,0,1.1-0.2,1.6-0.7c0.4-0.4,0.6-1,0.6-1.6
			C31.7,25.9,30.7,25,29.5,25z"/>
		<path d="M21.2,26.8c-0.1,0.2-0.2,0.3-0.4,0.3c-0.1,0-0.1,0-0.2,0c-0.2-0.1-0.3-0.4-0.2-0.6l1.2-2.7c-0.2-0.1-0.5-0.1-0.8-0.1h-0.1
			c-1.7,0.1-3,1.4-2.9,3.1c0,1.6,1.4,2.9,3,2.9h0.1c0.8,0,1.5-0.3,2.1-0.9c0.5-0.6,0.8-1.3,0.8-2.1c0-1-0.5-1.9-1.3-2.4L21.2,26.8z"
			/>
		<path d="M25.5,15.3c-5.5,0-10,4.5-10,10s4.5,10,10,10c5.5,0,10-4.5,10-10S31,15.3,25.5,15.3z M31.9,29.4c-0.6,0.6-1.4,1-2.3,1
			h-0.1c-1.7,0-3.1-1.4-3.2-3.1c0-0.5,0.1-0.9,0.3-1.3c0,0,0,0,0,0l0.3-0.7L23,23l-0.1,0.3c1.1,0.7,1.8,1.9,1.9,3.3
			c0,1-0.4,2.1-1.1,2.8c-0.7,0.8-1.7,1.2-2.8,1.2h-0.1c-2.1,0-3.9-1.7-4-3.9c0-2.2,1.7-4,3.9-4h0.1c0.4,0,0.8,0.1,1.2,0.2l0.5-1.2
			l-2.4,0c-0.3,0-0.5-0.2-0.5-0.5c0-0.3,0.2-0.5,0.5-0.5l3.1-0.1c0.2,0,0.3,0.1,0.4,0.2c0.1,0.1,0.1,0.3,0,0.5l-0.2,0.4l5.1-0.1
			l0.4-1h-0.4c-0.3,0-0.5-0.2-0.5-0.5s0.2-0.5,0.5-0.5l2.4,0c0.3,0,0.5,0.2,0.5,0.5s-0.2,0.5-0.5,0.5l-0.9,0l-1.6,3.5
			c0.3-0.1,0.6-0.2,1-0.2h0.1c1.7,0,3.1,1.4,3.2,3.1C32.8,28,32.5,28.8,31.9,29.4z"/>
		<path d="M41,10.6c-0.2-0.3-0.5-0.6-0.8-0.8c-0.5-0.3-1.1-0.5-1.7-0.5h-26c-0.6,0-1.2,0.2-1.7,0.5c-0.3,0.2-0.6,0.5-0.8,0.8
			c-0.1,0.2-0.2,0.3-0.3,0.5c-0.2,0.4-0.2,0.8-0.2,1.2v26c0,1.7,1.4,3,3,3h26c1.7,0,3-1.3,3-3v-26c0-0.4-0.1-0.8-0.2-1.2
			C41.2,10.9,41.1,10.7,41,10.6z M25.5,36.3c-6.1,0-11-4.9-11-11s4.9-11,11-11s11,4.9,11,11S31.6,36.3,25.5,36.3z"/>
		<path d="M38.5,7.3h-26c-2.8,0-5,2.2-5,5v26c0,2.8,2.2,5,5,5h26c2.8,0,5-2.2,5-5v-26C43.5,9.5,41.3,7.3,38.5,7.3z M41.5,38.3
			c0,1.7-1.3,3-3,3h-26c-1.6,0-3-1.3-3-3v-26c0-0.4,0.1-0.8,0.2-1.2c0.1-0.2,0.2-0.3,0.3-0.5c0.2-0.3,0.5-0.6,0.8-0.8
			c0.5-0.3,1.1-0.5,1.7-0.5h26c0.6,0,1.2,0.2,1.7,0.5c0.3,0.2,0.6,0.5,0.8,0.8c0.1,0.2,0.2,0.3,0.3,0.5c0.2,0.4,0.2,0.8,0.2,1.2
			V38.3z"/>
		<path d="M25.5,14.3c-6.1,0-11,4.9-11,11s4.9,11,11,11s11-4.9,11-11S31.6,14.3,25.5,14.3z M25.5,35.3c-5.5,0-10-4.5-10-10
			s4.5-10,10-10c5.5,0,10,4.5,10,10S31,35.3,25.5,35.3z"/>
		<path d="M29.6,24L29.6,24c-0.4,0-0.7,0.1-1,0.2l1.6-3.5l0.9,0c0.3,0,0.5-0.2,0.5-0.5s-0.2-0.5-0.5-0.5l-2.4,0
			c-0.3,0-0.5,0.2-0.5,0.5s0.2,0.5,0.5,0.5H29l-0.4,1l-5.1,0.1l0.2-0.4c0.1-0.1,0.1-0.3,0-0.5c-0.1-0.1-0.2-0.2-0.4-0.2l-3.1,0.1
			c-0.3,0-0.5,0.2-0.5,0.5c0,0.3,0.2,0.5,0.5,0.5l2.4,0l-0.5,1.2c-0.4-0.1-0.8-0.2-1.2-0.2h-0.1c-2.2,0-3.9,1.9-3.9,4
			c0,2.1,1.8,3.9,4,3.9h0.1c1,0,2-0.4,2.8-1.2c0.7-0.7,1.1-1.8,1.1-2.8c0-1.4-0.8-2.6-1.9-3.3L23,23l4,2.2l-0.3,0.7c0,0,0,0,0,0
			c-0.2,0.4-0.3,0.9-0.3,1.3c0,1.7,1.5,3.1,3.2,3.1h0.1c0.8,0,1.6-0.4,2.3-1c0.6-0.6,0.9-1.4,0.9-2.3C32.7,25.4,31.3,24,29.6,24z
			 M23.7,26.6c0,0.8-0.3,1.6-0.8,2.1c-0.5,0.6-1.3,0.9-2.1,0.9h-0.1c-1.6,0-3-1.3-3-2.9c0-1.7,1.3-3,2.9-3.1h0.1
			c0.3,0,0.5,0,0.8,0.1l-1.2,2.7c-0.1,0.2,0,0.5,0.2,0.6c0.1,0,0.1,0,0.2,0c0.2,0,0.4-0.1,0.4-0.3l1.2-2.7
			C23.2,24.7,23.7,25.6,23.7,26.6z M24.6,22.7l3.6-0.1l-0.7,1.6L24.6,22.7z M31.1,28.7c-0.4,0.4-1,0.7-1.6,0.7h0
			c-1.2,0-2.2-1-2.2-2.2c0-1.2,0.9-2.2,2.2-2.3h0c1.2,0,2.2,1,2.2,2.1C31.8,27.7,31.5,28.3,31.1,28.7z"/>
	</g>
	<g>
		<g>
			<polygon class="st1" points="27.1,21.6 23.6,21.7 26.4,23.3 			"/>
			<path class="st1" d="M28.5,24L28.5,24c-1.3,0-2.2,1-2.2,2.3c0,1.2,1,2.2,2.2,2.2h0c0.6,0,1.1-0.2,1.6-0.7c0.4-0.4,0.6-1,0.6-1.6
				C30.7,24.9,29.7,24,28.5,24z"/>
			<path class="st1" d="M20.2,25.8c-0.1,0.2-0.2,0.3-0.4,0.3c-0.1,0-0.1,0-0.2,0c-0.2-0.1-0.3-0.4-0.2-0.6l1.2-2.7
				c-0.2-0.1-0.5-0.1-0.8-0.1h-0.1c-1.7,0.1-3,1.4-2.9,3.1c0,1.6,1.4,2.9,3,2.9h0.1c0.8,0,1.5-0.3,2.1-0.9c0.5-0.6,0.8-1.3,0.8-2.1
				c0-1-0.5-1.9-1.3-2.4L20.2,25.8z"/>
			<path class="st1" d="M24.5,14.3c-5.5,0-10,4.5-10,10s4.5,10,10,10c5.5,0,10-4.5,10-10S30,14.3,24.5,14.3z M30.9,28.4
				c-0.6,0.6-1.4,1-2.3,1h-0.1c-1.7,0-3.1-1.4-3.2-3.1c0-0.5,0.1-0.9,0.3-1.3c0,0,0,0,0,0l0.3-0.7L22,22l-0.1,0.3
				c1.1,0.7,1.8,1.9,1.9,3.3c0,1-0.4,2.1-1.1,2.8c-0.7,0.8-1.7,1.2-2.8,1.2h-0.1c-2.1,0-3.9-1.7-4-3.9c0-2.2,1.7-4,3.9-4h0.1
				c0.4,0,0.8,0.1,1.2,0.2l0.5-1.2l-2.4,0c-0.3,0-0.5-0.2-0.5-0.5c0-0.3,0.2-0.5,0.5-0.5l3.1-0.1c0.2,0,0.3,0.1,0.4,0.2
				c0.1,0.1,0.1,0.3,0,0.5l-0.2,0.4l5.1-0.1l0.4-1h-0.4c-0.3,0-0.5-0.2-0.5-0.5s0.2-0.5,0.5-0.5l2.4,0c0.3,0,0.5,0.2,0.5,0.5
				s-0.2,0.5-0.5,0.5l-0.9,0l-1.6,3.5c0.3-0.1,0.6-0.2,1-0.2h0.1c1.7,0,3.1,1.4,3.2,3.1C31.8,27,31.5,27.8,30.9,28.4z"/>
			<path class="st1" d="M40,9.6c-0.2-0.3-0.5-0.6-0.8-0.8c-0.5-0.3-1.1-0.5-1.7-0.5h-26c-0.6,0-1.2,0.2-1.7,0.5C9.5,9,9.2,9.3,9,9.6
				c-0.1,0.2-0.2,0.3-0.3,0.5c-0.2,0.4-0.2,0.8-0.2,1.2v26c0,1.7,1.4,3,3,3h26c1.7,0,3-1.3,3-3v-26c0-0.4-0.1-0.8-0.2-1.2
				C40.2,9.9,40.1,9.7,40,9.6z M24.5,35.3c-6.1,0-11-4.9-11-11s4.9-11,11-11s11,4.9,11,11S30.6,35.3,24.5,35.3z"/>
			<g>
				<path class="st2" d="M37.5,6.3h-26c-2.8,0-5,2.2-5,5v26c0,2.8,2.2,5,5,5h26c2.8,0,5-2.2,5-5v-26C42.5,8.5,40.3,6.3,37.5,6.3z
					 M40.5,37.3c0,1.7-1.3,3-3,3h-26c-1.6,0-3-1.3-3-3v-26c0-0.4,0.1-0.8,0.2-1.2C8.8,9.9,8.9,9.7,9,9.6C9.2,9.3,9.5,9,9.8,8.8
					c0.5-0.3,1.1-0.5,1.7-0.5h26c0.6,0,1.2,0.2,1.7,0.5C39.5,9,39.8,9.3,40,9.6c0.1,0.2,0.2,0.3,0.3,0.5c0.2,0.4,0.2,0.8,0.2,1.2
					V37.3z"/>
			</g>
			<path class="st2" d="M24.5,13.3c-6.1,0-11,4.9-11,11s4.9,11,11,11s11-4.9,11-11S30.6,13.3,24.5,13.3z M24.5,34.3
				c-5.5,0-10-4.5-10-10s4.5-10,10-10c5.5,0,10,4.5,10,10S30,34.3,24.5,34.3z"/>
			<path class="st2" d="M28.6,23L28.6,23c-0.4,0-0.7,0.1-1,0.2l1.6-3.5l0.9,0c0.3,0,0.5-0.2,0.5-0.5s-0.2-0.5-0.5-0.5l-2.4,0
				c-0.3,0-0.5,0.2-0.5,0.5s0.2,0.5,0.5,0.5H28l-0.4,1l-5.1,0.1l0.2-0.4c0.1-0.1,0.1-0.3,0-0.5c-0.1-0.1-0.2-0.2-0.4-0.2l-3.1,0.1
				c-0.3,0-0.5,0.2-0.5,0.5c0,0.3,0.2,0.5,0.5,0.5l2.4,0l-0.5,1.2c-0.4-0.1-0.8-0.2-1.2-0.2h-0.1c-2.2,0-3.9,1.9-3.9,4
				c0,2.1,1.8,3.9,4,3.9h0.1c1,0,2-0.4,2.8-1.2c0.7-0.7,1.1-1.8,1.1-2.8c0-1.4-0.8-2.6-1.9-3.3L22,22l4,2.2l-0.3,0.7c0,0,0,0,0,0
				c-0.2,0.4-0.3,0.9-0.3,1.3c0,1.7,1.5,3.1,3.2,3.1h0.1c0.8,0,1.6-0.4,2.3-1c0.6-0.6,0.9-1.4,0.9-2.3C31.7,24.4,30.3,23,28.6,23z
				 M22.7,25.6c0,0.8-0.3,1.6-0.8,2.1c-0.5,0.6-1.3,0.9-2.1,0.9h-0.1c-1.6,0-3-1.3-3-2.9c0-1.7,1.3-3,2.9-3.1h0.1
				c0.3,0,0.5,0,0.8,0.1l-1.2,2.7c-0.1,0.2,0,0.5,0.2,0.6c0.1,0,0.1,0,0.2,0c0.2,0,0.4-0.1,0.4-0.3l1.2-2.7
				C22.2,23.7,22.7,24.6,22.7,25.6z M23.6,21.7l3.6-0.1l-0.7,1.6L23.6,21.7z M30.1,27.7c-0.4,0.4-1,0.7-1.6,0.7h0
				c-1.2,0-2.2-1-2.2-2.2c0-1.2,0.9-2.2,2.2-2.3h0c1.2,0,2.2,1,2.2,2.1C30.8,26.7,30.5,27.3,30.1,27.7z"/>
		</g>
	</g>
</g>
</svg>
