<?xml version="1.0" encoding="utf-8"?>
<!-- Generator: Adobe Illustrator 21.0.2, SVG Export Plug-In . SVG Version: 6.00 Build 0)  -->
<svg version="1.1" id="图层_1" xmlns="http://www.w3.org/2000/svg" xmlns:xlink="http://www.w3.org/1999/xlink" x="0px" y="0px"
	 viewBox="0 0 50 50" style="enable-background:new 0 0 50 50;" xml:space="preserve">
<style type="text/css">
	.st0{opacity:0.2;}
	.st1{fill:#FFFFFF;}
	.st2{fill:#22AC38;}
</style>
<g>
	<g class="st0">
		<path d="M41.5,12.5c0-0.8-0.3-1.6-0.9-2.1c-0.4-0.4-0.9-0.7-1.5-0.8c-0.2,0-0.4-0.1-0.6-0.1h-26c-1.6,0-3,1.4-3,3v26
			c0,1.7,1.4,3,3,3h26c0.2,0,0.4,0,0.6-0.1c0.6-0.1,1.1-0.4,1.5-0.8c0.5-0.5,0.9-1.3,0.9-2.1V12.5z M25.3,25.9l-0.1,2.8
			c3.7-0.1,4.5,0.8,4.5,0.8c0.5,1.3-1.7,6.1-1.7,6.1h-6.3C20.5,34,20,29.6,20,29.6c1.1-1,3.6-0.8,3.6-0.8l0.3,0l0-0.8v-1.5
			c-0.2,0-2.6,0.2-3.7-1.6c-1.1-1.8,0.9-1.5,0.9-1.5c1.2,0.5,2.6,2.4,2.6,2.4s0.1-1.1,0-1.5c-0.1-0.4-0.3-0.5-0.3-0.5
			c-4.3-3-2.9-7.2-2.9-7.2c1.3,1.4,3.9,3.5,3.9,3.5c-0.3-0.7-0.4-1-0.4-1c-0.6-3.2,0.8-3.6,0.8-3.6c1.4-0.2,1.1,3.2,1.1,3.2
			c2.1-0.6,3.9-0.9,3.9-0.9c-0.2,5.1-4.6,6.2-4.6,6.2l0.1,0.7c1-0.6,2-1,2-1c3.2-0.8,3.8,0.3,3.8,0.3C29.8,26.2,25.3,25.9,25.3,25.9
			z"/>
		<path d="M38.5,7.5h-26c-2.8,0-5,2.2-5,5v26c0,2.8,2.2,5,5,5h26c2.8,0,5-2.2,5-5v-26C43.5,9.7,41.3,7.5,38.5,7.5z M41.5,38.5
			c0,0.8-0.3,1.6-0.9,2.1c-0.4,0.4-0.9,0.7-1.5,0.8c-0.2,0-0.4,0.1-0.6,0.1h0h-26c-1.6,0-3-1.3-3-3v-26c0-1.6,1.4-3,3-3h26h0
			c0.2,0,0.4,0,0.6,0.1c0.6,0.1,1.1,0.4,1.5,0.8c0.5,0.5,0.9,1.3,0.9,2.1V38.5z"/>
		<path d="M27.3,23.5c0,0-1,0.4-2,1l-0.1-0.7c0,0,4.4-1.1,4.6-6.2c0,0-1.8,0.3-3.9,0.9c0,0,0.3-3.5-1.1-3.2c0,0-1.4,0.4-0.8,3.6
			c0,0,0.1,0.3,0.4,1c0,0-2.7-2.1-3.9-3.5c0,0-1.4,4.1,2.9,7.2c0,0,0.2,0.2,0.3,0.5c0.1,0.4,0,1.5,0,1.5s-1.4-2-2.6-2.4
			c0,0-1.9-0.2-0.9,1.5c1.1,1.8,3.4,1.6,3.7,1.6v1.5l0,0.8l-0.3,0c0,0-2.5-0.2-3.6,0.8c0,0,0.4,4.4,1.6,6.1h6.3c0,0,2.2-4.8,1.7-6.1
			c0,0-0.8-1-4.5-0.8l0.1-2.8c0,0,4.6,0.3,5.8-2.1C31.1,23.9,30.6,22.7,27.3,23.5z"/>
	</g>
	<g>
		<g>
			<path class="st1" d="M40.5,11.5c0-0.8-0.3-1.6-0.9-2.1c-0.4-0.4-0.9-0.7-1.5-0.8c-0.2,0-0.4-0.1-0.6-0.1h-26c-1.6,0-3,1.4-3,3v26
				c0,1.7,1.4,3,3,3h26c0.2,0,0.4,0,0.6-0.1c0.6-0.1,1.1-0.4,1.5-0.8c0.5-0.5,0.9-1.3,0.9-2.1V11.5z M24.3,24.9l-0.1,2.8
				c3.7-0.1,4.5,0.8,4.5,0.8c0.5,1.3-1.7,6.1-1.7,6.1h-6.3C19.5,33,19,28.6,19,28.6c1.1-1,3.6-0.8,3.6-0.8l0.3,0l0-0.8v-1.5
				c-0.2,0-2.6,0.2-3.7-1.6c-1.1-1.8,0.9-1.5,0.9-1.5c1.2,0.5,2.6,2.4,2.6,2.4s0.1-1.1,0-1.5c-0.1-0.4-0.3-0.5-0.3-0.5
				c-4.3-3-2.9-7.2-2.9-7.2c1.3,1.4,3.9,3.5,3.9,3.5c-0.3-0.7-0.4-1-0.4-1c-0.6-3.2,0.8-3.6,0.8-3.6c1.4-0.2,1.1,3.2,1.1,3.2
				c2.1-0.6,3.9-0.9,3.9-0.9c-0.2,5.1-4.6,6.2-4.6,6.2l0.1,0.7c1-0.6,2-1,2-1c3.2-0.8,3.8,0.3,3.8,0.3
				C28.8,25.2,24.3,24.9,24.3,24.9z"/>
			<path class="st2" d="M37.5,6.5h-26c-2.8,0-5,2.2-5,5v26c0,2.8,2.2,5,5,5h26c2.8,0,5-2.2,5-5v-26C42.5,8.7,40.3,6.5,37.5,6.5z
				 M40.5,37.5c0,0.8-0.3,1.6-0.9,2.1c-0.4,0.4-0.9,0.7-1.5,0.8c-0.2,0-0.4,0.1-0.6,0.1h0h-26c-1.6,0-3-1.3-3-3v-26c0-1.6,1.4-3,3-3
				h26h0c0.2,0,0.4,0,0.6,0.1c0.6,0.1,1.1,0.4,1.5,0.8c0.5,0.5,0.9,1.3,0.9,2.1V37.5z"/>
			<path class="st2" d="M26.3,22.5c0,0-1,0.4-2,1l-0.1-0.7c0,0,4.4-1.1,4.6-6.2c0,0-1.8,0.3-3.9,0.9c0,0,0.3-3.5-1.1-3.2
				c0,0-1.4,0.4-0.8,3.6c0,0,0.1,0.3,0.4,1c0,0-2.7-2.1-3.9-3.5c0,0-1.4,4.1,2.9,7.2c0,0,0.2,0.2,0.3,0.5c0.1,0.4,0,1.5,0,1.5
				s-1.4-2-2.6-2.4c0,0-1.9-0.2-0.9,1.5c1.1,1.8,3.4,1.6,3.7,1.6v1.5l0,0.8l-0.3,0c0,0-2.5-0.2-3.6,0.8c0,0,0.4,4.4,1.6,6.1h6.3
				c0,0,2.2-4.8,1.7-6.1c0,0-0.8-1-4.5-0.8l0.1-2.8c0,0,4.6,0.3,5.8-2.1C30.1,22.9,29.6,21.7,26.3,22.5z"/>
		</g>
	</g>
</g>
</svg>
