<?xml version="1.0" encoding="utf-8"?>
<!-- Generator: Adobe Illustrator 21.0.2, SVG Export Plug-In . SVG Version: 6.00 Build 0)  -->
<svg version="1.1" id="图层_1" xmlns="http://www.w3.org/2000/svg" xmlns:xlink="http://www.w3.org/1999/xlink" x="0px" y="0px"
	 viewBox="0 0 50 50" style="enable-background:new 0 0 50 50;" xml:space="preserve">
<style type="text/css">
	.st0{opacity:0.2;}
	.st1{fill:#FFFFFF;}
	.st2{fill:#22AC38;}
</style>
<g>
	<g class="st0">
		<path d="M38.5,9.5h-26c-0.4,0-0.8,0.1-1.2,0.2C11.2,9.8,11,9.9,10.8,10c-0.3,0.2-0.6,0.5-0.8,0.8c-0.3,0.5-0.5,1.1-0.5,1.7v26
			c0,0.6,0.2,1.2,0.5,1.7c0.2,0.3,0.5,0.6,0.8,0.8c0.2,0.1,0.3,0.2,0.5,0.3c0.4,0.2,0.8,0.2,1.2,0.2h26c1.7,0,3-1.4,3-3v-26
			C41.5,10.8,40.2,9.5,38.5,9.5z M34.1,31.2H21.9c0,0,0,0,0,0c-3.3,0-6-2.7-6-6s2.7-6,6-6s6,2.7,6,6c0,2.1-1.1,3.9-2.7,5h8.9V31.2z"
			/>
		<path d="M21.9,30.2L21.9,30.2c2.8,0,5-2.2,5-5c0-2.8-2.2-5-5-5s-5,2.2-5,5C16.9,28,19.1,30.2,21.9,30.2L21.9,30.2z"/>
		<path d="M38.5,7.5h-26c-2.8,0-5,2.2-5,5v26c0,2.8,2.2,5,5,5h26c2.8,0,5-2.2,5-5v-26C43.5,9.7,41.3,7.5,38.5,7.5z M41.5,38.5
			c0,1.6-1.3,3-3,3h-26c-0.4,0-0.8-0.1-1.2-0.2c-0.2-0.1-0.3-0.2-0.5-0.3c-0.3-0.2-0.6-0.5-0.8-0.8c-0.3-0.5-0.5-1.1-0.5-1.7v-26
			c0-0.6,0.2-1.2,0.5-1.7c0.2-0.3,0.5-0.6,0.8-0.8c0.2-0.1,0.3-0.2,0.5-0.3c0.4-0.2,0.8-0.2,1.2-0.2h26c1.7,0,3,1.3,3,3V38.5z"/>
		<path d="M27.9,25.3c0-3.3-2.7-6-6-6s-6,2.7-6,6s2.7,6,6,6c0,0,0,0,0,0h12.2v-1h-8.9C26.8,29.2,27.9,27.3,27.9,25.3z M16.9,25.3
			c0-2.8,2.2-5,5-5s5,2.2,5,5c0,2.8-2.2,5-5,5h0v0C19.1,30.2,16.9,28,16.9,25.3z"/>
	</g>
	<g>
		<g>
			<path class="st1" d="M37.5,8.5h-26c-0.4,0-0.8,0.1-1.2,0.2C10.2,8.8,10,8.9,9.8,9C9.5,9.2,9.2,9.5,9,9.8
				c-0.3,0.5-0.5,1.1-0.5,1.7v26c0,0.6,0.2,1.2,0.5,1.7c0.2,0.3,0.5,0.6,0.8,0.8c0.2,0.1,0.3,0.2,0.5,0.3c0.4,0.2,0.8,0.2,1.2,0.2
				h26c1.7,0,3-1.4,3-3v-26C40.5,9.8,39.2,8.5,37.5,8.5z M33.1,30.2H20.9c0,0,0,0,0,0c-3.3,0-6-2.7-6-6s2.7-6,6-6s6,2.7,6,6
				c0,2.1-1.1,3.9-2.7,5h8.9V30.2z"/>
			<path class="st1" d="M20.9,29.2L20.9,29.2c2.8,0,5-2.2,5-5c0-2.8-2.2-5-5-5s-5,2.2-5,5C15.9,27,18.1,29.2,20.9,29.2L20.9,29.2z"
				/>
			<path class="st2" d="M37.5,6.5h-26c-2.8,0-5,2.2-5,5v26c0,2.8,2.2,5,5,5h26c2.8,0,5-2.2,5-5v-26C42.5,8.7,40.3,6.5,37.5,6.5z
				 M40.5,37.5c0,1.6-1.3,3-3,3h-26c-0.4,0-0.8-0.1-1.2-0.2c-0.2-0.1-0.3-0.2-0.5-0.3c-0.3-0.2-0.6-0.5-0.8-0.8
				c-0.3-0.5-0.5-1.1-0.5-1.7v-26c0-0.6,0.2-1.2,0.5-1.7C9.2,9.5,9.5,9.2,9.8,9c0.2-0.1,0.3-0.2,0.5-0.3c0.4-0.2,0.8-0.2,1.2-0.2h26
				c1.7,0,3,1.3,3,3V37.5z"/>
			<path class="st2" d="M26.9,24.3c0-3.3-2.7-6-6-6s-6,2.7-6,6s2.7,6,6,6c0,0,0,0,0,0h12.2v-1h-8.9C25.8,28.2,26.9,26.3,26.9,24.3z
				 M15.9,24.3c0-2.8,2.2-5,5-5s5,2.2,5,5c0,2.8-2.2,5-5,5h0v0C18.1,29.2,15.9,27,15.9,24.3z"/>
		</g>
	</g>
</g>
</svg>
