<?xml version="1.0" encoding="utf-8"?>
<!-- Generator: Adobe Illustrator 21.0.2, SVG Export Plug-In . SVG Version: 6.00 Build 0)  -->
<svg version="1.1" id="图层_1" xmlns="http://www.w3.org/2000/svg" xmlns:xlink="http://www.w3.org/1999/xlink" x="0px" y="0px"
	 viewBox="0 0 50 50" style="enable-background:new 0 0 50 50;" xml:space="preserve">
<style type="text/css">
	.st0{opacity:0.2;}
	.st1{fill:#FFFFFF;}
	.st2{fill:#22AC38;}
</style>
<g>
	<g class="st0">
		<path d="M38.5,9.5h-26c-1.6,0-3,1.3-3,3v26c0,0.2,0,0.4,0.1,0.6c0.1,0.5,0.3,0.9,0.6,1.3c0.1,0.1,0.3,0.3,0.4,0.4
			c0.5,0.4,1.2,0.7,1.9,0.7h26c0.8,0,1.6-0.3,2.1-0.9c0.4-0.4,0.7-0.9,0.8-1.5c0-0.2,0.1-0.4,0.1-0.6v-26
			C41.5,10.8,40.2,9.5,38.5,9.5z M32.1,35.2c-0.1,0.1-0.2,0.1-0.3,0.1c-0.2,0-0.3-0.1-0.4-0.2c-0.1-0.1-2.2-3.1-3.3-7.3l-5.3,0
			c-1.1,4.2-3.2,7.2-3.3,7.4c-0.1,0.1-0.3,0.2-0.4,0.2c-0.1,0-0.2,0-0.3-0.1c-0.2-0.2-0.3-0.5-0.1-0.7c0,0,2-2.9,3.1-6.9
			c-1.4-1.1-2.5-7.5-3-11.3l1-0.1c0.7,4.7,1.8,10,2.6,10.6h9.5v1l-2.7,0c1.1,3.9,3.1,6.7,3.1,6.8C32.4,34.8,32.4,35.1,32.1,35.2z"/>
		<path d="M38.5,7.5h-26c-2.8,0-5,2.2-5,5v26c0,2.8,2.2,5,5,5h26c2.8,0,5-2.2,5-5v-26C43.5,9.7,41.3,7.5,38.5,7.5z M41.5,38.5
			L41.5,38.5c0,0.2,0,0.4-0.1,0.6c-0.1,0.6-0.4,1.1-0.8,1.5c-0.5,0.5-1.3,0.9-2.1,0.9h-26c-0.7,0-1.4-0.3-1.9-0.7
			c-0.1-0.1-0.3-0.3-0.4-0.4c-0.3-0.4-0.5-0.8-0.6-1.3c0-0.2-0.1-0.4-0.1-0.6v0v-26c0-1.7,1.4-3,3-3h26c1.7,0,3,1.3,3,3V38.5z"/>
		<path d="M29.2,27.8l2.7,0v-1h-9.5c-0.7-0.6-1.9-5.9-2.6-10.6l-1,0.1c0.6,3.9,1.7,10.2,3,11.3c-1.1,4-3.1,6.9-3.1,6.9
			c-0.2,0.2-0.1,0.5,0.1,0.7c0.1,0.1,0.2,0.1,0.3,0.1c0.2,0,0.3-0.1,0.4-0.2c0.1-0.1,2.2-3.1,3.3-7.4l5.3,0c1.1,4.2,3.2,7.2,3.3,7.3
			c0.1,0.1,0.3,0.2,0.4,0.2c0.1,0,0.2,0,0.3-0.1c0.2-0.2,0.3-0.5,0.1-0.7C32.2,34.5,30.3,31.7,29.2,27.8z"/>
	</g>
	<g>
		<g>
			<path class="st1" d="M37.5,8.5h-26c-1.6,0-3,1.3-3,3v26c0,0.2,0,0.4,0.1,0.6c0.1,0.5,0.3,0.9,0.6,1.3c0.1,0.1,0.3,0.3,0.4,0.4
				c0.5,0.4,1.2,0.7,1.9,0.7h26c0.8,0,1.6-0.3,2.1-0.9c0.4-0.4,0.7-0.9,0.8-1.5c0-0.2,0.1-0.4,0.1-0.6v-26
				C40.5,9.8,39.2,8.5,37.5,8.5z M31.1,34.2c-0.1,0.1-0.2,0.1-0.3,0.1c-0.2,0-0.3-0.1-0.4-0.2c-0.1-0.1-2.2-3.1-3.3-7.3l-5.3,0
				c-1.1,4.2-3.2,7.2-3.3,7.4c-0.1,0.1-0.3,0.2-0.4,0.2c-0.1,0-0.2,0-0.3-0.1c-0.2-0.2-0.3-0.5-0.1-0.7c0,0,2-2.9,3.1-6.9
				c-1.4-1.1-2.5-7.5-3-11.3l1-0.1c0.7,4.7,1.8,10,2.6,10.6h9.5v1l-2.7,0c1.1,3.9,3.1,6.7,3.1,6.8C31.4,33.8,31.4,34.1,31.1,34.2z"
				/>
			<path class="st2" d="M37.5,6.5h-26c-2.8,0-5,2.2-5,5v26c0,2.8,2.2,5,5,5h26c2.8,0,5-2.2,5-5v-26C42.5,8.7,40.3,6.5,37.5,6.5z
				 M40.5,37.5L40.5,37.5c0,0.2,0,0.4-0.1,0.6c-0.1,0.6-0.4,1.1-0.8,1.5c-0.5,0.5-1.3,0.9-2.1,0.9h-26c-0.7,0-1.4-0.3-1.9-0.7
				c-0.1-0.1-0.3-0.3-0.4-0.4c-0.3-0.4-0.5-0.8-0.6-1.3c0-0.2-0.1-0.4-0.1-0.6v0v-26c0-1.7,1.4-3,3-3h26c1.7,0,3,1.3,3,3V37.5z"/>
			<path class="st2" d="M28.2,26.8l2.7,0v-1h-9.5c-0.7-0.6-1.9-5.9-2.6-10.6l-1,0.1c0.6,3.9,1.7,10.2,3,11.3c-1.1,4-3.1,6.9-3.1,6.9
				c-0.2,0.2-0.1,0.5,0.1,0.7c0.1,0.1,0.2,0.1,0.3,0.1c0.2,0,0.3-0.1,0.4-0.2c0.1-0.1,2.2-3.1,3.3-7.4l5.3,0
				c1.1,4.2,3.2,7.2,3.3,7.3c0.1,0.1,0.3,0.2,0.4,0.2c0.1,0,0.2,0,0.3-0.1c0.2-0.2,0.3-0.5,0.1-0.7C31.2,33.5,29.3,30.7,28.2,26.8z"
				/>
		</g>
	</g>
</g>
</svg>
