<?xml version="1.0" encoding="utf-8"?>
<!-- Generator: Adobe Illustrator 21.0.2, SVG Export Plug-In . SVG Version: 6.00 Build 0)  -->
<svg version="1.1" id="图层_1" xmlns="http://www.w3.org/2000/svg" xmlns:xlink="http://www.w3.org/1999/xlink" x="0px" y="0px"
	 viewBox="0 0 50 50" style="enable-background:new 0 0 50 50;" xml:space="preserve">
<style type="text/css">
	.st0{opacity:0.2;}
	.st1{fill:#FFFFFF;}
	.st2{fill:#F93E54;}
</style>
<g>
	<g class="st0">
		<circle cx="25.5" cy="20.8" r="5"/>
		<path d="M38.5,9.5h-26c-1.6,0-3,1.3-3,3v26c0,0.4,0.1,0.8,0.2,1.2c0.1,0.2,0.2,0.3,0.3,0.5c0.2,0.3,0.5,0.6,0.8,0.8
			c0.5,0.3,1.1,0.5,1.7,0.5h26c0.6,0,1.2-0.2,1.7-0.5c0.3-0.2,0.6-0.5,0.8-0.8c0.1-0.2,0.2-0.3,0.3-0.5c0.2-0.4,0.2-0.8,0.2-1.2v-26
			C41.5,10.8,40.2,9.5,38.5,9.5z M35.5,27.7h-4.7v7.5h-1v-7.5h-8.5v7.5h-1v-7.5h-4.8v-1h8.7c-2.7-0.6-4.7-3-4.7-5.9c0-3.3,2.7-6,6-6
			s6,2.7,6,6c0,2.9-2,5.3-4.7,5.9h8.7V27.7z"/>
		<path d="M38.5,7.5h-26c-2.8,0-5,2.2-5,5v26c0,2.8,2.2,5,5,5h26c2.8,0,5-2.2,5-5v-26C43.5,9.7,41.3,7.5,38.5,7.5z M41.5,38.5
			c0,0.4-0.1,0.8-0.2,1.2c-0.1,0.2-0.2,0.3-0.3,0.5c-0.2,0.3-0.5,0.6-0.8,0.8c-0.5,0.3-1.1,0.5-1.7,0.5h-26c-0.6,0-1.2-0.2-1.7-0.5
			c-0.3-0.2-0.6-0.5-0.8-0.8C10,40,9.9,39.8,9.8,39.7c-0.2-0.4-0.2-0.8-0.2-1.2v-26c0-1.7,1.4-3,3-3h26c1.7,0,3,1.3,3,3V38.5z"/>
		<path d="M31.5,20.8c0-3.3-2.7-6-6-6s-6,2.7-6,6c0,2.9,2,5.3,4.7,5.9h-8.7v1h4.8v7.5h1v-7.5h8.5v7.5h1v-7.5h4.7v-1h-8.7
			C29.5,26.1,31.5,23.7,31.5,20.8z M20.5,20.8c0-2.8,2.2-5,5-5s5,2.2,5,5s-2.2,5-5,5S20.5,23.6,20.5,20.8z"/>
	</g>
	<g>
		<g>
			<circle class="st1" cx="24.5" cy="19.8" r="5"/>
			<path class="st1" d="M37.5,8.5h-26c-1.6,0-3,1.3-3,3v26c0,0.4,0.1,0.8,0.2,1.2C8.9,38.8,9,39,9.1,39.2c0.2,0.3,0.5,0.6,0.8,0.8
				c0.5,0.3,1.1,0.5,1.7,0.5h26c0.6,0,1.2-0.2,1.7-0.5c0.3-0.2,0.6-0.5,0.8-0.8c0.1-0.2,0.2-0.3,0.3-0.5c0.2-0.4,0.2-0.8,0.2-1.2
				v-26C40.5,9.8,39.2,8.5,37.5,8.5z M34.5,26.7h-4.7v7.5h-1v-7.5h-8.5v7.5h-1v-7.5h-4.8v-1h8.7c-2.7-0.6-4.7-3-4.7-5.9
				c0-3.3,2.7-6,6-6s6,2.7,6,6c0,2.9-2,5.3-4.7,5.9h8.7V26.7z"/>
			<path class="st2" d="M37.5,6.5h-26c-2.8,0-5,2.2-5,5v26c0,2.8,2.2,5,5,5h26c2.8,0,5-2.2,5-5v-26C42.5,8.7,40.3,6.5,37.5,6.5z
				 M40.5,37.5c0,0.4-0.1,0.8-0.2,1.2c-0.1,0.2-0.2,0.3-0.3,0.5c-0.2,0.3-0.5,0.6-0.8,0.8c-0.5,0.3-1.1,0.5-1.7,0.5h-26
				c-0.6,0-1.2-0.2-1.7-0.5c-0.3-0.2-0.6-0.5-0.8-0.8C9,39,8.9,38.8,8.8,38.7c-0.2-0.4-0.2-0.8-0.2-1.2v-26c0-1.7,1.4-3,3-3h26
				c1.7,0,3,1.3,3,3V37.5z"/>
			<path class="st2" d="M30.5,19.8c0-3.3-2.7-6-6-6s-6,2.7-6,6c0,2.9,2,5.3,4.7,5.9h-8.7v1h4.8v7.5h1v-7.5h8.5v7.5h1v-7.5h4.7v-1
				h-8.7C28.5,25.1,30.5,22.7,30.5,19.8z M19.5,19.8c0-2.8,2.2-5,5-5s5,2.2,5,5s-2.2,5-5,5S19.5,22.6,19.5,19.8z"/>
		</g>
	</g>
</g>
</svg>
