<?xml version="1.0" encoding="utf-8"?>
<!-- Generator: Adobe Illustrator 21.0.2, SVG Export Plug-In . SVG Version: 6.00 Build 0)  -->
<svg version="1.1" id="图层_1" xmlns="http://www.w3.org/2000/svg" xmlns:xlink="http://www.w3.org/1999/xlink" x="0px" y="0px"
	 viewBox="0 0 50 50" style="enable-background:new 0 0 50 50;" xml:space="preserve">
<style type="text/css">
	.st0{opacity:0.2;}
	.st1{fill:#FFFFFF;}
	.st2{fill:#F93E54;}
</style>
<g>
	<g class="st0">
		<path d="M38.5,9.5h-26c-1.7,0-3,1.4-3,3v26c0,1.7,1.3,3,3,3h26c1.6,0,3-1.3,3-3v-26C41.5,10.9,40.2,9.5,38.5,9.5z M25.5,36.5
			c-6.1,0-11-4.9-11-11s4.9-11,11-11s11,4.9,11,11S31.6,36.5,25.5,36.5z"/>
		<path d="M38.5,7.5h-26c-2.8,0-5,2.2-5,5v26c0,2.8,2.2,5,5,5h26c2.8,0,5-2.2,5-5v-26C43.5,9.7,41.3,7.5,38.5,7.5z M41.5,38.5
			c0,1.7-1.4,3-3,3h-26c-1.7,0-3-1.3-3-3v-26c0-1.6,1.3-3,3-3h26c1.6,0,3,1.4,3,3V38.5z"/>
		<path d="M25.5,14.5c-6.1,0-11,4.9-11,11s4.9,11,11,11s11-4.9,11-11S31.6,14.5,25.5,14.5z"/>
	</g>
	<g>
		<g>
			<path class="st1" d="M37.5,8.5h-26c-1.7,0-3,1.4-3,3v26c0,1.7,1.3,3,3,3h26c1.6,0,3-1.3,3-3v-26C40.5,9.9,39.2,8.5,37.5,8.5z
				 M24.5,35.5c-6.1,0-11-4.9-11-11s4.9-11,11-11s11,4.9,11,11S30.6,35.5,24.5,35.5z"/>
			<path class="st2" d="M37.5,6.5h-26c-2.8,0-5,2.2-5,5v26c0,2.8,2.2,5,5,5h26c2.8,0,5-2.2,5-5v-26C42.5,8.7,40.3,6.5,37.5,6.5z
				 M40.5,37.5c0,1.7-1.4,3-3,3h-26c-1.7,0-3-1.3-3-3v-26c0-1.6,1.3-3,3-3h26c1.6,0,3,1.4,3,3V37.5z"/>
			<path class="st2" d="M24.5,13.5c-6.1,0-11,4.9-11,11s4.9,11,11,11s11-4.9,11-11S30.6,13.5,24.5,13.5z"/>
		</g>
	</g>
</g>
</svg>
