<?xml version="1.0" encoding="utf-8"?>
<!-- Generator: Adobe Illustrator 21.0.2, SVG Export Plug-In . SVG Version: 6.00 Build 0)  -->
<svg version="1.1" id="图层_1" xmlns="http://www.w3.org/2000/svg" xmlns:xlink="http://www.w3.org/1999/xlink" x="0px" y="0px"
	 viewBox="0 0 50 50" style="enable-background:new 0 0 50 50;" xml:space="preserve">
<style type="text/css">
	.st0{opacity:0.2;}
	.st1{fill:#FFFFFF;}
	.st2{fill:#F93E54;}
</style>
<g>
	<g class="st0">
		<path d="M40.2,10c-0.2-0.1-0.3-0.2-0.5-0.3c-0.4-0.2-0.8-0.2-1.2-0.2h-26c-1.7,0-3,1.3-3,3v26c0,0.4,0.1,0.8,0.2,1.2
			c0.1,0.2,0.2,0.3,0.3,0.5c0.2,0.3,0.5,0.6,0.8,0.8c0.5,0.3,1.1,0.5,1.7,0.5h26c0.4,0,0.8-0.1,1.2-0.2c0.2-0.1,0.3-0.2,0.5-0.3
			c0.3-0.2,0.6-0.5,0.8-0.8c0.1-0.2,0.2-0.3,0.3-0.5c0.2-0.4,0.2-0.8,0.2-1.2v-26c0-0.6-0.2-1.2-0.5-1.7
			C40.8,10.5,40.5,10.2,40.2,10z M34.5,23.1c-1.4,0-2.5-1.1-2.5-2.5c0-1.2,0.9-2.2,2-2.4v-2.5h-7.6v16.2c1.1,0.2,2,1.2,2,2.4
			c0,1.4-1.1,2.5-2.5,2.5c-1.4,0-2.5-1.1-2.5-2.5c0-1.2,0.9-2.2,2-2.4V15.7H17v2.5c1.1,0.3,1.9,1.2,1.9,2.4c0,1.4-1.1,2.5-2.5,2.5
			c-1.4,0-2.5-1.1-2.5-2.5c0-1.2,0.9-2.3,2.1-2.5v-3.4h19v3.5c1.1,0.2,2,1.2,2,2.4C37,21.9,35.9,23.1,34.5,23.1z"/>
		<circle cx="34.5" cy="20.6" r="1.5"/>
		<circle cx="16.5" cy="20.6" r="1.5"/>
		<circle cx="25.9" cy="34.3" r="1.5"/>
		<path d="M38.5,7.5h-26c-2.8,0-5,2.2-5,5v26c0,2.8,2.2,5,5,5h26c2.8,0,5-2.2,5-5v-26C43.5,9.7,41.3,7.5,38.5,7.5z M41.5,38.5
			c0,0.4-0.1,0.8-0.2,1.2c-0.1,0.2-0.2,0.3-0.3,0.5c-0.2,0.3-0.5,0.6-0.8,0.8c-0.2,0.1-0.3,0.2-0.5,0.3c-0.4,0.2-0.8,0.2-1.2,0.2
			h-26c-0.6,0-1.2-0.2-1.7-0.5c-0.3-0.2-0.6-0.5-0.8-0.8c-0.1-0.2-0.2-0.3-0.3-0.5c-0.2-0.4-0.2-0.8-0.2-1.2v-26c0-1.7,1.3-3,3-3h26
			c0.4,0,0.8,0.1,1.2,0.2c0.2,0.1,0.3,0.2,0.5,0.3c0.3,0.2,0.6,0.5,0.8,0.8c0.3,0.5,0.5,1.1,0.5,1.7V38.5z"/>
		<path d="M35,18.1v-3.5H16v3.4c-1.2,0.2-2.1,1.2-2.1,2.5c0,1.4,1.1,2.5,2.5,2.5c1.4,0,2.5-1.1,2.5-2.5c0-1.2-0.8-2.2-1.9-2.4v-2.5
			h8.4v16.2c-1.1,0.2-2,1.2-2,2.4c0,1.4,1.1,2.5,2.5,2.5c1.4,0,2.5-1.1,2.5-2.5c0-1.2-0.9-2.2-2-2.4V15.7H34v2.5
			c-1.1,0.2-2,1.2-2,2.4c0,1.4,1.1,2.5,2.5,2.5c1.4,0,2.5-1.1,2.5-2.5C37,19.4,36.2,18.3,35,18.1z M18,20.6c0,0.8-0.7,1.5-1.5,1.5
			c-0.8,0-1.5-0.7-1.5-1.5s0.7-1.5,1.5-1.5C17.3,19.1,18,19.7,18,20.6z M27.4,34.3c0,0.8-0.7,1.5-1.5,1.5s-1.5-0.7-1.5-1.5
			s0.7-1.5,1.5-1.5S27.4,33.5,27.4,34.3z M34.5,22.1c-0.8,0-1.5-0.7-1.5-1.5s0.7-1.5,1.5-1.5s1.5,0.7,1.5,1.5S35.4,22.1,34.5,22.1z"
			/>
	</g>
	<g>
		<g>
			<path class="st1" d="M39.2,9c-0.2-0.1-0.3-0.2-0.5-0.3c-0.4-0.2-0.8-0.2-1.2-0.2h-26c-1.7,0-3,1.3-3,3v26c0,0.4,0.1,0.8,0.2,1.2
				C8.8,38.8,8.9,39,9,39.2c0.2,0.3,0.5,0.6,0.8,0.8c0.5,0.3,1.1,0.5,1.7,0.5h26c0.4,0,0.8-0.1,1.2-0.2c0.2-0.1,0.3-0.2,0.5-0.3
				c0.3-0.2,0.6-0.5,0.8-0.8c0.1-0.2,0.2-0.3,0.3-0.5c0.2-0.4,0.2-0.8,0.2-1.2v-26c0-0.6-0.2-1.2-0.5-1.7C39.8,9.5,39.5,9.2,39.2,9z
				 M33.5,22.1c-1.4,0-2.5-1.1-2.5-2.5c0-1.2,0.9-2.2,2-2.4v-2.5h-7.6v16.2c1.1,0.2,2,1.2,2,2.4c0,1.4-1.1,2.5-2.5,2.5
				c-1.4,0-2.5-1.1-2.5-2.5c0-1.2,0.9-2.2,2-2.4V14.7H16v2.5c1.1,0.3,1.9,1.2,1.9,2.4c0,1.4-1.1,2.5-2.5,2.5c-1.4,0-2.5-1.1-2.5-2.5
				c0-1.2,0.9-2.3,2.1-2.5v-3.4h19v3.5c1.1,0.2,2,1.2,2,2.4C36,20.9,34.9,22.1,33.5,22.1z"/>
			<circle class="st1" cx="33.5" cy="19.6" r="1.5"/>
			<circle class="st1" cx="15.5" cy="19.6" r="1.5"/>
			<circle class="st1" cx="24.9" cy="33.3" r="1.5"/>
			<path class="st2" d="M37.5,6.5h-26c-2.8,0-5,2.2-5,5v26c0,2.8,2.2,5,5,5h26c2.8,0,5-2.2,5-5v-26C42.5,8.7,40.3,6.5,37.5,6.5z
				 M40.5,37.5c0,0.4-0.1,0.8-0.2,1.2c-0.1,0.2-0.2,0.3-0.3,0.5c-0.2,0.3-0.5,0.6-0.8,0.8c-0.2,0.1-0.3,0.2-0.5,0.3
				c-0.4,0.2-0.8,0.2-1.2,0.2h-26c-0.6,0-1.2-0.2-1.7-0.5c-0.3-0.2-0.6-0.5-0.8-0.8c-0.1-0.2-0.2-0.3-0.3-0.5
				c-0.2-0.4-0.2-0.8-0.2-1.2v-26c0-1.7,1.3-3,3-3h26c0.4,0,0.8,0.1,1.2,0.2C38.8,8.8,39,8.9,39.2,9c0.3,0.2,0.6,0.5,0.8,0.8
				c0.3,0.5,0.5,1.1,0.5,1.7V37.5z"/>
			<path class="st2" d="M34,17.1v-3.5H15v3.4c-1.2,0.2-2.1,1.2-2.1,2.5c0,1.4,1.1,2.5,2.5,2.5c1.4,0,2.5-1.1,2.5-2.5
				c0-1.2-0.8-2.2-1.9-2.4v-2.5h8.4v16.2c-1.1,0.2-2,1.2-2,2.4c0,1.4,1.1,2.5,2.5,2.5c1.4,0,2.5-1.1,2.5-2.5c0-1.2-0.9-2.2-2-2.4
				V14.7H33v2.5c-1.1,0.2-2,1.2-2,2.4c0,1.4,1.1,2.5,2.5,2.5c1.4,0,2.5-1.1,2.5-2.5C36,18.4,35.2,17.3,34,17.1z M17,19.6
				c0,0.8-0.7,1.5-1.5,1.5c-0.8,0-1.5-0.7-1.5-1.5s0.7-1.5,1.5-1.5C16.3,18.1,17,18.7,17,19.6z M26.4,33.3c0,0.8-0.7,1.5-1.5,1.5
				s-1.5-0.7-1.5-1.5s0.7-1.5,1.5-1.5S26.4,32.5,26.4,33.3z M33.5,21.1c-0.8,0-1.5-0.7-1.5-1.5s0.7-1.5,1.5-1.5s1.5,0.7,1.5,1.5
				S34.4,21.1,33.5,21.1z"/>
		</g>
	</g>
</g>
</svg>
