<?xml version="1.0" encoding="utf-8"?>
<!-- Generator: Adobe Illustrator 21.0.2, SVG Export Plug-In . SVG Version: 6.00 Build 0)  -->
<svg version="1.1" id="图层_1" xmlns="http://www.w3.org/2000/svg" xmlns:xlink="http://www.w3.org/1999/xlink" x="0px" y="0px"
	 viewBox="0 0 50 50" style="enable-background:new 0 0 50 50;" xml:space="preserve">
<style type="text/css">
	.st0{opacity:0.2;}
	.st1{fill:#FFFFFF;}
	.st2{fill:#BC09FF;}
</style>
<g>
	<g class="st0">
		<rect x="32.7" y="26.5" width="2.1" height="2.8"/>
		<circle cx="24.4" cy="27" r="1"/>
		<path d="M23.4,21.6c0-1-0.5-1.5-2-1.5h-3.9c-1.5,0-2,0.5-2,1.5v3h7.9V21.6z"/>
		<circle cx="14.5" cy="27" r="1"/>
		<rect x="35.5" y="23.4" width="2.2" height="2.5"/>
		<rect x="35.5" y="26.5" width="2.2" height="2.8"/>
		<path d="M38.5,9.5h-26c-1.6,0-3,1.3-3,3v26c0,1.7,1.4,3,3,3h26c1.7,0,3-1.3,3-3v-26C41.5,10.8,40.2,9.5,38.5,9.5z M26.4,29.4h-1
			v2.1c0,0.6-0.5,0.9-1,0.9c-0.5,0-1-0.3-1-0.9v-2.1h-7.9v2.1c0,0.6-0.5,0.9-1,0.9c-0.5,0-1-0.3-1-0.9v-2.1h-1v-2
			c0-1.5,0.5-2.5,1.5-3v-3c0-2,1-3,3.5-3h3.9c2.5,0,3.5,1,3.5,3v3c1,0.5,1.5,1.5,1.5,3V29.4z M28.5,23.7c0.8,0.4,1.5,0.9,2.1,1.4
			l-0.4,0.6c-0.6-0.5-1.3-1-2.1-1.4L28.5,23.7z M29.5,30.8c-0.2-0.2-0.5-0.4-0.8-0.6c0.7-1.1,1.3-2.6,1.9-4.4
			c0.2,0.2,0.4,0.4,0.6,0.6C30.5,27.9,29.9,29.4,29.5,30.8z M30.9,22.9c-0.6-0.6-1.2-1.1-2-1.5l0.5-0.6c0.7,0.5,1.4,1,2,1.5
			L30.9,22.9z M38.4,30.8h-0.8c0-0.3,0.1-0.6,0.1-0.9h-5c0,0.3,0,0.7,0.1,1h-0.8c0-0.5,0.1-0.9,0.1-1.3v-5.8c0-0.3,0-0.7-0.1-1.1
			c0.4,0,0.8,0.1,1,0.1h1.8v-1.7c0-0.3,0-0.6-0.1-1.1l1,0.1c0.1,0,0.1,0,0.2,0.1c0,0,0,0.1-0.1,0.2c-0.2,0.1-0.2,0.4-0.2,0.8v1.6
			h1.8c0.3,0,0.7,0,1.1-0.1c-0.1,0.4-0.1,0.8-0.1,1.1v5.7C38.3,29.9,38.4,30.4,38.4,30.8z"/>
		<rect x="32.7" y="23.4" width="2.1" height="2.5"/>
		<path d="M38.5,7.5h-26c-2.8,0-5,2.2-5,5v26c0,2.8,2.2,5,5,5h26c2.8,0,5-2.2,5-5v-26C43.5,9.7,41.3,7.5,38.5,7.5z M41.5,38.5
			c0,1.7-1.3,3-3,3h-26c-1.6,0-3-1.3-3-3v-26c0-1.7,1.4-3,3-3h26c1.7,0,3,1.3,3,3V38.5z"/>
		<path d="M28.9,21.3c0.7,0.4,1.4,1,2,1.5l0.5-0.6c-0.6-0.5-1.2-1-2-1.5L28.9,21.3z"/>
		<path d="M28.7,30.2c0.3,0.2,0.6,0.4,0.8,0.6c0.4-1.4,1-2.9,1.7-4.4c-0.2-0.2-0.4-0.4-0.6-0.6C30,27.6,29.4,29,28.7,30.2z"/>
		<path d="M38.4,22.8c-0.4,0.1-0.8,0.1-1.1,0.1h-1.8v-1.6c0-0.4,0.1-0.7,0.2-0.8c0.1-0.1,0.1-0.1,0.1-0.2c0,0-0.1-0.1-0.2-0.1
			l-1-0.1c0,0.4,0.1,0.8,0.1,1.1v1.7H33c-0.3,0-0.6,0-1-0.1c0,0.5,0.1,0.8,0.1,1.1v5.8c0,0.4,0,0.8-0.1,1.3h0.8c0-0.4-0.1-0.7-0.1-1
			h5c0,0.3,0,0.6-0.1,0.9h0.8c-0.1-0.5-0.1-0.9-0.1-1.3v-5.7C38.3,23.6,38.4,23.2,38.4,22.8z M34.8,29.3h-2.1v-2.8h2.1V29.3z
			 M34.8,25.9h-2.1v-2.5h2.1V25.9z M37.7,29.3h-2.2v-2.8h2.2V29.3z M37.7,25.9h-2.2v-2.5h2.2V25.9z"/>
		<path d="M30.5,25.1c-0.6-0.5-1.3-1-2.1-1.4l-0.4,0.6c0.8,0.4,1.4,0.9,2.1,1.4L30.5,25.1z"/>
		<path d="M24.9,24.5v-3c0-2-1-3-3.5-3h-3.9c-2.5,0-3.5,1-3.5,3v3c-1,0.5-1.5,1.5-1.5,3v2h1v2.1c0,0.6,0.5,0.9,1,0.9
			c0.5,0,1-0.3,1-0.9v-2.1h7.9v2.1c0,0.6,0.5,0.9,1,0.9c0.5,0,1-0.3,1-0.9v-2.1h1v-2C26.4,26,25.9,25,24.9,24.5z M14.5,28
			c-0.5,0-1-0.4-1-1s0.4-1,1-1c0.5,0,1,0.4,1,1S15.1,28,14.5,28z M15.5,24.5v-3c0-1,0.5-1.5,2-1.5h3.9c1.5,0,2,0.5,2,1.5v3H15.5z
			 M24.4,28c-0.5,0-1-0.4-1-1s0.4-1,1-1c0.5,0,1,0.4,1,1S25,28,24.4,28z"/>
	</g>
	<g>
		<g>
			<rect x="31.7" y="25.5" class="st1" width="2.1" height="2.8"/>
			<circle class="st1" cx="23.4" cy="26" r="1"/>
			<path class="st1" d="M22.4,20.6c0-1-0.5-1.5-2-1.5h-3.9c-1.5,0-2,0.5-2,1.5v3h7.9V20.6z"/>
			<circle class="st1" cx="13.5" cy="26" r="1"/>
			<rect x="34.5" y="22.4" class="st1" width="2.2" height="2.5"/>
			<rect x="34.5" y="25.5" class="st1" width="2.2" height="2.8"/>
			<path class="st1" d="M37.5,8.5h-26c-1.6,0-3,1.3-3,3v26c0,1.7,1.4,3,3,3h26c1.7,0,3-1.3,3-3v-26C40.5,9.8,39.2,8.5,37.5,8.5z
				 M25.4,28.4h-1v2.1c0,0.6-0.5,0.9-1,0.9c-0.5,0-1-0.3-1-0.9v-2.1h-7.9v2.1c0,0.6-0.5,0.9-1,0.9c-0.5,0-1-0.3-1-0.9v-2.1h-1v-2
				c0-1.5,0.5-2.5,1.5-3v-3c0-2,1-3,3.5-3h3.9c2.5,0,3.5,1,3.5,3v3c1,0.5,1.5,1.5,1.5,3V28.4z M27.5,22.7c0.8,0.4,1.5,0.9,2.1,1.4
				l-0.4,0.6c-0.6-0.5-1.3-1-2.1-1.4L27.5,22.7z M28.5,29.8c-0.2-0.2-0.5-0.4-0.8-0.6c0.7-1.1,1.3-2.6,1.9-4.4
				c0.2,0.2,0.4,0.4,0.6,0.6C29.5,26.9,28.9,28.4,28.5,29.8z M29.9,21.9c-0.6-0.6-1.2-1.1-2-1.5l0.5-0.6c0.7,0.5,1.4,1,2,1.5
				L29.9,21.9z M37.4,29.8h-0.8c0-0.3,0.1-0.6,0.1-0.9h-5c0,0.3,0,0.7,0.1,1h-0.8c0-0.5,0.1-0.9,0.1-1.3v-5.8c0-0.3,0-0.7-0.1-1.1
				c0.4,0,0.8,0.1,1,0.1h1.8v-1.7c0-0.3,0-0.6-0.1-1.1l1,0.1c0.1,0,0.1,0,0.2,0.1c0,0,0,0.1-0.1,0.2c-0.2,0.1-0.2,0.4-0.2,0.8v1.6
				h1.8c0.3,0,0.7,0,1.1-0.1c-0.1,0.4-0.1,0.8-0.1,1.1v5.7C37.3,28.9,37.4,29.4,37.4,29.8z"/>
			<rect x="31.7" y="22.4" class="st1" width="2.1" height="2.5"/>
			<path class="st2" d="M37.5,6.5h-26c-2.8,0-5,2.2-5,5v26c0,2.8,2.2,5,5,5h26c2.8,0,5-2.2,5-5v-26C42.5,8.7,40.3,6.5,37.5,6.5z
				 M40.5,37.5c0,1.7-1.3,3-3,3h-26c-1.6,0-3-1.3-3-3v-26c0-1.7,1.4-3,3-3h26c1.7,0,3,1.3,3,3V37.5z"/>
			<path class="st2" d="M27.9,20.3c0.7,0.4,1.4,1,2,1.5l0.5-0.6c-0.6-0.5-1.2-1-2-1.5L27.9,20.3z"/>
			<path class="st2" d="M27.7,29.2c0.3,0.2,0.6,0.4,0.8,0.6c0.4-1.4,1-2.9,1.7-4.4c-0.2-0.2-0.4-0.4-0.6-0.6
				C29,26.6,28.4,28,27.7,29.2z"/>
			<path class="st2" d="M37.4,21.8c-0.4,0.1-0.8,0.1-1.1,0.1h-1.8v-1.6c0-0.4,0.1-0.7,0.2-0.8c0.1-0.1,0.1-0.1,0.1-0.2
				c0,0-0.1-0.1-0.2-0.1l-1-0.1c0,0.4,0.1,0.8,0.1,1.1v1.7H32c-0.3,0-0.6,0-1-0.1c0,0.5,0.1,0.8,0.1,1.1v5.8c0,0.4,0,0.8-0.1,1.3
				h0.8c0-0.4-0.1-0.7-0.1-1h5c0,0.3,0,0.6-0.1,0.9h0.8c-0.1-0.5-0.1-0.9-0.1-1.3v-5.7C37.3,22.6,37.4,22.2,37.4,21.8z M33.8,28.3
				h-2.1v-2.8h2.1V28.3z M33.8,24.9h-2.1v-2.5h2.1V24.9z M36.7,28.3h-2.2v-2.8h2.2V28.3z M36.7,24.9h-2.2v-2.5h2.2V24.9z"/>
			<path class="st2" d="M29.5,24.1c-0.6-0.5-1.3-1-2.1-1.4l-0.4,0.6c0.8,0.4,1.4,0.9,2.1,1.4L29.5,24.1z"/>
			<path class="st2" d="M23.9,23.5v-3c0-2-1-3-3.5-3h-3.9c-2.5,0-3.5,1-3.5,3v3c-1,0.5-1.5,1.5-1.5,3v2h1v2.1c0,0.6,0.5,0.9,1,0.9
				c0.5,0,1-0.3,1-0.9v-2.1h7.9v2.1c0,0.6,0.5,0.9,1,0.9c0.5,0,1-0.3,1-0.9v-2.1h1v-2C25.4,25,24.9,24,23.9,23.5z M13.5,27
				c-0.5,0-1-0.4-1-1s0.4-1,1-1c0.5,0,1,0.4,1,1S14.1,27,13.5,27z M14.5,23.5v-3c0-1,0.5-1.5,2-1.5h3.9c1.5,0,2,0.5,2,1.5v3H14.5z
				 M23.4,27c-0.5,0-1-0.4-1-1s0.4-1,1-1c0.5,0,1,0.4,1,1S24,27,23.4,27z"/>
		</g>
	</g>
</g>
</svg>
