<?xml version="1.0" encoding="utf-8"?>
<!-- Generator: Adobe Illustrator 21.0.2, SVG Export Plug-In . SVG Version: 6.00 Build 0)  -->
<svg version="1.1" id="图层_1" xmlns="http://www.w3.org/2000/svg" xmlns:xlink="http://www.w3.org/1999/xlink" x="0px" y="0px"
	 viewBox="0 0 50 50" style="enable-background:new 0 0 50 50;" xml:space="preserve">
<style type="text/css">
	.st0{opacity:0.2;}
	.st1{fill:#FFFFFF;}
	.st2{fill:#F93E54;}
</style>
<g>
	<g class="st0">
		<circle cx="25.5" cy="22" r="5"/>
		<path d="M41,10.8c-0.2-0.3-0.5-0.6-0.8-0.8c-0.5-0.3-1.1-0.5-1.7-0.5h-26c-0.4,0-0.8,0.1-1.2,0.2C11.2,9.8,11,9.9,10.8,10
			c-0.3,0.2-0.6,0.5-0.8,0.8c-0.1,0.2-0.2,0.3-0.3,0.5c-0.2,0.4-0.2,0.8-0.2,1.2v26c0,0.6,0.2,1.2,0.5,1.7c0.2,0.3,0.5,0.6,0.8,0.8
			c0.2,0.1,0.3,0.2,0.5,0.3c0.4,0.2,0.8,0.2,1.2,0.2h26c1.7,0,3-1.3,3-3v-26c0-0.4-0.1-0.8-0.2-1.2C41.2,11.2,41.1,11,41,10.8z
			 M35.5,34.5c0,0.5-0.5,1-1,1h-18c-0.5,0-1-0.5-1-1v-6c0-0.5,0.5-1,1-1h6.6c-2.1-0.9-3.6-3-3.6-5.5c0-3.3,2.7-6,6-6s6,2.7,6,6
			c0,2.4-1.5,4.6-3.6,5.5h6.6c0.5,0,1,0.5,1,1V34.5z"/>
		<path d="M38.5,7.5h-26c-2.8,0-5,2.2-5,5v26c0,2.8,2.2,5,5,5h26c2.8,0,5-2.2,5-5v-26C43.5,9.7,41.3,7.5,38.5,7.5z M41.5,38.5
			c0,1.7-1.3,3-3,3h-26c-0.4,0-0.8-0.1-1.2-0.2c-0.2-0.1-0.3-0.2-0.5-0.3c-0.3-0.2-0.6-0.5-0.8-0.8c-0.3-0.5-0.5-1.1-0.5-1.7v-26
			c0-0.4,0.1-0.8,0.2-1.2c0.1-0.2,0.2-0.3,0.3-0.5c0.2-0.3,0.5-0.6,0.8-0.8c0.2-0.1,0.3-0.2,0.5-0.3c0.4-0.2,0.8-0.2,1.2-0.2h26
			c0.6,0,1.2,0.2,1.7,0.5c0.3,0.2,0.6,0.5,0.8,0.8c0.1,0.2,0.2,0.3,0.3,0.5c0.2,0.4,0.2,0.8,0.2,1.2V38.5z"/>
		<path d="M34.5,27.5h-6.6c2.1-0.9,3.6-3,3.6-5.5c0-3.3-2.7-6-6-6s-6,2.7-6,6c0,2.4,1.5,4.6,3.6,5.5h-6.6c-0.5,0-1,0.5-1,1v6
			c0,0.5,0.5,1,1,1h18c0.5,0,1-0.5,1-1v-6C35.5,27.9,35.1,27.5,34.5,27.5z M20.5,22c0-2.8,2.2-5,5-5s5,2.2,5,5s-2.2,5-5,5
			S20.5,24.7,20.5,22z"/>
	</g>
	<g>
		<g>
			<circle class="st1" cx="24.5" cy="21" r="5"/>
			<path class="st1" d="M40,9.8c-0.2-0.3-0.5-0.6-0.8-0.8c-0.5-0.3-1.1-0.5-1.7-0.5h-26c-0.4,0-0.8,0.1-1.2,0.2
				C10.2,8.8,10,8.9,9.8,9C9.5,9.2,9.2,9.5,9,9.8c-0.1,0.2-0.2,0.3-0.3,0.5c-0.2,0.4-0.2,0.8-0.2,1.2v26c0,0.6,0.2,1.2,0.5,1.7
				c0.2,0.3,0.5,0.6,0.8,0.8c0.2,0.1,0.3,0.2,0.5,0.3c0.4,0.2,0.8,0.2,1.2,0.2h26c1.7,0,3-1.3,3-3v-26c0-0.4-0.1-0.8-0.2-1.2
				C40.2,10.2,40.1,10,40,9.8z M34.5,33.5c0,0.5-0.5,1-1,1h-18c-0.5,0-1-0.5-1-1v-6c0-0.5,0.5-1,1-1h6.6c-2.1-0.9-3.6-3-3.6-5.5
				c0-3.3,2.7-6,6-6s6,2.7,6,6c0,2.4-1.5,4.6-3.6,5.5h6.6c0.5,0,1,0.5,1,1V33.5z"/>
			<path class="st2" d="M37.5,6.5h-26c-2.8,0-5,2.2-5,5v26c0,2.8,2.2,5,5,5h26c2.8,0,5-2.2,5-5v-26C42.5,8.7,40.3,6.5,37.5,6.5z
				 M40.5,37.5c0,1.7-1.3,3-3,3h-26c-0.4,0-0.8-0.1-1.2-0.2c-0.2-0.1-0.3-0.2-0.5-0.3c-0.3-0.2-0.6-0.5-0.8-0.8
				c-0.3-0.5-0.5-1.1-0.5-1.7v-26c0-0.4,0.1-0.8,0.2-1.2C8.8,10.2,8.9,10,9,9.8C9.2,9.5,9.5,9.2,9.8,9c0.2-0.1,0.3-0.2,0.5-0.3
				c0.4-0.2,0.8-0.2,1.2-0.2h26c0.6,0,1.2,0.2,1.7,0.5c0.3,0.2,0.6,0.5,0.8,0.8c0.1,0.2,0.2,0.3,0.3,0.5c0.2,0.4,0.2,0.8,0.2,1.2
				V37.5z"/>
			<path class="st2" d="M33.5,26.5h-6.6c2.1-0.9,3.6-3,3.6-5.5c0-3.3-2.7-6-6-6s-6,2.7-6,6c0,2.4,1.5,4.6,3.6,5.5h-6.6
				c-0.5,0-1,0.5-1,1v6c0,0.5,0.5,1,1,1h18c0.5,0,1-0.5,1-1v-6C34.5,26.9,34.1,26.5,33.5,26.5z M19.5,21c0-2.8,2.2-5,5-5s5,2.2,5,5
				s-2.2,5-5,5S19.5,23.7,19.5,21z"/>
		</g>
	</g>
</g>
</svg>
