<?xml version="1.0" encoding="utf-8"?>
<!-- Generator: Adobe Illustrator 21.0.2, SVG Export Plug-In . SVG Version: 6.00 Build 0)  -->
<svg version="1.1" id="图层_1" xmlns="http://www.w3.org/2000/svg" xmlns:xlink="http://www.w3.org/1999/xlink" x="0px" y="0px"
	 viewBox="0 0 50 50" style="enable-background:new 0 0 50 50;" xml:space="preserve">
<style type="text/css">
	
	.st0{opacity:0.2;}
	.st1{fill:#00A0E9;}
	.st2{fill:#FFFFFF;}
</style>
<g>
	<g class="st0">
		<path d="M38.5,7.3h-26c-2.8,0-5,2.2-5,5v26c0,2.8,2.2,5,5,5h26c2.8,0,5-2.2,5-5v-26C43.5,9.5,41.3,7.3,38.5,7.3z M41.5,38.3
			c0,1.7-1.3,3-3,3h-26c-1.6,0-3-1.3-3-3v-26c0-0.4,0.1-0.8,0.2-1.2c0.1-0.2,0.2-0.3,0.3-0.5c0.2-0.3,0.5-0.6,0.8-0.8
			c0.5-0.3,1.1-0.5,1.7-0.5h26c0.6,0,1.2,0.2,1.7,0.5c0.3,0.2,0.6,0.5,0.8,0.8c0.1,0.2,0.2,0.3,0.3,0.5c0.2,0.4,0.2,0.8,0.2,1.2
			V38.3z"/>
		<path d="M41,10.6c-0.2-0.3-0.5-0.6-0.8-0.8c-0.5-0.3-1.1-0.5-1.7-0.5h-26c-0.6,0-1.2,0.2-1.7,0.5c-0.3,0.2-0.6,0.5-0.8,0.8
			c-0.1,0.2-0.2,0.3-0.3,0.5c-0.2,0.4-0.2,0.8-0.2,1.2v26c0,1.7,1.4,3,3,3h26c1.7,0,3-1.3,3-3v-26c0-0.4-0.1-0.8-0.2-1.2
			C41.2,10.9,41.1,10.7,41,10.6z M24,35.5l-3.1,3.1l-0.7-0.7L23,35V15.5l-2.9-2.9l0.7-0.7L24,15V35.5z M30.9,37.9l-0.7,0.7L27,35.5
			V15l3.1-3.1l0.7,0.7L28,15.5V35L30.9,37.9z"/>
		<polygon points="20.1,12.6 23,15.5 23,35 20.1,37.9 20.9,38.6 24,35.5 24,15 20.9,11.9 		"/>
		<polygon points="30.9,12.6 30.1,11.9 27,15 27,35.5 30.1,38.6 30.9,37.9 28,35 28,15.5 		"/>
	</g>
	<g>
		<g>
			<g>
				<path class="st1" d="M37.5,6.3h-26c-2.8,0-5,2.2-5,5v26c0,2.8,2.2,5,5,5h26c2.8,0,5-2.2,5-5v-26C42.5,8.5,40.3,6.3,37.5,6.3z
					 M40.5,37.3c0,1.7-1.3,3-3,3h-26c-1.6,0-3-1.3-3-3v-26c0-0.4,0.1-0.8,0.2-1.2C8.8,9.9,8.9,9.7,9,9.6C9.2,9.3,9.5,9,9.8,8.8
					c0.5-0.3,1.1-0.5,1.7-0.5h26c0.6,0,1.2,0.2,1.7,0.5C39.5,9,39.8,9.3,40,9.6c0.1,0.2,0.2,0.3,0.3,0.5c0.2,0.4,0.2,0.8,0.2,1.2
					V37.3z"/>
			</g>
			<path class="st2" d="M40,9.6c-0.2-0.3-0.5-0.6-0.8-0.8c-0.5-0.3-1.1-0.5-1.7-0.5h-26c-0.6,0-1.2,0.2-1.7,0.5C9.5,9,9.2,9.3,9,9.6
				c-0.1,0.2-0.2,0.3-0.3,0.5c-0.2,0.4-0.2,0.8-0.2,1.2v26c0,1.7,1.4,3,3,3h26c1.7,0,3-1.3,3-3v-26c0-0.4-0.1-0.8-0.2-1.2
				C40.2,9.9,40.1,9.7,40,9.6z M23,34.5l-3.1,3.1l-0.7-0.7L22,34V14.5l-2.9-2.9l0.7-0.7L23,14V34.5z M29.9,36.9l-0.7,0.7L26,34.5V14
				l3.1-3.1l0.7,0.7L27,14.5V34L29.9,36.9z"/>
			<polygon class="st1" points="19.1,11.6 22,14.5 22,34 19.1,36.9 19.9,37.6 23,34.5 23,14 19.9,10.9 			"/>
			<polygon class="st1" points="29.9,11.6 29.1,10.9 26,14 26,34.5 29.1,37.6 29.9,36.9 27,34 27,14.5 			"/>
		</g>
	</g>
</g>
</svg>
