<?xml version="1.0" encoding="utf-8"?>
<!-- Generator: Adobe Illustrator 21.0.2, SVG Export Plug-In . SVG Version: 6.00 Build 0)  -->
<svg version="1.1" id="图层_1" xmlns="http://www.w3.org/2000/svg" xmlns:xlink="http://www.w3.org/1999/xlink" x="0px" y="0px"
	 viewBox="0 0 50 50" style="enable-background:new 0 0 50 50;" xml:space="preserve">
<style type="text/css">
	.st0{opacity:0.2;}
	.st1{fill:#FFFFFF;}
	.st2{fill:#F93E54;}
</style>
<g>
	<g class="st0">
		<circle cx="19.5" cy="25.5" r="4"/>
		<rect x="31.4" y="27.1" width="4.6" height="2"/>
		<path d="M38.5,9.5h-26c-1.7,0-3,1.4-3,3v26c0,1.7,1.3,3,3,3h26c1.6,0,3-1.3,3-3v-26C41.5,10.9,40.2,9.5,38.5,9.5z M32.9,19.4
			c0.6,0.4,1.3,0.8,1.9,1.3l-0.3,0.5c-0.6-0.6-1.2-1-1.9-1.3L32.9,19.4z M19.5,30.5c-2.8,0-5-2.2-5-5s2.2-5,5-5s5,2.2,5,5
			S22.3,30.5,19.5,30.5z M29,30.6h-0.6c0-0.2,0.1-0.5,0.1-0.7v-7.1c-0.5,0.8-1,1.5-1.5,2.1c-0.2-0.1-0.4-0.2-0.7-0.3
			c1.2-0.8,2.3-2.5,3.2-5.1l0.8,0.4c-0.2,0.1-0.4,0.2-0.5,0.4c-0.2,0.6-0.5,1.1-0.8,1.7v7.9C28.9,30.2,29,30.5,29,30.6z M36.6,30.5
			H36c0-0.3,0.1-0.5,0.1-0.7v-0.3h-4.6v0.3c0,0.3,0,0.6,0.1,0.8h-0.6c0-0.2,0.1-0.5,0.1-0.8v-2.4c0-0.3,0-0.5-0.1-0.8
			c0.2,0,0.4,0.1,0.7,0.1h4.2c0.3,0,0.6,0,0.7-0.1c0,0.2-0.1,0.5-0.1,0.8v2.4C36.5,30.1,36.5,30.3,36.6,30.5z M36.6,25.4
			c-0.2,0-0.4-0.1-0.8-0.1h-4.3c-0.3,0-0.5,0-0.7,0.1v-0.5c0.2,0,0.4,0.1,0.7,0.1h4.3c0.3,0,0.5,0,0.8-0.1V25.4z M36.6,23.6
			c-0.2,0-0.4-0.1-0.8-0.1h-4.2c-0.3,0-0.5,0-0.7,0.1v-0.5c0.2,0,0.4,0.1,0.7,0.1h4.2c0.3,0,0.6,0,0.8-0.1V23.6z M37.6,21.9
			c-0.2,0-0.4-0.1-0.7-0.1h-6.3c-0.3,0-0.5,0-0.7,0.1v-0.5c0.2,0,0.4,0.1,0.7,0.1h6.2c0.3,0,0.6,0,0.7-0.1V21.9z"/>
		<path d="M38.5,7.5h-26c-2.8,0-5,2.2-5,5v26c0,2.8,2.2,5,5,5h26c2.8,0,5-2.2,5-5v-26C43.5,9.7,41.3,7.5,38.5,7.5z M41.5,38.5
			c0,1.7-1.4,3-3,3h-26c-1.7,0-3-1.3-3-3v-26c0-1.6,1.3-3,3-3h26c1.6,0,3,1.4,3,3V38.5z"/>
		<path d="M19.5,20.5c-2.8,0-5,2.2-5,5s2.2,5,5,5s5-2.2,5-5S22.3,20.5,19.5,20.5z M19.5,29.5c-2.2,0-4-1.8-4-4c0-2.2,1.8-4,4-4
			c2.2,0,4,1.8,4,4C23.5,27.7,21.7,29.5,19.5,29.5z"/>
		<path d="M36.6,26.6c-0.2,0-0.4,0.1-0.7,0.1h-4.2c-0.3,0-0.5,0-0.7-0.1c0,0.2,0.1,0.5,0.1,0.8v2.4c0,0.3,0,0.6-0.1,0.8h0.6
			c0-0.2-0.1-0.5-0.1-0.8v-0.3h4.6v0.3c0,0.2,0,0.5-0.1,0.7h0.6c0-0.2-0.1-0.5-0.1-0.7v-2.4C36.5,27.1,36.5,26.8,36.6,26.6z
			 M36.1,29.1h-4.6v-2h4.6V29.1z"/>
		<path d="M31.7,23.1c-0.3,0-0.5,0-0.7-0.1v0.5c0.2,0,0.4-0.1,0.7-0.1h4.2c0.3,0,0.6,0,0.8,0.1v-0.5c-0.2,0-0.4,0.1-0.8,0.1H31.7z"
			/>
		<path d="M30.6,21.4c-0.3,0-0.6,0-0.7-0.1v0.5c0.2,0,0.4-0.1,0.7-0.1h6.3c0.3,0,0.5,0,0.7,0.1v-0.5c-0.2,0-0.4,0.1-0.7,0.1H30.6z"
			/>
		<path d="M29.8,20.3c0.1-0.2,0.3-0.3,0.5-0.4l-0.8-0.4c-0.9,2.6-1.9,4.3-3.2,5.1c0.3,0.1,0.5,0.2,0.7,0.3c0.5-0.6,1-1.3,1.5-2.1
			v7.1c0,0.3,0,0.5-0.1,0.7H29c0-0.1,0-0.3-0.1-0.7V22C29.2,21.4,29.5,20.9,29.8,20.3z"/>
		<path d="M31.6,24.9c-0.3,0-0.6,0-0.7-0.1v0.5c0.2,0,0.4-0.1,0.7-0.1h4.3c0.3,0,0.6,0,0.8,0.1v-0.5c-0.2,0-0.5,0.1-0.8,0.1H31.6z"
			/>
		<path d="M34.8,20.7c-0.6-0.5-1.2-0.9-1.9-1.3l-0.3,0.5c0.7,0.3,1.3,0.8,1.9,1.3L34.8,20.7z"/>
	</g>
	<g>
		<g>
			<circle class="st1" cx="18.5" cy="24.5" r="4"/>
			<rect x="30.4" y="26.1" class="st1" width="4.6" height="2"/>
			<path class="st1" d="M37.5,8.5h-26c-1.7,0-3,1.4-3,3v26c0,1.7,1.3,3,3,3h26c1.6,0,3-1.3,3-3v-26C40.5,9.9,39.2,8.5,37.5,8.5z
				 M31.9,18.4c0.6,0.4,1.3,0.8,1.9,1.3l-0.3,0.5c-0.6-0.6-1.2-1-1.9-1.3L31.9,18.4z M18.5,29.5c-2.8,0-5-2.2-5-5s2.2-5,5-5
				s5,2.2,5,5S21.3,29.5,18.5,29.5z M28,29.6h-0.6c0-0.2,0.1-0.5,0.1-0.7v-7.1c-0.5,0.8-1,1.5-1.5,2.1c-0.2-0.1-0.4-0.2-0.7-0.3
				c1.2-0.8,2.3-2.5,3.2-5.1l0.8,0.4c-0.2,0.1-0.4,0.2-0.5,0.4c-0.2,0.6-0.5,1.1-0.8,1.7v7.9C27.9,29.2,28,29.5,28,29.6z M35.6,29.5
				H35c0-0.3,0.1-0.5,0.1-0.7v-0.3h-4.6v0.3c0,0.3,0,0.6,0.1,0.8h-0.6c0-0.2,0.1-0.5,0.1-0.8v-2.4c0-0.3,0-0.5-0.1-0.8
				c0.2,0,0.4,0.1,0.7,0.1h4.2c0.3,0,0.6,0,0.7-0.1c0,0.2-0.1,0.5-0.1,0.8v2.4C35.5,29.1,35.5,29.3,35.6,29.5z M35.6,24.4
				c-0.2,0-0.4-0.1-0.8-0.1h-4.3c-0.3,0-0.5,0-0.7,0.1v-0.5c0.2,0,0.4,0.1,0.7,0.1h4.3c0.3,0,0.5,0,0.8-0.1V24.4z M35.6,22.6
				c-0.2,0-0.4-0.1-0.8-0.1h-4.2c-0.3,0-0.5,0-0.7,0.1v-0.5c0.2,0,0.4,0.1,0.7,0.1h4.2c0.3,0,0.6,0,0.8-0.1V22.6z M36.6,20.9
				c-0.2,0-0.4-0.1-0.7-0.1h-6.3c-0.3,0-0.5,0-0.7,0.1v-0.5c0.2,0,0.4,0.1,0.7,0.1h6.2c0.3,0,0.6,0,0.7-0.1V20.9z"/>
			<path class="st2" d="M37.5,6.5h-26c-2.8,0-5,2.2-5,5v26c0,2.8,2.2,5,5,5h26c2.8,0,5-2.2,5-5v-26C42.5,8.7,40.3,6.5,37.5,6.5z
				 M40.5,37.5c0,1.7-1.4,3-3,3h-26c-1.7,0-3-1.3-3-3v-26c0-1.6,1.3-3,3-3h26c1.6,0,3,1.4,3,3V37.5z"/>
			<path class="st2" d="M18.5,19.5c-2.8,0-5,2.2-5,5s2.2,5,5,5s5-2.2,5-5S21.3,19.5,18.5,19.5z M18.5,28.5c-2.2,0-4-1.8-4-4
				c0-2.2,1.8-4,4-4c2.2,0,4,1.8,4,4C22.5,26.7,20.7,28.5,18.5,28.5z"/>
			<path class="st2" d="M35.6,25.6c-0.2,0-0.4,0.1-0.7,0.1h-4.2c-0.3,0-0.5,0-0.7-0.1c0,0.2,0.1,0.5,0.1,0.8v2.4
				c0,0.3,0,0.6-0.1,0.8h0.6c0-0.2-0.1-0.5-0.1-0.8v-0.3h4.6v0.3c0,0.2,0,0.5-0.1,0.7h0.6c0-0.2-0.1-0.5-0.1-0.7v-2.4
				C35.5,26.1,35.5,25.8,35.6,25.6z M35.1,28.1h-4.6v-2h4.6V28.1z"/>
			<path class="st2" d="M30.7,22.1c-0.3,0-0.5,0-0.7-0.1v0.5c0.2,0,0.4-0.1,0.7-0.1h4.2c0.3,0,0.6,0,0.8,0.1v-0.5
				c-0.2,0-0.4,0.1-0.8,0.1H30.7z"/>
			<path class="st2" d="M29.6,20.4c-0.3,0-0.6,0-0.7-0.1v0.5c0.2,0,0.4-0.1,0.7-0.1h6.3c0.3,0,0.5,0,0.7,0.1v-0.5
				c-0.2,0-0.4,0.1-0.7,0.1H29.6z"/>
			<path class="st2" d="M28.8,19.3c0.1-0.2,0.3-0.3,0.5-0.4l-0.8-0.4c-0.9,2.6-1.9,4.3-3.2,5.1c0.3,0.1,0.5,0.2,0.7,0.3
				c0.5-0.6,1-1.3,1.5-2.1v7.1c0,0.3,0,0.5-0.1,0.7H28c0-0.1,0-0.3-0.1-0.7V21C28.2,20.4,28.5,19.9,28.8,19.3z"/>
			<path class="st2" d="M30.6,23.9c-0.3,0-0.6,0-0.7-0.1v0.5c0.2,0,0.4-0.1,0.7-0.1h4.3c0.3,0,0.6,0,0.8,0.1v-0.5
				c-0.2,0-0.5,0.1-0.8,0.1H30.6z"/>
			<path class="st2" d="M33.8,19.7c-0.6-0.5-1.2-0.9-1.9-1.3l-0.3,0.5c0.7,0.3,1.3,0.8,1.9,1.3L33.8,19.7z"/>
		</g>
	</g>
</g>
</svg>
