<?xml version="1.0" encoding="utf-8"?>
<!-- Generator: Adobe Illustrator 21.0.2, SVG Export Plug-In . SVG Version: 6.00 Build 0)  -->
<svg version="1.1" id="图层_1" xmlns="http://www.w3.org/2000/svg" xmlns:xlink="http://www.w3.org/1999/xlink" x="0px" y="0px"
	 viewBox="0 0 50 50" style="enable-background:new 0 0 50 50;" xml:space="preserve">
<style type="text/css">
	.st0{opacity:0.2;}
	.st1{fill:#FFFFFF;}
	.st2{fill:#F93E54;}
</style>
<g>
	<g class="st0">
		<path d="M38.5,9.5h-26c-1.7,0-3,1.3-3,3v26c0,1.6,1.3,3,3,3h26c1.6,0,3-1.4,3-3v-26C41.5,10.8,40.2,9.5,38.5,9.5z M32.5,32.2
			l-0.7,0.7l-6.3-6.3l-6.3,6.3l-0.7-0.7l6.3-6.3l-1.5-1.5l-3.9,3.9l-5.7-5.7l4.2-4.2l0,0l0.4-0.4l7.1,7.1l1.1-1.1l0,0l6.4-6.4
			l4.9,4.9L31.6,29l-4.2-4.2l-1.1,1.1L32.5,32.2z"/>
		<rect x="28.8" y="20.9" transform="matrix(0.7071 -0.7071 0.7071 0.7071 -7.0719 29.6869)" width="7" height="5"/>
		<path d="M38.5,7.5h-26c-2.8,0-5,2.2-5,5v26c0,2.8,2.2,5,5,5h26c2.8,0,5-2.2,5-5v-26C43.5,9.7,41.3,7.5,38.5,7.5z M41.5,38.5
			c0,1.6-1.4,3-3,3h-26c-1.7,0-3-1.4-3-3v-26c0-1.7,1.3-3,3-3h26c1.6,0,3,1.3,3,3V38.5z"/>
		<path d="M31.6,29l6.4-6.4L33,17.7l-6.4,6.4l0,0l-1.1,1.1l-7.1-7.1L18,18.4l0,0l-4.2,4.2l5.7,5.7l3.9-3.9l1.5,1.5l-6.3,6.3l0.7,0.7
			l6.3-6.3l6.3,6.3l0.7-0.7l-6.3-6.3l1.1-1.1L31.6,29z M31.6,27.6l-3.5-3.5l5-4.9l3.5,3.5L31.6,27.6z"/>
	</g>
	<g>
		<g>
			<path class="st1" d="M37.5,8.5h-26c-1.7,0-3,1.3-3,3v26c0,1.6,1.3,3,3,3h26c1.6,0,3-1.4,3-3v-26C40.5,9.8,39.2,8.5,37.5,8.5z
				 M31.5,31.2l-0.7,0.7l-6.3-6.3l-6.3,6.3l-0.7-0.7l6.3-6.3l-1.5-1.5l-3.9,3.9l-5.7-5.7l4.2-4.2l0,0l0.4-0.4l7.1,7.1l1.1-1.1l0,0
				l6.4-6.4l4.9,4.9L30.6,28l-4.2-4.2l-1.1,1.1L31.5,31.2z"/>
			<rect x="27.8" y="19.9" transform="matrix(0.7071 -0.7071 0.7071 0.7071 -6.6577 28.6869)" class="st1" width="7" height="5"/>
			<path class="st2" d="M37.5,6.5h-26c-2.8,0-5,2.2-5,5v26c0,2.8,2.2,5,5,5h26c2.8,0,5-2.2,5-5v-26C42.5,8.7,40.3,6.5,37.5,6.5z
				 M40.5,37.5c0,1.6-1.4,3-3,3h-26c-1.7,0-3-1.4-3-3v-26c0-1.7,1.3-3,3-3h26c1.6,0,3,1.3,3,3V37.5z"/>
			<path class="st2" d="M30.6,28l6.4-6.4L32,16.7l-6.4,6.4l0,0l-1.1,1.1l-7.1-7.1L17,17.4l0,0l-4.2,4.2l5.7,5.7l3.9-3.9l1.5,1.5
				l-6.3,6.3l0.7,0.7l6.3-6.3l6.3,6.3l0.7-0.7l-6.3-6.3l1.1-1.1L30.6,28z M30.6,26.6l-3.5-3.5l5-4.9l3.5,3.5L30.6,26.6z"/>
		</g>
	</g>
</g>
</svg>
