<?xml version="1.0" encoding="utf-8"?>
<!-- Generator: Adobe Illustrator 21.0.2, SVG Export Plug-In . SVG Version: 6.00 Build 0)  -->
<svg version="1.1" id="图层_1" xmlns="http://www.w3.org/2000/svg" xmlns:xlink="http://www.w3.org/1999/xlink" x="0px" y="0px"
	 viewBox="0 0 50 50" style="enable-background:new 0 0 50 50;" xml:space="preserve">
<style type="text/css">
	.st0{opacity:0.2;}
	.st1{fill:#FFFFFF;}
	.st2{fill:#F93E54;}
</style>
<g>
	<g class="st0">
		<path d="M25.5,26.1L17,30.8c1.8,2.8,4.9,4.7,8.5,4.7c3.5,0,6.6-1.8,8.4-4.6L25.5,26.1z"/>
		<path d="M25,25.2v-9.7c-5.3,0.3-9.5,4.6-9.5,10c0,1.6,0.4,3.1,1,4.4L25,25.2z"/>
		<path d="M16.7,30.3L16.7,30.3C16.7,30.3,16.7,30.3,16.7,30.3z"/>
		<path d="M38.5,9.5h-26c-1.7,0-3,1.4-3,3v26c0,1.7,1.3,3,3,3h26c1.6,0,3-1.3,3-3v-26C41.5,10.9,40.2,9.5,38.5,9.5z M25.5,36.5
			c-6.1,0-11-4.9-11-11s4.9-11,11-11s11,4.9,11,11S31.6,36.5,25.5,36.5z"/>
		<path d="M26,15.5v9.7l8.4,4.9c0.7-1.4,1.1-2.9,1.1-4.6C35.5,20.1,31.3,15.8,26,15.5z"/>
		<path d="M38.5,7.5h-26c-2.8,0-5,2.2-5,5v26c0,2.8,2.2,5,5,5h26c2.8,0,5-2.2,5-5v-26C43.5,9.7,41.3,7.5,38.5,7.5z M41.5,38.5
			c0,1.7-1.4,3-3,3h-26c-1.7,0-3-1.3-3-3v-26c0-1.6,1.3-3,3-3h26c1.6,0,3,1.4,3,3V38.5z"/>
		<path d="M25.5,14.5c-6.1,0-11,4.9-11,11s4.9,11,11,11s11-4.9,11-11S31.6,14.5,25.5,14.5z M25,15.5v9.7l-8.5,4.7
			c-0.7-1.3-1-2.8-1-4.4C15.5,20.1,19.7,15.8,25,15.5z M16.7,30.2L16.7,30.2C16.7,30.3,16.7,30.3,16.7,30.2z M25.5,35.5
			c-3.6,0-6.7-1.9-8.5-4.7l8.5-4.7l8.4,4.9C32.1,33.7,29,35.5,25.5,35.5z M34.4,30.1L26,25.2v-9.7c5.3,0.3,9.5,4.6,9.5,10
			C35.5,27.1,35.1,28.7,34.4,30.1z"/>
	</g>
	<g>
		<g>
			<path class="st1" d="M24.5,25.1L16,29.8c1.8,2.8,4.9,4.7,8.5,4.7c3.5,0,6.6-1.8,8.4-4.6L24.5,25.1z"/>
			<path class="st1" d="M24,24.2v-9.7c-5.3,0.3-9.5,4.6-9.5,10c0,1.6,0.4,3.1,1,4.4L24,24.2z"/>
			<path class="st1" d="M15.7,29.3L15.7,29.3C15.7,29.3,15.7,29.3,15.7,29.3z"/>
			<path class="st1" d="M37.5,8.5h-26c-1.7,0-3,1.4-3,3v26c0,1.7,1.3,3,3,3h26c1.6,0,3-1.3,3-3v-26C40.5,9.9,39.2,8.5,37.5,8.5z
				 M24.5,35.5c-6.1,0-11-4.9-11-11s4.9-11,11-11s11,4.9,11,11S30.6,35.5,24.5,35.5z"/>
			<path class="st1" d="M25,14.5v9.7l8.4,4.9c0.7-1.4,1.1-2.9,1.1-4.6C34.5,19.1,30.3,14.8,25,14.5z"/>
			<path class="st2" d="M37.5,6.5h-26c-2.8,0-5,2.2-5,5v26c0,2.8,2.2,5,5,5h26c2.8,0,5-2.2,5-5v-26C42.5,8.7,40.3,6.5,37.5,6.5z
				 M40.5,37.5c0,1.7-1.4,3-3,3h-26c-1.7,0-3-1.3-3-3v-26c0-1.6,1.3-3,3-3h26c1.6,0,3,1.4,3,3V37.5z"/>
			<path class="st2" d="M24.5,13.5c-6.1,0-11,4.9-11,11s4.9,11,11,11s11-4.9,11-11S30.6,13.5,24.5,13.5z M24,14.5v9.7l-8.5,4.7
				c-0.7-1.3-1-2.8-1-4.4C14.5,19.1,18.7,14.8,24,14.5z M15.7,29.2L15.7,29.2C15.7,29.3,15.7,29.3,15.7,29.2z M24.5,34.5
				c-3.6,0-6.7-1.9-8.5-4.7l8.5-4.7l8.4,4.9C31.1,32.7,28,34.5,24.5,34.5z M33.4,29.1L25,24.2v-9.7c5.3,0.3,9.5,4.6,9.5,10
				C34.5,26.1,34.1,27.7,33.4,29.1z"/>
		</g>
	</g>
</g>
</svg>
