<?xml version="1.0" encoding="utf-8"?>
<!-- Generator: Adobe Illustrator 21.0.2, SVG Export Plug-In . SVG Version: 6.00 Build 0)  -->
<svg version="1.1" id="图层_1" xmlns="http://www.w3.org/2000/svg" xmlns:xlink="http://www.w3.org/1999/xlink" x="0px" y="0px"
	 viewBox="0 0 50 50" style="enable-background:new 0 0 50 50;" xml:space="preserve">
<style type="text/css">
	
	.st0{opacity:0.2;}
	.st1{fill:#FFFFFF;}
	.st2{fill:#00A0E9;}
</style>
<g>
	<g class="st0">
		<polygon points="25.5,28.8 29.5,32.8 29.5,21.7 25.5,17.7 		"/>
		<polygon points="20.5,32.8 24.5,28.8 24.5,17.7 20.5,21.7 		"/>
		<path d="M41,10.6c-0.2-0.3-0.5-0.6-0.8-0.8c-0.5-0.3-1.1-0.5-1.7-0.5h-26c-0.6,0-1.2,0.2-1.7,0.5c-0.3,0.2-0.6,0.5-0.8,0.8
			c-0.1,0.2-0.2,0.3-0.3,0.5c-0.2,0.4-0.2,0.8-0.2,1.2v26c0,1.7,1.4,3,3,3h26c1.7,0,3-1.3,3-3v-26c0-0.4-0.1-0.8-0.2-1.2
			C41.2,10.9,41.1,10.7,41,10.6z M35.5,29.3l-5,5v1L30,34.8l-0.5,0.5v-1L25,29.8l-4.5,4.5v1L20,34.8l-0.5,0.5v-1l-5-5v-14l5.5,5.5
			l4.5-4.5v-1l0.5,0.5l0.5-0.5v1l4.5,4.5l5.5-5.5V29.3z"/>
		<polygon points="15.5,28.8 19.5,32.8 19.5,21.7 15.5,17.7 		"/>
		<polygon points="34.5,17.7 30.5,21.7 30.5,32.8 34.5,28.8 		"/>
		<path d="M38.5,7.3h-26c-2.8,0-5,2.2-5,5v26c0,2.8,2.2,5,5,5h26c2.8,0,5-2.2,5-5v-26C43.5,9.5,41.3,7.3,38.5,7.3z M41.5,38.3
			c0,1.7-1.3,3-3,3h-26c-1.6,0-3-1.3-3-3v-26c0-0.4,0.1-0.8,0.2-1.2c0.1-0.2,0.2-0.3,0.3-0.5c0.2-0.3,0.5-0.6,0.8-0.8
			c0.5-0.3,1.1-0.5,1.7-0.5h26c0.6,0,1.2,0.2,1.7,0.5c0.3,0.2,0.6,0.5,0.8,0.8c0.1,0.2,0.2,0.3,0.3,0.5c0.2,0.4,0.2,0.8,0.2,1.2
			V38.3z"/>
		<path d="M25.5,16.3v-1L25,15.8l-0.5-0.5v1L20,20.8l-5.5-5.5v14l5,5v1l0.5-0.5l0.5,0.5v-1l4.5-4.5l4.5,4.5v1l0.5-0.5l0.5,0.5v-1
			l5-5v-14L30,20.8L25.5,16.3z M19.5,32.8l-4-4V17.7l4,4V32.8z M24.5,28.8l-4,4V21.7l4-4V28.8z M29.5,32.8l-4-4V17.7l4,4V32.8z
			 M30.5,21.7l4-4v11.2l-4,4V21.7z"/>
	</g>
	<g>
		<g>
			<polygon class="st1" points="24.5,27.8 28.5,31.8 28.5,20.7 24.5,16.7 			"/>
			<polygon class="st1" points="19.5,31.8 23.5,27.8 23.5,16.7 19.5,20.7 			"/>
			<path class="st1" d="M40,9.6c-0.2-0.3-0.5-0.6-0.8-0.8c-0.5-0.3-1.1-0.5-1.7-0.5h-26c-0.6,0-1.2,0.2-1.7,0.5C9.5,9,9.2,9.3,9,9.6
				c-0.1,0.2-0.2,0.3-0.3,0.5c-0.2,0.4-0.2,0.8-0.2,1.2v26c0,1.7,1.4,3,3,3h26c1.7,0,3-1.3,3-3v-26c0-0.4-0.1-0.8-0.2-1.2
				C40.2,9.9,40.1,9.7,40,9.6z M34.5,28.3l-5,5v1L29,33.8l-0.5,0.5v-1L24,28.8l-4.5,4.5v1L19,33.8l-0.5,0.5v-1l-5-5v-14l5.5,5.5
				l4.5-4.5v-1l0.5,0.5l0.5-0.5v1l4.5,4.5l5.5-5.5V28.3z"/>
			<polygon class="st1" points="14.5,27.8 18.5,31.8 18.5,20.7 14.5,16.7 			"/>
			<polygon class="st1" points="33.5,16.7 29.5,20.7 29.5,31.8 33.5,27.8 			"/>
			<g>
				<path class="st2" d="M37.5,6.3h-26c-2.8,0-5,2.2-5,5v26c0,2.8,2.2,5,5,5h26c2.8,0,5-2.2,5-5v-26C42.5,8.5,40.3,6.3,37.5,6.3z
					 M40.5,37.3c0,1.7-1.3,3-3,3h-26c-1.6,0-3-1.3-3-3v-26c0-0.4,0.1-0.8,0.2-1.2C8.8,9.9,8.9,9.7,9,9.6C9.2,9.3,9.5,9,9.8,8.8
					c0.5-0.3,1.1-0.5,1.7-0.5h26c0.6,0,1.2,0.2,1.7,0.5C39.5,9,39.8,9.3,40,9.6c0.1,0.2,0.2,0.3,0.3,0.5c0.2,0.4,0.2,0.8,0.2,1.2
					V37.3z"/>
			</g>
			<path class="st2" d="M24.5,15.3v-1L24,14.8l-0.5-0.5v1L19,19.8l-5.5-5.5v14l5,5v1l0.5-0.5l0.5,0.5v-1l4.5-4.5l4.5,4.5v1l0.5-0.5
				l0.5,0.5v-1l5-5v-14L29,19.8L24.5,15.3z M18.5,31.8l-4-4V16.7l4,4V31.8z M23.5,27.8l-4,4V20.7l4-4V27.8z M28.5,31.8l-4-4V16.7
				l4,4V31.8z M29.5,20.7l4-4v11.2l-4,4V20.7z"/>
		</g>
	</g>
</g>
</svg>
