<?xml version="1.0" encoding="utf-8"?>
<!-- Generator: Adobe Illustrator 21.0.2, SVG Export Plug-In . SVG Version: 6.00 Build 0)  -->
<svg version="1.1" id="图层_1" xmlns="http://www.w3.org/2000/svg" xmlns:xlink="http://www.w3.org/1999/xlink" x="0px" y="0px"
	 viewBox="0 0 50 50" style="enable-background:new 0 0 50 50;" xml:space="preserve">
<style type="text/css">
	.st0{opacity:0.2;}
	.st1{fill:#FFFFFF;}
	.st2{fill:#00A0E9;}
</style>
<g>
	<g class="st0">
		<path d="M31.5,13.8h-12v23h12V13.8z M29.3,30.8l-6.8,1.8c-0.8,0.2-1.6-0.3-1.8-1.1c-0.2-0.8,0.3-1.6,1.1-1.8l6.8-1.8
			c0.8-0.2,1.6,0.3,1.8,1.1C30.5,29.8,30.1,30.6,29.3,30.8z M29.3,25.8l-6.8,1.8c-0.8,0.2-1.6-0.3-1.8-1.1c-0.2-0.8,0.3-1.6,1.1-1.8
			l6.8-1.8c0.8-0.2,1.6,0.3,1.8,1.1C30.5,24.8,30.1,25.6,29.3,25.8z M29.3,20.8l-6.8,1.8c-0.8,0.2-1.6-0.3-1.8-1.1
			c-0.2-0.8,0.3-1.6,1.1-1.8l6.8-1.8c0.8-0.2,1.6,0.3,1.8,1.1C30.5,19.8,30.1,20.6,29.3,20.8z"/>
		<path d="M41,10.6c-0.2-0.3-0.5-0.6-0.8-0.8c-0.5-0.3-1.1-0.5-1.7-0.5h-26c-0.6,0-1.2,0.2-1.7,0.5c-0.3,0.2-0.6,0.5-0.8,0.8
			c-0.1,0.2-0.2,0.3-0.3,0.5c-0.2,0.4-0.2,0.8-0.2,1.2v26c0,1.7,1.4,3,3,3h26c1.7,0,3-1.3,3-3v-26c0-0.4-0.1-0.8-0.2-1.2
			C41.2,10.9,41.1,10.7,41,10.6z M32.5,37.8h-14v-25h14V37.8z"/>
		<path d="M38.5,7.3h-26c-2.8,0-5,2.2-5,5v26c0,2.8,2.2,5,5,5h26c2.8,0,5-2.2,5-5v-26C43.5,9.5,41.3,7.3,38.5,7.3z M41.5,38.3
			c0,1.7-1.3,3-3,3h-26c-1.6,0-3-1.3-3-3v-26c0-0.4,0.1-0.8,0.2-1.2c0.1-0.2,0.2-0.3,0.3-0.5c0.2-0.3,0.5-0.6,0.8-0.8
			c0.5-0.3,1.1-0.5,1.7-0.5h26c0.6,0,1.2,0.2,1.7,0.5c0.3,0.2,0.6,0.5,0.8,0.8c0.1,0.2,0.2,0.3,0.3,0.5c0.2,0.4,0.2,0.8,0.2,1.2
			V38.3z"/>
		<path d="M18.5,37.8h14v-25h-14V37.8z M19.5,13.8h12v23h-12V13.8z"/>
		<path d="M28.5,17.9l-6.8,1.8c-0.8,0.2-1.3,1-1.1,1.8c0.2,0.8,1,1.3,1.8,1.1l6.8-1.8c0.8-0.2,1.3-1,1.1-1.8
			C30.1,18.2,29.3,17.7,28.5,17.9z"/>
		<path d="M28.5,22.9l-6.8,1.8c-0.8,0.2-1.3,1-1.1,1.8c0.2,0.8,1,1.3,1.8,1.1l6.8-1.8c0.8-0.2,1.3-1,1.1-1.8
			C30.1,23.2,29.3,22.7,28.5,22.9z"/>
		<path d="M28.5,27.9l-6.8,1.8c-0.8,0.2-1.3,1-1.1,1.8c0.2,0.8,1,1.3,1.8,1.1l6.8-1.8c0.8-0.2,1.3-1,1.1-1.8
			C30.1,28.2,29.3,27.7,28.5,27.9z"/>
	</g>
	<g>
		<g>
			<path class="st1" d="M30.5,12.8h-12v23h12V12.8z M28.3,29.8l-6.8,1.8c-0.8,0.2-1.6-0.3-1.8-1.1c-0.2-0.8,0.3-1.6,1.1-1.8l6.8-1.8
				c0.8-0.2,1.6,0.3,1.8,1.1C29.5,28.8,29.1,29.6,28.3,29.8z M28.3,24.8l-6.8,1.8c-0.8,0.2-1.6-0.3-1.8-1.1
				c-0.2-0.8,0.3-1.6,1.1-1.8l6.8-1.8c0.8-0.2,1.6,0.3,1.8,1.1C29.5,23.8,29.1,24.6,28.3,24.8z M28.3,19.8l-6.8,1.8
				c-0.8,0.2-1.6-0.3-1.8-1.1c-0.2-0.8,0.3-1.6,1.1-1.8l6.8-1.8c0.8-0.2,1.6,0.3,1.8,1.1C29.5,18.8,29.1,19.6,28.3,19.8z"/>
			<path class="st1" d="M40,9.6c-0.2-0.3-0.5-0.6-0.8-0.8c-0.5-0.3-1.1-0.5-1.7-0.5h-26c-0.6,0-1.2,0.2-1.7,0.5C9.5,9,9.2,9.3,9,9.6
				c-0.1,0.2-0.2,0.3-0.3,0.5c-0.2,0.4-0.2,0.8-0.2,1.2v26c0,1.7,1.4,3,3,3h26c1.7,0,3-1.3,3-3v-26c0-0.4-0.1-0.8-0.2-1.2
				C40.2,9.9,40.1,9.7,40,9.6z M31.5,36.8h-14v-25h14V36.8z"/>
			<g>
				<path class="st2" d="M37.5,6.3h-26c-2.8,0-5,2.2-5,5v26c0,2.8,2.2,5,5,5h26c2.8,0,5-2.2,5-5v-26C42.5,8.5,40.3,6.3,37.5,6.3z
					 M40.5,37.3c0,1.7-1.3,3-3,3h-26c-1.6,0-3-1.3-3-3v-26c0-0.4,0.1-0.8,0.2-1.2C8.8,9.9,8.9,9.7,9,9.6C9.2,9.3,9.5,9,9.8,8.8
					c0.5-0.3,1.1-0.5,1.7-0.5h26c0.6,0,1.2,0.2,1.7,0.5C39.5,9,39.8,9.3,40,9.6c0.1,0.2,0.2,0.3,0.3,0.5c0.2,0.4,0.2,0.8,0.2,1.2
					V37.3z"/>
			</g>
			<path class="st2" d="M17.5,36.8h14v-25h-14V36.8z M18.5,12.8h12v23h-12V12.8z"/>
			<path class="st2" d="M27.5,16.9l-6.8,1.8c-0.8,0.2-1.3,1-1.1,1.8c0.2,0.8,1,1.3,1.8,1.1l6.8-1.8c0.8-0.2,1.3-1,1.1-1.8
				C29.1,17.2,28.3,16.7,27.5,16.9z"/>
			<path class="st2" d="M27.5,21.9l-6.8,1.8c-0.8,0.2-1.3,1-1.1,1.8c0.2,0.8,1,1.3,1.8,1.1l6.8-1.8c0.8-0.2,1.3-1,1.1-1.8
				C29.1,22.2,28.3,21.7,27.5,21.9z"/>
			<path class="st2" d="M27.5,26.9l-6.8,1.8c-0.8,0.2-1.3,1-1.1,1.8c0.2,0.8,1,1.3,1.8,1.1l6.8-1.8c0.8-0.2,1.3-1,1.1-1.8
				C29.1,27.2,28.3,26.7,27.5,26.9z"/>
		</g>
	</g>
</g>
</svg>
