<?xml version="1.0" encoding="utf-8"?>
<!-- Generator: Adobe Illustrator 21.0.2, SVG Export Plug-In . SVG Version: 6.00 Build 0)  -->
<svg version="1.1" id="图层_1" xmlns="http://www.w3.org/2000/svg" xmlns:xlink="http://www.w3.org/1999/xlink" x="0px" y="0px"
	 viewBox="0 0 50 50" style="enable-background:new 0 0 50 50;" xml:space="preserve">
<style type="text/css">
	.st0{opacity:0.2;}
	.st1{fill:#FFFFFF;}
	.st2{fill:#F93E54;}
</style>
<g>
	<g class="st0">
		<rect x="23.5" y="25.1" width="1.7" height="3.2"/>
		<rect x="23.5" y="22" width="1.7" height="2.8"/>
		<rect x="21.3" y="22" width="1.7" height="2.8"/>
		<rect x="21.3" y="25.1" width="1.7" height="3.2"/>
		<path d="M38.5,9.5h-26c-1.6,0-3,1.3-3,3v26c0,1.6,1.4,3,3,3h26c1.7,0,3-1.4,3-3v-26C41.5,10.8,40.2,9.5,38.5,9.5z M25.5,36.5
			c-6.1,0-11-4.9-11-11s4.9-11,11-11s11,4.9,11,11S31.6,36.5,25.5,36.5z"/>
		<path d="M25.5,15.5c-5.5,0-10,4.5-10,10c0,5.5,4.5,10,10,10s10-4.5,10-10C35.5,20,31,15.5,25.5,15.5z M25.6,29.6h-0.6
			c0-0.3,0.1-0.5,0.1-0.7v-0.2h-3.8v0.4c0,0.2,0,0.4,0.1,0.7h-0.6c0-0.3,0.1-0.5,0.1-0.7v-6.9c0-0.2,0-0.5-0.1-0.7
			c0.3,0,0.5,0.1,0.7,0.1H23v-1.5c0-0.2,0-0.5-0.1-0.8h0.6c0,0.3-0.1,0.5-0.1,0.8v1.5H25c0.2,0,0.4,0,0.7-0.1c0,0.3-0.1,0.5-0.1,0.7
			v6.7C25.6,29.1,25.6,29.3,25.6,29.6z M29.8,28.4c-0.2,0.2-0.8,0.4-1.6,0.4c0-0.2-0.1-0.4-0.2-0.6c0.2,0.1,0.5,0.1,0.7,0.1
			c0.2,0,0.5,0,0.7-0.1c0.3-0.1,0.5-0.4,0.6-0.8c0-0.1,0-0.3,0-0.4c0-0.3-0.1-0.5-0.2-0.8c-0.3-0.8-0.8-1.6-1.7-2.3
			c0.4-0.7,0.9-1.7,1.4-3h-2.3V30c0,0.2,0,0.5,0.1,0.7h-0.6c0-0.3,0.1-0.5,0.1-0.7v-8.8c0-0.2,0-0.5-0.1-0.8c0.3,0,0.5,0.1,0.7,0.1
			h2.2c0.2,0,0.4,0,0.7-0.1c-0.1,0.3-0.3,0.6-0.4,0.8c-0.4,1-0.8,1.8-1.1,2.5c0.7,0.7,1.2,1.4,1.5,2.2c0.2,0.3,0.3,0.7,0.3,1
			C30.5,27.4,30.3,27.9,29.8,28.4z"/>
		<path d="M38.5,7.5h-26c-2.8,0-5,2.2-5,5v26c0,2.8,2.2,5,5,5h26c2.8,0,5-2.2,5-5v-26C43.5,9.7,41.3,7.5,38.5,7.5z M41.5,38.5
			c0,1.6-1.3,3-3,3h-26c-1.6,0-3-1.4-3-3v-26c0-1.7,1.4-3,3-3h26c1.7,0,3,1.3,3,3V38.5z"/>
		<path d="M25.5,14.5c-6.1,0-11,4.9-11,11s4.9,11,11,11s11-4.9,11-11S31.6,14.5,25.5,14.5z M25.5,35.5c-5.5,0-10-4.5-10-10
			c0-5.5,4.5-10,10-10s10,4.5,10,10C35.5,31,31,35.5,25.5,35.5z"/>
		<path d="M25.6,21.5c-0.3,0-0.5,0.1-0.7,0.1h-1.5v-1.5c0-0.2,0-0.5,0.1-0.8h-0.6c0,0.3,0.1,0.5,0.1,0.8v1.5h-1.5
			c-0.2,0-0.4,0-0.7-0.1c0,0.2,0.1,0.5,0.1,0.7v6.9c0,0.2,0,0.4-0.1,0.7h0.6c0-0.3-0.1-0.6-0.1-0.7v-0.4h3.8v0.2
			c0,0.2,0,0.4-0.1,0.7h0.6c0-0.3-0.1-0.5-0.1-0.7v-6.7C25.6,22,25.6,21.8,25.6,21.5z M23,28.3h-1.7v-3.2H23V28.3z M23,24.7h-1.7V22
			H23V24.7z M25.1,28.3h-1.7v-3.2h1.7V28.3z M25.1,24.7h-1.7V22h1.7V24.7z"/>
		<path d="M28.8,23.8c0.3-0.7,0.7-1.5,1.1-2.5c0.1-0.3,0.2-0.6,0.4-0.8c-0.2,0-0.5,0.1-0.7,0.1h-2.2c-0.2,0-0.4,0-0.7-0.1
			c0,0.3,0.1,0.5,0.1,0.8V30c0,0.2,0,0.4-0.1,0.7h0.6c0-0.3-0.1-0.5-0.1-0.7v-9.1h2.3c-0.5,1.3-0.9,2.3-1.4,3
			c0.8,0.7,1.4,1.5,1.7,2.3C30,26.4,30,26.7,30,27c0,0.1,0,0.3,0,0.4c-0.1,0.4-0.3,0.7-0.6,0.8c-0.2,0.1-0.4,0.1-0.7,0.1
			c-0.2,0-0.5,0-0.7-0.1c0.1,0.2,0.2,0.4,0.2,0.6c0.9,0,1.4-0.2,1.6-0.4c0.5-0.4,0.7-0.9,0.7-1.4c0-0.3-0.1-0.6-0.3-1
			C30,25.2,29.5,24.5,28.8,23.8z"/>
	</g>
	<g>
		<g>
			<rect x="22.5" y="24.1" class="st1" width="1.7" height="3.2"/>
			<rect x="22.5" y="21" class="st1" width="1.7" height="2.8"/>
			<rect x="20.3" y="21" class="st1" width="1.7" height="2.8"/>
			<rect x="20.3" y="24.1" class="st1" width="1.7" height="3.2"/>
			<path class="st1" d="M37.5,8.5h-26c-1.6,0-3,1.3-3,3v26c0,1.6,1.4,3,3,3h26c1.7,0,3-1.4,3-3v-26C40.5,9.8,39.2,8.5,37.5,8.5z
				 M24.5,35.5c-6.1,0-11-4.9-11-11s4.9-11,11-11s11,4.9,11,11S30.6,35.5,24.5,35.5z"/>
			<path class="st1" d="M24.5,14.5c-5.5,0-10,4.5-10,10c0,5.5,4.5,10,10,10s10-4.5,10-10C34.5,19,30,14.5,24.5,14.5z M24.6,28.6
				h-0.6c0-0.3,0.1-0.5,0.1-0.7v-0.2h-3.8v0.4c0,0.2,0,0.4,0.1,0.7h-0.6c0-0.3,0.1-0.5,0.1-0.7v-6.9c0-0.2,0-0.5-0.1-0.7
				c0.3,0,0.5,0.1,0.7,0.1H22v-1.5c0-0.2,0-0.5-0.1-0.8h0.6c0,0.3-0.1,0.5-0.1,0.8v1.5H24c0.2,0,0.4,0,0.7-0.1
				c0,0.3-0.1,0.5-0.1,0.7v6.7C24.6,28.1,24.6,28.3,24.6,28.6z M28.8,27.4c-0.2,0.2-0.8,0.4-1.6,0.4c0-0.2-0.1-0.4-0.2-0.6
				c0.2,0.1,0.5,0.1,0.7,0.1c0.2,0,0.5,0,0.7-0.1c0.3-0.1,0.5-0.4,0.6-0.8c0-0.1,0-0.3,0-0.4c0-0.3-0.1-0.5-0.2-0.8
				c-0.3-0.8-0.8-1.6-1.7-2.3c0.4-0.7,0.9-1.7,1.4-3h-2.3V29c0,0.2,0,0.5,0.1,0.7h-0.6c0-0.3,0.1-0.5,0.1-0.7v-8.8
				c0-0.2,0-0.5-0.1-0.8c0.3,0,0.5,0.1,0.7,0.1h2.2c0.2,0,0.4,0,0.7-0.1c-0.1,0.3-0.3,0.6-0.4,0.8c-0.4,1-0.8,1.8-1.1,2.5
				c0.7,0.7,1.2,1.4,1.5,2.2c0.2,0.3,0.3,0.7,0.3,1C29.5,26.4,29.3,26.9,28.8,27.4z"/>
			<path class="st2" d="M37.5,6.5h-26c-2.8,0-5,2.2-5,5v26c0,2.8,2.2,5,5,5h26c2.8,0,5-2.2,5-5v-26C42.5,8.7,40.3,6.5,37.5,6.5z
				 M40.5,37.5c0,1.6-1.3,3-3,3h-26c-1.6,0-3-1.4-3-3v-26c0-1.7,1.4-3,3-3h26c1.7,0,3,1.3,3,3V37.5z"/>
			<path class="st2" d="M24.5,13.5c-6.1,0-11,4.9-11,11s4.9,11,11,11s11-4.9,11-11S30.6,13.5,24.5,13.5z M24.5,34.5
				c-5.5,0-10-4.5-10-10c0-5.5,4.5-10,10-10s10,4.5,10,10C34.5,30,30,34.5,24.5,34.5z"/>
			<path class="st2" d="M24.6,20.5c-0.3,0-0.5,0.1-0.7,0.1h-1.5v-1.5c0-0.2,0-0.5,0.1-0.8h-0.6c0,0.3,0.1,0.5,0.1,0.8v1.5h-1.5
				c-0.2,0-0.4,0-0.7-0.1c0,0.2,0.1,0.5,0.1,0.7v6.9c0,0.2,0,0.4-0.1,0.7h0.6c0-0.3-0.1-0.6-0.1-0.7v-0.4h3.8v0.2
				c0,0.2,0,0.4-0.1,0.7h0.6c0-0.3-0.1-0.5-0.1-0.7v-6.7C24.6,21,24.6,20.8,24.6,20.5z M22,27.3h-1.7v-3.2H22V27.3z M22,23.7h-1.7
				V21H22V23.7z M24.1,27.3h-1.7v-3.2h1.7V27.3z M24.1,23.7h-1.7V21h1.7V23.7z"/>
			<path class="st2" d="M27.8,22.8c0.3-0.7,0.7-1.5,1.1-2.5c0.1-0.3,0.2-0.6,0.4-0.8c-0.2,0-0.5,0.1-0.7,0.1h-2.2
				c-0.2,0-0.4,0-0.7-0.1c0,0.3,0.1,0.5,0.1,0.8V29c0,0.2,0,0.4-0.1,0.7h0.6c0-0.3-0.1-0.5-0.1-0.7v-9.1h2.3c-0.5,1.3-0.9,2.3-1.4,3
				c0.8,0.7,1.4,1.5,1.7,2.3C29,25.4,29,25.7,29,26c0,0.1,0,0.3,0,0.4c-0.1,0.4-0.3,0.7-0.6,0.8c-0.2,0.1-0.4,0.1-0.7,0.1
				c-0.2,0-0.5,0-0.7-0.1c0.1,0.2,0.2,0.4,0.2,0.6c0.9,0,1.4-0.2,1.6-0.4c0.5-0.4,0.7-0.9,0.7-1.4c0-0.3-0.1-0.6-0.3-1
				C29,24.2,28.5,23.5,27.8,22.8z"/>
		</g>
	</g>
</g>
</svg>
