<?xml version="1.0" encoding="utf-8"?>
<!-- Generator: Adobe Illustrator 21.0.2, SVG Export Plug-In . SVG Version: 6.00 Build 0)  -->
<svg version="1.1" id="图层_1" xmlns="http://www.w3.org/2000/svg" xmlns:xlink="http://www.w3.org/1999/xlink" x="0px" y="0px"
	 viewBox="0 0 50 50" style="enable-background:new 0 0 50 50;" xml:space="preserve">
<style type="text/css">
	.st0{opacity:0.2;}
	.st1{fill:#FFFFFF;}
	.st2{fill:#F93E54;}
</style>
<g>
	<g class="st0">
		<path d="M18.7,30.2c4.5,0,9,0,13.5,0c0.2,0,0.2-0.1,0.2-0.2c0-3,0-6,0-9c0-0.2-0.1-0.3-0.3-0.3c-4.5,0-9,0-13.4,0h-0.3v0.3
			c0,3,0,6,0,8.9C18.5,30.2,18.6,30.2,18.7,30.2z M31.4,29.6H19.7c0,0,0-0.1-0.1-0.1c0.1-0.1,0.2-0.1,0.2-0.2
			c1.2-1.1,2.4-2.2,3.6-3.3c0.1-0.1,0.2-0.1,0.4,0c0.3,0.3,0.6,0.6,1,0.8c0.5,0.4,0.9,0.3,1.4,0c0.3-0.3,0.6-0.5,0.9-0.8
			c0.1-0.1,0.2-0.2,0.4,0c1.2,1.1,2.4,2.2,3.6,3.3C31.2,29.4,31.3,29.5,31.4,29.6C31.4,29.6,31.4,29.6,31.4,29.6z M31.8,21.9
			c0,2.4,0,4.9,0,7.4c-1.4-1.3-2.7-2.5-4.1-3.7C29.1,24.3,30.5,23,31.8,21.9C31.8,21.8,31.8,21.8,31.8,21.9z M31.4,21.4
			c-0.1,0.1-0.1,0.2-0.2,0.2c-1.4,1.3-2.9,2.6-4.3,3.9c-0.3,0.3-0.6,0.5-0.9,0.8c-0.3,0.2-0.6,0.2-0.9,0c-0.3-0.2-0.5-0.4-0.8-0.6
			c-1.5-1.4-3-2.8-4.5-4.1c0,0-0.1-0.1-0.2-0.2C23.6,21.4,27.4,21.4,31.4,21.4z M19.2,21.8c1.4,1.3,2.7,2.5,4.1,3.7
			c-1.4,1.2-2.7,2.5-4.1,3.7V21.8z"/>
		<path d="M41,10.8c-0.2-0.3-0.5-0.6-0.8-0.8c-0.5-0.3-1.1-0.5-1.7-0.5h-26c-0.6,0-1.2,0.2-1.7,0.5c-0.3,0.2-0.6,0.5-0.8,0.8
			c-0.1,0.2-0.2,0.3-0.3,0.5c-0.2,0.4-0.2,0.8-0.2,1.2v26c0,1.7,1.4,3,3,3h26c1.7,0,3-1.3,3-3v-26c0-0.4-0.1-0.8-0.2-1.2
			C41.2,11.2,41.1,11,41,10.8z M35.5,33.5h-20v-16h20V33.5z"/>
		<path d="M38.5,7.5h-26c-2.8,0-5,2.2-5,5v26c0,2.8,2.2,5,5,5h26c2.8,0,5-2.2,5-5v-26C43.5,9.7,41.3,7.5,38.5,7.5z M41.5,38.5
			c0,1.7-1.3,3-3,3h-26c-1.6,0-3-1.3-3-3v-26c0-0.4,0.1-0.8,0.2-1.2c0.1-0.2,0.2-0.3,0.3-0.5c0.2-0.3,0.5-0.6,0.8-0.8
			c0.5-0.3,1.1-0.5,1.7-0.5h26c0.6,0,1.2,0.2,1.7,0.5c0.3,0.2,0.6,0.5,0.8,0.8c0.1,0.2,0.2,0.3,0.3,0.5c0.2,0.4,0.2,0.8,0.2,1.2
			V38.5z"/>
		<path d="M27.5,26c-0.2-0.1-0.2-0.1-0.4,0c-0.3,0.3-0.6,0.5-0.9,0.8c-0.5,0.3-0.9,0.4-1.4,0c-0.3-0.3-0.7-0.5-1-0.8
			c-0.1-0.1-0.2-0.1-0.4,0c-1.2,1.1-2.4,2.2-3.6,3.3c-0.1,0.1-0.2,0.1-0.2,0.2c0,0,0,0.1,0.1,0.1h11.7c0,0,0,0,0-0.1
			c-0.1-0.1-0.2-0.1-0.2-0.2C30,28.3,28.7,27.2,27.5,26z"/>
		<path d="M19.2,21.8v7.4c1.4-1.3,2.7-2.5,4.1-3.7C21.9,24.3,20.6,23,19.2,21.8z"/>
		<path d="M19.8,21.6c1.5,1.4,3,2.8,4.5,4.1c0.2,0.2,0.5,0.4,0.8,0.6c0.3,0.2,0.6,0.2,0.9,0c0.3-0.2,0.6-0.5,0.9-0.8
			c1.4-1.3,2.9-2.6,4.3-3.9c0.1-0.1,0.1-0.1,0.2-0.2c-3.9,0-7.8,0-11.8,0C19.7,21.5,19.7,21.5,19.8,21.6z"/>
		<path d="M15.5,33.5h20v-16h-20V33.5z M18.5,21.1v-0.3h0.3c4.5,0,9,0,13.4,0c0.2,0,0.3,0,0.3,0.3c0,3,0,6,0,9
			c0,0.2-0.1,0.2-0.2,0.2c-4.5,0-9,0-13.5,0c-0.2,0-0.2,0-0.2-0.2C18.5,27,18.5,24.1,18.5,21.1z"/>
		<path d="M31.8,29.2c0-2.5,0-4.9,0-7.4c0,0,0,0-0.1,0c-1.3,1.2-2.7,2.4-4,3.7C29.1,26.7,30.5,28,31.8,29.2z"/>
	</g>
	<g>
		<g>
			<path class="st1" d="M17.7,29.2c4.5,0,9,0,13.5,0c0.2,0,0.2-0.1,0.2-0.2c0-3,0-6,0-9c0-0.2-0.1-0.3-0.3-0.3c-4.5,0-9,0-13.4,0
				h-0.3v0.3c0,3,0,6,0,8.9C17.5,29.2,17.6,29.2,17.7,29.2z M30.4,28.6H18.7c0,0,0-0.1-0.1-0.1c0.1-0.1,0.2-0.1,0.2-0.2
				c1.2-1.1,2.4-2.2,3.6-3.3c0.1-0.1,0.2-0.1,0.4,0c0.3,0.3,0.6,0.6,1,0.8c0.5,0.4,0.9,0.3,1.4,0c0.3-0.3,0.6-0.5,0.9-0.8
				c0.1-0.1,0.2-0.2,0.4,0c1.2,1.1,2.4,2.2,3.6,3.3C30.2,28.4,30.3,28.5,30.4,28.6C30.4,28.6,30.4,28.6,30.4,28.6z M30.8,20.9
				c0,2.4,0,4.9,0,7.4c-1.4-1.3-2.7-2.5-4.1-3.7C28.1,23.3,29.5,22,30.8,20.9C30.8,20.8,30.8,20.8,30.8,20.9z M30.4,20.4
				c-0.1,0.1-0.1,0.2-0.2,0.2c-1.4,1.3-2.9,2.6-4.3,3.9c-0.3,0.3-0.6,0.5-0.9,0.8c-0.3,0.2-0.6,0.2-0.9,0c-0.3-0.2-0.5-0.4-0.8-0.6
				c-1.5-1.4-3-2.8-4.5-4.1c0,0-0.1-0.1-0.2-0.2C22.6,20.4,26.4,20.4,30.4,20.4z M18.2,20.8c1.4,1.3,2.7,2.5,4.1,3.7
				c-1.4,1.2-2.7,2.5-4.1,3.7V20.8z"/>
			<path class="st1" d="M40,9.8c-0.2-0.3-0.5-0.6-0.8-0.8c-0.5-0.3-1.1-0.5-1.7-0.5h-26c-0.6,0-1.2,0.2-1.7,0.5
				C9.5,9.2,9.2,9.5,9,9.8c-0.1,0.2-0.2,0.3-0.3,0.5c-0.2,0.4-0.2,0.8-0.2,1.2v26c0,1.7,1.4,3,3,3h26c1.7,0,3-1.3,3-3v-26
				c0-0.4-0.1-0.8-0.2-1.2C40.2,10.2,40.1,10,40,9.8z M34.5,32.5h-20v-16h20V32.5z"/>
			<path class="st2" d="M37.5,6.5h-26c-2.8,0-5,2.2-5,5v26c0,2.8,2.2,5,5,5h26c2.8,0,5-2.2,5-5v-26C42.5,8.7,40.3,6.5,37.5,6.5z
				 M40.5,37.5c0,1.7-1.3,3-3,3h-26c-1.6,0-3-1.3-3-3v-26c0-0.4,0.1-0.8,0.2-1.2C8.8,10.2,8.9,10,9,9.8C9.2,9.5,9.5,9.2,9.8,9
				c0.5-0.3,1.1-0.5,1.7-0.5h26c0.6,0,1.2,0.2,1.7,0.5c0.3,0.2,0.6,0.5,0.8,0.8c0.1,0.2,0.2,0.3,0.3,0.5c0.2,0.4,0.2,0.8,0.2,1.2
				V37.5z"/>
			<path class="st2" d="M26.5,25c-0.2-0.1-0.2-0.1-0.4,0c-0.3,0.3-0.6,0.5-0.9,0.8c-0.5,0.3-0.9,0.4-1.4,0c-0.3-0.3-0.7-0.5-1-0.8
				c-0.1-0.1-0.2-0.1-0.4,0c-1.2,1.1-2.4,2.2-3.6,3.3c-0.1,0.1-0.2,0.1-0.2,0.2c0,0,0,0.1,0.1,0.1h11.7c0,0,0,0,0-0.1
				c-0.1-0.1-0.2-0.1-0.2-0.2C29,27.3,27.7,26.2,26.5,25z"/>
			<path class="st2" d="M18.2,20.8v7.4c1.4-1.3,2.7-2.5,4.1-3.7C20.9,23.3,19.6,22,18.2,20.8z"/>
			<path class="st2" d="M18.8,20.6c1.5,1.4,3,2.8,4.5,4.1c0.2,0.2,0.5,0.4,0.8,0.6c0.3,0.2,0.6,0.2,0.9,0c0.3-0.2,0.6-0.5,0.9-0.8
				c1.4-1.3,2.9-2.6,4.3-3.9c0.1-0.1,0.1-0.1,0.2-0.2c-3.9,0-7.8,0-11.8,0C18.7,20.5,18.7,20.5,18.8,20.6z"/>
			<path class="st2" d="M14.5,32.5h20v-16h-20V32.5z M17.5,20.1v-0.3h0.3c4.5,0,9,0,13.4,0c0.2,0,0.3,0,0.3,0.3c0,3,0,6,0,9
				c0,0.2-0.1,0.2-0.2,0.2c-4.5,0-9,0-13.5,0c-0.2,0-0.2,0-0.2-0.2C17.5,26,17.5,23.1,17.5,20.1z"/>
			<path class="st2" d="M30.8,28.2c0-2.5,0-4.9,0-7.4c0,0,0,0-0.1,0c-1.3,1.2-2.7,2.4-4,3.7C28.1,25.7,29.5,27,30.8,28.2z"/>
		</g>
	</g>
</g>
</svg>
