<?xml version="1.0" encoding="utf-8"?>
<!-- Generator: Adobe Illustrator 21.0.2, SVG Export Plug-In . SVG Version: 6.00 Build 0)  -->
<svg version="1.1" id="图层_1" xmlns="http://www.w3.org/2000/svg" xmlns:xlink="http://www.w3.org/1999/xlink" x="0px" y="0px"
	 viewBox="0 0 50 50" style="enable-background:new 0 0 50 50;" xml:space="preserve">
<style type="text/css">
	.st0{opacity:0.2;}
	.st1{fill:#FFFFFF;}
	.st2{fill:#BC09FF;}
</style>
<g>
	<g class="st0">
		<path d="M28.1,22.6c1,0,1.7-0.5,1.7-1.7c0-0.5-0.3-0.9-0.6-1.2c-0.2-0.2-0.7-0.4-1.1-0.4c-1,0-1.5,0.6-1.5,1.6
			C26.5,22.1,27.1,22.6,28.1,22.6z"/>
		<path d="M23,22.6c1,0,1.4-0.6,1.4-1.8c0-1-0.5-1.6-1.4-1.6c-0.5,0-1.1,0.1-1.4,0.4c-0.2,0.3-0.4,0.8-0.4,1.3
			C21.3,22.1,22.1,22.6,23,22.6z"/>
		<path d="M40.6,10.4c-0.3-0.3-0.6-0.5-1-0.6c-0.4-0.2-0.8-0.2-1.2-0.2h-26c-0.4,0-0.8,0.1-1.2,0.2c-0.3,0.1-0.5,0.3-0.8,0.5
			c-0.2,0.2-0.4,0.4-0.6,0.6c-0.2,0.3-0.4,0.7-0.5,1.1c0,0.2-0.1,0.4-0.1,0.6v26c0,1.7,1.4,3,3,3h26c1.7,0,3-1.3,3-3v-26
			c0-0.2,0-0.4-0.1-0.6C41.3,11.3,41,10.8,40.6,10.4z M21.2,14.5c1.1-0.9,2.5-1.4,4.3-1.4c1.8,0,3.2,0.5,4.3,1.4
			c1.1,0.9,1.7,2.2,1.7,3.7c0,1.3-0.4,2.6-1.1,3.8c-0.1,0.1-0.1,0.3-0.2,0.6L30,24.1l-2.4,1.1l-0.3,0.9c0,0-3.5,0-3.5,0l-0.3-0.9
			L21,24.1l-0.2-1.4c0-0.3-0.3-0.8-0.7-1.6c-0.4-0.6-0.5-1.5-0.5-2.9C19.5,16.7,20.1,15.4,21.2,14.5z M28.8,25.2l-0.4,1.7l-1,0.9
			c-0.2,0.4-0.4,0.6-0.7,0.8c-0.3,0.2-0.7,0.3-1.1,0.3c-0.8,0-1.4-0.4-1.8-1.1l-1-0.9l-0.4-1.7l0.6-0.2c0.1,0.2,0.1,0.3,0.2,0.4
			c0.3,0.6,0.5,1,0.9,1.2c0,0,0,0,0,0l3.2,0c0.3-0.2,0.6-0.6,0.8-1.2c0-0.1,0.1-0.2,0.2-0.4L28.8,25.2z M36.8,27.8
			c-0.5,0.2-1.1,0-1.4-0.4l-7.9,4.5l5.2,3c0.3-0.3,0.8-0.4,1.3-0.3c0.7,0.2,1.1,1,0.8,1.7c-0.2,0.6-0.9,1-1.5,0.9
			c-0.1,0.4-0.6,0.8-1.1,0.8c-0.6,0-1.1-0.5-1.1-1.1c0-0.2,0-0.3,0.1-0.4l-5.7-3.3l-5.7,3.3c0.1,0.1,0.1,0.3,0.1,0.4
			c0,0.6-0.5,1.1-1.1,1.1c-0.5,0-0.9-0.3-1.1-0.8c-0.6,0.1-1.3-0.2-1.5-0.9c-0.2-0.7,0.1-1.4,0.8-1.7c0.5-0.2,0.9,0,1.3,0.3l5.2-3
			l-7.9-4.5c-0.3,0.4-0.9,0.6-1.4,0.4c-0.7-0.2-1.1-1-0.8-1.7c0.2-0.6,0.9-1,1.5-0.9c0.1-0.4,0.6-0.8,1.1-0.8c0.6,0,1.1,0.5,1.1,1.1
			c0,0.1,0,0.2-0.1,0.3l8.5,4.9l8.5-4.9c0-0.1-0.1-0.2-0.1-0.3c0-0.6,0.5-1.1,1.1-1.1c0.5,0,0.9,0.3,1.1,0.8
			c0.6-0.1,1.3,0.2,1.5,0.9C37.8,26.8,37.5,27.5,36.8,27.8z"/>
		<path d="M24.6,24.4c0.1,0.1,0.3,0.1,0.5,0.1c0.1,0,0.7,0,0.8,0c0.4,0,0.6-0.2,0.6-0.6c0-0.2-0.1-0.4-0.4-0.7
			c-0.1-0.2-0.4-0.8-0.6-0.8c-0.3,0-0.4,0.5-0.6,0.8c-0.3,0.3-0.4,0.5-0.4,0.7C24.4,24.2,24.5,24.3,24.6,24.4z"/>
		<path d="M38.5,7.5h-26c-2.8,0-5,2.2-5,5v26c0,2.8,2.2,5,5,5h26c2.8,0,5-2.2,5-5v-26C43.5,9.7,41.3,7.5,38.5,7.5z M41.5,12.5v26
			c0,1.7-1.3,3-3,3h-26c-1.6,0-3-1.3-3-3v-26l0,0c0-0.2,0-0.4,0.1-0.6c0.1-0.4,0.2-0.8,0.5-1.1c0.2-0.2,0.4-0.4,0.6-0.6
			c0.2-0.2,0.5-0.4,0.8-0.5c0.4-0.2,0.8-0.2,1.2-0.2h26c0.4,0,0.8,0.1,1.2,0.2c0.4,0.2,0.7,0.4,1,0.6c0.4,0.4,0.7,0.9,0.8,1.5
			C41.5,12.1,41.5,12.3,41.5,12.5L41.5,12.5z"/>
		<path d="M20.8,22.7l0.2,1.4l2.4,1.1l0.3,0.9c0,0,3.5,0,3.5,0l0.3-0.9l2.4-1.1l0.2-1.4c0-0.3,0.1-0.5,0.2-0.6
			c0.7-1.3,1.1-2.5,1.1-3.8c0-1.5-0.6-2.8-1.7-3.7c-1.1-0.9-2.5-1.4-4.3-1.4c-1.8,0-3.2,0.5-4.3,1.4c-1.1,0.9-1.7,2.2-1.7,3.7
			c0,1.3,0.2,2.3,0.5,2.9C20.5,21.9,20.8,22.4,20.8,22.7z M28,19.4c0.5,0,0.9,0.2,1.1,0.4c0.2,0.2,0.6,0.7,0.6,1.2
			c0,1.2-0.7,1.7-1.7,1.7s-1.6-0.5-1.6-1.6C26.5,20,27.1,19.4,28,19.4z M25.4,22.5c0.2,0,0.5,0.6,0.6,0.8c0.3,0.3,0.4,0.5,0.4,0.7
			c0,0.4-0.2,0.6-0.6,0.6c-0.1,0-0.7,0-0.8,0c-0.2,0-0.4,0-0.5-0.1c-0.1-0.1-0.2-0.2-0.2-0.4c0-0.2,0.1-0.4,0.4-0.7
			C25,23,25.1,22.5,25.4,22.5z M21.7,19.7c0.2-0.3,0.9-0.4,1.4-0.4c0.9,0,1.4,0.6,1.4,1.6c0,1.2-0.5,1.8-1.4,1.8
			c-1,0-1.7-0.5-1.7-1.6C21.3,20.5,21.5,20,21.7,19.7z"/>
		<path d="M27.2,26.6l-3.2,0c0,0,0,0,0,0c-0.3-0.2-0.6-0.6-0.9-1.2c0-0.1-0.1-0.2-0.2-0.4l-0.6,0.2l0.4,1.7l1,0.9
			c0.4,0.7,1,1.1,1.8,1.1c0.4,0,0.8-0.1,1.1-0.3c0.3-0.2,0.5-0.4,0.7-0.8l1-0.9l0.4-1.7L28.2,25c-0.1,0.2-0.1,0.3-0.2,0.4
			C27.8,26.1,27.5,26.5,27.2,26.6z"/>
		<path d="M36.1,25.2c-0.1-0.4-0.6-0.8-1.1-0.8c-0.6,0-1.1,0.5-1.1,1.1c0,0.1,0,0.2,0.1,0.3l-8.5,4.9L17,25.9c0-0.1,0.1-0.2,0.1-0.3
			c0-0.6-0.5-1.1-1.1-1.1c-0.5,0-0.9,0.3-1.1,0.8c-0.6-0.1-1.3,0.2-1.5,0.9c-0.2,0.7,0.1,1.4,0.8,1.7c0.5,0.2,1.1,0,1.4-0.4l7.9,4.5
			l-5.2,3c-0.3-0.3-0.8-0.4-1.3-0.3c-0.7,0.2-1.1,1-0.8,1.7c0.2,0.6,0.9,1,1.5,0.9c0.1,0.4,0.6,0.8,1.1,0.8c0.6,0,1.1-0.5,1.1-1.1
			c0-0.2,0-0.3-0.1-0.4l5.7-3.3l5.7,3.3c-0.1,0.1-0.1,0.3-0.1,0.4c0,0.6,0.5,1.1,1.1,1.1c0.5,0,0.9-0.3,1.1-0.8
			c0.6,0.1,1.3-0.2,1.5-0.9c0.2-0.7-0.1-1.4-0.8-1.7c-0.5-0.2-0.9,0-1.3,0.3l-5.2-3l7.9-4.5c0.3,0.4,0.9,0.6,1.4,0.4
			c0.7-0.2,1.1-1,0.8-1.7C37.4,25.4,36.7,25.1,36.1,25.2z"/>
	</g>
	<g>
		<g>
			<path class="st1" d="M27.1,21.6c1,0,1.7-0.5,1.7-1.7c0-0.5-0.3-0.9-0.6-1.2c-0.2-0.2-0.7-0.4-1.1-0.4c-1,0-1.5,0.6-1.5,1.6
				C25.5,21.1,26.1,21.6,27.1,21.6z"/>
			<path class="st1" d="M22,21.6c1,0,1.4-0.6,1.4-1.8c0-1-0.5-1.6-1.4-1.6c-0.5,0-1.1,0.1-1.4,0.4c-0.2,0.3-0.4,0.8-0.4,1.3
				C20.3,21.1,21.1,21.6,22,21.6z"/>
			<path class="st1" d="M39.6,9.4c-0.3-0.3-0.6-0.5-1-0.6c-0.4-0.2-0.8-0.2-1.2-0.2h-26c-0.4,0-0.8,0.1-1.2,0.2
				C10.1,8.9,9.8,9,9.6,9.2C9.4,9.4,9.2,9.6,9,9.8c-0.2,0.3-0.4,0.7-0.5,1.1c0,0.2-0.1,0.4-0.1,0.6v26c0,1.7,1.4,3,3,3h26
				c1.7,0,3-1.3,3-3v-26c0-0.2,0-0.4-0.1-0.6C40.3,10.3,40,9.8,39.6,9.4z M20.2,13.5c1.1-0.9,2.5-1.4,4.3-1.4c1.8,0,3.2,0.5,4.3,1.4
				c1.1,0.9,1.7,2.2,1.7,3.7c0,1.3-0.4,2.6-1.1,3.8c-0.1,0.1-0.1,0.3-0.2,0.6L29,23.1l-2.4,1.1l-0.3,0.9c0,0-3.5,0-3.5,0l-0.3-0.9
				L20,23.1l-0.2-1.4c0-0.3-0.3-0.8-0.7-1.6c-0.4-0.6-0.5-1.5-0.5-2.9C18.5,15.7,19.1,14.4,20.2,13.5z M27.8,24.2l-0.4,1.7l-1,0.9
				c-0.2,0.4-0.4,0.6-0.7,0.8c-0.3,0.2-0.7,0.3-1.1,0.3c-0.8,0-1.4-0.4-1.8-1.1l-1-0.9l-0.4-1.7l0.6-0.2c0.1,0.2,0.1,0.3,0.2,0.4
				c0.3,0.6,0.5,1,0.9,1.2c0,0,0,0,0,0l3.2,0c0.3-0.2,0.6-0.6,0.8-1.2c0-0.1,0.1-0.2,0.2-0.4L27.8,24.2z M35.8,26.8
				c-0.5,0.2-1.1,0-1.4-0.4l-7.9,4.5l5.2,3c0.3-0.3,0.8-0.4,1.3-0.3c0.7,0.2,1.1,1,0.8,1.7c-0.2,0.6-0.9,1-1.5,0.9
				c-0.1,0.4-0.6,0.8-1.1,0.8c-0.6,0-1.1-0.5-1.1-1.1c0-0.2,0-0.3,0.1-0.4l-5.7-3.3l-5.7,3.3c0.1,0.1,0.1,0.3,0.1,0.4
				c0,0.6-0.5,1.1-1.1,1.1c-0.5,0-0.9-0.3-1.1-0.8c-0.6,0.1-1.3-0.2-1.5-0.9c-0.2-0.7,0.1-1.4,0.8-1.7c0.5-0.2,0.9,0,1.3,0.3l5.2-3
				l-7.9-4.5c-0.3,0.4-0.9,0.6-1.4,0.4c-0.7-0.2-1.1-1-0.8-1.7c0.2-0.6,0.9-1,1.5-0.9c0.1-0.4,0.6-0.8,1.1-0.8
				c0.6,0,1.1,0.5,1.1,1.1c0,0.1,0,0.2-0.1,0.3l8.5,4.9l8.5-4.9c0-0.1-0.1-0.2-0.1-0.3c0-0.6,0.5-1.1,1.1-1.1c0.5,0,0.9,0.3,1.1,0.8
				c0.6-0.1,1.3,0.2,1.5,0.9C36.8,25.8,36.5,26.5,35.8,26.8z"/>
			<path class="st1" d="M23.6,23.4c0.1,0.1,0.3,0.1,0.5,0.1c0.1,0,0.7,0,0.8,0c0.4,0,0.6-0.2,0.6-0.6c0-0.2-0.1-0.4-0.4-0.7
				c-0.1-0.2-0.4-0.8-0.6-0.8c-0.3,0-0.4,0.5-0.6,0.8c-0.3,0.3-0.4,0.5-0.4,0.7C23.4,23.2,23.5,23.3,23.6,23.4z"/>
			<path class="st2" d="M37.5,6.5h-26c-2.8,0-5,2.2-5,5v26c0,2.8,2.2,5,5,5h26c2.8,0,5-2.2,5-5v-26C42.5,8.7,40.3,6.5,37.5,6.5z
				 M40.5,11.5v26c0,1.7-1.3,3-3,3h-26c-1.6,0-3-1.3-3-3v-26l0,0c0-0.2,0-0.4,0.1-0.6c0.1-0.4,0.2-0.8,0.5-1.1
				c0.2-0.2,0.4-0.4,0.6-0.6c0.2-0.2,0.5-0.4,0.8-0.5c0.4-0.2,0.8-0.2,1.2-0.2h26c0.4,0,0.8,0.1,1.2,0.2c0.4,0.2,0.7,0.4,1,0.6
				c0.4,0.4,0.7,0.9,0.8,1.5C40.5,11.1,40.5,11.3,40.5,11.5L40.5,11.5z"/>
			<g>
				<path class="st2" d="M19.8,21.7l0.2,1.4l2.4,1.1l0.3,0.9c0,0,3.5,0,3.5,0l0.3-0.9l2.4-1.1l0.2-1.4c0-0.3,0.1-0.5,0.2-0.6
					c0.7-1.3,1.1-2.5,1.1-3.8c0-1.5-0.6-2.8-1.7-3.7c-1.1-0.9-2.5-1.4-4.3-1.4c-1.8,0-3.2,0.5-4.3,1.4c-1.1,0.9-1.7,2.2-1.7,3.7
					c0,1.3,0.2,2.3,0.5,2.9C19.5,20.9,19.8,21.4,19.8,21.7z M27,18.4c0.5,0,0.9,0.2,1.1,0.4c0.2,0.2,0.6,0.7,0.6,1.2
					c0,1.2-0.7,1.7-1.7,1.7s-1.6-0.5-1.6-1.6C25.5,19,26.1,18.4,27,18.4z M24.4,21.5c0.2,0,0.5,0.6,0.6,0.8c0.3,0.3,0.4,0.5,0.4,0.7
					c0,0.4-0.2,0.6-0.6,0.6c-0.1,0-0.7,0-0.8,0c-0.2,0-0.4,0-0.5-0.1c-0.1-0.1-0.2-0.2-0.2-0.4c0-0.2,0.1-0.4,0.4-0.7
					C24,22,24.1,21.5,24.4,21.5z M20.7,18.7c0.2-0.3,0.9-0.4,1.4-0.4c0.9,0,1.4,0.6,1.4,1.6c0,1.2-0.5,1.8-1.4,1.8
					c-1,0-1.7-0.5-1.7-1.6C20.3,19.5,20.5,19,20.7,18.7z"/>
			</g>
			<g>
				<path class="st2" d="M26.2,25.6l-3.2,0c0,0,0,0,0,0c-0.3-0.2-0.6-0.6-0.9-1.2c0-0.1-0.1-0.2-0.2-0.4l-0.6,0.2l0.4,1.7l1,0.9
					c0.4,0.7,1,1.1,1.8,1.1c0.4,0,0.8-0.1,1.1-0.3c0.3-0.2,0.5-0.4,0.7-0.8l1-0.9l0.4-1.7L27.2,24c-0.1,0.2-0.1,0.3-0.2,0.4
					C26.8,25.1,26.5,25.5,26.2,25.6z"/>
			</g>
			<g>
				<path class="st2" d="M35.1,24.2c-0.1-0.4-0.6-0.8-1.1-0.8c-0.6,0-1.1,0.5-1.1,1.1c0,0.1,0,0.2,0.1,0.3l-8.5,4.9L16,24.9
					c0-0.1,0.1-0.2,0.1-0.3c0-0.6-0.5-1.1-1.1-1.1c-0.5,0-0.9,0.3-1.1,0.8c-0.6-0.1-1.3,0.2-1.5,0.9c-0.2,0.7,0.1,1.4,0.8,1.7
					c0.5,0.2,1.1,0,1.4-0.4l7.9,4.5l-5.2,3c-0.3-0.3-0.8-0.4-1.3-0.3c-0.7,0.2-1.1,1-0.8,1.7c0.2,0.6,0.9,1,1.5,0.9
					c0.1,0.4,0.6,0.8,1.1,0.8c0.6,0,1.1-0.5,1.1-1.1c0-0.2,0-0.3-0.1-0.4l5.7-3.3l5.7,3.3c-0.1,0.1-0.1,0.3-0.1,0.4
					c0,0.6,0.5,1.1,1.1,1.1c0.5,0,0.9-0.3,1.1-0.8c0.6,0.1,1.3-0.2,1.5-0.9c0.2-0.7-0.1-1.4-0.8-1.7c-0.5-0.2-0.9,0-1.3,0.3l-5.2-3
					l7.9-4.5c0.3,0.4,0.9,0.6,1.4,0.4c0.7-0.2,1.1-1,0.8-1.7C36.4,24.4,35.7,24.1,35.1,24.2z"/>
			</g>
		</g>
	</g>
</g>
</svg>
