<?xml version="1.0" encoding="utf-8"?>
<!-- Generator: Adobe Illustrator 21.0.2, SVG Export Plug-In . SVG Version: 6.00 Build 0)  -->
<svg version="1.1" id="图层_1" xmlns="http://www.w3.org/2000/svg" xmlns:xlink="http://www.w3.org/1999/xlink" x="0px" y="0px"
	 viewBox="0 0 50 50" style="enable-background:new 0 0 50 50;" xml:space="preserve">
<style type="text/css">
	
	.st0{opacity:0.2;}
	.st1{fill:#FFFFFF;}
	.st2{fill:#00A0E9;}
</style>
<g>
	<g class="st0">
		<path d="M41,10.6c-0.2-0.3-0.5-0.6-0.8-0.8c-0.5-0.3-1.1-0.5-1.7-0.5h-26c-0.6,0-1.2,0.2-1.7,0.5c-0.3,0.2-0.6,0.5-0.8,0.8
			c-0.1,0.2-0.2,0.3-0.3,0.5c-0.2,0.4-0.2,0.8-0.2,1.2v26c0,1.7,1.4,3,3,3h26c1.7,0,3-1.3,3-3v-26c0-0.4-0.1-0.8-0.2-1.2
			C41.2,10.9,41.1,10.7,41,10.6z M38.5,20.3v1v4v1v4v1v2h-6h-4h-6h-4h-6v-2v-1v-4v-1v-4v-1v-2h6h4h6h4h6V20.3z"/>
		<rect x="28.5" y="31.3" width="5" height="1"/>
		<path d="M26.7,26.7l-6.9,3c-0.1,0-0.1,0-0.2,0c-0.2,0-0.4-0.1-0.5-0.3c-0.1-0.3,0-0.5,0.3-0.7l5.9-2.5H13.5v4h5h4h6h4h5v-4H27
			C27,26.4,26.9,26.6,26.7,26.7z"/>
		<rect x="17.5" y="19.3" width="5" height="1"/>
		<rect x="17.5" y="31.3" width="5" height="1"/>
		<path d="M28.5,21.3h-6h-4h-5v4h10.6c0-0.2,0.1-0.4,0.3-0.5l6.9-3c0.3-0.1,0.5,0,0.7,0.3c0.1,0.3,0,0.5-0.3,0.7l-5.9,2.5h11.7v-4
			h-5H28.5z"/>
		<rect x="28.5" y="19.3" width="5" height="1"/>
		<path d="M38.5,7.3h-26c-2.8,0-5,2.2-5,5v26c0,2.8,2.2,5,5,5h26c2.8,0,5-2.2,5-5v-26C43.5,9.5,41.3,7.3,38.5,7.3z M41.5,38.3
			c0,1.7-1.3,3-3,3h-26c-1.6,0-3-1.3-3-3v-26c0-0.4,0.1-0.8,0.2-1.2c0.1-0.2,0.2-0.3,0.3-0.5c0.2-0.3,0.5-0.6,0.8-0.8
			c0.5-0.3,1.1-0.5,1.7-0.5h26c0.6,0,1.2,0.2,1.7,0.5c0.3,0.2,0.6,0.5,0.8,0.8c0.1,0.2,0.2,0.3,0.3,0.5c0.2,0.4,0.2,0.8,0.2,1.2
			V38.3z"/>
		<path d="M28.5,18.3h-6h-4h-6v2v1v4v1v4v1v2h6h4h6h4h6v-2v-1v-4v-1v-4v-1v-2h-6H28.5z M17.5,19.3h5v1h-5V19.3z M22.5,32.3h-5v-1h5
			V32.3z M33.5,32.3h-5v-1h5V32.3z M37.5,30.3h-5h-4h-6h-4h-5v-4h11.7l-5.9,2.5c-0.3,0.1-0.4,0.4-0.3,0.7c0.1,0.2,0.3,0.3,0.5,0.3
			c0.1,0,0.1,0,0.2,0l6.9-3c0.2-0.1,0.3-0.3,0.3-0.5h10.5V30.3z M37.5,25.3H25.8l5.9-2.5c0.3-0.1,0.4-0.4,0.3-0.7
			c-0.1-0.3-0.4-0.4-0.7-0.3l-6.9,3c-0.2,0.1-0.3,0.3-0.3,0.5H13.5v-4h5h4h6h4h5V25.3z M33.5,20.3h-5v-1h5V20.3z"/>
	</g>
	<g>
		<g>
			<path class="st1" d="M40,9.6c-0.2-0.3-0.5-0.6-0.8-0.8c-0.5-0.3-1.1-0.5-1.7-0.5h-26c-0.6,0-1.2,0.2-1.7,0.5C9.5,9,9.2,9.3,9,9.6
				c-0.1,0.2-0.2,0.3-0.3,0.5c-0.2,0.4-0.2,0.8-0.2,1.2v26c0,1.7,1.4,3,3,3h26c1.7,0,3-1.3,3-3v-26c0-0.4-0.1-0.8-0.2-1.2
				C40.2,9.9,40.1,9.7,40,9.6z M37.5,19.3v1v4v1v4v1v2h-6h-4h-6h-4h-6v-2v-1v-4v-1v-4v-1v-2h6h4h6h4h6V19.3z"/>
			<rect x="27.5" y="30.3" class="st1" width="5" height="1"/>
			<path class="st1" d="M25.7,25.7l-6.9,3c-0.1,0-0.1,0-0.2,0c-0.2,0-0.4-0.1-0.5-0.3c-0.1-0.3,0-0.5,0.3-0.7l5.9-2.5H12.5v4h5h4h6
				h4h5v-4H26C26,25.4,25.9,25.6,25.7,25.7z"/>
			<rect x="16.5" y="18.3" class="st1" width="5" height="1"/>
			<rect x="16.5" y="30.3" class="st1" width="5" height="1"/>
			<path class="st1" d="M27.5,20.3h-6h-4h-5v4h10.6c0-0.2,0.1-0.4,0.3-0.5l6.9-3c0.3-0.1,0.5,0,0.7,0.3c0.1,0.3,0,0.5-0.3,0.7
				l-5.9,2.5h11.7v-4h-5H27.5z"/>
			<rect x="27.5" y="18.3" class="st1" width="5" height="1"/>
			<g>
				<path class="st2" d="M37.5,6.3h-26c-2.8,0-5,2.2-5,5v26c0,2.8,2.2,5,5,5h26c2.8,0,5-2.2,5-5v-26C42.5,8.5,40.3,6.3,37.5,6.3z
					 M40.5,37.3c0,1.7-1.3,3-3,3h-26c-1.6,0-3-1.3-3-3v-26c0-0.4,0.1-0.8,0.2-1.2C8.8,9.9,8.9,9.7,9,9.6C9.2,9.3,9.5,9,9.8,8.8
					c0.5-0.3,1.1-0.5,1.7-0.5h26c0.6,0,1.2,0.2,1.7,0.5C39.5,9,39.8,9.3,40,9.6c0.1,0.2,0.2,0.3,0.3,0.5c0.2,0.4,0.2,0.8,0.2,1.2
					V37.3z"/>
			</g>
			<path class="st2" d="M27.5,17.3h-6h-4h-6v2v1v4v1v4v1v2h6h4h6h4h6v-2v-1v-4v-1v-4v-1v-2h-6H27.5z M16.5,18.3h5v1h-5V18.3z
				 M21.5,31.3h-5v-1h5V31.3z M32.5,31.3h-5v-1h5V31.3z M36.5,29.3h-5h-4h-6h-4h-5v-4h11.7l-5.9,2.5c-0.3,0.1-0.4,0.4-0.3,0.7
				c0.1,0.2,0.3,0.3,0.5,0.3c0.1,0,0.1,0,0.2,0l6.9-3c0.2-0.1,0.3-0.3,0.3-0.5h10.5V29.3z M36.5,24.3H24.8l5.9-2.5
				c0.3-0.1,0.4-0.4,0.3-0.7c-0.1-0.3-0.4-0.4-0.7-0.3l-6.9,3c-0.2,0.1-0.3,0.3-0.3,0.5H12.5v-4h5h4h6h4h5V24.3z M32.5,19.3h-5v-1h5
				V19.3z"/>
		</g>
	</g>
</g>
</svg>
