<?xml version="1.0" encoding="utf-8"?>
<!-- Generator: Adobe Illustrator 21.0.2, SVG Export Plug-In . SVG Version: 6.00 Build 0)  -->
<svg version="1.1" id="图层_1" xmlns="http://www.w3.org/2000/svg" xmlns:xlink="http://www.w3.org/1999/xlink" x="0px" y="0px"
	 viewBox="0 0 50 50" style="enable-background:new 0 0 50 50;" xml:space="preserve">
<style type="text/css">
	.st0{opacity:0.2;}
	.st1{fill:#FFFFFF;}
	.st2{fill:#BC09FF;}
</style>
<g>
	<g class="st0">
		<path d="M38.5,9.5h-26c-0.4,0-0.8,0.1-1.2,0.2C11.2,9.8,11,9.9,10.8,10c-0.3,0.2-0.6,0.5-0.8,0.8c-0.3,0.5-0.5,1.1-0.5,1.7v26
			c0,0.4,0.1,0.8,0.2,1.2c0.1,0.2,0.2,0.3,0.3,0.5s0.2,0.3,0.4,0.4c0.1,0.1,0.3,0.3,0.4,0.4s0.3,0.2,0.5,0.3
			c0.4,0.2,0.8,0.2,1.2,0.2h26c0.6,0,1.2-0.2,1.7-0.5c0.3-0.2,0.6-0.5,0.8-0.8c0.1-0.2,0.2-0.3,0.3-0.5c0.2-0.4,0.2-0.8,0.2-1.2v-26
			C41.5,10.8,40.2,9.5,38.5,9.5z M37.5,27h-1h-1v2h-2v-2h-1h-2h-1h-2h-1v2h-2v-2h-1h-2h-1h-2h-1v2h-2v-2h-1h-1v-1h1v-2h1v2h2v-2h1v2
			h2v-2h1v2h2v-2h1v2h2v-2h1v2h2v-2h1v2h2v-2h1v2h2v-2h1v2h1V27z"/>
		<path d="M38.5,7.5h-26c-2.8,0-5,2.2-5,5v26c0,2.8,2.2,5,5,5h26c2.8,0,5-2.2,5-5v-26C43.5,9.7,41.3,7.5,38.5,7.5z M41.5,38.5
			c0,0.4-0.1,0.8-0.2,1.2c-0.1,0.2-0.2,0.3-0.3,0.5c-0.2,0.3-0.5,0.6-0.8,0.8c-0.5,0.3-1.1,0.5-1.7,0.5h-26c-0.4,0-0.8-0.1-1.2-0.2
			c-0.2-0.1-0.3-0.2-0.5-0.3s-0.3-0.2-0.4-0.4c-0.1-0.1-0.3-0.3-0.4-0.4s-0.2-0.3-0.3-0.5c-0.2-0.4-0.2-0.8-0.2-1.2v-26
			c0-0.6,0.2-1.2,0.5-1.7c0.2-0.3,0.5-0.6,0.8-0.8c0.2-0.1,0.3-0.2,0.5-0.3c0.4-0.2,0.8-0.2,1.2-0.2h26c1.7,0,3,1.3,3,3V38.5z"/>
		<polygon points="36.5,24 35.5,24 35.5,26 33.5,26 33.5,24 32.5,24 32.5,26 30.5,26 30.5,24 29.5,24 29.5,26 27.5,26 27.5,24 
			26.5,24 26.5,26 24.5,26 24.5,24 23.5,24 23.5,26 21.5,26 21.5,24 20.5,24 20.5,26 18.5,26 18.5,24 17.5,24 17.5,26 15.5,26 
			15.5,24 14.5,24 14.5,26 13.5,26 13.5,27 14.5,27 15.5,27 15.5,29 17.5,29 17.5,27 18.5,27 20.5,27 21.5,27 23.5,27 24.5,27 
			24.5,29 26.5,29 26.5,27 27.5,27 29.5,27 30.5,27 32.5,27 33.5,27 33.5,29 35.5,29 35.5,27 36.5,27 37.5,27 37.5,26 36.5,26 		"/>
	</g>
	<g>
		<g>
			<path class="st1" d="M37.5,8.5h-26c-0.4,0-0.8,0.1-1.2,0.2C10.2,8.8,10,8.9,9.8,9C9.5,9.2,9.2,9.5,9,9.8
				c-0.3,0.5-0.5,1.1-0.5,1.7v26c0,0.4,0.1,0.8,0.2,1.2C8.8,38.8,8.9,39,9,39.2s0.2,0.3,0.4,0.4c0.1,0.1,0.3,0.3,0.4,0.4
				s0.3,0.2,0.5,0.3c0.4,0.2,0.8,0.2,1.2,0.2h26c0.6,0,1.2-0.2,1.7-0.5c0.3-0.2,0.6-0.5,0.8-0.8c0.1-0.2,0.2-0.3,0.3-0.5
				c0.2-0.4,0.2-0.8,0.2-1.2v-26C40.5,9.8,39.2,8.5,37.5,8.5z M36.5,26h-1h-1v2h-2v-2h-1h-2h-1h-2h-1v2h-2v-2h-1h-2h-1h-2h-1v2h-2
				v-2h-1h-1v-1h1v-2h1v2h2v-2h1v2h2v-2h1v2h2v-2h1v2h2v-2h1v2h2v-2h1v2h2v-2h1v2h2v-2h1v2h1V26z"/>
			<path class="st2" d="M37.5,6.5h-26c-2.8,0-5,2.2-5,5v26c0,2.8,2.2,5,5,5h26c2.8,0,5-2.2,5-5v-26C42.5,8.7,40.3,6.5,37.5,6.5z
				 M40.5,37.5c0,0.4-0.1,0.8-0.2,1.2c-0.1,0.2-0.2,0.3-0.3,0.5c-0.2,0.3-0.5,0.6-0.8,0.8c-0.5,0.3-1.1,0.5-1.7,0.5h-26
				c-0.4,0-0.8-0.1-1.2-0.2c-0.2-0.1-0.3-0.2-0.5-0.3s-0.3-0.2-0.4-0.4c-0.1-0.1-0.3-0.3-0.4-0.4s-0.2-0.3-0.3-0.5
				c-0.2-0.4-0.2-0.8-0.2-1.2v-26c0-0.6,0.2-1.2,0.5-1.7C9.2,9.5,9.5,9.2,9.8,9c0.2-0.1,0.3-0.2,0.5-0.3c0.4-0.2,0.8-0.2,1.2-0.2h26
				c1.7,0,3,1.3,3,3V37.5z"/>
			<polygon class="st2" points="35.5,23 34.5,23 34.5,25 32.5,25 32.5,23 31.5,23 31.5,25 29.5,25 29.5,23 28.5,23 28.5,25 26.5,25 
				26.5,23 25.5,23 25.5,25 23.5,25 23.5,23 22.5,23 22.5,25 20.5,25 20.5,23 19.5,23 19.5,25 17.5,25 17.5,23 16.5,23 16.5,25 
				14.5,25 14.5,23 13.5,23 13.5,25 12.5,25 12.5,26 13.5,26 14.5,26 14.5,28 16.5,28 16.5,26 17.5,26 19.5,26 20.5,26 22.5,26 
				23.5,26 23.5,28 25.5,28 25.5,26 26.5,26 28.5,26 29.5,26 31.5,26 32.5,26 32.5,28 34.5,28 34.5,26 35.5,26 36.5,26 36.5,25 
				35.5,25 			"/>
		</g>
	</g>
</g>
</svg>
