<?xml version="1.0" encoding="utf-8"?>
<!-- Generator: Adobe Illustrator 21.0.2, SVG Export Plug-In . SVG Version: 6.00 Build 0)  -->
<svg version="1.1" id="图层_1" xmlns="http://www.w3.org/2000/svg" xmlns:xlink="http://www.w3.org/1999/xlink" x="0px" y="0px"
	 viewBox="0 0 50 50" style="enable-background:new 0 0 50 50;" xml:space="preserve">
<style type="text/css">

	.st0{opacity:0.2;}
	.st1{fill:#FFFFFF;}
	.st2{fill:#00A0E9;}
</style>
<g>
	<g class="st0">
		<path d="M25.5,12.3c-4.5,0-7,1.4-7,2s2.5,2,7,2c4.5,0,7-1.4,7-2S30,12.3,25.5,12.3z"/>
		<path d="M41,10.6c-0.2-0.3-0.5-0.6-0.8-0.8c-0.5-0.3-1.1-0.5-1.7-0.5h-26c-0.6,0-1.2,0.2-1.7,0.5c-0.3,0.2-0.6,0.5-0.8,0.8
			c-0.1,0.2-0.2,0.3-0.3,0.5c-0.2,0.4-0.2,0.8-0.2,1.2v26c0,1.7,1.4,3,3,3h26c1.7,0,3-1.3,3-3v-26c0-0.4-0.1-0.8-0.2-1.2
			C41.2,10.9,41.1,10.7,41,10.6z M33.5,36.3c0,1.7-3.6,3-8,3s-8-1.3-8-3v-6c0,1,1.4,2,3.6,2.5c1.3,0.3,2.8,0.5,4.4,0.5
			s3.1-0.2,4.4-0.5c2.2-0.5,3.6-1.5,3.6-2.5V36.3z M33.5,28.3c0,1.7-3.6,3-8,3s-8-1.3-8-3v-6c0,1,1.4,2,3.6,2.5
			c1.3,0.3,2.8,0.5,4.4,0.5s3.1-0.2,4.4-0.5c2.2-0.5,3.6-1.5,3.6-2.5V28.3z M33.5,20.3c0,1.7-3.6,3-8,3s-8-1.3-8-3v-6
			c0-1.7,3.6-3,8-3s8,1.3,8,3V20.3z"/>
		<path d="M38.5,7.3h-26c-2.8,0-5,2.2-5,5v26c0,2.8,2.2,5,5,5h26c2.8,0,5-2.2,5-5v-26C43.5,9.5,41.3,7.3,38.5,7.3z M41.5,38.3
			c0,1.7-1.3,3-3,3h-26c-1.6,0-3-1.3-3-3v-26c0-0.4,0.1-0.8,0.2-1.2c0.1-0.2,0.2-0.3,0.3-0.5c0.2-0.3,0.5-0.6,0.8-0.8
			c0.5-0.3,1.1-0.5,1.7-0.5h26c0.6,0,1.2,0.2,1.7,0.5c0.3,0.2,0.6,0.5,0.8,0.8c0.1,0.2,0.2,0.3,0.3,0.5c0.2,0.4,0.2,0.8,0.2,1.2
			V38.3z"/>
		<path d="M25.5,11.3c-4.4,0-8,1.3-8,3v6c0,1.7,3.6,3,8,3s8-1.3,8-3v-6C33.5,12.6,29.9,11.3,25.5,11.3z M25.5,16.3c-4.5,0-7-1.4-7-2
			s2.5-2,7-2c4.5,0,7,1.4,7,2S30,16.3,25.5,16.3z"/>
		<path d="M29.9,24.8c-1.3,0.3-2.8,0.5-4.4,0.5s-3.1-0.2-4.4-0.5c-2.2-0.5-3.6-1.5-3.6-2.5v6c0,1.7,3.6,3,8,3s8-1.3,8-3v-6
			C33.5,23.3,32.1,24.2,29.9,24.8z"/>
		<path d="M29.9,32.8c-1.3,0.3-2.8,0.5-4.4,0.5s-3.1-0.2-4.4-0.5c-2.2-0.5-3.6-1.5-3.6-2.5v6c0,1.7,3.6,3,8,3s8-1.3,8-3v-6
			C33.5,31.3,32.1,32.2,29.9,32.8z"/>
	</g>
	<g>
		<g>
			<path class="st1" d="M24.5,11.3c-4.5,0-7,1.4-7,2s2.5,2,7,2c4.5,0,7-1.4,7-2S29,11.3,24.5,11.3z"/>
			<path class="st1" d="M40,9.6c-0.2-0.3-0.5-0.6-0.8-0.8c-0.5-0.3-1.1-0.5-1.7-0.5h-26c-0.6,0-1.2,0.2-1.7,0.5C9.5,9,9.2,9.3,9,9.6
				c-0.1,0.2-0.2,0.3-0.3,0.5c-0.2,0.4-0.2,0.8-0.2,1.2v26c0,1.7,1.4,3,3,3h26c1.7,0,3-1.3,3-3v-26c0-0.4-0.1-0.8-0.2-1.2
				C40.2,9.9,40.1,9.7,40,9.6z M32.5,35.3c0,1.7-3.6,3-8,3s-8-1.3-8-3v-6c0,1,1.4,2,3.6,2.5c1.3,0.3,2.8,0.5,4.4,0.5
				s3.1-0.2,4.4-0.5c2.2-0.5,3.6-1.5,3.6-2.5V35.3z M32.5,27.3c0,1.7-3.6,3-8,3s-8-1.3-8-3v-6c0,1,1.4,2,3.6,2.5
				c1.3,0.3,2.8,0.5,4.4,0.5s3.1-0.2,4.4-0.5c2.2-0.5,3.6-1.5,3.6-2.5V27.3z M32.5,19.3c0,1.7-3.6,3-8,3s-8-1.3-8-3v-6
				c0-1.7,3.6-3,8-3s8,1.3,8,3V19.3z"/>
			<g>
				<path class="st2" d="M37.5,6.3h-26c-2.8,0-5,2.2-5,5v26c0,2.8,2.2,5,5,5h26c2.8,0,5-2.2,5-5v-26C42.5,8.5,40.3,6.3,37.5,6.3z
					 M40.5,37.3c0,1.7-1.3,3-3,3h-26c-1.6,0-3-1.3-3-3v-26c0-0.4,0.1-0.8,0.2-1.2C8.8,9.9,8.9,9.7,9,9.6C9.2,9.3,9.5,9,9.8,8.8
					c0.5-0.3,1.1-0.5,1.7-0.5h26c0.6,0,1.2,0.2,1.7,0.5C39.5,9,39.8,9.3,40,9.6c0.1,0.2,0.2,0.3,0.3,0.5c0.2,0.4,0.2,0.8,0.2,1.2
					V37.3z"/>
			</g>
			<g>
				<path class="st2" d="M24.5,10.3c-4.4,0-8,1.3-8,3v6c0,1.7,3.6,3,8,3s8-1.3,8-3v-6C32.5,11.6,28.9,10.3,24.5,10.3z M24.5,15.3
					c-4.5,0-7-1.4-7-2s2.5-2,7-2c4.5,0,7,1.4,7,2S29,15.3,24.5,15.3z"/>
			</g>
			<g>
				<path class="st2" d="M28.9,23.8c-1.3,0.3-2.8,0.5-4.4,0.5s-3.1-0.2-4.4-0.5c-2.2-0.5-3.6-1.5-3.6-2.5v6c0,1.7,3.6,3,8,3
					s8-1.3,8-3v-6C32.5,22.3,31.1,23.2,28.9,23.8z"/>
			</g>
			<g>
				<path class="st2" d="M28.9,31.8c-1.3,0.3-2.8,0.5-4.4,0.5s-3.1-0.2-4.4-0.5c-2.2-0.5-3.6-1.5-3.6-2.5v6c0,1.7,3.6,3,8,3
					s8-1.3,8-3v-6C32.5,30.3,31.1,31.2,28.9,31.8z"/>
			</g>
		</g>
	</g>
</g>
</svg>
