<?xml version="1.0" encoding="utf-8"?>
<!-- Generator: Adobe Illustrator 21.0.2, SVG Export Plug-In . SVG Version: 6.00 Build 0)  -->
<svg version="1.1" id="图层_1" xmlns="http://www.w3.org/2000/svg" xmlns:xlink="http://www.w3.org/1999/xlink" x="0px" y="0px"
	 viewBox="0 0 50 50" style="enable-background:new 0 0 50 50;" xml:space="preserve">
<style type="text/css">
	.st0{opacity:0.2;}
	.st1{fill:#FFFFFF;}
	.st2{fill:#F93E54;}
</style>
<g>
	<g class="st0">
		<rect x="31" y="21.8" width="4" height="7"/>
		<rect x="16" y="21.8" width="4" height="7"/>
		<path d="M41,10.8c-0.2-0.3-0.5-0.6-0.8-0.8c-0.5-0.3-1.1-0.5-1.7-0.5h-26c-0.6,0-1.2,0.2-1.7,0.5c-0.3,0.2-0.6,0.5-0.8,0.8
			c-0.1,0.2-0.2,0.3-0.3,0.5c-0.2,0.4-0.2,0.8-0.2,1.2v26c0,0.4,0.1,0.8,0.2,1.2c0.1,0.2,0.2,0.3,0.3,0.5c0.2,0.3,0.5,0.6,0.8,0.8
			c0.5,0.3,1.1,0.5,1.7,0.5h26c0.6,0,1.2-0.2,1.7-0.5c0.3-0.2,0.6-0.5,0.8-0.8c0.1-0.2,0.2-0.3,0.3-0.5c0.2-0.4,0.2-0.8,0.2-1.2v-26
			c0-0.4-0.1-0.8-0.2-1.2C41.2,11.2,41.1,11,41,10.8z M36,29.8H15v-9h21V29.8z"/>
		<rect x="26" y="21.8" width="4" height="7"/>
		<rect x="21" y="21.8" width="4" height="7"/>
		<path d="M38.5,7.5h-26c-2.8,0-5,2.2-5,5v26c0,2.8,2.2,5,5,5h26c2.8,0,5-2.2,5-5v-26C43.5,9.7,41.3,7.5,38.5,7.5z M41.5,38.5
			c0,0.4-0.1,0.8-0.2,1.2c-0.1,0.2-0.2,0.3-0.3,0.5c-0.2,0.3-0.5,0.6-0.8,0.8c-0.5,0.3-1.1,0.5-1.7,0.5h-26c-0.6,0-1.2-0.2-1.7-0.5
			c-0.3-0.2-0.6-0.5-0.8-0.8c-0.1-0.2-0.2-0.3-0.3-0.5c-0.2-0.4-0.2-0.8-0.2-1.2v-26c0-0.4,0.1-0.8,0.2-1.2c0.1-0.2,0.2-0.3,0.3-0.5
			c0.2-0.3,0.5-0.6,0.8-0.8c0.5-0.3,1.1-0.5,1.7-0.5h26c0.6,0,1.2,0.2,1.7,0.5c0.3,0.2,0.6,0.5,0.8,0.8c0.1,0.2,0.2,0.3,0.3,0.5
			c0.2,0.4,0.2,0.8,0.2,1.2V38.5z"/>
		<path d="M15,29.8h21v-9H15V29.8z M25,28.8h-4v-7h4V28.8z M26,21.8h4v7h-4V21.8z M35,28.8h-4v-7h4V28.8z M16,21.8h4v7h-4V21.8z"/>
	</g>
	<g>
		<g>
			<rect x="30" y="20.8" class="st1" width="4" height="7"/>
			<rect x="15" y="20.8" class="st1" width="4" height="7"/>
			<path class="st1" d="M40,9.8c-0.2-0.3-0.5-0.6-0.8-0.8c-0.5-0.3-1.1-0.5-1.7-0.5h-26c-0.6,0-1.2,0.2-1.7,0.5
				C9.5,9.2,9.3,9.5,9.1,9.8c-0.1,0.2-0.2,0.3-0.3,0.5c-0.2,0.4-0.2,0.8-0.2,1.2v26c0,0.4,0.1,0.8,0.2,1.2c0.1,0.2,0.2,0.3,0.3,0.5
				c0.2,0.3,0.5,0.6,0.8,0.8c0.5,0.3,1.1,0.5,1.7,0.5h26c0.6,0,1.2-0.2,1.7-0.5c0.3-0.2,0.6-0.5,0.8-0.8c0.1-0.2,0.2-0.3,0.3-0.5
				c0.2-0.4,0.2-0.8,0.2-1.2v-26c0-0.4-0.1-0.8-0.2-1.2C40.2,10.2,40.1,10,40,9.8z M35,28.8H14v-9h21V28.8z"/>
			<rect x="25" y="20.8" class="st1" width="4" height="7"/>
			<rect x="20" y="20.8" class="st1" width="4" height="7"/>
			<path class="st2" d="M37.5,6.5h-26c-2.8,0-5,2.2-5,5v26c0,2.8,2.2,5,5,5h26c2.8,0,5-2.2,5-5v-26C42.5,8.7,40.3,6.5,37.5,6.5z
				 M40.5,37.5c0,0.4-0.1,0.8-0.2,1.2c-0.1,0.2-0.2,0.3-0.3,0.5c-0.2,0.3-0.5,0.6-0.8,0.8c-0.5,0.3-1.1,0.5-1.7,0.5h-26
				c-0.6,0-1.2-0.2-1.7-0.5c-0.3-0.2-0.6-0.5-0.8-0.8c-0.1-0.2-0.2-0.3-0.3-0.5c-0.2-0.4-0.2-0.8-0.2-1.2v-26c0-0.4,0.1-0.8,0.2-1.2
				c0.1-0.2,0.2-0.3,0.3-0.5C9.3,9.5,9.5,9.2,9.9,9c0.5-0.3,1.1-0.5,1.7-0.5h26c0.6,0,1.2,0.2,1.7,0.5c0.3,0.2,0.6,0.5,0.8,0.8
				c0.1,0.2,0.2,0.3,0.3,0.5c0.2,0.4,0.2,0.8,0.2,1.2V37.5z"/>
			<path class="st2" d="M14,28.8h21v-9H14V28.8z M24,27.8h-4v-7h4V27.8z M25,20.8h4v7h-4V20.8z M34,27.8h-4v-7h4V27.8z M15,20.8h4v7
				h-4V20.8z"/>
		</g>
	</g>
</g>
</svg>
