<?xml version="1.0" encoding="utf-8"?>
<!-- Generator: Adobe Illustrator 21.0.2, SVG Export Plug-In . SVG Version: 6.00 Build 0)  -->
<svg version="1.1" id="图层_1" xmlns="http://www.w3.org/2000/svg" xmlns:xlink="http://www.w3.org/1999/xlink" x="0px" y="0px"
	 viewBox="0 0 50 50" style="enable-background:new 0 0 50 50;" xml:space="preserve">
<style type="text/css">
	.st0{opacity:0.2;}
	.st1{fill:#FFFFFF;}
	.st2{fill:#22AC38;}
</style>
<g>
	<g class="st0">
		<circle cx="25.5" cy="18.6" r="1.3"/>
		<rect x="21" y="22.1" width="9" height="13"/>
		<path d="M38.5,9.5h-26c-1.6,0-3,1.3-3,3v26c0,1.6,1.4,3,3,3h26c1.7,0,3-1.4,3-3v-26C41.5,10.8,40.2,9.5,38.5,9.5z M25.5,16.3
			c1.3,0,2.3,1,2.3,2.3s-1,2.3-2.3,2.3s-2.3-1-2.3-2.3S24.2,16.3,25.5,16.3z M35.5,36.1H31H20h-4.5v-1H20v-14h11v14h4.5V36.1z"/>
		<path d="M38.5,7.5h-26c-2.8,0-5,2.2-5,5v26c0,2.8,2.2,5,5,5h26c2.8,0,5-2.2,5-5v-26C43.5,9.7,41.3,7.5,38.5,7.5z M41.5,38.5
			c0,1.6-1.3,3-3,3h-26c-1.6,0-3-1.4-3-3v-26c0-1.7,1.4-3,3-3h26c1.7,0,3,1.3,3,3V38.5z"/>
		<path d="M31,21.1H20v14h-4.5v1H20h11h4.5v-1H31V21.1z M21,35.1v-13h9v13H21z"/>
		<path d="M25.5,21c1.3,0,2.3-1,2.3-2.3s-1-2.3-2.3-2.3s-2.3,1-2.3,2.3S24.2,21,25.5,21z M25.5,17.3c0.7,0,1.3,0.6,1.3,1.3
			S26.2,20,25.5,20c-0.7,0-1.3-0.6-1.3-1.3S24.8,17.3,25.5,17.3z"/>
	</g>
	<g>
		<g>
			<circle class="st1" cx="24.5" cy="17.6" r="1.3"/>
			<rect x="20" y="21.1" class="st1" width="9" height="13"/>
			<path class="st1" d="M37.5,8.5h-26c-1.6,0-3,1.3-3,3v26c0,1.6,1.4,3,3,3h26c1.7,0,3-1.4,3-3v-26C40.5,9.8,39.2,8.5,37.5,8.5z
				 M24.5,15.3c1.3,0,2.3,1,2.3,2.3s-1,2.3-2.3,2.3s-2.3-1-2.3-2.3S23.2,15.3,24.5,15.3z M34.5,35.1H30H19h-4.5v-1H19v-14h11v14h4.5
				V35.1z"/>
			<path class="st2" d="M37.5,6.5h-26c-2.8,0-5,2.2-5,5v26c0,2.8,2.2,5,5,5h26c2.8,0,5-2.2,5-5v-26C42.5,8.7,40.3,6.5,37.5,6.5z
				 M40.5,37.5c0,1.6-1.3,3-3,3h-26c-1.6,0-3-1.4-3-3v-26c0-1.7,1.4-3,3-3h26c1.7,0,3,1.3,3,3V37.5z"/>
			<path class="st2" d="M30,20.1H19v14h-4.5v1H19h11h4.5v-1H30V20.1z M20,34.1v-13h9v13H20z"/>
			<path class="st2" d="M24.5,20c1.3,0,2.3-1,2.3-2.3s-1-2.3-2.3-2.3s-2.3,1-2.3,2.3S23.2,20,24.5,20z M24.5,16.3
				c0.7,0,1.3,0.6,1.3,1.3S25.2,19,24.5,19c-0.7,0-1.3-0.6-1.3-1.3S23.8,16.3,24.5,16.3z"/>
		</g>
	</g>
</g>
</svg>
