<?xml version="1.0" encoding="utf-8"?>
<!-- Generator: Adobe Illustrator 21.0.2, SVG Export Plug-In . SVG Version: 6.00 Build 0)  -->
<svg version="1.1" id="图层_1" xmlns="http://www.w3.org/2000/svg" xmlns:xlink="http://www.w3.org/1999/xlink" x="0px" y="0px"
	 viewBox="0 0 50 50" style="enable-background:new 0 0 50 50;" xml:space="preserve">
<style type="text/css">
	.st0{opacity:0.2;}
	.st1{fill:#FFFFFF;}
	.st2{fill:#F93E54;}
</style>
<g>
	<g class="st0">
		<rect x="26" y="19" width="4" height="13"/>
		<rect x="21" y="19" width="4" height="13"/>
		<rect x="31" y="19" width="4" height="13"/>
		<path d="M38.5,9.5h-26c-0.4,0-0.8,0.1-1.2,0.2C11.2,9.8,11,9.9,10.8,10c-0.3,0.2-0.6,0.5-0.8,0.8c-0.3,0.5-0.5,1.1-0.5,1.7v26
			c0,0.6,0.2,1.2,0.5,1.7c0.2,0.3,0.5,0.6,0.8,0.8c0.2,0.1,0.3,0.2,0.5,0.3c0.4,0.2,0.8,0.2,1.2,0.2h26c1.7,0,3-1.3,3-3v-26
			C41.5,10.9,40.2,9.5,38.5,9.5z M36,33H15V18h21V33z"/>
		<rect x="16" y="19" width="4" height="13"/>
		<path d="M38.5,7.5h-26c-2.8,0-5,2.2-5,5v26c0,2.8,2.2,5,5,5h26c2.8,0,5-2.2,5-5v-26C43.5,9.7,41.3,7.5,38.5,7.5z M41.5,38.5
			c0,1.7-1.3,3-3,3h-26c-0.4,0-0.8-0.1-1.2-0.2c-0.2-0.1-0.3-0.2-0.5-0.3c-0.3-0.2-0.6-0.5-0.8-0.8c-0.3-0.5-0.5-1.1-0.5-1.7v-26
			c0-0.6,0.2-1.2,0.5-1.7c0.2-0.3,0.5-0.6,0.8-0.8c0.2-0.1,0.3-0.2,0.5-0.3c0.4-0.2,0.8-0.2,1.2-0.2h26c1.7,0,3,1.4,3,3V38.5z"/>
		<path d="M15,33h21V18H15V33z M25,32h-4V19h4V32z M26,19h4v13h-4V19z M35,32h-4V19h4V32z M16,19h4v13h-4V19z"/>
	</g>
	<g>
		<g>
			<rect x="25" y="18" class="st1" width="4" height="13"/>
			<rect x="20" y="18" class="st1" width="4" height="13"/>
			<rect x="30" y="18" class="st1" width="4" height="13"/>
			<path class="st1" d="M37.5,8.5h-26c-0.4,0-0.8,0.1-1.2,0.2C10.2,8.8,10,8.9,9.8,9C9.5,9.2,9.2,9.5,9,9.8
				c-0.3,0.5-0.5,1.1-0.5,1.7v26c0,0.6,0.2,1.2,0.5,1.7c0.2,0.3,0.5,0.6,0.8,0.8c0.2,0.1,0.3,0.2,0.5,0.3c0.4,0.2,0.8,0.2,1.2,0.2
				h26c1.7,0,3-1.3,3-3v-26C40.5,9.9,39.2,8.5,37.5,8.5z M35,32H14V17h21V32z"/>
			<rect x="15" y="18" class="st1" width="4" height="13"/>
			<path class="st2" d="M37.5,6.5h-26c-2.8,0-5,2.2-5,5v26c0,2.8,2.2,5,5,5h26c2.8,0,5-2.2,5-5v-26C42.5,8.7,40.3,6.5,37.5,6.5z
				 M40.5,37.5c0,1.7-1.3,3-3,3h-26c-0.4,0-0.8-0.1-1.2-0.2c-0.2-0.1-0.3-0.2-0.5-0.3c-0.3-0.2-0.6-0.5-0.8-0.8
				c-0.3-0.5-0.5-1.1-0.5-1.7v-26c0-0.6,0.2-1.2,0.5-1.7C9.2,9.5,9.5,9.2,9.8,9c0.2-0.1,0.3-0.2,0.5-0.3c0.4-0.2,0.8-0.2,1.2-0.2h26
				c1.7,0,3,1.4,3,3V37.5z"/>
			<path class="st2" d="M14,32h21V17H14V32z M24,31h-4V18h4V31z M25,18h4v13h-4V18z M34,31h-4V18h4V31z M15,18h4v13h-4V18z"/>
		</g>
	</g>
</g>
</svg>
