<?xml version="1.0" encoding="utf-8"?>
<!-- Generator: Adobe Illustrator 21.0.2, SVG Export Plug-In . SVG Version: 6.00 Build 0)  -->
<svg version="1.1" id="图层_1" xmlns="http://www.w3.org/2000/svg" xmlns:xlink="http://www.w3.org/1999/xlink" x="0px" y="0px"
	 viewBox="0 0 50 50" style="enable-background:new 0 0 50 50;" xml:space="preserve">
<style type="text/css">
	.st0{opacity:0.2;}
	.st1{fill:#FFFFFF;}
	.st2{fill:#F93E54;}
</style>
<g>
	<g class="st0">
		<path d="M16.4,29.7c0.5,1,1.1,1.9,1.8,2.7h14.6c0.7-0.8,1.3-1.7,1.8-2.7H16.4z"/>
		<path d="M19.3,33.3c1.7,1.3,3.9,2.2,6.2,2.2s4.5-0.8,6.2-2.2H19.3z"/>
		<path d="M31.7,17.7c-1.7-1.3-3.9-2.2-6.2-2.2s-4.5,0.8-6.2,2.2H31.7z"/>
		<path d="M40.2,10c-0.2-0.1-0.3-0.2-0.5-0.3c-0.4-0.2-0.8-0.2-1.2-0.2h-26c-1.7,0-3,1.4-3,3v26c0,1.7,1.3,3,3,3h26
			c0.4,0,0.8-0.1,1.2-0.2c0.2-0.1,0.3-0.2,0.5-0.3c0.3-0.2,0.6-0.5,0.8-0.8c0.3-0.5,0.5-1.1,0.5-1.7v-26c0-0.6-0.2-1.2-0.5-1.7
			C40.8,10.5,40.5,10.2,40.2,10z M25.5,36.5c-6.1,0-11-4.9-11-11s4.9-11,11-11s11,4.9,11,11S31.6,36.5,25.5,36.5z"/>
		<path d="M34.6,21.3c-0.5-1-1.1-1.9-1.8-2.7H18.2c-0.7,0.8-1.3,1.7-1.8,2.7H34.6z"/>
		<path d="M35.5,26H15.5c0,0.9,0.2,1.8,0.5,2.7h19C35.3,27.8,35.4,26.9,35.5,26z"/>
		<path d="M35.5,25c0-0.9-0.2-1.8-0.5-2.7H16c-0.3,0.8-0.5,1.7-0.5,2.7H35.5z"/>
		<path d="M38.5,7.5h-26c-2.8,0-5,2.2-5,5v26c0,2.8,2.2,5,5,5h26c2.8,0,5-2.2,5-5v-26C43.5,9.7,41.3,7.5,38.5,7.5z M41.5,38.5
			c0,0.6-0.2,1.2-0.5,1.7c-0.2,0.3-0.5,0.6-0.8,0.8c-0.2,0.1-0.3,0.2-0.5,0.3c-0.4,0.2-0.8,0.2-1.2,0.2h-26c-1.7,0-3-1.3-3-3v-26
			c0-1.6,1.3-3,3-3h26c0.4,0,0.8,0.1,1.2,0.2c0.2,0.1,0.3,0.2,0.5,0.3c0.3,0.2,0.6,0.5,0.8,0.8c0.3,0.5,0.5,1.1,0.5,1.7V38.5z"/>
		<path d="M25.5,14.5c-6.1,0-11,4.9-11,11s4.9,11,11,11s11-4.9,11-11S31.6,14.5,25.5,14.5z M31.7,17.7H19.3c1.7-1.3,3.9-2.2,6.2-2.2
			S30,16.3,31.7,17.7z M18.2,18.7h14.6c0.7,0.8,1.3,1.7,1.8,2.7H16.4C16.9,20.3,17.5,19.4,18.2,18.7z M35,22.3
			c0.3,0.8,0.5,1.7,0.5,2.7H15.5c0-0.9,0.2-1.8,0.5-2.7H35z M15.5,26h19.9c0,0.9-0.2,1.8-0.5,2.7H16C15.7,27.8,15.6,26.9,15.5,26z
			 M19.3,33.3h12.4c-1.7,1.3-3.9,2.2-6.2,2.2S21,34.7,19.3,33.3z M32.8,32.3H18.2c-0.7-0.8-1.3-1.7-1.8-2.7h18.2
			C34.1,30.7,33.5,31.6,32.8,32.3z"/>
	</g>
	<g>
		<g>
			<path class="st1" d="M15.4,28.7c0.5,1,1.1,1.9,1.8,2.7h14.6c0.7-0.8,1.3-1.7,1.8-2.7H15.4z"/>
			<path class="st1" d="M18.3,32.3c1.7,1.3,3.9,2.2,6.2,2.2s4.5-0.8,6.2-2.2H18.3z"/>
			<path class="st1" d="M30.7,16.7c-1.7-1.3-3.9-2.2-6.2-2.2s-4.5,0.8-6.2,2.2H30.7z"/>
			<path class="st1" d="M39.2,9c-0.2-0.1-0.3-0.2-0.5-0.3c-0.4-0.2-0.8-0.2-1.2-0.2h-26c-1.7,0-3,1.4-3,3v26c0,1.7,1.3,3,3,3h26
				c0.4,0,0.8-0.1,1.2-0.2c0.2-0.1,0.3-0.2,0.5-0.3c0.3-0.2,0.6-0.5,0.8-0.8c0.3-0.5,0.5-1.1,0.5-1.7v-26c0-0.6-0.2-1.2-0.5-1.7
				C39.8,9.5,39.5,9.2,39.2,9z M24.5,35.5c-6.1,0-11-4.9-11-11s4.9-11,11-11s11,4.9,11,11S30.6,35.5,24.5,35.5z"/>
			<path class="st1" d="M33.6,20.3c-0.5-1-1.1-1.9-1.8-2.7H17.2c-0.7,0.8-1.3,1.7-1.8,2.7H33.6z"/>
			<path class="st1" d="M34.5,25H14.5c0,0.9,0.2,1.8,0.5,2.7h19C34.3,26.8,34.4,25.9,34.5,25z"/>
			<path class="st1" d="M34.5,24c0-0.9-0.2-1.8-0.5-2.7H15c-0.3,0.8-0.5,1.7-0.5,2.7H34.5z"/>
			<path class="st2" d="M37.5,6.5h-26c-2.8,0-5,2.2-5,5v26c0,2.8,2.2,5,5,5h26c2.8,0,5-2.2,5-5v-26C42.5,8.7,40.3,6.5,37.5,6.5z
				 M40.5,37.5c0,0.6-0.2,1.2-0.5,1.7c-0.2,0.3-0.5,0.6-0.8,0.8c-0.2,0.1-0.3,0.2-0.5,0.3c-0.4,0.2-0.8,0.2-1.2,0.2h-26
				c-1.7,0-3-1.3-3-3v-26c0-1.6,1.3-3,3-3h26c0.4,0,0.8,0.1,1.2,0.2C38.8,8.8,39,8.9,39.2,9c0.3,0.2,0.6,0.5,0.8,0.8
				c0.3,0.5,0.5,1.1,0.5,1.7V37.5z"/>
			<path class="st2" d="M24.5,13.5c-6.1,0-11,4.9-11,11s4.9,11,11,11s11-4.9,11-11S30.6,13.5,24.5,13.5z M30.7,16.7H18.3
				c1.7-1.3,3.9-2.2,6.2-2.2S29,15.3,30.7,16.7z M17.2,17.7h14.6c0.7,0.8,1.3,1.7,1.8,2.7H15.4C15.9,19.3,16.5,18.4,17.2,17.7z
				 M34,21.3c0.3,0.8,0.5,1.7,0.5,2.7H14.5c0-0.9,0.2-1.8,0.5-2.7H34z M14.5,25h19.9c0,0.9-0.2,1.8-0.5,2.7H15
				C14.7,26.8,14.6,25.9,14.5,25z M18.3,32.3h12.4c-1.7,1.3-3.9,2.2-6.2,2.2S20,33.7,18.3,32.3z M31.8,31.3H17.2
				c-0.7-0.8-1.3-1.7-1.8-2.7h18.2C33.1,29.7,32.5,30.6,31.8,31.3z"/>
		</g>
	</g>
</g>
</svg>
