<?xml version="1.0" encoding="utf-8"?>
<!-- Generator: Adobe Illustrator 21.0.2, SVG Export Plug-In . SVG Version: 6.00 Build 0)  -->
<svg version="1.1" id="图层_1" xmlns="http://www.w3.org/2000/svg" xmlns:xlink="http://www.w3.org/1999/xlink" x="0px" y="0px"
	 viewBox="0 0 50 50" style="enable-background:new 0 0 50 50;" xml:space="preserve">
<style type="text/css">
	.st0{opacity:0.2;}
	.st1{fill:#FFFFFF;}
	.st2{fill:#F93E54;}
</style>
<g>
	<g class="st0">
		<circle cx="25.6" cy="22" r="5"/>
		<path d="M38.6,9.5h-26c-1.6,0-3,1.3-3,3v26c0,0.4,0.1,0.8,0.2,1.2c0.1,0.2,0.2,0.3,0.3,0.5c0.2,0.3,0.5,0.6,0.8,0.8
			c0.5,0.3,1.1,0.5,1.7,0.5h26c0.6,0,1.2-0.2,1.7-0.5c0.3-0.2,0.6-0.5,0.8-0.8c0.1-0.2,0.2-0.3,0.3-0.5c0.2-0.4,0.2-0.8,0.2-1.2v-26
			C41.6,10.8,40.2,9.5,38.6,9.5z M35.6,35.5h-20v-8h7.6c-2.1-0.9-3.6-3-3.6-5.5c0-3.3,2.7-6,6-6s6,2.7,6,6c0,2.4-1.5,4.6-3.6,5.5
			h7.6V35.5z"/>
		<path d="M38.6,7.5h-26c-2.8,0-5,2.2-5,5v26c0,2.8,2.2,5,5,5h26c2.8,0,5-2.2,5-5v-26C43.6,9.7,41.3,7.5,38.6,7.5z M41.6,38.5
			c0,0.4-0.1,0.8-0.2,1.2c-0.1,0.2-0.2,0.3-0.3,0.5c-0.2,0.3-0.5,0.6-0.8,0.8c-0.5,0.3-1.1,0.5-1.7,0.5h-26c-0.6,0-1.2-0.2-1.7-0.5
			c-0.3-0.2-0.6-0.5-0.8-0.8C10,40,9.9,39.8,9.8,39.7c-0.2-0.4-0.2-0.8-0.2-1.2v-26c0-1.7,1.4-3,3-3h26c1.7,0,3,1.3,3,3V38.5z"/>
		<path d="M31.6,22c0-3.3-2.7-6-6-6s-6,2.7-6,6c0,2.4,1.5,4.6,3.6,5.5h-7.6v8h20v-8H28C30.1,26.5,31.6,24.4,31.6,22z M20.6,22
			c0-2.8,2.2-5,5-5s5,2.2,5,5c0,2.8-2.2,5-5,5S20.6,24.7,20.6,22z"/>
	</g>
	<g>
		<g>
			<circle class="st1" cx="24.6" cy="21" r="5"/>
			<path class="st1" d="M37.6,8.5h-26c-1.6,0-3,1.3-3,3v26c0,0.4,0.1,0.8,0.2,1.2C8.9,38.8,9,39,9.1,39.2c0.2,0.3,0.5,0.6,0.8,0.8
				c0.5,0.3,1.1,0.5,1.7,0.5h26c0.6,0,1.2-0.2,1.7-0.5c0.3-0.2,0.6-0.5,0.8-0.8c0.1-0.2,0.2-0.3,0.3-0.5c0.2-0.4,0.2-0.8,0.2-1.2
				v-26C40.6,9.8,39.2,8.5,37.6,8.5z M34.6,34.5h-20v-8h7.6c-2.1-0.9-3.6-3-3.6-5.5c0-3.3,2.7-6,6-6s6,2.7,6,6
				c0,2.4-1.5,4.6-3.6,5.5h7.6V34.5z"/>
			<path class="st2" d="M37.6,6.5h-26c-2.8,0-5,2.2-5,5v26c0,2.8,2.2,5,5,5h26c2.8,0,5-2.2,5-5v-26C42.6,8.7,40.3,6.5,37.6,6.5z
				 M40.6,37.5c0,0.4-0.1,0.8-0.2,1.2c-0.1,0.2-0.2,0.3-0.3,0.5c-0.2,0.3-0.5,0.6-0.8,0.8c-0.5,0.3-1.1,0.5-1.7,0.5h-26
				c-0.6,0-1.2-0.2-1.7-0.5c-0.3-0.2-0.6-0.5-0.8-0.8C9,39,8.9,38.8,8.8,38.7c-0.2-0.4-0.2-0.8-0.2-1.2v-26c0-1.7,1.4-3,3-3h26
				c1.7,0,3,1.3,3,3V37.5z"/>
			<path class="st2" d="M30.6,21c0-3.3-2.7-6-6-6s-6,2.7-6,6c0,2.4,1.5,4.6,3.6,5.5h-7.6v8h20v-8H27C29.1,25.5,30.6,23.4,30.6,21z
				 M19.6,21c0-2.8,2.2-5,5-5s5,2.2,5,5c0,2.8-2.2,5-5,5S19.6,23.7,19.6,21z"/>
		</g>
	</g>
</g>
</svg>
