<?xml version="1.0" encoding="utf-8"?>
<!-- Generator: Adobe Illustrator 21.0.2, SVG Export Plug-In . SVG Version: 6.00 Build 0)  -->
<svg version="1.1" id="图层_1" xmlns="http://www.w3.org/2000/svg" xmlns:xlink="http://www.w3.org/1999/xlink" x="0px" y="0px"
	 viewBox="0 0 50 50" style="enable-background:new 0 0 50 50;" xml:space="preserve">
<style type="text/css">
	.st0{opacity:0.2;}
	.st1{fill:#FFFFFF;}
	.st2{fill:#00A0E9;}
</style>
<g>
	<g class="st0">
		<path d="M32.7,20.3c0.4,0,0.6-0.3,0.6-0.7c0-0.4-0.3-0.6-0.7-0.6h0h0L30,19c-0.4,0-0.6,0.3-0.6,0.7c0,0.4,0.3,0.6,0.6,0.6h0.3
			l-0.4,0.9l-5.4,0.1l0.1-0.3c0.1-0.2,0.1-0.4,0-0.6c-0.1-0.2-0.3-0.3-0.6-0.3l-3.5,0.1c-0.4,0-0.6,0.3-0.6,0.7
			c0,0.4,0.3,0.6,0.7,0.6l2.5-0.1l-0.5,1.1c-0.4-0.1-0.8-0.2-1.3-0.2h-0.1c-1.2,0-2.3,0.5-3.2,1.4c-0.8,0.9-1.3,2-1.3,3.2
			c0.1,2.4,2.1,4.4,4.5,4.4h0.1c1.2,0,2.3-0.5,3.2-1.4c0.8-0.8,1.3-2,1.2-3.2c0-1.5-0.8-2.8-2-3.7l0.1-0.1l4.3,2.3l-0.3,0.7
			c0,0,0,0.1,0,0.1c-0.2,0.5-0.3,1-0.3,1.5c0.1,2,1.7,3.6,3.7,3.6h0.1c1,0,1.9-0.4,2.6-1.2c0.7-0.7,1.1-1.6,1-2.6
			c-0.1-2-1.7-3.6-3.7-3.6H31c-0.3,0-0.6,0.1-0.9,0.1l1.7-3.6L32.7,20.3z M24.5,26.7c0,0.8-0.3,1.7-0.9,2.3c-0.6,0.6-1.4,1-2.2,1
			l-0.1,0c-1.7,0-3.2-1.4-3.2-3.2c-0.1-1.8,1.4-3.3,3.2-3.3l0.1,0c0.2,0,0.5,0,0.7,0.1l-1.3,2.9c-0.1,0.2-0.1,0.4,0,0.5
			c0.1,0.2,0.2,0.3,0.3,0.3l0,0l0,0c0,0,0,0,0,0c0.1,0,0.1,0,0.2,0c0.3,0,0.5-0.1,0.6-0.4l1.3-2.8C24,24.8,24.5,25.7,24.5,26.7z
			 M25.9,22.6l3.4-0.1L28.6,24L25.9,22.6z M31,25.1L31,25.1c1.3,0,2.4,1,2.4,2.3c0,0.6-0.2,1.2-0.7,1.7c-0.4,0.5-1,0.7-1.7,0.7
			l-0.1,0c-1.3,0-2.3-1-2.4-2.3c0-0.6,0.2-1.2,0.7-1.7C29.8,25.3,30.4,25.1,31,25.1z"/>
		<path d="M41,10.6c-0.2-0.3-0.5-0.6-0.8-0.8c-0.5-0.3-1.1-0.5-1.7-0.5h-26c-0.6,0-1.2,0.2-1.7,0.5c-0.3,0.2-0.6,0.5-0.8,0.8
			c-0.1,0.2-0.2,0.3-0.3,0.5c-0.2,0.4-0.2,0.8-0.2,1.2v26c0,1.7,1.4,3,3,3h26c1.7,0,3-1.3,3-3v-26c0-0.4-0.1-0.8-0.2-1.2
			C41.2,10.9,41.1,10.7,41,10.6z M25.5,36.3c-6.1,0-11-4.9-11-11s4.9-11,11-11s11,4.9,11,11S31.6,36.3,25.5,36.3z"/>
		<path d="M38.5,7.3h-26c-2.8,0-5,2.2-5,5v26c0,2.8,2.2,5,5,5h26c2.8,0,5-2.2,5-5v-26C43.5,9.5,41.3,7.3,38.5,7.3z M41.5,38.3
			c0,1.7-1.3,3-3,3h-26c-1.6,0-3-1.3-3-3v-26c0-0.4,0.1-0.8,0.2-1.2c0.1-0.2,0.2-0.3,0.3-0.5c0.2-0.3,0.5-0.6,0.8-0.8
			c0.5-0.3,1.1-0.5,1.7-0.5h26c0.6,0,1.2,0.2,1.7,0.5c0.3,0.2,0.6,0.5,0.8,0.8c0.1,0.2,0.2,0.3,0.3,0.5c0.2,0.4,0.2,0.8,0.2,1.2
			V38.3z"/>
		<path d="M23.2,24.2L21.9,27c-0.1,0.2-0.3,0.4-0.6,0.4c-0.1,0-0.1,0-0.2,0c0,0,0,0,0,0l0,0l0,0c-0.2-0.1-0.3-0.2-0.3-0.3
			c-0.1-0.2-0.1-0.4,0-0.5l1.3-2.9c-0.3-0.1-0.5-0.1-0.7-0.1l-0.1,0c-1.8,0.1-3.2,1.6-3.2,3.3c0,1.7,1.5,3.2,3.2,3.2l0.1,0
			c0.9,0,1.7-0.4,2.2-1c0.6-0.6,0.9-1.5,0.9-2.3C24.5,25.7,24,24.8,23.2,24.2z"/>
		<polygon points="25.9,22.6 28.6,24 29.3,22.5 		"/>
		<path d="M25.5,14.3c-6.1,0-11,4.9-11,11s4.9,11,11,11s11-4.9,11-11S31.6,14.3,25.5,14.3z M31,23.8L31,23.8c2,0,3.7,1.6,3.7,3.6
			c0,1-0.3,1.9-1,2.6c-0.7,0.7-1.6,1.1-2.6,1.2H31c-2,0-3.6-1.6-3.7-3.6c0-0.5,0.1-1.1,0.3-1.5c0,0,0-0.1,0-0.1l0.3-0.7l-4.3-2.3
			L23.7,23c1.3,0.8,2,2.2,2,3.7c0,1.2-0.4,2.4-1.2,3.2c-0.8,0.9-1.9,1.4-3.2,1.4h-0.1c-2.4,0-4.5-2-4.5-4.4c0-1.2,0.4-2.3,1.3-3.2
			c0.8-0.9,2-1.4,3.2-1.4h0.1c0.4,0,0.8,0.1,1.3,0.2l0.5-1.1l-2.5,0.1c-0.4,0-0.7-0.3-0.7-0.6c0-0.4,0.3-0.7,0.6-0.7l3.5-0.1
			c0.2,0,0.4,0.1,0.6,0.3c0.1,0.2,0.1,0.4,0,0.6l-0.1,0.3l5.4-0.1l0.4-0.9H30c-0.4,0-0.6-0.3-0.6-0.6c0-0.4,0.3-0.7,0.6-0.7l2.6-0.1
			h0h0c0.4,0,0.7,0.3,0.7,0.6c0,0.4-0.3,0.7-0.6,0.7l-0.9,0l-1.7,3.6C30.4,23.8,30.7,23.8,31,23.8z"/>
		<path d="M28.7,27.5c0,1.3,1.1,2.3,2.4,2.3l0.1,0c0.7,0,1.2-0.3,1.7-0.7c0.4-0.5,0.7-1.1,0.7-1.7c-0.1-1.3-1.1-2.3-2.4-2.3l-0.1,0
			c-0.6,0-1.2,0.3-1.6,0.7C28.9,26.2,28.7,26.8,28.7,27.5z"/>
	</g>
	<g>
		<g>
			<path class="st1" d="M31.7,19.3c0.4,0,0.6-0.3,0.6-0.7c0-0.4-0.3-0.6-0.7-0.6h0h0L29,18c-0.4,0-0.6,0.3-0.6,0.7
				c0,0.4,0.3,0.6,0.6,0.6h0.3l-0.4,0.9l-5.4,0.1l0.1-0.3c0.1-0.2,0.1-0.4,0-0.6c-0.1-0.2-0.3-0.3-0.6-0.3l-3.5,0.1
				c-0.4,0-0.6,0.3-0.6,0.7c0,0.4,0.3,0.6,0.7,0.6l2.5-0.1l-0.5,1.1c-0.4-0.1-0.8-0.2-1.3-0.2h-0.1c-1.2,0-2.3,0.5-3.2,1.4
				c-0.8,0.9-1.3,2-1.3,3.2c0.1,2.4,2.1,4.4,4.5,4.4h0.1c1.2,0,2.3-0.5,3.2-1.4c0.8-0.8,1.3-2,1.2-3.2c0-1.5-0.8-2.8-2-3.7l0.1-0.1
				l4.3,2.3l-0.3,0.7c0,0,0,0.1,0,0.1c-0.2,0.5-0.3,1-0.3,1.5c0.1,2,1.7,3.6,3.7,3.6h0.1c1,0,1.9-0.4,2.6-1.2c0.7-0.7,1.1-1.6,1-2.6
				c-0.1-2-1.7-3.6-3.7-3.6H30c-0.3,0-0.6,0.1-0.9,0.1l1.7-3.6L31.7,19.3z M23.5,25.7c0,0.8-0.3,1.7-0.9,2.3c-0.6,0.6-1.4,1-2.2,1
				l-0.1,0c-1.7,0-3.2-1.4-3.2-3.2c-0.1-1.8,1.4-3.3,3.2-3.3l0.1,0c0.2,0,0.5,0,0.7,0.1l-1.3,2.9c-0.1,0.2-0.1,0.4,0,0.5
				c0.1,0.2,0.2,0.3,0.3,0.3l0,0l0,0c0,0,0,0,0,0c0.1,0,0.1,0,0.2,0c0.3,0,0.5-0.1,0.6-0.4l1.3-2.8C23,23.8,23.5,24.7,23.5,25.7z
				 M24.9,21.6l3.4-0.1L27.6,23L24.9,21.6z M30,24.1L30,24.1c1.3,0,2.4,1,2.4,2.3c0,0.6-0.2,1.2-0.7,1.7c-0.4,0.5-1,0.7-1.7,0.7
				l-0.1,0c-1.3,0-2.3-1-2.4-2.3c0-0.6,0.2-1.2,0.7-1.7C28.8,24.3,29.4,24.1,30,24.1z"/>
			<path class="st1" d="M40,9.6c-0.2-0.3-0.5-0.6-0.8-0.8c-0.5-0.3-1.1-0.5-1.7-0.5h-26c-0.6,0-1.2,0.2-1.7,0.5C9.5,9,9.2,9.3,9,9.6
				c-0.1,0.2-0.2,0.3-0.3,0.5c-0.2,0.4-0.2,0.8-0.2,1.2v26c0,1.7,1.4,3,3,3h26c1.7,0,3-1.3,3-3v-26c0-0.4-0.1-0.8-0.2-1.2
				C40.2,9.9,40.1,9.7,40,9.6z M24.5,35.3c-6.1,0-11-4.9-11-11s4.9-11,11-11s11,4.9,11,11S30.6,35.3,24.5,35.3z"/>
			<g>
				<path class="st2" d="M37.5,6.3h-26c-2.8,0-5,2.2-5,5v26c0,2.8,2.2,5,5,5h26c2.8,0,5-2.2,5-5v-26C42.5,8.5,40.3,6.3,37.5,6.3z
					 M40.5,37.3c0,1.7-1.3,3-3,3h-26c-1.6,0-3-1.3-3-3v-26c0-0.4,0.1-0.8,0.2-1.2C8.8,9.9,8.9,9.7,9,9.6C9.2,9.3,9.5,9,9.8,8.8
					c0.5-0.3,1.1-0.5,1.7-0.5h26c0.6,0,1.2,0.2,1.7,0.5C39.5,9,39.8,9.3,40,9.6c0.1,0.2,0.2,0.3,0.3,0.5c0.2,0.4,0.2,0.8,0.2,1.2
					V37.3z"/>
			</g>
			<path class="st2" d="M22.2,23.2L20.9,26c-0.1,0.2-0.3,0.4-0.6,0.4c-0.1,0-0.1,0-0.2,0c0,0,0,0,0,0l0,0l0,0
				c-0.2-0.1-0.3-0.2-0.3-0.3c-0.1-0.2-0.1-0.4,0-0.5l1.3-2.9c-0.3-0.1-0.5-0.1-0.7-0.1l-0.1,0c-1.8,0.1-3.2,1.6-3.2,3.3
				c0,1.7,1.5,3.2,3.2,3.2l0.1,0c0.9,0,1.7-0.4,2.2-1c0.6-0.6,0.9-1.5,0.9-2.3C23.5,24.7,23,23.8,22.2,23.2z"/>
			<polygon class="st2" points="24.9,21.6 27.6,23 28.3,21.5 			"/>
			<path class="st2" d="M24.5,13.3c-6.1,0-11,4.9-11,11s4.9,11,11,11s11-4.9,11-11S30.6,13.3,24.5,13.3z M30,22.8L30,22.8
				c2,0,3.7,1.6,3.7,3.6c0,1-0.3,1.9-1,2.6c-0.7,0.7-1.6,1.1-2.6,1.2H30c-2,0-3.6-1.6-3.7-3.6c0-0.5,0.1-1.1,0.3-1.5
				c0,0,0-0.1,0-0.1l0.3-0.7l-4.3-2.3L22.7,22c1.3,0.8,2,2.2,2,3.7c0,1.2-0.4,2.4-1.2,3.2c-0.8,0.9-1.9,1.4-3.2,1.4h-0.1
				c-2.4,0-4.5-2-4.5-4.4c0-1.2,0.4-2.3,1.3-3.2c0.8-0.9,2-1.4,3.2-1.4h0.1c0.4,0,0.8,0.1,1.3,0.2l0.5-1.1l-2.5,0.1
				c-0.4,0-0.7-0.3-0.7-0.6c0-0.4,0.3-0.7,0.6-0.7l3.5-0.1c0.2,0,0.4,0.1,0.6,0.3c0.1,0.2,0.1,0.4,0,0.6l-0.1,0.3l5.4-0.1l0.4-0.9
				H29c-0.4,0-0.6-0.3-0.6-0.6c0-0.4,0.3-0.7,0.6-0.7l2.6-0.1h0h0c0.4,0,0.7,0.3,0.7,0.6c0,0.4-0.3,0.7-0.6,0.7l-0.9,0l-1.7,3.6
				C29.4,22.8,29.7,22.8,30,22.8z"/>
			<path class="st2" d="M27.7,26.5c0,1.3,1.1,2.3,2.4,2.3l0.1,0c0.7,0,1.2-0.3,1.7-0.7c0.4-0.5,0.7-1.1,0.7-1.7
				c-0.1-1.3-1.1-2.3-2.4-2.3l-0.1,0c-0.6,0-1.2,0.3-1.6,0.7C27.9,25.2,27.7,25.8,27.7,26.5z"/>
		</g>
	</g>
</g>
</svg>
