<?xml version="1.0" encoding="utf-8"?>
<!-- Generator: Adobe Illustrator 21.0.2, SVG Export Plug-In . SVG Version: 6.00 Build 0)  -->
<svg version="1.1" id="图层_1" xmlns="http://www.w3.org/2000/svg" xmlns:xlink="http://www.w3.org/1999/xlink" x="0px" y="0px"
	 viewBox="0 0 50 50" style="enable-background:new 0 0 50 50;" xml:space="preserve">
<style type="text/css">
	.st0{opacity:0.2;}
	.st1{fill:#FFFFFF;}
	.st2{fill:#F93E54;}
</style>
<g>
	<g class="st0">
		<polygon points="22.2,25.4 25.7,25.4 29.3,19.3 25.8,19.3 		"/>
		<polygon points="26.3,32.6 29.8,32.6 25.7,26.4 22.2,26.4 		"/>
		<path d="M41,10.8c-0.2-0.3-0.5-0.6-0.8-0.8c-0.5-0.3-1.1-0.5-1.7-0.5h-26c-0.6,0-1.2,0.2-1.7,0.5c-0.3,0.2-0.6,0.5-0.8,0.8
			c-0.1,0.2-0.2,0.3-0.3,0.5c-0.2,0.4-0.2,0.8-0.2,1.2v26c0,1.7,1.3,3,3,3h26c1.6,0,3-1.3,3-3v-26c0-0.4-0.1-0.8-0.2-1.2
			C41.2,11.2,41.1,11,41,10.8z M35.5,19.3h-5l-3.6,6.2h8.6v1h-8.6l4,6.2h4.5v1h-20v-1h9.6l-4-6.2h-5.5v-1H21l3.6-6.2h-9.1v-1h20
			V19.3z"/>
		<path d="M38.5,7.5h-26c-2.8,0-5,2.2-5,5v26c0,2.8,2.2,5,5,5h26c2.8,0,5-2.2,5-5v-26C43.5,9.7,41.3,7.5,38.5,7.5z M41.5,38.5
			c0,1.7-1.4,3-3,3h-26c-1.7,0-3-1.3-3-3v-26c0-0.4,0.1-0.8,0.2-1.2c0.1-0.2,0.2-0.3,0.3-0.5c0.2-0.3,0.5-0.6,0.8-0.8
			c0.5-0.3,1.1-0.5,1.7-0.5h26c0.6,0,1.2,0.2,1.7,0.5c0.3,0.2,0.6,0.5,0.8,0.8c0.1,0.2,0.2,0.3,0.3,0.5c0.2,0.4,0.2,0.8,0.2,1.2
			V38.5z"/>
		<path d="M15.5,19.3h9.1L21,25.4h-5.5v1h5.5l4,6.2h-9.6v1h20v-1H31l-4-6.2h8.6v-1h-8.6l3.6-6.2h5v-1h-20V19.3z M29.8,32.6h-3.5
			l-4-6.2h3.5L29.8,32.6z M25.7,25.4h-3.5l3.6-6.2h3.5L25.7,25.4z"/>
	</g>
	<g>
		<g>
			<polygon class="st1" points="21.2,24.4 24.7,24.4 28.3,18.3 24.8,18.3 			"/>
			<polygon class="st1" points="25.3,31.6 28.8,31.6 24.7,25.4 21.2,25.4 			"/>
			<path class="st1" d="M40,9.8c-0.2-0.3-0.5-0.6-0.8-0.8c-0.5-0.3-1.1-0.5-1.7-0.5h-26c-0.6,0-1.2,0.2-1.7,0.5
				C9.5,9.2,9.2,9.5,9,9.8c-0.1,0.2-0.2,0.3-0.3,0.5c-0.2,0.4-0.2,0.8-0.2,1.2v26c0,1.7,1.3,3,3,3h26c1.6,0,3-1.3,3-3v-26
				c0-0.4-0.1-0.8-0.2-1.2C40.2,10.2,40.1,10,40,9.8z M34.5,18.3h-5l-3.6,6.2h8.6v1h-8.6l4,6.2h4.5v1h-20v-1h9.6l-4-6.2h-5.5v-1H20
				l3.6-6.2h-9.1v-1h20V18.3z"/>
			<path class="st2" d="M37.5,6.5h-26c-2.8,0-5,2.2-5,5v26c0,2.8,2.2,5,5,5h26c2.8,0,5-2.2,5-5v-26C42.5,8.7,40.3,6.5,37.5,6.5z
				 M40.5,37.5c0,1.7-1.4,3-3,3h-26c-1.7,0-3-1.3-3-3v-26c0-0.4,0.1-0.8,0.2-1.2C8.8,10.2,8.9,10,9,9.8C9.2,9.5,9.5,9.2,9.8,9
				c0.5-0.3,1.1-0.5,1.7-0.5h26c0.6,0,1.2,0.2,1.7,0.5c0.3,0.2,0.6,0.5,0.8,0.8c0.1,0.2,0.2,0.3,0.3,0.5c0.2,0.4,0.2,0.8,0.2,1.2
				V37.5z"/>
			<path class="st2" d="M14.5,18.3h9.1L20,24.4h-5.5v1h5.5l4,6.2h-9.6v1h20v-1H30l-4-6.2h8.6v-1h-8.6l3.6-6.2h5v-1h-20V18.3z
				 M28.8,31.6h-3.5l-4-6.2h3.5L28.8,31.6z M24.7,24.4h-3.5l3.6-6.2h3.5L24.7,24.4z"/>
		</g>
	</g>
</g>
</svg>
