<svg xmlns="http://www.w3.org/2000/svg" viewBox="0 0 36 36"><defs><style>.cls-1{fill:#fff;}.cls-2{fill:#c955ff;}</style></defs><title>资源 10</title><g id="图层_2" data-name="图层 2"><g id="图层_1-2" data-name="图层 1"><path class="cls-1" d="M31,2H5A3,3,0,0,0,2,5V31a3,3,0,0,0,3,3H31a3,3,0,0,0,3-3V5A3,3,0,0,0,31,2ZM16,25.66a1.07,1.07,0,0,1-.33.8,1.11,1.11,0,0,1-.8.33H10.33a1.11,1.11,0,0,1-1.12-1.12V21.12A1.11,1.11,0,0,1,10.33,20h4.52a1.11,1.11,0,0,1,.8.33,1.07,1.07,0,0,1,.33.8Zm0-9.08a1.14,1.14,0,0,1-1.14,1.14H10.33a1.07,1.07,0,0,1-.8-.34,1.12,1.12,0,0,1-.33-.81V12.06a1.11,1.11,0,0,1,1.12-1.12h4.52a1.11,1.11,0,0,1,.8.33,1.07,1.07,0,0,1,.33.8Zm9,9.08a1.11,1.11,0,0,1-1.12,1.12H19.39a1.11,1.11,0,0,1-.8-.33,1.07,1.07,0,0,1-.33-.8V21.12a1.07,1.07,0,0,1,.33-.8,1.11,1.11,0,0,1,.8-.33h4.52A1.11,1.11,0,0,1,25,21.12Zm1.39-11.05L23.06,18a1.16,1.16,0,0,1-1.68,0L18,14.61a1.14,1.14,0,0,1-.34-.83,1.2,1.2,0,0,1,.34-.85l3.36-3.37a1.2,1.2,0,0,1,1.68,0l3.36,3.37a1.17,1.17,0,0,1,.36.85A1.11,1.11,0,0,1,26.42,14.61Z"/><path class="cls-2" d="M31,0H5A5,5,0,0,0,0,5V31a5,5,0,0,0,5,5H31a5,5,0,0,0,5-5V5A5,5,0,0,0,31,0Zm3,31a3,3,0,0,1-3,3H5a3,3,0,0,1-3-3V5A3,3,0,0,1,5,2H31a3,3,0,0,1,3,3Z"/><path class="cls-2" d="M23.91,20H19.39a1.11,1.11,0,0,0-.8.33,1.07,1.07,0,0,0-.33.8v4.55a1.07,1.07,0,0,0,.33.8,1.11,1.11,0,0,0,.8.33h4.52A1.11,1.11,0,0,0,25,25.66V21.12A1.11,1.11,0,0,0,23.91,20Z"/><path class="cls-2" d="M23.06,9.56a1.2,1.2,0,0,0-1.68,0L18,12.93a1.2,1.2,0,0,0-.34.85,1.14,1.14,0,0,0,.34.83L21.38,18a1.16,1.16,0,0,0,1.68,0l3.36-3.37a1.11,1.11,0,0,0,.36-.83,1.17,1.17,0,0,0-.36-.85Z"/><path class="cls-2" d="M14.85,10.93H10.33a1.11,1.11,0,0,0-1.12,1.12v4.53a1.12,1.12,0,0,0,.33.81,1.07,1.07,0,0,0,.8.34h4.52A1.14,1.14,0,0,0,16,16.59V12.06a1.07,1.07,0,0,0-.33-.8A1.11,1.11,0,0,0,14.85,10.93Z"/><path class="cls-2" d="M14.85,20H10.33a1.11,1.11,0,0,0-1.12,1.12v4.55a1.11,1.11,0,0,0,1.12,1.12h4.52a1.11,1.11,0,0,0,.8-.33,1.07,1.07,0,0,0,.33-.8V21.12a1.07,1.07,0,0,0-.33-.8A1.11,1.11,0,0,0,14.85,20Z"/></g></g></svg>