<svg xmlns="http://www.w3.org/2000/svg" viewBox="0 0 36 36"><defs><style>.cls-1{fill:none;}.cls-2{fill:#fff;}.cls-3{fill:#29abe2;}</style></defs><title>资源 6</title><g id="图层_2" data-name="图层 2"><g id="图层_1-2" data-name="图层 1"><path class="cls-1" d="M5,34a3,3,0,0,1-2.12-.88A3,3,0,0,0,5,34H31a3,3,0,0,0,2.12-.88A3,3,0,0,1,31,34Z"/><path class="cls-1" d="M33.94,31.6a3,3,0,0,1-.82,1.52A3,3,0,0,0,33.94,31.6Z"/><path class="cls-1" d="M2.88,33.12a3,3,0,0,1-.82-1.52A3,3,0,0,0,2.88,33.12Z"/><path class="cls-1" d="M34,31h0a3,3,0,0,1-.06.6A3,3,0,0,0,34,31Z"/><path class="cls-1" d="M2,31a3,3,0,0,0,.06.6A3,3,0,0,1,2,31Z"/><path class="cls-2" d="M31,2H5A3,3,0,0,0,2,5V31a3,3,0,0,0,3,3H31a3,3,0,0,0,3-3V5A3,3,0,0,0,31,2ZM16.17,11.1l.41-.14a.47.47,0,0,1,.6.28.46.46,0,0,1-.28.6l-.41.14a.47.47,0,1,1-.32-.88Zm4.77,7.65-4.72,4.73a.47.47,0,0,1-.67-.67l4.73-4.73a.47.47,0,0,1,.67,0A.48.48,0,0,1,20.93,18.75Zm1.51.65a.47.47,0,1,1,.67.67l-4.73,4.73a.47.47,0,0,1-.67-.67ZM17,27.13a.47.47,0,1,1,.24-.41A.47.47,0,0,1,17,27.13Zm11-1.36a1.42,1.42,0,0,1-1.41,1.41H17.91a.47.47,0,0,1,0-.94h8.7a.47.47,0,0,0,.47-.47v-9a.47.47,0,0,0-.47-.47H12.36a.47.47,0,0,0-.47.47v9a.47.47,0,0,0,.47.47h3.4a.47.47,0,0,1,0,.94H12.36a1.42,1.42,0,0,1-1.41-1.41V23.44l-2.88-7.9a1.43,1.43,0,0,1,.85-1.81l5.8-2.11.15,0a.47.47,0,0,1,.47.47.48.48,0,0,1-.38.46L9.23,14.61a.48.48,0,0,0-.26.25.43.43,0,0,0,0,.35l2,5.48V16.75a1.42,1.42,0,0,1,1.41-1.41H25.14L23.21,10a.48.48,0,0,0-.45-.31.35.35,0,0,0-.15,0l-4.1,1.48a.4.4,0,0,1-.26.08.47.47,0,0,1-.47-.47.46.46,0,0,1,.29-.44h0l4.22-1.53a1.39,1.39,0,0,1,.48-.08,1.42,1.42,0,0,1,1.33.93l2,5.63h.45A1.42,1.42,0,0,1,28,16.75Z"/><path class="cls-3" d="M31,0H5A5,5,0,0,0,0,5V31a5,5,0,0,0,5,5H31a5,5,0,0,0,5-5V5A5,5,0,0,0,31,0Zm3,31h0a3,3,0,0,1-3,3H5a3,3,0,0,1-3-3H2V5A3,3,0,0,1,5,2H31a3,3,0,0,1,3,3Z"/><path class="cls-3" d="M17.71,24.81a.47.47,0,0,0,.67,0l4.73-4.73a.47.47,0,1,0-.67-.67l-4.73,4.73A.47.47,0,0,0,17.71,24.81Z"/><path class="cls-3" d="M16.48,12l.41-.14a.46.46,0,0,0,.28-.6.47.47,0,0,0-.6-.28l-.41.14a.47.47,0,1,0,.32.88Z"/><path class="cls-3" d="M20.27,18.08l-4.73,4.73a.47.47,0,0,0,.67.67l4.72-4.73a.48.48,0,0,0,0-.67A.47.47,0,0,0,20.27,18.08Z"/><path class="cls-3" d="M26.59,15.34h-.45l-2-5.63a1.42,1.42,0,0,0-1.33-.93,1.39,1.39,0,0,0-.48.08l-4.22,1.53h0a.46.46,0,0,0-.29.44.47.47,0,0,0,.47.47.4.4,0,0,0,.26-.08l4.1-1.48a.35.35,0,0,1,.15,0,.48.48,0,0,1,.45.31l1.93,5.31H12.36a1.42,1.42,0,0,0-1.41,1.41v3.93L9,15.21a.43.43,0,0,1,0-.35.48.48,0,0,1,.26-.25L15,12.53a.48.48,0,0,0,.38-.46.47.47,0,0,0-.47-.47l-.15,0-5.8,2.11a1.43,1.43,0,0,0-.85,1.81l2.88,7.9v2.33a1.42,1.42,0,0,0,1.41,1.41h3.36a.47.47,0,0,0,0-.94h-3.4a.47.47,0,0,1-.47-.47v-9a.47.47,0,0,1,.47-.47H26.59a.47.47,0,0,1,.47.47v9a.47.47,0,0,1-.47.47h-8.7a.47.47,0,0,0,0,.94h8.68A1.42,1.42,0,0,0,28,25.77v-9A1.42,1.42,0,0,0,26.59,15.34Z"/><path class="cls-3" d="M17,26.32a.47.47,0,1,0,.24.41A.47.47,0,0,0,17,26.32Z"/></g></g></svg>