<svg xmlns="http://www.w3.org/2000/svg" viewBox="0 0 36 36"><defs><style>.cls-1{fill:none;}.cls-2{fill:#fff;}.cls-3{fill:#006837;}</style></defs><title>资源 5</title><g id="图层_2" data-name="图层 2"><g id="图层_1-2" data-name="图层 1"><path class="cls-1" d="M34,31a3,3,0,0,1-.24,1.16A3,3,0,0,0,34,31Z"/><path class="cls-1" d="M2.24,32.16A3,3,0,0,1,2,31,3,3,0,0,0,2.24,32.16Z"/><path class="cls-1" d="M3.33,33.49a3,3,0,0,1-.44-.37A3,3,0,0,0,3.33,33.49Z"/><path class="cls-1" d="M32.67,33.49a3,3,0,0,0,.81-.81A3,3,0,0,1,32.67,33.49Z"/><path class="cls-2" d="M31,2H5a3,3,0,0,0-1.67.51,3,3,0,0,0-.81.81A3,3,0,0,0,2,5V31a3,3,0,0,0,.24,1.16,3,3,0,0,0,.28.51,3,3,0,0,0,.81.81,3,3,0,0,0,.51.28A3,3,0,0,0,5,34H31a3,3,0,0,0,1.67-.51,3,3,0,0,0,.81-.81A3,3,0,0,0,34,31V5A3,3,0,0,0,31,2ZM28.79,27.11V28H6.94V8h5.43v7h3.32V27.11h5.82l.3-5.54a5.55,5.55,0,0,1-1.65.29,3.87,3.87,0,0,1-1.54-.34A2.77,2.77,0,0,1,17,19.21,3.55,3.55,0,0,1,18.42,16a3.2,3.2,0,0,0,.27-.26l-.08-.13a2.69,2.69,0,0,1,.86-4.07,2.54,2.54,0,0,1,1.08-.31,2.72,2.72,0,0,1,.59-2.08,2.68,2.68,0,0,1,2-.86,2.83,2.83,0,0,1,2.23,1,2.31,2.31,0,0,1,.39,1.91A2.52,2.52,0,0,1,27.92,13a3,3,0,0,1-.46,2.67,3.69,3.69,0,0,1,1.6,3.1,3.05,3.05,0,0,1-2.79,3.14,4.19,4.19,0,0,1-1.57-.31l-.24-.08.07,5.58Z"/><path class="cls-2" d="M23.69,20.47a.48.48,0,0,1,.44-.06l.93.32a3.33,3.33,0,0,0,1.22.24,2.12,2.12,0,0,0,1.83-2.21,2.76,2.76,0,0,0-1.32-2.37l-.33-.18a.47.47,0,0,1-.24-.35.48.48,0,0,1,.14-.4l.27-.27A2,2,0,0,0,27,13.27a1.61,1.61,0,0,0-1.46-1.14h-.36a.49.49,0,0,1-.37-.19.48.48,0,0,1-.08-.41l.1-.35a1.44,1.44,0,0,0-.17-1.31,1.89,1.89,0,0,0-1.47-.64,1.74,1.74,0,0,0-1.33.54,1.9,1.9,0,0,0-.34,1.54l0,.36a.48.48,0,0,1-.52.54l-.36,0a1.47,1.47,0,0,0-.76.19A1.72,1.72,0,0,0,19,13.69,1.76,1.76,0,0,0,19.39,15a1.32,1.32,0,0,1,.25.51c.1.52-.27.84-.59,1.13a2.62,2.62,0,0,0-1.15,2.43A1.81,1.81,0,0,0,19,20.64a2.92,2.92,0,0,0,1.16.26,5.35,5.35,0,0,0,2-.47.47.47,0,0,1,.47,0,.48.48,0,0,1,.21.42l-.34,6.23h1.11l-.08-6.24A.48.48,0,0,1,23.69,20.47Z"/><rect class="cls-2" x="8.07" y="20.77" width="3.11" height="2.47"/><rect class="cls-2" x="8.07" y="16.96" width="3.11" height="2.47"/><rect class="cls-2" x="8.07" y="13.15" width="3.11" height="2.47"/><rect class="cls-2" x="8.07" y="9.34" width="3.11" height="2.47"/><polygon class="cls-2" points="12.32 16.05 12.34 27.06 14.79 27.05 14.77 16.05 12.32 16.05"/><rect class="cls-2" x="8.07" y="24.58" width="3.11" height="2.47"/><path class="cls-3" d="M31,0H5A5,5,0,0,0,0,5V31a5,5,0,0,0,5,5H31a5,5,0,0,0,5-5V5A5,5,0,0,0,31,0Zm3,31a3,3,0,0,1-.51,1.67,3,3,0,0,1-.81.81A3,3,0,0,1,31,34H5a3,3,0,0,1-1.16-.24,3,3,0,0,1-1-.64,3,3,0,0,1-.37-.44,3,3,0,0,1-.28-.51A3,3,0,0,1,2,31V5a3,3,0,0,1,.51-1.67,3,3,0,0,1,.81-.81A3,3,0,0,1,5,2H31a3,3,0,0,1,3,3Z"/><path class="cls-3" d="M24.7,21.62a4.19,4.19,0,0,0,1.57.31,3.05,3.05,0,0,0,2.79-3.14,3.69,3.69,0,0,0-1.6-3.1A3,3,0,0,0,27.92,13a2.52,2.52,0,0,0-2.12-1.83,2.31,2.31,0,0,0-.39-1.91,2.83,2.83,0,0,0-2.23-1,2.68,2.68,0,0,0-2,.86,2.72,2.72,0,0,0-.59,2.08,2.54,2.54,0,0,0-1.08.31,2.69,2.69,0,0,0-.86,4.07l.08.13a3.2,3.2,0,0,1-.27.26A3.55,3.55,0,0,0,17,19.21a2.77,2.77,0,0,0,1.66,2.31,3.87,3.87,0,0,0,1.54.34,5.55,5.55,0,0,0,1.65-.29l-.3,5.54H15.69V15H12.36V8H6.94V28H28.79v-.9H24.53l-.07-5.58ZM11.17,27H8.07V24.58h3.11Zm0-3.81H8.07V20.77h3.11Zm0-3.81H8.07V17h3.11Zm0-3.81H8.07V13.15h3.11Zm0-3.81H8.07V9.34h3.11Zm1.16,15.25,0-11h2.45l0,11Zm10.87.05h-.74l.34-6.23a.48.48,0,0,0-.21-.42.47.47,0,0,0-.47,0,5.35,5.35,0,0,1-2,.47A2.92,2.92,0,0,1,19,20.64a1.81,1.81,0,0,1-1.09-1.55,2.62,2.62,0,0,1,1.15-2.43c.32-.28.69-.61.59-1.13a1.32,1.32,0,0,0-.25-.51A1.76,1.76,0,0,1,19,13.69a1.72,1.72,0,0,1,.94-1.34,1.47,1.47,0,0,1,.76-.19l.36,0a.48.48,0,0,0,.52-.54l0-.36a1.9,1.9,0,0,1,.34-1.54,1.74,1.74,0,0,1,1.33-.54,1.89,1.89,0,0,1,1.47.64,1.44,1.44,0,0,1,.17,1.31l-.1.35a.48.48,0,0,0,.08.41.49.49,0,0,0,.37.19h.36A1.61,1.61,0,0,1,27,13.27a2,2,0,0,1-.37,1.92l-.27.27a.48.48,0,0,0-.14.4.47.47,0,0,0,.24.35l.33.18a2.76,2.76,0,0,1,1.32,2.37A2.12,2.12,0,0,1,26.27,21a3.33,3.33,0,0,1-1.22-.24l-.93-.32a.48.48,0,0,0-.63.46l.08,6.24Z"/></g></g></svg>