<svg xmlns="http://www.w3.org/2000/svg" viewBox="0 0 36 36"><defs><style>.cls-1{fill:#fff;}.cls-2{fill:#998675;}</style></defs><title>资源 7</title><g id="图层_2" data-name="图层 2"><g id="图层_1-2" data-name="图层 1"><path class="cls-1" d="M31,2H5A3,3,0,0,0,2,5V31a3,3,0,0,0,3,3H31a3,3,0,0,0,3-3V5A3,3,0,0,0,31,2ZM16.8,9.16a1.57,1.57,0,1,1-1.57,1.57A1.57,1.57,0,0,1,16.8,9.16ZM15.41,26.79H14.33l-.24-5-1.9-2.18-4,7.21H7l3.95-10,0,0-1-.59v0l-.8-.47.29-.42c1-1.46,1.57-2.63,2.71-3a6.79,6.79,0,0,1,3-.3,1.41,1.41,0,0,1,1.15,1.22l0,5.92,3.14,1.75c.3.17.32.53-.09.55l-5-2.8,1.29,2.6Zm.43,0a31.37,31.37,0,0,0,1.64-3.52c.24-.63,1.25,0,1.82-.63,1.19-1.34,1.35-3.85,2.83-3.85.86,0,6.92,8,6.92,8Z"/><polygon class="cls-1" points="15.06 16.23 13.91 17.81 15.24 18.55 15.06 16.23"/><polygon class="cls-1" points="10.18 15.72 11.17 16.28 12.75 13.46 11.9 13.44 10.18 15.72"/><path class="cls-2" d="M31,0H5A5,5,0,0,0,0,5V31a5,5,0,0,0,5,5H31a5,5,0,0,0,5-5V5A5,5,0,0,0,31,0Zm3,31a3,3,0,0,1-3,3H5a3,3,0,0,1-3-3V5A3,3,0,0,1,5,2H31a3,3,0,0,1,3,3Z"/><path class="cls-2" d="M19.34,21.42c.4,0,.39-.37.09-.55l-3.14-1.75,0-5.92A1.41,1.41,0,0,0,15.11,12a6.79,6.79,0,0,0-3,.3c-1.15.39-1.74,1.55-2.71,3l-.29.42.8.47v0l1,.59,0,0L7,26.84H8.14l4-7.21,1.9,2.18.24,5h1.08l.2-5.57-1.29-2.6Zm-8.17-5.14-1-.56,1.72-2.28h.85Zm2.74,1.52,1.15-1.58.17,2.33Z"/><path class="cls-2" d="M22.13,18.81c-1.48,0-1.64,2.51-2.83,3.85-.57.65-1.58,0-1.82.63a31.37,31.37,0,0,1-1.64,3.52H29S23,18.81,22.13,18.81Z"/><circle class="cls-2" cx="16.8" cy="10.73" r="1.57"/></g></g></svg>