<svg xmlns="http://www.w3.org/2000/svg" viewBox="0 0 36 36"><defs><style>.cls-1{fill:none;}.cls-2{fill:#fff;}.cls-3{fill:#aa0021;}</style></defs><title>资源 9</title><g id="图层_2" data-name="图层 2"><g id="图层_1-2" data-name="图层 1"><path class="cls-1" d="M34,5V31a3,3,0,0,1-.88,2.12A3,3,0,0,0,34,31V5a3,3,0,0,0-.88-2.12A3,3,0,0,1,34,5Z"/><path class="cls-1" d="M5,34a3,3,0,0,1-2.12-.88A3,3,0,0,0,5,34H31a3,3,0,0,0,2.12-.88A3,3,0,0,1,31,34Z"/><path class="cls-2" d="M34,5a3,3,0,0,0-3-3H5A3,3,0,0,0,2,5V31a3,3,0,0,0,3,3H31a3,3,0,0,0,3-3ZM22.92,12a4.19,4.19,0,0,1,.75-.79c.27-.15.42-.08.68,0,.64.55-.2,1.23-.87,2-.28.31-.59.75-.87.86A.64.64,0,0,1,22,14a.45.45,0,0,1-.18-.28C21.69,13.15,22.36,12.6,22.92,12ZM17.63,9.29c.1-.29.26-.34.51-.47.84,0,.67,1,.67,2a3.54,3.54,0,0,1-.07,1.22.64.64,0,0,1-.47.36.46.46,0,0,1-.32-.09c-.46-.29-.34-1.15-.34-2A4.45,4.45,0,0,1,17.63,9.29Zm-2.08,5.63a5.46,5.46,0,0,1,1.67-.63l.64-.06h.59a8.21,8.21,0,0,1,1.21.2A4.93,4.93,0,0,1,23,17.88a10.08,10.08,0,0,1,.14,2.68v4.63H13.12V20.57a10.65,10.65,0,0,1,.15-2.68A4.93,4.93,0,0,1,15.55,14.92Zm-3.9-4a.75.75,0,0,1,.69,0,4.47,4.47,0,0,1,.75.79c.56.62,1.23,1.17,1.07,1.7a.45.45,0,0,1-.18.28.65.65,0,0,1-.59,0c-.28-.11-.59-.55-.87-.86C11.85,12.19,11,11.52,11.65,11ZM8.35,16.4c.17-.22.24-.36.55-.42a4.4,4.4,0,0,1,1.08.15c.82.14,1.69.15,1.9.66a.46.46,0,0,1,0,.33.64.64,0,0,1-.43.41,3.49,3.49,0,0,1-1.22-.13C9.27,17.24,8.19,17.24,8.35,16.4ZM25,26.6c-.21.71-1.54.57-2.95.57H12.89a5.89,5.89,0,0,1-1,0c-.57-.12-1-.55-.61-.95a1.22,1.22,0,0,1,.56-.27l.34,0H22c1.25,0,2.34-.13,2.84.34A.4.4,0,0,1,25,26.6Zm.77-9a3.48,3.48,0,0,1-1.22.13.64.64,0,0,1-.43-.41.46.46,0,0,1,0-.33c.21-.51,1.08-.52,1.9-.66a4.43,4.43,0,0,1,1.08-.15c.31.05.38.2.55.42C27.81,17.44,26.73,17.44,25.75,17.61Z"/><path class="cls-2" d="M14,24.28h8.25V20.43a8.65,8.65,0,0,0-.13-2.23,4.07,4.07,0,0,0-2.77-2.88,6.67,6.67,0,0,0-1-.17h-.48l-.52.05a4.44,4.44,0,0,0-1.37.52,4.08,4.08,0,0,0-1.87,2.47A9.09,9.09,0,0,0,14,20.43Z"/><path class="cls-3" d="M31,0H5A5,5,0,0,0,0,5V31a5,5,0,0,0,5,5H31a5,5,0,0,0,5-5V5A5,5,0,0,0,31,0Zm3,31a3,3,0,0,1-3,3H5a3,3,0,0,1-3-3V5A3,3,0,0,1,5,2H31a3,3,0,0,1,3,3Z"/><path class="cls-3" d="M17.93,12.36a.46.46,0,0,0,.32.09.64.64,0,0,0,.47-.36,3.54,3.54,0,0,0,.07-1.22c0-1,.17-2.06-.67-2-.24.13-.4.17-.51.47a4.45,4.45,0,0,0,0,1.09C17.6,11.21,17.47,12.07,17.93,12.36Z"/><path class="cls-3" d="M22,14a.64.64,0,0,0,.59,0c.28-.11.59-.54.87-.86.66-.75,1.5-1.42.87-2-.27-.07-.41-.14-.68,0a4.19,4.19,0,0,0-.75.79c-.56.62-1.23,1.17-1.07,1.7A.45.45,0,0,0,22,14Z"/><path class="cls-3" d="M11.47,17.53a.64.64,0,0,0,.43-.41.46.46,0,0,0,0-.33c-.21-.51-1.08-.52-1.9-.66A4.4,4.4,0,0,0,8.89,16c-.31.05-.38.2-.55.42-.16.83.92.84,1.91,1A3.49,3.49,0,0,0,11.47,17.53Z"/><path class="cls-3" d="M27.11,16.19a4.43,4.43,0,0,0-1.08.15c-.82.14-1.69.15-1.9.66a.46.46,0,0,0,0,.33.64.64,0,0,0,.43.41,3.48,3.48,0,0,0,1.22-.13c1-.17,2.06-.17,1.91-1C27.49,16.39,27.42,16.24,27.11,16.19Z"/><path class="cls-3" d="M22,25.86H12.13l-.34,0a1.22,1.22,0,0,0-.56.27c-.43.4,0,.83.61.95a5.89,5.89,0,0,0,1,0H22c1.41,0,2.74.14,2.95-.57a.4.4,0,0,0-.15-.39C24.33,25.73,23.24,25.86,22,25.86Z"/><path class="cls-3" d="M13.39,13.8a.65.65,0,0,0,.59,0,.45.45,0,0,0,.18-.28c.15-.53-.52-1.08-1.07-1.7a4.47,4.47,0,0,0-.75-.79.75.75,0,0,0-.69,0c-.64.55.2,1.23.87,2C12.8,13.25,13.11,13.69,13.39,13.8Z"/><path class="cls-3" d="M13.12,20.57v4.62H23.18V20.56A10.08,10.08,0,0,0,23,17.88a4.93,4.93,0,0,0-3.38-3.46,8.21,8.21,0,0,0-1.21-.2h-.59l-.64.06a5.46,5.46,0,0,0-1.67.63,4.93,4.93,0,0,0-2.28,3A10.65,10.65,0,0,0,13.12,20.57Zm1.05-2.37A4.08,4.08,0,0,1,16,15.74a4.44,4.44,0,0,1,1.37-.52l.52-.05h.48a6.67,6.67,0,0,1,1,.17,4.07,4.07,0,0,1,2.77,2.88,8.65,8.65,0,0,1,.13,2.23v3.85H14V20.43A9.09,9.09,0,0,1,14.17,18.2Z"/></g></g></svg>