<svg xmlns="http://www.w3.org/2000/svg" viewBox="0 0 36 36"><defs><style>.cls-1{fill:none;}.cls-2{fill:#fff;}.cls-3{fill:#505787;}</style></defs><title>资源 8</title><g id="图层_2" data-name="图层 2"><g id="图层_1-2" data-name="图层 1"><path class="cls-1" d="M2.88,33.12a3,3,0,0,1-.82-1.52A3,3,0,0,0,2.88,33.12Z"/><path class="cls-1" d="M5,34a3,3,0,0,1-2.12-.88A3,3,0,0,0,5,34H31a3,3,0,0,0,2.12-.88A3,3,0,0,1,31,34Z"/><path class="cls-1" d="M2,31a3,3,0,0,0,.06.6A3,3,0,0,1,2,31Z"/><path class="cls-1" d="M34,31h0a3,3,0,0,1-.06.6A3,3,0,0,0,34,31Z"/><path class="cls-1" d="M33.94,31.6a3,3,0,0,1-.82,1.52A3,3,0,0,0,33.94,31.6Z"/><path class="cls-2" d="M31,2H5A3,3,0,0,0,2,5V31a3,3,0,0,0,3,3H31a3,3,0,0,0,3-3V5A3,3,0,0,0,31,2ZM10.9,25.78S6.33,23,6.33,17.92s11.33-7.78,11.33-7.78h2s-9,2.45-7.44,7.44c1.44,4.65,7.27,8.2,7.27,8.2Zm10.4.08s-6.51-4-8.12-8.63,7.61-7.1,7.61-7.1h1.95s-6.68,2.11-4.4,6.34,11.33,9.39,11.33,9.39Z"/><path class="cls-3" d="M31,0H5A5,5,0,0,0,0,5V31a5,5,0,0,0,5,5H31a5,5,0,0,0,5-5V5A5,5,0,0,0,31,0Zm3,31h0a3,3,0,0,1-3,3H5a3,3,0,0,1-3-3H2V5A3,3,0,0,1,5,2H31a3,3,0,0,1,3,3Z"/><path class="cls-3" d="M18.34,16.48c-2.28-4.23,4.4-6.34,4.4-6.34H20.79s-9.22,2.45-7.61,7.1,8.12,8.63,8.12,8.63h8.37S20.62,20.62,18.34,16.48Z"/><path class="cls-3" d="M12.25,17.58c-1.52-5,7.44-7.44,7.44-7.44h-2S6.33,12.84,6.33,17.92s4.57,7.86,4.57,7.86h8.63S13.69,22.23,12.25,17.58Z"/></g></g></svg>