<svg xmlns="http://www.w3.org/2000/svg" viewBox="0 0 36 36"><defs><style>.cls-1{fill:none;}.cls-2{fill:#fff;}.cls-3{fill:#ff1537;}</style></defs><title>资源 11</title><g id="图层_2" data-name="图层 2"><g id="图层_1-2" data-name="图层 1"><path class="cls-1" d="M34,31a3,3,0,0,1-.24,1.16A3,3,0,0,0,34,31Z"/><path class="cls-1" d="M32.67,33.49a3,3,0,0,0,.81-.81A3,3,0,0,1,32.67,33.49Z"/><path class="cls-1" d="M2.51,32.67a3,3,0,0,0,.81.81A3,3,0,0,1,2.51,32.67Z"/><path class="cls-1" d="M2.24,32.16A3,3,0,0,1,2,31,3,3,0,0,0,2.24,32.16Z"/><path class="cls-2" d="M22.7,15.53a1.08,1.08,0,1,0-.54-.62A1.07,1.07,0,0,0,22.7,15.53Z"/><path class="cls-2" d="M31,2H5A3,3,0,0,0,2,5V31a3,3,0,0,0,.24,1.16,3,3,0,0,0,.28.51,3,3,0,0,0,.81.81A3,3,0,0,0,5,34H31a3,3,0,0,0,1.67-.51,3,3,0,0,0,.81-.81A3,3,0,0,0,34,31V5A3,3,0,0,0,31,2ZM28.65,15.42a6.06,6.06,0,0,0,.41.45l.17.17a1,1,0,0,1,.18,1.21l0,.07-.21.41a1,1,0,0,1-1,.55l-.28,0a6.14,6.14,0,0,0-.72,0,1,1,0,0,0-.77.7,5.83,5.83,0,0,0,0,.63v.15a1,1,0,0,1-.85,1.14l-.08,0h-.07l0,0L25.1,21a1.2,1.2,0,0,1-.34.05,1,1,0,0,1-.79-.4l-.26-.31-.07-.08a7.73,7.73,0,0,0-.29,1.23h0a3.48,3.48,0,0,1-6.71,1.09,5.32,5.32,0,0,0-2.26-1.17,7,7,0,0,0-1.2,3.08h0a3.5,3.5,0,0,1-6.85.76,3.52,3.52,0,0,1,.28-2.71,3.48,3.48,0,0,1,.78-1l.09-.1a7.7,7.7,0,0,0,2.08-4.15l0-.13A3.49,3.49,0,0,1,9.89,16a3.55,3.55,0,0,1,4.72-1.7A3.51,3.51,0,0,1,16.22,19a5.86,5.86,0,0,1-.85,1.09h0c-.16.16-.29.34-.43.51a6.17,6.17,0,0,1,1.44.66,3.39,3.39,0,0,1,1.19-2.74l.09-.1a7.8,7.8,0,0,0,.76-.91l-.3,0h-.24a1,1,0,0,1-1-.72c-.07-.2-.12-.36-.17-.51a1,1,0,0,1,.36-1.14l.16-.13a5.64,5.64,0,0,0,.55-.48,1,1,0,0,0,0-1.1c-.12-.15-.26-.3-.4-.45l-.19-.2a.94.94,0,0,1-.17-1.14l.26-.52a1,1,0,0,1,1-.55l.26,0a7,7,0,0,0,.79,0A1,1,0,0,0,20.1,10c0-.23,0-.46,0-.7,0-.08,0-.16,0-.24a1,1,0,0,1,.7-1l.57-.19a.94.94,0,0,1,1.06.33l.24.28.39.47a.81.81,0,0,0,.54.18A.88.88,0,0,0,24.25,9c.15-.15.3-.29.45-.42l.19-.17A1,1,0,0,1,26,8.26l.54.27a.94.94,0,0,1,.53,1c0,.1,0,.2,0,.3a6.91,6.91,0,0,0,0,.75,1,1,0,0,0,.6.71,6.31,6.31,0,0,0,.83.07h.14a1,1,0,0,1,1,.74l.15.47a1,1,0,0,1-.36,1.17l-.18.15a5.47,5.47,0,0,0-.53.46A1,1,0,0,0,28.65,15.42Z"/><path class="cls-2" d="M22.5,21.39v-.07a8.59,8.59,0,0,1,2.42-4.79,5,5,0,0,0,.7-.87,2.66,2.66,0,0,0-1.22-3.59,2.57,2.57,0,0,0-1.12-.26,2.74,2.74,0,0,0-.93.16,2.67,2.67,0,0,0-1.52,1.38,2.64,2.64,0,0,0-.23.91v0l0,.15a8.55,8.55,0,0,1-2.31,4.61l-.11.11,0,0a2.64,2.64,0,0,0-.6.73,2.7,2.7,0,0,0,1.09,3.65,2.66,2.66,0,0,0,3.89-2.19Zm-1,.78a1.93,1.93,0,1,1,.11-1.47A1.92,1.92,0,0,1,21.52,22.17Zm-.16-7a1.93,1.93,0,1,1,1,1.12A1.92,1.92,0,0,1,21.36,15.18Z"/><path class="cls-2" d="M20.28,20.34a1.08,1.08,0,1,0,.54.62A1.07,1.07,0,0,0,20.28,20.34Z"/><path class="cls-2" d="M29,12.94a.3.3,0,0,0,0-.14l-.14-.44c-.05-.15-.06-.16-.25-.17h-.13a7,7,0,0,1-.95-.09,1.78,1.78,0,0,1-1.3-1.54,7.64,7.64,0,0,1,0-.84c0-.09,0-.19,0-.29s0-.11-.07-.14L25.65,9c-.09,0-.1,0-.18,0l-.2.18c-.14.13-.28.25-.4.38a1.63,1.63,0,0,1-1.25.4,1.56,1.56,0,0,1-1.17-.51l-.36-.44-.25-.3c-.06-.07-.09-.07-.15-.05l-.53.17c-.11,0-.13,0-.13.19s0,.16,0,.24c0,.26,0,.52-.05.79a1.8,1.8,0,0,1-1.55,1.4,7.66,7.66,0,0,1-.88,0l-.25,0c-.12,0-.13,0-.17.09l-.26.51c0,.09,0,.1,0,.18l.18.19c.15.16.3.32.45.5a1.81,1.81,0,0,1-.08,2.22,6.36,6.36,0,0,1-.63.56l-.16.13c-.13.1-.12.11-.09.23s.09.29.16.47a.33.33,0,0,0,.06.12.37.37,0,0,0,.15,0h.23c.25,0,.5,0,.76.05a7.7,7.7,0,0,0,.83-2.41l0-.13A3.51,3.51,0,1,1,26.39,16a5.86,5.86,0,0,1-.85,1.09h0a7.73,7.73,0,0,0-1.44,2c0,.07-.06.14-.09.22h0l.34.41.27.33c.09.11.11.11.23.07l.16-.05.08,0h0l.07,0a.68.68,0,0,0,.24-.1.71.71,0,0,0,0-.25v-.15a6.55,6.55,0,0,1,0-.72,1.8,1.8,0,0,1,1.6-1.44,6.92,6.92,0,0,1,.82,0l.27,0c.12,0,.13,0,.17-.09l.2-.4,0-.07c.07-.14.07-.14,0-.25l-.16-.17a6.76,6.76,0,0,1-.46-.52,1.81,1.81,0,0,1,.1-2.2,6.2,6.2,0,0,1,.61-.54l.18-.14C28.95,13,29,13,29,12.94Z"/><path class="cls-2" d="M15.45,18.66a2.66,2.66,0,0,0-1.22-3.59,2.57,2.57,0,0,0-1.12-.26,2.74,2.74,0,0,0-.93.16,2.67,2.67,0,0,0-1.52,1.38,2.64,2.64,0,0,0-.23.91v0l0,.15a8.55,8.55,0,0,1-2.31,4.61L8,22.18l0,0a2.64,2.64,0,0,0-.6.73,2.7,2.7,0,0,0,1.09,3.65,2.66,2.66,0,0,0,3.89-2.19v-.07a8.59,8.59,0,0,1,2.42-4.79A5,5,0,0,0,15.45,18.66Zm-4.11,6.52h0a1.93,1.93,0,1,1-.86-2.59A1.92,1.92,0,0,1,11.35,25.18Zm2.27-5.77a1.93,1.93,0,1,1,1.12-1A1.93,1.93,0,0,1,13.62,19.41Z"/><path class="cls-2" d="M13.5,16.62a1.08,1.08,0,1,0,.54.62A1.07,1.07,0,0,0,13.5,16.62Z"/><path class="cls-2" d="M10.11,23.35a1.08,1.08,0,1,0,.48,1.45A1.07,1.07,0,0,0,10.11,23.35Z"/><path class="cls-3" d="M31,0H5A5,5,0,0,0,0,5V31a5,5,0,0,0,5,5H31a5,5,0,0,0,5-5V5A5,5,0,0,0,31,0Zm3,31a3,3,0,0,1-.51,1.67,3,3,0,0,1-.81.81A3,3,0,0,1,31,34H5a3,3,0,0,1-1.67-.51,3,3,0,0,1-.81-.81,3,3,0,0,1-.28-.51A3,3,0,0,1,2,31V5A3,3,0,0,1,5,2H31a3,3,0,0,1,3,3Z"/><path class="cls-3" d="M29.22,13.87l.18-.15a1,1,0,0,0,.36-1.17l-.15-.47a1,1,0,0,0-1-.74h-.14a6.31,6.31,0,0,1-.83-.07,1,1,0,0,1-.6-.71,6.91,6.91,0,0,1,0-.75c0-.1,0-.2,0-.3a.94.94,0,0,0-.53-1L26,8.26a1,1,0,0,0-1.14.17l-.19.17c-.15.13-.3.27-.45.42a.88.88,0,0,1-.59.14A.81.81,0,0,1,23.11,9l-.39-.47-.24-.28a.94.94,0,0,0-1.06-.33l-.57.19a1,1,0,0,0-.7,1c0,.08,0,.16,0,.24,0,.25,0,.48,0,.7a1,1,0,0,1-.72.66,7,7,0,0,1-.79,0l-.26,0a1,1,0,0,0-1,.55l-.26.52a.94.94,0,0,0,.17,1.14l.19.2c.14.15.28.3.4.45a1,1,0,0,1,0,1.1,5.64,5.64,0,0,1-.55.48l-.16.13a1,1,0,0,0-.36,1.14c0,.15.1.31.17.51a1,1,0,0,0,1,.72h.24l.3,0a7.8,7.8,0,0,1-.76.91l-.09.1a3.39,3.39,0,0,0-1.19,2.74,6.17,6.17,0,0,0-1.44-.66c.14-.17.28-.35.43-.51h0A5.86,5.86,0,0,0,16.22,19a3.49,3.49,0,0,0-4.32-4.87,3.53,3.53,0,0,0-2,1.83,3.49,3.49,0,0,0-.31,1.19l0,.13a7.7,7.7,0,0,1-2.08,4.15l-.09.1a3.48,3.48,0,0,0-.78,1,3.51,3.51,0,0,0,4.14,5.05,3.51,3.51,0,0,0,2.43-3.1h0a7,7,0,0,1,1.2-3.08,5.32,5.32,0,0,1,2.26,1.17,3.49,3.49,0,0,0,6.71-1.09h0a7.73,7.73,0,0,1,.29-1.23l.07.08.26.31a1,1,0,0,0,.79.4A1.2,1.2,0,0,0,25.1,21l.19-.06,0,0h.07l.08,0a1,1,0,0,0,.85-1.14v-.15a5.83,5.83,0,0,1,0-.63,1,1,0,0,1,.77-.7,6.14,6.14,0,0,1,.72,0l.28,0a1,1,0,0,0,1-.55l.21-.41,0-.07A1,1,0,0,0,29.22,16l-.17-.17a6.06,6.06,0,0,1-.41-.45,1,1,0,0,1,0-1.09A5.47,5.47,0,0,1,29.22,13.87ZM13.16,21.74a8.58,8.58,0,0,0-.83,2.59v.07A2.64,2.64,0,0,1,7.14,25a2.67,2.67,0,0,1,.21-2.05A2.64,2.64,0,0,1,8,22.2l0,0,.11-.11a8.55,8.55,0,0,0,2.31-4.61l0-.15v0a2.64,2.64,0,0,1,.23-.91A2.67,2.67,0,0,1,12.19,15a2.74,2.74,0,0,1,.93-.16,2.57,2.57,0,0,1,1.12.26,2.66,2.66,0,0,1,1.22,3.59,5,5,0,0,1-.7.87A8.58,8.58,0,0,0,13.16,21.74Zm7.5,2A2.63,2.63,0,0,1,17.32,22a2.67,2.67,0,0,1,.21-2.05,2.64,2.64,0,0,1,.6-.73l0,0,.11-.11a8.55,8.55,0,0,0,2.31-4.61l0-.15v0a2.64,2.64,0,0,1,.23-.91A2.67,2.67,0,0,1,22.36,12a2.74,2.74,0,0,1,.93-.16,2.57,2.57,0,0,1,1.12.26,2.66,2.66,0,0,1,1.22,3.59,5,5,0,0,1-.7.87,8.59,8.59,0,0,0-2.42,4.79v.07a2.66,2.66,0,0,1-1.84,2.36Zm7.41-10a1.81,1.81,0,0,0-.1,2.2,6.76,6.76,0,0,0,.46.52l.16.17c.1.11.1.11,0,.25l0,.07-.2.4c0,.09-.06.1-.17.09l-.27,0a6.92,6.92,0,0,0-.82,0,1.8,1.8,0,0,0-1.6,1.44,6.55,6.55,0,0,0,0,.72v.15a.71.71,0,0,1,0,.25.68.68,0,0,1-.24.1l-.07,0h0l-.08,0-.16.05c-.11,0-.14,0-.23-.07l-.27-.33L24,19.33h0c0-.07.05-.15.09-.22a7.73,7.73,0,0,1,1.44-2h0A5.86,5.86,0,0,0,26.39,16a3.49,3.49,0,0,0-4.32-4.87,3.47,3.47,0,0,0-2.32,3l0,.13a7.7,7.7,0,0,1-.83,2.41c-.26,0-.52,0-.76-.05h-.23a.37.37,0,0,1-.15,0,.33.33,0,0,1-.06-.12c-.06-.19-.11-.34-.16-.47s0-.13.09-.23l.16-.13a6.36,6.36,0,0,0,.63-.56,1.81,1.81,0,0,0,.08-2.22c-.14-.18-.3-.34-.45-.5l-.18-.19c-.08-.08-.08-.09,0-.18l.26-.51c0-.09.06-.1.17-.09l.25,0a7.66,7.66,0,0,0,.88,0,1.8,1.8,0,0,0,1.55-1.4c0-.27,0-.53.05-.79q0-.12,0-.24c0-.14,0-.15.13-.19l.53-.17c.06,0,.09,0,.15.05l.25.3.36.44a1.56,1.56,0,0,0,1.17.51,1.63,1.63,0,0,0,1.25-.4c.12-.13.26-.25.4-.38l.2-.18c.08-.07.09-.07.18,0l.53.27c.07,0,.08,0,.07.14s0,.19,0,.29a7.64,7.64,0,0,0,0,.84,1.78,1.78,0,0,0,1.3,1.54,7,7,0,0,0,.95.09h.13c.19,0,.2,0,.25.17l.14.44a.3.3,0,0,1,0,.14s0,0-.11.12l-.18.14A6.2,6.2,0,0,0,28.08,13.74Z"/><path class="cls-3" d="M10.49,22.59a1.93,1.93,0,1,0,.86,2.59h0A1.93,1.93,0,0,0,10.49,22.59Zm.09,2.21a1.08,1.08,0,1,1-.48-1.45A1.08,1.08,0,0,1,10.58,24.8Z"/><path class="cls-3" d="M14.85,17a1.93,1.93,0,1,0-.11,1.47A1.92,1.92,0,0,0,14.85,17ZM14,18.06a1.08,1.08,0,1,1,.06-.82A1.07,1.07,0,0,1,14,18.06Z"/><path class="cls-3" d="M23.19,16.5a1.93,1.93,0,1,0-.87-.21A1.93,1.93,0,0,0,23.19,16.5Zm-1-2.42a1.08,1.08,0,1,1-.06.82A1.08,1.08,0,0,1,22.23,14.09Z"/><path class="cls-3" d="M20.67,19.58a1.93,1.93,0,1,0,1,1.12A1.92,1.92,0,0,0,20.67,19.58Zm.09,2.21a1.08,1.08,0,1,1,.06-.82A1.07,1.07,0,0,1,20.76,21.79Z"/></g></g></svg>